G04 #@! TF.GenerationSoftware,KiCad,Pcbnew,5.1.5+dfsg1-2build2*
G04 #@! TF.CreationDate,2021-09-10T16:14:55+02:00*
G04 #@! TF.ProjectId,cronotempNuevo,63726f6e-6f74-4656-9d70-4e7565766f2e,rev?*
G04 #@! TF.SameCoordinates,Original*
G04 #@! TF.FileFunction,Other,Fab,Top*
%FSLAX46Y46*%
G04 Gerber Fmt 4.6, Leading zero omitted, Abs format (unit mm)*
G04 Created by KiCad (PCBNEW 5.1.5+dfsg1-2build2) date 2021-09-10 16:14:55*
%MOMM*%
%LPD*%
G04 APERTURE LIST*
%ADD10C,0.100000*%
%ADD11C,0.127000*%
%ADD12C,0.280000*%
%ADD13C,0.150000*%
%ADD14C,0.080000*%
%ADD15C,0.015000*%
%ADD16C,0.075000*%
%ADD17C,0.120000*%
G04 APERTURE END LIST*
D10*
X121250000Y-121350000D02*
X121250000Y-119350000D01*
X122450000Y-121350000D02*
X121250000Y-121350000D01*
X122450000Y-119350000D02*
X122450000Y-121350000D01*
X121250000Y-119350000D02*
X122450000Y-119350000D01*
X65151000Y-114300000D02*
X63246000Y-114300000D01*
X63246000Y-114300000D02*
X63246000Y-101600000D01*
X63246000Y-101600000D02*
X65786000Y-101600000D01*
X65786000Y-101600000D02*
X65786000Y-113665000D01*
X65786000Y-113665000D02*
X65151000Y-114300000D01*
X70700000Y-136100000D02*
X69500000Y-136100000D01*
X69500000Y-136100000D02*
X69500000Y-134100000D01*
X69500000Y-134100000D02*
X70700000Y-134100000D01*
X70700000Y-134100000D02*
X70700000Y-136100000D01*
X117250000Y-106700000D02*
X117250000Y-105500000D01*
X117250000Y-105500000D02*
X119250000Y-105500000D01*
X119250000Y-105500000D02*
X119250000Y-106700000D01*
X119250000Y-106700000D02*
X117250000Y-106700000D01*
D11*
X105116000Y-107242000D02*
X105116000Y-118642000D01*
X105116000Y-118642000D02*
X100116000Y-118642000D01*
X100116000Y-118642000D02*
X100116000Y-107242000D01*
X100116000Y-107242000D02*
X105116000Y-107242000D01*
D10*
X69500000Y-140600000D02*
X69500000Y-138600000D01*
X70700000Y-140600000D02*
X69500000Y-140600000D01*
X70700000Y-138600000D02*
X70700000Y-140600000D01*
X69500000Y-138600000D02*
X70700000Y-138600000D01*
X116525000Y-115194000D02*
X114433000Y-117287000D01*
X116708000Y-115377000D02*
X114616000Y-117470000D01*
X111445000Y-115194000D02*
X109352000Y-117287000D01*
X111628000Y-115377000D02*
X109535000Y-117470000D01*
X107950000Y-114032000D02*
X118110000Y-114032000D01*
X107950000Y-118932000D02*
X118110000Y-118932000D01*
X107950000Y-120432000D02*
X118110000Y-120432000D01*
X107950000Y-120432000D02*
X107950000Y-111132000D01*
X108450000Y-120932000D02*
X107950000Y-120432000D01*
X118110000Y-120932000D02*
X108450000Y-120932000D01*
X118110000Y-111132000D02*
X118110000Y-120932000D01*
X107950000Y-111132000D02*
X118110000Y-111132000D01*
X117070000Y-116332000D02*
G75*
G03X117070000Y-116332000I-1500000J0D01*
G01*
X111990000Y-116332000D02*
G75*
G03X111990000Y-116332000I-1500000J0D01*
G01*
X137420000Y-138300000D02*
X137420000Y-136900000D01*
X134380000Y-136900000D02*
X137420000Y-136900000D01*
X134950000Y-138300000D02*
X134380000Y-137750000D01*
X134380000Y-137750000D02*
X134380000Y-136900000D01*
X134950000Y-138300000D02*
X137400000Y-138300000D01*
X91050000Y-152415000D02*
X91050000Y-126910000D01*
X73050000Y-152415000D02*
X91050000Y-152415000D01*
X73050000Y-126910000D02*
X73050000Y-132635000D01*
X73050000Y-126910000D02*
X91050000Y-126910000D01*
X73050000Y-133635000D02*
X73050000Y-152415000D01*
X73550000Y-133135000D02*
X73050000Y-132635000D01*
X73050000Y-133635000D02*
X73550000Y-133135000D01*
X165540000Y-153150000D02*
X165540000Y-157650000D01*
X165540000Y-157650000D02*
X153540000Y-157650000D01*
X153540000Y-157650000D02*
X153540000Y-152150000D01*
X164540000Y-152150000D02*
X153540000Y-152150000D01*
X164540000Y-152150000D02*
X165540000Y-153150000D01*
X88250000Y-111950000D02*
X90250000Y-111950000D01*
X88250000Y-113150000D02*
X88250000Y-111950000D01*
X90250000Y-113150000D02*
X88250000Y-113150000D01*
X90250000Y-111950000D02*
X90250000Y-113150000D01*
X126300000Y-136650000D02*
X126300000Y-138650000D01*
X125100000Y-136650000D02*
X126300000Y-136650000D01*
X125100000Y-138650000D02*
X125100000Y-136650000D01*
X126300000Y-138650000D02*
X125100000Y-138650000D01*
X130200000Y-136650000D02*
X130200000Y-138650000D01*
X129000000Y-136650000D02*
X130200000Y-136650000D01*
X129000000Y-138650000D02*
X129000000Y-136650000D01*
X130200000Y-138650000D02*
X129000000Y-138650000D01*
X105250000Y-145100000D02*
X104050000Y-145100000D01*
X104050000Y-145100000D02*
X104050000Y-143100000D01*
X104050000Y-143100000D02*
X105250000Y-143100000D01*
X105250000Y-143100000D02*
X105250000Y-145100000D01*
D11*
X125274000Y-128698000D02*
X125274000Y-118698000D01*
X125274000Y-118698000D02*
X131774000Y-118698000D01*
X131774000Y-118698000D02*
X131774000Y-128698000D01*
X131774000Y-128698000D02*
X125274000Y-128698000D01*
D12*
X133464000Y-128298000D02*
G75*
G03X133464000Y-128298000I-140000J0D01*
G01*
D10*
X129400000Y-132700000D02*
X127600000Y-132700000D01*
X127600000Y-132700000D02*
X127600000Y-131300000D01*
X127600000Y-131300000D02*
X129400000Y-131300000D01*
X129400000Y-131300000D02*
X129400000Y-132700000D01*
X128800000Y-132350000D02*
X128800000Y-131650000D01*
X128800000Y-132000000D02*
X129000000Y-132000000D01*
X128800000Y-132000000D02*
X128300000Y-132350000D01*
X128300000Y-132350000D02*
X128300000Y-131650000D01*
X128300000Y-131650000D02*
X128800000Y-132000000D01*
X128300000Y-132000000D02*
X128050000Y-132000000D01*
X143016000Y-124896000D02*
X144066000Y-125946000D01*
X143016000Y-124896000D02*
X137366000Y-124896000D01*
X144066000Y-125946000D02*
X144066000Y-128596000D01*
X137366000Y-124896000D02*
X137366000Y-128596000D01*
X144066000Y-128596000D02*
X137366000Y-128596000D01*
D13*
X120652380Y-120564285D02*
X120652380Y-121135714D01*
X120652380Y-120850000D02*
X119652380Y-120850000D01*
X119795238Y-120945238D01*
X119890476Y-121040476D01*
X119938095Y-121135714D01*
X120652380Y-120135714D02*
X119652380Y-120135714D01*
X120652380Y-119564285D02*
X120080952Y-119992857D01*
X119652380Y-119564285D02*
X120223809Y-120135714D01*
D14*
X122076190Y-120433333D02*
X121838095Y-120600000D01*
X122076190Y-120719047D02*
X121576190Y-120719047D01*
X121576190Y-120528571D01*
X121600000Y-120480952D01*
X121623809Y-120457142D01*
X121671428Y-120433333D01*
X121742857Y-120433333D01*
X121790476Y-120457142D01*
X121814285Y-120480952D01*
X121838095Y-120528571D01*
X121838095Y-120719047D01*
X121576190Y-120004761D02*
X121576190Y-120100000D01*
X121600000Y-120147619D01*
X121623809Y-120171428D01*
X121695238Y-120219047D01*
X121790476Y-120242857D01*
X121980952Y-120242857D01*
X122028571Y-120219047D01*
X122052380Y-120195238D01*
X122076190Y-120147619D01*
X122076190Y-120052380D01*
X122052380Y-120004761D01*
X122028571Y-119980952D01*
X121980952Y-119957142D01*
X121861904Y-119957142D01*
X121814285Y-119980952D01*
X121790476Y-120004761D01*
X121766666Y-120052380D01*
X121766666Y-120147619D01*
X121790476Y-120195238D01*
X121814285Y-120219047D01*
X121861904Y-120242857D01*
D13*
X61857142Y-110119047D02*
X61904761Y-110166666D01*
X61952380Y-110309523D01*
X61952380Y-110404761D01*
X61904761Y-110547619D01*
X61809523Y-110642857D01*
X61714285Y-110690476D01*
X61523809Y-110738095D01*
X61380952Y-110738095D01*
X61190476Y-110690476D01*
X61095238Y-110642857D01*
X61000000Y-110547619D01*
X60952380Y-110404761D01*
X60952380Y-110309523D01*
X61000000Y-110166666D01*
X61047619Y-110119047D01*
X60952380Y-109500000D02*
X60952380Y-109309523D01*
X61000000Y-109214285D01*
X61095238Y-109119047D01*
X61285714Y-109071428D01*
X61619047Y-109071428D01*
X61809523Y-109119047D01*
X61904761Y-109214285D01*
X61952380Y-109309523D01*
X61952380Y-109500000D01*
X61904761Y-109595238D01*
X61809523Y-109690476D01*
X61619047Y-109738095D01*
X61285714Y-109738095D01*
X61095238Y-109690476D01*
X61000000Y-109595238D01*
X60952380Y-109500000D01*
X61952380Y-108642857D02*
X60952380Y-108642857D01*
X61952380Y-108071428D01*
X60952380Y-108071428D01*
X61952380Y-107595238D02*
X60952380Y-107595238D01*
X61952380Y-107023809D01*
X60952380Y-107023809D01*
X62047619Y-106785714D02*
X62047619Y-106023809D01*
X60952380Y-105309523D02*
X60952380Y-105785714D01*
X61428571Y-105833333D01*
X61380952Y-105785714D01*
X61333333Y-105690476D01*
X61333333Y-105452380D01*
X61380952Y-105357142D01*
X61428571Y-105309523D01*
X61523809Y-105261904D01*
X61761904Y-105261904D01*
X61857142Y-105309523D01*
X61904761Y-105357142D01*
X61952380Y-105452380D01*
X61952380Y-105690476D01*
X61904761Y-105785714D01*
X61857142Y-105833333D01*
X64968380Y-108688095D02*
X63968380Y-108688095D01*
X63968380Y-108307142D01*
X64016000Y-108211904D01*
X64063619Y-108164285D01*
X64158857Y-108116666D01*
X64301714Y-108116666D01*
X64396952Y-108164285D01*
X64444571Y-108211904D01*
X64492190Y-108307142D01*
X64492190Y-108688095D01*
X64063619Y-107735714D02*
X64016000Y-107688095D01*
X63968380Y-107592857D01*
X63968380Y-107354761D01*
X64016000Y-107259523D01*
X64063619Y-107211904D01*
X64158857Y-107164285D01*
X64254095Y-107164285D01*
X64396952Y-107211904D01*
X64968380Y-107783333D01*
X64968380Y-107164285D01*
X71297619Y-136742857D02*
X71250000Y-136695238D01*
X71202380Y-136600000D01*
X71202380Y-136361904D01*
X71250000Y-136266666D01*
X71297619Y-136219047D01*
X71392857Y-136171428D01*
X71488095Y-136171428D01*
X71630952Y-136219047D01*
X72202380Y-136790476D01*
X72202380Y-136171428D01*
X71297619Y-135790476D02*
X71250000Y-135742857D01*
X71202380Y-135647619D01*
X71202380Y-135409523D01*
X71250000Y-135314285D01*
X71297619Y-135266666D01*
X71392857Y-135219047D01*
X71488095Y-135219047D01*
X71630952Y-135266666D01*
X72202380Y-135838095D01*
X72202380Y-135219047D01*
X71535714Y-134361904D02*
X72202380Y-134361904D01*
X71535714Y-134790476D02*
X72059523Y-134790476D01*
X72154761Y-134742857D01*
X72202380Y-134647619D01*
X72202380Y-134504761D01*
X72154761Y-134409523D01*
X72107142Y-134361904D01*
X71678571Y-133552380D02*
X71678571Y-133885714D01*
X72202380Y-133885714D02*
X71202380Y-133885714D01*
X71202380Y-133409523D01*
D14*
X70278571Y-135183333D02*
X70302380Y-135207142D01*
X70326190Y-135278571D01*
X70326190Y-135326190D01*
X70302380Y-135397619D01*
X70254761Y-135445238D01*
X70207142Y-135469047D01*
X70111904Y-135492857D01*
X70040476Y-135492857D01*
X69945238Y-135469047D01*
X69897619Y-135445238D01*
X69850000Y-135397619D01*
X69826190Y-135326190D01*
X69826190Y-135278571D01*
X69850000Y-135207142D01*
X69873809Y-135183333D01*
X69873809Y-134992857D02*
X69850000Y-134969047D01*
X69826190Y-134921428D01*
X69826190Y-134802380D01*
X69850000Y-134754761D01*
X69873809Y-134730952D01*
X69921428Y-134707142D01*
X69969047Y-134707142D01*
X70040476Y-134730952D01*
X70326190Y-135016666D01*
X70326190Y-134707142D01*
D13*
X118035714Y-108202380D02*
X117464285Y-108202380D01*
X117750000Y-108202380D02*
X117750000Y-107202380D01*
X117654761Y-107345238D01*
X117559523Y-107440476D01*
X117464285Y-107488095D01*
X118464285Y-108202380D02*
X118464285Y-107202380D01*
X119035714Y-108202380D02*
X118607142Y-107630952D01*
X119035714Y-107202380D02*
X118464285Y-107773809D01*
D14*
X118166666Y-106326190D02*
X118000000Y-106088095D01*
X117880952Y-106326190D02*
X117880952Y-105826190D01*
X118071428Y-105826190D01*
X118119047Y-105850000D01*
X118142857Y-105873809D01*
X118166666Y-105921428D01*
X118166666Y-105992857D01*
X118142857Y-106040476D01*
X118119047Y-106064285D01*
X118071428Y-106088095D01*
X117880952Y-106088095D01*
X118595238Y-105992857D02*
X118595238Y-106326190D01*
X118476190Y-105802380D02*
X118357142Y-106159523D01*
X118666666Y-106159523D01*
D15*
X99338477Y-116915435D02*
X98336981Y-116915435D01*
X98336981Y-116533913D01*
X98384672Y-116438532D01*
X98432362Y-116390842D01*
X98527742Y-116343151D01*
X98670813Y-116343151D01*
X98766194Y-116390842D01*
X98813884Y-116438532D01*
X98861574Y-116533913D01*
X98861574Y-116915435D01*
X98336981Y-115627797D02*
X99052336Y-115627797D01*
X99195406Y-115675487D01*
X99290787Y-115770868D01*
X99338477Y-115913939D01*
X99338477Y-116009319D01*
X98956955Y-115150894D02*
X98956955Y-114387850D01*
X98336981Y-113720186D02*
X98336981Y-113624805D01*
X98384672Y-113529425D01*
X98432362Y-113481734D01*
X98527742Y-113434044D01*
X98718504Y-113386354D01*
X98956955Y-113386354D01*
X99147716Y-113434044D01*
X99243097Y-113481734D01*
X99290787Y-113529425D01*
X99338477Y-113624805D01*
X99338477Y-113720186D01*
X99290787Y-113815566D01*
X99243097Y-113863257D01*
X99147716Y-113910947D01*
X98956955Y-113958637D01*
X98718504Y-113958637D01*
X98527742Y-113910947D01*
X98432362Y-113863257D01*
X98384672Y-113815566D01*
X98336981Y-113720186D01*
X99338477Y-112432548D02*
X99338477Y-113004831D01*
X99338477Y-112718690D02*
X98336981Y-112718690D01*
X98480052Y-112814070D01*
X98575433Y-112909451D01*
X98623123Y-113004831D01*
X98766194Y-111860265D02*
X98718504Y-111955645D01*
X98670813Y-112003335D01*
X98575433Y-112051026D01*
X98527742Y-112051026D01*
X98432362Y-112003335D01*
X98384672Y-111955645D01*
X98336981Y-111860265D01*
X98336981Y-111669503D01*
X98384672Y-111574123D01*
X98432362Y-111526433D01*
X98527742Y-111478742D01*
X98575433Y-111478742D01*
X98670813Y-111526433D01*
X98718504Y-111574123D01*
X98766194Y-111669503D01*
X98766194Y-111860265D01*
X98813884Y-111955645D01*
X98861574Y-112003335D01*
X98956955Y-112051026D01*
X99147716Y-112051026D01*
X99243097Y-112003335D01*
X99290787Y-111955645D01*
X99338477Y-111860265D01*
X99338477Y-111669503D01*
X99290787Y-111574123D01*
X99243097Y-111526433D01*
X99147716Y-111478742D01*
X98956955Y-111478742D01*
X98861574Y-111526433D01*
X98813884Y-111574123D01*
X98766194Y-111669503D01*
X99338477Y-111049530D02*
X98336981Y-111049530D01*
X98813884Y-111049530D02*
X98813884Y-110477246D01*
X99338477Y-110477246D02*
X98336981Y-110477246D01*
D13*
X68902380Y-140290476D02*
X68902380Y-140861904D01*
X68902380Y-140576190D02*
X67902380Y-140576190D01*
X68045238Y-140671428D01*
X68140476Y-140766666D01*
X68188095Y-140861904D01*
X67902380Y-139671428D02*
X67902380Y-139576190D01*
X67950000Y-139480952D01*
X67997619Y-139433333D01*
X68092857Y-139385714D01*
X68283333Y-139338095D01*
X68521428Y-139338095D01*
X68711904Y-139385714D01*
X68807142Y-139433333D01*
X68854761Y-139480952D01*
X68902380Y-139576190D01*
X68902380Y-139671428D01*
X68854761Y-139766666D01*
X68807142Y-139814285D01*
X68711904Y-139861904D01*
X68521428Y-139909523D01*
X68283333Y-139909523D01*
X68092857Y-139861904D01*
X67997619Y-139814285D01*
X67950000Y-139766666D01*
X67902380Y-139671428D01*
X68902380Y-138909523D02*
X67902380Y-138909523D01*
X68902380Y-138338095D02*
X68330952Y-138766666D01*
X67902380Y-138338095D02*
X68473809Y-138909523D01*
D14*
X70326190Y-139683333D02*
X70088095Y-139850000D01*
X70326190Y-139969047D02*
X69826190Y-139969047D01*
X69826190Y-139778571D01*
X69850000Y-139730952D01*
X69873809Y-139707142D01*
X69921428Y-139683333D01*
X69992857Y-139683333D01*
X70040476Y-139707142D01*
X70064285Y-139730952D01*
X70088095Y-139778571D01*
X70088095Y-139969047D01*
X69826190Y-139230952D02*
X69826190Y-139469047D01*
X70064285Y-139492857D01*
X70040476Y-139469047D01*
X70016666Y-139421428D01*
X70016666Y-139302380D01*
X70040476Y-139254761D01*
X70064285Y-139230952D01*
X70111904Y-139207142D01*
X70230952Y-139207142D01*
X70278571Y-139230952D01*
X70302380Y-139254761D01*
X70326190Y-139302380D01*
X70326190Y-139421428D01*
X70302380Y-139469047D01*
X70278571Y-139492857D01*
D13*
X110380952Y-113857142D02*
X110333333Y-113904761D01*
X110190476Y-113952380D01*
X110095238Y-113952380D01*
X109952380Y-113904761D01*
X109857142Y-113809523D01*
X109809523Y-113714285D01*
X109761904Y-113523809D01*
X109761904Y-113380952D01*
X109809523Y-113190476D01*
X109857142Y-113095238D01*
X109952380Y-113000000D01*
X110095238Y-112952380D01*
X110190476Y-112952380D01*
X110333333Y-113000000D01*
X110380952Y-113047619D01*
X111000000Y-112952380D02*
X111190476Y-112952380D01*
X111285714Y-113000000D01*
X111380952Y-113095238D01*
X111428571Y-113285714D01*
X111428571Y-113619047D01*
X111380952Y-113809523D01*
X111285714Y-113904761D01*
X111190476Y-113952380D01*
X111000000Y-113952380D01*
X110904761Y-113904761D01*
X110809523Y-113809523D01*
X110761904Y-113619047D01*
X110761904Y-113285714D01*
X110809523Y-113095238D01*
X110904761Y-113000000D01*
X111000000Y-112952380D01*
X111857142Y-113952380D02*
X111857142Y-112952380D01*
X112428571Y-113952380D01*
X112428571Y-112952380D01*
X112904761Y-113952380D02*
X112904761Y-112952380D01*
X113476190Y-113952380D01*
X113476190Y-112952380D01*
X113714285Y-114047619D02*
X114476190Y-114047619D01*
X114666666Y-113047619D02*
X114714285Y-113000000D01*
X114809523Y-112952380D01*
X115047619Y-112952380D01*
X115142857Y-113000000D01*
X115190476Y-113047619D01*
X115238095Y-113142857D01*
X115238095Y-113238095D01*
X115190476Y-113380952D01*
X114619047Y-113952380D01*
X115238095Y-113952380D01*
X112291904Y-119984380D02*
X112291904Y-118984380D01*
X112672857Y-118984380D01*
X112768095Y-119032000D01*
X112815714Y-119079619D01*
X112863333Y-119174857D01*
X112863333Y-119317714D01*
X112815714Y-119412952D01*
X112768095Y-119460571D01*
X112672857Y-119508190D01*
X112291904Y-119508190D01*
X113815714Y-119984380D02*
X113244285Y-119984380D01*
X113530000Y-119984380D02*
X113530000Y-118984380D01*
X113434761Y-119127238D01*
X113339523Y-119222476D01*
X113244285Y-119270095D01*
X137947619Y-140314285D02*
X137900000Y-140266666D01*
X137852380Y-140171428D01*
X137852380Y-139933333D01*
X137900000Y-139838095D01*
X137947619Y-139790476D01*
X138042857Y-139742857D01*
X138138095Y-139742857D01*
X138280952Y-139790476D01*
X138852380Y-140361904D01*
X138852380Y-139742857D01*
X138852380Y-139314285D02*
X137852380Y-139314285D01*
X138852380Y-138742857D01*
X137852380Y-138742857D01*
X137852380Y-138361904D02*
X137852380Y-137695238D01*
X138852380Y-138123809D01*
X137852380Y-137123809D02*
X137852380Y-137028571D01*
X137900000Y-136933333D01*
X137947619Y-136885714D01*
X138042857Y-136838095D01*
X138233333Y-136790476D01*
X138471428Y-136790476D01*
X138661904Y-136838095D01*
X138757142Y-136885714D01*
X138804761Y-136933333D01*
X138852380Y-137028571D01*
X138852380Y-137123809D01*
X138804761Y-137219047D01*
X138757142Y-137266666D01*
X138661904Y-137314285D01*
X138471428Y-137361904D01*
X138233333Y-137361904D01*
X138042857Y-137314285D01*
X137947619Y-137266666D01*
X137900000Y-137219047D01*
X137852380Y-137123809D01*
X137852380Y-136171428D02*
X137852380Y-136076190D01*
X137900000Y-135980952D01*
X137947619Y-135933333D01*
X138042857Y-135885714D01*
X138233333Y-135838095D01*
X138471428Y-135838095D01*
X138661904Y-135885714D01*
X138757142Y-135933333D01*
X138804761Y-135980952D01*
X138852380Y-136076190D01*
X138852380Y-136171428D01*
X138804761Y-136266666D01*
X138757142Y-136314285D01*
X138661904Y-136361904D01*
X138471428Y-136409523D01*
X138233333Y-136409523D01*
X138042857Y-136361904D01*
X137947619Y-136314285D01*
X137900000Y-136266666D01*
X137852380Y-136171428D01*
X137947619Y-135457142D02*
X137900000Y-135409523D01*
X137852380Y-135314285D01*
X137852380Y-135076190D01*
X137900000Y-134980952D01*
X137947619Y-134933333D01*
X138042857Y-134885714D01*
X138138095Y-134885714D01*
X138280952Y-134933333D01*
X138852380Y-135504761D01*
X138852380Y-134885714D01*
D16*
X135852380Y-137873809D02*
X135804761Y-137850000D01*
X135757142Y-137802380D01*
X135685714Y-137730952D01*
X135638095Y-137707142D01*
X135590476Y-137707142D01*
X135614285Y-137826190D02*
X135566666Y-137802380D01*
X135519047Y-137754761D01*
X135495238Y-137659523D01*
X135495238Y-137492857D01*
X135519047Y-137397619D01*
X135566666Y-137350000D01*
X135614285Y-137326190D01*
X135709523Y-137326190D01*
X135757142Y-137350000D01*
X135804761Y-137397619D01*
X135828571Y-137492857D01*
X135828571Y-137659523D01*
X135804761Y-137754761D01*
X135757142Y-137802380D01*
X135709523Y-137826190D01*
X135614285Y-137826190D01*
X136304761Y-137826190D02*
X136019047Y-137826190D01*
X136161904Y-137826190D02*
X136161904Y-137326190D01*
X136114285Y-137397619D01*
X136066666Y-137445238D01*
X136019047Y-137469047D01*
D13*
X82595238Y-106428571D02*
X82738095Y-106476190D01*
X82785714Y-106523809D01*
X82833333Y-106619047D01*
X82833333Y-106761904D01*
X82785714Y-106857142D01*
X82738095Y-106904761D01*
X82642857Y-106952380D01*
X82261904Y-106952380D01*
X82261904Y-105952380D01*
X82595238Y-105952380D01*
X82690476Y-106000000D01*
X82738095Y-106047619D01*
X82785714Y-106142857D01*
X82785714Y-106238095D01*
X82738095Y-106333333D01*
X82690476Y-106380952D01*
X82595238Y-106428571D01*
X82261904Y-106428571D01*
X83690476Y-106952380D02*
X83690476Y-106428571D01*
X83642857Y-106333333D01*
X83547619Y-106285714D01*
X83357142Y-106285714D01*
X83261904Y-106333333D01*
X83690476Y-106904761D02*
X83595238Y-106952380D01*
X83357142Y-106952380D01*
X83261904Y-106904761D01*
X83214285Y-106809523D01*
X83214285Y-106714285D01*
X83261904Y-106619047D01*
X83357142Y-106571428D01*
X83595238Y-106571428D01*
X83690476Y-106523809D01*
X84023809Y-106285714D02*
X84404761Y-106285714D01*
X84166666Y-105952380D02*
X84166666Y-106809523D01*
X84214285Y-106904761D01*
X84309523Y-106952380D01*
X84404761Y-106952380D01*
X84595238Y-106285714D02*
X84976190Y-106285714D01*
X84738095Y-105952380D02*
X84738095Y-106809523D01*
X84785714Y-106904761D01*
X84880952Y-106952380D01*
X84976190Y-106952380D01*
X85690476Y-106904761D02*
X85595238Y-106952380D01*
X85404761Y-106952380D01*
X85309523Y-106904761D01*
X85261904Y-106809523D01*
X85261904Y-106428571D01*
X85309523Y-106333333D01*
X85404761Y-106285714D01*
X85595238Y-106285714D01*
X85690476Y-106333333D01*
X85738095Y-106428571D01*
X85738095Y-106523809D01*
X85261904Y-106619047D01*
X86166666Y-106952380D02*
X86166666Y-106285714D01*
X86166666Y-106476190D02*
X86214285Y-106380952D01*
X86261904Y-106333333D01*
X86357142Y-106285714D01*
X86452380Y-106285714D01*
X86690476Y-106285714D02*
X86928571Y-106952380D01*
X87166666Y-106285714D02*
X86928571Y-106952380D01*
X86833333Y-107190476D01*
X86785714Y-107238095D01*
X86690476Y-107285714D01*
X87309523Y-107047619D02*
X88071428Y-107047619D01*
X88880952Y-106857142D02*
X88833333Y-106904761D01*
X88690476Y-106952380D01*
X88595238Y-106952380D01*
X88452380Y-106904761D01*
X88357142Y-106809523D01*
X88309523Y-106714285D01*
X88261904Y-106523809D01*
X88261904Y-106380952D01*
X88309523Y-106190476D01*
X88357142Y-106095238D01*
X88452380Y-106000000D01*
X88595238Y-105952380D01*
X88690476Y-105952380D01*
X88833333Y-106000000D01*
X88880952Y-106047619D01*
X89690476Y-106904761D02*
X89595238Y-106952380D01*
X89404761Y-106952380D01*
X89309523Y-106904761D01*
X89261904Y-106809523D01*
X89261904Y-106428571D01*
X89309523Y-106333333D01*
X89404761Y-106285714D01*
X89595238Y-106285714D01*
X89690476Y-106333333D01*
X89738095Y-106428571D01*
X89738095Y-106523809D01*
X89261904Y-106619047D01*
X90309523Y-106952380D02*
X90214285Y-106904761D01*
X90166666Y-106809523D01*
X90166666Y-105952380D01*
X90833333Y-106952380D02*
X90738095Y-106904761D01*
X90690476Y-106809523D01*
X90690476Y-105952380D01*
X85214285Y-103928571D02*
X85357142Y-103976190D01*
X85404761Y-104023809D01*
X85452380Y-104119047D01*
X85452380Y-104261904D01*
X85404761Y-104357142D01*
X85357142Y-104404761D01*
X85261904Y-104452380D01*
X84880952Y-104452380D01*
X84880952Y-103452380D01*
X85214285Y-103452380D01*
X85309523Y-103500000D01*
X85357142Y-103547619D01*
X85404761Y-103642857D01*
X85404761Y-103738095D01*
X85357142Y-103833333D01*
X85309523Y-103880952D01*
X85214285Y-103928571D01*
X84880952Y-103928571D01*
X85738095Y-103452380D02*
X86309523Y-103452380D01*
X86023809Y-104452380D02*
X86023809Y-103452380D01*
X87166666Y-104452380D02*
X86595238Y-104452380D01*
X86880952Y-104452380D02*
X86880952Y-103452380D01*
X86785714Y-103595238D01*
X86690476Y-103690476D01*
X86595238Y-103738095D01*
X75026190Y-154083571D02*
X75359523Y-154083571D01*
X75502380Y-154607380D02*
X75026190Y-154607380D01*
X75026190Y-153607380D01*
X75502380Y-153607380D01*
X75883333Y-154559761D02*
X76026190Y-154607380D01*
X76264285Y-154607380D01*
X76359523Y-154559761D01*
X76407142Y-154512142D01*
X76454761Y-154416904D01*
X76454761Y-154321666D01*
X76407142Y-154226428D01*
X76359523Y-154178809D01*
X76264285Y-154131190D01*
X76073809Y-154083571D01*
X75978571Y-154035952D01*
X75930952Y-153988333D01*
X75883333Y-153893095D01*
X75883333Y-153797857D01*
X75930952Y-153702619D01*
X75978571Y-153655000D01*
X76073809Y-153607380D01*
X76311904Y-153607380D01*
X76454761Y-153655000D01*
X76883333Y-154607380D02*
X76883333Y-153607380D01*
X77264285Y-153607380D01*
X77359523Y-153655000D01*
X77407142Y-153702619D01*
X77454761Y-153797857D01*
X77454761Y-153940714D01*
X77407142Y-154035952D01*
X77359523Y-154083571D01*
X77264285Y-154131190D01*
X76883333Y-154131190D01*
X77788095Y-153607380D02*
X78407142Y-153607380D01*
X78073809Y-153988333D01*
X78216666Y-153988333D01*
X78311904Y-154035952D01*
X78359523Y-154083571D01*
X78407142Y-154178809D01*
X78407142Y-154416904D01*
X78359523Y-154512142D01*
X78311904Y-154559761D01*
X78216666Y-154607380D01*
X77930952Y-154607380D01*
X77835714Y-154559761D01*
X77788095Y-154512142D01*
X78788095Y-153702619D02*
X78835714Y-153655000D01*
X78930952Y-153607380D01*
X79169047Y-153607380D01*
X79264285Y-153655000D01*
X79311904Y-153702619D01*
X79359523Y-153797857D01*
X79359523Y-153893095D01*
X79311904Y-154035952D01*
X78740476Y-154607380D01*
X79359523Y-154607380D01*
X79788095Y-154226428D02*
X80550000Y-154226428D01*
X80930952Y-153607380D02*
X81169047Y-154607380D01*
X81359523Y-153893095D01*
X81550000Y-154607380D01*
X81788095Y-153607380D01*
X82740476Y-154607380D02*
X82407142Y-154131190D01*
X82169047Y-154607380D02*
X82169047Y-153607380D01*
X82550000Y-153607380D01*
X82645238Y-153655000D01*
X82692857Y-153702619D01*
X82740476Y-153797857D01*
X82740476Y-153940714D01*
X82692857Y-154035952D01*
X82645238Y-154083571D01*
X82550000Y-154131190D01*
X82169047Y-154131190D01*
X83359523Y-153607380D02*
X83550000Y-153607380D01*
X83645238Y-153655000D01*
X83740476Y-153750238D01*
X83788095Y-153940714D01*
X83788095Y-154274047D01*
X83740476Y-154464523D01*
X83645238Y-154559761D01*
X83550000Y-154607380D01*
X83359523Y-154607380D01*
X83264285Y-154559761D01*
X83169047Y-154464523D01*
X83121428Y-154274047D01*
X83121428Y-153940714D01*
X83169047Y-153750238D01*
X83264285Y-153655000D01*
X83359523Y-153607380D01*
X84407142Y-153607380D02*
X84597619Y-153607380D01*
X84692857Y-153655000D01*
X84788095Y-153750238D01*
X84835714Y-153940714D01*
X84835714Y-154274047D01*
X84788095Y-154464523D01*
X84692857Y-154559761D01*
X84597619Y-154607380D01*
X84407142Y-154607380D01*
X84311904Y-154559761D01*
X84216666Y-154464523D01*
X84169047Y-154274047D01*
X84169047Y-153940714D01*
X84216666Y-153750238D01*
X84311904Y-153655000D01*
X84407142Y-153607380D01*
X85264285Y-154607380D02*
X85264285Y-153607380D01*
X85597619Y-154321666D01*
X85930952Y-153607380D01*
X85930952Y-154607380D01*
X86407142Y-154226428D02*
X87169047Y-154226428D01*
X87550000Y-153607380D02*
X88169047Y-153607380D01*
X87835714Y-153988333D01*
X87978571Y-153988333D01*
X88073809Y-154035952D01*
X88121428Y-154083571D01*
X88169047Y-154178809D01*
X88169047Y-154416904D01*
X88121428Y-154512142D01*
X88073809Y-154559761D01*
X87978571Y-154607380D01*
X87692857Y-154607380D01*
X87597619Y-154559761D01*
X87550000Y-154512142D01*
X88550000Y-153702619D02*
X88597619Y-153655000D01*
X88692857Y-153607380D01*
X88930952Y-153607380D01*
X89026190Y-153655000D01*
X89073809Y-153702619D01*
X89121428Y-153797857D01*
X89121428Y-153893095D01*
X89073809Y-154035952D01*
X88502380Y-154607380D01*
X89121428Y-154607380D01*
X81288095Y-142107380D02*
X81288095Y-142916904D01*
X81335714Y-143012142D01*
X81383333Y-143059761D01*
X81478571Y-143107380D01*
X81669047Y-143107380D01*
X81764285Y-143059761D01*
X81811904Y-143012142D01*
X81859523Y-142916904D01*
X81859523Y-142107380D01*
X82288095Y-142202619D02*
X82335714Y-142155000D01*
X82430952Y-142107380D01*
X82669047Y-142107380D01*
X82764285Y-142155000D01*
X82811904Y-142202619D01*
X82859523Y-142297857D01*
X82859523Y-142393095D01*
X82811904Y-142535952D01*
X82240476Y-143107380D01*
X82859523Y-143107380D01*
X152502380Y-157019047D02*
X151502380Y-157019047D01*
X151502380Y-156780952D01*
X151550000Y-156638095D01*
X151645238Y-156542857D01*
X151740476Y-156495238D01*
X151930952Y-156447619D01*
X152073809Y-156447619D01*
X152264285Y-156495238D01*
X152359523Y-156542857D01*
X152454761Y-156638095D01*
X152502380Y-156780952D01*
X152502380Y-157019047D01*
X152502380Y-156019047D02*
X151502380Y-156019047D01*
X151978571Y-156019047D02*
X151978571Y-155447619D01*
X152502380Y-155447619D02*
X151502380Y-155447619D01*
X151502380Y-155114285D02*
X151502380Y-154542857D01*
X152502380Y-154828571D02*
X151502380Y-154828571D01*
X152502380Y-153685714D02*
X152502380Y-154257142D01*
X152502380Y-153971428D02*
X151502380Y-153971428D01*
X151645238Y-154066666D01*
X151740476Y-154161904D01*
X151788095Y-154257142D01*
X152502380Y-152733333D02*
X152502380Y-153304761D01*
X152502380Y-153019047D02*
X151502380Y-153019047D01*
X151645238Y-153114285D01*
X151740476Y-153209523D01*
X151788095Y-153304761D01*
X158992380Y-155661904D02*
X159801904Y-155661904D01*
X159897142Y-155614285D01*
X159944761Y-155566666D01*
X159992380Y-155471428D01*
X159992380Y-155280952D01*
X159944761Y-155185714D01*
X159897142Y-155138095D01*
X159801904Y-155090476D01*
X158992380Y-155090476D01*
X158992380Y-154709523D02*
X158992380Y-154090476D01*
X159373333Y-154423809D01*
X159373333Y-154280952D01*
X159420952Y-154185714D01*
X159468571Y-154138095D01*
X159563809Y-154090476D01*
X159801904Y-154090476D01*
X159897142Y-154138095D01*
X159944761Y-154185714D01*
X159992380Y-154280952D01*
X159992380Y-154566666D01*
X159944761Y-154661904D01*
X159897142Y-154709523D01*
X88178571Y-111352380D02*
X87607142Y-111352380D01*
X87892857Y-111352380D02*
X87892857Y-110352380D01*
X87797619Y-110495238D01*
X87702380Y-110590476D01*
X87607142Y-110638095D01*
X88797619Y-110352380D02*
X88892857Y-110352380D01*
X88988095Y-110400000D01*
X89035714Y-110447619D01*
X89083333Y-110542857D01*
X89130952Y-110733333D01*
X89130952Y-110971428D01*
X89083333Y-111161904D01*
X89035714Y-111257142D01*
X88988095Y-111304761D01*
X88892857Y-111352380D01*
X88797619Y-111352380D01*
X88702380Y-111304761D01*
X88654761Y-111257142D01*
X88607142Y-111161904D01*
X88559523Y-110971428D01*
X88559523Y-110733333D01*
X88607142Y-110542857D01*
X88654761Y-110447619D01*
X88702380Y-110400000D01*
X88797619Y-110352380D01*
X89988095Y-110685714D02*
X89988095Y-111352380D01*
X89559523Y-110685714D02*
X89559523Y-111209523D01*
X89607142Y-111304761D01*
X89702380Y-111352380D01*
X89845238Y-111352380D01*
X89940476Y-111304761D01*
X89988095Y-111257142D01*
X90797619Y-110828571D02*
X90464285Y-110828571D01*
X90464285Y-111352380D02*
X90464285Y-110352380D01*
X90940476Y-110352380D01*
D14*
X89166666Y-112728571D02*
X89142857Y-112752380D01*
X89071428Y-112776190D01*
X89023809Y-112776190D01*
X88952380Y-112752380D01*
X88904761Y-112704761D01*
X88880952Y-112657142D01*
X88857142Y-112561904D01*
X88857142Y-112490476D01*
X88880952Y-112395238D01*
X88904761Y-112347619D01*
X88952380Y-112300000D01*
X89023809Y-112276190D01*
X89071428Y-112276190D01*
X89142857Y-112300000D01*
X89166666Y-112323809D01*
X89642857Y-112776190D02*
X89357142Y-112776190D01*
X89500000Y-112776190D02*
X89500000Y-112276190D01*
X89452380Y-112347619D01*
X89404761Y-112395238D01*
X89357142Y-112419047D01*
D13*
X127802380Y-137864285D02*
X127802380Y-138435714D01*
X127802380Y-138150000D02*
X126802380Y-138150000D01*
X126945238Y-138245238D01*
X127040476Y-138340476D01*
X127088095Y-138435714D01*
X127802380Y-137435714D02*
X126802380Y-137435714D01*
X127802380Y-136864285D02*
X127230952Y-137292857D01*
X126802380Y-136864285D02*
X127373809Y-137435714D01*
D14*
X127426190Y-137833333D02*
X127188095Y-138000000D01*
X127426190Y-138119047D02*
X126926190Y-138119047D01*
X126926190Y-137928571D01*
X126950000Y-137880952D01*
X126973809Y-137857142D01*
X127021428Y-137833333D01*
X127092857Y-137833333D01*
X127140476Y-137857142D01*
X127164285Y-137880952D01*
X127188095Y-137928571D01*
X127188095Y-138119047D01*
X127426190Y-137357142D02*
X127426190Y-137642857D01*
X127426190Y-137500000D02*
X126926190Y-137500000D01*
X126997619Y-137547619D01*
X127045238Y-137595238D01*
X127069047Y-137642857D01*
D13*
X131702380Y-138245238D02*
X131702380Y-138816666D01*
X131702380Y-138530952D02*
X130702380Y-138530952D01*
X130845238Y-138626190D01*
X130940476Y-138721428D01*
X130988095Y-138816666D01*
X130702380Y-137626190D02*
X130702380Y-137530952D01*
X130750000Y-137435714D01*
X130797619Y-137388095D01*
X130892857Y-137340476D01*
X131083333Y-137292857D01*
X131321428Y-137292857D01*
X131511904Y-137340476D01*
X131607142Y-137388095D01*
X131654761Y-137435714D01*
X131702380Y-137530952D01*
X131702380Y-137626190D01*
X131654761Y-137721428D01*
X131607142Y-137769047D01*
X131511904Y-137816666D01*
X131321428Y-137864285D01*
X131083333Y-137864285D01*
X130892857Y-137816666D01*
X130797619Y-137769047D01*
X130750000Y-137721428D01*
X130702380Y-137626190D01*
X131702380Y-136864285D02*
X130702380Y-136864285D01*
X131321428Y-136769047D02*
X131702380Y-136483333D01*
X131035714Y-136483333D02*
X131416666Y-136864285D01*
D14*
X129826190Y-137733333D02*
X129588095Y-137900000D01*
X129826190Y-138019047D02*
X129326190Y-138019047D01*
X129326190Y-137828571D01*
X129350000Y-137780952D01*
X129373809Y-137757142D01*
X129421428Y-137733333D01*
X129492857Y-137733333D01*
X129540476Y-137757142D01*
X129564285Y-137780952D01*
X129588095Y-137828571D01*
X129588095Y-138019047D01*
X129373809Y-137542857D02*
X129350000Y-137519047D01*
X129326190Y-137471428D01*
X129326190Y-137352380D01*
X129350000Y-137304761D01*
X129373809Y-137280952D01*
X129421428Y-137257142D01*
X129469047Y-137257142D01*
X129540476Y-137280952D01*
X129826190Y-137566666D01*
X129826190Y-137257142D01*
D13*
X106752380Y-144790476D02*
X106752380Y-145361904D01*
X106752380Y-145076190D02*
X105752380Y-145076190D01*
X105895238Y-145171428D01*
X105990476Y-145266666D01*
X106038095Y-145361904D01*
X105752380Y-144171428D02*
X105752380Y-144076190D01*
X105800000Y-143980952D01*
X105847619Y-143933333D01*
X105942857Y-143885714D01*
X106133333Y-143838095D01*
X106371428Y-143838095D01*
X106561904Y-143885714D01*
X106657142Y-143933333D01*
X106704761Y-143980952D01*
X106752380Y-144076190D01*
X106752380Y-144171428D01*
X106704761Y-144266666D01*
X106657142Y-144314285D01*
X106561904Y-144361904D01*
X106371428Y-144409523D01*
X106133333Y-144409523D01*
X105942857Y-144361904D01*
X105847619Y-144314285D01*
X105800000Y-144266666D01*
X105752380Y-144171428D01*
X106752380Y-143409523D02*
X105752380Y-143409523D01*
X106752380Y-142838095D02*
X106180952Y-143266666D01*
X105752380Y-142838095D02*
X106323809Y-143409523D01*
D14*
X104876190Y-144183333D02*
X104638095Y-144350000D01*
X104876190Y-144469047D02*
X104376190Y-144469047D01*
X104376190Y-144278571D01*
X104400000Y-144230952D01*
X104423809Y-144207142D01*
X104471428Y-144183333D01*
X104542857Y-144183333D01*
X104590476Y-144207142D01*
X104614285Y-144230952D01*
X104638095Y-144278571D01*
X104638095Y-144469047D01*
X104376190Y-144016666D02*
X104376190Y-143707142D01*
X104566666Y-143873809D01*
X104566666Y-143802380D01*
X104590476Y-143754761D01*
X104614285Y-143730952D01*
X104661904Y-143707142D01*
X104780952Y-143707142D01*
X104828571Y-143730952D01*
X104852380Y-143754761D01*
X104876190Y-143802380D01*
X104876190Y-143945238D01*
X104852380Y-143992857D01*
X104828571Y-144016666D01*
D15*
X117721658Y-116927352D02*
X117626340Y-116879693D01*
X117483364Y-116879693D01*
X117340387Y-116927352D01*
X117245070Y-117022670D01*
X117197411Y-117117987D01*
X117149752Y-117308622D01*
X117149752Y-117451599D01*
X117197411Y-117642234D01*
X117245070Y-117737552D01*
X117340387Y-117832869D01*
X117483364Y-117880528D01*
X117578681Y-117880528D01*
X117721658Y-117832869D01*
X117769317Y-117785211D01*
X117769317Y-117451599D01*
X117578681Y-117451599D01*
X118627175Y-116879693D02*
X118436540Y-116879693D01*
X118341222Y-116927352D01*
X118293564Y-116975011D01*
X118198246Y-117117987D01*
X118150587Y-117308622D01*
X118150587Y-117689893D01*
X118198246Y-117785211D01*
X118245905Y-117832869D01*
X118341222Y-117880528D01*
X118531858Y-117880528D01*
X118627175Y-117832869D01*
X118674834Y-117785211D01*
X118722493Y-117689893D01*
X118722493Y-117451599D01*
X118674834Y-117356281D01*
X118627175Y-117308622D01*
X118531858Y-117260964D01*
X118341222Y-117260964D01*
X118245905Y-117308622D01*
X118198246Y-117356281D01*
X118150587Y-117451599D01*
X119151422Y-117880528D02*
X119151422Y-116879693D01*
X119723328Y-117880528D02*
X119294399Y-117308622D01*
X119723328Y-116879693D02*
X119151422Y-117451599D01*
X120152257Y-117499258D02*
X120914798Y-117499258D01*
X121343727Y-116975011D02*
X121391386Y-116927352D01*
X121486704Y-116879693D01*
X121724998Y-116879693D01*
X121820315Y-116927352D01*
X121867974Y-116975011D01*
X121915633Y-117070328D01*
X121915633Y-117165646D01*
X121867974Y-117308622D01*
X121296069Y-117880528D01*
X121915633Y-117880528D01*
X122678174Y-117356281D02*
X122344562Y-117356281D01*
X122344562Y-117880528D02*
X122344562Y-116879693D01*
X122821150Y-116879693D01*
X123202421Y-117499258D02*
X123964962Y-117499258D01*
X124441550Y-117880528D02*
X124441550Y-116879693D01*
X124679844Y-116879693D01*
X124822820Y-116927352D01*
X124918138Y-117022670D01*
X124965797Y-117117987D01*
X125013456Y-117308622D01*
X125013456Y-117451599D01*
X124965797Y-117642234D01*
X124918138Y-117737552D01*
X124822820Y-117832869D01*
X124679844Y-117880528D01*
X124441550Y-117880528D01*
X126014291Y-117785211D02*
X125966632Y-117832869D01*
X125823655Y-117880528D01*
X125728338Y-117880528D01*
X125585361Y-117832869D01*
X125490044Y-117737552D01*
X125442385Y-117642234D01*
X125394726Y-117451599D01*
X125394726Y-117308622D01*
X125442385Y-117117987D01*
X125490044Y-117022670D01*
X125585361Y-116927352D01*
X125728338Y-116879693D01*
X125823655Y-116879693D01*
X125966632Y-116927352D01*
X126014291Y-116975011D01*
X126919808Y-116879693D02*
X126443220Y-116879693D01*
X126395561Y-117356281D01*
X126443220Y-117308622D01*
X126538538Y-117260964D01*
X126776832Y-117260964D01*
X126872149Y-117308622D01*
X126919808Y-117356281D01*
X126967467Y-117451599D01*
X126967467Y-117689893D01*
X126919808Y-117785211D01*
X126872149Y-117832869D01*
X126776832Y-117880528D01*
X126538538Y-117880528D01*
X126443220Y-117832869D01*
X126395561Y-117785211D01*
D13*
X126257142Y-130552380D02*
X125685714Y-130552380D01*
X125971428Y-130552380D02*
X125971428Y-129552380D01*
X125876190Y-129695238D01*
X125780952Y-129790476D01*
X125685714Y-129838095D01*
X126685714Y-130552380D02*
X126685714Y-129552380D01*
X127257142Y-130552380D01*
X127257142Y-129552380D01*
X128161904Y-129885714D02*
X128161904Y-130552380D01*
X127923809Y-129504761D02*
X127685714Y-130219047D01*
X128304761Y-130219047D01*
X129209523Y-130552380D02*
X128638095Y-130552380D01*
X128923809Y-130552380D02*
X128923809Y-129552380D01*
X128828571Y-129695238D01*
X128733333Y-129790476D01*
X128638095Y-129838095D01*
X130066666Y-129885714D02*
X130066666Y-130552380D01*
X129828571Y-129504761D02*
X129590476Y-130219047D01*
X130209523Y-130219047D01*
X130733333Y-129980952D02*
X130638095Y-129933333D01*
X130590476Y-129885714D01*
X130542857Y-129790476D01*
X130542857Y-129742857D01*
X130590476Y-129647619D01*
X130638095Y-129600000D01*
X130733333Y-129552380D01*
X130923809Y-129552380D01*
X131019047Y-129600000D01*
X131066666Y-129647619D01*
X131114285Y-129742857D01*
X131114285Y-129790476D01*
X131066666Y-129885714D01*
X131019047Y-129933333D01*
X130923809Y-129980952D01*
X130733333Y-129980952D01*
X130638095Y-130028571D01*
X130590476Y-130076190D01*
X130542857Y-130171428D01*
X130542857Y-130361904D01*
X130590476Y-130457142D01*
X130638095Y-130504761D01*
X130733333Y-130552380D01*
X130923809Y-130552380D01*
X131019047Y-130504761D01*
X131066666Y-130457142D01*
X131114285Y-130361904D01*
X131114285Y-130171428D01*
X131066666Y-130076190D01*
X131019047Y-130028571D01*
X130923809Y-129980952D01*
X127761904Y-134302380D02*
X127761904Y-133302380D01*
X128000000Y-133302380D01*
X128142857Y-133350000D01*
X128238095Y-133445238D01*
X128285714Y-133540476D01*
X128333333Y-133730952D01*
X128333333Y-133873809D01*
X128285714Y-134064285D01*
X128238095Y-134159523D01*
X128142857Y-134254761D01*
X128000000Y-134302380D01*
X127761904Y-134302380D01*
X129285714Y-134302380D02*
X128714285Y-134302380D01*
X129000000Y-134302380D02*
X129000000Y-133302380D01*
X128904761Y-133445238D01*
X128809523Y-133540476D01*
X128714285Y-133588095D01*
X136382666Y-131746000D02*
X136382666Y-131269809D01*
X136668380Y-131841238D02*
X135668380Y-131507904D01*
X136668380Y-131174571D01*
X136668380Y-130841238D02*
X135668380Y-130841238D01*
X136382666Y-130507904D01*
X135668380Y-130174571D01*
X136668380Y-130174571D01*
X136620761Y-129746000D02*
X136668380Y-129603142D01*
X136668380Y-129365047D01*
X136620761Y-129269809D01*
X136573142Y-129222190D01*
X136477904Y-129174571D01*
X136382666Y-129174571D01*
X136287428Y-129222190D01*
X136239809Y-129269809D01*
X136192190Y-129365047D01*
X136144571Y-129555523D01*
X136096952Y-129650761D01*
X136049333Y-129698380D01*
X135954095Y-129746000D01*
X135858857Y-129746000D01*
X135763619Y-129698380D01*
X135716000Y-129650761D01*
X135668380Y-129555523D01*
X135668380Y-129317428D01*
X135716000Y-129174571D01*
X136668380Y-128222190D02*
X136668380Y-128793619D01*
X136668380Y-128507904D02*
X135668380Y-128507904D01*
X135811238Y-128603142D01*
X135906476Y-128698380D01*
X135954095Y-128793619D01*
X136668380Y-127269809D02*
X136668380Y-127841238D01*
X136668380Y-127555523D02*
X135668380Y-127555523D01*
X135811238Y-127650761D01*
X135906476Y-127746000D01*
X135954095Y-127841238D01*
X136668380Y-126317428D02*
X136668380Y-126888857D01*
X136668380Y-126603142D02*
X135668380Y-126603142D01*
X135811238Y-126698380D01*
X135906476Y-126793619D01*
X135954095Y-126888857D01*
X135668380Y-125984095D02*
X135668380Y-125317428D01*
X136668380Y-125746000D01*
X136287428Y-124936476D02*
X136287428Y-124174571D01*
X135668380Y-123793619D02*
X135668380Y-123174571D01*
X136049333Y-123507904D01*
X136049333Y-123365047D01*
X136096952Y-123269809D01*
X136144571Y-123222190D01*
X136239809Y-123174571D01*
X136477904Y-123174571D01*
X136573142Y-123222190D01*
X136620761Y-123269809D01*
X136668380Y-123365047D01*
X136668380Y-123650761D01*
X136620761Y-123746000D01*
X136573142Y-123793619D01*
X136573142Y-122746000D02*
X136620761Y-122698380D01*
X136668380Y-122746000D01*
X136620761Y-122793619D01*
X136573142Y-122746000D01*
X136668380Y-122746000D01*
X135668380Y-122365047D02*
X135668380Y-121746000D01*
X136049333Y-122079333D01*
X136049333Y-121936476D01*
X136096952Y-121841238D01*
X136144571Y-121793619D01*
X136239809Y-121746000D01*
X136477904Y-121746000D01*
X136573142Y-121793619D01*
X136620761Y-121841238D01*
X136668380Y-121936476D01*
X136668380Y-122222190D01*
X136620761Y-122317428D01*
X136573142Y-122365047D01*
D17*
X140106476Y-126307904D02*
X140106476Y-126955523D01*
X140144571Y-127031714D01*
X140182666Y-127069809D01*
X140258857Y-127107904D01*
X140411238Y-127107904D01*
X140487428Y-127069809D01*
X140525523Y-127031714D01*
X140563619Y-126955523D01*
X140563619Y-126307904D01*
X141363619Y-127107904D02*
X140906476Y-127107904D01*
X141135047Y-127107904D02*
X141135047Y-126307904D01*
X141058857Y-126422190D01*
X140982666Y-126498380D01*
X140906476Y-126536476D01*
M02*
