M48
; DRILL file {KiCad 5.1.5+dfsg1-2build2} date vie 10 sep 2021 16:14:45
; FORMAT={-:-/ absolute / metric / decimal}
; #@! TF.CreationDate,2021-09-10T16:14:45+02:00
; #@! TF.GenerationSoftware,Kicad,Pcbnew,5.1.5+dfsg1-2build2
FMAT,2
METRIC
T1C0.400
T2C0.750
T3C0.762
T4C0.800
T5C0.900
T6C1.000
T7C1.100
T8C1.300
T9C1.501
%
G90
G05
T1
X68.013Y-136.037
X68.388Y-134.162
X70.1Y-149.55
X70.25Y-150.95
X77.605Y-154.95
X86.495Y-154.6
X93.95Y-141.4
T2
X121.674Y-111.0
X122.944Y-111.0
X124.214Y-111.0
T3
X63.0Y-156.79
T4
X155.73Y-154.9
X158.27Y-154.9
X160.81Y-154.9
X163.35Y-154.9
T5
X136.23Y-111.0
X138.77Y-111.0
X128.7Y-111.0
X131.24Y-111.0
T6
X64.516Y-102.87
X64.516Y-105.41
X64.516Y-107.95
X64.516Y-110.49
X64.516Y-113.03
X63.0Y-123.77
X63.0Y-126.31
X63.0Y-128.85
X63.0Y-131.39
X63.0Y-133.93
X63.0Y-136.47
X63.0Y-139.01
X63.0Y-141.55
X63.0Y-144.09
X63.0Y-146.63
X63.0Y-149.17
X63.0Y-151.71
X63.0Y-154.25
X147.3Y-144.09
X147.328Y-136.47
X147.328Y-139.01
X147.328Y-141.55
T7
X156.75Y-111.74
X156.75Y-116.24
X163.25Y-111.74
X163.25Y-116.24
T8
X110.49Y-116.332
X115.57Y-116.332
T9
X90.17Y-103.632
X95.25Y-103.632
T4
G00X102.966Y-107.442
M15
G01X102.266Y-107.442
M16
G05
G00X102.966Y-112.442
M15
G01X102.266Y-112.442
M16
G05
G00X105.316Y-109.592
M15
G01X105.316Y-110.292
M16
G05
T0
M30
