G04 #@! TF.GenerationSoftware,KiCad,Pcbnew,5.1.5+dfsg1-2build2*
G04 #@! TF.CreationDate,2021-09-10T16:14:55+02:00*
G04 #@! TF.ProjectId,cronotempNuevo,63726f6e-6f74-4656-9d70-4e7565766f2e,rev?*
G04 #@! TF.SameCoordinates,Original*
G04 #@! TF.FileFunction,Copper,L2,Bot*
G04 #@! TF.FilePolarity,Positive*
%FSLAX46Y46*%
G04 Gerber Fmt 4.6, Leading zero omitted, Abs format (unit mm)*
G04 Created by KiCad (PCBNEW 5.1.5+dfsg1-2build2) date 2021-09-10 16:14:55*
%MOMM*%
%LPD*%
G04 APERTURE LIST*
%ADD10C,1.500000*%
%ADD11R,1.500000X1.500000*%
%ADD12R,1.524000X1.524000*%
%ADD13C,1.800000*%
%ADD14R,1.800000X1.800000*%
%ADD15R,1.700000X1.700000*%
%ADD16O,1.700000X1.700000*%
%ADD17O,2.800000X1.400000*%
%ADD18O,1.400000X2.800000*%
%ADD19C,2.600000*%
%ADD20R,2.600000X2.600000*%
%ADD21C,3.500120*%
%ADD22R,3.500120X3.500120*%
%ADD23C,2.000000*%
%ADD24C,0.100000*%
%ADD25R,1.050000X1.500000*%
%ADD26C,0.800000*%
%ADD27C,0.800000*%
%ADD28C,0.254000*%
G04 APERTURE END LIST*
D10*
X147328000Y-136470000D03*
X147328000Y-139010000D03*
X147328000Y-141550000D03*
D11*
X147300000Y-144090000D03*
D10*
X63000000Y-123770000D03*
X63000000Y-126310000D03*
X63000000Y-128850000D03*
X63000000Y-131390000D03*
X63000000Y-133930000D03*
X63000000Y-136470000D03*
X63000000Y-139010000D03*
X63000000Y-141550000D03*
X63000000Y-144090000D03*
X63000000Y-146630000D03*
X63000000Y-149170000D03*
X63000000Y-151710000D03*
X63000000Y-154250000D03*
D12*
X63000000Y-156790000D03*
D13*
X131240000Y-111000000D03*
D14*
X128700000Y-111000000D03*
D15*
X64516000Y-113030000D03*
D16*
X64516000Y-110490000D03*
X64516000Y-107950000D03*
X64516000Y-105410000D03*
X64516000Y-102870000D03*
D17*
X102616000Y-112442000D03*
X102616000Y-107442000D03*
D18*
X105316000Y-109942000D03*
D19*
X115570000Y-116332000D03*
D20*
X110490000Y-116332000D03*
D21*
X95250000Y-103632000D03*
D22*
X90170000Y-103632000D03*
D13*
X138770000Y-111000000D03*
D14*
X136230000Y-111000000D03*
D23*
X156750000Y-111740000D03*
X156750000Y-116240000D03*
X163250000Y-111740000D03*
X163250000Y-116240000D03*
D11*
X163350000Y-154900000D03*
D10*
X160810000Y-154900000D03*
X158270000Y-154900000D03*
X155730000Y-154900000D03*
G04 #@! TA.AperFunction,ComponentPad*
D24*
G36*
X123232229Y-110251264D02*
G01*
X123257711Y-110255044D01*
X123282700Y-110261303D01*
X123306954Y-110269982D01*
X123330242Y-110280996D01*
X123352337Y-110294239D01*
X123373028Y-110309585D01*
X123392116Y-110326884D01*
X123409415Y-110345972D01*
X123424761Y-110366663D01*
X123438004Y-110388758D01*
X123449018Y-110412046D01*
X123457697Y-110436300D01*
X123463956Y-110461289D01*
X123467736Y-110486771D01*
X123469000Y-110512500D01*
X123469000Y-111487500D01*
X123467736Y-111513229D01*
X123463956Y-111538711D01*
X123457697Y-111563700D01*
X123449018Y-111587954D01*
X123438004Y-111611242D01*
X123424761Y-111633337D01*
X123409415Y-111654028D01*
X123392116Y-111673116D01*
X123373028Y-111690415D01*
X123352337Y-111705761D01*
X123330242Y-111719004D01*
X123306954Y-111730018D01*
X123282700Y-111738697D01*
X123257711Y-111744956D01*
X123232229Y-111748736D01*
X123206500Y-111750000D01*
X122681500Y-111750000D01*
X122655771Y-111748736D01*
X122630289Y-111744956D01*
X122605300Y-111738697D01*
X122581046Y-111730018D01*
X122557758Y-111719004D01*
X122535663Y-111705761D01*
X122514972Y-111690415D01*
X122495884Y-111673116D01*
X122478585Y-111654028D01*
X122463239Y-111633337D01*
X122449996Y-111611242D01*
X122438982Y-111587954D01*
X122430303Y-111563700D01*
X122424044Y-111538711D01*
X122420264Y-111513229D01*
X122419000Y-111487500D01*
X122419000Y-110512500D01*
X122420264Y-110486771D01*
X122424044Y-110461289D01*
X122430303Y-110436300D01*
X122438982Y-110412046D01*
X122449996Y-110388758D01*
X122463239Y-110366663D01*
X122478585Y-110345972D01*
X122495884Y-110326884D01*
X122514972Y-110309585D01*
X122535663Y-110294239D01*
X122557758Y-110280996D01*
X122581046Y-110269982D01*
X122605300Y-110261303D01*
X122630289Y-110255044D01*
X122655771Y-110251264D01*
X122681500Y-110250000D01*
X123206500Y-110250000D01*
X123232229Y-110251264D01*
G37*
G04 #@! TD.AperFunction*
G04 #@! TA.AperFunction,ComponentPad*
G36*
X124502229Y-110251264D02*
G01*
X124527711Y-110255044D01*
X124552700Y-110261303D01*
X124576954Y-110269982D01*
X124600242Y-110280996D01*
X124622337Y-110294239D01*
X124643028Y-110309585D01*
X124662116Y-110326884D01*
X124679415Y-110345972D01*
X124694761Y-110366663D01*
X124708004Y-110388758D01*
X124719018Y-110412046D01*
X124727697Y-110436300D01*
X124733956Y-110461289D01*
X124737736Y-110486771D01*
X124739000Y-110512500D01*
X124739000Y-111487500D01*
X124737736Y-111513229D01*
X124733956Y-111538711D01*
X124727697Y-111563700D01*
X124719018Y-111587954D01*
X124708004Y-111611242D01*
X124694761Y-111633337D01*
X124679415Y-111654028D01*
X124662116Y-111673116D01*
X124643028Y-111690415D01*
X124622337Y-111705761D01*
X124600242Y-111719004D01*
X124576954Y-111730018D01*
X124552700Y-111738697D01*
X124527711Y-111744956D01*
X124502229Y-111748736D01*
X124476500Y-111750000D01*
X123951500Y-111750000D01*
X123925771Y-111748736D01*
X123900289Y-111744956D01*
X123875300Y-111738697D01*
X123851046Y-111730018D01*
X123827758Y-111719004D01*
X123805663Y-111705761D01*
X123784972Y-111690415D01*
X123765884Y-111673116D01*
X123748585Y-111654028D01*
X123733239Y-111633337D01*
X123719996Y-111611242D01*
X123708982Y-111587954D01*
X123700303Y-111563700D01*
X123694044Y-111538711D01*
X123690264Y-111513229D01*
X123689000Y-111487500D01*
X123689000Y-110512500D01*
X123690264Y-110486771D01*
X123694044Y-110461289D01*
X123700303Y-110436300D01*
X123708982Y-110412046D01*
X123719996Y-110388758D01*
X123733239Y-110366663D01*
X123748585Y-110345972D01*
X123765884Y-110326884D01*
X123784972Y-110309585D01*
X123805663Y-110294239D01*
X123827758Y-110280996D01*
X123851046Y-110269982D01*
X123875300Y-110261303D01*
X123900289Y-110255044D01*
X123925771Y-110251264D01*
X123951500Y-110250000D01*
X124476500Y-110250000D01*
X124502229Y-110251264D01*
G37*
G04 #@! TD.AperFunction*
D25*
X121674000Y-111000000D03*
D26*
X68387500Y-134162500D03*
X68012500Y-136037500D03*
X70100000Y-149550000D03*
X70250000Y-150950000D03*
X77605000Y-154950000D03*
X86495000Y-154600000D03*
X93950000Y-141400000D03*
D27*
X90170000Y-106182060D02*
X90170000Y-103632000D01*
X91429940Y-107442000D02*
X90170000Y-106182060D01*
X102616000Y-107442000D02*
X91429940Y-107442000D01*
X90170000Y-106182060D02*
X80952060Y-115400000D01*
X64516000Y-114680000D02*
X64516000Y-113030000D01*
X65236000Y-115400000D02*
X64516000Y-114680000D01*
X80952060Y-115400000D02*
X65236000Y-115400000D01*
X68387500Y-134162500D02*
X68387500Y-122637500D01*
X68387500Y-122637500D02*
X66950000Y-121200000D01*
X66950000Y-121200000D02*
X61700000Y-121200000D01*
X61700000Y-121200000D02*
X59700000Y-123200000D01*
X59700000Y-150950000D02*
X63000000Y-154250000D01*
X59700000Y-123200000D02*
X59700000Y-150950000D01*
X152220402Y-151675010D02*
X151250000Y-150704608D01*
X161675010Y-151675010D02*
X152220402Y-151675010D01*
X163350000Y-153350000D02*
X161675010Y-151675010D01*
X163350000Y-154900000D02*
X163350000Y-153350000D01*
X151250000Y-150704608D02*
X151250000Y-128050000D01*
X151250000Y-128050000D02*
X137200000Y-114000000D01*
X137200000Y-114000000D02*
X125750000Y-114000000D01*
X124214000Y-112464000D02*
X124214000Y-111000000D01*
X125750000Y-114000000D02*
X124214000Y-112464000D01*
X163350000Y-156450000D02*
X161350000Y-158450000D01*
X163350000Y-154900000D02*
X163350000Y-156450000D01*
X161350000Y-158450000D02*
X70900000Y-158450000D01*
X69240000Y-156790000D02*
X63000000Y-156790000D01*
X70900000Y-158450000D02*
X69240000Y-156790000D01*
X68912500Y-136037500D02*
X68012500Y-136037500D01*
X70100000Y-121040311D02*
X70100000Y-134850000D01*
X68770311Y-119710622D02*
X70100000Y-121040311D01*
X68337998Y-119243548D02*
X68770311Y-119710622D01*
X67994450Y-118900000D02*
X68337998Y-119243548D01*
X60300000Y-118900000D02*
X67994450Y-118900000D01*
X55700000Y-123500000D02*
X60300000Y-118900000D01*
X55700000Y-154050000D02*
X55700000Y-123500000D01*
X70100000Y-134850000D02*
X68912500Y-136037500D01*
X58440000Y-156790000D02*
X55700000Y-154050000D01*
X63000000Y-156790000D02*
X58440000Y-156790000D01*
X70100000Y-149550000D02*
X77400010Y-149550000D01*
X82700000Y-144250010D02*
X119499990Y-144250010D01*
X77400010Y-149550000D02*
X82700000Y-144250010D01*
X124740000Y-139010000D02*
X147328000Y-139010000D01*
X119499990Y-144250010D02*
X124740000Y-139010000D01*
X70250000Y-150950000D02*
X120300000Y-150950000D01*
X127160000Y-144090000D02*
X147300000Y-144090000D01*
X120300000Y-150950000D02*
X127160000Y-144090000D01*
X149070000Y-136470000D02*
X147328000Y-136470000D01*
X150249990Y-137649990D02*
X149070000Y-136470000D01*
X150249990Y-151118825D02*
X150249990Y-137649990D01*
X145768814Y-155600001D02*
X150249990Y-151118825D01*
X78255001Y-155600001D02*
X145768814Y-155600001D01*
X77605000Y-154950000D02*
X78255001Y-155600001D01*
X148600000Y-141550000D02*
X147328000Y-141550000D01*
X149249980Y-142199980D02*
X148600000Y-141550000D01*
X149249980Y-150650020D02*
X149249980Y-142199980D01*
X145300000Y-154600000D02*
X149249980Y-150650020D01*
X86495000Y-154600000D02*
X145300000Y-154600000D01*
X63000000Y-149170000D02*
X68920000Y-143250000D01*
X68920000Y-143250000D02*
X92100000Y-143250000D01*
X92100000Y-143250000D02*
X93950000Y-141400000D01*
D28*
G36*
X167290001Y-121290000D02*
G01*
X152534877Y-121290000D01*
X152500000Y-121286565D01*
X152465123Y-121290000D01*
X152360816Y-121300273D01*
X152226980Y-121340872D01*
X152103637Y-121406800D01*
X151995525Y-121495525D01*
X151906800Y-121603637D01*
X151840872Y-121726980D01*
X151800273Y-121860816D01*
X151786565Y-122000000D01*
X151790000Y-122034877D01*
X151790000Y-127126289D01*
X142435133Y-117771422D01*
X143970738Y-117771422D01*
X143970738Y-118208578D01*
X144056023Y-118637335D01*
X144223316Y-119041215D01*
X144466187Y-119404697D01*
X144775303Y-119713813D01*
X145138785Y-119956684D01*
X145542665Y-120123977D01*
X145971422Y-120209262D01*
X146408578Y-120209262D01*
X146837335Y-120123977D01*
X147241215Y-119956684D01*
X147604697Y-119713813D01*
X147913813Y-119404697D01*
X148156684Y-119041215D01*
X148323977Y-118637335D01*
X148409262Y-118208578D01*
X148409262Y-117771422D01*
X148330491Y-117375413D01*
X155794192Y-117375413D01*
X155889956Y-117639814D01*
X156179571Y-117780704D01*
X156491108Y-117862384D01*
X156812595Y-117881718D01*
X157131675Y-117837961D01*
X157436088Y-117732795D01*
X157610044Y-117639814D01*
X157705808Y-117375413D01*
X162294192Y-117375413D01*
X162389956Y-117639814D01*
X162679571Y-117780704D01*
X162991108Y-117862384D01*
X163312595Y-117881718D01*
X163631675Y-117837961D01*
X163936088Y-117732795D01*
X164110044Y-117639814D01*
X164205808Y-117375413D01*
X163250000Y-116419605D01*
X162294192Y-117375413D01*
X157705808Y-117375413D01*
X156750000Y-116419605D01*
X155794192Y-117375413D01*
X148330491Y-117375413D01*
X148323977Y-117342665D01*
X148156684Y-116938785D01*
X147913813Y-116575303D01*
X147641105Y-116302595D01*
X155108282Y-116302595D01*
X155152039Y-116621675D01*
X155257205Y-116926088D01*
X155350186Y-117100044D01*
X155614587Y-117195808D01*
X156570395Y-116240000D01*
X156929605Y-116240000D01*
X157885413Y-117195808D01*
X158149814Y-117100044D01*
X158290704Y-116810429D01*
X158372384Y-116498892D01*
X158384189Y-116302595D01*
X161608282Y-116302595D01*
X161652039Y-116621675D01*
X161757205Y-116926088D01*
X161850186Y-117100044D01*
X162114587Y-117195808D01*
X163070395Y-116240000D01*
X163429605Y-116240000D01*
X164385413Y-117195808D01*
X164649814Y-117100044D01*
X164790704Y-116810429D01*
X164872384Y-116498892D01*
X164891718Y-116177405D01*
X164847961Y-115858325D01*
X164742795Y-115553912D01*
X164649814Y-115379956D01*
X164385413Y-115284192D01*
X163429605Y-116240000D01*
X163070395Y-116240000D01*
X162114587Y-115284192D01*
X161850186Y-115379956D01*
X161709296Y-115669571D01*
X161627616Y-115981108D01*
X161608282Y-116302595D01*
X158384189Y-116302595D01*
X158391718Y-116177405D01*
X158347961Y-115858325D01*
X158242795Y-115553912D01*
X158149814Y-115379956D01*
X157885413Y-115284192D01*
X156929605Y-116240000D01*
X156570395Y-116240000D01*
X155614587Y-115284192D01*
X155350186Y-115379956D01*
X155209296Y-115669571D01*
X155127616Y-115981108D01*
X155108282Y-116302595D01*
X147641105Y-116302595D01*
X147604697Y-116266187D01*
X147241215Y-116023316D01*
X146837335Y-115856023D01*
X146408578Y-115770738D01*
X145971422Y-115770738D01*
X145542665Y-115856023D01*
X145138785Y-116023316D01*
X144775303Y-116266187D01*
X144466187Y-116575303D01*
X144223316Y-116938785D01*
X144056023Y-117342665D01*
X143970738Y-117771422D01*
X142435133Y-117771422D01*
X139768298Y-115104587D01*
X155794192Y-115104587D01*
X156750000Y-116060395D01*
X157705808Y-115104587D01*
X162294192Y-115104587D01*
X163250000Y-116060395D01*
X164205808Y-115104587D01*
X164110044Y-114840186D01*
X163820429Y-114699296D01*
X163508892Y-114617616D01*
X163187405Y-114598282D01*
X162868325Y-114642039D01*
X162563912Y-114747205D01*
X162389956Y-114840186D01*
X162294192Y-115104587D01*
X157705808Y-115104587D01*
X157610044Y-114840186D01*
X157320429Y-114699296D01*
X157008892Y-114617616D01*
X156687405Y-114598282D01*
X156368325Y-114642039D01*
X156063912Y-114747205D01*
X155889956Y-114840186D01*
X155794192Y-115104587D01*
X139768298Y-115104587D01*
X137967807Y-113304097D01*
X137935396Y-113264604D01*
X137777797Y-113135266D01*
X137597993Y-113039159D01*
X137402895Y-112979976D01*
X137250838Y-112965000D01*
X137250828Y-112965000D01*
X137200000Y-112959994D01*
X137149172Y-112965000D01*
X126178711Y-112965000D01*
X125249000Y-112035290D01*
X125249000Y-111943488D01*
X125308520Y-111832134D01*
X125359768Y-111663193D01*
X125377072Y-111487500D01*
X125377072Y-110512500D01*
X125359768Y-110336807D01*
X125308520Y-110167866D01*
X125272245Y-110100000D01*
X127161928Y-110100000D01*
X127161928Y-111900000D01*
X127174188Y-112024482D01*
X127210498Y-112144180D01*
X127269463Y-112254494D01*
X127348815Y-112351185D01*
X127445506Y-112430537D01*
X127555820Y-112489502D01*
X127675518Y-112525812D01*
X127800000Y-112538072D01*
X129600000Y-112538072D01*
X129724482Y-112525812D01*
X129844180Y-112489502D01*
X129954494Y-112430537D01*
X130051185Y-112351185D01*
X130130537Y-112254494D01*
X130189502Y-112144180D01*
X130192813Y-112133265D01*
X130239578Y-112180030D01*
X130355526Y-112064082D01*
X130439208Y-112318261D01*
X130711775Y-112449158D01*
X131004642Y-112524365D01*
X131306553Y-112540991D01*
X131605907Y-112498397D01*
X131891199Y-112398222D01*
X132040792Y-112318261D01*
X132124475Y-112064080D01*
X131240000Y-111179605D01*
X131225858Y-111193748D01*
X131046253Y-111014143D01*
X131060395Y-111000000D01*
X131419605Y-111000000D01*
X132304080Y-111884475D01*
X132558261Y-111800792D01*
X132689158Y-111528225D01*
X132764365Y-111235358D01*
X132780991Y-110933447D01*
X132738397Y-110634093D01*
X132638222Y-110348801D01*
X132558261Y-110199208D01*
X132304080Y-110115525D01*
X131419605Y-111000000D01*
X131060395Y-111000000D01*
X131046253Y-110985858D01*
X131225858Y-110806253D01*
X131240000Y-110820395D01*
X131960395Y-110100000D01*
X134691928Y-110100000D01*
X134691928Y-111900000D01*
X134704188Y-112024482D01*
X134740498Y-112144180D01*
X134799463Y-112254494D01*
X134878815Y-112351185D01*
X134975506Y-112430537D01*
X135085820Y-112489502D01*
X135205518Y-112525812D01*
X135330000Y-112538072D01*
X137130000Y-112538072D01*
X137254482Y-112525812D01*
X137374180Y-112489502D01*
X137484494Y-112430537D01*
X137581185Y-112351185D01*
X137660537Y-112254494D01*
X137719502Y-112144180D01*
X137722813Y-112133265D01*
X137769578Y-112180030D01*
X137885526Y-112064082D01*
X137969208Y-112318261D01*
X138241775Y-112449158D01*
X138534642Y-112524365D01*
X138836553Y-112540991D01*
X139135907Y-112498397D01*
X139421199Y-112398222D01*
X139570792Y-112318261D01*
X139654475Y-112064080D01*
X138770000Y-111179605D01*
X138755858Y-111193748D01*
X138576253Y-111014143D01*
X138590395Y-111000000D01*
X138949605Y-111000000D01*
X139834080Y-111884475D01*
X140088261Y-111800792D01*
X140194789Y-111578967D01*
X155115000Y-111578967D01*
X155115000Y-111901033D01*
X155177832Y-112216912D01*
X155301082Y-112514463D01*
X155480013Y-112782252D01*
X155707748Y-113009987D01*
X155975537Y-113188918D01*
X156273088Y-113312168D01*
X156588967Y-113375000D01*
X156911033Y-113375000D01*
X157226912Y-113312168D01*
X157524463Y-113188918D01*
X157792252Y-113009987D01*
X158019987Y-112782252D01*
X158198918Y-112514463D01*
X158322168Y-112216912D01*
X158385000Y-111901033D01*
X158385000Y-111578967D01*
X161615000Y-111578967D01*
X161615000Y-111901033D01*
X161677832Y-112216912D01*
X161801082Y-112514463D01*
X161980013Y-112782252D01*
X162207748Y-113009987D01*
X162475537Y-113188918D01*
X162773088Y-113312168D01*
X163088967Y-113375000D01*
X163411033Y-113375000D01*
X163726912Y-113312168D01*
X164024463Y-113188918D01*
X164292252Y-113009987D01*
X164519987Y-112782252D01*
X164698918Y-112514463D01*
X164822168Y-112216912D01*
X164885000Y-111901033D01*
X164885000Y-111578967D01*
X164822168Y-111263088D01*
X164698918Y-110965537D01*
X164519987Y-110697748D01*
X164292252Y-110470013D01*
X164024463Y-110291082D01*
X163726912Y-110167832D01*
X163411033Y-110105000D01*
X163088967Y-110105000D01*
X162773088Y-110167832D01*
X162475537Y-110291082D01*
X162207748Y-110470013D01*
X161980013Y-110697748D01*
X161801082Y-110965537D01*
X161677832Y-111263088D01*
X161615000Y-111578967D01*
X158385000Y-111578967D01*
X158322168Y-111263088D01*
X158198918Y-110965537D01*
X158019987Y-110697748D01*
X157792252Y-110470013D01*
X157524463Y-110291082D01*
X157226912Y-110167832D01*
X156911033Y-110105000D01*
X156588967Y-110105000D01*
X156273088Y-110167832D01*
X155975537Y-110291082D01*
X155707748Y-110470013D01*
X155480013Y-110697748D01*
X155301082Y-110965537D01*
X155177832Y-111263088D01*
X155115000Y-111578967D01*
X140194789Y-111578967D01*
X140219158Y-111528225D01*
X140294365Y-111235358D01*
X140310991Y-110933447D01*
X140268397Y-110634093D01*
X140168222Y-110348801D01*
X140088261Y-110199208D01*
X139834080Y-110115525D01*
X138949605Y-111000000D01*
X138590395Y-111000000D01*
X138576253Y-110985858D01*
X138755858Y-110806253D01*
X138770000Y-110820395D01*
X139654475Y-109935920D01*
X139570792Y-109681739D01*
X139298225Y-109550842D01*
X139005358Y-109475635D01*
X138703447Y-109459009D01*
X138404093Y-109501603D01*
X138118801Y-109601778D01*
X137969208Y-109681739D01*
X137885526Y-109935918D01*
X137769578Y-109819970D01*
X137722813Y-109866735D01*
X137719502Y-109855820D01*
X137660537Y-109745506D01*
X137581185Y-109648815D01*
X137484494Y-109569463D01*
X137374180Y-109510498D01*
X137254482Y-109474188D01*
X137130000Y-109461928D01*
X135330000Y-109461928D01*
X135205518Y-109474188D01*
X135085820Y-109510498D01*
X134975506Y-109569463D01*
X134878815Y-109648815D01*
X134799463Y-109745506D01*
X134740498Y-109855820D01*
X134704188Y-109975518D01*
X134691928Y-110100000D01*
X131960395Y-110100000D01*
X132124475Y-109935920D01*
X132040792Y-109681739D01*
X131768225Y-109550842D01*
X131475358Y-109475635D01*
X131173447Y-109459009D01*
X130874093Y-109501603D01*
X130588801Y-109601778D01*
X130439208Y-109681739D01*
X130355526Y-109935918D01*
X130239578Y-109819970D01*
X130192813Y-109866735D01*
X130189502Y-109855820D01*
X130130537Y-109745506D01*
X130051185Y-109648815D01*
X129954494Y-109569463D01*
X129844180Y-109510498D01*
X129724482Y-109474188D01*
X129600000Y-109461928D01*
X127800000Y-109461928D01*
X127675518Y-109474188D01*
X127555820Y-109510498D01*
X127445506Y-109569463D01*
X127348815Y-109648815D01*
X127269463Y-109745506D01*
X127210498Y-109855820D01*
X127174188Y-109975518D01*
X127161928Y-110100000D01*
X125272245Y-110100000D01*
X125225298Y-110012169D01*
X125113301Y-109875699D01*
X124976831Y-109763702D01*
X124821134Y-109680480D01*
X124652193Y-109629232D01*
X124476500Y-109611928D01*
X123951500Y-109611928D01*
X123775807Y-109629232D01*
X123606866Y-109680480D01*
X123579000Y-109695375D01*
X123551134Y-109680480D01*
X123382193Y-109629232D01*
X123206500Y-109611928D01*
X122681500Y-109611928D01*
X122505807Y-109629232D01*
X122422959Y-109654364D01*
X122323482Y-109624188D01*
X122199000Y-109611928D01*
X121959750Y-109615000D01*
X121801000Y-109773750D01*
X121801000Y-110327682D01*
X121798232Y-110336807D01*
X121780928Y-110512500D01*
X121780928Y-111487500D01*
X121798232Y-111663193D01*
X121801000Y-111672318D01*
X121801000Y-112226250D01*
X121959750Y-112385000D01*
X122199000Y-112388072D01*
X122323482Y-112375812D01*
X122422959Y-112345636D01*
X122505807Y-112370768D01*
X122681500Y-112388072D01*
X123179000Y-112388072D01*
X123179000Y-112413172D01*
X123173994Y-112464000D01*
X123179000Y-112514828D01*
X123179000Y-112514837D01*
X123193976Y-112666894D01*
X123253159Y-112861992D01*
X123349266Y-113041797D01*
X123478604Y-113199396D01*
X123518097Y-113231807D01*
X124982196Y-114695907D01*
X125014604Y-114735396D01*
X125054092Y-114767803D01*
X125172202Y-114864734D01*
X125252246Y-114907518D01*
X125352007Y-114960841D01*
X125547105Y-115020024D01*
X125699162Y-115035000D01*
X125699171Y-115035000D01*
X125749999Y-115040006D01*
X125800827Y-115035000D01*
X136771290Y-115035000D01*
X150215001Y-128478712D01*
X150215001Y-136151290D01*
X149837807Y-135774097D01*
X149805396Y-135734604D01*
X149647797Y-135605266D01*
X149467993Y-135509159D01*
X149272895Y-135449976D01*
X149120838Y-135435000D01*
X149120828Y-135435000D01*
X149070000Y-135429994D01*
X149019172Y-135435000D01*
X148251685Y-135435000D01*
X148210886Y-135394201D01*
X147984043Y-135242629D01*
X147731989Y-135138225D01*
X147464411Y-135085000D01*
X147191589Y-135085000D01*
X146924011Y-135138225D01*
X146671957Y-135242629D01*
X146445114Y-135394201D01*
X146252201Y-135587114D01*
X146100629Y-135813957D01*
X145996225Y-136066011D01*
X145943000Y-136333589D01*
X145943000Y-136606411D01*
X145996225Y-136873989D01*
X146100629Y-137126043D01*
X146252201Y-137352886D01*
X146445114Y-137545799D01*
X146671957Y-137697371D01*
X146774873Y-137740000D01*
X146671957Y-137782629D01*
X146445114Y-137934201D01*
X146404315Y-137975000D01*
X124790827Y-137975000D01*
X124739999Y-137969994D01*
X124689171Y-137975000D01*
X124689162Y-137975000D01*
X124537105Y-137989976D01*
X124342007Y-138049159D01*
X124258309Y-138093896D01*
X124162202Y-138145266D01*
X124061651Y-138227787D01*
X124004604Y-138274604D01*
X123972197Y-138314092D01*
X119071280Y-143215010D01*
X93598700Y-143215010D01*
X94717803Y-142095908D01*
X94753937Y-142059774D01*
X94782325Y-142017288D01*
X94814734Y-141977798D01*
X94838816Y-141932744D01*
X94867205Y-141890256D01*
X94886762Y-141843041D01*
X94910840Y-141797994D01*
X94925666Y-141749119D01*
X94945226Y-141701898D01*
X94955197Y-141651771D01*
X94970023Y-141602896D01*
X94975029Y-141552066D01*
X94985000Y-141501939D01*
X94985000Y-141450829D01*
X94990006Y-141400001D01*
X94985000Y-141349173D01*
X94985000Y-141298061D01*
X94975029Y-141247933D01*
X94970023Y-141197105D01*
X94955197Y-141148232D01*
X94945226Y-141098102D01*
X94925665Y-141050878D01*
X94910840Y-141002007D01*
X94886764Y-140956964D01*
X94867205Y-140909744D01*
X94838813Y-140867252D01*
X94814734Y-140822203D01*
X94782330Y-140782719D01*
X94753937Y-140740226D01*
X94717795Y-140704084D01*
X94685395Y-140664605D01*
X94645916Y-140632205D01*
X94609774Y-140596063D01*
X94567281Y-140567670D01*
X94527797Y-140535266D01*
X94482748Y-140511187D01*
X94440256Y-140482795D01*
X94393036Y-140463236D01*
X94347993Y-140439160D01*
X94299122Y-140424335D01*
X94251898Y-140404774D01*
X94201768Y-140394803D01*
X94152895Y-140379977D01*
X94102067Y-140374971D01*
X94051939Y-140365000D01*
X94000827Y-140365000D01*
X93949999Y-140359994D01*
X93899171Y-140365000D01*
X93848061Y-140365000D01*
X93797934Y-140374971D01*
X93747104Y-140379977D01*
X93698229Y-140394803D01*
X93648102Y-140404774D01*
X93600881Y-140424334D01*
X93552006Y-140439160D01*
X93506959Y-140463238D01*
X93459744Y-140482795D01*
X93417256Y-140511184D01*
X93372202Y-140535266D01*
X93332712Y-140567675D01*
X93290226Y-140596063D01*
X93254092Y-140632197D01*
X91671290Y-142215000D01*
X68970827Y-142215000D01*
X68919999Y-142209994D01*
X68869171Y-142215000D01*
X68869162Y-142215000D01*
X68717105Y-142229976D01*
X68522007Y-142289159D01*
X68438309Y-142333896D01*
X68342202Y-142385266D01*
X68224092Y-142482197D01*
X68184604Y-142514604D01*
X68152197Y-142554092D01*
X64356414Y-146349876D01*
X64331775Y-146226011D01*
X64227371Y-145973957D01*
X64075799Y-145747114D01*
X63882886Y-145554201D01*
X63656043Y-145402629D01*
X63553127Y-145360000D01*
X63656043Y-145317371D01*
X63882886Y-145165799D01*
X64075799Y-144972886D01*
X64227371Y-144746043D01*
X64331775Y-144493989D01*
X64385000Y-144226411D01*
X64385000Y-143953589D01*
X64331775Y-143686011D01*
X64227371Y-143433957D01*
X64075799Y-143207114D01*
X63882886Y-143014201D01*
X63656043Y-142862629D01*
X63553127Y-142820000D01*
X63656043Y-142777371D01*
X63882886Y-142625799D01*
X64075799Y-142432886D01*
X64227371Y-142206043D01*
X64331775Y-141953989D01*
X64385000Y-141686411D01*
X64385000Y-141413589D01*
X64331775Y-141146011D01*
X64227371Y-140893957D01*
X64075799Y-140667114D01*
X63882886Y-140474201D01*
X63656043Y-140322629D01*
X63553127Y-140280000D01*
X63656043Y-140237371D01*
X63882886Y-140085799D01*
X64075799Y-139892886D01*
X64227371Y-139666043D01*
X64331775Y-139413989D01*
X64385000Y-139146411D01*
X64385000Y-138873589D01*
X64331775Y-138606011D01*
X64227371Y-138353957D01*
X64075799Y-138127114D01*
X63882886Y-137934201D01*
X63656043Y-137782629D01*
X63553127Y-137740000D01*
X63656043Y-137697371D01*
X63882886Y-137545799D01*
X64075799Y-137352886D01*
X64227371Y-137126043D01*
X64331775Y-136873989D01*
X64385000Y-136606411D01*
X64385000Y-136333589D01*
X64331775Y-136066011D01*
X64227371Y-135813957D01*
X64075799Y-135587114D01*
X63882886Y-135394201D01*
X63656043Y-135242629D01*
X63553127Y-135200000D01*
X63656043Y-135157371D01*
X63882886Y-135005799D01*
X64075799Y-134812886D01*
X64227371Y-134586043D01*
X64331775Y-134333989D01*
X64385000Y-134066411D01*
X64385000Y-133793589D01*
X64331775Y-133526011D01*
X64227371Y-133273957D01*
X64075799Y-133047114D01*
X63882886Y-132854201D01*
X63656043Y-132702629D01*
X63553127Y-132660000D01*
X63656043Y-132617371D01*
X63882886Y-132465799D01*
X64075799Y-132272886D01*
X64227371Y-132046043D01*
X64331775Y-131793989D01*
X64385000Y-131526411D01*
X64385000Y-131253589D01*
X64331775Y-130986011D01*
X64227371Y-130733957D01*
X64075799Y-130507114D01*
X63882886Y-130314201D01*
X63656043Y-130162629D01*
X63553127Y-130120000D01*
X63656043Y-130077371D01*
X63882886Y-129925799D01*
X64075799Y-129732886D01*
X64227371Y-129506043D01*
X64331775Y-129253989D01*
X64385000Y-128986411D01*
X64385000Y-128713589D01*
X64331775Y-128446011D01*
X64227371Y-128193957D01*
X64075799Y-127967114D01*
X63882886Y-127774201D01*
X63656043Y-127622629D01*
X63553127Y-127580000D01*
X63656043Y-127537371D01*
X63882886Y-127385799D01*
X64075799Y-127192886D01*
X64227371Y-126966043D01*
X64331775Y-126713989D01*
X64385000Y-126446411D01*
X64385000Y-126173589D01*
X64331775Y-125906011D01*
X64227371Y-125653957D01*
X64075799Y-125427114D01*
X63882886Y-125234201D01*
X63656043Y-125082629D01*
X63553127Y-125040000D01*
X63656043Y-124997371D01*
X63882886Y-124845799D01*
X64075799Y-124652886D01*
X64227371Y-124426043D01*
X64331775Y-124173989D01*
X64385000Y-123906411D01*
X64385000Y-123633589D01*
X64331775Y-123366011D01*
X64227371Y-123113957D01*
X64075799Y-122887114D01*
X63882886Y-122694201D01*
X63656043Y-122542629D01*
X63403989Y-122438225D01*
X63136411Y-122385000D01*
X62863589Y-122385000D01*
X62596011Y-122438225D01*
X62343957Y-122542629D01*
X62117114Y-122694201D01*
X61924201Y-122887114D01*
X61772629Y-123113957D01*
X61668225Y-123366011D01*
X61615000Y-123633589D01*
X61615000Y-123906411D01*
X61668225Y-124173989D01*
X61772629Y-124426043D01*
X61924201Y-124652886D01*
X62117114Y-124845799D01*
X62343957Y-124997371D01*
X62446873Y-125040000D01*
X62343957Y-125082629D01*
X62117114Y-125234201D01*
X61924201Y-125427114D01*
X61772629Y-125653957D01*
X61668225Y-125906011D01*
X61615000Y-126173589D01*
X61615000Y-126446411D01*
X61668225Y-126713989D01*
X61772629Y-126966043D01*
X61924201Y-127192886D01*
X62117114Y-127385799D01*
X62343957Y-127537371D01*
X62446873Y-127580000D01*
X62343957Y-127622629D01*
X62117114Y-127774201D01*
X61924201Y-127967114D01*
X61772629Y-128193957D01*
X61668225Y-128446011D01*
X61615000Y-128713589D01*
X61615000Y-128986411D01*
X61668225Y-129253989D01*
X61772629Y-129506043D01*
X61924201Y-129732886D01*
X62117114Y-129925799D01*
X62343957Y-130077371D01*
X62446873Y-130120000D01*
X62343957Y-130162629D01*
X62117114Y-130314201D01*
X61924201Y-130507114D01*
X61772629Y-130733957D01*
X61668225Y-130986011D01*
X61615000Y-131253589D01*
X61615000Y-131526411D01*
X61668225Y-131793989D01*
X61772629Y-132046043D01*
X61924201Y-132272886D01*
X62117114Y-132465799D01*
X62343957Y-132617371D01*
X62446873Y-132660000D01*
X62343957Y-132702629D01*
X62117114Y-132854201D01*
X61924201Y-133047114D01*
X61772629Y-133273957D01*
X61668225Y-133526011D01*
X61615000Y-133793589D01*
X61615000Y-134066411D01*
X61668225Y-134333989D01*
X61772629Y-134586043D01*
X61924201Y-134812886D01*
X62117114Y-135005799D01*
X62343957Y-135157371D01*
X62446873Y-135200000D01*
X62343957Y-135242629D01*
X62117114Y-135394201D01*
X61924201Y-135587114D01*
X61772629Y-135813957D01*
X61668225Y-136066011D01*
X61615000Y-136333589D01*
X61615000Y-136606411D01*
X61668225Y-136873989D01*
X61772629Y-137126043D01*
X61924201Y-137352886D01*
X62117114Y-137545799D01*
X62343957Y-137697371D01*
X62446873Y-137740000D01*
X62343957Y-137782629D01*
X62117114Y-137934201D01*
X61924201Y-138127114D01*
X61772629Y-138353957D01*
X61668225Y-138606011D01*
X61615000Y-138873589D01*
X61615000Y-139146411D01*
X61668225Y-139413989D01*
X61772629Y-139666043D01*
X61924201Y-139892886D01*
X62117114Y-140085799D01*
X62343957Y-140237371D01*
X62446873Y-140280000D01*
X62343957Y-140322629D01*
X62117114Y-140474201D01*
X61924201Y-140667114D01*
X61772629Y-140893957D01*
X61668225Y-141146011D01*
X61615000Y-141413589D01*
X61615000Y-141686411D01*
X61668225Y-141953989D01*
X61772629Y-142206043D01*
X61924201Y-142432886D01*
X62117114Y-142625799D01*
X62343957Y-142777371D01*
X62446873Y-142820000D01*
X62343957Y-142862629D01*
X62117114Y-143014201D01*
X61924201Y-143207114D01*
X61772629Y-143433957D01*
X61668225Y-143686011D01*
X61615000Y-143953589D01*
X61615000Y-144226411D01*
X61668225Y-144493989D01*
X61772629Y-144746043D01*
X61924201Y-144972886D01*
X62117114Y-145165799D01*
X62343957Y-145317371D01*
X62446873Y-145360000D01*
X62343957Y-145402629D01*
X62117114Y-145554201D01*
X61924201Y-145747114D01*
X61772629Y-145973957D01*
X61668225Y-146226011D01*
X61615000Y-146493589D01*
X61615000Y-146766411D01*
X61668225Y-147033989D01*
X61772629Y-147286043D01*
X61924201Y-147512886D01*
X62117114Y-147705799D01*
X62343957Y-147857371D01*
X62446873Y-147900000D01*
X62343957Y-147942629D01*
X62117114Y-148094201D01*
X61924201Y-148287114D01*
X61772629Y-148513957D01*
X61668225Y-148766011D01*
X61615000Y-149033589D01*
X61615000Y-149306411D01*
X61668225Y-149573989D01*
X61772629Y-149826043D01*
X61924201Y-150052886D01*
X62117114Y-150245799D01*
X62343957Y-150397371D01*
X62446873Y-150440000D01*
X62343957Y-150482629D01*
X62117114Y-150634201D01*
X61924201Y-150827114D01*
X61772629Y-151053957D01*
X61668225Y-151306011D01*
X61615000Y-151573589D01*
X61615000Y-151846411D01*
X61668225Y-152113989D01*
X61772629Y-152366043D01*
X61924201Y-152592886D01*
X62117114Y-152785799D01*
X62343957Y-152937371D01*
X62443279Y-152978511D01*
X62401168Y-152993723D01*
X62288137Y-153054140D01*
X62222612Y-153293007D01*
X63000000Y-154070395D01*
X63777388Y-153293007D01*
X63711863Y-153054140D01*
X63553523Y-152979836D01*
X63656043Y-152937371D01*
X63882886Y-152785799D01*
X64075799Y-152592886D01*
X64227371Y-152366043D01*
X64331775Y-152113989D01*
X64385000Y-151846411D01*
X64385000Y-151573589D01*
X64331775Y-151306011D01*
X64227371Y-151053957D01*
X64075799Y-150827114D01*
X63882886Y-150634201D01*
X63656043Y-150482629D01*
X63553127Y-150440000D01*
X63656043Y-150397371D01*
X63882886Y-150245799D01*
X64075799Y-150052886D01*
X64227371Y-149826043D01*
X64331775Y-149573989D01*
X64385000Y-149306411D01*
X64385000Y-149248710D01*
X69348711Y-144285000D01*
X81201299Y-144285000D01*
X76971300Y-148515000D01*
X69998061Y-148515000D01*
X69947943Y-148524969D01*
X69897105Y-148529976D01*
X69848223Y-148544804D01*
X69798102Y-148554774D01*
X69750887Y-148574331D01*
X69702007Y-148589159D01*
X69656958Y-148613238D01*
X69609744Y-148632795D01*
X69567254Y-148661186D01*
X69522203Y-148685266D01*
X69482716Y-148717672D01*
X69440226Y-148746063D01*
X69404092Y-148782197D01*
X69364604Y-148814604D01*
X69332197Y-148854092D01*
X69296063Y-148890226D01*
X69267672Y-148932716D01*
X69235266Y-148972203D01*
X69211186Y-149017254D01*
X69182795Y-149059744D01*
X69163238Y-149106958D01*
X69139159Y-149152007D01*
X69124331Y-149200887D01*
X69104774Y-149248102D01*
X69094804Y-149298223D01*
X69079976Y-149347105D01*
X69074969Y-149397943D01*
X69065000Y-149448061D01*
X69065000Y-149499162D01*
X69059993Y-149550000D01*
X69065000Y-149600838D01*
X69065000Y-149651939D01*
X69074969Y-149702057D01*
X69079976Y-149752895D01*
X69094804Y-149801777D01*
X69104774Y-149851898D01*
X69124331Y-149899113D01*
X69139159Y-149947993D01*
X69163238Y-149993042D01*
X69182795Y-150040256D01*
X69211186Y-150082746D01*
X69235266Y-150127797D01*
X69267672Y-150167284D01*
X69296063Y-150209774D01*
X69332197Y-150245908D01*
X69364604Y-150285396D01*
X69404092Y-150317803D01*
X69418206Y-150331917D01*
X69417672Y-150332716D01*
X69385266Y-150372203D01*
X69361186Y-150417254D01*
X69332795Y-150459744D01*
X69313238Y-150506958D01*
X69289159Y-150552007D01*
X69274331Y-150600887D01*
X69254774Y-150648102D01*
X69244804Y-150698223D01*
X69229976Y-150747105D01*
X69224969Y-150797943D01*
X69215000Y-150848061D01*
X69215000Y-150899162D01*
X69209993Y-150950000D01*
X69215000Y-151000838D01*
X69215000Y-151051939D01*
X69224969Y-151102057D01*
X69229976Y-151152895D01*
X69244804Y-151201777D01*
X69254774Y-151251898D01*
X69274331Y-151299113D01*
X69289159Y-151347993D01*
X69313238Y-151393042D01*
X69332795Y-151440256D01*
X69361186Y-151482746D01*
X69385266Y-151527797D01*
X69417672Y-151567284D01*
X69446063Y-151609774D01*
X69482197Y-151645908D01*
X69514604Y-151685396D01*
X69554092Y-151717803D01*
X69590226Y-151753937D01*
X69632716Y-151782328D01*
X69672203Y-151814734D01*
X69717254Y-151838814D01*
X69759744Y-151867205D01*
X69806958Y-151886762D01*
X69852007Y-151910841D01*
X69900887Y-151925669D01*
X69948102Y-151945226D01*
X69998223Y-151955196D01*
X70047105Y-151970024D01*
X70097943Y-151975031D01*
X70148061Y-151985000D01*
X120249172Y-151985000D01*
X120300000Y-151990006D01*
X120350828Y-151985000D01*
X120350838Y-151985000D01*
X120502895Y-151970024D01*
X120697993Y-151910841D01*
X120877797Y-151814734D01*
X121035396Y-151685396D01*
X121067807Y-151645903D01*
X127588711Y-145125000D01*
X145982317Y-145125000D01*
X146019463Y-145194494D01*
X146098815Y-145291185D01*
X146195506Y-145370537D01*
X146305820Y-145429502D01*
X146425518Y-145465812D01*
X146550000Y-145478072D01*
X148050000Y-145478072D01*
X148174482Y-145465812D01*
X148214981Y-145453527D01*
X148214980Y-150221309D01*
X144871290Y-153565000D01*
X86393061Y-153565000D01*
X86342943Y-153574969D01*
X86292105Y-153579976D01*
X86243223Y-153594804D01*
X86193102Y-153604774D01*
X86145887Y-153624331D01*
X86097007Y-153639159D01*
X86051958Y-153663238D01*
X86004744Y-153682795D01*
X85962254Y-153711186D01*
X85917203Y-153735266D01*
X85877716Y-153767672D01*
X85835226Y-153796063D01*
X85799092Y-153832197D01*
X85759604Y-153864604D01*
X85727197Y-153904092D01*
X85691063Y-153940226D01*
X85662672Y-153982716D01*
X85630266Y-154022203D01*
X85606186Y-154067254D01*
X85577795Y-154109744D01*
X85558238Y-154156958D01*
X85534159Y-154202007D01*
X85519331Y-154250887D01*
X85499774Y-154298102D01*
X85489804Y-154348223D01*
X85474976Y-154397105D01*
X85469969Y-154447943D01*
X85460000Y-154498061D01*
X85460000Y-154549162D01*
X85458440Y-154565001D01*
X78683711Y-154565001D01*
X78408939Y-154290229D01*
X78408937Y-154290226D01*
X78264774Y-154146063D01*
X78222283Y-154117671D01*
X78182797Y-154085266D01*
X78137748Y-154061187D01*
X78095256Y-154032795D01*
X78048036Y-154013236D01*
X78002993Y-153989160D01*
X77954122Y-153974335D01*
X77906898Y-153954774D01*
X77856768Y-153944803D01*
X77807895Y-153929977D01*
X77757067Y-153924971D01*
X77706939Y-153915000D01*
X77655828Y-153915000D01*
X77605000Y-153909994D01*
X77554172Y-153915000D01*
X77503061Y-153915000D01*
X77452933Y-153924971D01*
X77402105Y-153929977D01*
X77353232Y-153944803D01*
X77303102Y-153954774D01*
X77255878Y-153974335D01*
X77207007Y-153989160D01*
X77161964Y-154013236D01*
X77114744Y-154032795D01*
X77072252Y-154061187D01*
X77027203Y-154085266D01*
X76987716Y-154117672D01*
X76945226Y-154146063D01*
X76909092Y-154182197D01*
X76869604Y-154214604D01*
X76837197Y-154254092D01*
X76801063Y-154290226D01*
X76772672Y-154332716D01*
X76740266Y-154372203D01*
X76716187Y-154417252D01*
X76687795Y-154459744D01*
X76668236Y-154506964D01*
X76644160Y-154552007D01*
X76629335Y-154600878D01*
X76609774Y-154648102D01*
X76599803Y-154698232D01*
X76584977Y-154747105D01*
X76579971Y-154797933D01*
X76570000Y-154848061D01*
X76570000Y-154899172D01*
X76564994Y-154950000D01*
X76570000Y-155000828D01*
X76570000Y-155051939D01*
X76579971Y-155102067D01*
X76584977Y-155152895D01*
X76599803Y-155201768D01*
X76609774Y-155251898D01*
X76629335Y-155299122D01*
X76644160Y-155347993D01*
X76668236Y-155393036D01*
X76687795Y-155440256D01*
X76716187Y-155482748D01*
X76740266Y-155527797D01*
X76772671Y-155567283D01*
X76801063Y-155609774D01*
X76945226Y-155753937D01*
X76945229Y-155753939D01*
X77487194Y-156295904D01*
X77519605Y-156335397D01*
X77588585Y-156392007D01*
X77677203Y-156464735D01*
X77744748Y-156500838D01*
X77857008Y-156560842D01*
X78052106Y-156620025D01*
X78204163Y-156635001D01*
X78204172Y-156635001D01*
X78255000Y-156640007D01*
X78305828Y-156635001D01*
X145717986Y-156635001D01*
X145768814Y-156640007D01*
X145819642Y-156635001D01*
X145819652Y-156635001D01*
X145971709Y-156620025D01*
X146166807Y-156560842D01*
X146346611Y-156464735D01*
X146504210Y-156335397D01*
X146536621Y-156295904D01*
X146975532Y-155856993D01*
X154952612Y-155856993D01*
X155018137Y-156095860D01*
X155265116Y-156211760D01*
X155529960Y-156277250D01*
X155802492Y-156289812D01*
X156072238Y-156248965D01*
X156328832Y-156156277D01*
X156441863Y-156095860D01*
X156507388Y-155856993D01*
X155730000Y-155079605D01*
X154952612Y-155856993D01*
X146975532Y-155856993D01*
X147860033Y-154972492D01*
X154340188Y-154972492D01*
X154381035Y-155242238D01*
X154473723Y-155498832D01*
X154534140Y-155611863D01*
X154773007Y-155677388D01*
X155550395Y-154900000D01*
X154773007Y-154122612D01*
X154534140Y-154188137D01*
X154418240Y-154435116D01*
X154352750Y-154699960D01*
X154340188Y-154972492D01*
X147860033Y-154972492D01*
X148889518Y-153943007D01*
X154952612Y-153943007D01*
X155730000Y-154720395D01*
X156507388Y-153943007D01*
X156441863Y-153704140D01*
X156194884Y-153588240D01*
X155930040Y-153522750D01*
X155657508Y-153510188D01*
X155387762Y-153551035D01*
X155131168Y-153643723D01*
X155018137Y-153704140D01*
X154952612Y-153943007D01*
X148889518Y-153943007D01*
X150945898Y-151886628D01*
X150958207Y-151876526D01*
X151452598Y-152370917D01*
X151485006Y-152410406D01*
X151524494Y-152442813D01*
X151642604Y-152539744D01*
X151738711Y-152591114D01*
X151822409Y-152635851D01*
X152017507Y-152695034D01*
X152169564Y-152710010D01*
X152169567Y-152710010D01*
X152220402Y-152715017D01*
X152271237Y-152710010D01*
X161246300Y-152710010D01*
X162196209Y-153659920D01*
X162148815Y-153698815D01*
X162069463Y-153795506D01*
X162010498Y-153905820D01*
X161974188Y-154025518D01*
X161963555Y-154133483D01*
X161885799Y-154017114D01*
X161692886Y-153824201D01*
X161466043Y-153672629D01*
X161213989Y-153568225D01*
X160946411Y-153515000D01*
X160673589Y-153515000D01*
X160406011Y-153568225D01*
X160153957Y-153672629D01*
X159927114Y-153824201D01*
X159734201Y-154017114D01*
X159582629Y-154243957D01*
X159540000Y-154346873D01*
X159497371Y-154243957D01*
X159345799Y-154017114D01*
X159152886Y-153824201D01*
X158926043Y-153672629D01*
X158673989Y-153568225D01*
X158406411Y-153515000D01*
X158133589Y-153515000D01*
X157866011Y-153568225D01*
X157613957Y-153672629D01*
X157387114Y-153824201D01*
X157194201Y-154017114D01*
X157042629Y-154243957D01*
X157001489Y-154343279D01*
X156986277Y-154301168D01*
X156925860Y-154188137D01*
X156686993Y-154122612D01*
X155909605Y-154900000D01*
X156686993Y-155677388D01*
X156925860Y-155611863D01*
X157000164Y-155453523D01*
X157042629Y-155556043D01*
X157194201Y-155782886D01*
X157387114Y-155975799D01*
X157613957Y-156127371D01*
X157866011Y-156231775D01*
X158133589Y-156285000D01*
X158406411Y-156285000D01*
X158673989Y-156231775D01*
X158926043Y-156127371D01*
X159152886Y-155975799D01*
X159345799Y-155782886D01*
X159497371Y-155556043D01*
X159540000Y-155453127D01*
X159582629Y-155556043D01*
X159734201Y-155782886D01*
X159927114Y-155975799D01*
X160153957Y-156127371D01*
X160406011Y-156231775D01*
X160673589Y-156285000D01*
X160946411Y-156285000D01*
X161213989Y-156231775D01*
X161466043Y-156127371D01*
X161692886Y-155975799D01*
X161885799Y-155782886D01*
X161963555Y-155666517D01*
X161974188Y-155774482D01*
X162010498Y-155894180D01*
X162069463Y-156004494D01*
X162148815Y-156101185D01*
X162196209Y-156140080D01*
X160921290Y-157415000D01*
X71328711Y-157415000D01*
X70007807Y-156094097D01*
X69975396Y-156054604D01*
X69817797Y-155925266D01*
X69637993Y-155829159D01*
X69442895Y-155769976D01*
X69290838Y-155755000D01*
X69290828Y-155755000D01*
X69240000Y-155749994D01*
X69189172Y-155755000D01*
X64336097Y-155755000D01*
X64292537Y-155673506D01*
X64213185Y-155576815D01*
X64116494Y-155497463D01*
X64006180Y-155438498D01*
X63886482Y-155402188D01*
X63762000Y-155389928D01*
X63727206Y-155389928D01*
X63777388Y-155206993D01*
X63000000Y-154429605D01*
X62222612Y-155206993D01*
X62272794Y-155389928D01*
X62238000Y-155389928D01*
X62113518Y-155402188D01*
X61993820Y-155438498D01*
X61883506Y-155497463D01*
X61786815Y-155576815D01*
X61707463Y-155673506D01*
X61663903Y-155755000D01*
X58868711Y-155755000D01*
X57436203Y-154322492D01*
X61610188Y-154322492D01*
X61651035Y-154592238D01*
X61743723Y-154848832D01*
X61804140Y-154961863D01*
X62043007Y-155027388D01*
X62820395Y-154250000D01*
X63179605Y-154250000D01*
X63956993Y-155027388D01*
X64195860Y-154961863D01*
X64311760Y-154714884D01*
X64377250Y-154450040D01*
X64389812Y-154177508D01*
X64348965Y-153907762D01*
X64256277Y-153651168D01*
X64195860Y-153538137D01*
X63956993Y-153472612D01*
X63179605Y-154250000D01*
X62820395Y-154250000D01*
X62043007Y-153472612D01*
X61804140Y-153538137D01*
X61688240Y-153785116D01*
X61622750Y-154049960D01*
X61610188Y-154322492D01*
X57436203Y-154322492D01*
X56735000Y-153621290D01*
X56735000Y-123928710D01*
X60728711Y-119935000D01*
X67565740Y-119935000D01*
X67591998Y-119961258D01*
X67989804Y-120391050D01*
X68002508Y-120406529D01*
X68024326Y-120428347D01*
X68045270Y-120450975D01*
X68060237Y-120464258D01*
X69065000Y-121469022D01*
X69065001Y-134421288D01*
X68483790Y-135002500D01*
X67910561Y-135002500D01*
X67860443Y-135012469D01*
X67809605Y-135017476D01*
X67760723Y-135032304D01*
X67710602Y-135042274D01*
X67663387Y-135061831D01*
X67614507Y-135076659D01*
X67569458Y-135100738D01*
X67522244Y-135120295D01*
X67479754Y-135148686D01*
X67434703Y-135172766D01*
X67395216Y-135205172D01*
X67352726Y-135233563D01*
X67316592Y-135269697D01*
X67277104Y-135302104D01*
X67244697Y-135341592D01*
X67208563Y-135377726D01*
X67180172Y-135420216D01*
X67147766Y-135459703D01*
X67123686Y-135504754D01*
X67095295Y-135547244D01*
X67075738Y-135594458D01*
X67051659Y-135639507D01*
X67036831Y-135688387D01*
X67017274Y-135735602D01*
X67007304Y-135785723D01*
X66992476Y-135834605D01*
X66987469Y-135885443D01*
X66977500Y-135935561D01*
X66977500Y-135986662D01*
X66972493Y-136037500D01*
X66977500Y-136088338D01*
X66977500Y-136139439D01*
X66987469Y-136189557D01*
X66992476Y-136240395D01*
X67007304Y-136289277D01*
X67017274Y-136339398D01*
X67036831Y-136386613D01*
X67051659Y-136435493D01*
X67075738Y-136480542D01*
X67095295Y-136527756D01*
X67123686Y-136570246D01*
X67147766Y-136615297D01*
X67180172Y-136654784D01*
X67208563Y-136697274D01*
X67244697Y-136733408D01*
X67277104Y-136772896D01*
X67316592Y-136805303D01*
X67352726Y-136841437D01*
X67395216Y-136869828D01*
X67434703Y-136902234D01*
X67479754Y-136926314D01*
X67522244Y-136954705D01*
X67569458Y-136974262D01*
X67614507Y-136998341D01*
X67663387Y-137013169D01*
X67710602Y-137032726D01*
X67760723Y-137042696D01*
X67809605Y-137057524D01*
X67860443Y-137062531D01*
X67910561Y-137072500D01*
X68861672Y-137072500D01*
X68912500Y-137077506D01*
X68963328Y-137072500D01*
X68963338Y-137072500D01*
X69115395Y-137057524D01*
X69310493Y-136998341D01*
X69490297Y-136902234D01*
X69647896Y-136772896D01*
X69680307Y-136733403D01*
X70795908Y-135617803D01*
X70835396Y-135585396D01*
X70897962Y-135509159D01*
X70964734Y-135427798D01*
X71060841Y-135247994D01*
X71099578Y-135120295D01*
X71120024Y-135052895D01*
X71135000Y-134900838D01*
X71135000Y-134900835D01*
X71140007Y-134850000D01*
X71135000Y-134799165D01*
X71135000Y-121091138D01*
X71140006Y-121040310D01*
X71135000Y-120989482D01*
X71135000Y-120989473D01*
X71120024Y-120837416D01*
X71060841Y-120642318D01*
X70970804Y-120473870D01*
X70964734Y-120462513D01*
X70867803Y-120344403D01*
X70835396Y-120304915D01*
X70795908Y-120272508D01*
X70680597Y-120157198D01*
X70797335Y-120133977D01*
X71201215Y-119966684D01*
X71564697Y-119723813D01*
X71873813Y-119414697D01*
X72116684Y-119051215D01*
X72283977Y-118647335D01*
X72369262Y-118218578D01*
X72369262Y-117781422D01*
X72283977Y-117352665D01*
X72116684Y-116948785D01*
X71873813Y-116585303D01*
X71723510Y-116435000D01*
X80901232Y-116435000D01*
X80952060Y-116440006D01*
X81002888Y-116435000D01*
X81002898Y-116435000D01*
X81154955Y-116420024D01*
X81350053Y-116360841D01*
X81529857Y-116264734D01*
X81687456Y-116135396D01*
X81719867Y-116095903D01*
X82783770Y-115032000D01*
X108551928Y-115032000D01*
X108551928Y-117632000D01*
X108564188Y-117756482D01*
X108600498Y-117876180D01*
X108659463Y-117986494D01*
X108738815Y-118083185D01*
X108835506Y-118162537D01*
X108945820Y-118221502D01*
X109065518Y-118257812D01*
X109190000Y-118270072D01*
X111790000Y-118270072D01*
X111914482Y-118257812D01*
X112034180Y-118221502D01*
X112144494Y-118162537D01*
X112241185Y-118083185D01*
X112320537Y-117986494D01*
X112379502Y-117876180D01*
X112415812Y-117756482D01*
X112428072Y-117632000D01*
X112428072Y-116141419D01*
X113635000Y-116141419D01*
X113635000Y-116522581D01*
X113709361Y-116896419D01*
X113855225Y-117248566D01*
X114066987Y-117565491D01*
X114336509Y-117835013D01*
X114653434Y-118046775D01*
X115005581Y-118192639D01*
X115379419Y-118267000D01*
X115760581Y-118267000D01*
X116134419Y-118192639D01*
X116486566Y-118046775D01*
X116803491Y-117835013D01*
X117073013Y-117565491D01*
X117284775Y-117248566D01*
X117430639Y-116896419D01*
X117505000Y-116522581D01*
X117505000Y-116141419D01*
X117430639Y-115767581D01*
X117284775Y-115415434D01*
X117073013Y-115098509D01*
X116803491Y-114828987D01*
X116486566Y-114617225D01*
X116134419Y-114471361D01*
X115760581Y-114397000D01*
X115379419Y-114397000D01*
X115005581Y-114471361D01*
X114653434Y-114617225D01*
X114336509Y-114828987D01*
X114066987Y-115098509D01*
X113855225Y-115415434D01*
X113709361Y-115767581D01*
X113635000Y-116141419D01*
X112428072Y-116141419D01*
X112428072Y-115032000D01*
X112415812Y-114907518D01*
X112379502Y-114787820D01*
X112320537Y-114677506D01*
X112241185Y-114580815D01*
X112144494Y-114501463D01*
X112034180Y-114442498D01*
X111914482Y-114406188D01*
X111790000Y-114393928D01*
X109190000Y-114393928D01*
X109065518Y-114406188D01*
X108945820Y-114442498D01*
X108835506Y-114501463D01*
X108738815Y-114580815D01*
X108659463Y-114677506D01*
X108600498Y-114787820D01*
X108564188Y-114907518D01*
X108551928Y-115032000D01*
X82783770Y-115032000D01*
X85040441Y-112775329D01*
X100623284Y-112775329D01*
X100634020Y-112835550D01*
X100735431Y-113078090D01*
X100882210Y-113296185D01*
X101068717Y-113481455D01*
X101287785Y-113626779D01*
X101530995Y-113726572D01*
X101789000Y-113777000D01*
X102489000Y-113777000D01*
X102489000Y-112569000D01*
X102743000Y-112569000D01*
X102743000Y-113777000D01*
X103443000Y-113777000D01*
X103701005Y-113726572D01*
X103944215Y-113626779D01*
X104163283Y-113481455D01*
X104349790Y-113296185D01*
X104496569Y-113078090D01*
X104597980Y-112835550D01*
X104608716Y-112775329D01*
X104485374Y-112569000D01*
X102743000Y-112569000D01*
X102489000Y-112569000D01*
X100746626Y-112569000D01*
X100623284Y-112775329D01*
X85040441Y-112775329D01*
X85707099Y-112108671D01*
X100623284Y-112108671D01*
X100746626Y-112315000D01*
X102489000Y-112315000D01*
X102489000Y-111107000D01*
X102743000Y-111107000D01*
X102743000Y-112315000D01*
X104485374Y-112315000D01*
X104608716Y-112108671D01*
X104597980Y-112048450D01*
X104496569Y-111805910D01*
X104349790Y-111587815D01*
X104163283Y-111402545D01*
X103944215Y-111257221D01*
X103701005Y-111157428D01*
X103443000Y-111107000D01*
X102743000Y-111107000D01*
X102489000Y-111107000D01*
X101789000Y-111107000D01*
X101530995Y-111157428D01*
X101287785Y-111257221D01*
X101068717Y-111402545D01*
X100882210Y-111587815D01*
X100735431Y-111805910D01*
X100634020Y-112048450D01*
X100623284Y-112108671D01*
X85707099Y-112108671D01*
X88639349Y-109176421D01*
X103981000Y-109176421D01*
X103981000Y-110707578D01*
X104000317Y-110903705D01*
X104076653Y-111155353D01*
X104200618Y-111387274D01*
X104367445Y-111590555D01*
X104570725Y-111757382D01*
X104802646Y-111881347D01*
X105054294Y-111957683D01*
X105316000Y-111983459D01*
X105577705Y-111957683D01*
X105829353Y-111881347D01*
X106061274Y-111757382D01*
X106070269Y-111750000D01*
X120510928Y-111750000D01*
X120523188Y-111874482D01*
X120559498Y-111994180D01*
X120618463Y-112104494D01*
X120697815Y-112201185D01*
X120794506Y-112280537D01*
X120904820Y-112339502D01*
X121024518Y-112375812D01*
X121149000Y-112388072D01*
X121388250Y-112385000D01*
X121547000Y-112226250D01*
X121547000Y-111127000D01*
X120672750Y-111127000D01*
X120514000Y-111285750D01*
X120510928Y-111750000D01*
X106070269Y-111750000D01*
X106264555Y-111590555D01*
X106431382Y-111387275D01*
X106555347Y-111155354D01*
X106631683Y-110903706D01*
X106651000Y-110707579D01*
X106651000Y-110250000D01*
X120510928Y-110250000D01*
X120514000Y-110714250D01*
X120672750Y-110873000D01*
X121547000Y-110873000D01*
X121547000Y-109773750D01*
X121388250Y-109615000D01*
X121149000Y-109611928D01*
X121024518Y-109624188D01*
X120904820Y-109660498D01*
X120794506Y-109719463D01*
X120697815Y-109798815D01*
X120618463Y-109895506D01*
X120559498Y-110005820D01*
X120523188Y-110125518D01*
X120510928Y-110250000D01*
X106651000Y-110250000D01*
X106651000Y-109176421D01*
X106631683Y-108980294D01*
X106555347Y-108728646D01*
X106431382Y-108496725D01*
X106264555Y-108293445D01*
X106061275Y-108126618D01*
X105829354Y-108002653D01*
X105577706Y-107926317D01*
X105316000Y-107900541D01*
X105054295Y-107926317D01*
X104802647Y-108002653D01*
X104570726Y-108126618D01*
X104367446Y-108293445D01*
X104200619Y-108496725D01*
X104076654Y-108728646D01*
X104000317Y-108980294D01*
X103981000Y-109176421D01*
X88639349Y-109176421D01*
X90170000Y-107645771D01*
X90662137Y-108137908D01*
X90694544Y-108177396D01*
X90734032Y-108209803D01*
X90852142Y-108306734D01*
X90948249Y-108358104D01*
X91031947Y-108402841D01*
X91227045Y-108462024D01*
X91379102Y-108477000D01*
X91379111Y-108477000D01*
X91429939Y-108482006D01*
X91480767Y-108477000D01*
X101072779Y-108477000D01*
X101170725Y-108557382D01*
X101402646Y-108681347D01*
X101654294Y-108757683D01*
X101850421Y-108777000D01*
X103381579Y-108777000D01*
X103577706Y-108757683D01*
X103829354Y-108681347D01*
X104061275Y-108557382D01*
X104264555Y-108390555D01*
X104431382Y-108187275D01*
X104555347Y-107955354D01*
X104631683Y-107703706D01*
X104657459Y-107442000D01*
X104631683Y-107180294D01*
X104555347Y-106928646D01*
X104431382Y-106696725D01*
X104264555Y-106493445D01*
X104061275Y-106326618D01*
X103829354Y-106202653D01*
X103577706Y-106126317D01*
X103381579Y-106107000D01*
X101850421Y-106107000D01*
X101654294Y-106126317D01*
X101402646Y-106202653D01*
X101170725Y-106326618D01*
X101072779Y-106407000D01*
X91858651Y-106407000D01*
X91471782Y-106020132D01*
X91920060Y-106020132D01*
X92044542Y-106007872D01*
X92164240Y-105971562D01*
X92274554Y-105912597D01*
X92371245Y-105833245D01*
X92450597Y-105736554D01*
X92509562Y-105626240D01*
X92545872Y-105506542D01*
X92558132Y-105382060D01*
X92558132Y-103397092D01*
X92864940Y-103397092D01*
X92864940Y-103866908D01*
X92956597Y-104327696D01*
X93136387Y-104761749D01*
X93397403Y-105152387D01*
X93729613Y-105484597D01*
X94120251Y-105745613D01*
X94554304Y-105925403D01*
X95015092Y-106017060D01*
X95484908Y-106017060D01*
X95945696Y-105925403D01*
X96379749Y-105745613D01*
X96770387Y-105484597D01*
X97102597Y-105152387D01*
X97363613Y-104761749D01*
X97543403Y-104327696D01*
X97635060Y-103866908D01*
X97635060Y-103732413D01*
X106283146Y-103732413D01*
X106283146Y-104267587D01*
X106387553Y-104792477D01*
X106592355Y-105286913D01*
X106889681Y-105731894D01*
X107268106Y-106110319D01*
X107713087Y-106407645D01*
X108207523Y-106612447D01*
X108732413Y-106716854D01*
X109267587Y-106716854D01*
X109792477Y-106612447D01*
X110286913Y-106407645D01*
X110731894Y-106110319D01*
X111110319Y-105731894D01*
X111407645Y-105286913D01*
X111612447Y-104792477D01*
X111716854Y-104267587D01*
X111716854Y-103732413D01*
X111612447Y-103207523D01*
X111435951Y-102781422D01*
X162780738Y-102781422D01*
X162780738Y-103218578D01*
X162866023Y-103647335D01*
X163033316Y-104051215D01*
X163276187Y-104414697D01*
X163585303Y-104723813D01*
X163948785Y-104966684D01*
X164352665Y-105133977D01*
X164781422Y-105219262D01*
X165218578Y-105219262D01*
X165647335Y-105133977D01*
X166051215Y-104966684D01*
X166414697Y-104723813D01*
X166723813Y-104414697D01*
X166966684Y-104051215D01*
X167133977Y-103647335D01*
X167219262Y-103218578D01*
X167219262Y-102781422D01*
X167133977Y-102352665D01*
X166966684Y-101948785D01*
X166723813Y-101585303D01*
X166414697Y-101276187D01*
X166051215Y-101033316D01*
X165647335Y-100866023D01*
X165218578Y-100780738D01*
X164781422Y-100780738D01*
X164352665Y-100866023D01*
X163948785Y-101033316D01*
X163585303Y-101276187D01*
X163276187Y-101585303D01*
X163033316Y-101948785D01*
X162866023Y-102352665D01*
X162780738Y-102781422D01*
X111435951Y-102781422D01*
X111407645Y-102713087D01*
X111110319Y-102268106D01*
X110731894Y-101889681D01*
X110286913Y-101592355D01*
X109792477Y-101387553D01*
X109267587Y-101283146D01*
X108732413Y-101283146D01*
X108207523Y-101387553D01*
X107713087Y-101592355D01*
X107268106Y-101889681D01*
X106889681Y-102268106D01*
X106592355Y-102713087D01*
X106387553Y-103207523D01*
X106283146Y-103732413D01*
X97635060Y-103732413D01*
X97635060Y-103397092D01*
X97543403Y-102936304D01*
X97363613Y-102502251D01*
X97102597Y-102111613D01*
X96770387Y-101779403D01*
X96379749Y-101518387D01*
X95945696Y-101338597D01*
X95484908Y-101246940D01*
X95015092Y-101246940D01*
X94554304Y-101338597D01*
X94120251Y-101518387D01*
X93729613Y-101779403D01*
X93397403Y-102111613D01*
X93136387Y-102502251D01*
X92956597Y-102936304D01*
X92864940Y-103397092D01*
X92558132Y-103397092D01*
X92558132Y-101881940D01*
X92545872Y-101757458D01*
X92509562Y-101637760D01*
X92450597Y-101527446D01*
X92371245Y-101430755D01*
X92274554Y-101351403D01*
X92164240Y-101292438D01*
X92044542Y-101256128D01*
X91920060Y-101243868D01*
X88419940Y-101243868D01*
X88295458Y-101256128D01*
X88175760Y-101292438D01*
X88065446Y-101351403D01*
X87968755Y-101430755D01*
X87889403Y-101527446D01*
X87830438Y-101637760D01*
X87794128Y-101757458D01*
X87781868Y-101881940D01*
X87781868Y-105382060D01*
X87794128Y-105506542D01*
X87830438Y-105626240D01*
X87889403Y-105736554D01*
X87968755Y-105833245D01*
X88065446Y-105912597D01*
X88175760Y-105971562D01*
X88295458Y-106007872D01*
X88419940Y-106020132D01*
X88868217Y-106020132D01*
X80523350Y-114365000D01*
X65775981Y-114365000D01*
X65817185Y-114331185D01*
X65896537Y-114234494D01*
X65955502Y-114124180D01*
X65991812Y-114004482D01*
X66004072Y-113880000D01*
X66004072Y-112180000D01*
X65991812Y-112055518D01*
X65955502Y-111935820D01*
X65896537Y-111825506D01*
X65817185Y-111728815D01*
X65720494Y-111649463D01*
X65610180Y-111590498D01*
X65537620Y-111568487D01*
X65669475Y-111436632D01*
X65831990Y-111193411D01*
X65943932Y-110923158D01*
X66001000Y-110636260D01*
X66001000Y-110343740D01*
X65943932Y-110056842D01*
X65831990Y-109786589D01*
X65669475Y-109543368D01*
X65462632Y-109336525D01*
X65288240Y-109220000D01*
X65462632Y-109103475D01*
X65669475Y-108896632D01*
X65831990Y-108653411D01*
X65943932Y-108383158D01*
X66001000Y-108096260D01*
X66001000Y-107803740D01*
X65943932Y-107516842D01*
X65831990Y-107246589D01*
X65669475Y-107003368D01*
X65462632Y-106796525D01*
X65288240Y-106680000D01*
X65462632Y-106563475D01*
X65669475Y-106356632D01*
X65831990Y-106113411D01*
X65943932Y-105843158D01*
X66001000Y-105556260D01*
X66001000Y-105263740D01*
X65943932Y-104976842D01*
X65831990Y-104706589D01*
X65669475Y-104463368D01*
X65462632Y-104256525D01*
X65280466Y-104134805D01*
X65397355Y-104065178D01*
X65613588Y-103870269D01*
X65787641Y-103636920D01*
X65912825Y-103374099D01*
X65957476Y-103226890D01*
X65836155Y-102997000D01*
X64643000Y-102997000D01*
X64643000Y-103017000D01*
X64389000Y-103017000D01*
X64389000Y-102997000D01*
X63195845Y-102997000D01*
X63074524Y-103226890D01*
X63119175Y-103374099D01*
X63244359Y-103636920D01*
X63418412Y-103870269D01*
X63634645Y-104065178D01*
X63751534Y-104134805D01*
X63569368Y-104256525D01*
X63362525Y-104463368D01*
X63200010Y-104706589D01*
X63088068Y-104976842D01*
X63031000Y-105263740D01*
X63031000Y-105556260D01*
X63088068Y-105843158D01*
X63200010Y-106113411D01*
X63362525Y-106356632D01*
X63569368Y-106563475D01*
X63743760Y-106680000D01*
X63569368Y-106796525D01*
X63362525Y-107003368D01*
X63200010Y-107246589D01*
X63088068Y-107516842D01*
X63031000Y-107803740D01*
X63031000Y-108096260D01*
X63088068Y-108383158D01*
X63200010Y-108653411D01*
X63362525Y-108896632D01*
X63569368Y-109103475D01*
X63743760Y-109220000D01*
X63569368Y-109336525D01*
X63362525Y-109543368D01*
X63200010Y-109786589D01*
X63088068Y-110056842D01*
X63031000Y-110343740D01*
X63031000Y-110636260D01*
X63088068Y-110923158D01*
X63200010Y-111193411D01*
X63362525Y-111436632D01*
X63494380Y-111568487D01*
X63421820Y-111590498D01*
X63311506Y-111649463D01*
X63214815Y-111728815D01*
X63135463Y-111825506D01*
X63076498Y-111935820D01*
X63040188Y-112055518D01*
X63027928Y-112180000D01*
X63027928Y-113880000D01*
X63040188Y-114004482D01*
X63076498Y-114124180D01*
X63135463Y-114234494D01*
X63214815Y-114331185D01*
X63311506Y-114410537D01*
X63421820Y-114469502D01*
X63481000Y-114487454D01*
X63481000Y-114629172D01*
X63475994Y-114680000D01*
X63481000Y-114730828D01*
X63481000Y-114730837D01*
X63495976Y-114882894D01*
X63555159Y-115077992D01*
X63651266Y-115257797D01*
X63780604Y-115415396D01*
X63820097Y-115447807D01*
X64468197Y-116095908D01*
X64500604Y-116135396D01*
X64540092Y-116167803D01*
X64658202Y-116264734D01*
X64729036Y-116302595D01*
X64838007Y-116360841D01*
X65033105Y-116420024D01*
X65185162Y-116435000D01*
X65185165Y-116435000D01*
X65236000Y-116440007D01*
X65286835Y-116435000D01*
X68576490Y-116435000D01*
X68426187Y-116585303D01*
X68183316Y-116948785D01*
X68016023Y-117352665D01*
X67930738Y-117781422D01*
X67930738Y-117865000D01*
X60350827Y-117865000D01*
X60299999Y-117859994D01*
X60249171Y-117865000D01*
X60249162Y-117865000D01*
X60097105Y-117879976D01*
X59902007Y-117939159D01*
X59818309Y-117983896D01*
X59722202Y-118035266D01*
X59663813Y-118083185D01*
X59564604Y-118164604D01*
X59532197Y-118204092D01*
X55004092Y-122732197D01*
X54964605Y-122764604D01*
X54932198Y-122804092D01*
X54932197Y-122804093D01*
X54835266Y-122922203D01*
X54739160Y-123102007D01*
X54679977Y-123297105D01*
X54659994Y-123500000D01*
X54665001Y-123550838D01*
X54665000Y-153999172D01*
X54659994Y-154050000D01*
X54665000Y-154100828D01*
X54665000Y-154100837D01*
X54679976Y-154252894D01*
X54739159Y-154447992D01*
X54835266Y-154627797D01*
X54964604Y-154785396D01*
X55004097Y-154817807D01*
X57672196Y-157485907D01*
X57704604Y-157525396D01*
X57744092Y-157557803D01*
X57862202Y-157654734D01*
X57958309Y-157706104D01*
X58042007Y-157750841D01*
X58237105Y-157810024D01*
X58389162Y-157825000D01*
X58389171Y-157825000D01*
X58439999Y-157830006D01*
X58490827Y-157825000D01*
X61663903Y-157825000D01*
X61707463Y-157906494D01*
X61786815Y-158003185D01*
X61883506Y-158082537D01*
X61993820Y-158141502D01*
X62113518Y-158177812D01*
X62238000Y-158190072D01*
X63762000Y-158190072D01*
X63886482Y-158177812D01*
X64006180Y-158141502D01*
X64116494Y-158082537D01*
X64213185Y-158003185D01*
X64292537Y-157906494D01*
X64336097Y-157825000D01*
X68811290Y-157825000D01*
X70132197Y-159145908D01*
X70164604Y-159185396D01*
X70204092Y-159217803D01*
X70322202Y-159314734D01*
X70502006Y-159410841D01*
X70547415Y-159424615D01*
X70697105Y-159470024D01*
X70849162Y-159485000D01*
X70849165Y-159485000D01*
X70900000Y-159490007D01*
X70950835Y-159485000D01*
X161299172Y-159485000D01*
X161350000Y-159490006D01*
X161400828Y-159485000D01*
X161400838Y-159485000D01*
X161552895Y-159470024D01*
X161747993Y-159410841D01*
X161927797Y-159314734D01*
X162085396Y-159185396D01*
X162117807Y-159145903D01*
X164045908Y-157217803D01*
X164085396Y-157185396D01*
X164117803Y-157145908D01*
X164214734Y-157027798D01*
X164310840Y-156847994D01*
X164310841Y-156847993D01*
X164370024Y-156652895D01*
X164385000Y-156500838D01*
X164385000Y-156500829D01*
X164390006Y-156450001D01*
X164385000Y-156399173D01*
X164385000Y-156217683D01*
X164454494Y-156180537D01*
X164551185Y-156101185D01*
X164630537Y-156004494D01*
X164689502Y-155894180D01*
X164725812Y-155774482D01*
X164738072Y-155650000D01*
X164738072Y-154150000D01*
X164725812Y-154025518D01*
X164689502Y-153905820D01*
X164630537Y-153795506D01*
X164551185Y-153698815D01*
X164454494Y-153619463D01*
X164385000Y-153582317D01*
X164385000Y-153400835D01*
X164390007Y-153350000D01*
X164373782Y-153185266D01*
X164370024Y-153147105D01*
X164310841Y-152952007D01*
X164310841Y-152952006D01*
X164214734Y-152772202D01*
X164117803Y-152654092D01*
X164085396Y-152614604D01*
X164045908Y-152582197D01*
X163173710Y-151710000D01*
X167290000Y-151710000D01*
X167290001Y-167790000D01*
X50710000Y-167790000D01*
X50710000Y-165281422D01*
X50780738Y-165281422D01*
X50780738Y-165718578D01*
X50866023Y-166147335D01*
X51033316Y-166551215D01*
X51276187Y-166914697D01*
X51585303Y-167223813D01*
X51948785Y-167466684D01*
X52352665Y-167633977D01*
X52781422Y-167719262D01*
X53218578Y-167719262D01*
X53647335Y-167633977D01*
X54051215Y-167466684D01*
X54414697Y-167223813D01*
X54723813Y-166914697D01*
X54966684Y-166551215D01*
X55133977Y-166147335D01*
X55219262Y-165718578D01*
X55219262Y-165281422D01*
X162780738Y-165281422D01*
X162780738Y-165718578D01*
X162866023Y-166147335D01*
X163033316Y-166551215D01*
X163276187Y-166914697D01*
X163585303Y-167223813D01*
X163948785Y-167466684D01*
X164352665Y-167633977D01*
X164781422Y-167719262D01*
X165218578Y-167719262D01*
X165647335Y-167633977D01*
X166051215Y-167466684D01*
X166414697Y-167223813D01*
X166723813Y-166914697D01*
X166966684Y-166551215D01*
X167133977Y-166147335D01*
X167219262Y-165718578D01*
X167219262Y-165281422D01*
X167133977Y-164852665D01*
X166966684Y-164448785D01*
X166723813Y-164085303D01*
X166414697Y-163776187D01*
X166051215Y-163533316D01*
X165647335Y-163366023D01*
X165218578Y-163280738D01*
X164781422Y-163280738D01*
X164352665Y-163366023D01*
X163948785Y-163533316D01*
X163585303Y-163776187D01*
X163276187Y-164085303D01*
X163033316Y-164448785D01*
X162866023Y-164852665D01*
X162780738Y-165281422D01*
X55219262Y-165281422D01*
X55133977Y-164852665D01*
X54966684Y-164448785D01*
X54723813Y-164085303D01*
X54414697Y-163776187D01*
X54051215Y-163533316D01*
X53647335Y-163366023D01*
X53218578Y-163280738D01*
X52781422Y-163280738D01*
X52352665Y-163366023D01*
X51948785Y-163533316D01*
X51585303Y-163776187D01*
X51276187Y-164085303D01*
X51033316Y-164448785D01*
X50866023Y-164852665D01*
X50780738Y-165281422D01*
X50710000Y-165281422D01*
X50710000Y-161791422D01*
X67920738Y-161791422D01*
X67920738Y-162228578D01*
X68006023Y-162657335D01*
X68173316Y-163061215D01*
X68416187Y-163424697D01*
X68725303Y-163733813D01*
X69088785Y-163976684D01*
X69492665Y-164143977D01*
X69921422Y-164229262D01*
X70358578Y-164229262D01*
X70787335Y-164143977D01*
X71191215Y-163976684D01*
X71554697Y-163733813D01*
X71863813Y-163424697D01*
X72106684Y-163061215D01*
X72273977Y-162657335D01*
X72359262Y-162228578D01*
X72359262Y-161791422D01*
X72357273Y-161781422D01*
X143990738Y-161781422D01*
X143990738Y-162218578D01*
X144076023Y-162647335D01*
X144243316Y-163051215D01*
X144486187Y-163414697D01*
X144795303Y-163723813D01*
X145158785Y-163966684D01*
X145562665Y-164133977D01*
X145991422Y-164219262D01*
X146428578Y-164219262D01*
X146857335Y-164133977D01*
X147261215Y-163966684D01*
X147624697Y-163723813D01*
X147933813Y-163414697D01*
X148176684Y-163051215D01*
X148343977Y-162647335D01*
X148429262Y-162218578D01*
X148429262Y-161781422D01*
X148343977Y-161352665D01*
X148176684Y-160948785D01*
X147933813Y-160585303D01*
X147624697Y-160276187D01*
X147261215Y-160033316D01*
X146857335Y-159866023D01*
X146428578Y-159780738D01*
X145991422Y-159780738D01*
X145562665Y-159866023D01*
X145158785Y-160033316D01*
X144795303Y-160276187D01*
X144486187Y-160585303D01*
X144243316Y-160948785D01*
X144076023Y-161352665D01*
X143990738Y-161781422D01*
X72357273Y-161781422D01*
X72273977Y-161362665D01*
X72106684Y-160958785D01*
X71863813Y-160595303D01*
X71554697Y-160286187D01*
X71191215Y-160043316D01*
X70787335Y-159876023D01*
X70358578Y-159790738D01*
X69921422Y-159790738D01*
X69492665Y-159876023D01*
X69088785Y-160043316D01*
X68725303Y-160286187D01*
X68416187Y-160595303D01*
X68173316Y-160958785D01*
X68006023Y-161362665D01*
X67920738Y-161791422D01*
X50710000Y-161791422D01*
X50710000Y-102781422D01*
X50780738Y-102781422D01*
X50780738Y-103218578D01*
X50866023Y-103647335D01*
X51033316Y-104051215D01*
X51276187Y-104414697D01*
X51585303Y-104723813D01*
X51948785Y-104966684D01*
X52352665Y-105133977D01*
X52781422Y-105219262D01*
X53218578Y-105219262D01*
X53647335Y-105133977D01*
X54051215Y-104966684D01*
X54414697Y-104723813D01*
X54723813Y-104414697D01*
X54966684Y-104051215D01*
X55133977Y-103647335D01*
X55219262Y-103218578D01*
X55219262Y-102781422D01*
X55165892Y-102513110D01*
X63074524Y-102513110D01*
X63195845Y-102743000D01*
X64389000Y-102743000D01*
X64389000Y-101549186D01*
X64643000Y-101549186D01*
X64643000Y-102743000D01*
X65836155Y-102743000D01*
X65957476Y-102513110D01*
X65912825Y-102365901D01*
X65787641Y-102103080D01*
X65613588Y-101869731D01*
X65397355Y-101674822D01*
X65147252Y-101525843D01*
X64872891Y-101428519D01*
X64643000Y-101549186D01*
X64389000Y-101549186D01*
X64159109Y-101428519D01*
X63884748Y-101525843D01*
X63634645Y-101674822D01*
X63418412Y-101869731D01*
X63244359Y-102103080D01*
X63119175Y-102365901D01*
X63074524Y-102513110D01*
X55165892Y-102513110D01*
X55133977Y-102352665D01*
X54966684Y-101948785D01*
X54723813Y-101585303D01*
X54414697Y-101276187D01*
X54051215Y-101033316D01*
X53647335Y-100866023D01*
X53218578Y-100780738D01*
X52781422Y-100780738D01*
X52352665Y-100866023D01*
X51948785Y-101033316D01*
X51585303Y-101276187D01*
X51276187Y-101585303D01*
X51033316Y-101948785D01*
X50866023Y-102352665D01*
X50780738Y-102781422D01*
X50710000Y-102781422D01*
X50710000Y-100710000D01*
X167290000Y-100710000D01*
X167290001Y-121290000D01*
G37*
X167290001Y-121290000D02*
X152534877Y-121290000D01*
X152500000Y-121286565D01*
X152465123Y-121290000D01*
X152360816Y-121300273D01*
X152226980Y-121340872D01*
X152103637Y-121406800D01*
X151995525Y-121495525D01*
X151906800Y-121603637D01*
X151840872Y-121726980D01*
X151800273Y-121860816D01*
X151786565Y-122000000D01*
X151790000Y-122034877D01*
X151790000Y-127126289D01*
X142435133Y-117771422D01*
X143970738Y-117771422D01*
X143970738Y-118208578D01*
X144056023Y-118637335D01*
X144223316Y-119041215D01*
X144466187Y-119404697D01*
X144775303Y-119713813D01*
X145138785Y-119956684D01*
X145542665Y-120123977D01*
X145971422Y-120209262D01*
X146408578Y-120209262D01*
X146837335Y-120123977D01*
X147241215Y-119956684D01*
X147604697Y-119713813D01*
X147913813Y-119404697D01*
X148156684Y-119041215D01*
X148323977Y-118637335D01*
X148409262Y-118208578D01*
X148409262Y-117771422D01*
X148330491Y-117375413D01*
X155794192Y-117375413D01*
X155889956Y-117639814D01*
X156179571Y-117780704D01*
X156491108Y-117862384D01*
X156812595Y-117881718D01*
X157131675Y-117837961D01*
X157436088Y-117732795D01*
X157610044Y-117639814D01*
X157705808Y-117375413D01*
X162294192Y-117375413D01*
X162389956Y-117639814D01*
X162679571Y-117780704D01*
X162991108Y-117862384D01*
X163312595Y-117881718D01*
X163631675Y-117837961D01*
X163936088Y-117732795D01*
X164110044Y-117639814D01*
X164205808Y-117375413D01*
X163250000Y-116419605D01*
X162294192Y-117375413D01*
X157705808Y-117375413D01*
X156750000Y-116419605D01*
X155794192Y-117375413D01*
X148330491Y-117375413D01*
X148323977Y-117342665D01*
X148156684Y-116938785D01*
X147913813Y-116575303D01*
X147641105Y-116302595D01*
X155108282Y-116302595D01*
X155152039Y-116621675D01*
X155257205Y-116926088D01*
X155350186Y-117100044D01*
X155614587Y-117195808D01*
X156570395Y-116240000D01*
X156929605Y-116240000D01*
X157885413Y-117195808D01*
X158149814Y-117100044D01*
X158290704Y-116810429D01*
X158372384Y-116498892D01*
X158384189Y-116302595D01*
X161608282Y-116302595D01*
X161652039Y-116621675D01*
X161757205Y-116926088D01*
X161850186Y-117100044D01*
X162114587Y-117195808D01*
X163070395Y-116240000D01*
X163429605Y-116240000D01*
X164385413Y-117195808D01*
X164649814Y-117100044D01*
X164790704Y-116810429D01*
X164872384Y-116498892D01*
X164891718Y-116177405D01*
X164847961Y-115858325D01*
X164742795Y-115553912D01*
X164649814Y-115379956D01*
X164385413Y-115284192D01*
X163429605Y-116240000D01*
X163070395Y-116240000D01*
X162114587Y-115284192D01*
X161850186Y-115379956D01*
X161709296Y-115669571D01*
X161627616Y-115981108D01*
X161608282Y-116302595D01*
X158384189Y-116302595D01*
X158391718Y-116177405D01*
X158347961Y-115858325D01*
X158242795Y-115553912D01*
X158149814Y-115379956D01*
X157885413Y-115284192D01*
X156929605Y-116240000D01*
X156570395Y-116240000D01*
X155614587Y-115284192D01*
X155350186Y-115379956D01*
X155209296Y-115669571D01*
X155127616Y-115981108D01*
X155108282Y-116302595D01*
X147641105Y-116302595D01*
X147604697Y-116266187D01*
X147241215Y-116023316D01*
X146837335Y-115856023D01*
X146408578Y-115770738D01*
X145971422Y-115770738D01*
X145542665Y-115856023D01*
X145138785Y-116023316D01*
X144775303Y-116266187D01*
X144466187Y-116575303D01*
X144223316Y-116938785D01*
X144056023Y-117342665D01*
X143970738Y-117771422D01*
X142435133Y-117771422D01*
X139768298Y-115104587D01*
X155794192Y-115104587D01*
X156750000Y-116060395D01*
X157705808Y-115104587D01*
X162294192Y-115104587D01*
X163250000Y-116060395D01*
X164205808Y-115104587D01*
X164110044Y-114840186D01*
X163820429Y-114699296D01*
X163508892Y-114617616D01*
X163187405Y-114598282D01*
X162868325Y-114642039D01*
X162563912Y-114747205D01*
X162389956Y-114840186D01*
X162294192Y-115104587D01*
X157705808Y-115104587D01*
X157610044Y-114840186D01*
X157320429Y-114699296D01*
X157008892Y-114617616D01*
X156687405Y-114598282D01*
X156368325Y-114642039D01*
X156063912Y-114747205D01*
X155889956Y-114840186D01*
X155794192Y-115104587D01*
X139768298Y-115104587D01*
X137967807Y-113304097D01*
X137935396Y-113264604D01*
X137777797Y-113135266D01*
X137597993Y-113039159D01*
X137402895Y-112979976D01*
X137250838Y-112965000D01*
X137250828Y-112965000D01*
X137200000Y-112959994D01*
X137149172Y-112965000D01*
X126178711Y-112965000D01*
X125249000Y-112035290D01*
X125249000Y-111943488D01*
X125308520Y-111832134D01*
X125359768Y-111663193D01*
X125377072Y-111487500D01*
X125377072Y-110512500D01*
X125359768Y-110336807D01*
X125308520Y-110167866D01*
X125272245Y-110100000D01*
X127161928Y-110100000D01*
X127161928Y-111900000D01*
X127174188Y-112024482D01*
X127210498Y-112144180D01*
X127269463Y-112254494D01*
X127348815Y-112351185D01*
X127445506Y-112430537D01*
X127555820Y-112489502D01*
X127675518Y-112525812D01*
X127800000Y-112538072D01*
X129600000Y-112538072D01*
X129724482Y-112525812D01*
X129844180Y-112489502D01*
X129954494Y-112430537D01*
X130051185Y-112351185D01*
X130130537Y-112254494D01*
X130189502Y-112144180D01*
X130192813Y-112133265D01*
X130239578Y-112180030D01*
X130355526Y-112064082D01*
X130439208Y-112318261D01*
X130711775Y-112449158D01*
X131004642Y-112524365D01*
X131306553Y-112540991D01*
X131605907Y-112498397D01*
X131891199Y-112398222D01*
X132040792Y-112318261D01*
X132124475Y-112064080D01*
X131240000Y-111179605D01*
X131225858Y-111193748D01*
X131046253Y-111014143D01*
X131060395Y-111000000D01*
X131419605Y-111000000D01*
X132304080Y-111884475D01*
X132558261Y-111800792D01*
X132689158Y-111528225D01*
X132764365Y-111235358D01*
X132780991Y-110933447D01*
X132738397Y-110634093D01*
X132638222Y-110348801D01*
X132558261Y-110199208D01*
X132304080Y-110115525D01*
X131419605Y-111000000D01*
X131060395Y-111000000D01*
X131046253Y-110985858D01*
X131225858Y-110806253D01*
X131240000Y-110820395D01*
X131960395Y-110100000D01*
X134691928Y-110100000D01*
X134691928Y-111900000D01*
X134704188Y-112024482D01*
X134740498Y-112144180D01*
X134799463Y-112254494D01*
X134878815Y-112351185D01*
X134975506Y-112430537D01*
X135085820Y-112489502D01*
X135205518Y-112525812D01*
X135330000Y-112538072D01*
X137130000Y-112538072D01*
X137254482Y-112525812D01*
X137374180Y-112489502D01*
X137484494Y-112430537D01*
X137581185Y-112351185D01*
X137660537Y-112254494D01*
X137719502Y-112144180D01*
X137722813Y-112133265D01*
X137769578Y-112180030D01*
X137885526Y-112064082D01*
X137969208Y-112318261D01*
X138241775Y-112449158D01*
X138534642Y-112524365D01*
X138836553Y-112540991D01*
X139135907Y-112498397D01*
X139421199Y-112398222D01*
X139570792Y-112318261D01*
X139654475Y-112064080D01*
X138770000Y-111179605D01*
X138755858Y-111193748D01*
X138576253Y-111014143D01*
X138590395Y-111000000D01*
X138949605Y-111000000D01*
X139834080Y-111884475D01*
X140088261Y-111800792D01*
X140194789Y-111578967D01*
X155115000Y-111578967D01*
X155115000Y-111901033D01*
X155177832Y-112216912D01*
X155301082Y-112514463D01*
X155480013Y-112782252D01*
X155707748Y-113009987D01*
X155975537Y-113188918D01*
X156273088Y-113312168D01*
X156588967Y-113375000D01*
X156911033Y-113375000D01*
X157226912Y-113312168D01*
X157524463Y-113188918D01*
X157792252Y-113009987D01*
X158019987Y-112782252D01*
X158198918Y-112514463D01*
X158322168Y-112216912D01*
X158385000Y-111901033D01*
X158385000Y-111578967D01*
X161615000Y-111578967D01*
X161615000Y-111901033D01*
X161677832Y-112216912D01*
X161801082Y-112514463D01*
X161980013Y-112782252D01*
X162207748Y-113009987D01*
X162475537Y-113188918D01*
X162773088Y-113312168D01*
X163088967Y-113375000D01*
X163411033Y-113375000D01*
X163726912Y-113312168D01*
X164024463Y-113188918D01*
X164292252Y-113009987D01*
X164519987Y-112782252D01*
X164698918Y-112514463D01*
X164822168Y-112216912D01*
X164885000Y-111901033D01*
X164885000Y-111578967D01*
X164822168Y-111263088D01*
X164698918Y-110965537D01*
X164519987Y-110697748D01*
X164292252Y-110470013D01*
X164024463Y-110291082D01*
X163726912Y-110167832D01*
X163411033Y-110105000D01*
X163088967Y-110105000D01*
X162773088Y-110167832D01*
X162475537Y-110291082D01*
X162207748Y-110470013D01*
X161980013Y-110697748D01*
X161801082Y-110965537D01*
X161677832Y-111263088D01*
X161615000Y-111578967D01*
X158385000Y-111578967D01*
X158322168Y-111263088D01*
X158198918Y-110965537D01*
X158019987Y-110697748D01*
X157792252Y-110470013D01*
X157524463Y-110291082D01*
X157226912Y-110167832D01*
X156911033Y-110105000D01*
X156588967Y-110105000D01*
X156273088Y-110167832D01*
X155975537Y-110291082D01*
X155707748Y-110470013D01*
X155480013Y-110697748D01*
X155301082Y-110965537D01*
X155177832Y-111263088D01*
X155115000Y-111578967D01*
X140194789Y-111578967D01*
X140219158Y-111528225D01*
X140294365Y-111235358D01*
X140310991Y-110933447D01*
X140268397Y-110634093D01*
X140168222Y-110348801D01*
X140088261Y-110199208D01*
X139834080Y-110115525D01*
X138949605Y-111000000D01*
X138590395Y-111000000D01*
X138576253Y-110985858D01*
X138755858Y-110806253D01*
X138770000Y-110820395D01*
X139654475Y-109935920D01*
X139570792Y-109681739D01*
X139298225Y-109550842D01*
X139005358Y-109475635D01*
X138703447Y-109459009D01*
X138404093Y-109501603D01*
X138118801Y-109601778D01*
X137969208Y-109681739D01*
X137885526Y-109935918D01*
X137769578Y-109819970D01*
X137722813Y-109866735D01*
X137719502Y-109855820D01*
X137660537Y-109745506D01*
X137581185Y-109648815D01*
X137484494Y-109569463D01*
X137374180Y-109510498D01*
X137254482Y-109474188D01*
X137130000Y-109461928D01*
X135330000Y-109461928D01*
X135205518Y-109474188D01*
X135085820Y-109510498D01*
X134975506Y-109569463D01*
X134878815Y-109648815D01*
X134799463Y-109745506D01*
X134740498Y-109855820D01*
X134704188Y-109975518D01*
X134691928Y-110100000D01*
X131960395Y-110100000D01*
X132124475Y-109935920D01*
X132040792Y-109681739D01*
X131768225Y-109550842D01*
X131475358Y-109475635D01*
X131173447Y-109459009D01*
X130874093Y-109501603D01*
X130588801Y-109601778D01*
X130439208Y-109681739D01*
X130355526Y-109935918D01*
X130239578Y-109819970D01*
X130192813Y-109866735D01*
X130189502Y-109855820D01*
X130130537Y-109745506D01*
X130051185Y-109648815D01*
X129954494Y-109569463D01*
X129844180Y-109510498D01*
X129724482Y-109474188D01*
X129600000Y-109461928D01*
X127800000Y-109461928D01*
X127675518Y-109474188D01*
X127555820Y-109510498D01*
X127445506Y-109569463D01*
X127348815Y-109648815D01*
X127269463Y-109745506D01*
X127210498Y-109855820D01*
X127174188Y-109975518D01*
X127161928Y-110100000D01*
X125272245Y-110100000D01*
X125225298Y-110012169D01*
X125113301Y-109875699D01*
X124976831Y-109763702D01*
X124821134Y-109680480D01*
X124652193Y-109629232D01*
X124476500Y-109611928D01*
X123951500Y-109611928D01*
X123775807Y-109629232D01*
X123606866Y-109680480D01*
X123579000Y-109695375D01*
X123551134Y-109680480D01*
X123382193Y-109629232D01*
X123206500Y-109611928D01*
X122681500Y-109611928D01*
X122505807Y-109629232D01*
X122422959Y-109654364D01*
X122323482Y-109624188D01*
X122199000Y-109611928D01*
X121959750Y-109615000D01*
X121801000Y-109773750D01*
X121801000Y-110327682D01*
X121798232Y-110336807D01*
X121780928Y-110512500D01*
X121780928Y-111487500D01*
X121798232Y-111663193D01*
X121801000Y-111672318D01*
X121801000Y-112226250D01*
X121959750Y-112385000D01*
X122199000Y-112388072D01*
X122323482Y-112375812D01*
X122422959Y-112345636D01*
X122505807Y-112370768D01*
X122681500Y-112388072D01*
X123179000Y-112388072D01*
X123179000Y-112413172D01*
X123173994Y-112464000D01*
X123179000Y-112514828D01*
X123179000Y-112514837D01*
X123193976Y-112666894D01*
X123253159Y-112861992D01*
X123349266Y-113041797D01*
X123478604Y-113199396D01*
X123518097Y-113231807D01*
X124982196Y-114695907D01*
X125014604Y-114735396D01*
X125054092Y-114767803D01*
X125172202Y-114864734D01*
X125252246Y-114907518D01*
X125352007Y-114960841D01*
X125547105Y-115020024D01*
X125699162Y-115035000D01*
X125699171Y-115035000D01*
X125749999Y-115040006D01*
X125800827Y-115035000D01*
X136771290Y-115035000D01*
X150215001Y-128478712D01*
X150215001Y-136151290D01*
X149837807Y-135774097D01*
X149805396Y-135734604D01*
X149647797Y-135605266D01*
X149467993Y-135509159D01*
X149272895Y-135449976D01*
X149120838Y-135435000D01*
X149120828Y-135435000D01*
X149070000Y-135429994D01*
X149019172Y-135435000D01*
X148251685Y-135435000D01*
X148210886Y-135394201D01*
X147984043Y-135242629D01*
X147731989Y-135138225D01*
X147464411Y-135085000D01*
X147191589Y-135085000D01*
X146924011Y-135138225D01*
X146671957Y-135242629D01*
X146445114Y-135394201D01*
X146252201Y-135587114D01*
X146100629Y-135813957D01*
X145996225Y-136066011D01*
X145943000Y-136333589D01*
X145943000Y-136606411D01*
X145996225Y-136873989D01*
X146100629Y-137126043D01*
X146252201Y-137352886D01*
X146445114Y-137545799D01*
X146671957Y-137697371D01*
X146774873Y-137740000D01*
X146671957Y-137782629D01*
X146445114Y-137934201D01*
X146404315Y-137975000D01*
X124790827Y-137975000D01*
X124739999Y-137969994D01*
X124689171Y-137975000D01*
X124689162Y-137975000D01*
X124537105Y-137989976D01*
X124342007Y-138049159D01*
X124258309Y-138093896D01*
X124162202Y-138145266D01*
X124061651Y-138227787D01*
X124004604Y-138274604D01*
X123972197Y-138314092D01*
X119071280Y-143215010D01*
X93598700Y-143215010D01*
X94717803Y-142095908D01*
X94753937Y-142059774D01*
X94782325Y-142017288D01*
X94814734Y-141977798D01*
X94838816Y-141932744D01*
X94867205Y-141890256D01*
X94886762Y-141843041D01*
X94910840Y-141797994D01*
X94925666Y-141749119D01*
X94945226Y-141701898D01*
X94955197Y-141651771D01*
X94970023Y-141602896D01*
X94975029Y-141552066D01*
X94985000Y-141501939D01*
X94985000Y-141450829D01*
X94990006Y-141400001D01*
X94985000Y-141349173D01*
X94985000Y-141298061D01*
X94975029Y-141247933D01*
X94970023Y-141197105D01*
X94955197Y-141148232D01*
X94945226Y-141098102D01*
X94925665Y-141050878D01*
X94910840Y-141002007D01*
X94886764Y-140956964D01*
X94867205Y-140909744D01*
X94838813Y-140867252D01*
X94814734Y-140822203D01*
X94782330Y-140782719D01*
X94753937Y-140740226D01*
X94717795Y-140704084D01*
X94685395Y-140664605D01*
X94645916Y-140632205D01*
X94609774Y-140596063D01*
X94567281Y-140567670D01*
X94527797Y-140535266D01*
X94482748Y-140511187D01*
X94440256Y-140482795D01*
X94393036Y-140463236D01*
X94347993Y-140439160D01*
X94299122Y-140424335D01*
X94251898Y-140404774D01*
X94201768Y-140394803D01*
X94152895Y-140379977D01*
X94102067Y-140374971D01*
X94051939Y-140365000D01*
X94000827Y-140365000D01*
X93949999Y-140359994D01*
X93899171Y-140365000D01*
X93848061Y-140365000D01*
X93797934Y-140374971D01*
X93747104Y-140379977D01*
X93698229Y-140394803D01*
X93648102Y-140404774D01*
X93600881Y-140424334D01*
X93552006Y-140439160D01*
X93506959Y-140463238D01*
X93459744Y-140482795D01*
X93417256Y-140511184D01*
X93372202Y-140535266D01*
X93332712Y-140567675D01*
X93290226Y-140596063D01*
X93254092Y-140632197D01*
X91671290Y-142215000D01*
X68970827Y-142215000D01*
X68919999Y-142209994D01*
X68869171Y-142215000D01*
X68869162Y-142215000D01*
X68717105Y-142229976D01*
X68522007Y-142289159D01*
X68438309Y-142333896D01*
X68342202Y-142385266D01*
X68224092Y-142482197D01*
X68184604Y-142514604D01*
X68152197Y-142554092D01*
X64356414Y-146349876D01*
X64331775Y-146226011D01*
X64227371Y-145973957D01*
X64075799Y-145747114D01*
X63882886Y-145554201D01*
X63656043Y-145402629D01*
X63553127Y-145360000D01*
X63656043Y-145317371D01*
X63882886Y-145165799D01*
X64075799Y-144972886D01*
X64227371Y-144746043D01*
X64331775Y-144493989D01*
X64385000Y-144226411D01*
X64385000Y-143953589D01*
X64331775Y-143686011D01*
X64227371Y-143433957D01*
X64075799Y-143207114D01*
X63882886Y-143014201D01*
X63656043Y-142862629D01*
X63553127Y-142820000D01*
X63656043Y-142777371D01*
X63882886Y-142625799D01*
X64075799Y-142432886D01*
X64227371Y-142206043D01*
X64331775Y-141953989D01*
X64385000Y-141686411D01*
X64385000Y-141413589D01*
X64331775Y-141146011D01*
X64227371Y-140893957D01*
X64075799Y-140667114D01*
X63882886Y-140474201D01*
X63656043Y-140322629D01*
X63553127Y-140280000D01*
X63656043Y-140237371D01*
X63882886Y-140085799D01*
X64075799Y-139892886D01*
X64227371Y-139666043D01*
X64331775Y-139413989D01*
X64385000Y-139146411D01*
X64385000Y-138873589D01*
X64331775Y-138606011D01*
X64227371Y-138353957D01*
X64075799Y-138127114D01*
X63882886Y-137934201D01*
X63656043Y-137782629D01*
X63553127Y-137740000D01*
X63656043Y-137697371D01*
X63882886Y-137545799D01*
X64075799Y-137352886D01*
X64227371Y-137126043D01*
X64331775Y-136873989D01*
X64385000Y-136606411D01*
X64385000Y-136333589D01*
X64331775Y-136066011D01*
X64227371Y-135813957D01*
X64075799Y-135587114D01*
X63882886Y-135394201D01*
X63656043Y-135242629D01*
X63553127Y-135200000D01*
X63656043Y-135157371D01*
X63882886Y-135005799D01*
X64075799Y-134812886D01*
X64227371Y-134586043D01*
X64331775Y-134333989D01*
X64385000Y-134066411D01*
X64385000Y-133793589D01*
X64331775Y-133526011D01*
X64227371Y-133273957D01*
X64075799Y-133047114D01*
X63882886Y-132854201D01*
X63656043Y-132702629D01*
X63553127Y-132660000D01*
X63656043Y-132617371D01*
X63882886Y-132465799D01*
X64075799Y-132272886D01*
X64227371Y-132046043D01*
X64331775Y-131793989D01*
X64385000Y-131526411D01*
X64385000Y-131253589D01*
X64331775Y-130986011D01*
X64227371Y-130733957D01*
X64075799Y-130507114D01*
X63882886Y-130314201D01*
X63656043Y-130162629D01*
X63553127Y-130120000D01*
X63656043Y-130077371D01*
X63882886Y-129925799D01*
X64075799Y-129732886D01*
X64227371Y-129506043D01*
X64331775Y-129253989D01*
X64385000Y-128986411D01*
X64385000Y-128713589D01*
X64331775Y-128446011D01*
X64227371Y-128193957D01*
X64075799Y-127967114D01*
X63882886Y-127774201D01*
X63656043Y-127622629D01*
X63553127Y-127580000D01*
X63656043Y-127537371D01*
X63882886Y-127385799D01*
X64075799Y-127192886D01*
X64227371Y-126966043D01*
X64331775Y-126713989D01*
X64385000Y-126446411D01*
X64385000Y-126173589D01*
X64331775Y-125906011D01*
X64227371Y-125653957D01*
X64075799Y-125427114D01*
X63882886Y-125234201D01*
X63656043Y-125082629D01*
X63553127Y-125040000D01*
X63656043Y-124997371D01*
X63882886Y-124845799D01*
X64075799Y-124652886D01*
X64227371Y-124426043D01*
X64331775Y-124173989D01*
X64385000Y-123906411D01*
X64385000Y-123633589D01*
X64331775Y-123366011D01*
X64227371Y-123113957D01*
X64075799Y-122887114D01*
X63882886Y-122694201D01*
X63656043Y-122542629D01*
X63403989Y-122438225D01*
X63136411Y-122385000D01*
X62863589Y-122385000D01*
X62596011Y-122438225D01*
X62343957Y-122542629D01*
X62117114Y-122694201D01*
X61924201Y-122887114D01*
X61772629Y-123113957D01*
X61668225Y-123366011D01*
X61615000Y-123633589D01*
X61615000Y-123906411D01*
X61668225Y-124173989D01*
X61772629Y-124426043D01*
X61924201Y-124652886D01*
X62117114Y-124845799D01*
X62343957Y-124997371D01*
X62446873Y-125040000D01*
X62343957Y-125082629D01*
X62117114Y-125234201D01*
X61924201Y-125427114D01*
X61772629Y-125653957D01*
X61668225Y-125906011D01*
X61615000Y-126173589D01*
X61615000Y-126446411D01*
X61668225Y-126713989D01*
X61772629Y-126966043D01*
X61924201Y-127192886D01*
X62117114Y-127385799D01*
X62343957Y-127537371D01*
X62446873Y-127580000D01*
X62343957Y-127622629D01*
X62117114Y-127774201D01*
X61924201Y-127967114D01*
X61772629Y-128193957D01*
X61668225Y-128446011D01*
X61615000Y-128713589D01*
X61615000Y-128986411D01*
X61668225Y-129253989D01*
X61772629Y-129506043D01*
X61924201Y-129732886D01*
X62117114Y-129925799D01*
X62343957Y-130077371D01*
X62446873Y-130120000D01*
X62343957Y-130162629D01*
X62117114Y-130314201D01*
X61924201Y-130507114D01*
X61772629Y-130733957D01*
X61668225Y-130986011D01*
X61615000Y-131253589D01*
X61615000Y-131526411D01*
X61668225Y-131793989D01*
X61772629Y-132046043D01*
X61924201Y-132272886D01*
X62117114Y-132465799D01*
X62343957Y-132617371D01*
X62446873Y-132660000D01*
X62343957Y-132702629D01*
X62117114Y-132854201D01*
X61924201Y-133047114D01*
X61772629Y-133273957D01*
X61668225Y-133526011D01*
X61615000Y-133793589D01*
X61615000Y-134066411D01*
X61668225Y-134333989D01*
X61772629Y-134586043D01*
X61924201Y-134812886D01*
X62117114Y-135005799D01*
X62343957Y-135157371D01*
X62446873Y-135200000D01*
X62343957Y-135242629D01*
X62117114Y-135394201D01*
X61924201Y-135587114D01*
X61772629Y-135813957D01*
X61668225Y-136066011D01*
X61615000Y-136333589D01*
X61615000Y-136606411D01*
X61668225Y-136873989D01*
X61772629Y-137126043D01*
X61924201Y-137352886D01*
X62117114Y-137545799D01*
X62343957Y-137697371D01*
X62446873Y-137740000D01*
X62343957Y-137782629D01*
X62117114Y-137934201D01*
X61924201Y-138127114D01*
X61772629Y-138353957D01*
X61668225Y-138606011D01*
X61615000Y-138873589D01*
X61615000Y-139146411D01*
X61668225Y-139413989D01*
X61772629Y-139666043D01*
X61924201Y-139892886D01*
X62117114Y-140085799D01*
X62343957Y-140237371D01*
X62446873Y-140280000D01*
X62343957Y-140322629D01*
X62117114Y-140474201D01*
X61924201Y-140667114D01*
X61772629Y-140893957D01*
X61668225Y-141146011D01*
X61615000Y-141413589D01*
X61615000Y-141686411D01*
X61668225Y-141953989D01*
X61772629Y-142206043D01*
X61924201Y-142432886D01*
X62117114Y-142625799D01*
X62343957Y-142777371D01*
X62446873Y-142820000D01*
X62343957Y-142862629D01*
X62117114Y-143014201D01*
X61924201Y-143207114D01*
X61772629Y-143433957D01*
X61668225Y-143686011D01*
X61615000Y-143953589D01*
X61615000Y-144226411D01*
X61668225Y-144493989D01*
X61772629Y-144746043D01*
X61924201Y-144972886D01*
X62117114Y-145165799D01*
X62343957Y-145317371D01*
X62446873Y-145360000D01*
X62343957Y-145402629D01*
X62117114Y-145554201D01*
X61924201Y-145747114D01*
X61772629Y-145973957D01*
X61668225Y-146226011D01*
X61615000Y-146493589D01*
X61615000Y-146766411D01*
X61668225Y-147033989D01*
X61772629Y-147286043D01*
X61924201Y-147512886D01*
X62117114Y-147705799D01*
X62343957Y-147857371D01*
X62446873Y-147900000D01*
X62343957Y-147942629D01*
X62117114Y-148094201D01*
X61924201Y-148287114D01*
X61772629Y-148513957D01*
X61668225Y-148766011D01*
X61615000Y-149033589D01*
X61615000Y-149306411D01*
X61668225Y-149573989D01*
X61772629Y-149826043D01*
X61924201Y-150052886D01*
X62117114Y-150245799D01*
X62343957Y-150397371D01*
X62446873Y-150440000D01*
X62343957Y-150482629D01*
X62117114Y-150634201D01*
X61924201Y-150827114D01*
X61772629Y-151053957D01*
X61668225Y-151306011D01*
X61615000Y-151573589D01*
X61615000Y-151846411D01*
X61668225Y-152113989D01*
X61772629Y-152366043D01*
X61924201Y-152592886D01*
X62117114Y-152785799D01*
X62343957Y-152937371D01*
X62443279Y-152978511D01*
X62401168Y-152993723D01*
X62288137Y-153054140D01*
X62222612Y-153293007D01*
X63000000Y-154070395D01*
X63777388Y-153293007D01*
X63711863Y-153054140D01*
X63553523Y-152979836D01*
X63656043Y-152937371D01*
X63882886Y-152785799D01*
X64075799Y-152592886D01*
X64227371Y-152366043D01*
X64331775Y-152113989D01*
X64385000Y-151846411D01*
X64385000Y-151573589D01*
X64331775Y-151306011D01*
X64227371Y-151053957D01*
X64075799Y-150827114D01*
X63882886Y-150634201D01*
X63656043Y-150482629D01*
X63553127Y-150440000D01*
X63656043Y-150397371D01*
X63882886Y-150245799D01*
X64075799Y-150052886D01*
X64227371Y-149826043D01*
X64331775Y-149573989D01*
X64385000Y-149306411D01*
X64385000Y-149248710D01*
X69348711Y-144285000D01*
X81201299Y-144285000D01*
X76971300Y-148515000D01*
X69998061Y-148515000D01*
X69947943Y-148524969D01*
X69897105Y-148529976D01*
X69848223Y-148544804D01*
X69798102Y-148554774D01*
X69750887Y-148574331D01*
X69702007Y-148589159D01*
X69656958Y-148613238D01*
X69609744Y-148632795D01*
X69567254Y-148661186D01*
X69522203Y-148685266D01*
X69482716Y-148717672D01*
X69440226Y-148746063D01*
X69404092Y-148782197D01*
X69364604Y-148814604D01*
X69332197Y-148854092D01*
X69296063Y-148890226D01*
X69267672Y-148932716D01*
X69235266Y-148972203D01*
X69211186Y-149017254D01*
X69182795Y-149059744D01*
X69163238Y-149106958D01*
X69139159Y-149152007D01*
X69124331Y-149200887D01*
X69104774Y-149248102D01*
X69094804Y-149298223D01*
X69079976Y-149347105D01*
X69074969Y-149397943D01*
X69065000Y-149448061D01*
X69065000Y-149499162D01*
X69059993Y-149550000D01*
X69065000Y-149600838D01*
X69065000Y-149651939D01*
X69074969Y-149702057D01*
X69079976Y-149752895D01*
X69094804Y-149801777D01*
X69104774Y-149851898D01*
X69124331Y-149899113D01*
X69139159Y-149947993D01*
X69163238Y-149993042D01*
X69182795Y-150040256D01*
X69211186Y-150082746D01*
X69235266Y-150127797D01*
X69267672Y-150167284D01*
X69296063Y-150209774D01*
X69332197Y-150245908D01*
X69364604Y-150285396D01*
X69404092Y-150317803D01*
X69418206Y-150331917D01*
X69417672Y-150332716D01*
X69385266Y-150372203D01*
X69361186Y-150417254D01*
X69332795Y-150459744D01*
X69313238Y-150506958D01*
X69289159Y-150552007D01*
X69274331Y-150600887D01*
X69254774Y-150648102D01*
X69244804Y-150698223D01*
X69229976Y-150747105D01*
X69224969Y-150797943D01*
X69215000Y-150848061D01*
X69215000Y-150899162D01*
X69209993Y-150950000D01*
X69215000Y-151000838D01*
X69215000Y-151051939D01*
X69224969Y-151102057D01*
X69229976Y-151152895D01*
X69244804Y-151201777D01*
X69254774Y-151251898D01*
X69274331Y-151299113D01*
X69289159Y-151347993D01*
X69313238Y-151393042D01*
X69332795Y-151440256D01*
X69361186Y-151482746D01*
X69385266Y-151527797D01*
X69417672Y-151567284D01*
X69446063Y-151609774D01*
X69482197Y-151645908D01*
X69514604Y-151685396D01*
X69554092Y-151717803D01*
X69590226Y-151753937D01*
X69632716Y-151782328D01*
X69672203Y-151814734D01*
X69717254Y-151838814D01*
X69759744Y-151867205D01*
X69806958Y-151886762D01*
X69852007Y-151910841D01*
X69900887Y-151925669D01*
X69948102Y-151945226D01*
X69998223Y-151955196D01*
X70047105Y-151970024D01*
X70097943Y-151975031D01*
X70148061Y-151985000D01*
X120249172Y-151985000D01*
X120300000Y-151990006D01*
X120350828Y-151985000D01*
X120350838Y-151985000D01*
X120502895Y-151970024D01*
X120697993Y-151910841D01*
X120877797Y-151814734D01*
X121035396Y-151685396D01*
X121067807Y-151645903D01*
X127588711Y-145125000D01*
X145982317Y-145125000D01*
X146019463Y-145194494D01*
X146098815Y-145291185D01*
X146195506Y-145370537D01*
X146305820Y-145429502D01*
X146425518Y-145465812D01*
X146550000Y-145478072D01*
X148050000Y-145478072D01*
X148174482Y-145465812D01*
X148214981Y-145453527D01*
X148214980Y-150221309D01*
X144871290Y-153565000D01*
X86393061Y-153565000D01*
X86342943Y-153574969D01*
X86292105Y-153579976D01*
X86243223Y-153594804D01*
X86193102Y-153604774D01*
X86145887Y-153624331D01*
X86097007Y-153639159D01*
X86051958Y-153663238D01*
X86004744Y-153682795D01*
X85962254Y-153711186D01*
X85917203Y-153735266D01*
X85877716Y-153767672D01*
X85835226Y-153796063D01*
X85799092Y-153832197D01*
X85759604Y-153864604D01*
X85727197Y-153904092D01*
X85691063Y-153940226D01*
X85662672Y-153982716D01*
X85630266Y-154022203D01*
X85606186Y-154067254D01*
X85577795Y-154109744D01*
X85558238Y-154156958D01*
X85534159Y-154202007D01*
X85519331Y-154250887D01*
X85499774Y-154298102D01*
X85489804Y-154348223D01*
X85474976Y-154397105D01*
X85469969Y-154447943D01*
X85460000Y-154498061D01*
X85460000Y-154549162D01*
X85458440Y-154565001D01*
X78683711Y-154565001D01*
X78408939Y-154290229D01*
X78408937Y-154290226D01*
X78264774Y-154146063D01*
X78222283Y-154117671D01*
X78182797Y-154085266D01*
X78137748Y-154061187D01*
X78095256Y-154032795D01*
X78048036Y-154013236D01*
X78002993Y-153989160D01*
X77954122Y-153974335D01*
X77906898Y-153954774D01*
X77856768Y-153944803D01*
X77807895Y-153929977D01*
X77757067Y-153924971D01*
X77706939Y-153915000D01*
X77655828Y-153915000D01*
X77605000Y-153909994D01*
X77554172Y-153915000D01*
X77503061Y-153915000D01*
X77452933Y-153924971D01*
X77402105Y-153929977D01*
X77353232Y-153944803D01*
X77303102Y-153954774D01*
X77255878Y-153974335D01*
X77207007Y-153989160D01*
X77161964Y-154013236D01*
X77114744Y-154032795D01*
X77072252Y-154061187D01*
X77027203Y-154085266D01*
X76987716Y-154117672D01*
X76945226Y-154146063D01*
X76909092Y-154182197D01*
X76869604Y-154214604D01*
X76837197Y-154254092D01*
X76801063Y-154290226D01*
X76772672Y-154332716D01*
X76740266Y-154372203D01*
X76716187Y-154417252D01*
X76687795Y-154459744D01*
X76668236Y-154506964D01*
X76644160Y-154552007D01*
X76629335Y-154600878D01*
X76609774Y-154648102D01*
X76599803Y-154698232D01*
X76584977Y-154747105D01*
X76579971Y-154797933D01*
X76570000Y-154848061D01*
X76570000Y-154899172D01*
X76564994Y-154950000D01*
X76570000Y-155000828D01*
X76570000Y-155051939D01*
X76579971Y-155102067D01*
X76584977Y-155152895D01*
X76599803Y-155201768D01*
X76609774Y-155251898D01*
X76629335Y-155299122D01*
X76644160Y-155347993D01*
X76668236Y-155393036D01*
X76687795Y-155440256D01*
X76716187Y-155482748D01*
X76740266Y-155527797D01*
X76772671Y-155567283D01*
X76801063Y-155609774D01*
X76945226Y-155753937D01*
X76945229Y-155753939D01*
X77487194Y-156295904D01*
X77519605Y-156335397D01*
X77588585Y-156392007D01*
X77677203Y-156464735D01*
X77744748Y-156500838D01*
X77857008Y-156560842D01*
X78052106Y-156620025D01*
X78204163Y-156635001D01*
X78204172Y-156635001D01*
X78255000Y-156640007D01*
X78305828Y-156635001D01*
X145717986Y-156635001D01*
X145768814Y-156640007D01*
X145819642Y-156635001D01*
X145819652Y-156635001D01*
X145971709Y-156620025D01*
X146166807Y-156560842D01*
X146346611Y-156464735D01*
X146504210Y-156335397D01*
X146536621Y-156295904D01*
X146975532Y-155856993D01*
X154952612Y-155856993D01*
X155018137Y-156095860D01*
X155265116Y-156211760D01*
X155529960Y-156277250D01*
X155802492Y-156289812D01*
X156072238Y-156248965D01*
X156328832Y-156156277D01*
X156441863Y-156095860D01*
X156507388Y-155856993D01*
X155730000Y-155079605D01*
X154952612Y-155856993D01*
X146975532Y-155856993D01*
X147860033Y-154972492D01*
X154340188Y-154972492D01*
X154381035Y-155242238D01*
X154473723Y-155498832D01*
X154534140Y-155611863D01*
X154773007Y-155677388D01*
X155550395Y-154900000D01*
X154773007Y-154122612D01*
X154534140Y-154188137D01*
X154418240Y-154435116D01*
X154352750Y-154699960D01*
X154340188Y-154972492D01*
X147860033Y-154972492D01*
X148889518Y-153943007D01*
X154952612Y-153943007D01*
X155730000Y-154720395D01*
X156507388Y-153943007D01*
X156441863Y-153704140D01*
X156194884Y-153588240D01*
X155930040Y-153522750D01*
X155657508Y-153510188D01*
X155387762Y-153551035D01*
X155131168Y-153643723D01*
X155018137Y-153704140D01*
X154952612Y-153943007D01*
X148889518Y-153943007D01*
X150945898Y-151886628D01*
X150958207Y-151876526D01*
X151452598Y-152370917D01*
X151485006Y-152410406D01*
X151524494Y-152442813D01*
X151642604Y-152539744D01*
X151738711Y-152591114D01*
X151822409Y-152635851D01*
X152017507Y-152695034D01*
X152169564Y-152710010D01*
X152169567Y-152710010D01*
X152220402Y-152715017D01*
X152271237Y-152710010D01*
X161246300Y-152710010D01*
X162196209Y-153659920D01*
X162148815Y-153698815D01*
X162069463Y-153795506D01*
X162010498Y-153905820D01*
X161974188Y-154025518D01*
X161963555Y-154133483D01*
X161885799Y-154017114D01*
X161692886Y-153824201D01*
X161466043Y-153672629D01*
X161213989Y-153568225D01*
X160946411Y-153515000D01*
X160673589Y-153515000D01*
X160406011Y-153568225D01*
X160153957Y-153672629D01*
X159927114Y-153824201D01*
X159734201Y-154017114D01*
X159582629Y-154243957D01*
X159540000Y-154346873D01*
X159497371Y-154243957D01*
X159345799Y-154017114D01*
X159152886Y-153824201D01*
X158926043Y-153672629D01*
X158673989Y-153568225D01*
X158406411Y-153515000D01*
X158133589Y-153515000D01*
X157866011Y-153568225D01*
X157613957Y-153672629D01*
X157387114Y-153824201D01*
X157194201Y-154017114D01*
X157042629Y-154243957D01*
X157001489Y-154343279D01*
X156986277Y-154301168D01*
X156925860Y-154188137D01*
X156686993Y-154122612D01*
X155909605Y-154900000D01*
X156686993Y-155677388D01*
X156925860Y-155611863D01*
X157000164Y-155453523D01*
X157042629Y-155556043D01*
X157194201Y-155782886D01*
X157387114Y-155975799D01*
X157613957Y-156127371D01*
X157866011Y-156231775D01*
X158133589Y-156285000D01*
X158406411Y-156285000D01*
X158673989Y-156231775D01*
X158926043Y-156127371D01*
X159152886Y-155975799D01*
X159345799Y-155782886D01*
X159497371Y-155556043D01*
X159540000Y-155453127D01*
X159582629Y-155556043D01*
X159734201Y-155782886D01*
X159927114Y-155975799D01*
X160153957Y-156127371D01*
X160406011Y-156231775D01*
X160673589Y-156285000D01*
X160946411Y-156285000D01*
X161213989Y-156231775D01*
X161466043Y-156127371D01*
X161692886Y-155975799D01*
X161885799Y-155782886D01*
X161963555Y-155666517D01*
X161974188Y-155774482D01*
X162010498Y-155894180D01*
X162069463Y-156004494D01*
X162148815Y-156101185D01*
X162196209Y-156140080D01*
X160921290Y-157415000D01*
X71328711Y-157415000D01*
X70007807Y-156094097D01*
X69975396Y-156054604D01*
X69817797Y-155925266D01*
X69637993Y-155829159D01*
X69442895Y-155769976D01*
X69290838Y-155755000D01*
X69290828Y-155755000D01*
X69240000Y-155749994D01*
X69189172Y-155755000D01*
X64336097Y-155755000D01*
X64292537Y-155673506D01*
X64213185Y-155576815D01*
X64116494Y-155497463D01*
X64006180Y-155438498D01*
X63886482Y-155402188D01*
X63762000Y-155389928D01*
X63727206Y-155389928D01*
X63777388Y-155206993D01*
X63000000Y-154429605D01*
X62222612Y-155206993D01*
X62272794Y-155389928D01*
X62238000Y-155389928D01*
X62113518Y-155402188D01*
X61993820Y-155438498D01*
X61883506Y-155497463D01*
X61786815Y-155576815D01*
X61707463Y-155673506D01*
X61663903Y-155755000D01*
X58868711Y-155755000D01*
X57436203Y-154322492D01*
X61610188Y-154322492D01*
X61651035Y-154592238D01*
X61743723Y-154848832D01*
X61804140Y-154961863D01*
X62043007Y-155027388D01*
X62820395Y-154250000D01*
X63179605Y-154250000D01*
X63956993Y-155027388D01*
X64195860Y-154961863D01*
X64311760Y-154714884D01*
X64377250Y-154450040D01*
X64389812Y-154177508D01*
X64348965Y-153907762D01*
X64256277Y-153651168D01*
X64195860Y-153538137D01*
X63956993Y-153472612D01*
X63179605Y-154250000D01*
X62820395Y-154250000D01*
X62043007Y-153472612D01*
X61804140Y-153538137D01*
X61688240Y-153785116D01*
X61622750Y-154049960D01*
X61610188Y-154322492D01*
X57436203Y-154322492D01*
X56735000Y-153621290D01*
X56735000Y-123928710D01*
X60728711Y-119935000D01*
X67565740Y-119935000D01*
X67591998Y-119961258D01*
X67989804Y-120391050D01*
X68002508Y-120406529D01*
X68024326Y-120428347D01*
X68045270Y-120450975D01*
X68060237Y-120464258D01*
X69065000Y-121469022D01*
X69065001Y-134421288D01*
X68483790Y-135002500D01*
X67910561Y-135002500D01*
X67860443Y-135012469D01*
X67809605Y-135017476D01*
X67760723Y-135032304D01*
X67710602Y-135042274D01*
X67663387Y-135061831D01*
X67614507Y-135076659D01*
X67569458Y-135100738D01*
X67522244Y-135120295D01*
X67479754Y-135148686D01*
X67434703Y-135172766D01*
X67395216Y-135205172D01*
X67352726Y-135233563D01*
X67316592Y-135269697D01*
X67277104Y-135302104D01*
X67244697Y-135341592D01*
X67208563Y-135377726D01*
X67180172Y-135420216D01*
X67147766Y-135459703D01*
X67123686Y-135504754D01*
X67095295Y-135547244D01*
X67075738Y-135594458D01*
X67051659Y-135639507D01*
X67036831Y-135688387D01*
X67017274Y-135735602D01*
X67007304Y-135785723D01*
X66992476Y-135834605D01*
X66987469Y-135885443D01*
X66977500Y-135935561D01*
X66977500Y-135986662D01*
X66972493Y-136037500D01*
X66977500Y-136088338D01*
X66977500Y-136139439D01*
X66987469Y-136189557D01*
X66992476Y-136240395D01*
X67007304Y-136289277D01*
X67017274Y-136339398D01*
X67036831Y-136386613D01*
X67051659Y-136435493D01*
X67075738Y-136480542D01*
X67095295Y-136527756D01*
X67123686Y-136570246D01*
X67147766Y-136615297D01*
X67180172Y-136654784D01*
X67208563Y-136697274D01*
X67244697Y-136733408D01*
X67277104Y-136772896D01*
X67316592Y-136805303D01*
X67352726Y-136841437D01*
X67395216Y-136869828D01*
X67434703Y-136902234D01*
X67479754Y-136926314D01*
X67522244Y-136954705D01*
X67569458Y-136974262D01*
X67614507Y-136998341D01*
X67663387Y-137013169D01*
X67710602Y-137032726D01*
X67760723Y-137042696D01*
X67809605Y-137057524D01*
X67860443Y-137062531D01*
X67910561Y-137072500D01*
X68861672Y-137072500D01*
X68912500Y-137077506D01*
X68963328Y-137072500D01*
X68963338Y-137072500D01*
X69115395Y-137057524D01*
X69310493Y-136998341D01*
X69490297Y-136902234D01*
X69647896Y-136772896D01*
X69680307Y-136733403D01*
X70795908Y-135617803D01*
X70835396Y-135585396D01*
X70897962Y-135509159D01*
X70964734Y-135427798D01*
X71060841Y-135247994D01*
X71099578Y-135120295D01*
X71120024Y-135052895D01*
X71135000Y-134900838D01*
X71135000Y-134900835D01*
X71140007Y-134850000D01*
X71135000Y-134799165D01*
X71135000Y-121091138D01*
X71140006Y-121040310D01*
X71135000Y-120989482D01*
X71135000Y-120989473D01*
X71120024Y-120837416D01*
X71060841Y-120642318D01*
X70970804Y-120473870D01*
X70964734Y-120462513D01*
X70867803Y-120344403D01*
X70835396Y-120304915D01*
X70795908Y-120272508D01*
X70680597Y-120157198D01*
X70797335Y-120133977D01*
X71201215Y-119966684D01*
X71564697Y-119723813D01*
X71873813Y-119414697D01*
X72116684Y-119051215D01*
X72283977Y-118647335D01*
X72369262Y-118218578D01*
X72369262Y-117781422D01*
X72283977Y-117352665D01*
X72116684Y-116948785D01*
X71873813Y-116585303D01*
X71723510Y-116435000D01*
X80901232Y-116435000D01*
X80952060Y-116440006D01*
X81002888Y-116435000D01*
X81002898Y-116435000D01*
X81154955Y-116420024D01*
X81350053Y-116360841D01*
X81529857Y-116264734D01*
X81687456Y-116135396D01*
X81719867Y-116095903D01*
X82783770Y-115032000D01*
X108551928Y-115032000D01*
X108551928Y-117632000D01*
X108564188Y-117756482D01*
X108600498Y-117876180D01*
X108659463Y-117986494D01*
X108738815Y-118083185D01*
X108835506Y-118162537D01*
X108945820Y-118221502D01*
X109065518Y-118257812D01*
X109190000Y-118270072D01*
X111790000Y-118270072D01*
X111914482Y-118257812D01*
X112034180Y-118221502D01*
X112144494Y-118162537D01*
X112241185Y-118083185D01*
X112320537Y-117986494D01*
X112379502Y-117876180D01*
X112415812Y-117756482D01*
X112428072Y-117632000D01*
X112428072Y-116141419D01*
X113635000Y-116141419D01*
X113635000Y-116522581D01*
X113709361Y-116896419D01*
X113855225Y-117248566D01*
X114066987Y-117565491D01*
X114336509Y-117835013D01*
X114653434Y-118046775D01*
X115005581Y-118192639D01*
X115379419Y-118267000D01*
X115760581Y-118267000D01*
X116134419Y-118192639D01*
X116486566Y-118046775D01*
X116803491Y-117835013D01*
X117073013Y-117565491D01*
X117284775Y-117248566D01*
X117430639Y-116896419D01*
X117505000Y-116522581D01*
X117505000Y-116141419D01*
X117430639Y-115767581D01*
X117284775Y-115415434D01*
X117073013Y-115098509D01*
X116803491Y-114828987D01*
X116486566Y-114617225D01*
X116134419Y-114471361D01*
X115760581Y-114397000D01*
X115379419Y-114397000D01*
X115005581Y-114471361D01*
X114653434Y-114617225D01*
X114336509Y-114828987D01*
X114066987Y-115098509D01*
X113855225Y-115415434D01*
X113709361Y-115767581D01*
X113635000Y-116141419D01*
X112428072Y-116141419D01*
X112428072Y-115032000D01*
X112415812Y-114907518D01*
X112379502Y-114787820D01*
X112320537Y-114677506D01*
X112241185Y-114580815D01*
X112144494Y-114501463D01*
X112034180Y-114442498D01*
X111914482Y-114406188D01*
X111790000Y-114393928D01*
X109190000Y-114393928D01*
X109065518Y-114406188D01*
X108945820Y-114442498D01*
X108835506Y-114501463D01*
X108738815Y-114580815D01*
X108659463Y-114677506D01*
X108600498Y-114787820D01*
X108564188Y-114907518D01*
X108551928Y-115032000D01*
X82783770Y-115032000D01*
X85040441Y-112775329D01*
X100623284Y-112775329D01*
X100634020Y-112835550D01*
X100735431Y-113078090D01*
X100882210Y-113296185D01*
X101068717Y-113481455D01*
X101287785Y-113626779D01*
X101530995Y-113726572D01*
X101789000Y-113777000D01*
X102489000Y-113777000D01*
X102489000Y-112569000D01*
X102743000Y-112569000D01*
X102743000Y-113777000D01*
X103443000Y-113777000D01*
X103701005Y-113726572D01*
X103944215Y-113626779D01*
X104163283Y-113481455D01*
X104349790Y-113296185D01*
X104496569Y-113078090D01*
X104597980Y-112835550D01*
X104608716Y-112775329D01*
X104485374Y-112569000D01*
X102743000Y-112569000D01*
X102489000Y-112569000D01*
X100746626Y-112569000D01*
X100623284Y-112775329D01*
X85040441Y-112775329D01*
X85707099Y-112108671D01*
X100623284Y-112108671D01*
X100746626Y-112315000D01*
X102489000Y-112315000D01*
X102489000Y-111107000D01*
X102743000Y-111107000D01*
X102743000Y-112315000D01*
X104485374Y-112315000D01*
X104608716Y-112108671D01*
X104597980Y-112048450D01*
X104496569Y-111805910D01*
X104349790Y-111587815D01*
X104163283Y-111402545D01*
X103944215Y-111257221D01*
X103701005Y-111157428D01*
X103443000Y-111107000D01*
X102743000Y-111107000D01*
X102489000Y-111107000D01*
X101789000Y-111107000D01*
X101530995Y-111157428D01*
X101287785Y-111257221D01*
X101068717Y-111402545D01*
X100882210Y-111587815D01*
X100735431Y-111805910D01*
X100634020Y-112048450D01*
X100623284Y-112108671D01*
X85707099Y-112108671D01*
X88639349Y-109176421D01*
X103981000Y-109176421D01*
X103981000Y-110707578D01*
X104000317Y-110903705D01*
X104076653Y-111155353D01*
X104200618Y-111387274D01*
X104367445Y-111590555D01*
X104570725Y-111757382D01*
X104802646Y-111881347D01*
X105054294Y-111957683D01*
X105316000Y-111983459D01*
X105577705Y-111957683D01*
X105829353Y-111881347D01*
X106061274Y-111757382D01*
X106070269Y-111750000D01*
X120510928Y-111750000D01*
X120523188Y-111874482D01*
X120559498Y-111994180D01*
X120618463Y-112104494D01*
X120697815Y-112201185D01*
X120794506Y-112280537D01*
X120904820Y-112339502D01*
X121024518Y-112375812D01*
X121149000Y-112388072D01*
X121388250Y-112385000D01*
X121547000Y-112226250D01*
X121547000Y-111127000D01*
X120672750Y-111127000D01*
X120514000Y-111285750D01*
X120510928Y-111750000D01*
X106070269Y-111750000D01*
X106264555Y-111590555D01*
X106431382Y-111387275D01*
X106555347Y-111155354D01*
X106631683Y-110903706D01*
X106651000Y-110707579D01*
X106651000Y-110250000D01*
X120510928Y-110250000D01*
X120514000Y-110714250D01*
X120672750Y-110873000D01*
X121547000Y-110873000D01*
X121547000Y-109773750D01*
X121388250Y-109615000D01*
X121149000Y-109611928D01*
X121024518Y-109624188D01*
X120904820Y-109660498D01*
X120794506Y-109719463D01*
X120697815Y-109798815D01*
X120618463Y-109895506D01*
X120559498Y-110005820D01*
X120523188Y-110125518D01*
X120510928Y-110250000D01*
X106651000Y-110250000D01*
X106651000Y-109176421D01*
X106631683Y-108980294D01*
X106555347Y-108728646D01*
X106431382Y-108496725D01*
X106264555Y-108293445D01*
X106061275Y-108126618D01*
X105829354Y-108002653D01*
X105577706Y-107926317D01*
X105316000Y-107900541D01*
X105054295Y-107926317D01*
X104802647Y-108002653D01*
X104570726Y-108126618D01*
X104367446Y-108293445D01*
X104200619Y-108496725D01*
X104076654Y-108728646D01*
X104000317Y-108980294D01*
X103981000Y-109176421D01*
X88639349Y-109176421D01*
X90170000Y-107645771D01*
X90662137Y-108137908D01*
X90694544Y-108177396D01*
X90734032Y-108209803D01*
X90852142Y-108306734D01*
X90948249Y-108358104D01*
X91031947Y-108402841D01*
X91227045Y-108462024D01*
X91379102Y-108477000D01*
X91379111Y-108477000D01*
X91429939Y-108482006D01*
X91480767Y-108477000D01*
X101072779Y-108477000D01*
X101170725Y-108557382D01*
X101402646Y-108681347D01*
X101654294Y-108757683D01*
X101850421Y-108777000D01*
X103381579Y-108777000D01*
X103577706Y-108757683D01*
X103829354Y-108681347D01*
X104061275Y-108557382D01*
X104264555Y-108390555D01*
X104431382Y-108187275D01*
X104555347Y-107955354D01*
X104631683Y-107703706D01*
X104657459Y-107442000D01*
X104631683Y-107180294D01*
X104555347Y-106928646D01*
X104431382Y-106696725D01*
X104264555Y-106493445D01*
X104061275Y-106326618D01*
X103829354Y-106202653D01*
X103577706Y-106126317D01*
X103381579Y-106107000D01*
X101850421Y-106107000D01*
X101654294Y-106126317D01*
X101402646Y-106202653D01*
X101170725Y-106326618D01*
X101072779Y-106407000D01*
X91858651Y-106407000D01*
X91471782Y-106020132D01*
X91920060Y-106020132D01*
X92044542Y-106007872D01*
X92164240Y-105971562D01*
X92274554Y-105912597D01*
X92371245Y-105833245D01*
X92450597Y-105736554D01*
X92509562Y-105626240D01*
X92545872Y-105506542D01*
X92558132Y-105382060D01*
X92558132Y-103397092D01*
X92864940Y-103397092D01*
X92864940Y-103866908D01*
X92956597Y-104327696D01*
X93136387Y-104761749D01*
X93397403Y-105152387D01*
X93729613Y-105484597D01*
X94120251Y-105745613D01*
X94554304Y-105925403D01*
X95015092Y-106017060D01*
X95484908Y-106017060D01*
X95945696Y-105925403D01*
X96379749Y-105745613D01*
X96770387Y-105484597D01*
X97102597Y-105152387D01*
X97363613Y-104761749D01*
X97543403Y-104327696D01*
X97635060Y-103866908D01*
X97635060Y-103732413D01*
X106283146Y-103732413D01*
X106283146Y-104267587D01*
X106387553Y-104792477D01*
X106592355Y-105286913D01*
X106889681Y-105731894D01*
X107268106Y-106110319D01*
X107713087Y-106407645D01*
X108207523Y-106612447D01*
X108732413Y-106716854D01*
X109267587Y-106716854D01*
X109792477Y-106612447D01*
X110286913Y-106407645D01*
X110731894Y-106110319D01*
X111110319Y-105731894D01*
X111407645Y-105286913D01*
X111612447Y-104792477D01*
X111716854Y-104267587D01*
X111716854Y-103732413D01*
X111612447Y-103207523D01*
X111435951Y-102781422D01*
X162780738Y-102781422D01*
X162780738Y-103218578D01*
X162866023Y-103647335D01*
X163033316Y-104051215D01*
X163276187Y-104414697D01*
X163585303Y-104723813D01*
X163948785Y-104966684D01*
X164352665Y-105133977D01*
X164781422Y-105219262D01*
X165218578Y-105219262D01*
X165647335Y-105133977D01*
X166051215Y-104966684D01*
X166414697Y-104723813D01*
X166723813Y-104414697D01*
X166966684Y-104051215D01*
X167133977Y-103647335D01*
X167219262Y-103218578D01*
X167219262Y-102781422D01*
X167133977Y-102352665D01*
X166966684Y-101948785D01*
X166723813Y-101585303D01*
X166414697Y-101276187D01*
X166051215Y-101033316D01*
X165647335Y-100866023D01*
X165218578Y-100780738D01*
X164781422Y-100780738D01*
X164352665Y-100866023D01*
X163948785Y-101033316D01*
X163585303Y-101276187D01*
X163276187Y-101585303D01*
X163033316Y-101948785D01*
X162866023Y-102352665D01*
X162780738Y-102781422D01*
X111435951Y-102781422D01*
X111407645Y-102713087D01*
X111110319Y-102268106D01*
X110731894Y-101889681D01*
X110286913Y-101592355D01*
X109792477Y-101387553D01*
X109267587Y-101283146D01*
X108732413Y-101283146D01*
X108207523Y-101387553D01*
X107713087Y-101592355D01*
X107268106Y-101889681D01*
X106889681Y-102268106D01*
X106592355Y-102713087D01*
X106387553Y-103207523D01*
X106283146Y-103732413D01*
X97635060Y-103732413D01*
X97635060Y-103397092D01*
X97543403Y-102936304D01*
X97363613Y-102502251D01*
X97102597Y-102111613D01*
X96770387Y-101779403D01*
X96379749Y-101518387D01*
X95945696Y-101338597D01*
X95484908Y-101246940D01*
X95015092Y-101246940D01*
X94554304Y-101338597D01*
X94120251Y-101518387D01*
X93729613Y-101779403D01*
X93397403Y-102111613D01*
X93136387Y-102502251D01*
X92956597Y-102936304D01*
X92864940Y-103397092D01*
X92558132Y-103397092D01*
X92558132Y-101881940D01*
X92545872Y-101757458D01*
X92509562Y-101637760D01*
X92450597Y-101527446D01*
X92371245Y-101430755D01*
X92274554Y-101351403D01*
X92164240Y-101292438D01*
X92044542Y-101256128D01*
X91920060Y-101243868D01*
X88419940Y-101243868D01*
X88295458Y-101256128D01*
X88175760Y-101292438D01*
X88065446Y-101351403D01*
X87968755Y-101430755D01*
X87889403Y-101527446D01*
X87830438Y-101637760D01*
X87794128Y-101757458D01*
X87781868Y-101881940D01*
X87781868Y-105382060D01*
X87794128Y-105506542D01*
X87830438Y-105626240D01*
X87889403Y-105736554D01*
X87968755Y-105833245D01*
X88065446Y-105912597D01*
X88175760Y-105971562D01*
X88295458Y-106007872D01*
X88419940Y-106020132D01*
X88868217Y-106020132D01*
X80523350Y-114365000D01*
X65775981Y-114365000D01*
X65817185Y-114331185D01*
X65896537Y-114234494D01*
X65955502Y-114124180D01*
X65991812Y-114004482D01*
X66004072Y-113880000D01*
X66004072Y-112180000D01*
X65991812Y-112055518D01*
X65955502Y-111935820D01*
X65896537Y-111825506D01*
X65817185Y-111728815D01*
X65720494Y-111649463D01*
X65610180Y-111590498D01*
X65537620Y-111568487D01*
X65669475Y-111436632D01*
X65831990Y-111193411D01*
X65943932Y-110923158D01*
X66001000Y-110636260D01*
X66001000Y-110343740D01*
X65943932Y-110056842D01*
X65831990Y-109786589D01*
X65669475Y-109543368D01*
X65462632Y-109336525D01*
X65288240Y-109220000D01*
X65462632Y-109103475D01*
X65669475Y-108896632D01*
X65831990Y-108653411D01*
X65943932Y-108383158D01*
X66001000Y-108096260D01*
X66001000Y-107803740D01*
X65943932Y-107516842D01*
X65831990Y-107246589D01*
X65669475Y-107003368D01*
X65462632Y-106796525D01*
X65288240Y-106680000D01*
X65462632Y-106563475D01*
X65669475Y-106356632D01*
X65831990Y-106113411D01*
X65943932Y-105843158D01*
X66001000Y-105556260D01*
X66001000Y-105263740D01*
X65943932Y-104976842D01*
X65831990Y-104706589D01*
X65669475Y-104463368D01*
X65462632Y-104256525D01*
X65280466Y-104134805D01*
X65397355Y-104065178D01*
X65613588Y-103870269D01*
X65787641Y-103636920D01*
X65912825Y-103374099D01*
X65957476Y-103226890D01*
X65836155Y-102997000D01*
X64643000Y-102997000D01*
X64643000Y-103017000D01*
X64389000Y-103017000D01*
X64389000Y-102997000D01*
X63195845Y-102997000D01*
X63074524Y-103226890D01*
X63119175Y-103374099D01*
X63244359Y-103636920D01*
X63418412Y-103870269D01*
X63634645Y-104065178D01*
X63751534Y-104134805D01*
X63569368Y-104256525D01*
X63362525Y-104463368D01*
X63200010Y-104706589D01*
X63088068Y-104976842D01*
X63031000Y-105263740D01*
X63031000Y-105556260D01*
X63088068Y-105843158D01*
X63200010Y-106113411D01*
X63362525Y-106356632D01*
X63569368Y-106563475D01*
X63743760Y-106680000D01*
X63569368Y-106796525D01*
X63362525Y-107003368D01*
X63200010Y-107246589D01*
X63088068Y-107516842D01*
X63031000Y-107803740D01*
X63031000Y-108096260D01*
X63088068Y-108383158D01*
X63200010Y-108653411D01*
X63362525Y-108896632D01*
X63569368Y-109103475D01*
X63743760Y-109220000D01*
X63569368Y-109336525D01*
X63362525Y-109543368D01*
X63200010Y-109786589D01*
X63088068Y-110056842D01*
X63031000Y-110343740D01*
X63031000Y-110636260D01*
X63088068Y-110923158D01*
X63200010Y-111193411D01*
X63362525Y-111436632D01*
X63494380Y-111568487D01*
X63421820Y-111590498D01*
X63311506Y-111649463D01*
X63214815Y-111728815D01*
X63135463Y-111825506D01*
X63076498Y-111935820D01*
X63040188Y-112055518D01*
X63027928Y-112180000D01*
X63027928Y-113880000D01*
X63040188Y-114004482D01*
X63076498Y-114124180D01*
X63135463Y-114234494D01*
X63214815Y-114331185D01*
X63311506Y-114410537D01*
X63421820Y-114469502D01*
X63481000Y-114487454D01*
X63481000Y-114629172D01*
X63475994Y-114680000D01*
X63481000Y-114730828D01*
X63481000Y-114730837D01*
X63495976Y-114882894D01*
X63555159Y-115077992D01*
X63651266Y-115257797D01*
X63780604Y-115415396D01*
X63820097Y-115447807D01*
X64468197Y-116095908D01*
X64500604Y-116135396D01*
X64540092Y-116167803D01*
X64658202Y-116264734D01*
X64729036Y-116302595D01*
X64838007Y-116360841D01*
X65033105Y-116420024D01*
X65185162Y-116435000D01*
X65185165Y-116435000D01*
X65236000Y-116440007D01*
X65286835Y-116435000D01*
X68576490Y-116435000D01*
X68426187Y-116585303D01*
X68183316Y-116948785D01*
X68016023Y-117352665D01*
X67930738Y-117781422D01*
X67930738Y-117865000D01*
X60350827Y-117865000D01*
X60299999Y-117859994D01*
X60249171Y-117865000D01*
X60249162Y-117865000D01*
X60097105Y-117879976D01*
X59902007Y-117939159D01*
X59818309Y-117983896D01*
X59722202Y-118035266D01*
X59663813Y-118083185D01*
X59564604Y-118164604D01*
X59532197Y-118204092D01*
X55004092Y-122732197D01*
X54964605Y-122764604D01*
X54932198Y-122804092D01*
X54932197Y-122804093D01*
X54835266Y-122922203D01*
X54739160Y-123102007D01*
X54679977Y-123297105D01*
X54659994Y-123500000D01*
X54665001Y-123550838D01*
X54665000Y-153999172D01*
X54659994Y-154050000D01*
X54665000Y-154100828D01*
X54665000Y-154100837D01*
X54679976Y-154252894D01*
X54739159Y-154447992D01*
X54835266Y-154627797D01*
X54964604Y-154785396D01*
X55004097Y-154817807D01*
X57672196Y-157485907D01*
X57704604Y-157525396D01*
X57744092Y-157557803D01*
X57862202Y-157654734D01*
X57958309Y-157706104D01*
X58042007Y-157750841D01*
X58237105Y-157810024D01*
X58389162Y-157825000D01*
X58389171Y-157825000D01*
X58439999Y-157830006D01*
X58490827Y-157825000D01*
X61663903Y-157825000D01*
X61707463Y-157906494D01*
X61786815Y-158003185D01*
X61883506Y-158082537D01*
X61993820Y-158141502D01*
X62113518Y-158177812D01*
X62238000Y-158190072D01*
X63762000Y-158190072D01*
X63886482Y-158177812D01*
X64006180Y-158141502D01*
X64116494Y-158082537D01*
X64213185Y-158003185D01*
X64292537Y-157906494D01*
X64336097Y-157825000D01*
X68811290Y-157825000D01*
X70132197Y-159145908D01*
X70164604Y-159185396D01*
X70204092Y-159217803D01*
X70322202Y-159314734D01*
X70502006Y-159410841D01*
X70547415Y-159424615D01*
X70697105Y-159470024D01*
X70849162Y-159485000D01*
X70849165Y-159485000D01*
X70900000Y-159490007D01*
X70950835Y-159485000D01*
X161299172Y-159485000D01*
X161350000Y-159490006D01*
X161400828Y-159485000D01*
X161400838Y-159485000D01*
X161552895Y-159470024D01*
X161747993Y-159410841D01*
X161927797Y-159314734D01*
X162085396Y-159185396D01*
X162117807Y-159145903D01*
X164045908Y-157217803D01*
X164085396Y-157185396D01*
X164117803Y-157145908D01*
X164214734Y-157027798D01*
X164310840Y-156847994D01*
X164310841Y-156847993D01*
X164370024Y-156652895D01*
X164385000Y-156500838D01*
X164385000Y-156500829D01*
X164390006Y-156450001D01*
X164385000Y-156399173D01*
X164385000Y-156217683D01*
X164454494Y-156180537D01*
X164551185Y-156101185D01*
X164630537Y-156004494D01*
X164689502Y-155894180D01*
X164725812Y-155774482D01*
X164738072Y-155650000D01*
X164738072Y-154150000D01*
X164725812Y-154025518D01*
X164689502Y-153905820D01*
X164630537Y-153795506D01*
X164551185Y-153698815D01*
X164454494Y-153619463D01*
X164385000Y-153582317D01*
X164385000Y-153400835D01*
X164390007Y-153350000D01*
X164373782Y-153185266D01*
X164370024Y-153147105D01*
X164310841Y-152952007D01*
X164310841Y-152952006D01*
X164214734Y-152772202D01*
X164117803Y-152654092D01*
X164085396Y-152614604D01*
X164045908Y-152582197D01*
X163173710Y-151710000D01*
X167290000Y-151710000D01*
X167290001Y-167790000D01*
X50710000Y-167790000D01*
X50710000Y-165281422D01*
X50780738Y-165281422D01*
X50780738Y-165718578D01*
X50866023Y-166147335D01*
X51033316Y-166551215D01*
X51276187Y-166914697D01*
X51585303Y-167223813D01*
X51948785Y-167466684D01*
X52352665Y-167633977D01*
X52781422Y-167719262D01*
X53218578Y-167719262D01*
X53647335Y-167633977D01*
X54051215Y-167466684D01*
X54414697Y-167223813D01*
X54723813Y-166914697D01*
X54966684Y-166551215D01*
X55133977Y-166147335D01*
X55219262Y-165718578D01*
X55219262Y-165281422D01*
X162780738Y-165281422D01*
X162780738Y-165718578D01*
X162866023Y-166147335D01*
X163033316Y-166551215D01*
X163276187Y-166914697D01*
X163585303Y-167223813D01*
X163948785Y-167466684D01*
X164352665Y-167633977D01*
X164781422Y-167719262D01*
X165218578Y-167719262D01*
X165647335Y-167633977D01*
X166051215Y-167466684D01*
X166414697Y-167223813D01*
X166723813Y-166914697D01*
X166966684Y-166551215D01*
X167133977Y-166147335D01*
X167219262Y-165718578D01*
X167219262Y-165281422D01*
X167133977Y-164852665D01*
X166966684Y-164448785D01*
X166723813Y-164085303D01*
X166414697Y-163776187D01*
X166051215Y-163533316D01*
X165647335Y-163366023D01*
X165218578Y-163280738D01*
X164781422Y-163280738D01*
X164352665Y-163366023D01*
X163948785Y-163533316D01*
X163585303Y-163776187D01*
X163276187Y-164085303D01*
X163033316Y-164448785D01*
X162866023Y-164852665D01*
X162780738Y-165281422D01*
X55219262Y-165281422D01*
X55133977Y-164852665D01*
X54966684Y-164448785D01*
X54723813Y-164085303D01*
X54414697Y-163776187D01*
X54051215Y-163533316D01*
X53647335Y-163366023D01*
X53218578Y-163280738D01*
X52781422Y-163280738D01*
X52352665Y-163366023D01*
X51948785Y-163533316D01*
X51585303Y-163776187D01*
X51276187Y-164085303D01*
X51033316Y-164448785D01*
X50866023Y-164852665D01*
X50780738Y-165281422D01*
X50710000Y-165281422D01*
X50710000Y-161791422D01*
X67920738Y-161791422D01*
X67920738Y-162228578D01*
X68006023Y-162657335D01*
X68173316Y-163061215D01*
X68416187Y-163424697D01*
X68725303Y-163733813D01*
X69088785Y-163976684D01*
X69492665Y-164143977D01*
X69921422Y-164229262D01*
X70358578Y-164229262D01*
X70787335Y-164143977D01*
X71191215Y-163976684D01*
X71554697Y-163733813D01*
X71863813Y-163424697D01*
X72106684Y-163061215D01*
X72273977Y-162657335D01*
X72359262Y-162228578D01*
X72359262Y-161791422D01*
X72357273Y-161781422D01*
X143990738Y-161781422D01*
X143990738Y-162218578D01*
X144076023Y-162647335D01*
X144243316Y-163051215D01*
X144486187Y-163414697D01*
X144795303Y-163723813D01*
X145158785Y-163966684D01*
X145562665Y-164133977D01*
X145991422Y-164219262D01*
X146428578Y-164219262D01*
X146857335Y-164133977D01*
X147261215Y-163966684D01*
X147624697Y-163723813D01*
X147933813Y-163414697D01*
X148176684Y-163051215D01*
X148343977Y-162647335D01*
X148429262Y-162218578D01*
X148429262Y-161781422D01*
X148343977Y-161352665D01*
X148176684Y-160948785D01*
X147933813Y-160585303D01*
X147624697Y-160276187D01*
X147261215Y-160033316D01*
X146857335Y-159866023D01*
X146428578Y-159780738D01*
X145991422Y-159780738D01*
X145562665Y-159866023D01*
X145158785Y-160033316D01*
X144795303Y-160276187D01*
X144486187Y-160585303D01*
X144243316Y-160948785D01*
X144076023Y-161352665D01*
X143990738Y-161781422D01*
X72357273Y-161781422D01*
X72273977Y-161362665D01*
X72106684Y-160958785D01*
X71863813Y-160595303D01*
X71554697Y-160286187D01*
X71191215Y-160043316D01*
X70787335Y-159876023D01*
X70358578Y-159790738D01*
X69921422Y-159790738D01*
X69492665Y-159876023D01*
X69088785Y-160043316D01*
X68725303Y-160286187D01*
X68416187Y-160595303D01*
X68173316Y-160958785D01*
X68006023Y-161362665D01*
X67920738Y-161791422D01*
X50710000Y-161791422D01*
X50710000Y-102781422D01*
X50780738Y-102781422D01*
X50780738Y-103218578D01*
X50866023Y-103647335D01*
X51033316Y-104051215D01*
X51276187Y-104414697D01*
X51585303Y-104723813D01*
X51948785Y-104966684D01*
X52352665Y-105133977D01*
X52781422Y-105219262D01*
X53218578Y-105219262D01*
X53647335Y-105133977D01*
X54051215Y-104966684D01*
X54414697Y-104723813D01*
X54723813Y-104414697D01*
X54966684Y-104051215D01*
X55133977Y-103647335D01*
X55219262Y-103218578D01*
X55219262Y-102781422D01*
X55165892Y-102513110D01*
X63074524Y-102513110D01*
X63195845Y-102743000D01*
X64389000Y-102743000D01*
X64389000Y-101549186D01*
X64643000Y-101549186D01*
X64643000Y-102743000D01*
X65836155Y-102743000D01*
X65957476Y-102513110D01*
X65912825Y-102365901D01*
X65787641Y-102103080D01*
X65613588Y-101869731D01*
X65397355Y-101674822D01*
X65147252Y-101525843D01*
X64872891Y-101428519D01*
X64643000Y-101549186D01*
X64389000Y-101549186D01*
X64159109Y-101428519D01*
X63884748Y-101525843D01*
X63634645Y-101674822D01*
X63418412Y-101869731D01*
X63244359Y-102103080D01*
X63119175Y-102365901D01*
X63074524Y-102513110D01*
X55165892Y-102513110D01*
X55133977Y-102352665D01*
X54966684Y-101948785D01*
X54723813Y-101585303D01*
X54414697Y-101276187D01*
X54051215Y-101033316D01*
X53647335Y-100866023D01*
X53218578Y-100780738D01*
X52781422Y-100780738D01*
X52352665Y-100866023D01*
X51948785Y-101033316D01*
X51585303Y-101276187D01*
X51276187Y-101585303D01*
X51033316Y-101948785D01*
X50866023Y-102352665D01*
X50780738Y-102781422D01*
X50710000Y-102781422D01*
X50710000Y-100710000D01*
X167290000Y-100710000D01*
X167290001Y-121290000D01*
M02*
