G04 #@! TF.GenerationSoftware,KiCad,Pcbnew,5.1.5+dfsg1-2build2*
G04 #@! TF.CreationDate,2021-09-10T16:14:55+02:00*
G04 #@! TF.ProjectId,cronotempNuevo,63726f6e-6f74-4656-9d70-4e7565766f2e,rev?*
G04 #@! TF.SameCoordinates,Original*
G04 #@! TF.FileFunction,Soldermask,Bot*
G04 #@! TF.FilePolarity,Negative*
%FSLAX46Y46*%
G04 Gerber Fmt 4.6, Leading zero omitted, Abs format (unit mm)*
G04 Created by KiCad (PCBNEW 5.1.5+dfsg1-2build2) date 2021-09-10 16:14:55*
%MOMM*%
%LPD*%
G04 APERTURE LIST*
%ADD10C,1.500000*%
%ADD11R,1.500000X1.500000*%
%ADD12R,1.524000X1.524000*%
%ADD13C,1.800000*%
%ADD14R,1.800000X1.800000*%
%ADD15R,1.700000X1.700000*%
%ADD16O,1.700000X1.700000*%
%ADD17O,2.800000X1.400000*%
%ADD18O,1.400000X2.800000*%
%ADD19C,2.600000*%
%ADD20R,2.600000X2.600000*%
%ADD21C,3.500120*%
%ADD22R,3.500120X3.500120*%
%ADD23C,2.000000*%
%ADD24C,0.100000*%
%ADD25R,1.050000X1.500000*%
G04 APERTURE END LIST*
D10*
X147328000Y-136470000D03*
X147328000Y-139010000D03*
X147328000Y-141550000D03*
D11*
X147300000Y-144090000D03*
D10*
X63000000Y-123770000D03*
X63000000Y-126310000D03*
X63000000Y-128850000D03*
X63000000Y-131390000D03*
X63000000Y-133930000D03*
X63000000Y-136470000D03*
X63000000Y-139010000D03*
X63000000Y-141550000D03*
X63000000Y-144090000D03*
X63000000Y-146630000D03*
X63000000Y-149170000D03*
X63000000Y-151710000D03*
X63000000Y-154250000D03*
D12*
X63000000Y-156790000D03*
D13*
X131240000Y-111000000D03*
D14*
X128700000Y-111000000D03*
D15*
X64516000Y-113030000D03*
D16*
X64516000Y-110490000D03*
X64516000Y-107950000D03*
X64516000Y-105410000D03*
X64516000Y-102870000D03*
D17*
X102616000Y-112442000D03*
X102616000Y-107442000D03*
D18*
X105316000Y-109942000D03*
D19*
X115570000Y-116332000D03*
D20*
X110490000Y-116332000D03*
D21*
X95250000Y-103632000D03*
D22*
X90170000Y-103632000D03*
D13*
X138770000Y-111000000D03*
D14*
X136230000Y-111000000D03*
D23*
X156750000Y-111740000D03*
X156750000Y-116240000D03*
X163250000Y-111740000D03*
X163250000Y-116240000D03*
D11*
X163350000Y-154900000D03*
D10*
X160810000Y-154900000D03*
X158270000Y-154900000D03*
X155730000Y-154900000D03*
D24*
G36*
X123232229Y-110251264D02*
G01*
X123257711Y-110255044D01*
X123282700Y-110261303D01*
X123306954Y-110269982D01*
X123330242Y-110280996D01*
X123352337Y-110294239D01*
X123373028Y-110309585D01*
X123392116Y-110326884D01*
X123409415Y-110345972D01*
X123424761Y-110366663D01*
X123438004Y-110388758D01*
X123449018Y-110412046D01*
X123457697Y-110436300D01*
X123463956Y-110461289D01*
X123467736Y-110486771D01*
X123469000Y-110512500D01*
X123469000Y-111487500D01*
X123467736Y-111513229D01*
X123463956Y-111538711D01*
X123457697Y-111563700D01*
X123449018Y-111587954D01*
X123438004Y-111611242D01*
X123424761Y-111633337D01*
X123409415Y-111654028D01*
X123392116Y-111673116D01*
X123373028Y-111690415D01*
X123352337Y-111705761D01*
X123330242Y-111719004D01*
X123306954Y-111730018D01*
X123282700Y-111738697D01*
X123257711Y-111744956D01*
X123232229Y-111748736D01*
X123206500Y-111750000D01*
X122681500Y-111750000D01*
X122655771Y-111748736D01*
X122630289Y-111744956D01*
X122605300Y-111738697D01*
X122581046Y-111730018D01*
X122557758Y-111719004D01*
X122535663Y-111705761D01*
X122514972Y-111690415D01*
X122495884Y-111673116D01*
X122478585Y-111654028D01*
X122463239Y-111633337D01*
X122449996Y-111611242D01*
X122438982Y-111587954D01*
X122430303Y-111563700D01*
X122424044Y-111538711D01*
X122420264Y-111513229D01*
X122419000Y-111487500D01*
X122419000Y-110512500D01*
X122420264Y-110486771D01*
X122424044Y-110461289D01*
X122430303Y-110436300D01*
X122438982Y-110412046D01*
X122449996Y-110388758D01*
X122463239Y-110366663D01*
X122478585Y-110345972D01*
X122495884Y-110326884D01*
X122514972Y-110309585D01*
X122535663Y-110294239D01*
X122557758Y-110280996D01*
X122581046Y-110269982D01*
X122605300Y-110261303D01*
X122630289Y-110255044D01*
X122655771Y-110251264D01*
X122681500Y-110250000D01*
X123206500Y-110250000D01*
X123232229Y-110251264D01*
G37*
G36*
X124502229Y-110251264D02*
G01*
X124527711Y-110255044D01*
X124552700Y-110261303D01*
X124576954Y-110269982D01*
X124600242Y-110280996D01*
X124622337Y-110294239D01*
X124643028Y-110309585D01*
X124662116Y-110326884D01*
X124679415Y-110345972D01*
X124694761Y-110366663D01*
X124708004Y-110388758D01*
X124719018Y-110412046D01*
X124727697Y-110436300D01*
X124733956Y-110461289D01*
X124737736Y-110486771D01*
X124739000Y-110512500D01*
X124739000Y-111487500D01*
X124737736Y-111513229D01*
X124733956Y-111538711D01*
X124727697Y-111563700D01*
X124719018Y-111587954D01*
X124708004Y-111611242D01*
X124694761Y-111633337D01*
X124679415Y-111654028D01*
X124662116Y-111673116D01*
X124643028Y-111690415D01*
X124622337Y-111705761D01*
X124600242Y-111719004D01*
X124576954Y-111730018D01*
X124552700Y-111738697D01*
X124527711Y-111744956D01*
X124502229Y-111748736D01*
X124476500Y-111750000D01*
X123951500Y-111750000D01*
X123925771Y-111748736D01*
X123900289Y-111744956D01*
X123875300Y-111738697D01*
X123851046Y-111730018D01*
X123827758Y-111719004D01*
X123805663Y-111705761D01*
X123784972Y-111690415D01*
X123765884Y-111673116D01*
X123748585Y-111654028D01*
X123733239Y-111633337D01*
X123719996Y-111611242D01*
X123708982Y-111587954D01*
X123700303Y-111563700D01*
X123694044Y-111538711D01*
X123690264Y-111513229D01*
X123689000Y-111487500D01*
X123689000Y-110512500D01*
X123690264Y-110486771D01*
X123694044Y-110461289D01*
X123700303Y-110436300D01*
X123708982Y-110412046D01*
X123719996Y-110388758D01*
X123733239Y-110366663D01*
X123748585Y-110345972D01*
X123765884Y-110326884D01*
X123784972Y-110309585D01*
X123805663Y-110294239D01*
X123827758Y-110280996D01*
X123851046Y-110269982D01*
X123875300Y-110261303D01*
X123900289Y-110255044D01*
X123925771Y-110251264D01*
X123951500Y-110250000D01*
X124476500Y-110250000D01*
X124502229Y-110251264D01*
G37*
D25*
X121674000Y-111000000D03*
M02*
