G04 #@! TF.GenerationSoftware,KiCad,Pcbnew,5.1.5+dfsg1-2build2*
G04 #@! TF.CreationDate,2021-09-10T16:14:55+02:00*
G04 #@! TF.ProjectId,cronotempNuevo,63726f6e-6f74-4656-9d70-4e7565766f2e,rev?*
G04 #@! TF.SameCoordinates,Original*
G04 #@! TF.FileFunction,Legend,Bot*
G04 #@! TF.FilePolarity,Positive*
%FSLAX46Y46*%
G04 Gerber Fmt 4.6, Leading zero omitted, Abs format (unit mm)*
G04 Created by KiCad (PCBNEW 5.1.5+dfsg1-2build2) date 2021-09-10 16:14:55*
%MOMM*%
%LPD*%
G04 APERTURE LIST*
%ADD10C,0.150000*%
%ADD11C,0.120000*%
G04 APERTURE END LIST*
D10*
X153250000Y-107202380D02*
X153345238Y-107154761D01*
X153392857Y-107059523D01*
X153392857Y-106202380D01*
X152488095Y-107154761D02*
X152583333Y-107202380D01*
X152773809Y-107202380D01*
X152869047Y-107154761D01*
X152916666Y-107059523D01*
X152916666Y-106678571D01*
X152869047Y-106583333D01*
X152773809Y-106535714D01*
X152583333Y-106535714D01*
X152488095Y-106583333D01*
X152440476Y-106678571D01*
X152440476Y-106773809D01*
X152916666Y-106869047D01*
X151583333Y-107202380D02*
X151583333Y-106202380D01*
X151583333Y-107154761D02*
X151678571Y-107202380D01*
X151869047Y-107202380D01*
X151964285Y-107154761D01*
X152011904Y-107107142D01*
X152059523Y-107011904D01*
X152059523Y-106726190D01*
X152011904Y-106630952D01*
X151964285Y-106583333D01*
X151869047Y-106535714D01*
X151678571Y-106535714D01*
X151583333Y-106583333D01*
X150440476Y-106535714D02*
X150202380Y-107202380D01*
X149964285Y-106535714D02*
X150202380Y-107202380D01*
X150297619Y-107440476D01*
X150345238Y-107488095D01*
X150440476Y-107535714D01*
X148821428Y-107202380D02*
X148821428Y-106202380D01*
X148821428Y-106583333D02*
X148726190Y-106535714D01*
X148535714Y-106535714D01*
X148440476Y-106583333D01*
X148392857Y-106630952D01*
X148345238Y-106726190D01*
X148345238Y-107011904D01*
X148392857Y-107107142D01*
X148440476Y-107154761D01*
X148535714Y-107202380D01*
X148726190Y-107202380D01*
X148821428Y-107154761D01*
X147773809Y-107202380D02*
X147869047Y-107154761D01*
X147916666Y-107107142D01*
X147964285Y-107011904D01*
X147964285Y-106726190D01*
X147916666Y-106630952D01*
X147869047Y-106583333D01*
X147773809Y-106535714D01*
X147630952Y-106535714D01*
X147535714Y-106583333D01*
X147488095Y-106630952D01*
X147440476Y-106726190D01*
X147440476Y-107011904D01*
X147488095Y-107107142D01*
X147535714Y-107154761D01*
X147630952Y-107202380D01*
X147773809Y-107202380D01*
X147154761Y-106535714D02*
X146773809Y-106535714D01*
X147011904Y-106202380D02*
X147011904Y-107059523D01*
X146964285Y-107154761D01*
X146869047Y-107202380D01*
X146773809Y-107202380D01*
X146297619Y-107202380D02*
X146392857Y-107154761D01*
X146440476Y-107107142D01*
X146488095Y-107011904D01*
X146488095Y-106726190D01*
X146440476Y-106630952D01*
X146392857Y-106583333D01*
X146297619Y-106535714D01*
X146154761Y-106535714D01*
X146059523Y-106583333D01*
X146011904Y-106630952D01*
X145964285Y-106726190D01*
X145964285Y-107011904D01*
X146011904Y-107107142D01*
X146059523Y-107154761D01*
X146154761Y-107202380D01*
X146297619Y-107202380D01*
X145535714Y-106535714D02*
X145535714Y-107202380D01*
X145535714Y-106630952D02*
X145488095Y-106583333D01*
X145392857Y-106535714D01*
X145250000Y-106535714D01*
X145154761Y-106583333D01*
X145107142Y-106678571D01*
X145107142Y-107202380D01*
D11*
X61000000Y-167800000D02*
X150300000Y-167800000D01*
X150300000Y-167800000D02*
X150300000Y-112760000D01*
X150300000Y-112760000D02*
X61000000Y-112760000D01*
X61000000Y-112760000D02*
X61000000Y-167800000D01*
X65500000Y-164800000D02*
G75*
G03X65500000Y-164800000I-1500000J0D01*
G01*
X65500000Y-115760000D02*
G75*
G03X65500000Y-115760000I-1500000J0D01*
G01*
X148800000Y-115760000D02*
G75*
G03X148800000Y-115760000I-1500000J0D01*
G01*
X148800000Y-164800000D02*
G75*
G03X148800000Y-164800000I-1500000J0D01*
G01*
X66800000Y-167800000D02*
X144300000Y-167800000D01*
X144300000Y-167800000D02*
X144300000Y-112800000D01*
X144300000Y-112800000D02*
X66800000Y-112800000D01*
X66800000Y-112800000D02*
X66800000Y-167800000D01*
X127410000Y-112545000D02*
X127410000Y-109455000D01*
X132470000Y-111000000D02*
G75*
G03X132470000Y-111000000I-2500000J0D01*
G01*
X132960000Y-111000462D02*
G75*
G03X127410000Y-109455170I-2990000J462D01*
G01*
X132960000Y-110999538D02*
G75*
G02X127410000Y-112544830I-2990000J-462D01*
G01*
X134940000Y-112545000D02*
X134940000Y-109455000D01*
X140000000Y-111000000D02*
G75*
G03X140000000Y-111000000I-2500000J0D01*
G01*
X140490000Y-111000462D02*
G75*
G03X134940000Y-109455170I-2990000J462D01*
G01*
X140490000Y-110999538D02*
G75*
G02X134940000Y-112544830I-2990000J-462D01*
G01*
X157750000Y-110740000D02*
X162250000Y-110740000D01*
X156500000Y-114740000D02*
X156500000Y-113240000D01*
X162250000Y-117240000D02*
X157750000Y-117240000D01*
X163500000Y-113240000D02*
X163500000Y-114740000D01*
X120924000Y-109300000D02*
X124774000Y-109300000D01*
X124812611Y-109309878D02*
G75*
G02X120924000Y-109300000I-1948611J-1690122D01*
G01*
D10*
X70619904Y-163862380D02*
X70619904Y-164671904D01*
X70572285Y-164767142D01*
X70524666Y-164814761D01*
X70429428Y-164862380D01*
X70238952Y-164862380D01*
X70143714Y-164814761D01*
X70096095Y-164767142D01*
X70048476Y-164671904D01*
X70048476Y-163862380D01*
X69143714Y-164195714D02*
X69143714Y-164862380D01*
X69381809Y-163814761D02*
X69619904Y-164529047D01*
X69000857Y-164529047D01*
X130708095Y-115412380D02*
X130708095Y-114412380D01*
X130470000Y-114412380D01*
X130327142Y-114460000D01*
X130231904Y-114555238D01*
X130184285Y-114650476D01*
X130136666Y-114840952D01*
X130136666Y-114983809D01*
X130184285Y-115174285D01*
X130231904Y-115269523D01*
X130327142Y-115364761D01*
X130470000Y-115412380D01*
X130708095Y-115412380D01*
X129803333Y-114412380D02*
X129184285Y-114412380D01*
X129517619Y-114793333D01*
X129374761Y-114793333D01*
X129279523Y-114840952D01*
X129231904Y-114888571D01*
X129184285Y-114983809D01*
X129184285Y-115221904D01*
X129231904Y-115317142D01*
X129279523Y-115364761D01*
X129374761Y-115412380D01*
X129660476Y-115412380D01*
X129755714Y-115364761D01*
X129803333Y-115317142D01*
X138238095Y-115412380D02*
X138238095Y-114412380D01*
X138000000Y-114412380D01*
X137857142Y-114460000D01*
X137761904Y-114555238D01*
X137714285Y-114650476D01*
X137666666Y-114840952D01*
X137666666Y-114983809D01*
X137714285Y-115174285D01*
X137761904Y-115269523D01*
X137857142Y-115364761D01*
X138000000Y-115412380D01*
X138238095Y-115412380D01*
X137285714Y-114507619D02*
X137238095Y-114460000D01*
X137142857Y-114412380D01*
X136904761Y-114412380D01*
X136809523Y-114460000D01*
X136761904Y-114507619D01*
X136714285Y-114602857D01*
X136714285Y-114698095D01*
X136761904Y-114840952D01*
X137333333Y-115412380D01*
X136714285Y-115412380D01*
X161333333Y-118644761D02*
X161190476Y-118692380D01*
X160952380Y-118692380D01*
X160857142Y-118644761D01*
X160809523Y-118597142D01*
X160761904Y-118501904D01*
X160761904Y-118406666D01*
X160809523Y-118311428D01*
X160857142Y-118263809D01*
X160952380Y-118216190D01*
X161142857Y-118168571D01*
X161238095Y-118120952D01*
X161285714Y-118073333D01*
X161333333Y-117978095D01*
X161333333Y-117882857D01*
X161285714Y-117787619D01*
X161238095Y-117740000D01*
X161142857Y-117692380D01*
X160904761Y-117692380D01*
X160761904Y-117740000D01*
X160428571Y-117692380D02*
X160190476Y-118692380D01*
X160000000Y-117978095D01*
X159809523Y-118692380D01*
X159571428Y-117692380D01*
X158666666Y-118692380D02*
X159238095Y-118692380D01*
X158952380Y-118692380D02*
X158952380Y-117692380D01*
X159047619Y-117835238D01*
X159142857Y-117930476D01*
X159238095Y-117978095D01*
X123625904Y-114012380D02*
X123625904Y-114821904D01*
X123578285Y-114917142D01*
X123530666Y-114964761D01*
X123435428Y-115012380D01*
X123244952Y-115012380D01*
X123149714Y-114964761D01*
X123102095Y-114917142D01*
X123054476Y-114821904D01*
X123054476Y-114012380D01*
X122102095Y-114012380D02*
X122578285Y-114012380D01*
X122625904Y-114488571D01*
X122578285Y-114440952D01*
X122483047Y-114393333D01*
X122244952Y-114393333D01*
X122149714Y-114440952D01*
X122102095Y-114488571D01*
X122054476Y-114583809D01*
X122054476Y-114821904D01*
X122102095Y-114917142D01*
X122149714Y-114964761D01*
X122244952Y-115012380D01*
X122483047Y-115012380D01*
X122578285Y-114964761D01*
X122625904Y-114917142D01*
M02*
