G04 #@! TF.GenerationSoftware,KiCad,Pcbnew,5.1.12-84ad8e8a86~92~ubuntu20.04.1*
G04 #@! TF.CreationDate,2021-11-22T17:19:42+01:00*
G04 #@! TF.ProjectId,iotOnOff,696f744f-6e4f-4666-962e-6b696361645f,rev?*
G04 #@! TF.SameCoordinates,Original*
G04 #@! TF.FileFunction,Copper,L2,Bot*
G04 #@! TF.FilePolarity,Positive*
%FSLAX46Y46*%
G04 Gerber Fmt 4.6, Leading zero omitted, Abs format (unit mm)*
G04 Created by KiCad (PCBNEW 5.1.12-84ad8e8a86~92~ubuntu20.04.1) date 2021-11-22 17:19:42*
%MOMM*%
%LPD*%
G01*
G04 APERTURE LIST*
G04 #@! TA.AperFunction,SMDPad,CuDef*
%ADD10R,2.500000X1.000000*%
G04 #@! TD*
G04 #@! TA.AperFunction,SMDPad,CuDef*
%ADD11R,1.000000X1.800000*%
G04 #@! TD*
G04 #@! TA.AperFunction,ComponentPad*
%ADD12C,2.300000*%
G04 #@! TD*
G04 #@! TA.AperFunction,ComponentPad*
%ADD13R,2.300000X2.000000*%
G04 #@! TD*
G04 #@! TA.AperFunction,ComponentPad*
%ADD14C,2.000000*%
G04 #@! TD*
G04 #@! TA.AperFunction,ComponentPad*
%ADD15R,1.700000X1.700000*%
G04 #@! TD*
G04 #@! TA.AperFunction,ComponentPad*
%ADD16O,1.700000X1.700000*%
G04 #@! TD*
G04 #@! TA.AperFunction,SMDPad,CuDef*
%ADD17R,2.000000X3.800000*%
G04 #@! TD*
G04 #@! TA.AperFunction,SMDPad,CuDef*
%ADD18R,2.000000X1.500000*%
G04 #@! TD*
G04 #@! TA.AperFunction,SMDPad,CuDef*
%ADD19R,0.900000X0.800000*%
G04 #@! TD*
G04 #@! TA.AperFunction,ComponentPad*
%ADD20C,2.500000*%
G04 #@! TD*
G04 #@! TA.AperFunction,ComponentPad*
%ADD21C,3.000000*%
G04 #@! TD*
G04 #@! TA.AperFunction,ComponentPad*
%ADD22R,1.800000X1.800000*%
G04 #@! TD*
G04 #@! TA.AperFunction,ComponentPad*
%ADD23C,1.800000*%
G04 #@! TD*
G04 #@! TA.AperFunction,SMDPad,CuDef*
%ADD24R,0.500000X0.500000*%
G04 #@! TD*
G04 #@! TA.AperFunction,Conductor*
%ADD25C,0.300000*%
G04 #@! TD*
G04 #@! TA.AperFunction,Conductor*
%ADD26C,0.254000*%
G04 #@! TD*
G04 #@! TA.AperFunction,Conductor*
%ADD27C,0.100000*%
G04 #@! TD*
G04 APERTURE END LIST*
D10*
X128550000Y-99650000D03*
X128550000Y-97650000D03*
X128550000Y-95650000D03*
X128550000Y-93650000D03*
X128550000Y-91650000D03*
X128550000Y-89650000D03*
X128550000Y-87650000D03*
X128550000Y-85650000D03*
D11*
X131150000Y-84150000D03*
X133150000Y-84150000D03*
X135150000Y-84150000D03*
X137150000Y-84150000D03*
X139150000Y-84150000D03*
X141150000Y-84150000D03*
D10*
X143750000Y-85650000D03*
X143750000Y-87650000D03*
X143750000Y-89650000D03*
X143750000Y-91650000D03*
X143750000Y-93650000D03*
X143750000Y-95650000D03*
X143750000Y-97650000D03*
X143750000Y-99650000D03*
D12*
X146700000Y-105900000D03*
X117300000Y-100700000D03*
D13*
X117300000Y-95700000D03*
D12*
X146700000Y-90500000D03*
D14*
X124300000Y-81850000D03*
X124300000Y-86350000D03*
X117800000Y-81850000D03*
X117800000Y-86350000D03*
X178400000Y-92450000D03*
X178400000Y-100950000D03*
D15*
X153350000Y-107400000D03*
D16*
X155890000Y-107400000D03*
X158430000Y-107400000D03*
X160970000Y-107400000D03*
D14*
X101550000Y-100100000D03*
X101550000Y-91600000D03*
D17*
X122700000Y-106600000D03*
D18*
X116400000Y-106600000D03*
X116400000Y-104300000D03*
X116400000Y-108900000D03*
G04 #@! TA.AperFunction,SMDPad,CuDef*
G36*
G01*
X125206250Y-92925000D02*
X124293750Y-92925000D01*
G75*
G02*
X124050000Y-92681250I0J243750D01*
G01*
X124050000Y-92193750D01*
G75*
G02*
X124293750Y-91950000I243750J0D01*
G01*
X125206250Y-91950000D01*
G75*
G02*
X125450000Y-92193750I0J-243750D01*
G01*
X125450000Y-92681250D01*
G75*
G02*
X125206250Y-92925000I-243750J0D01*
G01*
G37*
G04 #@! TD.AperFunction*
G04 #@! TA.AperFunction,SMDPad,CuDef*
G36*
G01*
X125206250Y-91050000D02*
X124293750Y-91050000D01*
G75*
G02*
X124050000Y-90806250I0J243750D01*
G01*
X124050000Y-90318750D01*
G75*
G02*
X124293750Y-90075000I243750J0D01*
G01*
X125206250Y-90075000D01*
G75*
G02*
X125450000Y-90318750I0J-243750D01*
G01*
X125450000Y-90806250D01*
G75*
G02*
X125206250Y-91050000I-243750J0D01*
G01*
G37*
G04 #@! TD.AperFunction*
G04 #@! TA.AperFunction,SMDPad,CuDef*
G36*
G01*
X108375000Y-90656250D02*
X108375000Y-89743750D01*
G75*
G02*
X108618750Y-89500000I243750J0D01*
G01*
X109106250Y-89500000D01*
G75*
G02*
X109350000Y-89743750I0J-243750D01*
G01*
X109350000Y-90656250D01*
G75*
G02*
X109106250Y-90900000I-243750J0D01*
G01*
X108618750Y-90900000D01*
G75*
G02*
X108375000Y-90656250I0J243750D01*
G01*
G37*
G04 #@! TD.AperFunction*
G04 #@! TA.AperFunction,SMDPad,CuDef*
G36*
G01*
X110250000Y-90656250D02*
X110250000Y-89743750D01*
G75*
G02*
X110493750Y-89500000I243750J0D01*
G01*
X110981250Y-89500000D01*
G75*
G02*
X111225000Y-89743750I0J-243750D01*
G01*
X111225000Y-90656250D01*
G75*
G02*
X110981250Y-90900000I-243750J0D01*
G01*
X110493750Y-90900000D01*
G75*
G02*
X110250000Y-90656250I0J243750D01*
G01*
G37*
G04 #@! TD.AperFunction*
G04 #@! TA.AperFunction,SMDPad,CuDef*
G36*
G01*
X155556250Y-85625000D02*
X154643750Y-85625000D01*
G75*
G02*
X154400000Y-85381250I0J243750D01*
G01*
X154400000Y-84893750D01*
G75*
G02*
X154643750Y-84650000I243750J0D01*
G01*
X155556250Y-84650000D01*
G75*
G02*
X155800000Y-84893750I0J-243750D01*
G01*
X155800000Y-85381250D01*
G75*
G02*
X155556250Y-85625000I-243750J0D01*
G01*
G37*
G04 #@! TD.AperFunction*
G04 #@! TA.AperFunction,SMDPad,CuDef*
G36*
G01*
X155556250Y-83750000D02*
X154643750Y-83750000D01*
G75*
G02*
X154400000Y-83506250I0J243750D01*
G01*
X154400000Y-83018750D01*
G75*
G02*
X154643750Y-82775000I243750J0D01*
G01*
X155556250Y-82775000D01*
G75*
G02*
X155800000Y-83018750I0J-243750D01*
G01*
X155800000Y-83506250D01*
G75*
G02*
X155556250Y-83750000I-243750J0D01*
G01*
G37*
G04 #@! TD.AperFunction*
G04 #@! TA.AperFunction,SMDPad,CuDef*
G36*
G01*
X154643750Y-87975000D02*
X155556250Y-87975000D01*
G75*
G02*
X155800000Y-88218750I0J-243750D01*
G01*
X155800000Y-88706250D01*
G75*
G02*
X155556250Y-88950000I-243750J0D01*
G01*
X154643750Y-88950000D01*
G75*
G02*
X154400000Y-88706250I0J243750D01*
G01*
X154400000Y-88218750D01*
G75*
G02*
X154643750Y-87975000I243750J0D01*
G01*
G37*
G04 #@! TD.AperFunction*
G04 #@! TA.AperFunction,SMDPad,CuDef*
G36*
G01*
X154643750Y-89850000D02*
X155556250Y-89850000D01*
G75*
G02*
X155800000Y-90093750I0J-243750D01*
G01*
X155800000Y-90581250D01*
G75*
G02*
X155556250Y-90825000I-243750J0D01*
G01*
X154643750Y-90825000D01*
G75*
G02*
X154400000Y-90581250I0J243750D01*
G01*
X154400000Y-90093750D01*
G75*
G02*
X154643750Y-89850000I243750J0D01*
G01*
G37*
G04 #@! TD.AperFunction*
G04 #@! TA.AperFunction,SMDPad,CuDef*
G36*
G01*
X117293750Y-90075000D02*
X118206250Y-90075000D01*
G75*
G02*
X118450000Y-90318750I0J-243750D01*
G01*
X118450000Y-90806250D01*
G75*
G02*
X118206250Y-91050000I-243750J0D01*
G01*
X117293750Y-91050000D01*
G75*
G02*
X117050000Y-90806250I0J243750D01*
G01*
X117050000Y-90318750D01*
G75*
G02*
X117293750Y-90075000I243750J0D01*
G01*
G37*
G04 #@! TD.AperFunction*
G04 #@! TA.AperFunction,SMDPad,CuDef*
G36*
G01*
X117293750Y-91950000D02*
X118206250Y-91950000D01*
G75*
G02*
X118450000Y-92193750I0J-243750D01*
G01*
X118450000Y-92681250D01*
G75*
G02*
X118206250Y-92925000I-243750J0D01*
G01*
X117293750Y-92925000D01*
G75*
G02*
X117050000Y-92681250I0J243750D01*
G01*
X117050000Y-92193750D01*
G75*
G02*
X117293750Y-91950000I243750J0D01*
G01*
G37*
G04 #@! TD.AperFunction*
D19*
X159150000Y-89100000D03*
X159150000Y-87200000D03*
X161150000Y-88150000D03*
D20*
X163550000Y-96450000D03*
D21*
X163550000Y-84250000D03*
X151500000Y-84200000D03*
D20*
X151550000Y-96450000D03*
D21*
X157500000Y-98400000D03*
D22*
X106950000Y-82900000D03*
D23*
X109490000Y-82900000D03*
D24*
X156700000Y-94150000D03*
X158900000Y-94150000D03*
G04 #@! TA.AperFunction,SMDPad,CuDef*
G36*
G01*
X121606250Y-92925000D02*
X120693750Y-92925000D01*
G75*
G02*
X120450000Y-92681250I0J243750D01*
G01*
X120450000Y-92193750D01*
G75*
G02*
X120693750Y-91950000I243750J0D01*
G01*
X121606250Y-91950000D01*
G75*
G02*
X121850000Y-92193750I0J-243750D01*
G01*
X121850000Y-92681250D01*
G75*
G02*
X121606250Y-92925000I-243750J0D01*
G01*
G37*
G04 #@! TD.AperFunction*
G04 #@! TA.AperFunction,SMDPad,CuDef*
G36*
G01*
X121606250Y-91050000D02*
X120693750Y-91050000D01*
G75*
G02*
X120450000Y-90806250I0J243750D01*
G01*
X120450000Y-90318750D01*
G75*
G02*
X120693750Y-90075000I243750J0D01*
G01*
X121606250Y-90075000D01*
G75*
G02*
X121850000Y-90318750I0J-243750D01*
G01*
X121850000Y-90806250D01*
G75*
G02*
X121606250Y-91050000I-243750J0D01*
G01*
G37*
G04 #@! TD.AperFunction*
G04 #@! TA.AperFunction,SMDPad,CuDef*
G36*
G01*
X151956250Y-91775000D02*
X151043750Y-91775000D01*
G75*
G02*
X150800000Y-91531250I0J243750D01*
G01*
X150800000Y-91043750D01*
G75*
G02*
X151043750Y-90800000I243750J0D01*
G01*
X151956250Y-90800000D01*
G75*
G02*
X152200000Y-91043750I0J-243750D01*
G01*
X152200000Y-91531250D01*
G75*
G02*
X151956250Y-91775000I-243750J0D01*
G01*
G37*
G04 #@! TD.AperFunction*
G04 #@! TA.AperFunction,SMDPad,CuDef*
G36*
G01*
X151956250Y-89900000D02*
X151043750Y-89900000D01*
G75*
G02*
X150800000Y-89656250I0J243750D01*
G01*
X150800000Y-89168750D01*
G75*
G02*
X151043750Y-88925000I243750J0D01*
G01*
X151956250Y-88925000D01*
G75*
G02*
X152200000Y-89168750I0J-243750D01*
G01*
X152200000Y-89656250D01*
G75*
G02*
X151956250Y-89900000I-243750J0D01*
G01*
G37*
G04 #@! TD.AperFunction*
D25*
X124300000Y-86350000D02*
X117800000Y-86350000D01*
X145100000Y-104300000D02*
X116400000Y-104300000D01*
X146700000Y-105900000D02*
X145100000Y-104300000D01*
X151500000Y-96400000D02*
X151550000Y-96450000D01*
X151500000Y-91287500D02*
X151500000Y-96400000D01*
X153850000Y-94150000D02*
X151550000Y-96450000D01*
X156700000Y-94150000D02*
X153850000Y-94150000D01*
X149400001Y-108600001D02*
X146700000Y-105900000D01*
X159006001Y-108600001D02*
X149400001Y-108600001D01*
X159769999Y-107836003D02*
X159006001Y-108600001D01*
X159769999Y-104669999D02*
X159769999Y-107836003D01*
X151550000Y-96450000D02*
X159769999Y-104669999D01*
X122875000Y-92437500D02*
X124750000Y-90562500D01*
X121150000Y-92437500D02*
X122875000Y-92437500D01*
X121150000Y-92437500D02*
X117750000Y-92437500D01*
X124750000Y-90219998D02*
X124750000Y-90562500D01*
X153350000Y-107142880D02*
X153350000Y-107400000D01*
X153350000Y-107400000D02*
X148907120Y-107400000D01*
X115119999Y-103199999D02*
X115049999Y-103269999D01*
X146220001Y-103199999D02*
X115119999Y-103199999D01*
X115049999Y-105249999D02*
X116400000Y-106600000D01*
X148907120Y-105887118D02*
X146220001Y-103199999D01*
X115049999Y-103269999D02*
X115049999Y-105249999D01*
X148907120Y-107400000D02*
X148907120Y-105887118D01*
X128550000Y-85650000D02*
X129300000Y-85650000D01*
X126512501Y-88799999D02*
X124750000Y-90562500D01*
X129780003Y-88799999D02*
X126512501Y-88799999D01*
X130150001Y-88430001D02*
X129780003Y-88799999D01*
X130150001Y-86500001D02*
X130150001Y-88430001D01*
X129300000Y-85650000D02*
X130150001Y-86500001D01*
X129842502Y-90562500D02*
X132480002Y-93200000D01*
X124750000Y-90562500D02*
X129842502Y-90562500D01*
X132480002Y-93200000D02*
X139450000Y-93200000D01*
X139450000Y-93200000D02*
X142000000Y-95750000D01*
X142000000Y-100280002D02*
X142569998Y-100850000D01*
X142000000Y-95750000D02*
X142000000Y-100280002D01*
X142569998Y-100850000D02*
X152000000Y-100850000D01*
X153350000Y-102200000D02*
X153350000Y-107400000D01*
X152000000Y-100850000D02*
X153350000Y-102200000D01*
X161250000Y-94150000D02*
X163550000Y-96450000D01*
X158900000Y-94150000D02*
X161250000Y-94150000D01*
X161150000Y-94050000D02*
X163550000Y-96450000D01*
X161150000Y-88150000D02*
X161150000Y-94050000D01*
X108862500Y-83527500D02*
X109490000Y-82900000D01*
X108862500Y-90200000D02*
X108862500Y-83527500D01*
X150381998Y-97650000D02*
X158181998Y-105450000D01*
X143750000Y-97650000D02*
X150381998Y-97650000D01*
X158181998Y-107151998D02*
X158430000Y-107400000D01*
X158181998Y-105450000D02*
X158181998Y-107151998D01*
X143750000Y-99650000D02*
X151674878Y-99650000D01*
X155890000Y-103865122D02*
X155890000Y-107400000D01*
X151674878Y-99650000D02*
X155890000Y-103865122D01*
X155737500Y-89100000D02*
X155100000Y-88462500D01*
X159150000Y-89100000D02*
X155737500Y-89100000D01*
X155100000Y-85137500D02*
X155100000Y-88462500D01*
X116449999Y-89262499D02*
X117750000Y-90562500D01*
X116449999Y-85701999D02*
X116449999Y-89262499D01*
X117800000Y-84351998D02*
X116449999Y-85701999D01*
X117800000Y-81850000D02*
X117800000Y-84351998D01*
X127130002Y-81850000D02*
X124300000Y-81850000D01*
X130150001Y-84869999D02*
X127130002Y-81850000D01*
X130150001Y-85180003D02*
X130150001Y-84869999D01*
X136619998Y-91650000D02*
X130150001Y-85180003D01*
X143750000Y-91650000D02*
X136619998Y-91650000D01*
X130100000Y-89650000D02*
X128550000Y-89650000D01*
X132950001Y-92500001D02*
X130100000Y-89650000D01*
X146920001Y-92500001D02*
X132950001Y-92500001D01*
X149082502Y-90337500D02*
X146920001Y-92500001D01*
X155100000Y-90337500D02*
X149082502Y-90337500D01*
X128550000Y-87650000D02*
X128499999Y-87700001D01*
X126122794Y-87650000D02*
X128550000Y-87650000D01*
X122372784Y-91400010D02*
X126122794Y-87650000D01*
X111937510Y-91400010D02*
X122372784Y-91400010D01*
X110737500Y-90200000D02*
X111937510Y-91400010D01*
X127962500Y-95650000D02*
X128550000Y-95650000D01*
X124750000Y-92437500D02*
X127962500Y-95650000D01*
D26*
X131325001Y-81008972D02*
X131320960Y-81050000D01*
X131337082Y-81213689D01*
X131384828Y-81371087D01*
X131462364Y-81516146D01*
X131566709Y-81643291D01*
X131693854Y-81747636D01*
X131838913Y-81825172D01*
X131996311Y-81872918D01*
X132118981Y-81885000D01*
X132118982Y-81885000D01*
X132160000Y-81889040D01*
X132201019Y-81885000D01*
X147118982Y-81885000D01*
X147160000Y-81889040D01*
X147323689Y-81872918D01*
X147481087Y-81825172D01*
X147626146Y-81747636D01*
X147753291Y-81643291D01*
X147857636Y-81516146D01*
X147935172Y-81371087D01*
X147982918Y-81213689D01*
X147995000Y-81091019D01*
X147999040Y-81050000D01*
X147995000Y-81008981D01*
X147995000Y-79885000D01*
X180325000Y-79885000D01*
X180325001Y-110215000D01*
X147995000Y-110215000D01*
X147995000Y-109091019D01*
X147999040Y-109050000D01*
X147982918Y-108886311D01*
X147935172Y-108728913D01*
X147857636Y-108583854D01*
X147753291Y-108456709D01*
X147626146Y-108352364D01*
X147481087Y-108274828D01*
X147323689Y-108227082D01*
X147201019Y-108215000D01*
X147201018Y-108215000D01*
X147160000Y-108210960D01*
X147118981Y-108215000D01*
X132201018Y-108215000D01*
X132160000Y-108210960D01*
X132118981Y-108215000D01*
X131996311Y-108227082D01*
X131838913Y-108274828D01*
X131693854Y-108352364D01*
X131566709Y-108456709D01*
X131462364Y-108583854D01*
X131384828Y-108728913D01*
X131337082Y-108886311D01*
X131320960Y-109050000D01*
X131325000Y-109091019D01*
X131325001Y-110215000D01*
X117690019Y-110215000D01*
X117754494Y-110180537D01*
X117851185Y-110101185D01*
X117930537Y-110004494D01*
X117989502Y-109894180D01*
X118025812Y-109774482D01*
X118038072Y-109650000D01*
X118035000Y-109185750D01*
X117876250Y-109027000D01*
X116527000Y-109027000D01*
X116527000Y-109047000D01*
X116273000Y-109047000D01*
X116273000Y-109027000D01*
X114923750Y-109027000D01*
X114765000Y-109185750D01*
X114761928Y-109650000D01*
X114774188Y-109774482D01*
X114810498Y-109894180D01*
X114869463Y-110004494D01*
X114948815Y-110101185D01*
X115045506Y-110180537D01*
X115109981Y-110215000D01*
X99995000Y-110215000D01*
X99995000Y-100618359D01*
X100101082Y-100874463D01*
X100280013Y-101142252D01*
X100507748Y-101369987D01*
X100775537Y-101548918D01*
X101073088Y-101672168D01*
X101388967Y-101735000D01*
X101711033Y-101735000D01*
X102026912Y-101672168D01*
X102324463Y-101548918D01*
X102592252Y-101369987D01*
X102819987Y-101142252D01*
X102998918Y-100874463D01*
X103122168Y-100576912D01*
X103185000Y-100261033D01*
X103185000Y-99938967D01*
X103122168Y-99623088D01*
X102998918Y-99325537D01*
X102819987Y-99057748D01*
X102592252Y-98830013D01*
X102324463Y-98651082D01*
X102026912Y-98527832D01*
X101711033Y-98465000D01*
X101388967Y-98465000D01*
X101073088Y-98527832D01*
X100775537Y-98651082D01*
X100507748Y-98830013D01*
X100280013Y-99057748D01*
X100101082Y-99325537D01*
X99995000Y-99581641D01*
X99995000Y-94700000D01*
X115511928Y-94700000D01*
X115511928Y-96700000D01*
X115524188Y-96824482D01*
X115560498Y-96944180D01*
X115619463Y-97054494D01*
X115698815Y-97151185D01*
X115795506Y-97230537D01*
X115905820Y-97289502D01*
X116025518Y-97325812D01*
X116150000Y-97338072D01*
X118450000Y-97338072D01*
X118574482Y-97325812D01*
X118694180Y-97289502D01*
X118804494Y-97230537D01*
X118901185Y-97151185D01*
X118980537Y-97054494D01*
X119039502Y-96944180D01*
X119075812Y-96824482D01*
X119088072Y-96700000D01*
X119088072Y-94700000D01*
X119075812Y-94575518D01*
X119039502Y-94455820D01*
X118980537Y-94345506D01*
X118901185Y-94248815D01*
X118804494Y-94169463D01*
X118694180Y-94110498D01*
X118574482Y-94074188D01*
X118450000Y-94061928D01*
X116150000Y-94061928D01*
X116025518Y-94074188D01*
X115905820Y-94110498D01*
X115795506Y-94169463D01*
X115698815Y-94248815D01*
X115619463Y-94345506D01*
X115560498Y-94455820D01*
X115524188Y-94575518D01*
X115511928Y-94700000D01*
X99995000Y-94700000D01*
X99995000Y-92118359D01*
X100101082Y-92374463D01*
X100280013Y-92642252D01*
X100507748Y-92869987D01*
X100775537Y-93048918D01*
X101073088Y-93172168D01*
X101388967Y-93235000D01*
X101711033Y-93235000D01*
X102026912Y-93172168D01*
X102324463Y-93048918D01*
X102592252Y-92869987D01*
X102819987Y-92642252D01*
X102998918Y-92374463D01*
X103122168Y-92076912D01*
X103185000Y-91761033D01*
X103185000Y-91438967D01*
X103122168Y-91123088D01*
X102998918Y-90825537D01*
X102819987Y-90557748D01*
X102592252Y-90330013D01*
X102324463Y-90151082D01*
X102026912Y-90027832D01*
X101711033Y-89965000D01*
X101388967Y-89965000D01*
X101073088Y-90027832D01*
X100775537Y-90151082D01*
X100507748Y-90330013D01*
X100280013Y-90557748D01*
X100101082Y-90825537D01*
X99995000Y-91081641D01*
X99995000Y-83800000D01*
X105411928Y-83800000D01*
X105424188Y-83924482D01*
X105460498Y-84044180D01*
X105519463Y-84154494D01*
X105598815Y-84251185D01*
X105695506Y-84330537D01*
X105805820Y-84389502D01*
X105925518Y-84425812D01*
X106050000Y-84438072D01*
X106664250Y-84435000D01*
X106823000Y-84276250D01*
X106823000Y-83027000D01*
X105573750Y-83027000D01*
X105415000Y-83185750D01*
X105411928Y-83800000D01*
X99995000Y-83800000D01*
X99995000Y-82000000D01*
X105411928Y-82000000D01*
X105415000Y-82614250D01*
X105573750Y-82773000D01*
X106823000Y-82773000D01*
X106823000Y-81523750D01*
X107077000Y-81523750D01*
X107077000Y-82773000D01*
X107097000Y-82773000D01*
X107097000Y-83027000D01*
X107077000Y-83027000D01*
X107077000Y-84276250D01*
X107235750Y-84435000D01*
X107850000Y-84438072D01*
X107974482Y-84425812D01*
X108077501Y-84394562D01*
X108077500Y-89052672D01*
X107995208Y-89120208D01*
X107885542Y-89253836D01*
X107804053Y-89406291D01*
X107753872Y-89571715D01*
X107736928Y-89743750D01*
X107736928Y-90656250D01*
X107753872Y-90828285D01*
X107804053Y-90993709D01*
X107885542Y-91146164D01*
X107995208Y-91279792D01*
X108128836Y-91389458D01*
X108281291Y-91470947D01*
X108446715Y-91521128D01*
X108618750Y-91538072D01*
X109106250Y-91538072D01*
X109278285Y-91521128D01*
X109443709Y-91470947D01*
X109596164Y-91389458D01*
X109729792Y-91279792D01*
X109800000Y-91194244D01*
X109870208Y-91279792D01*
X110003836Y-91389458D01*
X110156291Y-91470947D01*
X110321715Y-91521128D01*
X110493750Y-91538072D01*
X110965414Y-91538072D01*
X111355168Y-91927825D01*
X111379746Y-91957774D01*
X111409694Y-91982352D01*
X111409697Y-91982355D01*
X111430306Y-91999268D01*
X111499277Y-92055872D01*
X111635650Y-92128764D01*
X111749182Y-92163204D01*
X111783622Y-92173651D01*
X111798000Y-92175067D01*
X111898949Y-92185010D01*
X111898956Y-92185010D01*
X111937509Y-92188807D01*
X111976062Y-92185010D01*
X116412789Y-92185010D01*
X116411928Y-92193750D01*
X116411928Y-92681250D01*
X116428872Y-92853285D01*
X116479053Y-93018709D01*
X116560542Y-93171164D01*
X116670208Y-93304792D01*
X116803836Y-93414458D01*
X116956291Y-93495947D01*
X117121715Y-93546128D01*
X117293750Y-93563072D01*
X118206250Y-93563072D01*
X118378285Y-93546128D01*
X118543709Y-93495947D01*
X118696164Y-93414458D01*
X118829792Y-93304792D01*
X118897328Y-93222500D01*
X120002672Y-93222500D01*
X120070208Y-93304792D01*
X120203836Y-93414458D01*
X120356291Y-93495947D01*
X120521715Y-93546128D01*
X120693750Y-93563072D01*
X121606250Y-93563072D01*
X121778285Y-93546128D01*
X121943709Y-93495947D01*
X122096164Y-93414458D01*
X122229792Y-93304792D01*
X122297328Y-93222500D01*
X122836447Y-93222500D01*
X122875000Y-93226297D01*
X122913553Y-93222500D01*
X122913561Y-93222500D01*
X123028887Y-93211141D01*
X123176860Y-93166254D01*
X123313233Y-93093362D01*
X123432764Y-92995264D01*
X123457347Y-92965310D01*
X123461573Y-92961084D01*
X123479053Y-93018709D01*
X123560542Y-93171164D01*
X123670208Y-93304792D01*
X123803836Y-93414458D01*
X123956291Y-93495947D01*
X124121715Y-93546128D01*
X124293750Y-93563072D01*
X124765415Y-93563072D01*
X126661928Y-95459586D01*
X126661928Y-96150000D01*
X126674188Y-96274482D01*
X126710498Y-96394180D01*
X126769463Y-96504494D01*
X126848815Y-96601185D01*
X126908296Y-96650000D01*
X126848815Y-96698815D01*
X126769463Y-96795506D01*
X126710498Y-96905820D01*
X126674188Y-97025518D01*
X126661928Y-97150000D01*
X126661928Y-98150000D01*
X126674188Y-98274482D01*
X126710498Y-98394180D01*
X126769463Y-98504494D01*
X126848815Y-98601185D01*
X126908296Y-98650000D01*
X126848815Y-98698815D01*
X126769463Y-98795506D01*
X126710498Y-98905820D01*
X126674188Y-99025518D01*
X126661928Y-99150000D01*
X126661928Y-100150000D01*
X126674188Y-100274482D01*
X126710498Y-100394180D01*
X126769463Y-100504494D01*
X126848815Y-100601185D01*
X126945506Y-100680537D01*
X127055820Y-100739502D01*
X127175518Y-100775812D01*
X127300000Y-100788072D01*
X129800000Y-100788072D01*
X129924482Y-100775812D01*
X130044180Y-100739502D01*
X130154494Y-100680537D01*
X130251185Y-100601185D01*
X130330537Y-100504494D01*
X130389502Y-100394180D01*
X130425812Y-100274482D01*
X130438072Y-100150000D01*
X130438072Y-99150000D01*
X130425812Y-99025518D01*
X130389502Y-98905820D01*
X130330537Y-98795506D01*
X130251185Y-98698815D01*
X130191704Y-98650000D01*
X130251185Y-98601185D01*
X130330537Y-98504494D01*
X130389502Y-98394180D01*
X130425812Y-98274482D01*
X130438072Y-98150000D01*
X130438072Y-97150000D01*
X130425812Y-97025518D01*
X130389502Y-96905820D01*
X130330537Y-96795506D01*
X130251185Y-96698815D01*
X130191704Y-96650000D01*
X130251185Y-96601185D01*
X130330537Y-96504494D01*
X130389502Y-96394180D01*
X130425812Y-96274482D01*
X130438072Y-96150000D01*
X130438072Y-95150000D01*
X130425812Y-95025518D01*
X130389502Y-94905820D01*
X130330537Y-94795506D01*
X130251185Y-94698815D01*
X130191704Y-94650000D01*
X130251185Y-94601185D01*
X130330537Y-94504494D01*
X130389502Y-94394180D01*
X130425812Y-94274482D01*
X130438072Y-94150000D01*
X130438072Y-93150000D01*
X130425812Y-93025518D01*
X130389502Y-92905820D01*
X130330537Y-92795506D01*
X130251185Y-92698815D01*
X130191704Y-92650000D01*
X130251185Y-92601185D01*
X130330537Y-92504494D01*
X130389502Y-92394180D01*
X130425812Y-92274482D01*
X130427472Y-92257627D01*
X131897660Y-93727816D01*
X131922238Y-93757764D01*
X131952186Y-93782342D01*
X131952189Y-93782345D01*
X131981561Y-93806450D01*
X132041769Y-93855862D01*
X132178142Y-93928754D01*
X132291674Y-93963194D01*
X132326114Y-93973641D01*
X132340492Y-93975057D01*
X132441441Y-93985000D01*
X132441448Y-93985000D01*
X132480001Y-93988797D01*
X132518554Y-93985000D01*
X139124843Y-93985000D01*
X141215000Y-96075157D01*
X141215001Y-100241439D01*
X141211203Y-100280002D01*
X141226359Y-100433888D01*
X141271246Y-100581861D01*
X141271247Y-100581862D01*
X141344139Y-100718235D01*
X141361593Y-100739502D01*
X141417655Y-100807814D01*
X141417659Y-100807818D01*
X141442237Y-100837766D01*
X141472185Y-100862344D01*
X141987655Y-101377815D01*
X142012234Y-101407764D01*
X142042182Y-101432342D01*
X142042185Y-101432345D01*
X142071557Y-101456450D01*
X142131765Y-101505862D01*
X142268138Y-101578754D01*
X142416111Y-101623642D01*
X142491024Y-101631020D01*
X142531437Y-101635000D01*
X142531442Y-101635000D01*
X142569998Y-101638797D01*
X142608554Y-101635000D01*
X151674843Y-101635000D01*
X152565000Y-102525158D01*
X152565001Y-105911928D01*
X152500000Y-105911928D01*
X152375518Y-105924188D01*
X152255820Y-105960498D01*
X152145506Y-106019463D01*
X152048815Y-106098815D01*
X151969463Y-106195506D01*
X151910498Y-106305820D01*
X151874188Y-106425518D01*
X151861928Y-106550000D01*
X151861928Y-106615000D01*
X149692120Y-106615000D01*
X149692120Y-105925670D01*
X149695917Y-105887117D01*
X149692120Y-105848564D01*
X149692120Y-105848557D01*
X149680761Y-105733231D01*
X149678422Y-105725518D01*
X149635874Y-105585258D01*
X149618022Y-105551859D01*
X149562982Y-105448885D01*
X149505903Y-105379335D01*
X149489465Y-105359305D01*
X149489462Y-105359302D01*
X149464884Y-105329354D01*
X149434936Y-105304776D01*
X146802348Y-102672189D01*
X146777765Y-102642235D01*
X146658234Y-102544137D01*
X146521861Y-102471245D01*
X146373888Y-102426358D01*
X146258562Y-102414999D01*
X146258554Y-102414999D01*
X146220001Y-102411202D01*
X146181448Y-102414999D01*
X117824057Y-102414999D01*
X118145515Y-102281847D01*
X118437871Y-102086500D01*
X118686500Y-101837871D01*
X118881847Y-101545515D01*
X119016404Y-101220665D01*
X119085000Y-100875807D01*
X119085000Y-100524193D01*
X119016404Y-100179335D01*
X118881847Y-99854485D01*
X118686500Y-99562129D01*
X118437871Y-99313500D01*
X118145515Y-99118153D01*
X117820665Y-98983596D01*
X117475807Y-98915000D01*
X117124193Y-98915000D01*
X116779335Y-98983596D01*
X116454485Y-99118153D01*
X116162129Y-99313500D01*
X115913500Y-99562129D01*
X115718153Y-99854485D01*
X115583596Y-100179335D01*
X115515000Y-100524193D01*
X115515000Y-100875807D01*
X115583596Y-101220665D01*
X115718153Y-101545515D01*
X115913500Y-101837871D01*
X116162129Y-102086500D01*
X116454485Y-102281847D01*
X116775943Y-102414999D01*
X115158554Y-102414999D01*
X115119999Y-102411202D01*
X115081444Y-102414999D01*
X115081438Y-102414999D01*
X115037048Y-102419371D01*
X114966113Y-102426357D01*
X114863027Y-102457628D01*
X114818139Y-102471245D01*
X114681766Y-102544137D01*
X114562235Y-102642235D01*
X114537652Y-102672189D01*
X114522189Y-102687652D01*
X114492235Y-102712235D01*
X114394137Y-102831767D01*
X114321245Y-102968140D01*
X114276358Y-103116113D01*
X114264999Y-103231439D01*
X114264999Y-103231446D01*
X114261202Y-103269999D01*
X114264999Y-103308552D01*
X114265000Y-105211436D01*
X114261202Y-105249999D01*
X114276358Y-105403885D01*
X114321245Y-105551858D01*
X114339098Y-105585258D01*
X114394138Y-105688232D01*
X114431068Y-105733231D01*
X114467654Y-105777811D01*
X114467658Y-105777815D01*
X114492236Y-105807763D01*
X114522184Y-105832341D01*
X114761928Y-106072085D01*
X114761928Y-107350000D01*
X114774188Y-107474482D01*
X114810498Y-107594180D01*
X114869463Y-107704494D01*
X114906809Y-107750000D01*
X114869463Y-107795506D01*
X114810498Y-107905820D01*
X114774188Y-108025518D01*
X114761928Y-108150000D01*
X114765000Y-108614250D01*
X114923750Y-108773000D01*
X116273000Y-108773000D01*
X116273000Y-108753000D01*
X116527000Y-108753000D01*
X116527000Y-108773000D01*
X117876250Y-108773000D01*
X118035000Y-108614250D01*
X118038072Y-108150000D01*
X118025812Y-108025518D01*
X117989502Y-107905820D01*
X117930537Y-107795506D01*
X117893191Y-107750000D01*
X117930537Y-107704494D01*
X117989502Y-107594180D01*
X118025812Y-107474482D01*
X118038072Y-107350000D01*
X118038072Y-105850000D01*
X118025812Y-105725518D01*
X117989502Y-105605820D01*
X117930537Y-105495506D01*
X117893191Y-105450000D01*
X117930537Y-105404494D01*
X117989502Y-105294180D01*
X118025812Y-105174482D01*
X118034625Y-105085000D01*
X121061928Y-105085000D01*
X121061928Y-108500000D01*
X121074188Y-108624482D01*
X121110498Y-108744180D01*
X121169463Y-108854494D01*
X121248815Y-108951185D01*
X121345506Y-109030537D01*
X121455820Y-109089502D01*
X121575518Y-109125812D01*
X121700000Y-109138072D01*
X123700000Y-109138072D01*
X123824482Y-109125812D01*
X123944180Y-109089502D01*
X124054494Y-109030537D01*
X124151185Y-108951185D01*
X124230537Y-108854494D01*
X124289502Y-108744180D01*
X124325812Y-108624482D01*
X124338072Y-108500000D01*
X124338072Y-105085000D01*
X144774843Y-105085000D01*
X145008662Y-105318819D01*
X144983596Y-105379335D01*
X144915000Y-105724193D01*
X144915000Y-106075807D01*
X144983596Y-106420665D01*
X145118153Y-106745515D01*
X145313500Y-107037871D01*
X145562129Y-107286500D01*
X145854485Y-107481847D01*
X146179335Y-107616404D01*
X146524193Y-107685000D01*
X146875807Y-107685000D01*
X147220665Y-107616404D01*
X147281180Y-107591338D01*
X148817659Y-109127817D01*
X148842237Y-109157765D01*
X148872185Y-109182343D01*
X148872188Y-109182346D01*
X148876336Y-109185750D01*
X148961768Y-109255863D01*
X149098141Y-109328755D01*
X149246114Y-109373642D01*
X149361440Y-109385001D01*
X149361447Y-109385001D01*
X149400000Y-109388798D01*
X149438553Y-109385001D01*
X158967448Y-109385001D01*
X159006001Y-109388798D01*
X159044554Y-109385001D01*
X159044562Y-109385001D01*
X159159888Y-109373642D01*
X159307861Y-109328755D01*
X159444234Y-109255863D01*
X159563765Y-109157765D01*
X159588348Y-109127812D01*
X160112260Y-108603899D01*
X160203080Y-108671641D01*
X160465901Y-108796825D01*
X160613110Y-108841476D01*
X160843000Y-108720155D01*
X160843000Y-107527000D01*
X161097000Y-107527000D01*
X161097000Y-108720155D01*
X161326890Y-108841476D01*
X161474099Y-108796825D01*
X161736920Y-108671641D01*
X161970269Y-108497588D01*
X162165178Y-108281355D01*
X162314157Y-108031252D01*
X162411481Y-107756891D01*
X162290814Y-107527000D01*
X161097000Y-107527000D01*
X160843000Y-107527000D01*
X160823000Y-107527000D01*
X160823000Y-107273000D01*
X160843000Y-107273000D01*
X160843000Y-106079845D01*
X161097000Y-106079845D01*
X161097000Y-107273000D01*
X162290814Y-107273000D01*
X162411481Y-107043109D01*
X162314157Y-106768748D01*
X162165178Y-106518645D01*
X161970269Y-106302412D01*
X161736920Y-106128359D01*
X161474099Y-106003175D01*
X161326890Y-105958524D01*
X161097000Y-106079845D01*
X160843000Y-106079845D01*
X160613110Y-105958524D01*
X160554999Y-105976150D01*
X160554999Y-105759170D01*
X163816340Y-105759170D01*
X163816340Y-106220830D01*
X163906406Y-106673620D01*
X164083075Y-107100139D01*
X164339560Y-107483996D01*
X164666004Y-107810440D01*
X165049861Y-108066925D01*
X165476380Y-108243594D01*
X165929170Y-108333660D01*
X166390830Y-108333660D01*
X166843620Y-108243594D01*
X167270139Y-108066925D01*
X167653996Y-107810440D01*
X167980440Y-107483996D01*
X168236925Y-107100139D01*
X168413594Y-106673620D01*
X168503660Y-106220830D01*
X168503660Y-105759170D01*
X168413594Y-105306380D01*
X168236925Y-104879861D01*
X167980440Y-104496004D01*
X167653996Y-104169560D01*
X167270139Y-103913075D01*
X166843620Y-103736406D01*
X166390830Y-103646340D01*
X165929170Y-103646340D01*
X165476380Y-103736406D01*
X165049861Y-103913075D01*
X164666004Y-104169560D01*
X164339560Y-104496004D01*
X164083075Y-104879861D01*
X163906406Y-105306380D01*
X163816340Y-105759170D01*
X160554999Y-105759170D01*
X160554999Y-104708551D01*
X160558796Y-104669998D01*
X160554999Y-104631445D01*
X160554999Y-104631438D01*
X160543640Y-104516112D01*
X160498753Y-104368139D01*
X160425861Y-104231766D01*
X160374809Y-104169560D01*
X160352344Y-104142186D01*
X160352341Y-104142183D01*
X160327763Y-104112235D01*
X160297816Y-104087658D01*
X156999125Y-100788967D01*
X176765000Y-100788967D01*
X176765000Y-101111033D01*
X176827832Y-101426912D01*
X176951082Y-101724463D01*
X177130013Y-101992252D01*
X177357748Y-102219987D01*
X177625537Y-102398918D01*
X177923088Y-102522168D01*
X178238967Y-102585000D01*
X178561033Y-102585000D01*
X178876912Y-102522168D01*
X179174463Y-102398918D01*
X179442252Y-102219987D01*
X179669987Y-101992252D01*
X179848918Y-101724463D01*
X179972168Y-101426912D01*
X180035000Y-101111033D01*
X180035000Y-100788967D01*
X179972168Y-100473088D01*
X179848918Y-100175537D01*
X179669987Y-99907748D01*
X179442252Y-99680013D01*
X179174463Y-99501082D01*
X178876912Y-99377832D01*
X178561033Y-99315000D01*
X178238967Y-99315000D01*
X177923088Y-99377832D01*
X177625537Y-99501082D01*
X177357748Y-99680013D01*
X177130013Y-99907748D01*
X176951082Y-100175537D01*
X176827832Y-100473088D01*
X176765000Y-100788967D01*
X156999125Y-100788967D01*
X156511695Y-100301538D01*
X156877244Y-100452953D01*
X157289721Y-100535000D01*
X157710279Y-100535000D01*
X158122756Y-100452953D01*
X158511302Y-100292012D01*
X158860983Y-100058363D01*
X159158363Y-99760983D01*
X159392012Y-99411302D01*
X159552953Y-99022756D01*
X159635000Y-98610279D01*
X159635000Y-98189721D01*
X159552953Y-97777244D01*
X159392012Y-97388698D01*
X159158363Y-97039017D01*
X158860983Y-96741637D01*
X158511302Y-96507988D01*
X158122756Y-96347047D01*
X157710279Y-96265000D01*
X157289721Y-96265000D01*
X156877244Y-96347047D01*
X156488698Y-96507988D01*
X156139017Y-96741637D01*
X155841637Y-97039017D01*
X155607988Y-97388698D01*
X155447047Y-97777244D01*
X155365000Y-98189721D01*
X155365000Y-98610279D01*
X155447047Y-99022756D01*
X155598462Y-99388305D01*
X153317874Y-97107717D01*
X153362561Y-96999834D01*
X153435000Y-96635656D01*
X153435000Y-96264344D01*
X153362561Y-95900166D01*
X153317874Y-95792283D01*
X154175158Y-94935000D01*
X156103856Y-94935000D01*
X156205820Y-94989502D01*
X156325518Y-95025812D01*
X156450000Y-95038072D01*
X156950000Y-95038072D01*
X157074482Y-95025812D01*
X157194180Y-94989502D01*
X157304494Y-94930537D01*
X157401185Y-94851185D01*
X157480537Y-94754494D01*
X157539502Y-94644180D01*
X157575812Y-94524482D01*
X157588072Y-94400000D01*
X157588072Y-93900000D01*
X157575812Y-93775518D01*
X157539502Y-93655820D01*
X157480537Y-93545506D01*
X157401185Y-93448815D01*
X157304494Y-93369463D01*
X157194180Y-93310498D01*
X157074482Y-93274188D01*
X156950000Y-93261928D01*
X156450000Y-93261928D01*
X156325518Y-93274188D01*
X156205820Y-93310498D01*
X156103856Y-93365000D01*
X153888552Y-93365000D01*
X153849999Y-93361203D01*
X153811446Y-93365000D01*
X153811439Y-93365000D01*
X153710490Y-93374943D01*
X153696112Y-93376359D01*
X153570517Y-93414458D01*
X153548140Y-93421246D01*
X153411767Y-93494138D01*
X153351559Y-93543550D01*
X153322187Y-93567655D01*
X153322184Y-93567658D01*
X153292236Y-93592236D01*
X153267658Y-93622184D01*
X152285000Y-94604842D01*
X152285000Y-92348589D01*
X152293709Y-92345947D01*
X152446164Y-92264458D01*
X152579792Y-92154792D01*
X152689458Y-92021164D01*
X152770947Y-91868709D01*
X152821128Y-91703285D01*
X152838072Y-91531250D01*
X152838072Y-91122500D01*
X153952672Y-91122500D01*
X154020208Y-91204792D01*
X154153836Y-91314458D01*
X154306291Y-91395947D01*
X154471715Y-91446128D01*
X154643750Y-91463072D01*
X155556250Y-91463072D01*
X155728285Y-91446128D01*
X155893709Y-91395947D01*
X156046164Y-91314458D01*
X156179792Y-91204792D01*
X156289458Y-91071164D01*
X156370947Y-90918709D01*
X156421128Y-90753285D01*
X156438072Y-90581250D01*
X156438072Y-90093750D01*
X156421128Y-89921715D01*
X156409991Y-89885000D01*
X158194499Y-89885000D01*
X158248815Y-89951185D01*
X158345506Y-90030537D01*
X158455820Y-90089502D01*
X158575518Y-90125812D01*
X158700000Y-90138072D01*
X159600000Y-90138072D01*
X159724482Y-90125812D01*
X159844180Y-90089502D01*
X159954494Y-90030537D01*
X160051185Y-89951185D01*
X160130537Y-89854494D01*
X160189502Y-89744180D01*
X160225812Y-89624482D01*
X160238072Y-89500000D01*
X160238072Y-88988095D01*
X160248815Y-89001185D01*
X160345506Y-89080537D01*
X160365000Y-89090957D01*
X160365001Y-93365000D01*
X159496144Y-93365000D01*
X159394180Y-93310498D01*
X159274482Y-93274188D01*
X159150000Y-93261928D01*
X158650000Y-93261928D01*
X158525518Y-93274188D01*
X158405820Y-93310498D01*
X158295506Y-93369463D01*
X158198815Y-93448815D01*
X158119463Y-93545506D01*
X158060498Y-93655820D01*
X158024188Y-93775518D01*
X158011928Y-93900000D01*
X158011928Y-94400000D01*
X158024188Y-94524482D01*
X158060498Y-94644180D01*
X158119463Y-94754494D01*
X158198815Y-94851185D01*
X158295506Y-94930537D01*
X158405820Y-94989502D01*
X158525518Y-95025812D01*
X158650000Y-95038072D01*
X159150000Y-95038072D01*
X159274482Y-95025812D01*
X159394180Y-94989502D01*
X159496144Y-94935000D01*
X160924843Y-94935000D01*
X161782126Y-95792283D01*
X161737439Y-95900166D01*
X161665000Y-96264344D01*
X161665000Y-96635656D01*
X161737439Y-96999834D01*
X161879534Y-97342882D01*
X162085825Y-97651618D01*
X162348382Y-97914175D01*
X162657118Y-98120466D01*
X163000166Y-98262561D01*
X163364344Y-98335000D01*
X163735656Y-98335000D01*
X164099834Y-98262561D01*
X164442882Y-98120466D01*
X164751618Y-97914175D01*
X165014175Y-97651618D01*
X165220466Y-97342882D01*
X165362561Y-96999834D01*
X165435000Y-96635656D01*
X165435000Y-96264344D01*
X165362561Y-95900166D01*
X165220466Y-95557118D01*
X165014175Y-95248382D01*
X164751618Y-94985825D01*
X164442882Y-94779534D01*
X164099834Y-94637439D01*
X163735656Y-94565000D01*
X163364344Y-94565000D01*
X163000166Y-94637439D01*
X162892283Y-94682126D01*
X161935000Y-93724843D01*
X161935000Y-92288967D01*
X176765000Y-92288967D01*
X176765000Y-92611033D01*
X176827832Y-92926912D01*
X176951082Y-93224463D01*
X177130013Y-93492252D01*
X177357748Y-93719987D01*
X177625537Y-93898918D01*
X177923088Y-94022168D01*
X178238967Y-94085000D01*
X178561033Y-94085000D01*
X178876912Y-94022168D01*
X179174463Y-93898918D01*
X179442252Y-93719987D01*
X179669987Y-93492252D01*
X179848918Y-93224463D01*
X179972168Y-92926912D01*
X180035000Y-92611033D01*
X180035000Y-92288967D01*
X179972168Y-91973088D01*
X179848918Y-91675537D01*
X179669987Y-91407748D01*
X179442252Y-91180013D01*
X179174463Y-91001082D01*
X178876912Y-90877832D01*
X178561033Y-90815000D01*
X178238967Y-90815000D01*
X177923088Y-90877832D01*
X177625537Y-91001082D01*
X177357748Y-91180013D01*
X177130013Y-91407748D01*
X176951082Y-91675537D01*
X176827832Y-91973088D01*
X176765000Y-92288967D01*
X161935000Y-92288967D01*
X161935000Y-89090957D01*
X161954494Y-89080537D01*
X162051185Y-89001185D01*
X162130537Y-88904494D01*
X162189502Y-88794180D01*
X162225812Y-88674482D01*
X162238072Y-88550000D01*
X162238072Y-87750000D01*
X162225812Y-87625518D01*
X162189502Y-87505820D01*
X162130537Y-87395506D01*
X162051185Y-87298815D01*
X161954494Y-87219463D01*
X161844180Y-87160498D01*
X161724482Y-87124188D01*
X161600000Y-87111928D01*
X160700000Y-87111928D01*
X160575518Y-87124188D01*
X160455820Y-87160498D01*
X160345506Y-87219463D01*
X160248815Y-87298815D01*
X160169463Y-87395506D01*
X160160857Y-87411607D01*
X160076250Y-87327000D01*
X159277000Y-87327000D01*
X159277000Y-87347000D01*
X159023000Y-87347000D01*
X159023000Y-87327000D01*
X158223750Y-87327000D01*
X158065000Y-87485750D01*
X158061928Y-87600000D01*
X158074188Y-87724482D01*
X158110498Y-87844180D01*
X158169463Y-87954494D01*
X158248815Y-88051185D01*
X158345506Y-88130537D01*
X158381918Y-88150000D01*
X158345506Y-88169463D01*
X158248815Y-88248815D01*
X158194499Y-88315000D01*
X156438072Y-88315000D01*
X156438072Y-88218750D01*
X156421128Y-88046715D01*
X156370947Y-87881291D01*
X156289458Y-87728836D01*
X156179792Y-87595208D01*
X156046164Y-87485542D01*
X155893709Y-87404053D01*
X155885000Y-87401411D01*
X155885000Y-86800000D01*
X158061928Y-86800000D01*
X158065000Y-86914250D01*
X158223750Y-87073000D01*
X159023000Y-87073000D01*
X159023000Y-86323750D01*
X159277000Y-86323750D01*
X159277000Y-87073000D01*
X160076250Y-87073000D01*
X160235000Y-86914250D01*
X160238072Y-86800000D01*
X160225812Y-86675518D01*
X160189502Y-86555820D01*
X160130537Y-86445506D01*
X160051185Y-86348815D01*
X159954494Y-86269463D01*
X159844180Y-86210498D01*
X159724482Y-86174188D01*
X159600000Y-86161928D01*
X159435750Y-86165000D01*
X159277000Y-86323750D01*
X159023000Y-86323750D01*
X158864250Y-86165000D01*
X158700000Y-86161928D01*
X158575518Y-86174188D01*
X158455820Y-86210498D01*
X158345506Y-86269463D01*
X158248815Y-86348815D01*
X158169463Y-86445506D01*
X158110498Y-86555820D01*
X158074188Y-86675518D01*
X158061928Y-86800000D01*
X155885000Y-86800000D01*
X155885000Y-86198589D01*
X155893709Y-86195947D01*
X156046164Y-86114458D01*
X156179792Y-86004792D01*
X156289458Y-85871164D01*
X156370947Y-85718709D01*
X156421128Y-85553285D01*
X156438072Y-85381250D01*
X156438072Y-84893750D01*
X156421128Y-84721715D01*
X156370947Y-84556291D01*
X156289458Y-84403836D01*
X156179792Y-84270208D01*
X156173436Y-84264992D01*
X156251185Y-84201185D01*
X156330537Y-84104494D01*
X156365159Y-84039721D01*
X161415000Y-84039721D01*
X161415000Y-84460279D01*
X161497047Y-84872756D01*
X161657988Y-85261302D01*
X161891637Y-85610983D01*
X162189017Y-85908363D01*
X162538698Y-86142012D01*
X162927244Y-86302953D01*
X163339721Y-86385000D01*
X163760279Y-86385000D01*
X164172756Y-86302953D01*
X164561302Y-86142012D01*
X164910983Y-85908363D01*
X165208363Y-85610983D01*
X165442012Y-85261302D01*
X165602953Y-84872756D01*
X165685000Y-84460279D01*
X165685000Y-84039721D01*
X165602953Y-83627244D01*
X165442012Y-83238698D01*
X165208363Y-82889017D01*
X164910983Y-82591637D01*
X164561302Y-82357988D01*
X164172756Y-82197047D01*
X163760279Y-82115000D01*
X163339721Y-82115000D01*
X162927244Y-82197047D01*
X162538698Y-82357988D01*
X162189017Y-82591637D01*
X161891637Y-82889017D01*
X161657988Y-83238698D01*
X161497047Y-83627244D01*
X161415000Y-84039721D01*
X156365159Y-84039721D01*
X156389502Y-83994180D01*
X156425812Y-83874482D01*
X156438072Y-83750000D01*
X156435000Y-83548250D01*
X156276250Y-83389500D01*
X155227000Y-83389500D01*
X155227000Y-83409500D01*
X154973000Y-83409500D01*
X154973000Y-83389500D01*
X153923750Y-83389500D01*
X153765000Y-83548250D01*
X153761928Y-83750000D01*
X153774188Y-83874482D01*
X153810498Y-83994180D01*
X153869463Y-84104494D01*
X153948815Y-84201185D01*
X154026564Y-84264992D01*
X154020208Y-84270208D01*
X153910542Y-84403836D01*
X153829053Y-84556291D01*
X153778872Y-84721715D01*
X153761928Y-84893750D01*
X153761928Y-85381250D01*
X153778872Y-85553285D01*
X153829053Y-85718709D01*
X153910542Y-85871164D01*
X154020208Y-86004792D01*
X154153836Y-86114458D01*
X154306291Y-86195947D01*
X154315000Y-86198589D01*
X154315001Y-87401411D01*
X154306291Y-87404053D01*
X154153836Y-87485542D01*
X154020208Y-87595208D01*
X153910542Y-87728836D01*
X153829053Y-87881291D01*
X153778872Y-88046715D01*
X153761928Y-88218750D01*
X153761928Y-88706250D01*
X153778872Y-88878285D01*
X153829053Y-89043709D01*
X153910542Y-89196164D01*
X154020208Y-89329792D01*
X154105756Y-89400000D01*
X154020208Y-89470208D01*
X153952672Y-89552500D01*
X152689250Y-89552500D01*
X152676250Y-89539500D01*
X151627000Y-89539500D01*
X151627000Y-89552500D01*
X151373000Y-89552500D01*
X151373000Y-89539500D01*
X150323750Y-89539500D01*
X150310750Y-89552500D01*
X149121054Y-89552500D01*
X149082501Y-89548703D01*
X149043948Y-89552500D01*
X149043941Y-89552500D01*
X148942992Y-89562443D01*
X148928614Y-89563859D01*
X148904652Y-89571128D01*
X148780642Y-89608746D01*
X148644269Y-89681638D01*
X148596909Y-89720506D01*
X148554689Y-89755155D01*
X148554686Y-89755158D01*
X148524738Y-89779736D01*
X148500160Y-89809684D01*
X148388589Y-89921256D01*
X148334594Y-89761600D01*
X148222090Y-89551118D01*
X147942349Y-89437256D01*
X146879605Y-90500000D01*
X146893748Y-90514143D01*
X146714143Y-90693748D01*
X146700000Y-90679605D01*
X146685858Y-90693748D01*
X146506253Y-90514143D01*
X146520395Y-90500000D01*
X146506253Y-90485858D01*
X146685858Y-90306253D01*
X146700000Y-90320395D01*
X147762744Y-89257651D01*
X147648882Y-88977910D01*
X147541896Y-88925000D01*
X150161928Y-88925000D01*
X150165000Y-89126750D01*
X150323750Y-89285500D01*
X151373000Y-89285500D01*
X151373000Y-88448750D01*
X151627000Y-88448750D01*
X151627000Y-89285500D01*
X152676250Y-89285500D01*
X152835000Y-89126750D01*
X152838072Y-88925000D01*
X152825812Y-88800518D01*
X152789502Y-88680820D01*
X152730537Y-88570506D01*
X152651185Y-88473815D01*
X152554494Y-88394463D01*
X152444180Y-88335498D01*
X152324482Y-88299188D01*
X152200000Y-88286928D01*
X151785750Y-88290000D01*
X151627000Y-88448750D01*
X151373000Y-88448750D01*
X151214250Y-88290000D01*
X150800000Y-88286928D01*
X150675518Y-88299188D01*
X150555820Y-88335498D01*
X150445506Y-88394463D01*
X150348815Y-88473815D01*
X150269463Y-88570506D01*
X150210498Y-88680820D01*
X150174188Y-88800518D01*
X150161928Y-88925000D01*
X147541896Y-88925000D01*
X147333704Y-88822039D01*
X146994174Y-88730651D01*
X146643339Y-88707259D01*
X146294681Y-88752760D01*
X145961600Y-88865406D01*
X145751118Y-88977910D01*
X145638072Y-89255646D01*
X145638072Y-89150000D01*
X145625812Y-89025518D01*
X145589502Y-88905820D01*
X145530537Y-88795506D01*
X145451185Y-88698815D01*
X145391704Y-88650000D01*
X145451185Y-88601185D01*
X145530537Y-88504494D01*
X145589502Y-88394180D01*
X145625812Y-88274482D01*
X145638072Y-88150000D01*
X145638072Y-87150000D01*
X145625812Y-87025518D01*
X145589502Y-86905820D01*
X145530537Y-86795506D01*
X145451185Y-86698815D01*
X145391704Y-86650000D01*
X145451185Y-86601185D01*
X145530537Y-86504494D01*
X145589502Y-86394180D01*
X145625812Y-86274482D01*
X145638072Y-86150000D01*
X145635000Y-85935750D01*
X145476250Y-85777000D01*
X143877000Y-85777000D01*
X143877000Y-85797000D01*
X143623000Y-85797000D01*
X143623000Y-85777000D01*
X142023750Y-85777000D01*
X141865000Y-85935750D01*
X141861928Y-86150000D01*
X141874188Y-86274482D01*
X141910498Y-86394180D01*
X141969463Y-86504494D01*
X142048815Y-86601185D01*
X142108296Y-86650000D01*
X142048815Y-86698815D01*
X141969463Y-86795506D01*
X141910498Y-86905820D01*
X141874188Y-87025518D01*
X141861928Y-87150000D01*
X141861928Y-88150000D01*
X141874188Y-88274482D01*
X141910498Y-88394180D01*
X141969463Y-88504494D01*
X142048815Y-88601185D01*
X142108296Y-88650000D01*
X142048815Y-88698815D01*
X141969463Y-88795506D01*
X141910498Y-88905820D01*
X141874188Y-89025518D01*
X141861928Y-89150000D01*
X141861928Y-90150000D01*
X141874188Y-90274482D01*
X141910498Y-90394180D01*
X141969463Y-90504494D01*
X142048815Y-90601185D01*
X142108296Y-90650000D01*
X142048815Y-90698815D01*
X141969463Y-90795506D01*
X141932317Y-90865000D01*
X136945155Y-90865000D01*
X131757627Y-85677472D01*
X131774482Y-85675812D01*
X131894180Y-85639502D01*
X132004494Y-85580537D01*
X132101185Y-85501185D01*
X132150000Y-85441704D01*
X132198815Y-85501185D01*
X132295506Y-85580537D01*
X132405820Y-85639502D01*
X132525518Y-85675812D01*
X132650000Y-85688072D01*
X133650000Y-85688072D01*
X133774482Y-85675812D01*
X133894180Y-85639502D01*
X134004494Y-85580537D01*
X134101185Y-85501185D01*
X134150000Y-85441704D01*
X134198815Y-85501185D01*
X134295506Y-85580537D01*
X134405820Y-85639502D01*
X134525518Y-85675812D01*
X134650000Y-85688072D01*
X135650000Y-85688072D01*
X135774482Y-85675812D01*
X135894180Y-85639502D01*
X136004494Y-85580537D01*
X136101185Y-85501185D01*
X136150000Y-85441704D01*
X136198815Y-85501185D01*
X136295506Y-85580537D01*
X136405820Y-85639502D01*
X136525518Y-85675812D01*
X136650000Y-85688072D01*
X137650000Y-85688072D01*
X137774482Y-85675812D01*
X137894180Y-85639502D01*
X138004494Y-85580537D01*
X138101185Y-85501185D01*
X138150000Y-85441704D01*
X138198815Y-85501185D01*
X138295506Y-85580537D01*
X138405820Y-85639502D01*
X138525518Y-85675812D01*
X138650000Y-85688072D01*
X139650000Y-85688072D01*
X139774482Y-85675812D01*
X139894180Y-85639502D01*
X140004494Y-85580537D01*
X140101185Y-85501185D01*
X140150000Y-85441704D01*
X140198815Y-85501185D01*
X140295506Y-85580537D01*
X140405820Y-85639502D01*
X140525518Y-85675812D01*
X140650000Y-85688072D01*
X141650000Y-85688072D01*
X141774482Y-85675812D01*
X141894180Y-85639502D01*
X142004494Y-85580537D01*
X142074603Y-85523000D01*
X143623000Y-85523000D01*
X143623000Y-84673750D01*
X143877000Y-84673750D01*
X143877000Y-85523000D01*
X145476250Y-85523000D01*
X145635000Y-85364250D01*
X145638072Y-85150000D01*
X145625812Y-85025518D01*
X145589502Y-84905820D01*
X145530537Y-84795506D01*
X145451185Y-84698815D01*
X145354494Y-84619463D01*
X145244180Y-84560498D01*
X145124482Y-84524188D01*
X145000000Y-84511928D01*
X144035750Y-84515000D01*
X143877000Y-84673750D01*
X143623000Y-84673750D01*
X143464250Y-84515000D01*
X142500000Y-84511928D01*
X142375518Y-84524188D01*
X142288072Y-84550714D01*
X142288072Y-83989721D01*
X149365000Y-83989721D01*
X149365000Y-84410279D01*
X149447047Y-84822756D01*
X149607988Y-85211302D01*
X149841637Y-85560983D01*
X150139017Y-85858363D01*
X150488698Y-86092012D01*
X150877244Y-86252953D01*
X151289721Y-86335000D01*
X151710279Y-86335000D01*
X152122756Y-86252953D01*
X152511302Y-86092012D01*
X152860983Y-85858363D01*
X153158363Y-85560983D01*
X153392012Y-85211302D01*
X153552953Y-84822756D01*
X153635000Y-84410279D01*
X153635000Y-83989721D01*
X153552953Y-83577244D01*
X153392012Y-83188698D01*
X153158363Y-82839017D01*
X153094346Y-82775000D01*
X153761928Y-82775000D01*
X153765000Y-82976750D01*
X153923750Y-83135500D01*
X154973000Y-83135500D01*
X154973000Y-82298750D01*
X155227000Y-82298750D01*
X155227000Y-83135500D01*
X156276250Y-83135500D01*
X156435000Y-82976750D01*
X156438072Y-82775000D01*
X156425812Y-82650518D01*
X156389502Y-82530820D01*
X156330537Y-82420506D01*
X156251185Y-82323815D01*
X156154494Y-82244463D01*
X156044180Y-82185498D01*
X155924482Y-82149188D01*
X155800000Y-82136928D01*
X155385750Y-82140000D01*
X155227000Y-82298750D01*
X154973000Y-82298750D01*
X154814250Y-82140000D01*
X154400000Y-82136928D01*
X154275518Y-82149188D01*
X154155820Y-82185498D01*
X154045506Y-82244463D01*
X153948815Y-82323815D01*
X153869463Y-82420506D01*
X153810498Y-82530820D01*
X153774188Y-82650518D01*
X153761928Y-82775000D01*
X153094346Y-82775000D01*
X152860983Y-82541637D01*
X152511302Y-82307988D01*
X152122756Y-82147047D01*
X151710279Y-82065000D01*
X151289721Y-82065000D01*
X150877244Y-82147047D01*
X150488698Y-82307988D01*
X150139017Y-82541637D01*
X149841637Y-82839017D01*
X149607988Y-83188698D01*
X149447047Y-83577244D01*
X149365000Y-83989721D01*
X142288072Y-83989721D01*
X142288072Y-83250000D01*
X142275812Y-83125518D01*
X142239502Y-83005820D01*
X142180537Y-82895506D01*
X142101185Y-82798815D01*
X142004494Y-82719463D01*
X141894180Y-82660498D01*
X141774482Y-82624188D01*
X141650000Y-82611928D01*
X140650000Y-82611928D01*
X140525518Y-82624188D01*
X140405820Y-82660498D01*
X140295506Y-82719463D01*
X140198815Y-82798815D01*
X140150000Y-82858296D01*
X140101185Y-82798815D01*
X140004494Y-82719463D01*
X139894180Y-82660498D01*
X139774482Y-82624188D01*
X139650000Y-82611928D01*
X138650000Y-82611928D01*
X138525518Y-82624188D01*
X138405820Y-82660498D01*
X138295506Y-82719463D01*
X138198815Y-82798815D01*
X138150000Y-82858296D01*
X138101185Y-82798815D01*
X138004494Y-82719463D01*
X137894180Y-82660498D01*
X137774482Y-82624188D01*
X137650000Y-82611928D01*
X136650000Y-82611928D01*
X136525518Y-82624188D01*
X136405820Y-82660498D01*
X136295506Y-82719463D01*
X136198815Y-82798815D01*
X136150000Y-82858296D01*
X136101185Y-82798815D01*
X136004494Y-82719463D01*
X135894180Y-82660498D01*
X135774482Y-82624188D01*
X135650000Y-82611928D01*
X134650000Y-82611928D01*
X134525518Y-82624188D01*
X134405820Y-82660498D01*
X134295506Y-82719463D01*
X134198815Y-82798815D01*
X134150000Y-82858296D01*
X134101185Y-82798815D01*
X134004494Y-82719463D01*
X133894180Y-82660498D01*
X133774482Y-82624188D01*
X133650000Y-82611928D01*
X132650000Y-82611928D01*
X132525518Y-82624188D01*
X132405820Y-82660498D01*
X132295506Y-82719463D01*
X132198815Y-82798815D01*
X132150000Y-82858296D01*
X132101185Y-82798815D01*
X132004494Y-82719463D01*
X131894180Y-82660498D01*
X131774482Y-82624188D01*
X131650000Y-82611928D01*
X130650000Y-82611928D01*
X130525518Y-82624188D01*
X130405820Y-82660498D01*
X130295506Y-82719463D01*
X130198815Y-82798815D01*
X130119463Y-82895506D01*
X130060498Y-83005820D01*
X130024188Y-83125518D01*
X130011928Y-83250000D01*
X130011928Y-83621769D01*
X127712349Y-81322190D01*
X127687766Y-81292236D01*
X127568235Y-81194138D01*
X127431862Y-81121246D01*
X127283889Y-81076359D01*
X127168563Y-81065000D01*
X127168555Y-81065000D01*
X127130002Y-81061203D01*
X127091449Y-81065000D01*
X125741877Y-81065000D01*
X125569987Y-80807748D01*
X125342252Y-80580013D01*
X125074463Y-80401082D01*
X124776912Y-80277832D01*
X124461033Y-80215000D01*
X124138967Y-80215000D01*
X123823088Y-80277832D01*
X123525537Y-80401082D01*
X123257748Y-80580013D01*
X123030013Y-80807748D01*
X122851082Y-81075537D01*
X122727832Y-81373088D01*
X122665000Y-81688967D01*
X122665000Y-82011033D01*
X122727832Y-82326912D01*
X122851082Y-82624463D01*
X123030013Y-82892252D01*
X123257748Y-83119987D01*
X123525537Y-83298918D01*
X123823088Y-83422168D01*
X124138967Y-83485000D01*
X124461033Y-83485000D01*
X124776912Y-83422168D01*
X125074463Y-83298918D01*
X125342252Y-83119987D01*
X125569987Y-82892252D01*
X125741877Y-82635000D01*
X126804845Y-82635000D01*
X128681773Y-84511928D01*
X127300000Y-84511928D01*
X127175518Y-84524188D01*
X127055820Y-84560498D01*
X126945506Y-84619463D01*
X126848815Y-84698815D01*
X126769463Y-84795506D01*
X126710498Y-84905820D01*
X126674188Y-85025518D01*
X126661928Y-85150000D01*
X126661928Y-86150000D01*
X126674188Y-86274482D01*
X126710498Y-86394180D01*
X126769463Y-86504494D01*
X126848815Y-86601185D01*
X126908296Y-86650000D01*
X126848815Y-86698815D01*
X126769463Y-86795506D01*
X126732317Y-86865000D01*
X126161346Y-86865000D01*
X126122793Y-86861203D01*
X126084240Y-86865000D01*
X126084233Y-86865000D01*
X125968907Y-86876359D01*
X125842180Y-86914801D01*
X125922384Y-86608892D01*
X125941718Y-86287405D01*
X125897961Y-85968325D01*
X125792795Y-85663912D01*
X125699814Y-85489956D01*
X125435413Y-85394192D01*
X124479605Y-86350000D01*
X124493748Y-86364143D01*
X124314143Y-86543748D01*
X124300000Y-86529605D01*
X123344192Y-87485413D01*
X123439956Y-87749814D01*
X123729571Y-87890704D01*
X124041108Y-87972384D01*
X124362595Y-87991718D01*
X124681675Y-87947961D01*
X124732093Y-87930543D01*
X122486533Y-90176104D01*
X122488072Y-90075000D01*
X122475812Y-89950518D01*
X122439502Y-89830820D01*
X122380537Y-89720506D01*
X122301185Y-89623815D01*
X122204494Y-89544463D01*
X122094180Y-89485498D01*
X121974482Y-89449188D01*
X121850000Y-89436928D01*
X121435750Y-89440000D01*
X121277000Y-89598750D01*
X121277000Y-90435500D01*
X121297000Y-90435500D01*
X121297000Y-90615010D01*
X119088072Y-90615010D01*
X119088072Y-90318750D01*
X119071128Y-90146715D01*
X119049374Y-90075000D01*
X119811928Y-90075000D01*
X119815000Y-90276750D01*
X119973750Y-90435500D01*
X121023000Y-90435500D01*
X121023000Y-89598750D01*
X120864250Y-89440000D01*
X120450000Y-89436928D01*
X120325518Y-89449188D01*
X120205820Y-89485498D01*
X120095506Y-89544463D01*
X119998815Y-89623815D01*
X119919463Y-89720506D01*
X119860498Y-89830820D01*
X119824188Y-89950518D01*
X119811928Y-90075000D01*
X119049374Y-90075000D01*
X119020947Y-89981291D01*
X118939458Y-89828836D01*
X118829792Y-89695208D01*
X118696164Y-89585542D01*
X118543709Y-89504053D01*
X118378285Y-89453872D01*
X118206250Y-89436928D01*
X117734586Y-89436928D01*
X117234999Y-88937342D01*
X117234999Y-87892127D01*
X117541108Y-87972384D01*
X117862595Y-87991718D01*
X118181675Y-87947961D01*
X118486088Y-87842795D01*
X118660044Y-87749814D01*
X118755808Y-87485413D01*
X117800000Y-86529605D01*
X117785858Y-86543748D01*
X117606253Y-86364143D01*
X117620395Y-86350000D01*
X117979605Y-86350000D01*
X118935413Y-87305808D01*
X119199814Y-87210044D01*
X119340704Y-86920429D01*
X119422384Y-86608892D01*
X119434189Y-86412595D01*
X122658282Y-86412595D01*
X122702039Y-86731675D01*
X122807205Y-87036088D01*
X122900186Y-87210044D01*
X123164587Y-87305808D01*
X124120395Y-86350000D01*
X123164587Y-85394192D01*
X122900186Y-85489956D01*
X122759296Y-85779571D01*
X122677616Y-86091108D01*
X122658282Y-86412595D01*
X119434189Y-86412595D01*
X119441718Y-86287405D01*
X119397961Y-85968325D01*
X119292795Y-85663912D01*
X119199814Y-85489956D01*
X118935413Y-85394192D01*
X117979605Y-86350000D01*
X117620395Y-86350000D01*
X117606253Y-86335858D01*
X117785858Y-86156253D01*
X117800000Y-86170395D01*
X118755808Y-85214587D01*
X123344192Y-85214587D01*
X124300000Y-86170395D01*
X125255808Y-85214587D01*
X125160044Y-84950186D01*
X124870429Y-84809296D01*
X124558892Y-84727616D01*
X124237405Y-84708282D01*
X123918325Y-84752039D01*
X123613912Y-84857205D01*
X123439956Y-84950186D01*
X123344192Y-85214587D01*
X118755808Y-85214587D01*
X118660044Y-84950186D01*
X118420303Y-84833559D01*
X118455862Y-84790231D01*
X118528754Y-84653858D01*
X118534026Y-84636478D01*
X118573642Y-84505885D01*
X118581528Y-84425812D01*
X118585000Y-84390559D01*
X118585000Y-84390554D01*
X118588797Y-84351998D01*
X118585000Y-84313442D01*
X118585000Y-83291877D01*
X118842252Y-83119987D01*
X119069987Y-82892252D01*
X119248918Y-82624463D01*
X119372168Y-82326912D01*
X119435000Y-82011033D01*
X119435000Y-81688967D01*
X119372168Y-81373088D01*
X119248918Y-81075537D01*
X119069987Y-80807748D01*
X118842252Y-80580013D01*
X118574463Y-80401082D01*
X118276912Y-80277832D01*
X117961033Y-80215000D01*
X117638967Y-80215000D01*
X117323088Y-80277832D01*
X117025537Y-80401082D01*
X116757748Y-80580013D01*
X116530013Y-80807748D01*
X116351082Y-81075537D01*
X116227832Y-81373088D01*
X116165000Y-81688967D01*
X116165000Y-82011033D01*
X116227832Y-82326912D01*
X116281915Y-82457479D01*
X116053996Y-82229560D01*
X115670139Y-81973075D01*
X115243620Y-81796406D01*
X114790830Y-81706340D01*
X114329170Y-81706340D01*
X113876380Y-81796406D01*
X113449861Y-81973075D01*
X113066004Y-82229560D01*
X112739560Y-82556004D01*
X112483075Y-82939861D01*
X112306406Y-83366380D01*
X112216340Y-83819170D01*
X112216340Y-84280830D01*
X112306406Y-84733620D01*
X112483075Y-85160139D01*
X112739560Y-85543996D01*
X113066004Y-85870440D01*
X113449861Y-86126925D01*
X113876380Y-86303594D01*
X114329170Y-86393660D01*
X114790830Y-86393660D01*
X115243620Y-86303594D01*
X115664999Y-86129054D01*
X115665000Y-89223936D01*
X115661202Y-89262499D01*
X115676358Y-89416385D01*
X115721245Y-89564358D01*
X115753382Y-89624482D01*
X115794138Y-89700732D01*
X115829795Y-89744180D01*
X115867654Y-89790311D01*
X115867658Y-89790315D01*
X115892236Y-89820263D01*
X115922184Y-89844841D01*
X116411928Y-90334585D01*
X116411928Y-90615010D01*
X112262668Y-90615010D01*
X111863072Y-90215415D01*
X111863072Y-89743750D01*
X111846128Y-89571715D01*
X111795947Y-89406291D01*
X111714458Y-89253836D01*
X111604792Y-89120208D01*
X111471164Y-89010542D01*
X111318709Y-88929053D01*
X111153285Y-88878872D01*
X110981250Y-88861928D01*
X110493750Y-88861928D01*
X110321715Y-88878872D01*
X110156291Y-88929053D01*
X110003836Y-89010542D01*
X109870208Y-89120208D01*
X109800000Y-89205756D01*
X109729792Y-89120208D01*
X109647500Y-89052672D01*
X109647500Y-84433744D01*
X109937743Y-84376011D01*
X110217095Y-84260299D01*
X110468505Y-84092312D01*
X110682312Y-83878505D01*
X110850299Y-83627095D01*
X110966011Y-83347743D01*
X111025000Y-83051184D01*
X111025000Y-82748816D01*
X110966011Y-82452257D01*
X110850299Y-82172905D01*
X110682312Y-81921495D01*
X110468505Y-81707688D01*
X110217095Y-81539701D01*
X109937743Y-81423989D01*
X109641184Y-81365000D01*
X109338816Y-81365000D01*
X109042257Y-81423989D01*
X108762905Y-81539701D01*
X108511495Y-81707688D01*
X108445056Y-81774127D01*
X108439502Y-81755820D01*
X108380537Y-81645506D01*
X108301185Y-81548815D01*
X108204494Y-81469463D01*
X108094180Y-81410498D01*
X107974482Y-81374188D01*
X107850000Y-81361928D01*
X107235750Y-81365000D01*
X107077000Y-81523750D01*
X106823000Y-81523750D01*
X106664250Y-81365000D01*
X106050000Y-81361928D01*
X105925518Y-81374188D01*
X105805820Y-81410498D01*
X105695506Y-81469463D01*
X105598815Y-81548815D01*
X105519463Y-81645506D01*
X105460498Y-81755820D01*
X105424188Y-81875518D01*
X105411928Y-82000000D01*
X99995000Y-82000000D01*
X99995000Y-79885000D01*
X131325000Y-79885000D01*
X131325001Y-81008972D01*
G04 #@! TA.AperFunction,Conductor*
D27*
G36*
X131325001Y-81008972D02*
G01*
X131320960Y-81050000D01*
X131337082Y-81213689D01*
X131384828Y-81371087D01*
X131462364Y-81516146D01*
X131566709Y-81643291D01*
X131693854Y-81747636D01*
X131838913Y-81825172D01*
X131996311Y-81872918D01*
X132118981Y-81885000D01*
X132118982Y-81885000D01*
X132160000Y-81889040D01*
X132201019Y-81885000D01*
X147118982Y-81885000D01*
X147160000Y-81889040D01*
X147323689Y-81872918D01*
X147481087Y-81825172D01*
X147626146Y-81747636D01*
X147753291Y-81643291D01*
X147857636Y-81516146D01*
X147935172Y-81371087D01*
X147982918Y-81213689D01*
X147995000Y-81091019D01*
X147999040Y-81050000D01*
X147995000Y-81008981D01*
X147995000Y-79885000D01*
X180325000Y-79885000D01*
X180325001Y-110215000D01*
X147995000Y-110215000D01*
X147995000Y-109091019D01*
X147999040Y-109050000D01*
X147982918Y-108886311D01*
X147935172Y-108728913D01*
X147857636Y-108583854D01*
X147753291Y-108456709D01*
X147626146Y-108352364D01*
X147481087Y-108274828D01*
X147323689Y-108227082D01*
X147201019Y-108215000D01*
X147201018Y-108215000D01*
X147160000Y-108210960D01*
X147118981Y-108215000D01*
X132201018Y-108215000D01*
X132160000Y-108210960D01*
X132118981Y-108215000D01*
X131996311Y-108227082D01*
X131838913Y-108274828D01*
X131693854Y-108352364D01*
X131566709Y-108456709D01*
X131462364Y-108583854D01*
X131384828Y-108728913D01*
X131337082Y-108886311D01*
X131320960Y-109050000D01*
X131325000Y-109091019D01*
X131325001Y-110215000D01*
X117690019Y-110215000D01*
X117754494Y-110180537D01*
X117851185Y-110101185D01*
X117930537Y-110004494D01*
X117989502Y-109894180D01*
X118025812Y-109774482D01*
X118038072Y-109650000D01*
X118035000Y-109185750D01*
X117876250Y-109027000D01*
X116527000Y-109027000D01*
X116527000Y-109047000D01*
X116273000Y-109047000D01*
X116273000Y-109027000D01*
X114923750Y-109027000D01*
X114765000Y-109185750D01*
X114761928Y-109650000D01*
X114774188Y-109774482D01*
X114810498Y-109894180D01*
X114869463Y-110004494D01*
X114948815Y-110101185D01*
X115045506Y-110180537D01*
X115109981Y-110215000D01*
X99995000Y-110215000D01*
X99995000Y-100618359D01*
X100101082Y-100874463D01*
X100280013Y-101142252D01*
X100507748Y-101369987D01*
X100775537Y-101548918D01*
X101073088Y-101672168D01*
X101388967Y-101735000D01*
X101711033Y-101735000D01*
X102026912Y-101672168D01*
X102324463Y-101548918D01*
X102592252Y-101369987D01*
X102819987Y-101142252D01*
X102998918Y-100874463D01*
X103122168Y-100576912D01*
X103185000Y-100261033D01*
X103185000Y-99938967D01*
X103122168Y-99623088D01*
X102998918Y-99325537D01*
X102819987Y-99057748D01*
X102592252Y-98830013D01*
X102324463Y-98651082D01*
X102026912Y-98527832D01*
X101711033Y-98465000D01*
X101388967Y-98465000D01*
X101073088Y-98527832D01*
X100775537Y-98651082D01*
X100507748Y-98830013D01*
X100280013Y-99057748D01*
X100101082Y-99325537D01*
X99995000Y-99581641D01*
X99995000Y-94700000D01*
X115511928Y-94700000D01*
X115511928Y-96700000D01*
X115524188Y-96824482D01*
X115560498Y-96944180D01*
X115619463Y-97054494D01*
X115698815Y-97151185D01*
X115795506Y-97230537D01*
X115905820Y-97289502D01*
X116025518Y-97325812D01*
X116150000Y-97338072D01*
X118450000Y-97338072D01*
X118574482Y-97325812D01*
X118694180Y-97289502D01*
X118804494Y-97230537D01*
X118901185Y-97151185D01*
X118980537Y-97054494D01*
X119039502Y-96944180D01*
X119075812Y-96824482D01*
X119088072Y-96700000D01*
X119088072Y-94700000D01*
X119075812Y-94575518D01*
X119039502Y-94455820D01*
X118980537Y-94345506D01*
X118901185Y-94248815D01*
X118804494Y-94169463D01*
X118694180Y-94110498D01*
X118574482Y-94074188D01*
X118450000Y-94061928D01*
X116150000Y-94061928D01*
X116025518Y-94074188D01*
X115905820Y-94110498D01*
X115795506Y-94169463D01*
X115698815Y-94248815D01*
X115619463Y-94345506D01*
X115560498Y-94455820D01*
X115524188Y-94575518D01*
X115511928Y-94700000D01*
X99995000Y-94700000D01*
X99995000Y-92118359D01*
X100101082Y-92374463D01*
X100280013Y-92642252D01*
X100507748Y-92869987D01*
X100775537Y-93048918D01*
X101073088Y-93172168D01*
X101388967Y-93235000D01*
X101711033Y-93235000D01*
X102026912Y-93172168D01*
X102324463Y-93048918D01*
X102592252Y-92869987D01*
X102819987Y-92642252D01*
X102998918Y-92374463D01*
X103122168Y-92076912D01*
X103185000Y-91761033D01*
X103185000Y-91438967D01*
X103122168Y-91123088D01*
X102998918Y-90825537D01*
X102819987Y-90557748D01*
X102592252Y-90330013D01*
X102324463Y-90151082D01*
X102026912Y-90027832D01*
X101711033Y-89965000D01*
X101388967Y-89965000D01*
X101073088Y-90027832D01*
X100775537Y-90151082D01*
X100507748Y-90330013D01*
X100280013Y-90557748D01*
X100101082Y-90825537D01*
X99995000Y-91081641D01*
X99995000Y-83800000D01*
X105411928Y-83800000D01*
X105424188Y-83924482D01*
X105460498Y-84044180D01*
X105519463Y-84154494D01*
X105598815Y-84251185D01*
X105695506Y-84330537D01*
X105805820Y-84389502D01*
X105925518Y-84425812D01*
X106050000Y-84438072D01*
X106664250Y-84435000D01*
X106823000Y-84276250D01*
X106823000Y-83027000D01*
X105573750Y-83027000D01*
X105415000Y-83185750D01*
X105411928Y-83800000D01*
X99995000Y-83800000D01*
X99995000Y-82000000D01*
X105411928Y-82000000D01*
X105415000Y-82614250D01*
X105573750Y-82773000D01*
X106823000Y-82773000D01*
X106823000Y-81523750D01*
X107077000Y-81523750D01*
X107077000Y-82773000D01*
X107097000Y-82773000D01*
X107097000Y-83027000D01*
X107077000Y-83027000D01*
X107077000Y-84276250D01*
X107235750Y-84435000D01*
X107850000Y-84438072D01*
X107974482Y-84425812D01*
X108077501Y-84394562D01*
X108077500Y-89052672D01*
X107995208Y-89120208D01*
X107885542Y-89253836D01*
X107804053Y-89406291D01*
X107753872Y-89571715D01*
X107736928Y-89743750D01*
X107736928Y-90656250D01*
X107753872Y-90828285D01*
X107804053Y-90993709D01*
X107885542Y-91146164D01*
X107995208Y-91279792D01*
X108128836Y-91389458D01*
X108281291Y-91470947D01*
X108446715Y-91521128D01*
X108618750Y-91538072D01*
X109106250Y-91538072D01*
X109278285Y-91521128D01*
X109443709Y-91470947D01*
X109596164Y-91389458D01*
X109729792Y-91279792D01*
X109800000Y-91194244D01*
X109870208Y-91279792D01*
X110003836Y-91389458D01*
X110156291Y-91470947D01*
X110321715Y-91521128D01*
X110493750Y-91538072D01*
X110965414Y-91538072D01*
X111355168Y-91927825D01*
X111379746Y-91957774D01*
X111409694Y-91982352D01*
X111409697Y-91982355D01*
X111430306Y-91999268D01*
X111499277Y-92055872D01*
X111635650Y-92128764D01*
X111749182Y-92163204D01*
X111783622Y-92173651D01*
X111798000Y-92175067D01*
X111898949Y-92185010D01*
X111898956Y-92185010D01*
X111937509Y-92188807D01*
X111976062Y-92185010D01*
X116412789Y-92185010D01*
X116411928Y-92193750D01*
X116411928Y-92681250D01*
X116428872Y-92853285D01*
X116479053Y-93018709D01*
X116560542Y-93171164D01*
X116670208Y-93304792D01*
X116803836Y-93414458D01*
X116956291Y-93495947D01*
X117121715Y-93546128D01*
X117293750Y-93563072D01*
X118206250Y-93563072D01*
X118378285Y-93546128D01*
X118543709Y-93495947D01*
X118696164Y-93414458D01*
X118829792Y-93304792D01*
X118897328Y-93222500D01*
X120002672Y-93222500D01*
X120070208Y-93304792D01*
X120203836Y-93414458D01*
X120356291Y-93495947D01*
X120521715Y-93546128D01*
X120693750Y-93563072D01*
X121606250Y-93563072D01*
X121778285Y-93546128D01*
X121943709Y-93495947D01*
X122096164Y-93414458D01*
X122229792Y-93304792D01*
X122297328Y-93222500D01*
X122836447Y-93222500D01*
X122875000Y-93226297D01*
X122913553Y-93222500D01*
X122913561Y-93222500D01*
X123028887Y-93211141D01*
X123176860Y-93166254D01*
X123313233Y-93093362D01*
X123432764Y-92995264D01*
X123457347Y-92965310D01*
X123461573Y-92961084D01*
X123479053Y-93018709D01*
X123560542Y-93171164D01*
X123670208Y-93304792D01*
X123803836Y-93414458D01*
X123956291Y-93495947D01*
X124121715Y-93546128D01*
X124293750Y-93563072D01*
X124765415Y-93563072D01*
X126661928Y-95459586D01*
X126661928Y-96150000D01*
X126674188Y-96274482D01*
X126710498Y-96394180D01*
X126769463Y-96504494D01*
X126848815Y-96601185D01*
X126908296Y-96650000D01*
X126848815Y-96698815D01*
X126769463Y-96795506D01*
X126710498Y-96905820D01*
X126674188Y-97025518D01*
X126661928Y-97150000D01*
X126661928Y-98150000D01*
X126674188Y-98274482D01*
X126710498Y-98394180D01*
X126769463Y-98504494D01*
X126848815Y-98601185D01*
X126908296Y-98650000D01*
X126848815Y-98698815D01*
X126769463Y-98795506D01*
X126710498Y-98905820D01*
X126674188Y-99025518D01*
X126661928Y-99150000D01*
X126661928Y-100150000D01*
X126674188Y-100274482D01*
X126710498Y-100394180D01*
X126769463Y-100504494D01*
X126848815Y-100601185D01*
X126945506Y-100680537D01*
X127055820Y-100739502D01*
X127175518Y-100775812D01*
X127300000Y-100788072D01*
X129800000Y-100788072D01*
X129924482Y-100775812D01*
X130044180Y-100739502D01*
X130154494Y-100680537D01*
X130251185Y-100601185D01*
X130330537Y-100504494D01*
X130389502Y-100394180D01*
X130425812Y-100274482D01*
X130438072Y-100150000D01*
X130438072Y-99150000D01*
X130425812Y-99025518D01*
X130389502Y-98905820D01*
X130330537Y-98795506D01*
X130251185Y-98698815D01*
X130191704Y-98650000D01*
X130251185Y-98601185D01*
X130330537Y-98504494D01*
X130389502Y-98394180D01*
X130425812Y-98274482D01*
X130438072Y-98150000D01*
X130438072Y-97150000D01*
X130425812Y-97025518D01*
X130389502Y-96905820D01*
X130330537Y-96795506D01*
X130251185Y-96698815D01*
X130191704Y-96650000D01*
X130251185Y-96601185D01*
X130330537Y-96504494D01*
X130389502Y-96394180D01*
X130425812Y-96274482D01*
X130438072Y-96150000D01*
X130438072Y-95150000D01*
X130425812Y-95025518D01*
X130389502Y-94905820D01*
X130330537Y-94795506D01*
X130251185Y-94698815D01*
X130191704Y-94650000D01*
X130251185Y-94601185D01*
X130330537Y-94504494D01*
X130389502Y-94394180D01*
X130425812Y-94274482D01*
X130438072Y-94150000D01*
X130438072Y-93150000D01*
X130425812Y-93025518D01*
X130389502Y-92905820D01*
X130330537Y-92795506D01*
X130251185Y-92698815D01*
X130191704Y-92650000D01*
X130251185Y-92601185D01*
X130330537Y-92504494D01*
X130389502Y-92394180D01*
X130425812Y-92274482D01*
X130427472Y-92257627D01*
X131897660Y-93727816D01*
X131922238Y-93757764D01*
X131952186Y-93782342D01*
X131952189Y-93782345D01*
X131981561Y-93806450D01*
X132041769Y-93855862D01*
X132178142Y-93928754D01*
X132291674Y-93963194D01*
X132326114Y-93973641D01*
X132340492Y-93975057D01*
X132441441Y-93985000D01*
X132441448Y-93985000D01*
X132480001Y-93988797D01*
X132518554Y-93985000D01*
X139124843Y-93985000D01*
X141215000Y-96075157D01*
X141215001Y-100241439D01*
X141211203Y-100280002D01*
X141226359Y-100433888D01*
X141271246Y-100581861D01*
X141271247Y-100581862D01*
X141344139Y-100718235D01*
X141361593Y-100739502D01*
X141417655Y-100807814D01*
X141417659Y-100807818D01*
X141442237Y-100837766D01*
X141472185Y-100862344D01*
X141987655Y-101377815D01*
X142012234Y-101407764D01*
X142042182Y-101432342D01*
X142042185Y-101432345D01*
X142071557Y-101456450D01*
X142131765Y-101505862D01*
X142268138Y-101578754D01*
X142416111Y-101623642D01*
X142491024Y-101631020D01*
X142531437Y-101635000D01*
X142531442Y-101635000D01*
X142569998Y-101638797D01*
X142608554Y-101635000D01*
X151674843Y-101635000D01*
X152565000Y-102525158D01*
X152565001Y-105911928D01*
X152500000Y-105911928D01*
X152375518Y-105924188D01*
X152255820Y-105960498D01*
X152145506Y-106019463D01*
X152048815Y-106098815D01*
X151969463Y-106195506D01*
X151910498Y-106305820D01*
X151874188Y-106425518D01*
X151861928Y-106550000D01*
X151861928Y-106615000D01*
X149692120Y-106615000D01*
X149692120Y-105925670D01*
X149695917Y-105887117D01*
X149692120Y-105848564D01*
X149692120Y-105848557D01*
X149680761Y-105733231D01*
X149678422Y-105725518D01*
X149635874Y-105585258D01*
X149618022Y-105551859D01*
X149562982Y-105448885D01*
X149505903Y-105379335D01*
X149489465Y-105359305D01*
X149489462Y-105359302D01*
X149464884Y-105329354D01*
X149434936Y-105304776D01*
X146802348Y-102672189D01*
X146777765Y-102642235D01*
X146658234Y-102544137D01*
X146521861Y-102471245D01*
X146373888Y-102426358D01*
X146258562Y-102414999D01*
X146258554Y-102414999D01*
X146220001Y-102411202D01*
X146181448Y-102414999D01*
X117824057Y-102414999D01*
X118145515Y-102281847D01*
X118437871Y-102086500D01*
X118686500Y-101837871D01*
X118881847Y-101545515D01*
X119016404Y-101220665D01*
X119085000Y-100875807D01*
X119085000Y-100524193D01*
X119016404Y-100179335D01*
X118881847Y-99854485D01*
X118686500Y-99562129D01*
X118437871Y-99313500D01*
X118145515Y-99118153D01*
X117820665Y-98983596D01*
X117475807Y-98915000D01*
X117124193Y-98915000D01*
X116779335Y-98983596D01*
X116454485Y-99118153D01*
X116162129Y-99313500D01*
X115913500Y-99562129D01*
X115718153Y-99854485D01*
X115583596Y-100179335D01*
X115515000Y-100524193D01*
X115515000Y-100875807D01*
X115583596Y-101220665D01*
X115718153Y-101545515D01*
X115913500Y-101837871D01*
X116162129Y-102086500D01*
X116454485Y-102281847D01*
X116775943Y-102414999D01*
X115158554Y-102414999D01*
X115119999Y-102411202D01*
X115081444Y-102414999D01*
X115081438Y-102414999D01*
X115037048Y-102419371D01*
X114966113Y-102426357D01*
X114863027Y-102457628D01*
X114818139Y-102471245D01*
X114681766Y-102544137D01*
X114562235Y-102642235D01*
X114537652Y-102672189D01*
X114522189Y-102687652D01*
X114492235Y-102712235D01*
X114394137Y-102831767D01*
X114321245Y-102968140D01*
X114276358Y-103116113D01*
X114264999Y-103231439D01*
X114264999Y-103231446D01*
X114261202Y-103269999D01*
X114264999Y-103308552D01*
X114265000Y-105211436D01*
X114261202Y-105249999D01*
X114276358Y-105403885D01*
X114321245Y-105551858D01*
X114339098Y-105585258D01*
X114394138Y-105688232D01*
X114431068Y-105733231D01*
X114467654Y-105777811D01*
X114467658Y-105777815D01*
X114492236Y-105807763D01*
X114522184Y-105832341D01*
X114761928Y-106072085D01*
X114761928Y-107350000D01*
X114774188Y-107474482D01*
X114810498Y-107594180D01*
X114869463Y-107704494D01*
X114906809Y-107750000D01*
X114869463Y-107795506D01*
X114810498Y-107905820D01*
X114774188Y-108025518D01*
X114761928Y-108150000D01*
X114765000Y-108614250D01*
X114923750Y-108773000D01*
X116273000Y-108773000D01*
X116273000Y-108753000D01*
X116527000Y-108753000D01*
X116527000Y-108773000D01*
X117876250Y-108773000D01*
X118035000Y-108614250D01*
X118038072Y-108150000D01*
X118025812Y-108025518D01*
X117989502Y-107905820D01*
X117930537Y-107795506D01*
X117893191Y-107750000D01*
X117930537Y-107704494D01*
X117989502Y-107594180D01*
X118025812Y-107474482D01*
X118038072Y-107350000D01*
X118038072Y-105850000D01*
X118025812Y-105725518D01*
X117989502Y-105605820D01*
X117930537Y-105495506D01*
X117893191Y-105450000D01*
X117930537Y-105404494D01*
X117989502Y-105294180D01*
X118025812Y-105174482D01*
X118034625Y-105085000D01*
X121061928Y-105085000D01*
X121061928Y-108500000D01*
X121074188Y-108624482D01*
X121110498Y-108744180D01*
X121169463Y-108854494D01*
X121248815Y-108951185D01*
X121345506Y-109030537D01*
X121455820Y-109089502D01*
X121575518Y-109125812D01*
X121700000Y-109138072D01*
X123700000Y-109138072D01*
X123824482Y-109125812D01*
X123944180Y-109089502D01*
X124054494Y-109030537D01*
X124151185Y-108951185D01*
X124230537Y-108854494D01*
X124289502Y-108744180D01*
X124325812Y-108624482D01*
X124338072Y-108500000D01*
X124338072Y-105085000D01*
X144774843Y-105085000D01*
X145008662Y-105318819D01*
X144983596Y-105379335D01*
X144915000Y-105724193D01*
X144915000Y-106075807D01*
X144983596Y-106420665D01*
X145118153Y-106745515D01*
X145313500Y-107037871D01*
X145562129Y-107286500D01*
X145854485Y-107481847D01*
X146179335Y-107616404D01*
X146524193Y-107685000D01*
X146875807Y-107685000D01*
X147220665Y-107616404D01*
X147281180Y-107591338D01*
X148817659Y-109127817D01*
X148842237Y-109157765D01*
X148872185Y-109182343D01*
X148872188Y-109182346D01*
X148876336Y-109185750D01*
X148961768Y-109255863D01*
X149098141Y-109328755D01*
X149246114Y-109373642D01*
X149361440Y-109385001D01*
X149361447Y-109385001D01*
X149400000Y-109388798D01*
X149438553Y-109385001D01*
X158967448Y-109385001D01*
X159006001Y-109388798D01*
X159044554Y-109385001D01*
X159044562Y-109385001D01*
X159159888Y-109373642D01*
X159307861Y-109328755D01*
X159444234Y-109255863D01*
X159563765Y-109157765D01*
X159588348Y-109127812D01*
X160112260Y-108603899D01*
X160203080Y-108671641D01*
X160465901Y-108796825D01*
X160613110Y-108841476D01*
X160843000Y-108720155D01*
X160843000Y-107527000D01*
X161097000Y-107527000D01*
X161097000Y-108720155D01*
X161326890Y-108841476D01*
X161474099Y-108796825D01*
X161736920Y-108671641D01*
X161970269Y-108497588D01*
X162165178Y-108281355D01*
X162314157Y-108031252D01*
X162411481Y-107756891D01*
X162290814Y-107527000D01*
X161097000Y-107527000D01*
X160843000Y-107527000D01*
X160823000Y-107527000D01*
X160823000Y-107273000D01*
X160843000Y-107273000D01*
X160843000Y-106079845D01*
X161097000Y-106079845D01*
X161097000Y-107273000D01*
X162290814Y-107273000D01*
X162411481Y-107043109D01*
X162314157Y-106768748D01*
X162165178Y-106518645D01*
X161970269Y-106302412D01*
X161736920Y-106128359D01*
X161474099Y-106003175D01*
X161326890Y-105958524D01*
X161097000Y-106079845D01*
X160843000Y-106079845D01*
X160613110Y-105958524D01*
X160554999Y-105976150D01*
X160554999Y-105759170D01*
X163816340Y-105759170D01*
X163816340Y-106220830D01*
X163906406Y-106673620D01*
X164083075Y-107100139D01*
X164339560Y-107483996D01*
X164666004Y-107810440D01*
X165049861Y-108066925D01*
X165476380Y-108243594D01*
X165929170Y-108333660D01*
X166390830Y-108333660D01*
X166843620Y-108243594D01*
X167270139Y-108066925D01*
X167653996Y-107810440D01*
X167980440Y-107483996D01*
X168236925Y-107100139D01*
X168413594Y-106673620D01*
X168503660Y-106220830D01*
X168503660Y-105759170D01*
X168413594Y-105306380D01*
X168236925Y-104879861D01*
X167980440Y-104496004D01*
X167653996Y-104169560D01*
X167270139Y-103913075D01*
X166843620Y-103736406D01*
X166390830Y-103646340D01*
X165929170Y-103646340D01*
X165476380Y-103736406D01*
X165049861Y-103913075D01*
X164666004Y-104169560D01*
X164339560Y-104496004D01*
X164083075Y-104879861D01*
X163906406Y-105306380D01*
X163816340Y-105759170D01*
X160554999Y-105759170D01*
X160554999Y-104708551D01*
X160558796Y-104669998D01*
X160554999Y-104631445D01*
X160554999Y-104631438D01*
X160543640Y-104516112D01*
X160498753Y-104368139D01*
X160425861Y-104231766D01*
X160374809Y-104169560D01*
X160352344Y-104142186D01*
X160352341Y-104142183D01*
X160327763Y-104112235D01*
X160297816Y-104087658D01*
X156999125Y-100788967D01*
X176765000Y-100788967D01*
X176765000Y-101111033D01*
X176827832Y-101426912D01*
X176951082Y-101724463D01*
X177130013Y-101992252D01*
X177357748Y-102219987D01*
X177625537Y-102398918D01*
X177923088Y-102522168D01*
X178238967Y-102585000D01*
X178561033Y-102585000D01*
X178876912Y-102522168D01*
X179174463Y-102398918D01*
X179442252Y-102219987D01*
X179669987Y-101992252D01*
X179848918Y-101724463D01*
X179972168Y-101426912D01*
X180035000Y-101111033D01*
X180035000Y-100788967D01*
X179972168Y-100473088D01*
X179848918Y-100175537D01*
X179669987Y-99907748D01*
X179442252Y-99680013D01*
X179174463Y-99501082D01*
X178876912Y-99377832D01*
X178561033Y-99315000D01*
X178238967Y-99315000D01*
X177923088Y-99377832D01*
X177625537Y-99501082D01*
X177357748Y-99680013D01*
X177130013Y-99907748D01*
X176951082Y-100175537D01*
X176827832Y-100473088D01*
X176765000Y-100788967D01*
X156999125Y-100788967D01*
X156511695Y-100301538D01*
X156877244Y-100452953D01*
X157289721Y-100535000D01*
X157710279Y-100535000D01*
X158122756Y-100452953D01*
X158511302Y-100292012D01*
X158860983Y-100058363D01*
X159158363Y-99760983D01*
X159392012Y-99411302D01*
X159552953Y-99022756D01*
X159635000Y-98610279D01*
X159635000Y-98189721D01*
X159552953Y-97777244D01*
X159392012Y-97388698D01*
X159158363Y-97039017D01*
X158860983Y-96741637D01*
X158511302Y-96507988D01*
X158122756Y-96347047D01*
X157710279Y-96265000D01*
X157289721Y-96265000D01*
X156877244Y-96347047D01*
X156488698Y-96507988D01*
X156139017Y-96741637D01*
X155841637Y-97039017D01*
X155607988Y-97388698D01*
X155447047Y-97777244D01*
X155365000Y-98189721D01*
X155365000Y-98610279D01*
X155447047Y-99022756D01*
X155598462Y-99388305D01*
X153317874Y-97107717D01*
X153362561Y-96999834D01*
X153435000Y-96635656D01*
X153435000Y-96264344D01*
X153362561Y-95900166D01*
X153317874Y-95792283D01*
X154175158Y-94935000D01*
X156103856Y-94935000D01*
X156205820Y-94989502D01*
X156325518Y-95025812D01*
X156450000Y-95038072D01*
X156950000Y-95038072D01*
X157074482Y-95025812D01*
X157194180Y-94989502D01*
X157304494Y-94930537D01*
X157401185Y-94851185D01*
X157480537Y-94754494D01*
X157539502Y-94644180D01*
X157575812Y-94524482D01*
X157588072Y-94400000D01*
X157588072Y-93900000D01*
X157575812Y-93775518D01*
X157539502Y-93655820D01*
X157480537Y-93545506D01*
X157401185Y-93448815D01*
X157304494Y-93369463D01*
X157194180Y-93310498D01*
X157074482Y-93274188D01*
X156950000Y-93261928D01*
X156450000Y-93261928D01*
X156325518Y-93274188D01*
X156205820Y-93310498D01*
X156103856Y-93365000D01*
X153888552Y-93365000D01*
X153849999Y-93361203D01*
X153811446Y-93365000D01*
X153811439Y-93365000D01*
X153710490Y-93374943D01*
X153696112Y-93376359D01*
X153570517Y-93414458D01*
X153548140Y-93421246D01*
X153411767Y-93494138D01*
X153351559Y-93543550D01*
X153322187Y-93567655D01*
X153322184Y-93567658D01*
X153292236Y-93592236D01*
X153267658Y-93622184D01*
X152285000Y-94604842D01*
X152285000Y-92348589D01*
X152293709Y-92345947D01*
X152446164Y-92264458D01*
X152579792Y-92154792D01*
X152689458Y-92021164D01*
X152770947Y-91868709D01*
X152821128Y-91703285D01*
X152838072Y-91531250D01*
X152838072Y-91122500D01*
X153952672Y-91122500D01*
X154020208Y-91204792D01*
X154153836Y-91314458D01*
X154306291Y-91395947D01*
X154471715Y-91446128D01*
X154643750Y-91463072D01*
X155556250Y-91463072D01*
X155728285Y-91446128D01*
X155893709Y-91395947D01*
X156046164Y-91314458D01*
X156179792Y-91204792D01*
X156289458Y-91071164D01*
X156370947Y-90918709D01*
X156421128Y-90753285D01*
X156438072Y-90581250D01*
X156438072Y-90093750D01*
X156421128Y-89921715D01*
X156409991Y-89885000D01*
X158194499Y-89885000D01*
X158248815Y-89951185D01*
X158345506Y-90030537D01*
X158455820Y-90089502D01*
X158575518Y-90125812D01*
X158700000Y-90138072D01*
X159600000Y-90138072D01*
X159724482Y-90125812D01*
X159844180Y-90089502D01*
X159954494Y-90030537D01*
X160051185Y-89951185D01*
X160130537Y-89854494D01*
X160189502Y-89744180D01*
X160225812Y-89624482D01*
X160238072Y-89500000D01*
X160238072Y-88988095D01*
X160248815Y-89001185D01*
X160345506Y-89080537D01*
X160365000Y-89090957D01*
X160365001Y-93365000D01*
X159496144Y-93365000D01*
X159394180Y-93310498D01*
X159274482Y-93274188D01*
X159150000Y-93261928D01*
X158650000Y-93261928D01*
X158525518Y-93274188D01*
X158405820Y-93310498D01*
X158295506Y-93369463D01*
X158198815Y-93448815D01*
X158119463Y-93545506D01*
X158060498Y-93655820D01*
X158024188Y-93775518D01*
X158011928Y-93900000D01*
X158011928Y-94400000D01*
X158024188Y-94524482D01*
X158060498Y-94644180D01*
X158119463Y-94754494D01*
X158198815Y-94851185D01*
X158295506Y-94930537D01*
X158405820Y-94989502D01*
X158525518Y-95025812D01*
X158650000Y-95038072D01*
X159150000Y-95038072D01*
X159274482Y-95025812D01*
X159394180Y-94989502D01*
X159496144Y-94935000D01*
X160924843Y-94935000D01*
X161782126Y-95792283D01*
X161737439Y-95900166D01*
X161665000Y-96264344D01*
X161665000Y-96635656D01*
X161737439Y-96999834D01*
X161879534Y-97342882D01*
X162085825Y-97651618D01*
X162348382Y-97914175D01*
X162657118Y-98120466D01*
X163000166Y-98262561D01*
X163364344Y-98335000D01*
X163735656Y-98335000D01*
X164099834Y-98262561D01*
X164442882Y-98120466D01*
X164751618Y-97914175D01*
X165014175Y-97651618D01*
X165220466Y-97342882D01*
X165362561Y-96999834D01*
X165435000Y-96635656D01*
X165435000Y-96264344D01*
X165362561Y-95900166D01*
X165220466Y-95557118D01*
X165014175Y-95248382D01*
X164751618Y-94985825D01*
X164442882Y-94779534D01*
X164099834Y-94637439D01*
X163735656Y-94565000D01*
X163364344Y-94565000D01*
X163000166Y-94637439D01*
X162892283Y-94682126D01*
X161935000Y-93724843D01*
X161935000Y-92288967D01*
X176765000Y-92288967D01*
X176765000Y-92611033D01*
X176827832Y-92926912D01*
X176951082Y-93224463D01*
X177130013Y-93492252D01*
X177357748Y-93719987D01*
X177625537Y-93898918D01*
X177923088Y-94022168D01*
X178238967Y-94085000D01*
X178561033Y-94085000D01*
X178876912Y-94022168D01*
X179174463Y-93898918D01*
X179442252Y-93719987D01*
X179669987Y-93492252D01*
X179848918Y-93224463D01*
X179972168Y-92926912D01*
X180035000Y-92611033D01*
X180035000Y-92288967D01*
X179972168Y-91973088D01*
X179848918Y-91675537D01*
X179669987Y-91407748D01*
X179442252Y-91180013D01*
X179174463Y-91001082D01*
X178876912Y-90877832D01*
X178561033Y-90815000D01*
X178238967Y-90815000D01*
X177923088Y-90877832D01*
X177625537Y-91001082D01*
X177357748Y-91180013D01*
X177130013Y-91407748D01*
X176951082Y-91675537D01*
X176827832Y-91973088D01*
X176765000Y-92288967D01*
X161935000Y-92288967D01*
X161935000Y-89090957D01*
X161954494Y-89080537D01*
X162051185Y-89001185D01*
X162130537Y-88904494D01*
X162189502Y-88794180D01*
X162225812Y-88674482D01*
X162238072Y-88550000D01*
X162238072Y-87750000D01*
X162225812Y-87625518D01*
X162189502Y-87505820D01*
X162130537Y-87395506D01*
X162051185Y-87298815D01*
X161954494Y-87219463D01*
X161844180Y-87160498D01*
X161724482Y-87124188D01*
X161600000Y-87111928D01*
X160700000Y-87111928D01*
X160575518Y-87124188D01*
X160455820Y-87160498D01*
X160345506Y-87219463D01*
X160248815Y-87298815D01*
X160169463Y-87395506D01*
X160160857Y-87411607D01*
X160076250Y-87327000D01*
X159277000Y-87327000D01*
X159277000Y-87347000D01*
X159023000Y-87347000D01*
X159023000Y-87327000D01*
X158223750Y-87327000D01*
X158065000Y-87485750D01*
X158061928Y-87600000D01*
X158074188Y-87724482D01*
X158110498Y-87844180D01*
X158169463Y-87954494D01*
X158248815Y-88051185D01*
X158345506Y-88130537D01*
X158381918Y-88150000D01*
X158345506Y-88169463D01*
X158248815Y-88248815D01*
X158194499Y-88315000D01*
X156438072Y-88315000D01*
X156438072Y-88218750D01*
X156421128Y-88046715D01*
X156370947Y-87881291D01*
X156289458Y-87728836D01*
X156179792Y-87595208D01*
X156046164Y-87485542D01*
X155893709Y-87404053D01*
X155885000Y-87401411D01*
X155885000Y-86800000D01*
X158061928Y-86800000D01*
X158065000Y-86914250D01*
X158223750Y-87073000D01*
X159023000Y-87073000D01*
X159023000Y-86323750D01*
X159277000Y-86323750D01*
X159277000Y-87073000D01*
X160076250Y-87073000D01*
X160235000Y-86914250D01*
X160238072Y-86800000D01*
X160225812Y-86675518D01*
X160189502Y-86555820D01*
X160130537Y-86445506D01*
X160051185Y-86348815D01*
X159954494Y-86269463D01*
X159844180Y-86210498D01*
X159724482Y-86174188D01*
X159600000Y-86161928D01*
X159435750Y-86165000D01*
X159277000Y-86323750D01*
X159023000Y-86323750D01*
X158864250Y-86165000D01*
X158700000Y-86161928D01*
X158575518Y-86174188D01*
X158455820Y-86210498D01*
X158345506Y-86269463D01*
X158248815Y-86348815D01*
X158169463Y-86445506D01*
X158110498Y-86555820D01*
X158074188Y-86675518D01*
X158061928Y-86800000D01*
X155885000Y-86800000D01*
X155885000Y-86198589D01*
X155893709Y-86195947D01*
X156046164Y-86114458D01*
X156179792Y-86004792D01*
X156289458Y-85871164D01*
X156370947Y-85718709D01*
X156421128Y-85553285D01*
X156438072Y-85381250D01*
X156438072Y-84893750D01*
X156421128Y-84721715D01*
X156370947Y-84556291D01*
X156289458Y-84403836D01*
X156179792Y-84270208D01*
X156173436Y-84264992D01*
X156251185Y-84201185D01*
X156330537Y-84104494D01*
X156365159Y-84039721D01*
X161415000Y-84039721D01*
X161415000Y-84460279D01*
X161497047Y-84872756D01*
X161657988Y-85261302D01*
X161891637Y-85610983D01*
X162189017Y-85908363D01*
X162538698Y-86142012D01*
X162927244Y-86302953D01*
X163339721Y-86385000D01*
X163760279Y-86385000D01*
X164172756Y-86302953D01*
X164561302Y-86142012D01*
X164910983Y-85908363D01*
X165208363Y-85610983D01*
X165442012Y-85261302D01*
X165602953Y-84872756D01*
X165685000Y-84460279D01*
X165685000Y-84039721D01*
X165602953Y-83627244D01*
X165442012Y-83238698D01*
X165208363Y-82889017D01*
X164910983Y-82591637D01*
X164561302Y-82357988D01*
X164172756Y-82197047D01*
X163760279Y-82115000D01*
X163339721Y-82115000D01*
X162927244Y-82197047D01*
X162538698Y-82357988D01*
X162189017Y-82591637D01*
X161891637Y-82889017D01*
X161657988Y-83238698D01*
X161497047Y-83627244D01*
X161415000Y-84039721D01*
X156365159Y-84039721D01*
X156389502Y-83994180D01*
X156425812Y-83874482D01*
X156438072Y-83750000D01*
X156435000Y-83548250D01*
X156276250Y-83389500D01*
X155227000Y-83389500D01*
X155227000Y-83409500D01*
X154973000Y-83409500D01*
X154973000Y-83389500D01*
X153923750Y-83389500D01*
X153765000Y-83548250D01*
X153761928Y-83750000D01*
X153774188Y-83874482D01*
X153810498Y-83994180D01*
X153869463Y-84104494D01*
X153948815Y-84201185D01*
X154026564Y-84264992D01*
X154020208Y-84270208D01*
X153910542Y-84403836D01*
X153829053Y-84556291D01*
X153778872Y-84721715D01*
X153761928Y-84893750D01*
X153761928Y-85381250D01*
X153778872Y-85553285D01*
X153829053Y-85718709D01*
X153910542Y-85871164D01*
X154020208Y-86004792D01*
X154153836Y-86114458D01*
X154306291Y-86195947D01*
X154315000Y-86198589D01*
X154315001Y-87401411D01*
X154306291Y-87404053D01*
X154153836Y-87485542D01*
X154020208Y-87595208D01*
X153910542Y-87728836D01*
X153829053Y-87881291D01*
X153778872Y-88046715D01*
X153761928Y-88218750D01*
X153761928Y-88706250D01*
X153778872Y-88878285D01*
X153829053Y-89043709D01*
X153910542Y-89196164D01*
X154020208Y-89329792D01*
X154105756Y-89400000D01*
X154020208Y-89470208D01*
X153952672Y-89552500D01*
X152689250Y-89552500D01*
X152676250Y-89539500D01*
X151627000Y-89539500D01*
X151627000Y-89552500D01*
X151373000Y-89552500D01*
X151373000Y-89539500D01*
X150323750Y-89539500D01*
X150310750Y-89552500D01*
X149121054Y-89552500D01*
X149082501Y-89548703D01*
X149043948Y-89552500D01*
X149043941Y-89552500D01*
X148942992Y-89562443D01*
X148928614Y-89563859D01*
X148904652Y-89571128D01*
X148780642Y-89608746D01*
X148644269Y-89681638D01*
X148596909Y-89720506D01*
X148554689Y-89755155D01*
X148554686Y-89755158D01*
X148524738Y-89779736D01*
X148500160Y-89809684D01*
X148388589Y-89921256D01*
X148334594Y-89761600D01*
X148222090Y-89551118D01*
X147942349Y-89437256D01*
X146879605Y-90500000D01*
X146893748Y-90514143D01*
X146714143Y-90693748D01*
X146700000Y-90679605D01*
X146685858Y-90693748D01*
X146506253Y-90514143D01*
X146520395Y-90500000D01*
X146506253Y-90485858D01*
X146685858Y-90306253D01*
X146700000Y-90320395D01*
X147762744Y-89257651D01*
X147648882Y-88977910D01*
X147541896Y-88925000D01*
X150161928Y-88925000D01*
X150165000Y-89126750D01*
X150323750Y-89285500D01*
X151373000Y-89285500D01*
X151373000Y-88448750D01*
X151627000Y-88448750D01*
X151627000Y-89285500D01*
X152676250Y-89285500D01*
X152835000Y-89126750D01*
X152838072Y-88925000D01*
X152825812Y-88800518D01*
X152789502Y-88680820D01*
X152730537Y-88570506D01*
X152651185Y-88473815D01*
X152554494Y-88394463D01*
X152444180Y-88335498D01*
X152324482Y-88299188D01*
X152200000Y-88286928D01*
X151785750Y-88290000D01*
X151627000Y-88448750D01*
X151373000Y-88448750D01*
X151214250Y-88290000D01*
X150800000Y-88286928D01*
X150675518Y-88299188D01*
X150555820Y-88335498D01*
X150445506Y-88394463D01*
X150348815Y-88473815D01*
X150269463Y-88570506D01*
X150210498Y-88680820D01*
X150174188Y-88800518D01*
X150161928Y-88925000D01*
X147541896Y-88925000D01*
X147333704Y-88822039D01*
X146994174Y-88730651D01*
X146643339Y-88707259D01*
X146294681Y-88752760D01*
X145961600Y-88865406D01*
X145751118Y-88977910D01*
X145638072Y-89255646D01*
X145638072Y-89150000D01*
X145625812Y-89025518D01*
X145589502Y-88905820D01*
X145530537Y-88795506D01*
X145451185Y-88698815D01*
X145391704Y-88650000D01*
X145451185Y-88601185D01*
X145530537Y-88504494D01*
X145589502Y-88394180D01*
X145625812Y-88274482D01*
X145638072Y-88150000D01*
X145638072Y-87150000D01*
X145625812Y-87025518D01*
X145589502Y-86905820D01*
X145530537Y-86795506D01*
X145451185Y-86698815D01*
X145391704Y-86650000D01*
X145451185Y-86601185D01*
X145530537Y-86504494D01*
X145589502Y-86394180D01*
X145625812Y-86274482D01*
X145638072Y-86150000D01*
X145635000Y-85935750D01*
X145476250Y-85777000D01*
X143877000Y-85777000D01*
X143877000Y-85797000D01*
X143623000Y-85797000D01*
X143623000Y-85777000D01*
X142023750Y-85777000D01*
X141865000Y-85935750D01*
X141861928Y-86150000D01*
X141874188Y-86274482D01*
X141910498Y-86394180D01*
X141969463Y-86504494D01*
X142048815Y-86601185D01*
X142108296Y-86650000D01*
X142048815Y-86698815D01*
X141969463Y-86795506D01*
X141910498Y-86905820D01*
X141874188Y-87025518D01*
X141861928Y-87150000D01*
X141861928Y-88150000D01*
X141874188Y-88274482D01*
X141910498Y-88394180D01*
X141969463Y-88504494D01*
X142048815Y-88601185D01*
X142108296Y-88650000D01*
X142048815Y-88698815D01*
X141969463Y-88795506D01*
X141910498Y-88905820D01*
X141874188Y-89025518D01*
X141861928Y-89150000D01*
X141861928Y-90150000D01*
X141874188Y-90274482D01*
X141910498Y-90394180D01*
X141969463Y-90504494D01*
X142048815Y-90601185D01*
X142108296Y-90650000D01*
X142048815Y-90698815D01*
X141969463Y-90795506D01*
X141932317Y-90865000D01*
X136945155Y-90865000D01*
X131757627Y-85677472D01*
X131774482Y-85675812D01*
X131894180Y-85639502D01*
X132004494Y-85580537D01*
X132101185Y-85501185D01*
X132150000Y-85441704D01*
X132198815Y-85501185D01*
X132295506Y-85580537D01*
X132405820Y-85639502D01*
X132525518Y-85675812D01*
X132650000Y-85688072D01*
X133650000Y-85688072D01*
X133774482Y-85675812D01*
X133894180Y-85639502D01*
X134004494Y-85580537D01*
X134101185Y-85501185D01*
X134150000Y-85441704D01*
X134198815Y-85501185D01*
X134295506Y-85580537D01*
X134405820Y-85639502D01*
X134525518Y-85675812D01*
X134650000Y-85688072D01*
X135650000Y-85688072D01*
X135774482Y-85675812D01*
X135894180Y-85639502D01*
X136004494Y-85580537D01*
X136101185Y-85501185D01*
X136150000Y-85441704D01*
X136198815Y-85501185D01*
X136295506Y-85580537D01*
X136405820Y-85639502D01*
X136525518Y-85675812D01*
X136650000Y-85688072D01*
X137650000Y-85688072D01*
X137774482Y-85675812D01*
X137894180Y-85639502D01*
X138004494Y-85580537D01*
X138101185Y-85501185D01*
X138150000Y-85441704D01*
X138198815Y-85501185D01*
X138295506Y-85580537D01*
X138405820Y-85639502D01*
X138525518Y-85675812D01*
X138650000Y-85688072D01*
X139650000Y-85688072D01*
X139774482Y-85675812D01*
X139894180Y-85639502D01*
X140004494Y-85580537D01*
X140101185Y-85501185D01*
X140150000Y-85441704D01*
X140198815Y-85501185D01*
X140295506Y-85580537D01*
X140405820Y-85639502D01*
X140525518Y-85675812D01*
X140650000Y-85688072D01*
X141650000Y-85688072D01*
X141774482Y-85675812D01*
X141894180Y-85639502D01*
X142004494Y-85580537D01*
X142074603Y-85523000D01*
X143623000Y-85523000D01*
X143623000Y-84673750D01*
X143877000Y-84673750D01*
X143877000Y-85523000D01*
X145476250Y-85523000D01*
X145635000Y-85364250D01*
X145638072Y-85150000D01*
X145625812Y-85025518D01*
X145589502Y-84905820D01*
X145530537Y-84795506D01*
X145451185Y-84698815D01*
X145354494Y-84619463D01*
X145244180Y-84560498D01*
X145124482Y-84524188D01*
X145000000Y-84511928D01*
X144035750Y-84515000D01*
X143877000Y-84673750D01*
X143623000Y-84673750D01*
X143464250Y-84515000D01*
X142500000Y-84511928D01*
X142375518Y-84524188D01*
X142288072Y-84550714D01*
X142288072Y-83989721D01*
X149365000Y-83989721D01*
X149365000Y-84410279D01*
X149447047Y-84822756D01*
X149607988Y-85211302D01*
X149841637Y-85560983D01*
X150139017Y-85858363D01*
X150488698Y-86092012D01*
X150877244Y-86252953D01*
X151289721Y-86335000D01*
X151710279Y-86335000D01*
X152122756Y-86252953D01*
X152511302Y-86092012D01*
X152860983Y-85858363D01*
X153158363Y-85560983D01*
X153392012Y-85211302D01*
X153552953Y-84822756D01*
X153635000Y-84410279D01*
X153635000Y-83989721D01*
X153552953Y-83577244D01*
X153392012Y-83188698D01*
X153158363Y-82839017D01*
X153094346Y-82775000D01*
X153761928Y-82775000D01*
X153765000Y-82976750D01*
X153923750Y-83135500D01*
X154973000Y-83135500D01*
X154973000Y-82298750D01*
X155227000Y-82298750D01*
X155227000Y-83135500D01*
X156276250Y-83135500D01*
X156435000Y-82976750D01*
X156438072Y-82775000D01*
X156425812Y-82650518D01*
X156389502Y-82530820D01*
X156330537Y-82420506D01*
X156251185Y-82323815D01*
X156154494Y-82244463D01*
X156044180Y-82185498D01*
X155924482Y-82149188D01*
X155800000Y-82136928D01*
X155385750Y-82140000D01*
X155227000Y-82298750D01*
X154973000Y-82298750D01*
X154814250Y-82140000D01*
X154400000Y-82136928D01*
X154275518Y-82149188D01*
X154155820Y-82185498D01*
X154045506Y-82244463D01*
X153948815Y-82323815D01*
X153869463Y-82420506D01*
X153810498Y-82530820D01*
X153774188Y-82650518D01*
X153761928Y-82775000D01*
X153094346Y-82775000D01*
X152860983Y-82541637D01*
X152511302Y-82307988D01*
X152122756Y-82147047D01*
X151710279Y-82065000D01*
X151289721Y-82065000D01*
X150877244Y-82147047D01*
X150488698Y-82307988D01*
X150139017Y-82541637D01*
X149841637Y-82839017D01*
X149607988Y-83188698D01*
X149447047Y-83577244D01*
X149365000Y-83989721D01*
X142288072Y-83989721D01*
X142288072Y-83250000D01*
X142275812Y-83125518D01*
X142239502Y-83005820D01*
X142180537Y-82895506D01*
X142101185Y-82798815D01*
X142004494Y-82719463D01*
X141894180Y-82660498D01*
X141774482Y-82624188D01*
X141650000Y-82611928D01*
X140650000Y-82611928D01*
X140525518Y-82624188D01*
X140405820Y-82660498D01*
X140295506Y-82719463D01*
X140198815Y-82798815D01*
X140150000Y-82858296D01*
X140101185Y-82798815D01*
X140004494Y-82719463D01*
X139894180Y-82660498D01*
X139774482Y-82624188D01*
X139650000Y-82611928D01*
X138650000Y-82611928D01*
X138525518Y-82624188D01*
X138405820Y-82660498D01*
X138295506Y-82719463D01*
X138198815Y-82798815D01*
X138150000Y-82858296D01*
X138101185Y-82798815D01*
X138004494Y-82719463D01*
X137894180Y-82660498D01*
X137774482Y-82624188D01*
X137650000Y-82611928D01*
X136650000Y-82611928D01*
X136525518Y-82624188D01*
X136405820Y-82660498D01*
X136295506Y-82719463D01*
X136198815Y-82798815D01*
X136150000Y-82858296D01*
X136101185Y-82798815D01*
X136004494Y-82719463D01*
X135894180Y-82660498D01*
X135774482Y-82624188D01*
X135650000Y-82611928D01*
X134650000Y-82611928D01*
X134525518Y-82624188D01*
X134405820Y-82660498D01*
X134295506Y-82719463D01*
X134198815Y-82798815D01*
X134150000Y-82858296D01*
X134101185Y-82798815D01*
X134004494Y-82719463D01*
X133894180Y-82660498D01*
X133774482Y-82624188D01*
X133650000Y-82611928D01*
X132650000Y-82611928D01*
X132525518Y-82624188D01*
X132405820Y-82660498D01*
X132295506Y-82719463D01*
X132198815Y-82798815D01*
X132150000Y-82858296D01*
X132101185Y-82798815D01*
X132004494Y-82719463D01*
X131894180Y-82660498D01*
X131774482Y-82624188D01*
X131650000Y-82611928D01*
X130650000Y-82611928D01*
X130525518Y-82624188D01*
X130405820Y-82660498D01*
X130295506Y-82719463D01*
X130198815Y-82798815D01*
X130119463Y-82895506D01*
X130060498Y-83005820D01*
X130024188Y-83125518D01*
X130011928Y-83250000D01*
X130011928Y-83621769D01*
X127712349Y-81322190D01*
X127687766Y-81292236D01*
X127568235Y-81194138D01*
X127431862Y-81121246D01*
X127283889Y-81076359D01*
X127168563Y-81065000D01*
X127168555Y-81065000D01*
X127130002Y-81061203D01*
X127091449Y-81065000D01*
X125741877Y-81065000D01*
X125569987Y-80807748D01*
X125342252Y-80580013D01*
X125074463Y-80401082D01*
X124776912Y-80277832D01*
X124461033Y-80215000D01*
X124138967Y-80215000D01*
X123823088Y-80277832D01*
X123525537Y-80401082D01*
X123257748Y-80580013D01*
X123030013Y-80807748D01*
X122851082Y-81075537D01*
X122727832Y-81373088D01*
X122665000Y-81688967D01*
X122665000Y-82011033D01*
X122727832Y-82326912D01*
X122851082Y-82624463D01*
X123030013Y-82892252D01*
X123257748Y-83119987D01*
X123525537Y-83298918D01*
X123823088Y-83422168D01*
X124138967Y-83485000D01*
X124461033Y-83485000D01*
X124776912Y-83422168D01*
X125074463Y-83298918D01*
X125342252Y-83119987D01*
X125569987Y-82892252D01*
X125741877Y-82635000D01*
X126804845Y-82635000D01*
X128681773Y-84511928D01*
X127300000Y-84511928D01*
X127175518Y-84524188D01*
X127055820Y-84560498D01*
X126945506Y-84619463D01*
X126848815Y-84698815D01*
X126769463Y-84795506D01*
X126710498Y-84905820D01*
X126674188Y-85025518D01*
X126661928Y-85150000D01*
X126661928Y-86150000D01*
X126674188Y-86274482D01*
X126710498Y-86394180D01*
X126769463Y-86504494D01*
X126848815Y-86601185D01*
X126908296Y-86650000D01*
X126848815Y-86698815D01*
X126769463Y-86795506D01*
X126732317Y-86865000D01*
X126161346Y-86865000D01*
X126122793Y-86861203D01*
X126084240Y-86865000D01*
X126084233Y-86865000D01*
X125968907Y-86876359D01*
X125842180Y-86914801D01*
X125922384Y-86608892D01*
X125941718Y-86287405D01*
X125897961Y-85968325D01*
X125792795Y-85663912D01*
X125699814Y-85489956D01*
X125435413Y-85394192D01*
X124479605Y-86350000D01*
X124493748Y-86364143D01*
X124314143Y-86543748D01*
X124300000Y-86529605D01*
X123344192Y-87485413D01*
X123439956Y-87749814D01*
X123729571Y-87890704D01*
X124041108Y-87972384D01*
X124362595Y-87991718D01*
X124681675Y-87947961D01*
X124732093Y-87930543D01*
X122486533Y-90176104D01*
X122488072Y-90075000D01*
X122475812Y-89950518D01*
X122439502Y-89830820D01*
X122380537Y-89720506D01*
X122301185Y-89623815D01*
X122204494Y-89544463D01*
X122094180Y-89485498D01*
X121974482Y-89449188D01*
X121850000Y-89436928D01*
X121435750Y-89440000D01*
X121277000Y-89598750D01*
X121277000Y-90435500D01*
X121297000Y-90435500D01*
X121297000Y-90615010D01*
X119088072Y-90615010D01*
X119088072Y-90318750D01*
X119071128Y-90146715D01*
X119049374Y-90075000D01*
X119811928Y-90075000D01*
X119815000Y-90276750D01*
X119973750Y-90435500D01*
X121023000Y-90435500D01*
X121023000Y-89598750D01*
X120864250Y-89440000D01*
X120450000Y-89436928D01*
X120325518Y-89449188D01*
X120205820Y-89485498D01*
X120095506Y-89544463D01*
X119998815Y-89623815D01*
X119919463Y-89720506D01*
X119860498Y-89830820D01*
X119824188Y-89950518D01*
X119811928Y-90075000D01*
X119049374Y-90075000D01*
X119020947Y-89981291D01*
X118939458Y-89828836D01*
X118829792Y-89695208D01*
X118696164Y-89585542D01*
X118543709Y-89504053D01*
X118378285Y-89453872D01*
X118206250Y-89436928D01*
X117734586Y-89436928D01*
X117234999Y-88937342D01*
X117234999Y-87892127D01*
X117541108Y-87972384D01*
X117862595Y-87991718D01*
X118181675Y-87947961D01*
X118486088Y-87842795D01*
X118660044Y-87749814D01*
X118755808Y-87485413D01*
X117800000Y-86529605D01*
X117785858Y-86543748D01*
X117606253Y-86364143D01*
X117620395Y-86350000D01*
X117979605Y-86350000D01*
X118935413Y-87305808D01*
X119199814Y-87210044D01*
X119340704Y-86920429D01*
X119422384Y-86608892D01*
X119434189Y-86412595D01*
X122658282Y-86412595D01*
X122702039Y-86731675D01*
X122807205Y-87036088D01*
X122900186Y-87210044D01*
X123164587Y-87305808D01*
X124120395Y-86350000D01*
X123164587Y-85394192D01*
X122900186Y-85489956D01*
X122759296Y-85779571D01*
X122677616Y-86091108D01*
X122658282Y-86412595D01*
X119434189Y-86412595D01*
X119441718Y-86287405D01*
X119397961Y-85968325D01*
X119292795Y-85663912D01*
X119199814Y-85489956D01*
X118935413Y-85394192D01*
X117979605Y-86350000D01*
X117620395Y-86350000D01*
X117606253Y-86335858D01*
X117785858Y-86156253D01*
X117800000Y-86170395D01*
X118755808Y-85214587D01*
X123344192Y-85214587D01*
X124300000Y-86170395D01*
X125255808Y-85214587D01*
X125160044Y-84950186D01*
X124870429Y-84809296D01*
X124558892Y-84727616D01*
X124237405Y-84708282D01*
X123918325Y-84752039D01*
X123613912Y-84857205D01*
X123439956Y-84950186D01*
X123344192Y-85214587D01*
X118755808Y-85214587D01*
X118660044Y-84950186D01*
X118420303Y-84833559D01*
X118455862Y-84790231D01*
X118528754Y-84653858D01*
X118534026Y-84636478D01*
X118573642Y-84505885D01*
X118581528Y-84425812D01*
X118585000Y-84390559D01*
X118585000Y-84390554D01*
X118588797Y-84351998D01*
X118585000Y-84313442D01*
X118585000Y-83291877D01*
X118842252Y-83119987D01*
X119069987Y-82892252D01*
X119248918Y-82624463D01*
X119372168Y-82326912D01*
X119435000Y-82011033D01*
X119435000Y-81688967D01*
X119372168Y-81373088D01*
X119248918Y-81075537D01*
X119069987Y-80807748D01*
X118842252Y-80580013D01*
X118574463Y-80401082D01*
X118276912Y-80277832D01*
X117961033Y-80215000D01*
X117638967Y-80215000D01*
X117323088Y-80277832D01*
X117025537Y-80401082D01*
X116757748Y-80580013D01*
X116530013Y-80807748D01*
X116351082Y-81075537D01*
X116227832Y-81373088D01*
X116165000Y-81688967D01*
X116165000Y-82011033D01*
X116227832Y-82326912D01*
X116281915Y-82457479D01*
X116053996Y-82229560D01*
X115670139Y-81973075D01*
X115243620Y-81796406D01*
X114790830Y-81706340D01*
X114329170Y-81706340D01*
X113876380Y-81796406D01*
X113449861Y-81973075D01*
X113066004Y-82229560D01*
X112739560Y-82556004D01*
X112483075Y-82939861D01*
X112306406Y-83366380D01*
X112216340Y-83819170D01*
X112216340Y-84280830D01*
X112306406Y-84733620D01*
X112483075Y-85160139D01*
X112739560Y-85543996D01*
X113066004Y-85870440D01*
X113449861Y-86126925D01*
X113876380Y-86303594D01*
X114329170Y-86393660D01*
X114790830Y-86393660D01*
X115243620Y-86303594D01*
X115664999Y-86129054D01*
X115665000Y-89223936D01*
X115661202Y-89262499D01*
X115676358Y-89416385D01*
X115721245Y-89564358D01*
X115753382Y-89624482D01*
X115794138Y-89700732D01*
X115829795Y-89744180D01*
X115867654Y-89790311D01*
X115867658Y-89790315D01*
X115892236Y-89820263D01*
X115922184Y-89844841D01*
X116411928Y-90334585D01*
X116411928Y-90615010D01*
X112262668Y-90615010D01*
X111863072Y-90215415D01*
X111863072Y-89743750D01*
X111846128Y-89571715D01*
X111795947Y-89406291D01*
X111714458Y-89253836D01*
X111604792Y-89120208D01*
X111471164Y-89010542D01*
X111318709Y-88929053D01*
X111153285Y-88878872D01*
X110981250Y-88861928D01*
X110493750Y-88861928D01*
X110321715Y-88878872D01*
X110156291Y-88929053D01*
X110003836Y-89010542D01*
X109870208Y-89120208D01*
X109800000Y-89205756D01*
X109729792Y-89120208D01*
X109647500Y-89052672D01*
X109647500Y-84433744D01*
X109937743Y-84376011D01*
X110217095Y-84260299D01*
X110468505Y-84092312D01*
X110682312Y-83878505D01*
X110850299Y-83627095D01*
X110966011Y-83347743D01*
X111025000Y-83051184D01*
X111025000Y-82748816D01*
X110966011Y-82452257D01*
X110850299Y-82172905D01*
X110682312Y-81921495D01*
X110468505Y-81707688D01*
X110217095Y-81539701D01*
X109937743Y-81423989D01*
X109641184Y-81365000D01*
X109338816Y-81365000D01*
X109042257Y-81423989D01*
X108762905Y-81539701D01*
X108511495Y-81707688D01*
X108445056Y-81774127D01*
X108439502Y-81755820D01*
X108380537Y-81645506D01*
X108301185Y-81548815D01*
X108204494Y-81469463D01*
X108094180Y-81410498D01*
X107974482Y-81374188D01*
X107850000Y-81361928D01*
X107235750Y-81365000D01*
X107077000Y-81523750D01*
X106823000Y-81523750D01*
X106664250Y-81365000D01*
X106050000Y-81361928D01*
X105925518Y-81374188D01*
X105805820Y-81410498D01*
X105695506Y-81469463D01*
X105598815Y-81548815D01*
X105519463Y-81645506D01*
X105460498Y-81755820D01*
X105424188Y-81875518D01*
X105411928Y-82000000D01*
X99995000Y-82000000D01*
X99995000Y-79885000D01*
X131325000Y-79885000D01*
X131325001Y-81008972D01*
G37*
G04 #@! TD.AperFunction*
M02*
