%FSLAX45Y45*%
G04 Gerber Fmt 4.5, Leading zero omitted, Abs format (unit mm)*
G04 Created by KiCad (PCBNEW 5.1.12-84ad8e8a86~92~ubuntu20.04.1) date 2021-11-22 17:21:36*
%MOMM*%
%LPD*%
G01*
G04 APERTURE LIST*
%TA.AperFunction,Profile*%
%ADD10C,0.400000*%
%TD*%
%ADD11C,0.200000*%
%ADD12C,0.300000*%
G04 APERTURE END LIST*
D10*
X14716000Y-11105000D02*
X18116000Y-11105000D01*
X14716000Y-10905000D02*
X14716000Y-11105000D01*
X13216000Y-10905000D02*
X14716000Y-10905000D01*
X13216000Y-10905000D02*
X13216000Y-11105000D01*
X9916000Y-11105000D02*
X13216000Y-11105000D01*
X14716000Y-7905000D02*
X18116000Y-7905000D01*
X14716000Y-7905000D02*
X14716000Y-8105000D01*
X13216000Y-8105000D02*
X14716000Y-8105000D01*
X13216000Y-7905000D02*
X13216000Y-8105000D01*
X16766000Y-10599000D02*
G75*
G03*
X16766000Y-10599000I-150000J0D01*
G01*
X11606000Y-8405000D02*
G75*
G03*
X11606000Y-8405000I-150000J0D01*
G01*
X9916000Y-11105000D02*
X9916000Y-7905000D01*
X18116000Y-7905000D02*
X18116000Y-11105000D01*
X9916000Y-7905000D02*
X13216000Y-7905000D01*
D11*
D12*
X10182428Y-11590714D02*
X10182428Y-11290714D01*
X10253857Y-11290714D01*
X10296714Y-11305000D01*
X10325286Y-11333571D01*
X10339571Y-11362143D01*
X10353857Y-11419286D01*
X10353857Y-11462143D01*
X10339571Y-11519286D01*
X10325286Y-11547857D01*
X10296714Y-11576429D01*
X10253857Y-11590714D01*
X10182428Y-11590714D01*
X10482428Y-11590714D02*
X10482428Y-11390714D01*
X10482428Y-11447857D02*
X10496714Y-11419286D01*
X10511000Y-11405000D01*
X10539571Y-11390714D01*
X10568143Y-11390714D01*
X10668143Y-11590714D02*
X10668143Y-11390714D01*
X10668143Y-11290714D02*
X10653857Y-11305000D01*
X10668143Y-11319286D01*
X10682428Y-11305000D01*
X10668143Y-11290714D01*
X10668143Y-11319286D01*
X10853857Y-11590714D02*
X10825286Y-11576429D01*
X10811000Y-11547857D01*
X10811000Y-11290714D01*
X11011000Y-11590714D02*
X10982428Y-11576429D01*
X10968143Y-11547857D01*
X10968143Y-11290714D01*
X11353857Y-11590714D02*
X11353857Y-11290714D01*
X11453857Y-11505000D01*
X11553857Y-11290714D01*
X11553857Y-11590714D01*
X11825286Y-11590714D02*
X11825286Y-11433571D01*
X11811000Y-11405000D01*
X11782428Y-11390714D01*
X11725286Y-11390714D01*
X11696714Y-11405000D01*
X11825286Y-11576429D02*
X11796714Y-11590714D01*
X11725286Y-11590714D01*
X11696714Y-11576429D01*
X11682428Y-11547857D01*
X11682428Y-11519286D01*
X11696714Y-11490714D01*
X11725286Y-11476429D01*
X11796714Y-11476429D01*
X11825286Y-11462143D01*
X11968143Y-11390714D02*
X11968143Y-11690714D01*
X11968143Y-11405000D02*
X11996714Y-11390714D01*
X12053857Y-11390714D01*
X12082428Y-11405000D01*
X12096714Y-11419286D01*
X12111000Y-11447857D01*
X12111000Y-11533571D01*
X12096714Y-11562143D01*
X12082428Y-11576429D01*
X12053857Y-11590714D01*
X11996714Y-11590714D01*
X11968143Y-11576429D01*
X12239571Y-11562143D02*
X12253857Y-11576429D01*
X12239571Y-11590714D01*
X12225286Y-11576429D01*
X12239571Y-11562143D01*
X12239571Y-11590714D01*
X12239571Y-11405000D02*
X12253857Y-11419286D01*
X12239571Y-11433571D01*
X12225286Y-11419286D01*
X12239571Y-11405000D01*
X12239571Y-11433571D01*
M02*
