M48
; DRILL file {KiCad 5.1.12-84ad8e8a86~92~ubuntu20.04.1} date lun 22 nov 2021 17:21:41
; FORMAT={-:-/ absolute / metric / decimal}
; #@! TF.CreationDate,2021-11-22T17:21:41+01:00
; #@! TF.GenerationSoftware,Kicad,Pcbnew,5.1.12-84ad8e8a86~92~ubuntu20.04.1
; #@! TF.FileFunction,Plated,1,2,PTH
FMAT,2
METRIC
T1C0.900
T2C1.000
T3C1.100
T4C1.300
%
G90
G05
T1
X106.95Y-82.9
X109.49Y-82.9
T2
X117.3Y-95.7
X117.3Y-100.7
X146.7Y-90.5
X146.7Y-105.9
X151.55Y-96.45
X153.35Y-107.4
X155.89Y-107.4
X158.43Y-107.4
X160.97Y-107.4
X163.55Y-96.45
T3
X101.55Y-91.6
X101.55Y-100.1
X117.8Y-81.85
X117.8Y-86.35
X124.3Y-81.85
X124.3Y-86.35
X178.4Y-92.45
X178.4Y-100.95
T4
X151.5Y-84.2
X157.5Y-98.4
X163.55Y-84.25
T0
M30
