%TF.GenerationSoftware,KiCad,Pcbnew,5.1.5+dfsg1-2build2*%
%TF.CreationDate,2021-01-19T23:04:30+01:00*%
%TF.ProjectId,iotCronotempLcd,696f7443-726f-46e6-9f74-656d704c6364,rev?*%
%TF.SameCoordinates,Original*%
%TF.FileFunction,Legend,Top*%
%TF.FilePolarity,Positive*%
%FSLAX46Y46*%
G04 Gerber Fmt 4.6, Leading zero omitted, Abs format (unit mm)*
G04 Created by KiCad (PCBNEW 5.1.5+dfsg1-2build2) date 2021-01-19 23:04:30*
%MOMM*%
%LPD*%
G04 APERTURE LIST*
%ADD10C,0.100000*%
%ADD11C,0.150000*%
%ADD12C,0.300000*%
%ADD13C,0.400000*%
%ADD14C,0.120000*%
G04 APERTURE END LIST*
D10*
D11*
X177002200Y-166007200D02*
X177002200Y-198007200D01*
X285002200Y-198007200D01*
X285002200Y-166007200D01*
X177002200Y-166007200D01*
D10*
D11*
X10000000Y-10000000D02*
X10000000Y-200007200D01*
X287002200Y-200007200D01*
X287002200Y-10000000D01*
X10000000Y-10000000D01*
D10*
D11*
X12000000Y-12000000D02*
X12000000Y-198007200D01*
X285002200Y-198007200D01*
X285002200Y-12000000D01*
X12000000Y-12000000D01*
D10*
D11*
X60000000Y-12000000D02*
X60000000Y-10000000D01*
D10*
D11*
X110000000Y-12000000D02*
X110000000Y-10000000D01*
D10*
D11*
X160000000Y-12000000D02*
X160000000Y-10000000D01*
D10*
D11*
X210000000Y-12000000D02*
X210000000Y-10000000D01*
D10*
D11*
X260000000Y-12000000D02*
X260000000Y-10000000D01*
D10*
D11*
X36065476Y-11588095D02*
X35322619Y-11588095D01*
X35694047Y-11588095D02*
X35694047Y-10288095D01*
X35570238Y-10473809D01*
X35446428Y-10597619D01*
X35322619Y-10659523D01*
D10*
D11*
X85322619Y-10411904D02*
X85384523Y-10350000D01*
X85508333Y-10288095D01*
X85817857Y-10288095D01*
X85941666Y-10350000D01*
X86003571Y-10411904D01*
X86065476Y-10535714D01*
X86065476Y-10659523D01*
X86003571Y-10845238D01*
X85260714Y-11588095D01*
X86065476Y-11588095D01*
D10*
D11*
X135260714Y-10288095D02*
X136065476Y-10288095D01*
X135632142Y-10783333D01*
X135817857Y-10783333D01*
X135941666Y-10845238D01*
X136003571Y-10907142D01*
X136065476Y-11030952D01*
X136065476Y-11340476D01*
X136003571Y-11464285D01*
X135941666Y-11526190D01*
X135817857Y-11588095D01*
X135446428Y-11588095D01*
X135322619Y-11526190D01*
X135260714Y-11464285D01*
D10*
D11*
X185941666Y-10721428D02*
X185941666Y-11588095D01*
X185632142Y-10226190D02*
X185322619Y-11154761D01*
X186127380Y-11154761D01*
D10*
D11*
X236003571Y-10288095D02*
X235384523Y-10288095D01*
X235322619Y-10907142D01*
X235384523Y-10845238D01*
X235508333Y-10783333D01*
X235817857Y-10783333D01*
X235941666Y-10845238D01*
X236003571Y-10907142D01*
X236065476Y-11030952D01*
X236065476Y-11340476D01*
X236003571Y-11464285D01*
X235941666Y-11526190D01*
X235817857Y-11588095D01*
X235508333Y-11588095D01*
X235384523Y-11526190D01*
X235322619Y-11464285D01*
D10*
D11*
X285941666Y-10288095D02*
X285694047Y-10288095D01*
X285570238Y-10350000D01*
X285508333Y-10411904D01*
X285384523Y-10597619D01*
X285322619Y-10845238D01*
X285322619Y-11340476D01*
X285384523Y-11464285D01*
X285446428Y-11526190D01*
X285570238Y-11588095D01*
X285817857Y-11588095D01*
X285941666Y-11526190D01*
X286003571Y-11464285D01*
X286065476Y-11340476D01*
X286065476Y-11030952D01*
X286003571Y-10907142D01*
X285941666Y-10845238D01*
X285817857Y-10783333D01*
X285570238Y-10783333D01*
X285446428Y-10845238D01*
X285384523Y-10907142D01*
X285322619Y-11030952D01*
D10*
D11*
X60000000Y-198007200D02*
X60000000Y-200007200D01*
D10*
D11*
X110000000Y-198007200D02*
X110000000Y-200007200D01*
D10*
D11*
X160000000Y-198007200D02*
X160000000Y-200007200D01*
D10*
D11*
X210000000Y-198007200D02*
X210000000Y-200007200D01*
D10*
D11*
X260000000Y-198007200D02*
X260000000Y-200007200D01*
D10*
D11*
X36065476Y-199595295D02*
X35322619Y-199595295D01*
X35694047Y-199595295D02*
X35694047Y-198295295D01*
X35570238Y-198481009D01*
X35446428Y-198604819D01*
X35322619Y-198666723D01*
D10*
D11*
X85322619Y-198419104D02*
X85384523Y-198357200D01*
X85508333Y-198295295D01*
X85817857Y-198295295D01*
X85941666Y-198357200D01*
X86003571Y-198419104D01*
X86065476Y-198542914D01*
X86065476Y-198666723D01*
X86003571Y-198852438D01*
X85260714Y-199595295D01*
X86065476Y-199595295D01*
D10*
D11*
X135260714Y-198295295D02*
X136065476Y-198295295D01*
X135632142Y-198790533D01*
X135817857Y-198790533D01*
X135941666Y-198852438D01*
X136003571Y-198914342D01*
X136065476Y-199038152D01*
X136065476Y-199347676D01*
X136003571Y-199471485D01*
X135941666Y-199533390D01*
X135817857Y-199595295D01*
X135446428Y-199595295D01*
X135322619Y-199533390D01*
X135260714Y-199471485D01*
D10*
D11*
X185941666Y-198728628D02*
X185941666Y-199595295D01*
X185632142Y-198233390D02*
X185322619Y-199161961D01*
X186127380Y-199161961D01*
D10*
D11*
X236003571Y-198295295D02*
X235384523Y-198295295D01*
X235322619Y-198914342D01*
X235384523Y-198852438D01*
X235508333Y-198790533D01*
X235817857Y-198790533D01*
X235941666Y-198852438D01*
X236003571Y-198914342D01*
X236065476Y-199038152D01*
X236065476Y-199347676D01*
X236003571Y-199471485D01*
X235941666Y-199533390D01*
X235817857Y-199595295D01*
X235508333Y-199595295D01*
X235384523Y-199533390D01*
X235322619Y-199471485D01*
D10*
D11*
X285941666Y-198295295D02*
X285694047Y-198295295D01*
X285570238Y-198357200D01*
X285508333Y-198419104D01*
X285384523Y-198604819D01*
X285322619Y-198852438D01*
X285322619Y-199347676D01*
X285384523Y-199471485D01*
X285446428Y-199533390D01*
X285570238Y-199595295D01*
X285817857Y-199595295D01*
X285941666Y-199533390D01*
X286003571Y-199471485D01*
X286065476Y-199347676D01*
X286065476Y-199038152D01*
X286003571Y-198914342D01*
X285941666Y-198852438D01*
X285817857Y-198790533D01*
X285570238Y-198790533D01*
X285446428Y-198852438D01*
X285384523Y-198914342D01*
X285322619Y-199038152D01*
D10*
D11*
X10000000Y-60000000D02*
X12000000Y-60000000D01*
D10*
D11*
X10000000Y-110000000D02*
X12000000Y-110000000D01*
D10*
D11*
X10000000Y-160000000D02*
X12000000Y-160000000D01*
D10*
D11*
X10690476Y-35216666D02*
X11309523Y-35216666D01*
X10566666Y-35588095D02*
X11000000Y-34288095D01*
X11433333Y-35588095D01*
D10*
D11*
X11092857Y-84907142D02*
X11278571Y-84969047D01*
X11340476Y-85030952D01*
X11402380Y-85154761D01*
X11402380Y-85340476D01*
X11340476Y-85464285D01*
X11278571Y-85526190D01*
X11154761Y-85588095D01*
X10659523Y-85588095D01*
X10659523Y-84288095D01*
X11092857Y-84288095D01*
X11216666Y-84350000D01*
X11278571Y-84411904D01*
X11340476Y-84535714D01*
X11340476Y-84659523D01*
X11278571Y-84783333D01*
X11216666Y-84845238D01*
X11092857Y-84907142D01*
X10659523Y-84907142D01*
D10*
D11*
X11402380Y-135464285D02*
X11340476Y-135526190D01*
X11154761Y-135588095D01*
X11030952Y-135588095D01*
X10845238Y-135526190D01*
X10721428Y-135402380D01*
X10659523Y-135278571D01*
X10597619Y-135030952D01*
X10597619Y-134845238D01*
X10659523Y-134597619D01*
X10721428Y-134473809D01*
X10845238Y-134350000D01*
X11030952Y-134288095D01*
X11154761Y-134288095D01*
X11340476Y-134350000D01*
X11402380Y-134411904D01*
D10*
D11*
X10659523Y-185588095D02*
X10659523Y-184288095D01*
X10969047Y-184288095D01*
X11154761Y-184350000D01*
X11278571Y-184473809D01*
X11340476Y-184597619D01*
X11402380Y-184845238D01*
X11402380Y-185030952D01*
X11340476Y-185278571D01*
X11278571Y-185402380D01*
X11154761Y-185526190D01*
X10969047Y-185588095D01*
X10659523Y-185588095D01*
D10*
D11*
X287002200Y-60000000D02*
X285002200Y-60000000D01*
D10*
D11*
X287002200Y-110000000D02*
X285002200Y-110000000D01*
D10*
D11*
X287002200Y-160000000D02*
X285002200Y-160000000D01*
D10*
D11*
X285692676Y-35216666D02*
X286311723Y-35216666D01*
X285568866Y-35588095D02*
X286002200Y-34288095D01*
X286435533Y-35588095D01*
D10*
D11*
X286095057Y-84907142D02*
X286280771Y-84969047D01*
X286342676Y-85030952D01*
X286404580Y-85154761D01*
X286404580Y-85340476D01*
X286342676Y-85464285D01*
X286280771Y-85526190D01*
X286156961Y-85588095D01*
X285661723Y-85588095D01*
X285661723Y-84288095D01*
X286095057Y-84288095D01*
X286218866Y-84350000D01*
X286280771Y-84411904D01*
X286342676Y-84535714D01*
X286342676Y-84659523D01*
X286280771Y-84783333D01*
X286218866Y-84845238D01*
X286095057Y-84907142D01*
X285661723Y-84907142D01*
D10*
D11*
X286404580Y-135464285D02*
X286342676Y-135526190D01*
X286156961Y-135588095D01*
X286033152Y-135588095D01*
X285847438Y-135526190D01*
X285723628Y-135402380D01*
X285661723Y-135278571D01*
X285599819Y-135030952D01*
X285599819Y-134845238D01*
X285661723Y-134597619D01*
X285723628Y-134473809D01*
X285847438Y-134350000D01*
X286033152Y-134288095D01*
X286156961Y-134288095D01*
X286342676Y-134350000D01*
X286404580Y-134411904D01*
D10*
D11*
X285661723Y-185588095D02*
X285661723Y-184288095D01*
X285971247Y-184288095D01*
X286156961Y-184350000D01*
X286280771Y-184473809D01*
X286342676Y-184597619D01*
X286404580Y-184845238D01*
X286404580Y-185030952D01*
X286342676Y-185278571D01*
X286280771Y-185402380D01*
X286156961Y-185526190D01*
X285971247Y-185588095D01*
X285661723Y-185588095D01*
D10*
D11*
X200434342Y-193785771D02*
X200434342Y-192285771D01*
X200791485Y-192285771D01*
X201005771Y-192357200D01*
X201148628Y-192500057D01*
X201220057Y-192642914D01*
X201291485Y-192928628D01*
X201291485Y-193142914D01*
X201220057Y-193428628D01*
X201148628Y-193571485D01*
X201005771Y-193714342D01*
X200791485Y-193785771D01*
X200434342Y-193785771D01*
X202577200Y-193785771D02*
X202577200Y-193000057D01*
X202505771Y-192857200D01*
X202362914Y-192785771D01*
X202077200Y-192785771D01*
X201934342Y-192857200D01*
X202577200Y-193714342D02*
X202434342Y-193785771D01*
X202077200Y-193785771D01*
X201934342Y-193714342D01*
X201862914Y-193571485D01*
X201862914Y-193428628D01*
X201934342Y-193285771D01*
X202077200Y-193214342D01*
X202434342Y-193214342D01*
X202577200Y-193142914D01*
X203077200Y-192785771D02*
X203648628Y-192785771D01*
X203291485Y-192285771D02*
X203291485Y-193571485D01*
X203362914Y-193714342D01*
X203505771Y-193785771D01*
X203648628Y-193785771D01*
X204720057Y-193714342D02*
X204577200Y-193785771D01*
X204291485Y-193785771D01*
X204148628Y-193714342D01*
X204077200Y-193571485D01*
X204077200Y-193000057D01*
X204148628Y-192857200D01*
X204291485Y-192785771D01*
X204577200Y-192785771D01*
X204720057Y-192857200D01*
X204791485Y-193000057D01*
X204791485Y-193142914D01*
X204077200Y-193285771D01*
X205434342Y-193642914D02*
X205505771Y-193714342D01*
X205434342Y-193785771D01*
X205362914Y-193714342D01*
X205434342Y-193642914D01*
X205434342Y-193785771D01*
X205434342Y-192857200D02*
X205505771Y-192928628D01*
X205434342Y-193000057D01*
X205362914Y-192928628D01*
X205434342Y-192857200D01*
X205434342Y-193000057D01*
D10*
D11*
X177002200Y-194507200D02*
X285002200Y-194507200D01*
D10*
D11*
X178434342Y-196585771D02*
X178434342Y-195085771D01*
X179291485Y-196585771D02*
X178648628Y-195728628D01*
X179291485Y-195085771D02*
X178434342Y-195942914D01*
X179934342Y-196585771D02*
X179934342Y-195585771D01*
X179934342Y-195085771D02*
X179862914Y-195157200D01*
X179934342Y-195228628D01*
X180005771Y-195157200D01*
X179934342Y-195085771D01*
X179934342Y-195228628D01*
X181505771Y-196442914D02*
X181434342Y-196514342D01*
X181220057Y-196585771D01*
X181077200Y-196585771D01*
X180862914Y-196514342D01*
X180720057Y-196371485D01*
X180648628Y-196228628D01*
X180577200Y-195942914D01*
X180577200Y-195728628D01*
X180648628Y-195442914D01*
X180720057Y-195300057D01*
X180862914Y-195157200D01*
X181077200Y-195085771D01*
X181220057Y-195085771D01*
X181434342Y-195157200D01*
X181505771Y-195228628D01*
X182791485Y-196585771D02*
X182791485Y-195800057D01*
X182720057Y-195657200D01*
X182577200Y-195585771D01*
X182291485Y-195585771D01*
X182148628Y-195657200D01*
X182791485Y-196514342D02*
X182648628Y-196585771D01*
X182291485Y-196585771D01*
X182148628Y-196514342D01*
X182077200Y-196371485D01*
X182077200Y-196228628D01*
X182148628Y-196085771D01*
X182291485Y-196014342D01*
X182648628Y-196014342D01*
X182791485Y-195942914D01*
X184148628Y-196585771D02*
X184148628Y-195085771D01*
X184148628Y-196514342D02*
X184005771Y-196585771D01*
X183720057Y-196585771D01*
X183577200Y-196514342D01*
X183505771Y-196442914D01*
X183434342Y-196300057D01*
X183434342Y-195871485D01*
X183505771Y-195728628D01*
X183577200Y-195657200D01*
X183720057Y-195585771D01*
X184005771Y-195585771D01*
X184148628Y-195657200D01*
X186005771Y-195800057D02*
X186505771Y-195800057D01*
X186720057Y-196585771D02*
X186005771Y-196585771D01*
X186005771Y-195085771D01*
X186720057Y-195085771D01*
X187362914Y-196442914D02*
X187434342Y-196514342D01*
X187362914Y-196585771D01*
X187291485Y-196514342D01*
X187362914Y-196442914D01*
X187362914Y-196585771D01*
X188077200Y-196585771D02*
X188077200Y-195085771D01*
X188434342Y-195085771D01*
X188648628Y-195157200D01*
X188791485Y-195300057D01*
X188862914Y-195442914D01*
X188934342Y-195728628D01*
X188934342Y-195942914D01*
X188862914Y-196228628D01*
X188791485Y-196371485D01*
X188648628Y-196514342D01*
X188434342Y-196585771D01*
X188077200Y-196585771D01*
X189577200Y-196442914D02*
X189648628Y-196514342D01*
X189577200Y-196585771D01*
X189505771Y-196514342D01*
X189577200Y-196442914D01*
X189577200Y-196585771D01*
X190220057Y-196157200D02*
X190934342Y-196157200D01*
X190077200Y-196585771D02*
X190577200Y-195085771D01*
X191077200Y-196585771D01*
X191577200Y-196442914D02*
X191648628Y-196514342D01*
X191577200Y-196585771D01*
X191505771Y-196514342D01*
X191577200Y-196442914D01*
X191577200Y-196585771D01*
X194577200Y-196585771D02*
X194577200Y-195085771D01*
X194720057Y-196014342D02*
X195148628Y-196585771D01*
X195148628Y-195585771D02*
X194577200Y-196157200D01*
X195791485Y-196585771D02*
X195791485Y-195585771D01*
X195791485Y-195085771D02*
X195720057Y-195157200D01*
X195791485Y-195228628D01*
X195862914Y-195157200D01*
X195791485Y-195085771D01*
X195791485Y-195228628D01*
X197148628Y-196514342D02*
X197005771Y-196585771D01*
X196720057Y-196585771D01*
X196577200Y-196514342D01*
X196505771Y-196442914D01*
X196434342Y-196300057D01*
X196434342Y-195871485D01*
X196505771Y-195728628D01*
X196577200Y-195657200D01*
X196720057Y-195585771D01*
X197005771Y-195585771D01*
X197148628Y-195657200D01*
X198434342Y-196585771D02*
X198434342Y-195800057D01*
X198362914Y-195657200D01*
X198220057Y-195585771D01*
X197934342Y-195585771D01*
X197791485Y-195657200D01*
X198434342Y-196514342D02*
X198291485Y-196585771D01*
X197934342Y-196585771D01*
X197791485Y-196514342D01*
X197720057Y-196371485D01*
X197720057Y-196228628D01*
X197791485Y-196085771D01*
X197934342Y-196014342D01*
X198291485Y-196014342D01*
X198434342Y-195942914D01*
X199791485Y-196585771D02*
X199791485Y-195085771D01*
X199791485Y-196514342D02*
X199648628Y-196585771D01*
X199362914Y-196585771D01*
X199220057Y-196514342D01*
X199148628Y-196442914D01*
X199077200Y-196300057D01*
X199077200Y-195871485D01*
X199148628Y-195728628D01*
X199220057Y-195657200D01*
X199362914Y-195585771D01*
X199648628Y-195585771D01*
X199791485Y-195657200D01*
X202362914Y-195085771D02*
X201648628Y-195085771D01*
X201577200Y-195800057D01*
X201648628Y-195728628D01*
X201791485Y-195657200D01*
X202148628Y-195657200D01*
X202291485Y-195728628D01*
X202362914Y-195800057D01*
X202434342Y-195942914D01*
X202434342Y-196300057D01*
X202362914Y-196442914D01*
X202291485Y-196514342D01*
X202148628Y-196585771D01*
X201791485Y-196585771D01*
X201648628Y-196514342D01*
X201577200Y-196442914D01*
X203077200Y-196442914D02*
X203148628Y-196514342D01*
X203077200Y-196585771D01*
X203005771Y-196514342D01*
X203077200Y-196442914D01*
X203077200Y-196585771D01*
X204577200Y-196585771D02*
X203720057Y-196585771D01*
X204148628Y-196585771D02*
X204148628Y-195085771D01*
X204005771Y-195300057D01*
X203862914Y-195442914D01*
X203720057Y-195514342D01*
X205220057Y-196442914D02*
X205291485Y-196514342D01*
X205220057Y-196585771D01*
X205148628Y-196514342D01*
X205220057Y-196442914D01*
X205220057Y-196585771D01*
X206648628Y-195085771D02*
X205934342Y-195085771D01*
X205862914Y-195800057D01*
X205934342Y-195728628D01*
X206077200Y-195657200D01*
X206434342Y-195657200D01*
X206577200Y-195728628D01*
X206648628Y-195800057D01*
X206720057Y-195942914D01*
X206720057Y-196300057D01*
X206648628Y-196442914D01*
X206577200Y-196514342D01*
X206434342Y-196585771D01*
X206077200Y-196585771D01*
X205934342Y-196514342D01*
X205862914Y-196442914D01*
X207362914Y-196014342D02*
X208505771Y-196014342D01*
X207934342Y-196585771D02*
X207934342Y-195442914D01*
X209862914Y-196585771D02*
X209862914Y-195085771D01*
X209862914Y-196514342D02*
X209720057Y-196585771D01*
X209434342Y-196585771D01*
X209291485Y-196514342D01*
X209220057Y-196442914D01*
X209148628Y-196300057D01*
X209148628Y-195871485D01*
X209220057Y-195728628D01*
X209291485Y-195657200D01*
X209434342Y-195585771D01*
X209720057Y-195585771D01*
X209862914Y-195657200D01*
X210362914Y-195585771D02*
X210934342Y-195585771D01*
X210577200Y-196585771D02*
X210577200Y-195300057D01*
X210648628Y-195157200D01*
X210791485Y-195085771D01*
X210934342Y-195085771D01*
X211362914Y-196514342D02*
X211505771Y-196585771D01*
X211791485Y-196585771D01*
X211934342Y-196514342D01*
X212005771Y-196371485D01*
X212005771Y-196300057D01*
X211934342Y-196157200D01*
X211791485Y-196085771D01*
X211577200Y-196085771D01*
X211434342Y-196014342D01*
X211362914Y-195871485D01*
X211362914Y-195800057D01*
X211434342Y-195657200D01*
X211577200Y-195585771D01*
X211791485Y-195585771D01*
X211934342Y-195657200D01*
X213291485Y-195585771D02*
X213291485Y-196800057D01*
X213220057Y-196942914D01*
X213148628Y-197014342D01*
X213005771Y-197085771D01*
X212791485Y-197085771D01*
X212648628Y-197014342D01*
X213291485Y-196514342D02*
X213148628Y-196585771D01*
X212862914Y-196585771D01*
X212720057Y-196514342D01*
X212648628Y-196442914D01*
X212577200Y-196300057D01*
X212577200Y-195871485D01*
X212648628Y-195728628D01*
X212720057Y-195657200D01*
X212862914Y-195585771D01*
X213148628Y-195585771D01*
X213291485Y-195657200D01*
X214791485Y-196585771D02*
X213934342Y-196585771D01*
X214362914Y-196585771D02*
X214362914Y-195085771D01*
X214220057Y-195300057D01*
X214077200Y-195442914D01*
X213934342Y-195514342D01*
X215434342Y-196014342D02*
X216577200Y-196014342D01*
X217220057Y-195228628D02*
X217291485Y-195157200D01*
X217434342Y-195085771D01*
X217791485Y-195085771D01*
X217934342Y-195157200D01*
X218005771Y-195228628D01*
X218077200Y-195371485D01*
X218077200Y-195514342D01*
X218005771Y-195728628D01*
X217148628Y-196585771D01*
X218077200Y-196585771D01*
X218720057Y-196585771D02*
X218720057Y-195085771D01*
X218720057Y-195657200D02*
X218862914Y-195585771D01*
X219148628Y-195585771D01*
X219291485Y-195657200D01*
X219362914Y-195728628D01*
X219434342Y-195871485D01*
X219434342Y-196300057D01*
X219362914Y-196442914D01*
X219291485Y-196514342D01*
X219148628Y-196585771D01*
X218862914Y-196585771D01*
X218720057Y-196514342D01*
X220720057Y-195585771D02*
X220720057Y-196585771D01*
X220077200Y-195585771D02*
X220077200Y-196371485D01*
X220148628Y-196514342D01*
X220291485Y-196585771D01*
X220505771Y-196585771D01*
X220648628Y-196514342D01*
X220720057Y-196442914D01*
X221434342Y-196585771D02*
X221434342Y-195585771D01*
X221434342Y-195085771D02*
X221362914Y-195157200D01*
X221434342Y-195228628D01*
X221505771Y-195157200D01*
X221434342Y-195085771D01*
X221434342Y-195228628D01*
X222362914Y-196585771D02*
X222220057Y-196514342D01*
X222148628Y-196371485D01*
X222148628Y-195085771D01*
X223577200Y-196585771D02*
X223577200Y-195085771D01*
X223577200Y-196514342D02*
X223434342Y-196585771D01*
X223148628Y-196585771D01*
X223005771Y-196514342D01*
X222934342Y-196442914D01*
X222862914Y-196300057D01*
X222862914Y-195871485D01*
X222934342Y-195728628D01*
X223005771Y-195657200D01*
X223148628Y-195585771D01*
X223434342Y-195585771D01*
X223577200Y-195657200D01*
X224220057Y-195228628D02*
X224291485Y-195157200D01*
X224434342Y-195085771D01*
X224791485Y-195085771D01*
X224934342Y-195157200D01*
X225005771Y-195228628D01*
X225077200Y-195371485D01*
X225077200Y-195514342D01*
X225005771Y-195728628D01*
X224148628Y-196585771D01*
X225077200Y-196585771D01*
D10*
D11*
X177002200Y-191507200D02*
X285002200Y-191507200D01*
D10*
D12*
X264411485Y-193785771D02*
X263911485Y-193071485D01*
X263554342Y-193785771D02*
X263554342Y-192285771D01*
X264125771Y-192285771D01*
X264268628Y-192357200D01*
X264340057Y-192428628D01*
X264411485Y-192571485D01*
X264411485Y-192785771D01*
X264340057Y-192928628D01*
X264268628Y-193000057D01*
X264125771Y-193071485D01*
X263554342Y-193071485D01*
X265625771Y-193714342D02*
X265482914Y-193785771D01*
X265197200Y-193785771D01*
X265054342Y-193714342D01*
X264982914Y-193571485D01*
X264982914Y-193000057D01*
X265054342Y-192857200D01*
X265197200Y-192785771D01*
X265482914Y-192785771D01*
X265625771Y-192857200D01*
X265697200Y-193000057D01*
X265697200Y-193142914D01*
X264982914Y-193285771D01*
X266197200Y-192785771D02*
X266554342Y-193785771D01*
X266911485Y-192785771D01*
X267482914Y-193642914D02*
X267554342Y-193714342D01*
X267482914Y-193785771D01*
X267411485Y-193714342D01*
X267482914Y-193642914D01*
X267482914Y-193785771D01*
X267482914Y-192857200D02*
X267554342Y-192928628D01*
X267482914Y-193000057D01*
X267411485Y-192928628D01*
X267482914Y-192857200D01*
X267482914Y-193000057D01*
D10*
D11*
X178362914Y-193714342D02*
X178577200Y-193785771D01*
X178934342Y-193785771D01*
X179077200Y-193714342D01*
X179148628Y-193642914D01*
X179220057Y-193500057D01*
X179220057Y-193357200D01*
X179148628Y-193214342D01*
X179077200Y-193142914D01*
X178934342Y-193071485D01*
X178648628Y-193000057D01*
X178505771Y-192928628D01*
X178434342Y-192857200D01*
X178362914Y-192714342D01*
X178362914Y-192571485D01*
X178434342Y-192428628D01*
X178505771Y-192357200D01*
X178648628Y-192285771D01*
X179005771Y-192285771D01*
X179220057Y-192357200D01*
X179862914Y-193785771D02*
X179862914Y-192785771D01*
X179862914Y-192285771D02*
X179791485Y-192357200D01*
X179862914Y-192428628D01*
X179934342Y-192357200D01*
X179862914Y-192285771D01*
X179862914Y-192428628D01*
X180434342Y-192785771D02*
X181220057Y-192785771D01*
X180434342Y-193785771D01*
X181220057Y-193785771D01*
X182362914Y-193714342D02*
X182220057Y-193785771D01*
X181934342Y-193785771D01*
X181791485Y-193714342D01*
X181720057Y-193571485D01*
X181720057Y-193000057D01*
X181791485Y-192857200D01*
X181934342Y-192785771D01*
X182220057Y-192785771D01*
X182362914Y-192857200D01*
X182434342Y-193000057D01*
X182434342Y-193142914D01*
X181720057Y-193285771D01*
X183077200Y-193642914D02*
X183148628Y-193714342D01*
X183077200Y-193785771D01*
X183005771Y-193714342D01*
X183077200Y-193642914D01*
X183077200Y-193785771D01*
X183077200Y-192857200D02*
X183148628Y-192928628D01*
X183077200Y-193000057D01*
X183005771Y-192928628D01*
X183077200Y-192857200D01*
X183077200Y-193000057D01*
X184862914Y-193357200D02*
X185577200Y-193357200D01*
X184720057Y-193785771D02*
X185220057Y-192285771D01*
X185720057Y-193785771D01*
X186862914Y-192785771D02*
X186862914Y-193785771D01*
X186505771Y-192214342D02*
X186148628Y-193285771D01*
X187077200Y-193285771D01*
D10*
D11*
X263434342Y-196585771D02*
X263434342Y-195085771D01*
X264791485Y-196585771D02*
X264791485Y-195085771D01*
X264791485Y-196514342D02*
X264648628Y-196585771D01*
X264362914Y-196585771D01*
X264220057Y-196514342D01*
X264148628Y-196442914D01*
X264077200Y-196300057D01*
X264077200Y-195871485D01*
X264148628Y-195728628D01*
X264220057Y-195657200D01*
X264362914Y-195585771D01*
X264648628Y-195585771D01*
X264791485Y-195657200D01*
X265505771Y-196442914D02*
X265577200Y-196514342D01*
X265505771Y-196585771D01*
X265434342Y-196514342D01*
X265505771Y-196442914D01*
X265505771Y-196585771D01*
X265505771Y-195657200D02*
X265577200Y-195728628D01*
X265505771Y-195800057D01*
X265434342Y-195728628D01*
X265505771Y-195657200D01*
X265505771Y-195800057D01*
X268148628Y-196585771D02*
X267291485Y-196585771D01*
X267720057Y-196585771D02*
X267720057Y-195085771D01*
X267577200Y-195300057D01*
X267434342Y-195442914D01*
X267291485Y-195514342D01*
X269862914Y-195014342D02*
X268577200Y-196942914D01*
X271148628Y-196585771D02*
X270291485Y-196585771D01*
X270720057Y-196585771D02*
X270720057Y-195085771D01*
X270577200Y-195300057D01*
X270434342Y-195442914D01*
X270291485Y-195514342D01*
D10*
D11*
X177002200Y-187507200D02*
X285002200Y-187507200D01*
D10*
D13*
X178714580Y-188211961D02*
X179857438Y-188211961D01*
X179036009Y-190211961D02*
X179286009Y-188211961D01*
X180274104Y-190211961D02*
X180440771Y-188878628D01*
X180524104Y-188211961D02*
X180416961Y-188307200D01*
X180500295Y-188402438D01*
X180607438Y-188307200D01*
X180524104Y-188211961D01*
X180500295Y-188402438D01*
X181107438Y-188878628D02*
X181869342Y-188878628D01*
X181476485Y-188211961D02*
X181262200Y-189926247D01*
X181333628Y-190116723D01*
X181512200Y-190211961D01*
X181702676Y-190211961D01*
X182655057Y-190211961D02*
X182476485Y-190116723D01*
X182405057Y-189926247D01*
X182619342Y-188211961D01*
X184190771Y-190116723D02*
X183988390Y-190211961D01*
X183607438Y-190211961D01*
X183428866Y-190116723D01*
X183357438Y-189926247D01*
X183452676Y-189164342D01*
X183571723Y-188973866D01*
X183774104Y-188878628D01*
X184155057Y-188878628D01*
X184333628Y-188973866D01*
X184405057Y-189164342D01*
X184381247Y-189354819D01*
X183405057Y-189545295D01*
X185155057Y-190021485D02*
X185238390Y-190116723D01*
X185131247Y-190211961D01*
X185047914Y-190116723D01*
X185155057Y-190021485D01*
X185131247Y-190211961D01*
X185286009Y-188973866D02*
X185369342Y-189069104D01*
X185262200Y-189164342D01*
X185178866Y-189069104D01*
X185286009Y-188973866D01*
X185262200Y-189164342D01*
D10*
D11*
X178934342Y-185600057D02*
X178434342Y-185600057D01*
X178434342Y-186385771D02*
X178434342Y-184885771D01*
X179148628Y-184885771D01*
X179720057Y-186385771D02*
X179720057Y-185385771D01*
X179720057Y-184885771D02*
X179648628Y-184957200D01*
X179720057Y-185028628D01*
X179791485Y-184957200D01*
X179720057Y-184885771D01*
X179720057Y-185028628D01*
X180648628Y-186385771D02*
X180505771Y-186314342D01*
X180434342Y-186171485D01*
X180434342Y-184885771D01*
X181791485Y-186314342D02*
X181648628Y-186385771D01*
X181362914Y-186385771D01*
X181220057Y-186314342D01*
X181148628Y-186171485D01*
X181148628Y-185600057D01*
X181220057Y-185457200D01*
X181362914Y-185385771D01*
X181648628Y-185385771D01*
X181791485Y-185457200D01*
X181862914Y-185600057D01*
X181862914Y-185742914D01*
X181148628Y-185885771D01*
X182505771Y-186242914D02*
X182577200Y-186314342D01*
X182505771Y-186385771D01*
X182434342Y-186314342D01*
X182505771Y-186242914D01*
X182505771Y-186385771D01*
X182505771Y-185457200D02*
X182577200Y-185528628D01*
X182505771Y-185600057D01*
X182434342Y-185528628D01*
X182505771Y-185457200D01*
X182505771Y-185600057D01*
X184362914Y-186385771D02*
X184362914Y-185385771D01*
X184362914Y-184885771D02*
X184291485Y-184957200D01*
X184362914Y-185028628D01*
X184434342Y-184957200D01*
X184362914Y-184885771D01*
X184362914Y-185028628D01*
X185291485Y-186385771D02*
X185148628Y-186314342D01*
X185077200Y-186242914D01*
X185005771Y-186100057D01*
X185005771Y-185671485D01*
X185077200Y-185528628D01*
X185148628Y-185457200D01*
X185291485Y-185385771D01*
X185505771Y-185385771D01*
X185648628Y-185457200D01*
X185720057Y-185528628D01*
X185791485Y-185671485D01*
X185791485Y-186100057D01*
X185720057Y-186242914D01*
X185648628Y-186314342D01*
X185505771Y-186385771D01*
X185291485Y-186385771D01*
X186220057Y-185385771D02*
X186791485Y-185385771D01*
X186434342Y-184885771D02*
X186434342Y-186171485D01*
X186505771Y-186314342D01*
X186648628Y-186385771D01*
X186791485Y-186385771D01*
X188148628Y-186242914D02*
X188077200Y-186314342D01*
X187862914Y-186385771D01*
X187720057Y-186385771D01*
X187505771Y-186314342D01*
X187362914Y-186171485D01*
X187291485Y-186028628D01*
X187220057Y-185742914D01*
X187220057Y-185528628D01*
X187291485Y-185242914D01*
X187362914Y-185100057D01*
X187505771Y-184957200D01*
X187720057Y-184885771D01*
X187862914Y-184885771D01*
X188077200Y-184957200D01*
X188148628Y-185028628D01*
X188791485Y-186385771D02*
X188791485Y-185385771D01*
X188791485Y-185671485D02*
X188862914Y-185528628D01*
X188934342Y-185457200D01*
X189077200Y-185385771D01*
X189220057Y-185385771D01*
X189934342Y-186385771D02*
X189791485Y-186314342D01*
X189720057Y-186242914D01*
X189648628Y-186100057D01*
X189648628Y-185671485D01*
X189720057Y-185528628D01*
X189791485Y-185457200D01*
X189934342Y-185385771D01*
X190148628Y-185385771D01*
X190291485Y-185457200D01*
X190362914Y-185528628D01*
X190434342Y-185671485D01*
X190434342Y-186100057D01*
X190362914Y-186242914D01*
X190291485Y-186314342D01*
X190148628Y-186385771D01*
X189934342Y-186385771D01*
X191077200Y-185385771D02*
X191077200Y-186385771D01*
X191077200Y-185528628D02*
X191148628Y-185457200D01*
X191291485Y-185385771D01*
X191505771Y-185385771D01*
X191648628Y-185457200D01*
X191720057Y-185600057D01*
X191720057Y-186385771D01*
X192648628Y-186385771D02*
X192505771Y-186314342D01*
X192434342Y-186242914D01*
X192362914Y-186100057D01*
X192362914Y-185671485D01*
X192434342Y-185528628D01*
X192505771Y-185457200D01*
X192648628Y-185385771D01*
X192862914Y-185385771D01*
X193005771Y-185457200D01*
X193077200Y-185528628D01*
X193148628Y-185671485D01*
X193148628Y-186100057D01*
X193077200Y-186242914D01*
X193005771Y-186314342D01*
X192862914Y-186385771D01*
X192648628Y-186385771D01*
X193577200Y-185385771D02*
X194148628Y-185385771D01*
X193791485Y-184885771D02*
X193791485Y-186171485D01*
X193862914Y-186314342D01*
X194005771Y-186385771D01*
X194148628Y-186385771D01*
X195220057Y-186314342D02*
X195077200Y-186385771D01*
X194791485Y-186385771D01*
X194648628Y-186314342D01*
X194577200Y-186171485D01*
X194577200Y-185600057D01*
X194648628Y-185457200D01*
X194791485Y-185385771D01*
X195077200Y-185385771D01*
X195220057Y-185457200D01*
X195291485Y-185600057D01*
X195291485Y-185742914D01*
X194577200Y-185885771D01*
X195934342Y-186385771D02*
X195934342Y-185385771D01*
X195934342Y-185528628D02*
X196005771Y-185457200D01*
X196148628Y-185385771D01*
X196362914Y-185385771D01*
X196505771Y-185457200D01*
X196577200Y-185600057D01*
X196577200Y-186385771D01*
X196577200Y-185600057D02*
X196648628Y-185457200D01*
X196791485Y-185385771D01*
X197005771Y-185385771D01*
X197148628Y-185457200D01*
X197220057Y-185600057D01*
X197220057Y-186385771D01*
X197934342Y-185385771D02*
X197934342Y-186885771D01*
X197934342Y-185457200D02*
X198077200Y-185385771D01*
X198362914Y-185385771D01*
X198505771Y-185457200D01*
X198577200Y-185528628D01*
X198648628Y-185671485D01*
X198648628Y-186100057D01*
X198577200Y-186242914D01*
X198505771Y-186314342D01*
X198362914Y-186385771D01*
X198077200Y-186385771D01*
X197934342Y-186314342D01*
X200005771Y-186385771D02*
X199291485Y-186385771D01*
X199291485Y-184885771D01*
X201148628Y-186314342D02*
X201005771Y-186385771D01*
X200720057Y-186385771D01*
X200577200Y-186314342D01*
X200505771Y-186242914D01*
X200434342Y-186100057D01*
X200434342Y-185671485D01*
X200505771Y-185528628D01*
X200577200Y-185457200D01*
X200720057Y-185385771D01*
X201005771Y-185385771D01*
X201148628Y-185457200D01*
X202434342Y-186385771D02*
X202434342Y-184885771D01*
X202434342Y-186314342D02*
X202291485Y-186385771D01*
X202005771Y-186385771D01*
X201862914Y-186314342D01*
X201791485Y-186242914D01*
X201720057Y-186100057D01*
X201720057Y-185671485D01*
X201791485Y-185528628D01*
X201862914Y-185457200D01*
X202005771Y-185385771D01*
X202291485Y-185385771D01*
X202434342Y-185457200D01*
X203148628Y-186242914D02*
X203220057Y-186314342D01*
X203148628Y-186385771D01*
X203077200Y-186314342D01*
X203148628Y-186242914D01*
X203148628Y-186385771D01*
X203862914Y-186385771D02*
X203862914Y-184885771D01*
X204005771Y-185814342D02*
X204434342Y-186385771D01*
X204434342Y-185385771D02*
X203862914Y-185957200D01*
X205077200Y-186385771D02*
X205077200Y-185385771D01*
X205077200Y-184885771D02*
X205005771Y-184957200D01*
X205077200Y-185028628D01*
X205148628Y-184957200D01*
X205077200Y-184885771D01*
X205077200Y-185028628D01*
X206434342Y-186314342D02*
X206291485Y-186385771D01*
X206005771Y-186385771D01*
X205862914Y-186314342D01*
X205791485Y-186242914D01*
X205720057Y-186100057D01*
X205720057Y-185671485D01*
X205791485Y-185528628D01*
X205862914Y-185457200D01*
X206005771Y-185385771D01*
X206291485Y-185385771D01*
X206434342Y-185457200D01*
X207720057Y-186385771D02*
X207720057Y-185600057D01*
X207648628Y-185457200D01*
X207505771Y-185385771D01*
X207220057Y-185385771D01*
X207077200Y-185457200D01*
X207720057Y-186314342D02*
X207577200Y-186385771D01*
X207220057Y-186385771D01*
X207077200Y-186314342D01*
X207005771Y-186171485D01*
X207005771Y-186028628D01*
X207077200Y-185885771D01*
X207220057Y-185814342D01*
X207577200Y-185814342D01*
X207720057Y-185742914D01*
X209077200Y-186385771D02*
X209077200Y-184885771D01*
X209077200Y-186314342D02*
X208934342Y-186385771D01*
X208648628Y-186385771D01*
X208505771Y-186314342D01*
X208434342Y-186242914D01*
X208362914Y-186100057D01*
X208362914Y-185671485D01*
X208434342Y-185528628D01*
X208505771Y-185457200D01*
X208648628Y-185385771D01*
X208934342Y-185385771D01*
X209077200Y-185457200D01*
X209434342Y-186528628D02*
X210577200Y-186528628D01*
X210934342Y-185385771D02*
X210934342Y-186885771D01*
X210934342Y-185457200D02*
X211077200Y-185385771D01*
X211362914Y-185385771D01*
X211505771Y-185457200D01*
X211577200Y-185528628D01*
X211648628Y-185671485D01*
X211648628Y-186100057D01*
X211577200Y-186242914D01*
X211505771Y-186314342D01*
X211362914Y-186385771D01*
X211077200Y-186385771D01*
X210934342Y-186314342D01*
X212934342Y-186314342D02*
X212791485Y-186385771D01*
X212505771Y-186385771D01*
X212362914Y-186314342D01*
X212291485Y-186242914D01*
X212220057Y-186100057D01*
X212220057Y-185671485D01*
X212291485Y-185528628D01*
X212362914Y-185457200D01*
X212505771Y-185385771D01*
X212791485Y-185385771D01*
X212934342Y-185457200D01*
X213577200Y-186385771D02*
X213577200Y-184885771D01*
X213577200Y-185457200D02*
X213720057Y-185385771D01*
X214005771Y-185385771D01*
X214148628Y-185457200D01*
X214220057Y-185528628D01*
X214291485Y-185671485D01*
X214291485Y-186100057D01*
X214220057Y-186242914D01*
X214148628Y-186314342D01*
X214005771Y-186385771D01*
X213720057Y-186385771D01*
X213577200Y-186314342D01*
D10*
D11*
X177002200Y-181507200D02*
X285002200Y-181507200D01*
D10*
D11*
X178362914Y-183614342D02*
X178577200Y-183685771D01*
X178934342Y-183685771D01*
X179077200Y-183614342D01*
X179148628Y-183542914D01*
X179220057Y-183400057D01*
X179220057Y-183257200D01*
X179148628Y-183114342D01*
X179077200Y-183042914D01*
X178934342Y-182971485D01*
X178648628Y-182900057D01*
X178505771Y-182828628D01*
X178434342Y-182757200D01*
X178362914Y-182614342D01*
X178362914Y-182471485D01*
X178434342Y-182328628D01*
X178505771Y-182257200D01*
X178648628Y-182185771D01*
X179005771Y-182185771D01*
X179220057Y-182257200D01*
X179862914Y-183685771D02*
X179862914Y-182185771D01*
X180505771Y-183685771D02*
X180505771Y-182900057D01*
X180434342Y-182757200D01*
X180291485Y-182685771D01*
X180077200Y-182685771D01*
X179934342Y-182757200D01*
X179862914Y-182828628D01*
X181791485Y-183614342D02*
X181648628Y-183685771D01*
X181362914Y-183685771D01*
X181220057Y-183614342D01*
X181148628Y-183471485D01*
X181148628Y-182900057D01*
X181220057Y-182757200D01*
X181362914Y-182685771D01*
X181648628Y-182685771D01*
X181791485Y-182757200D01*
X181862914Y-182900057D01*
X181862914Y-183042914D01*
X181148628Y-183185771D01*
X183077200Y-183614342D02*
X182934342Y-183685771D01*
X182648628Y-183685771D01*
X182505771Y-183614342D01*
X182434342Y-183471485D01*
X182434342Y-182900057D01*
X182505771Y-182757200D01*
X182648628Y-182685771D01*
X182934342Y-182685771D01*
X183077200Y-182757200D01*
X183148628Y-182900057D01*
X183148628Y-183042914D01*
X182434342Y-183185771D01*
X183577200Y-182685771D02*
X184148628Y-182685771D01*
X183791485Y-182185771D02*
X183791485Y-183471485D01*
X183862914Y-183614342D01*
X184005771Y-183685771D01*
X184148628Y-183685771D01*
X184648628Y-183542914D02*
X184720057Y-183614342D01*
X184648628Y-183685771D01*
X184577200Y-183614342D01*
X184648628Y-183542914D01*
X184648628Y-183685771D01*
X184648628Y-182757200D02*
X184720057Y-182828628D01*
X184648628Y-182900057D01*
X184577200Y-182828628D01*
X184648628Y-182757200D01*
X184648628Y-182900057D01*
D10*
D11*
X197002200Y-191507200D02*
X197002200Y-194507200D01*
D10*
D11*
X261002200Y-191507200D02*
X261002200Y-198007200D01*
X95982467Y-93986915D02*
X96649133Y-93987791D01*
X96219248Y-94987227D01*
X97458656Y-93988855D02*
X97268180Y-93988605D01*
X97172879Y-94036099D01*
X97125198Y-94083655D01*
X97029772Y-94226387D01*
X96981902Y-94416801D01*
X96981402Y-94797753D01*
X97028896Y-94893053D01*
X97076452Y-94940735D01*
X97171628Y-94988479D01*
X97362104Y-94988729D01*
X97457404Y-94941235D01*
X97505086Y-94893679D01*
X97552830Y-94798503D01*
X97553143Y-94560408D01*
X97505649Y-94465108D01*
X97458093Y-94417426D01*
X97362917Y-94369682D01*
X97172441Y-94369432D01*
X97077141Y-94416926D01*
X97029459Y-94464482D01*
X96981715Y-94559658D01*
X98028832Y-94941986D02*
X98028770Y-94989605D01*
X97981026Y-95084781D01*
X97933344Y-95132337D01*
X98981150Y-94990857D02*
X98409722Y-94990106D01*
X98695436Y-94990481D02*
X98696750Y-93990482D01*
X98601324Y-94133214D01*
X98505961Y-94228327D01*
X98410660Y-94275821D01*
X99601511Y-93991671D02*
X99696749Y-93991796D01*
X99791924Y-94039540D01*
X99839481Y-94087222D01*
X99886975Y-94182523D01*
X99934343Y-94373061D01*
X99934031Y-94611156D01*
X99886161Y-94801570D01*
X99838417Y-94896745D01*
X99790736Y-94944301D01*
X99695435Y-94991795D01*
X99600197Y-94991670D01*
X99505022Y-94943926D01*
X99457465Y-94896244D01*
X99409971Y-94800944D01*
X99362603Y-94610405D01*
X99362915Y-94372310D01*
X99410785Y-94181897D01*
X99458529Y-94086721D01*
X99506210Y-94039165D01*
X99601511Y-93991671D01*
X100553891Y-93992923D02*
X100649129Y-93993048D01*
X100744305Y-94040792D01*
X100791861Y-94088473D01*
X100839355Y-94183774D01*
X100886724Y-94374313D01*
X100886411Y-94612408D01*
X100838541Y-94802821D01*
X100790797Y-94897997D01*
X100743116Y-94945553D01*
X100647815Y-94993047D01*
X100552577Y-94992922D01*
X100457402Y-94945178D01*
X100409845Y-94897496D01*
X100362351Y-94802195D01*
X100314983Y-94611657D01*
X100315296Y-94373562D01*
X100363165Y-94183148D01*
X100410909Y-94087973D01*
X100458591Y-94040416D01*
X100553891Y-93992923D01*
X102076385Y-94994924D02*
X102077261Y-94328258D01*
X102077136Y-94423496D02*
X102124818Y-94375940D01*
X102220118Y-94328446D01*
X102362975Y-94328633D01*
X102458151Y-94376378D01*
X102505645Y-94471678D01*
X102504956Y-94995487D01*
X102505645Y-94471678D02*
X102553389Y-94376503D01*
X102648689Y-94329009D01*
X102791546Y-94329197D01*
X102886722Y-94376941D01*
X102934216Y-94472241D01*
X102933527Y-94996050D01*
X103409717Y-94996676D02*
X103410594Y-94330010D01*
X103410468Y-94425248D02*
X103458150Y-94377692D01*
X103553451Y-94330198D01*
X103696308Y-94330385D01*
X103791483Y-94378130D01*
X103838977Y-94473430D01*
X103838289Y-94997239D01*
X103838977Y-94473430D02*
X103886721Y-94378255D01*
X103982022Y-94330761D01*
X104124879Y-94330949D01*
X104220054Y-94378693D01*
X104267548Y-94473993D01*
X104266860Y-94997802D01*
X62120512Y-95790040D02*
X138220512Y-95890040D01*
X62100000Y-111400000D02*
X62121283Y-95203620D01*
X138200000Y-111500000D02*
X138221283Y-95303620D01*
X138220512Y-95890040D02*
X137093239Y-96474980D01*
X138220512Y-95890040D02*
X137094780Y-95302139D01*
X62120512Y-95790040D02*
X63246244Y-96377941D01*
X62120512Y-95790040D02*
X63247785Y-95205100D01*
D14*
%TO.C,R3*%
X127610000Y-131962779D02*
X127610000Y-131637221D01*
X126590000Y-131962779D02*
X126590000Y-131637221D01*
%TO.C,U1*%
X123290000Y-144600000D02*
X123290000Y-138590000D01*
X130110000Y-142350000D02*
X130110000Y-138590000D01*
X123290000Y-138590000D02*
X124550000Y-138590000D01*
X130110000Y-138590000D02*
X128850000Y-138590000D01*
%TO.C,P1*%
X99700000Y-135500000D02*
X100200000Y-135500000D01*
X99700000Y-134760000D02*
X99700000Y-135500000D01*
X106273000Y-131623000D02*
X106226000Y-131669000D01*
X108570000Y-129325000D02*
X108535000Y-129361000D01*
X106466000Y-131839000D02*
X106431000Y-131874000D01*
X108775000Y-129531000D02*
X108728000Y-129577000D01*
X110060000Y-125339000D02*
X110060000Y-135260000D01*
X99940000Y-125339000D02*
X99940000Y-135260000D01*
X99940000Y-135260000D02*
X110060000Y-135260000D01*
X99940000Y-125339000D02*
X110060000Y-125339000D01*
X99940000Y-128299000D02*
X110060000Y-128299000D01*
X99940000Y-133200000D02*
X110060000Y-133200000D01*
X99940000Y-134700000D02*
X110060000Y-134700000D01*
X109180000Y-130600000D02*
G75*
G03X109180000Y-130600000I-1680000J0D01*
G01*
X102528805Y-132280253D02*
G75*
G02X101816000Y-132135000I-28805J1680253D01*
G01*
X100964574Y-131283042D02*
G75*
G02X100965000Y-129916000I1535426J683042D01*
G01*
X101816958Y-129064574D02*
G75*
G02X103184000Y-129065000I683042J-1535426D01*
G01*
X104035426Y-129916958D02*
G75*
G02X104035000Y-131284000I-1535426J-683042D01*
G01*
X103183318Y-132134756D02*
G75*
G02X102500000Y-132280000I-683318J1534756D01*
G01*
%TO.C,R4*%
X114910000Y-134962779D02*
X114910000Y-134637221D01*
X113890000Y-134962779D02*
X113890000Y-134637221D01*
%TO.C,U3*%
X146800000Y-151060000D02*
X146800000Y-149450000D01*
X146800000Y-151060000D02*
X148800000Y-151060000D01*
X159340000Y-150780000D02*
X147090000Y-150780000D01*
X159340000Y-145020000D02*
X159340000Y-150780000D01*
X147080000Y-145020000D02*
X159340000Y-145020000D01*
X147080000Y-150770000D02*
X147080000Y-145030000D01*
%TO.C,P2*%
X78270000Y-104830000D02*
X78270000Y-103500000D01*
X79600000Y-104830000D02*
X78270000Y-104830000D01*
X80870000Y-104830000D02*
X80870000Y-102170000D01*
X80870000Y-102170000D02*
X88550000Y-102170000D01*
X80870000Y-104830000D02*
X88550000Y-104830000D01*
X88550000Y-104830000D02*
X88550000Y-102170000D01*
%TO.C,D1*%
X133680000Y-120210000D02*
X135920000Y-120210000D01*
X133680000Y-119970000D02*
X135920000Y-119970000D01*
X133680000Y-120090000D02*
X135920000Y-120090000D01*
X134800000Y-115920000D02*
X134800000Y-116570000D01*
X134800000Y-121460000D02*
X134800000Y-120810000D01*
X133680000Y-116570000D02*
X133680000Y-120810000D01*
X135920000Y-116570000D02*
X133680000Y-116570000D01*
X135920000Y-120810000D02*
X135920000Y-116570000D01*
X133680000Y-120810000D02*
X135920000Y-120810000D01*
%TO.C,K1*%
X128384000Y-118926000D02*
X128384000Y-122863000D01*
X127114000Y-118926000D02*
X128384000Y-118926000D01*
X127114000Y-122863000D02*
X127114000Y-118926000D01*
X128384000Y-122863000D02*
X127114000Y-122863000D01*
X128257000Y-121466000D02*
X127114000Y-120323000D01*
X127749000Y-114227000D02*
X128003000Y-114227000D01*
X127749000Y-118926000D02*
X127749000Y-114227000D01*
X127749000Y-126800000D02*
X128130000Y-126800000D01*
X127749000Y-122990000D02*
X127749000Y-126800000D01*
X130700000Y-128600000D02*
X120500000Y-128600000D01*
X130700000Y-112500000D02*
X130700000Y-128600000D01*
X120500000Y-112500000D02*
X130700000Y-112500000D01*
X120500000Y-128600000D02*
X120500000Y-112500000D01*
X129400000Y-125600000D02*
X129400000Y-124800000D01*
X129000000Y-125200000D02*
X129800000Y-125200000D01*
X130900000Y-126800000D02*
X130900000Y-128800000D01*
X130900000Y-128800000D02*
X129300000Y-128800000D01*
%TO.C,Q1*%
X117540000Y-102620000D02*
X119000000Y-102620000D01*
X117540000Y-105780000D02*
X119700000Y-105780000D01*
X117540000Y-105780000D02*
X117540000Y-104850000D01*
X117540000Y-102620000D02*
X117540000Y-103550000D01*
%TO.C,R1*%
X97990000Y-128737221D02*
X97990000Y-129062779D01*
X99010000Y-128737221D02*
X99010000Y-129062779D01*
%TO.C,R2*%
X110910000Y-104362779D02*
X110910000Y-104037221D01*
X109890000Y-104362779D02*
X109890000Y-104037221D01*
%TO.C,U2*%
X76125000Y-122500000D02*
X75745000Y-122500000D01*
X76125000Y-116080000D02*
X76125000Y-122500000D01*
X94365000Y-116080000D02*
X94365000Y-122500000D01*
X76125000Y-116080000D02*
X94365000Y-116080000D01*
X94365000Y-141825000D02*
X93365000Y-141825000D01*
X94365000Y-141045000D02*
X94365000Y-141825000D01*
X76125000Y-141825000D02*
X77125000Y-141825000D01*
X76125000Y-141045000D02*
X76125000Y-141825000D01*
%TO.C,C1*%
X126458578Y-150690000D02*
X125941422Y-150690000D01*
X126458578Y-152110000D02*
X125941422Y-152110000D01*
%TO.C,C2*%
X126458578Y-146490000D02*
X125941422Y-146490000D01*
X126458578Y-147910000D02*
X125941422Y-147910000D01*
%TO.C,J1*%
X98500000Y-151500000D02*
X98500000Y-149400000D01*
X98200000Y-151800000D02*
X99800000Y-151800000D01*
X98200000Y-150100000D02*
X98200000Y-151800000D01*
X98500000Y-142300000D02*
X100300000Y-142300000D01*
X98500000Y-144400000D02*
X98500000Y-142300000D01*
X113200000Y-151500000D02*
X98500000Y-151500000D01*
X113200000Y-142300000D02*
X113200000Y-151500000D01*
X104700000Y-142300000D02*
X113200000Y-142300000D01*
%TO.C,R3*%
D11*
X126122380Y-131966666D02*
X125646190Y-132300000D01*
X126122380Y-132538095D02*
X125122380Y-132538095D01*
X125122380Y-132157142D01*
X125170000Y-132061904D01*
X125217619Y-132014285D01*
X125312857Y-131966666D01*
X125455714Y-131966666D01*
X125550952Y-132014285D01*
X125598571Y-132061904D01*
X125646190Y-132157142D01*
X125646190Y-132538095D01*
X125122380Y-131633333D02*
X125122380Y-131014285D01*
X125503333Y-131347619D01*
X125503333Y-131204761D01*
X125550952Y-131109523D01*
X125598571Y-131061904D01*
X125693809Y-131014285D01*
X125931904Y-131014285D01*
X126027142Y-131061904D01*
X126074761Y-131109523D01*
X126122380Y-131204761D01*
X126122380Y-131490476D01*
X126074761Y-131585714D01*
X126027142Y-131633333D01*
%TO.C,U1*%
X121652380Y-141261904D02*
X122461904Y-141261904D01*
X122557142Y-141214285D01*
X122604761Y-141166666D01*
X122652380Y-141071428D01*
X122652380Y-140880952D01*
X122604761Y-140785714D01*
X122557142Y-140738095D01*
X122461904Y-140690476D01*
X121652380Y-140690476D01*
X122652380Y-139690476D02*
X122652380Y-140261904D01*
X122652380Y-139976190D02*
X121652380Y-139976190D01*
X121795238Y-140071428D01*
X121890476Y-140166666D01*
X121938095Y-140261904D01*
%TO.C,P1*%
X104261904Y-124792380D02*
X104261904Y-123792380D01*
X104642857Y-123792380D01*
X104738095Y-123840000D01*
X104785714Y-123887619D01*
X104833333Y-123982857D01*
X104833333Y-124125714D01*
X104785714Y-124220952D01*
X104738095Y-124268571D01*
X104642857Y-124316190D01*
X104261904Y-124316190D01*
X105785714Y-124792380D02*
X105214285Y-124792380D01*
X105500000Y-124792380D02*
X105500000Y-123792380D01*
X105404761Y-123935238D01*
X105309523Y-124030476D01*
X105214285Y-124078095D01*
%TO.C,R4*%
X113422380Y-134966666D02*
X112946190Y-135300000D01*
X113422380Y-135538095D02*
X112422380Y-135538095D01*
X112422380Y-135157142D01*
X112470000Y-135061904D01*
X112517619Y-135014285D01*
X112612857Y-134966666D01*
X112755714Y-134966666D01*
X112850952Y-135014285D01*
X112898571Y-135061904D01*
X112946190Y-135157142D01*
X112946190Y-135538095D01*
X112755714Y-134109523D02*
X113422380Y-134109523D01*
X112374761Y-134347619D02*
X113089047Y-134585714D01*
X113089047Y-133966666D01*
%TO.C,U3*%
X145352380Y-149661904D02*
X146161904Y-149661904D01*
X146257142Y-149614285D01*
X146304761Y-149566666D01*
X146352380Y-149471428D01*
X146352380Y-149280952D01*
X146304761Y-149185714D01*
X146257142Y-149138095D01*
X146161904Y-149090476D01*
X145352380Y-149090476D01*
X145352380Y-148709523D02*
X145352380Y-148090476D01*
X145733333Y-148423809D01*
X145733333Y-148280952D01*
X145780952Y-148185714D01*
X145828571Y-148138095D01*
X145923809Y-148090476D01*
X146161904Y-148090476D01*
X146257142Y-148138095D01*
X146304761Y-148185714D01*
X146352380Y-148280952D01*
X146352380Y-148566666D01*
X146304761Y-148661904D01*
X146257142Y-148709523D01*
%TO.C,P2*%
X77722380Y-104238095D02*
X76722380Y-104238095D01*
X76722380Y-103857142D01*
X76770000Y-103761904D01*
X76817619Y-103714285D01*
X76912857Y-103666666D01*
X77055714Y-103666666D01*
X77150952Y-103714285D01*
X77198571Y-103761904D01*
X77246190Y-103857142D01*
X77246190Y-104238095D01*
X76817619Y-103285714D02*
X76770000Y-103238095D01*
X76722380Y-103142857D01*
X76722380Y-102904761D01*
X76770000Y-102809523D01*
X76817619Y-102761904D01*
X76912857Y-102714285D01*
X77008095Y-102714285D01*
X77150952Y-102761904D01*
X77722380Y-103333333D01*
X77722380Y-102714285D01*
%TO.C,D1*%
X133132380Y-119428095D02*
X132132380Y-119428095D01*
X132132380Y-119190000D01*
X132180000Y-119047142D01*
X132275238Y-118951904D01*
X132370476Y-118904285D01*
X132560952Y-118856666D01*
X132703809Y-118856666D01*
X132894285Y-118904285D01*
X132989523Y-118951904D01*
X133084761Y-119047142D01*
X133132380Y-119190000D01*
X133132380Y-119428095D01*
X133132380Y-117904285D02*
X133132380Y-118475714D01*
X133132380Y-118190000D02*
X132132380Y-118190000D01*
X132275238Y-118285238D01*
X132370476Y-118380476D01*
X132418095Y-118475714D01*
%TO.C,K1*%
X124961904Y-129952380D02*
X124961904Y-128952380D01*
X125533333Y-129952380D02*
X125104761Y-129380952D01*
X125533333Y-128952380D02*
X124961904Y-129523809D01*
X126485714Y-129952380D02*
X125914285Y-129952380D01*
X126200000Y-129952380D02*
X126200000Y-128952380D01*
X126104761Y-129095238D01*
X126009523Y-129190476D01*
X125914285Y-129238095D01*
%TO.C,Q1*%
X118204761Y-107247619D02*
X118109523Y-107200000D01*
X118014285Y-107104761D01*
X117871428Y-106961904D01*
X117776190Y-106914285D01*
X117680952Y-106914285D01*
X117728571Y-107152380D02*
X117633333Y-107104761D01*
X117538095Y-107009523D01*
X117490476Y-106819047D01*
X117490476Y-106485714D01*
X117538095Y-106295238D01*
X117633333Y-106200000D01*
X117728571Y-106152380D01*
X117919047Y-106152380D01*
X118014285Y-106200000D01*
X118109523Y-106295238D01*
X118157142Y-106485714D01*
X118157142Y-106819047D01*
X118109523Y-107009523D01*
X118014285Y-107104761D01*
X117919047Y-107152380D01*
X117728571Y-107152380D01*
X119109523Y-107152380D02*
X118538095Y-107152380D01*
X118823809Y-107152380D02*
X118823809Y-106152380D01*
X118728571Y-106295238D01*
X118633333Y-106390476D01*
X118538095Y-106438095D01*
%TO.C,R1*%
X100382380Y-129066666D02*
X99906190Y-129400000D01*
X100382380Y-129638095D02*
X99382380Y-129638095D01*
X99382380Y-129257142D01*
X99430000Y-129161904D01*
X99477619Y-129114285D01*
X99572857Y-129066666D01*
X99715714Y-129066666D01*
X99810952Y-129114285D01*
X99858571Y-129161904D01*
X99906190Y-129257142D01*
X99906190Y-129638095D01*
X100382380Y-128114285D02*
X100382380Y-128685714D01*
X100382380Y-128400000D02*
X99382380Y-128400000D01*
X99525238Y-128495238D01*
X99620476Y-128590476D01*
X99668095Y-128685714D01*
%TO.C,R2*%
X109422380Y-104366666D02*
X108946190Y-104700000D01*
X109422380Y-104938095D02*
X108422380Y-104938095D01*
X108422380Y-104557142D01*
X108470000Y-104461904D01*
X108517619Y-104414285D01*
X108612857Y-104366666D01*
X108755714Y-104366666D01*
X108850952Y-104414285D01*
X108898571Y-104461904D01*
X108946190Y-104557142D01*
X108946190Y-104938095D01*
X108517619Y-103985714D02*
X108470000Y-103938095D01*
X108422380Y-103842857D01*
X108422380Y-103604761D01*
X108470000Y-103509523D01*
X108517619Y-103461904D01*
X108612857Y-103414285D01*
X108708095Y-103414285D01*
X108850952Y-103461904D01*
X109422380Y-104033333D01*
X109422380Y-103414285D01*
%TO.C,U2*%
X74087380Y-141136904D02*
X74896904Y-141136904D01*
X74992142Y-141089285D01*
X75039761Y-141041666D01*
X75087380Y-140946428D01*
X75087380Y-140755952D01*
X75039761Y-140660714D01*
X74992142Y-140613095D01*
X74896904Y-140565476D01*
X74087380Y-140565476D01*
X74182619Y-140136904D02*
X74135000Y-140089285D01*
X74087380Y-139994047D01*
X74087380Y-139755952D01*
X74135000Y-139660714D01*
X74182619Y-139613095D01*
X74277857Y-139565476D01*
X74373095Y-139565476D01*
X74515952Y-139613095D01*
X75087380Y-140184523D01*
X75087380Y-139565476D01*
%TO.C,BT1*%
X52238571Y-145425714D02*
X52286190Y-145282857D01*
X52333809Y-145235238D01*
X52429047Y-145187619D01*
X52571904Y-145187619D01*
X52667142Y-145235238D01*
X52714761Y-145282857D01*
X52762380Y-145378095D01*
X52762380Y-145759047D01*
X51762380Y-145759047D01*
X51762380Y-145425714D01*
X51810000Y-145330476D01*
X51857619Y-145282857D01*
X51952857Y-145235238D01*
X52048095Y-145235238D01*
X52143333Y-145282857D01*
X52190952Y-145330476D01*
X52238571Y-145425714D01*
X52238571Y-145759047D01*
X51762380Y-144901904D02*
X51762380Y-144330476D01*
X52762380Y-144616190D02*
X51762380Y-144616190D01*
X52762380Y-143473333D02*
X52762380Y-144044761D01*
X52762380Y-143759047D02*
X51762380Y-143759047D01*
X51905238Y-143854285D01*
X52000476Y-143949523D01*
X52048095Y-144044761D01*
%TO.C,C1*%
X126033333Y-153407142D02*
X125985714Y-153454761D01*
X125842857Y-153502380D01*
X125747619Y-153502380D01*
X125604761Y-153454761D01*
X125509523Y-153359523D01*
X125461904Y-153264285D01*
X125414285Y-153073809D01*
X125414285Y-152930952D01*
X125461904Y-152740476D01*
X125509523Y-152645238D01*
X125604761Y-152550000D01*
X125747619Y-152502380D01*
X125842857Y-152502380D01*
X125985714Y-152550000D01*
X126033333Y-152597619D01*
X126985714Y-153502380D02*
X126414285Y-153502380D01*
X126700000Y-153502380D02*
X126700000Y-152502380D01*
X126604761Y-152645238D01*
X126509523Y-152740476D01*
X126414285Y-152788095D01*
%TO.C,C2*%
X126033333Y-149207142D02*
X125985714Y-149254761D01*
X125842857Y-149302380D01*
X125747619Y-149302380D01*
X125604761Y-149254761D01*
X125509523Y-149159523D01*
X125461904Y-149064285D01*
X125414285Y-148873809D01*
X125414285Y-148730952D01*
X125461904Y-148540476D01*
X125509523Y-148445238D01*
X125604761Y-148350000D01*
X125747619Y-148302380D01*
X125842857Y-148302380D01*
X125985714Y-148350000D01*
X126033333Y-148397619D01*
X126414285Y-148397619D02*
X126461904Y-148350000D01*
X126557142Y-148302380D01*
X126795238Y-148302380D01*
X126890476Y-148350000D01*
X126938095Y-148397619D01*
X126985714Y-148492857D01*
X126985714Y-148588095D01*
X126938095Y-148730952D01*
X126366666Y-149302380D01*
X126985714Y-149302380D01*
%TO.C,J1*%
X96452380Y-147233333D02*
X97166666Y-147233333D01*
X97309523Y-147280952D01*
X97404761Y-147376190D01*
X97452380Y-147519047D01*
X97452380Y-147614285D01*
X97452380Y-146233333D02*
X97452380Y-146804761D01*
X97452380Y-146519047D02*
X96452380Y-146519047D01*
X96595238Y-146614285D01*
X96690476Y-146709523D01*
X96738095Y-146804761D01*
%TD*%
M02*
