%TF.GenerationSoftware,KiCad,Pcbnew,5.1.5+dfsg1-2build2*%
%TF.CreationDate,2021-01-19T23:04:30+01:00*%
%TF.ProjectId,iotCronotempLcd,696f7443-726f-46e6-9f74-656d704c6364,rev?*%
%TF.SameCoordinates,Original*%
%TF.FileFunction,Copper,L1,Top*%
%TF.FilePolarity,Positive*%
%FSLAX46Y46*%
G04 Gerber Fmt 4.6, Leading zero omitted, Abs format (unit mm)*
G04 Created by KiCad (PCBNEW 5.1.5+dfsg1-2build2) date 2021-01-19 23:04:30*
%MOMM*%
%LPD*%
G04 APERTURE LIST*
%ADD10C,0.100000*%
%ADD11C,0.150000*%
%ADD12C,0.300000*%
%ADD13C,0.400000*%
%TA.AperFunction,NonConductor*%
%ADD14C,0.300000*%
%TD*%
%TA.AperFunction,ComponentPad*%
%ADD15C,1.700000*%
%TD*%
%TA.AperFunction,ComponentPad*%
%ADD16R,1.700000X1.700000*%
%TD*%
%TA.AperFunction,ComponentPad*%
%ADD17C,3.000000*%
%TD*%
%TA.AperFunction,ComponentPad*%
%ADD18C,2.700000*%
%TD*%
%TA.AperFunction,SMDPad,CuDef*%
%ADD19C,0.100000*%
%TD*%
%TA.AperFunction,SMDPad,CuDef*%
%ADD20R,1.500000X2.000000*%
%TD*%
%TA.AperFunction,SMDPad,CuDef*%
%ADD21R,3.800000X2.000000*%
%TD*%
%TA.AperFunction,ComponentPad*%
%ADD22C,2.600000*%
%TD*%
%TA.AperFunction,ComponentPad*%
%ADD23R,2.600000X2.600000*%
%TD*%
%TA.AperFunction,ComponentPad*%
%ADD24C,1.500000*%
%TD*%
%TA.AperFunction,ComponentPad*%
%ADD25R,1.500000X1.500000*%
%TD*%
%TA.AperFunction,ComponentPad*%
%ADD26O,1.700000X1.700000*%
%TD*%
%TA.AperFunction,ComponentPad*%
%ADD27O,1.600000X1.600000*%
%TD*%
%TA.AperFunction,ComponentPad*%
%ADD28R,1.600000X1.600000*%
%TD*%
%TA.AperFunction,ComponentPad*%
%ADD29C,1.800000*%
%TD*%
%TA.AperFunction,ComponentPad*%
%ADD30R,1.800000X1.800000*%
%TD*%
%TA.AperFunction,ComponentPad*%
%ADD31C,1.501140*%
%TD*%
%TA.AperFunction,ComponentPad*%
%ADD32R,1.501140X1.501140*%
%TD*%
%TA.AperFunction,SMDPad,CuDef*%
%ADD33R,0.900000X0.800000*%
%TD*%
%TA.AperFunction,ComponentPad*%
%ADD34C,2.000000*%
%TD*%
%TA.AperFunction,SMDPad,CuDef*%
%ADD35R,2.000000X0.900000*%
%TD*%
%TA.AperFunction,SMDPad,CuDef*%
%ADD36R,0.900000X2.000000*%
%TD*%
%TA.AperFunction,SMDPad,CuDef*%
%ADD37R,5.000000X5.000000*%
%TD*%
%TA.AperFunction,ComponentPad*%
%ADD38C,3.500120*%
%TD*%
%TA.AperFunction,ComponentPad*%
%ADD39R,3.500120X3.500120*%
%TD*%
%TA.AperFunction,ComponentPad*%
%ADD40R,1.800000X4.400000*%
%TD*%
%TA.AperFunction,ComponentPad*%
%ADD41O,1.800000X4.000000*%
%TD*%
%TA.AperFunction,ComponentPad*%
%ADD42O,4.000000X1.800000*%
%TD*%
%TA.AperFunction,ViaPad*%
%ADD43C,5.000000*%
%TD*%
%TA.AperFunction,ViaPad*%
%ADD44C,6.000000*%
%TD*%
%TA.AperFunction,Conductor*%
%ADD45C,0.500000*%
%TD*%
%TA.AperFunction,Conductor*%
%ADD46C,0.800000*%
%TD*%
%TA.AperFunction,Conductor*%
%ADD47C,0.254000*%
%TD*%
G04 APERTURE END LIST*
D10*
D11*
X177002200Y-166007200D02*
X177002200Y-198007200D01*
X285002200Y-198007200D01*
X285002200Y-166007200D01*
X177002200Y-166007200D01*
D10*
D11*
X10000000Y-10000000D02*
X10000000Y-200007200D01*
X287002200Y-200007200D01*
X287002200Y-10000000D01*
X10000000Y-10000000D01*
D10*
D11*
X12000000Y-12000000D02*
X12000000Y-198007200D01*
X285002200Y-198007200D01*
X285002200Y-12000000D01*
X12000000Y-12000000D01*
D10*
D11*
X60000000Y-12000000D02*
X60000000Y-10000000D01*
D10*
D11*
X110000000Y-12000000D02*
X110000000Y-10000000D01*
D10*
D11*
X160000000Y-12000000D02*
X160000000Y-10000000D01*
D10*
D11*
X210000000Y-12000000D02*
X210000000Y-10000000D01*
D10*
D11*
X260000000Y-12000000D02*
X260000000Y-10000000D01*
D10*
D11*
X36065476Y-11588095D02*
X35322619Y-11588095D01*
X35694047Y-11588095D02*
X35694047Y-10288095D01*
X35570238Y-10473809D01*
X35446428Y-10597619D01*
X35322619Y-10659523D01*
D10*
D11*
X85322619Y-10411904D02*
X85384523Y-10350000D01*
X85508333Y-10288095D01*
X85817857Y-10288095D01*
X85941666Y-10350000D01*
X86003571Y-10411904D01*
X86065476Y-10535714D01*
X86065476Y-10659523D01*
X86003571Y-10845238D01*
X85260714Y-11588095D01*
X86065476Y-11588095D01*
D10*
D11*
X135260714Y-10288095D02*
X136065476Y-10288095D01*
X135632142Y-10783333D01*
X135817857Y-10783333D01*
X135941666Y-10845238D01*
X136003571Y-10907142D01*
X136065476Y-11030952D01*
X136065476Y-11340476D01*
X136003571Y-11464285D01*
X135941666Y-11526190D01*
X135817857Y-11588095D01*
X135446428Y-11588095D01*
X135322619Y-11526190D01*
X135260714Y-11464285D01*
D10*
D11*
X185941666Y-10721428D02*
X185941666Y-11588095D01*
X185632142Y-10226190D02*
X185322619Y-11154761D01*
X186127380Y-11154761D01*
D10*
D11*
X236003571Y-10288095D02*
X235384523Y-10288095D01*
X235322619Y-10907142D01*
X235384523Y-10845238D01*
X235508333Y-10783333D01*
X235817857Y-10783333D01*
X235941666Y-10845238D01*
X236003571Y-10907142D01*
X236065476Y-11030952D01*
X236065476Y-11340476D01*
X236003571Y-11464285D01*
X235941666Y-11526190D01*
X235817857Y-11588095D01*
X235508333Y-11588095D01*
X235384523Y-11526190D01*
X235322619Y-11464285D01*
D10*
D11*
X285941666Y-10288095D02*
X285694047Y-10288095D01*
X285570238Y-10350000D01*
X285508333Y-10411904D01*
X285384523Y-10597619D01*
X285322619Y-10845238D01*
X285322619Y-11340476D01*
X285384523Y-11464285D01*
X285446428Y-11526190D01*
X285570238Y-11588095D01*
X285817857Y-11588095D01*
X285941666Y-11526190D01*
X286003571Y-11464285D01*
X286065476Y-11340476D01*
X286065476Y-11030952D01*
X286003571Y-10907142D01*
X285941666Y-10845238D01*
X285817857Y-10783333D01*
X285570238Y-10783333D01*
X285446428Y-10845238D01*
X285384523Y-10907142D01*
X285322619Y-11030952D01*
D10*
D11*
X60000000Y-198007200D02*
X60000000Y-200007200D01*
D10*
D11*
X110000000Y-198007200D02*
X110000000Y-200007200D01*
D10*
D11*
X160000000Y-198007200D02*
X160000000Y-200007200D01*
D10*
D11*
X210000000Y-198007200D02*
X210000000Y-200007200D01*
D10*
D11*
X260000000Y-198007200D02*
X260000000Y-200007200D01*
D10*
D11*
X36065476Y-199595295D02*
X35322619Y-199595295D01*
X35694047Y-199595295D02*
X35694047Y-198295295D01*
X35570238Y-198481009D01*
X35446428Y-198604819D01*
X35322619Y-198666723D01*
D10*
D11*
X85322619Y-198419104D02*
X85384523Y-198357200D01*
X85508333Y-198295295D01*
X85817857Y-198295295D01*
X85941666Y-198357200D01*
X86003571Y-198419104D01*
X86065476Y-198542914D01*
X86065476Y-198666723D01*
X86003571Y-198852438D01*
X85260714Y-199595295D01*
X86065476Y-199595295D01*
D10*
D11*
X135260714Y-198295295D02*
X136065476Y-198295295D01*
X135632142Y-198790533D01*
X135817857Y-198790533D01*
X135941666Y-198852438D01*
X136003571Y-198914342D01*
X136065476Y-199038152D01*
X136065476Y-199347676D01*
X136003571Y-199471485D01*
X135941666Y-199533390D01*
X135817857Y-199595295D01*
X135446428Y-199595295D01*
X135322619Y-199533390D01*
X135260714Y-199471485D01*
D10*
D11*
X185941666Y-198728628D02*
X185941666Y-199595295D01*
X185632142Y-198233390D02*
X185322619Y-199161961D01*
X186127380Y-199161961D01*
D10*
D11*
X236003571Y-198295295D02*
X235384523Y-198295295D01*
X235322619Y-198914342D01*
X235384523Y-198852438D01*
X235508333Y-198790533D01*
X235817857Y-198790533D01*
X235941666Y-198852438D01*
X236003571Y-198914342D01*
X236065476Y-199038152D01*
X236065476Y-199347676D01*
X236003571Y-199471485D01*
X235941666Y-199533390D01*
X235817857Y-199595295D01*
X235508333Y-199595295D01*
X235384523Y-199533390D01*
X235322619Y-199471485D01*
D10*
D11*
X285941666Y-198295295D02*
X285694047Y-198295295D01*
X285570238Y-198357200D01*
X285508333Y-198419104D01*
X285384523Y-198604819D01*
X285322619Y-198852438D01*
X285322619Y-199347676D01*
X285384523Y-199471485D01*
X285446428Y-199533390D01*
X285570238Y-199595295D01*
X285817857Y-199595295D01*
X285941666Y-199533390D01*
X286003571Y-199471485D01*
X286065476Y-199347676D01*
X286065476Y-199038152D01*
X286003571Y-198914342D01*
X285941666Y-198852438D01*
X285817857Y-198790533D01*
X285570238Y-198790533D01*
X285446428Y-198852438D01*
X285384523Y-198914342D01*
X285322619Y-199038152D01*
D10*
D11*
X10000000Y-60000000D02*
X12000000Y-60000000D01*
D10*
D11*
X10000000Y-110000000D02*
X12000000Y-110000000D01*
D10*
D11*
X10000000Y-160000000D02*
X12000000Y-160000000D01*
D10*
D11*
X10690476Y-35216666D02*
X11309523Y-35216666D01*
X10566666Y-35588095D02*
X11000000Y-34288095D01*
X11433333Y-35588095D01*
D10*
D11*
X11092857Y-84907142D02*
X11278571Y-84969047D01*
X11340476Y-85030952D01*
X11402380Y-85154761D01*
X11402380Y-85340476D01*
X11340476Y-85464285D01*
X11278571Y-85526190D01*
X11154761Y-85588095D01*
X10659523Y-85588095D01*
X10659523Y-84288095D01*
X11092857Y-84288095D01*
X11216666Y-84350000D01*
X11278571Y-84411904D01*
X11340476Y-84535714D01*
X11340476Y-84659523D01*
X11278571Y-84783333D01*
X11216666Y-84845238D01*
X11092857Y-84907142D01*
X10659523Y-84907142D01*
D10*
D11*
X11402380Y-135464285D02*
X11340476Y-135526190D01*
X11154761Y-135588095D01*
X11030952Y-135588095D01*
X10845238Y-135526190D01*
X10721428Y-135402380D01*
X10659523Y-135278571D01*
X10597619Y-135030952D01*
X10597619Y-134845238D01*
X10659523Y-134597619D01*
X10721428Y-134473809D01*
X10845238Y-134350000D01*
X11030952Y-134288095D01*
X11154761Y-134288095D01*
X11340476Y-134350000D01*
X11402380Y-134411904D01*
D10*
D11*
X10659523Y-185588095D02*
X10659523Y-184288095D01*
X10969047Y-184288095D01*
X11154761Y-184350000D01*
X11278571Y-184473809D01*
X11340476Y-184597619D01*
X11402380Y-184845238D01*
X11402380Y-185030952D01*
X11340476Y-185278571D01*
X11278571Y-185402380D01*
X11154761Y-185526190D01*
X10969047Y-185588095D01*
X10659523Y-185588095D01*
D10*
D11*
X287002200Y-60000000D02*
X285002200Y-60000000D01*
D10*
D11*
X287002200Y-110000000D02*
X285002200Y-110000000D01*
D10*
D11*
X287002200Y-160000000D02*
X285002200Y-160000000D01*
D10*
D11*
X285692676Y-35216666D02*
X286311723Y-35216666D01*
X285568866Y-35588095D02*
X286002200Y-34288095D01*
X286435533Y-35588095D01*
D10*
D11*
X286095057Y-84907142D02*
X286280771Y-84969047D01*
X286342676Y-85030952D01*
X286404580Y-85154761D01*
X286404580Y-85340476D01*
X286342676Y-85464285D01*
X286280771Y-85526190D01*
X286156961Y-85588095D01*
X285661723Y-85588095D01*
X285661723Y-84288095D01*
X286095057Y-84288095D01*
X286218866Y-84350000D01*
X286280771Y-84411904D01*
X286342676Y-84535714D01*
X286342676Y-84659523D01*
X286280771Y-84783333D01*
X286218866Y-84845238D01*
X286095057Y-84907142D01*
X285661723Y-84907142D01*
D10*
D11*
X286404580Y-135464285D02*
X286342676Y-135526190D01*
X286156961Y-135588095D01*
X286033152Y-135588095D01*
X285847438Y-135526190D01*
X285723628Y-135402380D01*
X285661723Y-135278571D01*
X285599819Y-135030952D01*
X285599819Y-134845238D01*
X285661723Y-134597619D01*
X285723628Y-134473809D01*
X285847438Y-134350000D01*
X286033152Y-134288095D01*
X286156961Y-134288095D01*
X286342676Y-134350000D01*
X286404580Y-134411904D01*
D10*
D11*
X285661723Y-185588095D02*
X285661723Y-184288095D01*
X285971247Y-184288095D01*
X286156961Y-184350000D01*
X286280771Y-184473809D01*
X286342676Y-184597619D01*
X286404580Y-184845238D01*
X286404580Y-185030952D01*
X286342676Y-185278571D01*
X286280771Y-185402380D01*
X286156961Y-185526190D01*
X285971247Y-185588095D01*
X285661723Y-185588095D01*
D10*
D11*
X200434342Y-193785771D02*
X200434342Y-192285771D01*
X200791485Y-192285771D01*
X201005771Y-192357200D01*
X201148628Y-192500057D01*
X201220057Y-192642914D01*
X201291485Y-192928628D01*
X201291485Y-193142914D01*
X201220057Y-193428628D01*
X201148628Y-193571485D01*
X201005771Y-193714342D01*
X200791485Y-193785771D01*
X200434342Y-193785771D01*
X202577200Y-193785771D02*
X202577200Y-193000057D01*
X202505771Y-192857200D01*
X202362914Y-192785771D01*
X202077200Y-192785771D01*
X201934342Y-192857200D01*
X202577200Y-193714342D02*
X202434342Y-193785771D01*
X202077200Y-193785771D01*
X201934342Y-193714342D01*
X201862914Y-193571485D01*
X201862914Y-193428628D01*
X201934342Y-193285771D01*
X202077200Y-193214342D01*
X202434342Y-193214342D01*
X202577200Y-193142914D01*
X203077200Y-192785771D02*
X203648628Y-192785771D01*
X203291485Y-192285771D02*
X203291485Y-193571485D01*
X203362914Y-193714342D01*
X203505771Y-193785771D01*
X203648628Y-193785771D01*
X204720057Y-193714342D02*
X204577200Y-193785771D01*
X204291485Y-193785771D01*
X204148628Y-193714342D01*
X204077200Y-193571485D01*
X204077200Y-193000057D01*
X204148628Y-192857200D01*
X204291485Y-192785771D01*
X204577200Y-192785771D01*
X204720057Y-192857200D01*
X204791485Y-193000057D01*
X204791485Y-193142914D01*
X204077200Y-193285771D01*
X205434342Y-193642914D02*
X205505771Y-193714342D01*
X205434342Y-193785771D01*
X205362914Y-193714342D01*
X205434342Y-193642914D01*
X205434342Y-193785771D01*
X205434342Y-192857200D02*
X205505771Y-192928628D01*
X205434342Y-193000057D01*
X205362914Y-192928628D01*
X205434342Y-192857200D01*
X205434342Y-193000057D01*
D10*
D11*
X177002200Y-194507200D02*
X285002200Y-194507200D01*
D10*
D11*
X178434342Y-196585771D02*
X178434342Y-195085771D01*
X179291485Y-196585771D02*
X178648628Y-195728628D01*
X179291485Y-195085771D02*
X178434342Y-195942914D01*
X179934342Y-196585771D02*
X179934342Y-195585771D01*
X179934342Y-195085771D02*
X179862914Y-195157200D01*
X179934342Y-195228628D01*
X180005771Y-195157200D01*
X179934342Y-195085771D01*
X179934342Y-195228628D01*
X181505771Y-196442914D02*
X181434342Y-196514342D01*
X181220057Y-196585771D01*
X181077200Y-196585771D01*
X180862914Y-196514342D01*
X180720057Y-196371485D01*
X180648628Y-196228628D01*
X180577200Y-195942914D01*
X180577200Y-195728628D01*
X180648628Y-195442914D01*
X180720057Y-195300057D01*
X180862914Y-195157200D01*
X181077200Y-195085771D01*
X181220057Y-195085771D01*
X181434342Y-195157200D01*
X181505771Y-195228628D01*
X182791485Y-196585771D02*
X182791485Y-195800057D01*
X182720057Y-195657200D01*
X182577200Y-195585771D01*
X182291485Y-195585771D01*
X182148628Y-195657200D01*
X182791485Y-196514342D02*
X182648628Y-196585771D01*
X182291485Y-196585771D01*
X182148628Y-196514342D01*
X182077200Y-196371485D01*
X182077200Y-196228628D01*
X182148628Y-196085771D01*
X182291485Y-196014342D01*
X182648628Y-196014342D01*
X182791485Y-195942914D01*
X184148628Y-196585771D02*
X184148628Y-195085771D01*
X184148628Y-196514342D02*
X184005771Y-196585771D01*
X183720057Y-196585771D01*
X183577200Y-196514342D01*
X183505771Y-196442914D01*
X183434342Y-196300057D01*
X183434342Y-195871485D01*
X183505771Y-195728628D01*
X183577200Y-195657200D01*
X183720057Y-195585771D01*
X184005771Y-195585771D01*
X184148628Y-195657200D01*
X186005771Y-195800057D02*
X186505771Y-195800057D01*
X186720057Y-196585771D02*
X186005771Y-196585771D01*
X186005771Y-195085771D01*
X186720057Y-195085771D01*
X187362914Y-196442914D02*
X187434342Y-196514342D01*
X187362914Y-196585771D01*
X187291485Y-196514342D01*
X187362914Y-196442914D01*
X187362914Y-196585771D01*
X188077200Y-196585771D02*
X188077200Y-195085771D01*
X188434342Y-195085771D01*
X188648628Y-195157200D01*
X188791485Y-195300057D01*
X188862914Y-195442914D01*
X188934342Y-195728628D01*
X188934342Y-195942914D01*
X188862914Y-196228628D01*
X188791485Y-196371485D01*
X188648628Y-196514342D01*
X188434342Y-196585771D01*
X188077200Y-196585771D01*
X189577200Y-196442914D02*
X189648628Y-196514342D01*
X189577200Y-196585771D01*
X189505771Y-196514342D01*
X189577200Y-196442914D01*
X189577200Y-196585771D01*
X190220057Y-196157200D02*
X190934342Y-196157200D01*
X190077200Y-196585771D02*
X190577200Y-195085771D01*
X191077200Y-196585771D01*
X191577200Y-196442914D02*
X191648628Y-196514342D01*
X191577200Y-196585771D01*
X191505771Y-196514342D01*
X191577200Y-196442914D01*
X191577200Y-196585771D01*
X194577200Y-196585771D02*
X194577200Y-195085771D01*
X194720057Y-196014342D02*
X195148628Y-196585771D01*
X195148628Y-195585771D02*
X194577200Y-196157200D01*
X195791485Y-196585771D02*
X195791485Y-195585771D01*
X195791485Y-195085771D02*
X195720057Y-195157200D01*
X195791485Y-195228628D01*
X195862914Y-195157200D01*
X195791485Y-195085771D01*
X195791485Y-195228628D01*
X197148628Y-196514342D02*
X197005771Y-196585771D01*
X196720057Y-196585771D01*
X196577200Y-196514342D01*
X196505771Y-196442914D01*
X196434342Y-196300057D01*
X196434342Y-195871485D01*
X196505771Y-195728628D01*
X196577200Y-195657200D01*
X196720057Y-195585771D01*
X197005771Y-195585771D01*
X197148628Y-195657200D01*
X198434342Y-196585771D02*
X198434342Y-195800057D01*
X198362914Y-195657200D01*
X198220057Y-195585771D01*
X197934342Y-195585771D01*
X197791485Y-195657200D01*
X198434342Y-196514342D02*
X198291485Y-196585771D01*
X197934342Y-196585771D01*
X197791485Y-196514342D01*
X197720057Y-196371485D01*
X197720057Y-196228628D01*
X197791485Y-196085771D01*
X197934342Y-196014342D01*
X198291485Y-196014342D01*
X198434342Y-195942914D01*
X199791485Y-196585771D02*
X199791485Y-195085771D01*
X199791485Y-196514342D02*
X199648628Y-196585771D01*
X199362914Y-196585771D01*
X199220057Y-196514342D01*
X199148628Y-196442914D01*
X199077200Y-196300057D01*
X199077200Y-195871485D01*
X199148628Y-195728628D01*
X199220057Y-195657200D01*
X199362914Y-195585771D01*
X199648628Y-195585771D01*
X199791485Y-195657200D01*
X202362914Y-195085771D02*
X201648628Y-195085771D01*
X201577200Y-195800057D01*
X201648628Y-195728628D01*
X201791485Y-195657200D01*
X202148628Y-195657200D01*
X202291485Y-195728628D01*
X202362914Y-195800057D01*
X202434342Y-195942914D01*
X202434342Y-196300057D01*
X202362914Y-196442914D01*
X202291485Y-196514342D01*
X202148628Y-196585771D01*
X201791485Y-196585771D01*
X201648628Y-196514342D01*
X201577200Y-196442914D01*
X203077200Y-196442914D02*
X203148628Y-196514342D01*
X203077200Y-196585771D01*
X203005771Y-196514342D01*
X203077200Y-196442914D01*
X203077200Y-196585771D01*
X204577200Y-196585771D02*
X203720057Y-196585771D01*
X204148628Y-196585771D02*
X204148628Y-195085771D01*
X204005771Y-195300057D01*
X203862914Y-195442914D01*
X203720057Y-195514342D01*
X205220057Y-196442914D02*
X205291485Y-196514342D01*
X205220057Y-196585771D01*
X205148628Y-196514342D01*
X205220057Y-196442914D01*
X205220057Y-196585771D01*
X206648628Y-195085771D02*
X205934342Y-195085771D01*
X205862914Y-195800057D01*
X205934342Y-195728628D01*
X206077200Y-195657200D01*
X206434342Y-195657200D01*
X206577200Y-195728628D01*
X206648628Y-195800057D01*
X206720057Y-195942914D01*
X206720057Y-196300057D01*
X206648628Y-196442914D01*
X206577200Y-196514342D01*
X206434342Y-196585771D01*
X206077200Y-196585771D01*
X205934342Y-196514342D01*
X205862914Y-196442914D01*
X207362914Y-196014342D02*
X208505771Y-196014342D01*
X207934342Y-196585771D02*
X207934342Y-195442914D01*
X209862914Y-196585771D02*
X209862914Y-195085771D01*
X209862914Y-196514342D02*
X209720057Y-196585771D01*
X209434342Y-196585771D01*
X209291485Y-196514342D01*
X209220057Y-196442914D01*
X209148628Y-196300057D01*
X209148628Y-195871485D01*
X209220057Y-195728628D01*
X209291485Y-195657200D01*
X209434342Y-195585771D01*
X209720057Y-195585771D01*
X209862914Y-195657200D01*
X210362914Y-195585771D02*
X210934342Y-195585771D01*
X210577200Y-196585771D02*
X210577200Y-195300057D01*
X210648628Y-195157200D01*
X210791485Y-195085771D01*
X210934342Y-195085771D01*
X211362914Y-196514342D02*
X211505771Y-196585771D01*
X211791485Y-196585771D01*
X211934342Y-196514342D01*
X212005771Y-196371485D01*
X212005771Y-196300057D01*
X211934342Y-196157200D01*
X211791485Y-196085771D01*
X211577200Y-196085771D01*
X211434342Y-196014342D01*
X211362914Y-195871485D01*
X211362914Y-195800057D01*
X211434342Y-195657200D01*
X211577200Y-195585771D01*
X211791485Y-195585771D01*
X211934342Y-195657200D01*
X213291485Y-195585771D02*
X213291485Y-196800057D01*
X213220057Y-196942914D01*
X213148628Y-197014342D01*
X213005771Y-197085771D01*
X212791485Y-197085771D01*
X212648628Y-197014342D01*
X213291485Y-196514342D02*
X213148628Y-196585771D01*
X212862914Y-196585771D01*
X212720057Y-196514342D01*
X212648628Y-196442914D01*
X212577200Y-196300057D01*
X212577200Y-195871485D01*
X212648628Y-195728628D01*
X212720057Y-195657200D01*
X212862914Y-195585771D01*
X213148628Y-195585771D01*
X213291485Y-195657200D01*
X214791485Y-196585771D02*
X213934342Y-196585771D01*
X214362914Y-196585771D02*
X214362914Y-195085771D01*
X214220057Y-195300057D01*
X214077200Y-195442914D01*
X213934342Y-195514342D01*
X215434342Y-196014342D02*
X216577200Y-196014342D01*
X217220057Y-195228628D02*
X217291485Y-195157200D01*
X217434342Y-195085771D01*
X217791485Y-195085771D01*
X217934342Y-195157200D01*
X218005771Y-195228628D01*
X218077200Y-195371485D01*
X218077200Y-195514342D01*
X218005771Y-195728628D01*
X217148628Y-196585771D01*
X218077200Y-196585771D01*
X218720057Y-196585771D02*
X218720057Y-195085771D01*
X218720057Y-195657200D02*
X218862914Y-195585771D01*
X219148628Y-195585771D01*
X219291485Y-195657200D01*
X219362914Y-195728628D01*
X219434342Y-195871485D01*
X219434342Y-196300057D01*
X219362914Y-196442914D01*
X219291485Y-196514342D01*
X219148628Y-196585771D01*
X218862914Y-196585771D01*
X218720057Y-196514342D01*
X220720057Y-195585771D02*
X220720057Y-196585771D01*
X220077200Y-195585771D02*
X220077200Y-196371485D01*
X220148628Y-196514342D01*
X220291485Y-196585771D01*
X220505771Y-196585771D01*
X220648628Y-196514342D01*
X220720057Y-196442914D01*
X221434342Y-196585771D02*
X221434342Y-195585771D01*
X221434342Y-195085771D02*
X221362914Y-195157200D01*
X221434342Y-195228628D01*
X221505771Y-195157200D01*
X221434342Y-195085771D01*
X221434342Y-195228628D01*
X222362914Y-196585771D02*
X222220057Y-196514342D01*
X222148628Y-196371485D01*
X222148628Y-195085771D01*
X223577200Y-196585771D02*
X223577200Y-195085771D01*
X223577200Y-196514342D02*
X223434342Y-196585771D01*
X223148628Y-196585771D01*
X223005771Y-196514342D01*
X222934342Y-196442914D01*
X222862914Y-196300057D01*
X222862914Y-195871485D01*
X222934342Y-195728628D01*
X223005771Y-195657200D01*
X223148628Y-195585771D01*
X223434342Y-195585771D01*
X223577200Y-195657200D01*
X224220057Y-195228628D02*
X224291485Y-195157200D01*
X224434342Y-195085771D01*
X224791485Y-195085771D01*
X224934342Y-195157200D01*
X225005771Y-195228628D01*
X225077200Y-195371485D01*
X225077200Y-195514342D01*
X225005771Y-195728628D01*
X224148628Y-196585771D01*
X225077200Y-196585771D01*
D10*
D11*
X177002200Y-191507200D02*
X285002200Y-191507200D01*
D10*
D12*
X264411485Y-193785771D02*
X263911485Y-193071485D01*
X263554342Y-193785771D02*
X263554342Y-192285771D01*
X264125771Y-192285771D01*
X264268628Y-192357200D01*
X264340057Y-192428628D01*
X264411485Y-192571485D01*
X264411485Y-192785771D01*
X264340057Y-192928628D01*
X264268628Y-193000057D01*
X264125771Y-193071485D01*
X263554342Y-193071485D01*
X265625771Y-193714342D02*
X265482914Y-193785771D01*
X265197200Y-193785771D01*
X265054342Y-193714342D01*
X264982914Y-193571485D01*
X264982914Y-193000057D01*
X265054342Y-192857200D01*
X265197200Y-192785771D01*
X265482914Y-192785771D01*
X265625771Y-192857200D01*
X265697200Y-193000057D01*
X265697200Y-193142914D01*
X264982914Y-193285771D01*
X266197200Y-192785771D02*
X266554342Y-193785771D01*
X266911485Y-192785771D01*
X267482914Y-193642914D02*
X267554342Y-193714342D01*
X267482914Y-193785771D01*
X267411485Y-193714342D01*
X267482914Y-193642914D01*
X267482914Y-193785771D01*
X267482914Y-192857200D02*
X267554342Y-192928628D01*
X267482914Y-193000057D01*
X267411485Y-192928628D01*
X267482914Y-192857200D01*
X267482914Y-193000057D01*
D10*
D11*
X178362914Y-193714342D02*
X178577200Y-193785771D01*
X178934342Y-193785771D01*
X179077200Y-193714342D01*
X179148628Y-193642914D01*
X179220057Y-193500057D01*
X179220057Y-193357200D01*
X179148628Y-193214342D01*
X179077200Y-193142914D01*
X178934342Y-193071485D01*
X178648628Y-193000057D01*
X178505771Y-192928628D01*
X178434342Y-192857200D01*
X178362914Y-192714342D01*
X178362914Y-192571485D01*
X178434342Y-192428628D01*
X178505771Y-192357200D01*
X178648628Y-192285771D01*
X179005771Y-192285771D01*
X179220057Y-192357200D01*
X179862914Y-193785771D02*
X179862914Y-192785771D01*
X179862914Y-192285771D02*
X179791485Y-192357200D01*
X179862914Y-192428628D01*
X179934342Y-192357200D01*
X179862914Y-192285771D01*
X179862914Y-192428628D01*
X180434342Y-192785771D02*
X181220057Y-192785771D01*
X180434342Y-193785771D01*
X181220057Y-193785771D01*
X182362914Y-193714342D02*
X182220057Y-193785771D01*
X181934342Y-193785771D01*
X181791485Y-193714342D01*
X181720057Y-193571485D01*
X181720057Y-193000057D01*
X181791485Y-192857200D01*
X181934342Y-192785771D01*
X182220057Y-192785771D01*
X182362914Y-192857200D01*
X182434342Y-193000057D01*
X182434342Y-193142914D01*
X181720057Y-193285771D01*
X183077200Y-193642914D02*
X183148628Y-193714342D01*
X183077200Y-193785771D01*
X183005771Y-193714342D01*
X183077200Y-193642914D01*
X183077200Y-193785771D01*
X183077200Y-192857200D02*
X183148628Y-192928628D01*
X183077200Y-193000057D01*
X183005771Y-192928628D01*
X183077200Y-192857200D01*
X183077200Y-193000057D01*
X184862914Y-193357200D02*
X185577200Y-193357200D01*
X184720057Y-193785771D02*
X185220057Y-192285771D01*
X185720057Y-193785771D01*
X186862914Y-192785771D02*
X186862914Y-193785771D01*
X186505771Y-192214342D02*
X186148628Y-193285771D01*
X187077200Y-193285771D01*
D10*
D11*
X263434342Y-196585771D02*
X263434342Y-195085771D01*
X264791485Y-196585771D02*
X264791485Y-195085771D01*
X264791485Y-196514342D02*
X264648628Y-196585771D01*
X264362914Y-196585771D01*
X264220057Y-196514342D01*
X264148628Y-196442914D01*
X264077200Y-196300057D01*
X264077200Y-195871485D01*
X264148628Y-195728628D01*
X264220057Y-195657200D01*
X264362914Y-195585771D01*
X264648628Y-195585771D01*
X264791485Y-195657200D01*
X265505771Y-196442914D02*
X265577200Y-196514342D01*
X265505771Y-196585771D01*
X265434342Y-196514342D01*
X265505771Y-196442914D01*
X265505771Y-196585771D01*
X265505771Y-195657200D02*
X265577200Y-195728628D01*
X265505771Y-195800057D01*
X265434342Y-195728628D01*
X265505771Y-195657200D01*
X265505771Y-195800057D01*
X268148628Y-196585771D02*
X267291485Y-196585771D01*
X267720057Y-196585771D02*
X267720057Y-195085771D01*
X267577200Y-195300057D01*
X267434342Y-195442914D01*
X267291485Y-195514342D01*
X269862914Y-195014342D02*
X268577200Y-196942914D01*
X271148628Y-196585771D02*
X270291485Y-196585771D01*
X270720057Y-196585771D02*
X270720057Y-195085771D01*
X270577200Y-195300057D01*
X270434342Y-195442914D01*
X270291485Y-195514342D01*
D10*
D11*
X177002200Y-187507200D02*
X285002200Y-187507200D01*
D10*
D13*
X178714580Y-188211961D02*
X179857438Y-188211961D01*
X179036009Y-190211961D02*
X179286009Y-188211961D01*
X180274104Y-190211961D02*
X180440771Y-188878628D01*
X180524104Y-188211961D02*
X180416961Y-188307200D01*
X180500295Y-188402438D01*
X180607438Y-188307200D01*
X180524104Y-188211961D01*
X180500295Y-188402438D01*
X181107438Y-188878628D02*
X181869342Y-188878628D01*
X181476485Y-188211961D02*
X181262200Y-189926247D01*
X181333628Y-190116723D01*
X181512200Y-190211961D01*
X181702676Y-190211961D01*
X182655057Y-190211961D02*
X182476485Y-190116723D01*
X182405057Y-189926247D01*
X182619342Y-188211961D01*
X184190771Y-190116723D02*
X183988390Y-190211961D01*
X183607438Y-190211961D01*
X183428866Y-190116723D01*
X183357438Y-189926247D01*
X183452676Y-189164342D01*
X183571723Y-188973866D01*
X183774104Y-188878628D01*
X184155057Y-188878628D01*
X184333628Y-188973866D01*
X184405057Y-189164342D01*
X184381247Y-189354819D01*
X183405057Y-189545295D01*
X185155057Y-190021485D02*
X185238390Y-190116723D01*
X185131247Y-190211961D01*
X185047914Y-190116723D01*
X185155057Y-190021485D01*
X185131247Y-190211961D01*
X185286009Y-188973866D02*
X185369342Y-189069104D01*
X185262200Y-189164342D01*
X185178866Y-189069104D01*
X185286009Y-188973866D01*
X185262200Y-189164342D01*
D10*
D11*
X178934342Y-185600057D02*
X178434342Y-185600057D01*
X178434342Y-186385771D02*
X178434342Y-184885771D01*
X179148628Y-184885771D01*
X179720057Y-186385771D02*
X179720057Y-185385771D01*
X179720057Y-184885771D02*
X179648628Y-184957200D01*
X179720057Y-185028628D01*
X179791485Y-184957200D01*
X179720057Y-184885771D01*
X179720057Y-185028628D01*
X180648628Y-186385771D02*
X180505771Y-186314342D01*
X180434342Y-186171485D01*
X180434342Y-184885771D01*
X181791485Y-186314342D02*
X181648628Y-186385771D01*
X181362914Y-186385771D01*
X181220057Y-186314342D01*
X181148628Y-186171485D01*
X181148628Y-185600057D01*
X181220057Y-185457200D01*
X181362914Y-185385771D01*
X181648628Y-185385771D01*
X181791485Y-185457200D01*
X181862914Y-185600057D01*
X181862914Y-185742914D01*
X181148628Y-185885771D01*
X182505771Y-186242914D02*
X182577200Y-186314342D01*
X182505771Y-186385771D01*
X182434342Y-186314342D01*
X182505771Y-186242914D01*
X182505771Y-186385771D01*
X182505771Y-185457200D02*
X182577200Y-185528628D01*
X182505771Y-185600057D01*
X182434342Y-185528628D01*
X182505771Y-185457200D01*
X182505771Y-185600057D01*
X184362914Y-186385771D02*
X184362914Y-185385771D01*
X184362914Y-184885771D02*
X184291485Y-184957200D01*
X184362914Y-185028628D01*
X184434342Y-184957200D01*
X184362914Y-184885771D01*
X184362914Y-185028628D01*
X185291485Y-186385771D02*
X185148628Y-186314342D01*
X185077200Y-186242914D01*
X185005771Y-186100057D01*
X185005771Y-185671485D01*
X185077200Y-185528628D01*
X185148628Y-185457200D01*
X185291485Y-185385771D01*
X185505771Y-185385771D01*
X185648628Y-185457200D01*
X185720057Y-185528628D01*
X185791485Y-185671485D01*
X185791485Y-186100057D01*
X185720057Y-186242914D01*
X185648628Y-186314342D01*
X185505771Y-186385771D01*
X185291485Y-186385771D01*
X186220057Y-185385771D02*
X186791485Y-185385771D01*
X186434342Y-184885771D02*
X186434342Y-186171485D01*
X186505771Y-186314342D01*
X186648628Y-186385771D01*
X186791485Y-186385771D01*
X188148628Y-186242914D02*
X188077200Y-186314342D01*
X187862914Y-186385771D01*
X187720057Y-186385771D01*
X187505771Y-186314342D01*
X187362914Y-186171485D01*
X187291485Y-186028628D01*
X187220057Y-185742914D01*
X187220057Y-185528628D01*
X187291485Y-185242914D01*
X187362914Y-185100057D01*
X187505771Y-184957200D01*
X187720057Y-184885771D01*
X187862914Y-184885771D01*
X188077200Y-184957200D01*
X188148628Y-185028628D01*
X188791485Y-186385771D02*
X188791485Y-185385771D01*
X188791485Y-185671485D02*
X188862914Y-185528628D01*
X188934342Y-185457200D01*
X189077200Y-185385771D01*
X189220057Y-185385771D01*
X189934342Y-186385771D02*
X189791485Y-186314342D01*
X189720057Y-186242914D01*
X189648628Y-186100057D01*
X189648628Y-185671485D01*
X189720057Y-185528628D01*
X189791485Y-185457200D01*
X189934342Y-185385771D01*
X190148628Y-185385771D01*
X190291485Y-185457200D01*
X190362914Y-185528628D01*
X190434342Y-185671485D01*
X190434342Y-186100057D01*
X190362914Y-186242914D01*
X190291485Y-186314342D01*
X190148628Y-186385771D01*
X189934342Y-186385771D01*
X191077200Y-185385771D02*
X191077200Y-186385771D01*
X191077200Y-185528628D02*
X191148628Y-185457200D01*
X191291485Y-185385771D01*
X191505771Y-185385771D01*
X191648628Y-185457200D01*
X191720057Y-185600057D01*
X191720057Y-186385771D01*
X192648628Y-186385771D02*
X192505771Y-186314342D01*
X192434342Y-186242914D01*
X192362914Y-186100057D01*
X192362914Y-185671485D01*
X192434342Y-185528628D01*
X192505771Y-185457200D01*
X192648628Y-185385771D01*
X192862914Y-185385771D01*
X193005771Y-185457200D01*
X193077200Y-185528628D01*
X193148628Y-185671485D01*
X193148628Y-186100057D01*
X193077200Y-186242914D01*
X193005771Y-186314342D01*
X192862914Y-186385771D01*
X192648628Y-186385771D01*
X193577200Y-185385771D02*
X194148628Y-185385771D01*
X193791485Y-184885771D02*
X193791485Y-186171485D01*
X193862914Y-186314342D01*
X194005771Y-186385771D01*
X194148628Y-186385771D01*
X195220057Y-186314342D02*
X195077200Y-186385771D01*
X194791485Y-186385771D01*
X194648628Y-186314342D01*
X194577200Y-186171485D01*
X194577200Y-185600057D01*
X194648628Y-185457200D01*
X194791485Y-185385771D01*
X195077200Y-185385771D01*
X195220057Y-185457200D01*
X195291485Y-185600057D01*
X195291485Y-185742914D01*
X194577200Y-185885771D01*
X195934342Y-186385771D02*
X195934342Y-185385771D01*
X195934342Y-185528628D02*
X196005771Y-185457200D01*
X196148628Y-185385771D01*
X196362914Y-185385771D01*
X196505771Y-185457200D01*
X196577200Y-185600057D01*
X196577200Y-186385771D01*
X196577200Y-185600057D02*
X196648628Y-185457200D01*
X196791485Y-185385771D01*
X197005771Y-185385771D01*
X197148628Y-185457200D01*
X197220057Y-185600057D01*
X197220057Y-186385771D01*
X197934342Y-185385771D02*
X197934342Y-186885771D01*
X197934342Y-185457200D02*
X198077200Y-185385771D01*
X198362914Y-185385771D01*
X198505771Y-185457200D01*
X198577200Y-185528628D01*
X198648628Y-185671485D01*
X198648628Y-186100057D01*
X198577200Y-186242914D01*
X198505771Y-186314342D01*
X198362914Y-186385771D01*
X198077200Y-186385771D01*
X197934342Y-186314342D01*
X200005771Y-186385771D02*
X199291485Y-186385771D01*
X199291485Y-184885771D01*
X201148628Y-186314342D02*
X201005771Y-186385771D01*
X200720057Y-186385771D01*
X200577200Y-186314342D01*
X200505771Y-186242914D01*
X200434342Y-186100057D01*
X200434342Y-185671485D01*
X200505771Y-185528628D01*
X200577200Y-185457200D01*
X200720057Y-185385771D01*
X201005771Y-185385771D01*
X201148628Y-185457200D01*
X202434342Y-186385771D02*
X202434342Y-184885771D01*
X202434342Y-186314342D02*
X202291485Y-186385771D01*
X202005771Y-186385771D01*
X201862914Y-186314342D01*
X201791485Y-186242914D01*
X201720057Y-186100057D01*
X201720057Y-185671485D01*
X201791485Y-185528628D01*
X201862914Y-185457200D01*
X202005771Y-185385771D01*
X202291485Y-185385771D01*
X202434342Y-185457200D01*
X203148628Y-186242914D02*
X203220057Y-186314342D01*
X203148628Y-186385771D01*
X203077200Y-186314342D01*
X203148628Y-186242914D01*
X203148628Y-186385771D01*
X203862914Y-186385771D02*
X203862914Y-184885771D01*
X204005771Y-185814342D02*
X204434342Y-186385771D01*
X204434342Y-185385771D02*
X203862914Y-185957200D01*
X205077200Y-186385771D02*
X205077200Y-185385771D01*
X205077200Y-184885771D02*
X205005771Y-184957200D01*
X205077200Y-185028628D01*
X205148628Y-184957200D01*
X205077200Y-184885771D01*
X205077200Y-185028628D01*
X206434342Y-186314342D02*
X206291485Y-186385771D01*
X206005771Y-186385771D01*
X205862914Y-186314342D01*
X205791485Y-186242914D01*
X205720057Y-186100057D01*
X205720057Y-185671485D01*
X205791485Y-185528628D01*
X205862914Y-185457200D01*
X206005771Y-185385771D01*
X206291485Y-185385771D01*
X206434342Y-185457200D01*
X207720057Y-186385771D02*
X207720057Y-185600057D01*
X207648628Y-185457200D01*
X207505771Y-185385771D01*
X207220057Y-185385771D01*
X207077200Y-185457200D01*
X207720057Y-186314342D02*
X207577200Y-186385771D01*
X207220057Y-186385771D01*
X207077200Y-186314342D01*
X207005771Y-186171485D01*
X207005771Y-186028628D01*
X207077200Y-185885771D01*
X207220057Y-185814342D01*
X207577200Y-185814342D01*
X207720057Y-185742914D01*
X209077200Y-186385771D02*
X209077200Y-184885771D01*
X209077200Y-186314342D02*
X208934342Y-186385771D01*
X208648628Y-186385771D01*
X208505771Y-186314342D01*
X208434342Y-186242914D01*
X208362914Y-186100057D01*
X208362914Y-185671485D01*
X208434342Y-185528628D01*
X208505771Y-185457200D01*
X208648628Y-185385771D01*
X208934342Y-185385771D01*
X209077200Y-185457200D01*
X209434342Y-186528628D02*
X210577200Y-186528628D01*
X210934342Y-185385771D02*
X210934342Y-186885771D01*
X210934342Y-185457200D02*
X211077200Y-185385771D01*
X211362914Y-185385771D01*
X211505771Y-185457200D01*
X211577200Y-185528628D01*
X211648628Y-185671485D01*
X211648628Y-186100057D01*
X211577200Y-186242914D01*
X211505771Y-186314342D01*
X211362914Y-186385771D01*
X211077200Y-186385771D01*
X210934342Y-186314342D01*
X212934342Y-186314342D02*
X212791485Y-186385771D01*
X212505771Y-186385771D01*
X212362914Y-186314342D01*
X212291485Y-186242914D01*
X212220057Y-186100057D01*
X212220057Y-185671485D01*
X212291485Y-185528628D01*
X212362914Y-185457200D01*
X212505771Y-185385771D01*
X212791485Y-185385771D01*
X212934342Y-185457200D01*
X213577200Y-186385771D02*
X213577200Y-184885771D01*
X213577200Y-185457200D02*
X213720057Y-185385771D01*
X214005771Y-185385771D01*
X214148628Y-185457200D01*
X214220057Y-185528628D01*
X214291485Y-185671485D01*
X214291485Y-186100057D01*
X214220057Y-186242914D01*
X214148628Y-186314342D01*
X214005771Y-186385771D01*
X213720057Y-186385771D01*
X213577200Y-186314342D01*
D10*
D11*
X177002200Y-181507200D02*
X285002200Y-181507200D01*
D10*
D11*
X178362914Y-183614342D02*
X178577200Y-183685771D01*
X178934342Y-183685771D01*
X179077200Y-183614342D01*
X179148628Y-183542914D01*
X179220057Y-183400057D01*
X179220057Y-183257200D01*
X179148628Y-183114342D01*
X179077200Y-183042914D01*
X178934342Y-182971485D01*
X178648628Y-182900057D01*
X178505771Y-182828628D01*
X178434342Y-182757200D01*
X178362914Y-182614342D01*
X178362914Y-182471485D01*
X178434342Y-182328628D01*
X178505771Y-182257200D01*
X178648628Y-182185771D01*
X179005771Y-182185771D01*
X179220057Y-182257200D01*
X179862914Y-183685771D02*
X179862914Y-182185771D01*
X180505771Y-183685771D02*
X180505771Y-182900057D01*
X180434342Y-182757200D01*
X180291485Y-182685771D01*
X180077200Y-182685771D01*
X179934342Y-182757200D01*
X179862914Y-182828628D01*
X181791485Y-183614342D02*
X181648628Y-183685771D01*
X181362914Y-183685771D01*
X181220057Y-183614342D01*
X181148628Y-183471485D01*
X181148628Y-182900057D01*
X181220057Y-182757200D01*
X181362914Y-182685771D01*
X181648628Y-182685771D01*
X181791485Y-182757200D01*
X181862914Y-182900057D01*
X181862914Y-183042914D01*
X181148628Y-183185771D01*
X183077200Y-183614342D02*
X182934342Y-183685771D01*
X182648628Y-183685771D01*
X182505771Y-183614342D01*
X182434342Y-183471485D01*
X182434342Y-182900057D01*
X182505771Y-182757200D01*
X182648628Y-182685771D01*
X182934342Y-182685771D01*
X183077200Y-182757200D01*
X183148628Y-182900057D01*
X183148628Y-183042914D01*
X182434342Y-183185771D01*
X183577200Y-182685771D02*
X184148628Y-182685771D01*
X183791485Y-182185771D02*
X183791485Y-183471485D01*
X183862914Y-183614342D01*
X184005771Y-183685771D01*
X184148628Y-183685771D01*
X184648628Y-183542914D02*
X184720057Y-183614342D01*
X184648628Y-183685771D01*
X184577200Y-183614342D01*
X184648628Y-183542914D01*
X184648628Y-183685771D01*
X184648628Y-182757200D02*
X184720057Y-182828628D01*
X184648628Y-182900057D01*
X184577200Y-182828628D01*
X184648628Y-182757200D01*
X184648628Y-182900057D01*
D10*
D11*
X197002200Y-191507200D02*
X197002200Y-194507200D01*
D10*
D11*
X261002200Y-191507200D02*
X261002200Y-198007200D01*
D14*
X48171428Y-98678571D02*
X48171428Y-97678571D01*
X48171428Y-97178571D02*
X48099999Y-97250000D01*
X48171428Y-97321428D01*
X48242857Y-97250000D01*
X48171428Y-97178571D01*
X48171428Y-97321428D01*
X49099999Y-98678571D02*
X48957142Y-98607142D01*
X48885714Y-98535714D01*
X48814285Y-98392857D01*
X48814285Y-97964285D01*
X48885714Y-97821428D01*
X48957142Y-97750000D01*
X49099999Y-97678571D01*
X49314285Y-97678571D01*
X49457142Y-97750000D01*
X49528571Y-97821428D01*
X49599999Y-97964285D01*
X49599999Y-98392857D01*
X49528571Y-98535714D01*
X49457142Y-98607142D01*
X49314285Y-98678571D01*
X49099999Y-98678571D01*
X50028571Y-97678571D02*
X50599999Y-97678571D01*
X50242857Y-97178571D02*
X50242857Y-98464285D01*
X50314285Y-98607142D01*
X50457142Y-98678571D01*
X50599999Y-98678571D01*
X51957142Y-98535714D02*
X51885714Y-98607142D01*
X51671428Y-98678571D01*
X51528571Y-98678571D01*
X51314285Y-98607142D01*
X51171428Y-98464285D01*
X51099999Y-98321428D01*
X51028571Y-98035714D01*
X51028571Y-97821428D01*
X51099999Y-97535714D01*
X51171428Y-97392857D01*
X51314285Y-97250000D01*
X51528571Y-97178571D01*
X51671428Y-97178571D01*
X51885714Y-97250000D01*
X51957142Y-97321428D01*
X52599999Y-98678571D02*
X52599999Y-97678571D01*
X52599999Y-97964285D02*
X52671428Y-97821428D01*
X52742857Y-97750000D01*
X52885714Y-97678571D01*
X53028571Y-97678571D01*
X53742857Y-98678571D02*
X53599999Y-98607142D01*
X53528571Y-98535714D01*
X53457142Y-98392857D01*
X53457142Y-97964285D01*
X53528571Y-97821428D01*
X53599999Y-97750000D01*
X53742857Y-97678571D01*
X53957142Y-97678571D01*
X54099999Y-97750000D01*
X54171428Y-97821428D01*
X54242857Y-97964285D01*
X54242857Y-98392857D01*
X54171428Y-98535714D01*
X54099999Y-98607142D01*
X53957142Y-98678571D01*
X53742857Y-98678571D01*
X54885714Y-97678571D02*
X54885714Y-98678571D01*
X54885714Y-97821428D02*
X54957142Y-97750000D01*
X55099999Y-97678571D01*
X55314285Y-97678571D01*
X55457142Y-97750000D01*
X55528571Y-97892857D01*
X55528571Y-98678571D01*
X56457142Y-98678571D02*
X56314285Y-98607142D01*
X56242857Y-98535714D01*
X56171428Y-98392857D01*
X56171428Y-97964285D01*
X56242857Y-97821428D01*
X56314285Y-97750000D01*
X56457142Y-97678571D01*
X56671428Y-97678571D01*
X56814285Y-97750000D01*
X56885714Y-97821428D01*
X56957142Y-97964285D01*
X56957142Y-98392857D01*
X56885714Y-98535714D01*
X56814285Y-98607142D01*
X56671428Y-98678571D01*
X56457142Y-98678571D01*
X57385714Y-97678571D02*
X57957142Y-97678571D01*
X57599999Y-97178571D02*
X57599999Y-98464285D01*
X57671428Y-98607142D01*
X57814285Y-98678571D01*
X57957142Y-98678571D01*
X59028571Y-98607142D02*
X58885714Y-98678571D01*
X58599999Y-98678571D01*
X58457142Y-98607142D01*
X58385714Y-98464285D01*
X58385714Y-97892857D01*
X58457142Y-97750000D01*
X58599999Y-97678571D01*
X58885714Y-97678571D01*
X59028571Y-97750000D01*
X59099999Y-97892857D01*
X59099999Y-98035714D01*
X58385714Y-98178571D01*
X59742857Y-98678571D02*
X59742857Y-97678571D01*
X59742857Y-97821428D02*
X59814285Y-97750000D01*
X59957142Y-97678571D01*
X60171428Y-97678571D01*
X60314285Y-97750000D01*
X60385714Y-97892857D01*
X60385714Y-98678571D01*
X60385714Y-97892857D02*
X60457142Y-97750000D01*
X60599999Y-97678571D01*
X60814285Y-97678571D01*
X60957142Y-97750000D01*
X61028571Y-97892857D01*
X61028571Y-98678571D01*
X61742857Y-97678571D02*
X61742857Y-99178571D01*
X61742857Y-97750000D02*
X61885714Y-97678571D01*
X62171428Y-97678571D01*
X62314285Y-97750000D01*
X62385714Y-97821428D01*
X62457142Y-97964285D01*
X62457142Y-98392857D01*
X62385714Y-98535714D01*
X62314285Y-98607142D01*
X62171428Y-98678571D01*
X61885714Y-98678571D01*
X61742857Y-98607142D01*
X63814285Y-98678571D02*
X63099999Y-98678571D01*
X63099999Y-97178571D01*
X64957142Y-98607142D02*
X64814285Y-98678571D01*
X64528571Y-98678571D01*
X64385714Y-98607142D01*
X64314285Y-98535714D01*
X64242857Y-98392857D01*
X64242857Y-97964285D01*
X64314285Y-97821428D01*
X64385714Y-97750000D01*
X64528571Y-97678571D01*
X64814285Y-97678571D01*
X64957142Y-97750000D01*
X66242857Y-98678571D02*
X66242857Y-97178571D01*
X66242857Y-98607142D02*
X66099999Y-98678571D01*
X65814285Y-98678571D01*
X65671428Y-98607142D01*
X65599999Y-98535714D01*
X65528571Y-98392857D01*
X65528571Y-97964285D01*
X65599999Y-97821428D01*
X65671428Y-97750000D01*
X65814285Y-97678571D01*
X66099999Y-97678571D01*
X66242857Y-97750000D01*
X68885714Y-98678571D02*
X68028571Y-98678571D01*
X68457142Y-98678571D02*
X68457142Y-97178571D01*
X68314285Y-97392857D01*
X68171428Y-97535714D01*
X68028571Y-97607142D01*
X69528571Y-98535714D02*
X69600000Y-98607142D01*
X69528571Y-98678571D01*
X69457142Y-98607142D01*
X69528571Y-98535714D01*
X69528571Y-98678571D01*
X70528571Y-97178571D02*
X70671428Y-97178571D01*
X70814285Y-97250000D01*
X70885714Y-97321428D01*
X70957142Y-97464285D01*
X71028571Y-97750000D01*
X71028571Y-98107142D01*
X70957142Y-98392857D01*
X70885714Y-98535714D01*
X70814285Y-98607142D01*
X70671428Y-98678571D01*
X70528571Y-98678571D01*
X70385714Y-98607142D01*
X70314285Y-98535714D01*
X70242857Y-98392857D01*
X70171428Y-98107142D01*
X70171428Y-97750000D01*
X70242857Y-97464285D01*
X70314285Y-97321428D01*
X70385714Y-97250000D01*
X70528571Y-97178571D01*
X72742857Y-98607142D02*
X72885714Y-98678571D01*
X73171428Y-98678571D01*
X73314285Y-98607142D01*
X73385714Y-98464285D01*
X73385714Y-98392857D01*
X73314285Y-98250000D01*
X73171428Y-98178571D01*
X72957142Y-98178571D01*
X72814285Y-98107142D01*
X72742857Y-97964285D01*
X72742857Y-97892857D01*
X72814285Y-97750000D01*
X72957142Y-97678571D01*
X73171428Y-97678571D01*
X73314285Y-97750000D01*
X74671428Y-97678571D02*
X74671428Y-98678571D01*
X74028571Y-97678571D02*
X74028571Y-98464285D01*
X74099999Y-98607142D01*
X74242857Y-98678571D01*
X74457142Y-98678571D01*
X74599999Y-98607142D01*
X74671428Y-98535714D01*
X75385714Y-97678571D02*
X75385714Y-99178571D01*
X75385714Y-97750000D02*
X75528571Y-97678571D01*
X75814285Y-97678571D01*
X75957142Y-97750000D01*
X76028571Y-97821428D01*
X76099999Y-97964285D01*
X76099999Y-98392857D01*
X76028571Y-98535714D01*
X75957142Y-98607142D01*
X75814285Y-98678571D01*
X75528571Y-98678571D01*
X75385714Y-98607142D01*
D15*
%TO.P,U4,18*%
%TO.N,Net-(U4-Pad18)*%
X139180000Y-129720000D03*
%TO.P,U4,17*%
%TO.N,Net-(U4-Pad17)*%
X139180000Y-132260000D03*
D16*
%TO.P,U4,15*%
%TO.N,Net-(U4-Pad15)*%
X139180000Y-137340000D03*
D15*
%TO.P,U4,16*%
%TO.N,Net-(U4-Pad16)*%
X139180000Y-134800000D03*
%TO.P,U4,14*%
%TO.N,Net-(U2-Pad37)*%
X57200000Y-116990000D03*
%TO.P,U4,13*%
%TO.N,Net-(U2-Pad36)*%
X57200000Y-119530000D03*
D16*
%TO.P,U4,1*%
%TO.N,Net-(C2-Pad1)*%
X57200000Y-150010000D03*
D17*
%TO.P,U4,*%
%TO.N,*%
X138200000Y-155500000D03*
X138200000Y-111500000D03*
D18*
X62120000Y-155500000D03*
X62120000Y-111500000D03*
D15*
%TO.P,U4,2*%
%TO.N,GND*%
X57200000Y-147470000D03*
%TO.P,U4,3*%
%TO.N,Net-(U2-Pad14)*%
X57200000Y-144930000D03*
%TO.P,U4,4*%
%TO.N,Net-(U2-Pad13)*%
X57200000Y-142390000D03*
%TO.P,U4,5*%
%TO.N,Net-(U2-Pad12)*%
X57200000Y-139850000D03*
%TO.P,U4,6*%
%TO.N,Net-(U2-Pad11)*%
X57200000Y-137310000D03*
%TO.P,U4,7*%
%TO.N,Net-(U2-Pad10)*%
X57200000Y-134770000D03*
%TO.P,U4,8*%
%TO.N,Net-(U2-Pad9)*%
X57200000Y-132230000D03*
%TO.P,U4,9*%
%TO.N,Net-(U4-Pad9)*%
X57200000Y-129690000D03*
%TO.P,U4,10*%
%TO.N,Net-(U2-Pad8)*%
X57200000Y-127150000D03*
%TO.P,U4,11*%
%TO.N,Net-(U2-Pad30)*%
X57200000Y-124610000D03*
%TO.P,U4,12*%
%TO.N,Net-(U2-Pad31)*%
X57200000Y-122070000D03*
%TD*%
%TA.AperFunction,SMDPad,CuDef*%
D19*
%TO.P,R3,2*%
%TO.N,Net-(R3-Pad2)*%
G36*
X127377691Y-130576053D02*
G01*
X127398926Y-130579203D01*
X127419750Y-130584419D01*
X127439962Y-130591651D01*
X127459368Y-130600830D01*
X127477781Y-130611866D01*
X127495024Y-130624654D01*
X127510930Y-130639070D01*
X127525346Y-130654976D01*
X127538134Y-130672219D01*
X127549170Y-130690632D01*
X127558349Y-130710038D01*
X127565581Y-130730250D01*
X127570797Y-130751074D01*
X127573947Y-130772309D01*
X127575000Y-130793750D01*
X127575000Y-131231250D01*
X127573947Y-131252691D01*
X127570797Y-131273926D01*
X127565581Y-131294750D01*
X127558349Y-131314962D01*
X127549170Y-131334368D01*
X127538134Y-131352781D01*
X127525346Y-131370024D01*
X127510930Y-131385930D01*
X127495024Y-131400346D01*
X127477781Y-131413134D01*
X127459368Y-131424170D01*
X127439962Y-131433349D01*
X127419750Y-131440581D01*
X127398926Y-131445797D01*
X127377691Y-131448947D01*
X127356250Y-131450000D01*
X126843750Y-131450000D01*
X126822309Y-131448947D01*
X126801074Y-131445797D01*
X126780250Y-131440581D01*
X126760038Y-131433349D01*
X126740632Y-131424170D01*
X126722219Y-131413134D01*
X126704976Y-131400346D01*
X126689070Y-131385930D01*
X126674654Y-131370024D01*
X126661866Y-131352781D01*
X126650830Y-131334368D01*
X126641651Y-131314962D01*
X126634419Y-131294750D01*
X126629203Y-131273926D01*
X126626053Y-131252691D01*
X126625000Y-131231250D01*
X126625000Y-130793750D01*
X126626053Y-130772309D01*
X126629203Y-130751074D01*
X126634419Y-130730250D01*
X126641651Y-130710038D01*
X126650830Y-130690632D01*
X126661866Y-130672219D01*
X126674654Y-130654976D01*
X126689070Y-130639070D01*
X126704976Y-130624654D01*
X126722219Y-130611866D01*
X126740632Y-130600830D01*
X126760038Y-130591651D01*
X126780250Y-130584419D01*
X126801074Y-130579203D01*
X126822309Y-130576053D01*
X126843750Y-130575000D01*
X127356250Y-130575000D01*
X127377691Y-130576053D01*
G37*
%TD.AperFunction*%
%TA.AperFunction,SMDPad,CuDef*%
%TO.P,R3,1*%
%TO.N,Net-(C2-Pad1)*%
G36*
X127377691Y-132151053D02*
G01*
X127398926Y-132154203D01*
X127419750Y-132159419D01*
X127439962Y-132166651D01*
X127459368Y-132175830D01*
X127477781Y-132186866D01*
X127495024Y-132199654D01*
X127510930Y-132214070D01*
X127525346Y-132229976D01*
X127538134Y-132247219D01*
X127549170Y-132265632D01*
X127558349Y-132285038D01*
X127565581Y-132305250D01*
X127570797Y-132326074D01*
X127573947Y-132347309D01*
X127575000Y-132368750D01*
X127575000Y-132806250D01*
X127573947Y-132827691D01*
X127570797Y-132848926D01*
X127565581Y-132869750D01*
X127558349Y-132889962D01*
X127549170Y-132909368D01*
X127538134Y-132927781D01*
X127525346Y-132945024D01*
X127510930Y-132960930D01*
X127495024Y-132975346D01*
X127477781Y-132988134D01*
X127459368Y-132999170D01*
X127439962Y-133008349D01*
X127419750Y-133015581D01*
X127398926Y-133020797D01*
X127377691Y-133023947D01*
X127356250Y-133025000D01*
X126843750Y-133025000D01*
X126822309Y-133023947D01*
X126801074Y-133020797D01*
X126780250Y-133015581D01*
X126760038Y-133008349D01*
X126740632Y-132999170D01*
X126722219Y-132988134D01*
X126704976Y-132975346D01*
X126689070Y-132960930D01*
X126674654Y-132945024D01*
X126661866Y-132927781D01*
X126650830Y-132909368D01*
X126641651Y-132889962D01*
X126634419Y-132869750D01*
X126629203Y-132848926D01*
X126626053Y-132827691D01*
X126625000Y-132806250D01*
X126625000Y-132368750D01*
X126626053Y-132347309D01*
X126629203Y-132326074D01*
X126634419Y-132305250D01*
X126641651Y-132285038D01*
X126650830Y-132265632D01*
X126661866Y-132247219D01*
X126674654Y-132229976D01*
X126689070Y-132214070D01*
X126704976Y-132199654D01*
X126722219Y-132186866D01*
X126740632Y-132175830D01*
X126760038Y-132166651D01*
X126780250Y-132159419D01*
X126801074Y-132154203D01*
X126822309Y-132151053D01*
X126843750Y-132150000D01*
X127356250Y-132150000D01*
X127377691Y-132151053D01*
G37*
%TD.AperFunction*%
%TD*%
D20*
%TO.P,U1,1*%
%TO.N,GND*%
X124400000Y-143650000D03*
%TO.P,U1,3*%
%TO.N,Net-(C1-Pad1)*%
X129000000Y-143650000D03*
%TO.P,U1,2*%
%TO.N,Net-(C2-Pad1)*%
X126700000Y-143650000D03*
D21*
X126700000Y-137350000D03*
%TD*%
D22*
%TO.P,P1,2*%
%TO.N,Net-(K1-Pad7)*%
X107500000Y-130600000D03*
D23*
%TO.P,P1,1*%
%TO.N,Net-(K1-Pad12)*%
X102500000Y-130600000D03*
%TD*%
%TA.AperFunction,SMDPad,CuDef*%
D19*
%TO.P,R4,2*%
%TO.N,Net-(D2-Pad1)*%
G36*
X114677691Y-133576053D02*
G01*
X114698926Y-133579203D01*
X114719750Y-133584419D01*
X114739962Y-133591651D01*
X114759368Y-133600830D01*
X114777781Y-133611866D01*
X114795024Y-133624654D01*
X114810930Y-133639070D01*
X114825346Y-133654976D01*
X114838134Y-133672219D01*
X114849170Y-133690632D01*
X114858349Y-133710038D01*
X114865581Y-133730250D01*
X114870797Y-133751074D01*
X114873947Y-133772309D01*
X114875000Y-133793750D01*
X114875000Y-134231250D01*
X114873947Y-134252691D01*
X114870797Y-134273926D01*
X114865581Y-134294750D01*
X114858349Y-134314962D01*
X114849170Y-134334368D01*
X114838134Y-134352781D01*
X114825346Y-134370024D01*
X114810930Y-134385930D01*
X114795024Y-134400346D01*
X114777781Y-134413134D01*
X114759368Y-134424170D01*
X114739962Y-134433349D01*
X114719750Y-134440581D01*
X114698926Y-134445797D01*
X114677691Y-134448947D01*
X114656250Y-134450000D01*
X114143750Y-134450000D01*
X114122309Y-134448947D01*
X114101074Y-134445797D01*
X114080250Y-134440581D01*
X114060038Y-134433349D01*
X114040632Y-134424170D01*
X114022219Y-134413134D01*
X114004976Y-134400346D01*
X113989070Y-134385930D01*
X113974654Y-134370024D01*
X113961866Y-134352781D01*
X113950830Y-134334368D01*
X113941651Y-134314962D01*
X113934419Y-134294750D01*
X113929203Y-134273926D01*
X113926053Y-134252691D01*
X113925000Y-134231250D01*
X113925000Y-133793750D01*
X113926053Y-133772309D01*
X113929203Y-133751074D01*
X113934419Y-133730250D01*
X113941651Y-133710038D01*
X113950830Y-133690632D01*
X113961866Y-133672219D01*
X113974654Y-133654976D01*
X113989070Y-133639070D01*
X114004976Y-133624654D01*
X114022219Y-133611866D01*
X114040632Y-133600830D01*
X114060038Y-133591651D01*
X114080250Y-133584419D01*
X114101074Y-133579203D01*
X114122309Y-133576053D01*
X114143750Y-133575000D01*
X114656250Y-133575000D01*
X114677691Y-133576053D01*
G37*
%TD.AperFunction*%
%TA.AperFunction,SMDPad,CuDef*%
%TO.P,R4,1*%
%TO.N,Net-(R4-Pad1)*%
G36*
X114677691Y-135151053D02*
G01*
X114698926Y-135154203D01*
X114719750Y-135159419D01*
X114739962Y-135166651D01*
X114759368Y-135175830D01*
X114777781Y-135186866D01*
X114795024Y-135199654D01*
X114810930Y-135214070D01*
X114825346Y-135229976D01*
X114838134Y-135247219D01*
X114849170Y-135265632D01*
X114858349Y-135285038D01*
X114865581Y-135305250D01*
X114870797Y-135326074D01*
X114873947Y-135347309D01*
X114875000Y-135368750D01*
X114875000Y-135806250D01*
X114873947Y-135827691D01*
X114870797Y-135848926D01*
X114865581Y-135869750D01*
X114858349Y-135889962D01*
X114849170Y-135909368D01*
X114838134Y-135927781D01*
X114825346Y-135945024D01*
X114810930Y-135960930D01*
X114795024Y-135975346D01*
X114777781Y-135988134D01*
X114759368Y-135999170D01*
X114739962Y-136008349D01*
X114719750Y-136015581D01*
X114698926Y-136020797D01*
X114677691Y-136023947D01*
X114656250Y-136025000D01*
X114143750Y-136025000D01*
X114122309Y-136023947D01*
X114101074Y-136020797D01*
X114080250Y-136015581D01*
X114060038Y-136008349D01*
X114040632Y-135999170D01*
X114022219Y-135988134D01*
X114004976Y-135975346D01*
X113989070Y-135960930D01*
X113974654Y-135945024D01*
X113961866Y-135927781D01*
X113950830Y-135909368D01*
X113941651Y-135889962D01*
X113934419Y-135869750D01*
X113929203Y-135848926D01*
X113926053Y-135827691D01*
X113925000Y-135806250D01*
X113925000Y-135368750D01*
X113926053Y-135347309D01*
X113929203Y-135326074D01*
X113934419Y-135305250D01*
X113941651Y-135285038D01*
X113950830Y-135265632D01*
X113961866Y-135247219D01*
X113974654Y-135229976D01*
X113989070Y-135214070D01*
X114004976Y-135199654D01*
X114022219Y-135186866D01*
X114040632Y-135175830D01*
X114060038Y-135166651D01*
X114080250Y-135159419D01*
X114101074Y-135154203D01*
X114122309Y-135151053D01*
X114143750Y-135150000D01*
X114656250Y-135150000D01*
X114677691Y-135151053D01*
G37*
%TD.AperFunction*%
%TD*%
D24*
%TO.P,U3,4*%
%TO.N,GND*%
X157020000Y-147900000D03*
%TO.P,U3,3*%
%TO.N,Net-(U3-Pad3)*%
X154480000Y-147900000D03*
%TO.P,U3,2*%
%TO.N,Net-(U2-Pad27)*%
X151940000Y-147900000D03*
D25*
%TO.P,U3,1*%
%TO.N,Net-(C2-Pad1)*%
X149400000Y-147900000D03*
%TD*%
D26*
%TO.P,P2,4*%
%TO.N,GND*%
X87220000Y-103500000D03*
%TO.P,P2,3*%
%TO.N,Net-(P2-Pad3)*%
X84680000Y-103500000D03*
%TO.P,P2,2*%
%TO.N,Net-(P2-Pad2)*%
X82140000Y-103500000D03*
D16*
%TO.P,P2,1*%
%TO.N,Net-(C2-Pad1)*%
X79600000Y-103500000D03*
%TD*%
D27*
%TO.P,D1,2*%
%TO.N,Net-(D1-Pad2)*%
X134800000Y-114880000D03*
D28*
%TO.P,D1,1*%
%TO.N,Net-(C2-Pad1)*%
X134800000Y-122500000D03*
%TD*%
D29*
%TO.P,D2,2*%
%TO.N,GND*%
X131270000Y-104500000D03*
D30*
%TO.P,D2,1*%
%TO.N,Net-(D2-Pad1)*%
X128730000Y-104500000D03*
%TD*%
D31*
%TO.P,K1,7*%
%TO.N,Net-(K1-Pad7)*%
X121780000Y-114100000D03*
%TO.P,K1,6*%
%TO.N,Net-(D1-Pad2)*%
X129400000Y-114100000D03*
%TO.P,K1,10*%
%TO.N,Net-(K1-Pad10)*%
X121780000Y-121720000D03*
%TO.P,K1,12*%
%TO.N,Net-(K1-Pad12)*%
X121780000Y-126800000D03*
D32*
%TO.P,K1,1*%
%TO.N,Net-(C2-Pad1)*%
X129400000Y-126800000D03*
%TD*%
D33*
%TO.P,Q1,3*%
%TO.N,Net-(D1-Pad2)*%
X117300000Y-104200000D03*
%TO.P,Q1,2*%
%TO.N,GND*%
X119300000Y-103250000D03*
%TO.P,Q1,1*%
%TO.N,Net-(Q1-Pad1)*%
X119300000Y-105150000D03*
%TD*%
%TA.AperFunction,SMDPad,CuDef*%
D19*
%TO.P,R1,2*%
%TO.N,Net-(R1-Pad2)*%
G36*
X98777691Y-129251053D02*
G01*
X98798926Y-129254203D01*
X98819750Y-129259419D01*
X98839962Y-129266651D01*
X98859368Y-129275830D01*
X98877781Y-129286866D01*
X98895024Y-129299654D01*
X98910930Y-129314070D01*
X98925346Y-129329976D01*
X98938134Y-129347219D01*
X98949170Y-129365632D01*
X98958349Y-129385038D01*
X98965581Y-129405250D01*
X98970797Y-129426074D01*
X98973947Y-129447309D01*
X98975000Y-129468750D01*
X98975000Y-129906250D01*
X98973947Y-129927691D01*
X98970797Y-129948926D01*
X98965581Y-129969750D01*
X98958349Y-129989962D01*
X98949170Y-130009368D01*
X98938134Y-130027781D01*
X98925346Y-130045024D01*
X98910930Y-130060930D01*
X98895024Y-130075346D01*
X98877781Y-130088134D01*
X98859368Y-130099170D01*
X98839962Y-130108349D01*
X98819750Y-130115581D01*
X98798926Y-130120797D01*
X98777691Y-130123947D01*
X98756250Y-130125000D01*
X98243750Y-130125000D01*
X98222309Y-130123947D01*
X98201074Y-130120797D01*
X98180250Y-130115581D01*
X98160038Y-130108349D01*
X98140632Y-130099170D01*
X98122219Y-130088134D01*
X98104976Y-130075346D01*
X98089070Y-130060930D01*
X98074654Y-130045024D01*
X98061866Y-130027781D01*
X98050830Y-130009368D01*
X98041651Y-129989962D01*
X98034419Y-129969750D01*
X98029203Y-129948926D01*
X98026053Y-129927691D01*
X98025000Y-129906250D01*
X98025000Y-129468750D01*
X98026053Y-129447309D01*
X98029203Y-129426074D01*
X98034419Y-129405250D01*
X98041651Y-129385038D01*
X98050830Y-129365632D01*
X98061866Y-129347219D01*
X98074654Y-129329976D01*
X98089070Y-129314070D01*
X98104976Y-129299654D01*
X98122219Y-129286866D01*
X98140632Y-129275830D01*
X98160038Y-129266651D01*
X98180250Y-129259419D01*
X98201074Y-129254203D01*
X98222309Y-129251053D01*
X98243750Y-129250000D01*
X98756250Y-129250000D01*
X98777691Y-129251053D01*
G37*
%TD.AperFunction*%
%TA.AperFunction,SMDPad,CuDef*%
%TO.P,R1,1*%
%TO.N,Net-(Q1-Pad1)*%
G36*
X98777691Y-127676053D02*
G01*
X98798926Y-127679203D01*
X98819750Y-127684419D01*
X98839962Y-127691651D01*
X98859368Y-127700830D01*
X98877781Y-127711866D01*
X98895024Y-127724654D01*
X98910930Y-127739070D01*
X98925346Y-127754976D01*
X98938134Y-127772219D01*
X98949170Y-127790632D01*
X98958349Y-127810038D01*
X98965581Y-127830250D01*
X98970797Y-127851074D01*
X98973947Y-127872309D01*
X98975000Y-127893750D01*
X98975000Y-128331250D01*
X98973947Y-128352691D01*
X98970797Y-128373926D01*
X98965581Y-128394750D01*
X98958349Y-128414962D01*
X98949170Y-128434368D01*
X98938134Y-128452781D01*
X98925346Y-128470024D01*
X98910930Y-128485930D01*
X98895024Y-128500346D01*
X98877781Y-128513134D01*
X98859368Y-128524170D01*
X98839962Y-128533349D01*
X98819750Y-128540581D01*
X98798926Y-128545797D01*
X98777691Y-128548947D01*
X98756250Y-128550000D01*
X98243750Y-128550000D01*
X98222309Y-128548947D01*
X98201074Y-128545797D01*
X98180250Y-128540581D01*
X98160038Y-128533349D01*
X98140632Y-128524170D01*
X98122219Y-128513134D01*
X98104976Y-128500346D01*
X98089070Y-128485930D01*
X98074654Y-128470024D01*
X98061866Y-128452781D01*
X98050830Y-128434368D01*
X98041651Y-128414962D01*
X98034419Y-128394750D01*
X98029203Y-128373926D01*
X98026053Y-128352691D01*
X98025000Y-128331250D01*
X98025000Y-127893750D01*
X98026053Y-127872309D01*
X98029203Y-127851074D01*
X98034419Y-127830250D01*
X98041651Y-127810038D01*
X98050830Y-127790632D01*
X98061866Y-127772219D01*
X98074654Y-127754976D01*
X98089070Y-127739070D01*
X98104976Y-127724654D01*
X98122219Y-127711866D01*
X98140632Y-127700830D01*
X98160038Y-127691651D01*
X98180250Y-127684419D01*
X98201074Y-127679203D01*
X98222309Y-127676053D01*
X98243750Y-127675000D01*
X98756250Y-127675000D01*
X98777691Y-127676053D01*
G37*
%TD.AperFunction*%
%TD*%
%TA.AperFunction,SMDPad,CuDef*%
%TO.P,R2,2*%
%TO.N,GND*%
G36*
X110677691Y-102976053D02*
G01*
X110698926Y-102979203D01*
X110719750Y-102984419D01*
X110739962Y-102991651D01*
X110759368Y-103000830D01*
X110777781Y-103011866D01*
X110795024Y-103024654D01*
X110810930Y-103039070D01*
X110825346Y-103054976D01*
X110838134Y-103072219D01*
X110849170Y-103090632D01*
X110858349Y-103110038D01*
X110865581Y-103130250D01*
X110870797Y-103151074D01*
X110873947Y-103172309D01*
X110875000Y-103193750D01*
X110875000Y-103631250D01*
X110873947Y-103652691D01*
X110870797Y-103673926D01*
X110865581Y-103694750D01*
X110858349Y-103714962D01*
X110849170Y-103734368D01*
X110838134Y-103752781D01*
X110825346Y-103770024D01*
X110810930Y-103785930D01*
X110795024Y-103800346D01*
X110777781Y-103813134D01*
X110759368Y-103824170D01*
X110739962Y-103833349D01*
X110719750Y-103840581D01*
X110698926Y-103845797D01*
X110677691Y-103848947D01*
X110656250Y-103850000D01*
X110143750Y-103850000D01*
X110122309Y-103848947D01*
X110101074Y-103845797D01*
X110080250Y-103840581D01*
X110060038Y-103833349D01*
X110040632Y-103824170D01*
X110022219Y-103813134D01*
X110004976Y-103800346D01*
X109989070Y-103785930D01*
X109974654Y-103770024D01*
X109961866Y-103752781D01*
X109950830Y-103734368D01*
X109941651Y-103714962D01*
X109934419Y-103694750D01*
X109929203Y-103673926D01*
X109926053Y-103652691D01*
X109925000Y-103631250D01*
X109925000Y-103193750D01*
X109926053Y-103172309D01*
X109929203Y-103151074D01*
X109934419Y-103130250D01*
X109941651Y-103110038D01*
X109950830Y-103090632D01*
X109961866Y-103072219D01*
X109974654Y-103054976D01*
X109989070Y-103039070D01*
X110004976Y-103024654D01*
X110022219Y-103011866D01*
X110040632Y-103000830D01*
X110060038Y-102991651D01*
X110080250Y-102984419D01*
X110101074Y-102979203D01*
X110122309Y-102976053D01*
X110143750Y-102975000D01*
X110656250Y-102975000D01*
X110677691Y-102976053D01*
G37*
%TD.AperFunction*%
%TA.AperFunction,SMDPad,CuDef*%
%TO.P,R2,1*%
%TO.N,Net-(Q1-Pad1)*%
G36*
X110677691Y-104551053D02*
G01*
X110698926Y-104554203D01*
X110719750Y-104559419D01*
X110739962Y-104566651D01*
X110759368Y-104575830D01*
X110777781Y-104586866D01*
X110795024Y-104599654D01*
X110810930Y-104614070D01*
X110825346Y-104629976D01*
X110838134Y-104647219D01*
X110849170Y-104665632D01*
X110858349Y-104685038D01*
X110865581Y-104705250D01*
X110870797Y-104726074D01*
X110873947Y-104747309D01*
X110875000Y-104768750D01*
X110875000Y-105206250D01*
X110873947Y-105227691D01*
X110870797Y-105248926D01*
X110865581Y-105269750D01*
X110858349Y-105289962D01*
X110849170Y-105309368D01*
X110838134Y-105327781D01*
X110825346Y-105345024D01*
X110810930Y-105360930D01*
X110795024Y-105375346D01*
X110777781Y-105388134D01*
X110759368Y-105399170D01*
X110739962Y-105408349D01*
X110719750Y-105415581D01*
X110698926Y-105420797D01*
X110677691Y-105423947D01*
X110656250Y-105425000D01*
X110143750Y-105425000D01*
X110122309Y-105423947D01*
X110101074Y-105420797D01*
X110080250Y-105415581D01*
X110060038Y-105408349D01*
X110040632Y-105399170D01*
X110022219Y-105388134D01*
X110004976Y-105375346D01*
X109989070Y-105360930D01*
X109974654Y-105345024D01*
X109961866Y-105327781D01*
X109950830Y-105309368D01*
X109941651Y-105289962D01*
X109934419Y-105269750D01*
X109929203Y-105248926D01*
X109926053Y-105227691D01*
X109925000Y-105206250D01*
X109925000Y-104768750D01*
X109926053Y-104747309D01*
X109929203Y-104726074D01*
X109934419Y-104705250D01*
X109941651Y-104685038D01*
X109950830Y-104665632D01*
X109961866Y-104647219D01*
X109974654Y-104629976D01*
X109989070Y-104614070D01*
X110004976Y-104599654D01*
X110022219Y-104586866D01*
X110040632Y-104575830D01*
X110060038Y-104566651D01*
X110080250Y-104559419D01*
X110101074Y-104554203D01*
X110122309Y-104551053D01*
X110143750Y-104550000D01*
X110656250Y-104550000D01*
X110677691Y-104551053D01*
G37*
%TD.AperFunction*%
%TD*%
D34*
%TO.P,SW1,1*%
%TO.N,GND*%
X150250000Y-105250000D03*
%TO.P,SW1,2*%
%TO.N,Net-(R3-Pad2)*%
X150250000Y-109750000D03*
%TO.P,SW1,1*%
%TO.N,GND*%
X156750000Y-105250000D03*
%TO.P,SW1,2*%
%TO.N,Net-(R3-Pad2)*%
X156750000Y-109750000D03*
%TD*%
D35*
%TO.P,U2,38*%
%TO.N,GND*%
X93745000Y-123690000D03*
%TO.P,U2,37*%
%TO.N,Net-(U2-Pad37)*%
X93745000Y-124960000D03*
%TO.P,U2,36*%
%TO.N,Net-(U2-Pad36)*%
X93745000Y-126230000D03*
%TO.P,U2,35*%
%TO.N,Net-(P2-Pad2)*%
X93745000Y-127500000D03*
%TO.P,U2,34*%
%TO.N,Net-(P2-Pad3)*%
X93745000Y-128770000D03*
%TO.P,U2,33*%
%TO.N,Net-(U2-Pad33)*%
X93745000Y-130040000D03*
%TO.P,U2,32*%
%TO.N,Net-(U2-Pad32)*%
X93745000Y-131310000D03*
%TO.P,U2,31*%
%TO.N,Net-(U2-Pad31)*%
X93745000Y-132580000D03*
%TO.P,U2,30*%
%TO.N,Net-(U2-Pad30)*%
X93745000Y-133850000D03*
%TO.P,U2,29*%
%TO.N,Net-(U2-Pad29)*%
X93745000Y-135120000D03*
%TO.P,U2,28*%
%TO.N,Net-(R1-Pad2)*%
X93745000Y-136390000D03*
%TO.P,U2,27*%
%TO.N,Net-(U2-Pad27)*%
X93745000Y-137660000D03*
%TO.P,U2,26*%
%TO.N,Net-(R4-Pad1)*%
X93745000Y-138930000D03*
%TO.P,U2,25*%
%TO.N,Net-(R3-Pad2)*%
X93745000Y-140200000D03*
D36*
%TO.P,U2,24*%
%TO.N,Net-(U2-Pad24)*%
X90960000Y-141200000D03*
%TO.P,U2,23*%
%TO.N,Net-(U2-Pad23)*%
X89690000Y-141200000D03*
%TO.P,U2,22*%
%TO.N,Net-(U2-Pad22)*%
X88420000Y-141200000D03*
%TO.P,U2,21*%
%TO.N,Net-(U2-Pad21)*%
X87150000Y-141200000D03*
%TO.P,U2,20*%
%TO.N,Net-(U2-Pad20)*%
X85880000Y-141200000D03*
%TO.P,U2,19*%
%TO.N,Net-(U2-Pad19)*%
X84610000Y-141200000D03*
%TO.P,U2,18*%
%TO.N,Net-(U2-Pad18)*%
X83340000Y-141200000D03*
%TO.P,U2,17*%
%TO.N,Net-(U2-Pad17)*%
X82070000Y-141200000D03*
%TO.P,U2,16*%
%TO.N,Net-(U2-Pad16)*%
X80800000Y-141200000D03*
%TO.P,U2,15*%
%TO.N,GND*%
X79530000Y-141200000D03*
D35*
%TO.P,U2,14*%
%TO.N,Net-(U2-Pad14)*%
X76745000Y-140200000D03*
%TO.P,U2,13*%
%TO.N,Net-(U2-Pad13)*%
X76745000Y-138930000D03*
%TO.P,U2,12*%
%TO.N,Net-(U2-Pad12)*%
X76745000Y-137660000D03*
%TO.P,U2,11*%
%TO.N,Net-(U2-Pad11)*%
X76745000Y-136390000D03*
%TO.P,U2,10*%
%TO.N,Net-(U2-Pad10)*%
X76745000Y-135120000D03*
%TO.P,U2,9*%
%TO.N,Net-(U2-Pad9)*%
X76745000Y-133850000D03*
%TO.P,U2,8*%
%TO.N,Net-(U2-Pad8)*%
X76745000Y-132580000D03*
%TO.P,U2,7*%
%TO.N,Net-(U2-Pad7)*%
X76745000Y-131310000D03*
%TO.P,U2,6*%
%TO.N,Net-(U2-Pad6)*%
X76745000Y-130040000D03*
%TO.P,U2,5*%
%TO.N,Net-(U2-Pad5)*%
X76745000Y-128770000D03*
%TO.P,U2,4*%
%TO.N,Net-(U2-Pad4)*%
X76745000Y-127500000D03*
%TO.P,U2,3*%
%TO.N,Net-(U2-Pad3)*%
X76745000Y-126230000D03*
%TO.P,U2,2*%
%TO.N,Net-(C2-Pad1)*%
X76745000Y-124960000D03*
%TO.P,U2,1*%
%TO.N,GND*%
X76745000Y-123690000D03*
D37*
%TO.P,U2,39*%
X84245000Y-131190000D03*
%TD*%
D38*
%TO.P,BT1,2*%
%TO.N,GND*%
X48500000Y-147180000D03*
D39*
%TO.P,BT1,1*%
%TO.N,Net-(BT1-Pad1)*%
X48500000Y-142100000D03*
%TD*%
%TA.AperFunction,SMDPad,CuDef*%
D19*
%TO.P,C1,2*%
%TO.N,GND*%
G36*
X125530142Y-150701174D02*
G01*
X125553803Y-150704684D01*
X125577007Y-150710496D01*
X125599529Y-150718554D01*
X125621153Y-150728782D01*
X125641670Y-150741079D01*
X125660883Y-150755329D01*
X125678607Y-150771393D01*
X125694671Y-150789117D01*
X125708921Y-150808330D01*
X125721218Y-150828847D01*
X125731446Y-150850471D01*
X125739504Y-150872993D01*
X125745316Y-150896197D01*
X125748826Y-150919858D01*
X125750000Y-150943750D01*
X125750000Y-151856250D01*
X125748826Y-151880142D01*
X125745316Y-151903803D01*
X125739504Y-151927007D01*
X125731446Y-151949529D01*
X125721218Y-151971153D01*
X125708921Y-151991670D01*
X125694671Y-152010883D01*
X125678607Y-152028607D01*
X125660883Y-152044671D01*
X125641670Y-152058921D01*
X125621153Y-152071218D01*
X125599529Y-152081446D01*
X125577007Y-152089504D01*
X125553803Y-152095316D01*
X125530142Y-152098826D01*
X125506250Y-152100000D01*
X125018750Y-152100000D01*
X124994858Y-152098826D01*
X124971197Y-152095316D01*
X124947993Y-152089504D01*
X124925471Y-152081446D01*
X124903847Y-152071218D01*
X124883330Y-152058921D01*
X124864117Y-152044671D01*
X124846393Y-152028607D01*
X124830329Y-152010883D01*
X124816079Y-151991670D01*
X124803782Y-151971153D01*
X124793554Y-151949529D01*
X124785496Y-151927007D01*
X124779684Y-151903803D01*
X124776174Y-151880142D01*
X124775000Y-151856250D01*
X124775000Y-150943750D01*
X124776174Y-150919858D01*
X124779684Y-150896197D01*
X124785496Y-150872993D01*
X124793554Y-150850471D01*
X124803782Y-150828847D01*
X124816079Y-150808330D01*
X124830329Y-150789117D01*
X124846393Y-150771393D01*
X124864117Y-150755329D01*
X124883330Y-150741079D01*
X124903847Y-150728782D01*
X124925471Y-150718554D01*
X124947993Y-150710496D01*
X124971197Y-150704684D01*
X124994858Y-150701174D01*
X125018750Y-150700000D01*
X125506250Y-150700000D01*
X125530142Y-150701174D01*
G37*
%TD.AperFunction*%
%TA.AperFunction,SMDPad,CuDef*%
%TO.P,C1,1*%
%TO.N,Net-(C1-Pad1)*%
G36*
X127405142Y-150701174D02*
G01*
X127428803Y-150704684D01*
X127452007Y-150710496D01*
X127474529Y-150718554D01*
X127496153Y-150728782D01*
X127516670Y-150741079D01*
X127535883Y-150755329D01*
X127553607Y-150771393D01*
X127569671Y-150789117D01*
X127583921Y-150808330D01*
X127596218Y-150828847D01*
X127606446Y-150850471D01*
X127614504Y-150872993D01*
X127620316Y-150896197D01*
X127623826Y-150919858D01*
X127625000Y-150943750D01*
X127625000Y-151856250D01*
X127623826Y-151880142D01*
X127620316Y-151903803D01*
X127614504Y-151927007D01*
X127606446Y-151949529D01*
X127596218Y-151971153D01*
X127583921Y-151991670D01*
X127569671Y-152010883D01*
X127553607Y-152028607D01*
X127535883Y-152044671D01*
X127516670Y-152058921D01*
X127496153Y-152071218D01*
X127474529Y-152081446D01*
X127452007Y-152089504D01*
X127428803Y-152095316D01*
X127405142Y-152098826D01*
X127381250Y-152100000D01*
X126893750Y-152100000D01*
X126869858Y-152098826D01*
X126846197Y-152095316D01*
X126822993Y-152089504D01*
X126800471Y-152081446D01*
X126778847Y-152071218D01*
X126758330Y-152058921D01*
X126739117Y-152044671D01*
X126721393Y-152028607D01*
X126705329Y-152010883D01*
X126691079Y-151991670D01*
X126678782Y-151971153D01*
X126668554Y-151949529D01*
X126660496Y-151927007D01*
X126654684Y-151903803D01*
X126651174Y-151880142D01*
X126650000Y-151856250D01*
X126650000Y-150943750D01*
X126651174Y-150919858D01*
X126654684Y-150896197D01*
X126660496Y-150872993D01*
X126668554Y-150850471D01*
X126678782Y-150828847D01*
X126691079Y-150808330D01*
X126705329Y-150789117D01*
X126721393Y-150771393D01*
X126739117Y-150755329D01*
X126758330Y-150741079D01*
X126778847Y-150728782D01*
X126800471Y-150718554D01*
X126822993Y-150710496D01*
X126846197Y-150704684D01*
X126869858Y-150701174D01*
X126893750Y-150700000D01*
X127381250Y-150700000D01*
X127405142Y-150701174D01*
G37*
%TD.AperFunction*%
%TD*%
%TA.AperFunction,SMDPad,CuDef*%
%TO.P,C2,2*%
%TO.N,GND*%
G36*
X125530142Y-146501174D02*
G01*
X125553803Y-146504684D01*
X125577007Y-146510496D01*
X125599529Y-146518554D01*
X125621153Y-146528782D01*
X125641670Y-146541079D01*
X125660883Y-146555329D01*
X125678607Y-146571393D01*
X125694671Y-146589117D01*
X125708921Y-146608330D01*
X125721218Y-146628847D01*
X125731446Y-146650471D01*
X125739504Y-146672993D01*
X125745316Y-146696197D01*
X125748826Y-146719858D01*
X125750000Y-146743750D01*
X125750000Y-147656250D01*
X125748826Y-147680142D01*
X125745316Y-147703803D01*
X125739504Y-147727007D01*
X125731446Y-147749529D01*
X125721218Y-147771153D01*
X125708921Y-147791670D01*
X125694671Y-147810883D01*
X125678607Y-147828607D01*
X125660883Y-147844671D01*
X125641670Y-147858921D01*
X125621153Y-147871218D01*
X125599529Y-147881446D01*
X125577007Y-147889504D01*
X125553803Y-147895316D01*
X125530142Y-147898826D01*
X125506250Y-147900000D01*
X125018750Y-147900000D01*
X124994858Y-147898826D01*
X124971197Y-147895316D01*
X124947993Y-147889504D01*
X124925471Y-147881446D01*
X124903847Y-147871218D01*
X124883330Y-147858921D01*
X124864117Y-147844671D01*
X124846393Y-147828607D01*
X124830329Y-147810883D01*
X124816079Y-147791670D01*
X124803782Y-147771153D01*
X124793554Y-147749529D01*
X124785496Y-147727007D01*
X124779684Y-147703803D01*
X124776174Y-147680142D01*
X124775000Y-147656250D01*
X124775000Y-146743750D01*
X124776174Y-146719858D01*
X124779684Y-146696197D01*
X124785496Y-146672993D01*
X124793554Y-146650471D01*
X124803782Y-146628847D01*
X124816079Y-146608330D01*
X124830329Y-146589117D01*
X124846393Y-146571393D01*
X124864117Y-146555329D01*
X124883330Y-146541079D01*
X124903847Y-146528782D01*
X124925471Y-146518554D01*
X124947993Y-146510496D01*
X124971197Y-146504684D01*
X124994858Y-146501174D01*
X125018750Y-146500000D01*
X125506250Y-146500000D01*
X125530142Y-146501174D01*
G37*
%TD.AperFunction*%
%TA.AperFunction,SMDPad,CuDef*%
%TO.P,C2,1*%
%TO.N,Net-(C2-Pad1)*%
G36*
X127405142Y-146501174D02*
G01*
X127428803Y-146504684D01*
X127452007Y-146510496D01*
X127474529Y-146518554D01*
X127496153Y-146528782D01*
X127516670Y-146541079D01*
X127535883Y-146555329D01*
X127553607Y-146571393D01*
X127569671Y-146589117D01*
X127583921Y-146608330D01*
X127596218Y-146628847D01*
X127606446Y-146650471D01*
X127614504Y-146672993D01*
X127620316Y-146696197D01*
X127623826Y-146719858D01*
X127625000Y-146743750D01*
X127625000Y-147656250D01*
X127623826Y-147680142D01*
X127620316Y-147703803D01*
X127614504Y-147727007D01*
X127606446Y-147749529D01*
X127596218Y-147771153D01*
X127583921Y-147791670D01*
X127569671Y-147810883D01*
X127553607Y-147828607D01*
X127535883Y-147844671D01*
X127516670Y-147858921D01*
X127496153Y-147871218D01*
X127474529Y-147881446D01*
X127452007Y-147889504D01*
X127428803Y-147895316D01*
X127405142Y-147898826D01*
X127381250Y-147900000D01*
X126893750Y-147900000D01*
X126869858Y-147898826D01*
X126846197Y-147895316D01*
X126822993Y-147889504D01*
X126800471Y-147881446D01*
X126778847Y-147871218D01*
X126758330Y-147858921D01*
X126739117Y-147844671D01*
X126721393Y-147828607D01*
X126705329Y-147810883D01*
X126691079Y-147791670D01*
X126678782Y-147771153D01*
X126668554Y-147749529D01*
X126660496Y-147727007D01*
X126654684Y-147703803D01*
X126651174Y-147680142D01*
X126650000Y-147656250D01*
X126650000Y-146743750D01*
X126651174Y-146719858D01*
X126654684Y-146696197D01*
X126660496Y-146672993D01*
X126668554Y-146650471D01*
X126678782Y-146628847D01*
X126691079Y-146608330D01*
X126705329Y-146589117D01*
X126721393Y-146571393D01*
X126739117Y-146555329D01*
X126758330Y-146541079D01*
X126778847Y-146528782D01*
X126800471Y-146518554D01*
X126822993Y-146510496D01*
X126846197Y-146504684D01*
X126869858Y-146501174D01*
X126893750Y-146500000D01*
X127381250Y-146500000D01*
X127405142Y-146501174D01*
G37*
%TD.AperFunction*%
%TD*%
D40*
%TO.P,J1,1*%
%TO.N,GND*%
X99500000Y-146900000D03*
D41*
%TO.P,J1,2*%
%TO.N,Net-(C1-Pad1)*%
X105300000Y-146900000D03*
D42*
%TO.P,J1,3*%
%TO.N,Net-(BT1-Pad1)*%
X102500000Y-142100000D03*
%TD*%
D43*
%TO.N,*%
X157550000Y-159000000D03*
X157000000Y-97000000D03*
X45000000Y-96500000D03*
D44*
X101000000Y-98530000D03*
D43*
X45000000Y-159000000D03*
X138200000Y-111500000D03*
X138200000Y-155500000D03*
X62125000Y-155550000D03*
X62125000Y-111510000D03*
%TD*%
D45*
%TO.N,Net-(D1-Pad2)*%
X134020000Y-114100000D02*
X134800000Y-114880000D01*
X129400000Y-114100000D02*
X134020000Y-114100000D01*
X117300000Y-104200000D02*
X121200000Y-104200000D01*
X129400000Y-112400000D02*
X129400000Y-114100000D01*
X121200000Y-104200000D02*
X129400000Y-112400000D01*
%TO.N,Net-(D2-Pad1)*%
X128730000Y-105900000D02*
X128730000Y-104500000D01*
X136050001Y-113220001D02*
X128730000Y-105900000D01*
X136050001Y-115480001D02*
X136050001Y-113220001D01*
X117517502Y-134012500D02*
X136050001Y-115480001D01*
X114400000Y-134012500D02*
X117517502Y-134012500D01*
%TO.N,GND*%
X78245000Y-123690000D02*
X79530000Y-124975000D01*
X76745000Y-123690000D02*
X78245000Y-123690000D01*
X84245000Y-128190000D02*
X81255000Y-125200000D01*
X81255000Y-125200000D02*
X79500000Y-125200000D01*
X84245000Y-131190000D02*
X84245000Y-128190000D01*
X79500000Y-125200000D02*
X79530000Y-141200000D01*
X79530000Y-124975000D02*
X79500000Y-125200000D01*
D46*
X149500000Y-104500000D02*
X150250000Y-105250000D01*
D45*
X151249999Y-104250001D02*
X150250000Y-105250000D01*
X155750001Y-104250001D02*
X151249999Y-104250001D01*
X156750000Y-105250000D02*
X155750001Y-104250001D01*
X132020000Y-105250000D02*
X131270000Y-104500000D01*
X110312500Y-103500000D02*
X110400000Y-103412500D01*
X87220000Y-103500000D02*
X110312500Y-103500000D01*
X118350000Y-103250000D02*
X119300000Y-103250000D01*
X117649992Y-102549992D02*
X118350000Y-103250000D01*
X111737508Y-102549992D02*
X117649992Y-102549992D01*
X110875000Y-103412500D02*
X111737508Y-102549992D01*
X110400000Y-103412500D02*
X110875000Y-103412500D01*
X129919999Y-103149999D02*
X130370001Y-103600001D01*
X120350001Y-103149999D02*
X129919999Y-103149999D01*
X130370001Y-103600001D02*
X131270000Y-104500000D01*
X120250000Y-103250000D02*
X120350001Y-103149999D01*
X119300000Y-103250000D02*
X120250000Y-103250000D01*
X79530000Y-144070000D02*
X79530000Y-141200000D01*
X71000000Y-152600000D02*
X79530000Y-144070000D01*
X57200000Y-147470000D02*
X56350001Y-148319999D01*
X55480001Y-148319999D02*
X55100000Y-148700000D01*
X56300000Y-152600000D02*
X71000000Y-152600000D01*
X55100000Y-151400000D02*
X56300000Y-152600000D01*
X56350001Y-148319999D02*
X55480001Y-148319999D01*
X55100000Y-148700000D02*
X55100000Y-151400000D01*
X125262500Y-151400000D02*
X125262500Y-147200000D01*
X125262500Y-144512500D02*
X124400000Y-143650000D01*
X125262500Y-147200000D02*
X125262500Y-144512500D01*
X79530000Y-142700000D02*
X79530000Y-141200000D01*
X56910000Y-147180000D02*
X57200000Y-147470000D01*
X48500000Y-147180000D02*
X56910000Y-147180000D01*
X99500000Y-144200000D02*
X99500000Y-146900000D01*
X100050000Y-143650000D02*
X99500000Y-144200000D01*
X124400000Y-143650000D02*
X100050000Y-143650000D01*
%TO.N,Net-(K1-Pad12)*%
X102500000Y-128800000D02*
X102500000Y-130600000D01*
X104500000Y-126800000D02*
X102500000Y-128800000D01*
X121780000Y-126800000D02*
X104500000Y-126800000D01*
%TO.N,Net-(K1-Pad7)*%
X115589998Y-114100000D02*
X120718534Y-114100000D01*
X100749999Y-128939999D02*
X115589998Y-114100000D01*
X100749999Y-132260001D02*
X100749999Y-128939999D01*
X100839999Y-132350001D02*
X100749999Y-132260001D01*
X120718534Y-114100000D02*
X121780000Y-114100000D01*
X105749999Y-132350001D02*
X100839999Y-132350001D01*
X107500000Y-130600000D02*
X105749999Y-132350001D01*
%TO.N,Net-(Q1-Pad1)*%
X111037500Y-105150000D02*
X118350000Y-105150000D01*
X110875000Y-104987500D02*
X111037500Y-105150000D01*
X110400000Y-104987500D02*
X110875000Y-104987500D01*
X118350000Y-105150000D02*
X119300000Y-105150000D01*
X110400000Y-105425000D02*
X110400000Y-104987500D01*
X110400000Y-116687500D02*
X110400000Y-105425000D01*
X98975000Y-128112500D02*
X110400000Y-116687500D01*
X98500000Y-128112500D02*
X98975000Y-128112500D01*
%TO.N,Net-(R1-Pad2)*%
X98500000Y-130125000D02*
X98500000Y-129687500D01*
X98500000Y-133135000D02*
X98500000Y-130125000D01*
X95245000Y-136390000D02*
X98500000Y-133135000D01*
X93745000Y-136390000D02*
X95245000Y-136390000D01*
%TO.N,Net-(R3-Pad2)*%
X156750000Y-109750000D02*
X155335787Y-109750000D01*
X155335787Y-109750000D02*
X150250000Y-109750000D01*
X150250000Y-109750000D02*
X150250000Y-111164213D01*
X95245000Y-140200000D02*
X93745000Y-140200000D01*
X117437500Y-140200000D02*
X95245000Y-140200000D01*
X126625000Y-131012500D02*
X117437500Y-140200000D01*
X127100000Y-131012500D02*
X126625000Y-131012500D01*
X144350000Y-109750000D02*
X150250000Y-109750000D01*
X142200000Y-111900000D02*
X144350000Y-109750000D01*
X142200000Y-122000000D02*
X142200000Y-111900000D01*
X133187500Y-131012500D02*
X142200000Y-122000000D01*
X127100000Y-131012500D02*
X133187500Y-131012500D01*
%TO.N,Net-(R4-Pad1)*%
X93745000Y-138930000D02*
X111495000Y-138930000D01*
X111495000Y-138930000D02*
X114400000Y-136025000D01*
X114400000Y-136025000D02*
X114400000Y-135587500D01*
%TO.N,Net-(U2-Pad9)*%
X58820000Y-133850000D02*
X76745000Y-133850000D01*
X57200000Y-132230000D02*
X58820000Y-133850000D01*
%TO.N,Net-(C2-Pad1)*%
X71085063Y-148119939D02*
X61480061Y-148119939D01*
X78195001Y-141010001D02*
X71085063Y-148119939D01*
X77735002Y-124960000D02*
X78195001Y-125419999D01*
X78195001Y-125419999D02*
X78195001Y-141010001D01*
X76745000Y-124960000D02*
X77735002Y-124960000D01*
X59590000Y-150010000D02*
X57200000Y-150010000D01*
X61480061Y-148119939D02*
X59590000Y-150010000D01*
X127137500Y-144087500D02*
X126700000Y-143650000D01*
X127137500Y-147200000D02*
X127137500Y-144087500D01*
X126700000Y-143650000D02*
X126700000Y-137350000D01*
X127100000Y-136950000D02*
X126700000Y-137350000D01*
X127100000Y-132587500D02*
X127100000Y-136950000D01*
X149250000Y-146500000D02*
X149400000Y-146650000D01*
X149200000Y-146500000D02*
X149250000Y-146500000D01*
X148000000Y-145300000D02*
X149200000Y-146500000D01*
X137050000Y-145300000D02*
X148000000Y-145300000D01*
X129100000Y-137350000D02*
X137050000Y-145300000D01*
X149400000Y-146650000D02*
X149400000Y-147900000D01*
X126700000Y-137350000D02*
X129100000Y-137350000D01*
%TO.N,Net-(C1-Pad1)*%
X105300000Y-149400000D02*
X105300000Y-146900000D01*
X109500000Y-153600000D02*
X105300000Y-149400000D01*
X126400000Y-153600000D02*
X109500000Y-153600000D01*
X127137500Y-152862500D02*
X126400000Y-153600000D01*
X127137500Y-151400000D02*
X127137500Y-152862500D01*
X127137500Y-151400000D02*
X129000000Y-149537500D01*
X129000000Y-149537500D02*
X129000000Y-143650000D01*
%TO.N,Net-(P2-Pad3)*%
X99500010Y-113410047D02*
X94489963Y-108400000D01*
X99500010Y-124514990D02*
X99500010Y-113410047D01*
X95245000Y-128770000D02*
X99500010Y-124514990D01*
X93745000Y-128770000D02*
X95245000Y-128770000D01*
X94489963Y-108400000D02*
X86900000Y-108400000D01*
X84680000Y-106180000D02*
X84680000Y-103500000D01*
X86900000Y-108400000D02*
X84680000Y-106180000D01*
%TO.N,Net-(P2-Pad2)*%
X95245000Y-127500000D02*
X98800000Y-123945000D01*
X93745000Y-127500000D02*
X95245000Y-127500000D01*
X98800000Y-123945000D02*
X98800000Y-113700000D01*
X98800000Y-113700000D02*
X94800000Y-109700000D01*
X94800000Y-109700000D02*
X84000000Y-109700000D01*
X82140000Y-107840000D02*
X82140000Y-103500000D01*
X84000000Y-109700000D02*
X82140000Y-107840000D01*
%TO.N,Net-(U2-Pad37)*%
X58049999Y-117839999D02*
X82439999Y-117839999D01*
X57200000Y-116990000D02*
X58049999Y-117839999D01*
X89560000Y-124960000D02*
X93745000Y-124960000D01*
X82439999Y-117839999D02*
X89560000Y-124960000D01*
%TO.N,Net-(U2-Pad36)*%
X57200000Y-119530000D02*
X82730000Y-119530000D01*
X89430000Y-126230000D02*
X93745000Y-126230000D01*
X82730000Y-119530000D02*
X89430000Y-126230000D01*
D46*
%TO.N,Net-(U2-Pad31)*%
X93625000Y-132700000D02*
X93745000Y-132580000D01*
D45*
X88880000Y-132580000D02*
X93745000Y-132580000D01*
X88600010Y-132300010D02*
X88880000Y-132580000D01*
X88600010Y-127310047D02*
X88600010Y-132300010D01*
X82489953Y-121199990D02*
X88600010Y-127310047D01*
X58070010Y-121199990D02*
X82489953Y-121199990D01*
X57200000Y-122070000D02*
X58070010Y-121199990D01*
D46*
%TO.N,Net-(U2-Pad30)*%
X93595008Y-133700008D02*
X93745000Y-133850000D01*
D45*
X57200000Y-124610000D02*
X68790000Y-124610000D01*
X68790000Y-124610000D02*
X71500000Y-121900000D01*
X71500000Y-121900000D02*
X82200000Y-121900000D01*
X82200000Y-121900000D02*
X87900000Y-127600000D01*
X87900000Y-127600000D02*
X87900000Y-132800000D01*
X88950000Y-133850000D02*
X93745000Y-133850000D01*
X87900000Y-132800000D02*
X88950000Y-133850000D01*
%TO.N,Net-(U2-Pad27)*%
X150500000Y-151200000D02*
X151940000Y-149760000D01*
X135800000Y-151200000D02*
X150500000Y-151200000D01*
X92100000Y-147600000D02*
X99800000Y-155300000D01*
X151940000Y-149760000D02*
X151940000Y-147900000D01*
X131700000Y-155300000D02*
X135800000Y-151200000D01*
X92100000Y-137900000D02*
X92100000Y-147600000D01*
X99800000Y-155300000D02*
X131700000Y-155300000D01*
X92340000Y-137660000D02*
X92100000Y-137900000D01*
X93745000Y-137660000D02*
X92340000Y-137660000D01*
%TO.N,Net-(U2-Pad14)*%
X61930000Y-140200000D02*
X76745000Y-140200000D01*
X57200000Y-144930000D02*
X61930000Y-140200000D01*
%TO.N,Net-(U2-Pad13)*%
X60660000Y-138930000D02*
X76745000Y-138930000D01*
X57200000Y-142390000D02*
X60660000Y-138930000D01*
%TO.N,Net-(U2-Pad12)*%
X75245000Y-137660000D02*
X76745000Y-137660000D01*
X60592081Y-137660000D02*
X75245000Y-137660000D01*
X58402081Y-139850000D02*
X60592081Y-137660000D01*
X57200000Y-139850000D02*
X58402081Y-139850000D01*
%TO.N,Net-(U2-Pad11)*%
X58120000Y-136390000D02*
X76745000Y-136390000D01*
X57200000Y-137310000D02*
X58120000Y-136390000D01*
%TO.N,Net-(U2-Pad10)*%
X76395000Y-134770000D02*
X76745000Y-135120000D01*
X57200000Y-134770000D02*
X76395000Y-134770000D01*
%TO.N,Net-(U2-Pad8)*%
X75245000Y-132580000D02*
X76745000Y-132580000D01*
X63832081Y-132580000D02*
X75245000Y-132580000D01*
X58402081Y-127150000D02*
X63832081Y-132580000D01*
X57200000Y-127150000D02*
X58402081Y-127150000D01*
%TD*%
D47*
%TO.N,GND*%
G36*
X155515021Y-94221799D02*
G01*
X155001554Y-94564886D01*
X154564886Y-95001554D01*
X154221799Y-95515021D01*
X153985476Y-96085554D01*
X153865000Y-96691229D01*
X153865000Y-97308771D01*
X153985476Y-97914446D01*
X154221799Y-98484979D01*
X154564886Y-98998446D01*
X155001554Y-99435114D01*
X155515021Y-99778201D01*
X156085554Y-100014524D01*
X156691229Y-100135000D01*
X157308771Y-100135000D01*
X157914446Y-100014524D01*
X158484979Y-99778201D01*
X158998446Y-99435114D01*
X159435114Y-98998446D01*
X159778201Y-98484979D01*
X159790000Y-98456493D01*
X159790001Y-112790000D01*
X143534877Y-112790000D01*
X143500000Y-112786565D01*
X143465123Y-112790000D01*
X143360816Y-112800273D01*
X143226980Y-112840872D01*
X143103637Y-112906800D01*
X143085000Y-112922095D01*
X143085000Y-112266578D01*
X144716579Y-110635000D01*
X148874941Y-110635000D01*
X148980013Y-110792252D01*
X149207748Y-111019987D01*
X149365001Y-111125060D01*
X149365001Y-111207690D01*
X149377806Y-111337703D01*
X149428412Y-111504526D01*
X149510590Y-111658272D01*
X149621184Y-111793030D01*
X149755942Y-111903624D01*
X149909688Y-111985802D01*
X150076511Y-112036408D01*
X150250000Y-112053495D01*
X150423490Y-112036408D01*
X150590313Y-111985802D01*
X150744059Y-111903624D01*
X150878817Y-111793030D01*
X150989411Y-111658272D01*
X151071589Y-111504526D01*
X151122195Y-111337703D01*
X151135000Y-111207690D01*
X151135000Y-111125059D01*
X151292252Y-111019987D01*
X151519987Y-110792252D01*
X151625059Y-110635000D01*
X155374941Y-110635000D01*
X155480013Y-110792252D01*
X155707748Y-111019987D01*
X155975537Y-111198918D01*
X156273088Y-111322168D01*
X156588967Y-111385000D01*
X156911033Y-111385000D01*
X157226912Y-111322168D01*
X157524463Y-111198918D01*
X157792252Y-111019987D01*
X158019987Y-110792252D01*
X158198918Y-110524463D01*
X158322168Y-110226912D01*
X158385000Y-109911033D01*
X158385000Y-109588967D01*
X158322168Y-109273088D01*
X158198918Y-108975537D01*
X158019987Y-108707748D01*
X157792252Y-108480013D01*
X157524463Y-108301082D01*
X157226912Y-108177832D01*
X156911033Y-108115000D01*
X156588967Y-108115000D01*
X156273088Y-108177832D01*
X155975537Y-108301082D01*
X155707748Y-108480013D01*
X155480013Y-108707748D01*
X155374941Y-108865000D01*
X151625059Y-108865000D01*
X151519987Y-108707748D01*
X151292252Y-108480013D01*
X151024463Y-108301082D01*
X150726912Y-108177832D01*
X150411033Y-108115000D01*
X150088967Y-108115000D01*
X149773088Y-108177832D01*
X149475537Y-108301082D01*
X149207748Y-108480013D01*
X148980013Y-108707748D01*
X148874941Y-108865000D01*
X144393465Y-108865000D01*
X144349999Y-108860719D01*
X144306533Y-108865000D01*
X144306523Y-108865000D01*
X144176510Y-108877805D01*
X144009687Y-108928411D01*
X143855941Y-109010589D01*
X143855939Y-109010590D01*
X143855940Y-109010590D01*
X143754953Y-109093468D01*
X143754951Y-109093470D01*
X143721183Y-109121183D01*
X143693470Y-109154951D01*
X141604951Y-111243471D01*
X141571184Y-111271183D01*
X141543471Y-111304951D01*
X141543468Y-111304954D01*
X141460590Y-111405941D01*
X141378412Y-111559687D01*
X141335000Y-111702792D01*
X141335000Y-111191229D01*
X141214524Y-110585554D01*
X140978201Y-110015021D01*
X140635114Y-109501554D01*
X140198446Y-109064886D01*
X139684979Y-108721799D01*
X139114446Y-108485476D01*
X138508771Y-108365000D01*
X137891229Y-108365000D01*
X137285554Y-108485476D01*
X136715021Y-108721799D01*
X136201554Y-109064886D01*
X135764886Y-109501554D01*
X135421799Y-110015021D01*
X135185476Y-110585554D01*
X135099477Y-111017899D01*
X130466991Y-106385413D01*
X149294192Y-106385413D01*
X149389956Y-106649814D01*
X149679571Y-106790704D01*
X149991108Y-106872384D01*
X150312595Y-106891718D01*
X150631675Y-106847961D01*
X150936088Y-106742795D01*
X151110044Y-106649814D01*
X151205808Y-106385413D01*
X155794192Y-106385413D01*
X155889956Y-106649814D01*
X156179571Y-106790704D01*
X156491108Y-106872384D01*
X156812595Y-106891718D01*
X157131675Y-106847961D01*
X157436088Y-106742795D01*
X157610044Y-106649814D01*
X157705808Y-106385413D01*
X156750000Y-105429605D01*
X155794192Y-106385413D01*
X151205808Y-106385413D01*
X150250000Y-105429605D01*
X149294192Y-106385413D01*
X130466991Y-106385413D01*
X129999665Y-105918087D01*
X130081185Y-105851185D01*
X130160537Y-105754494D01*
X130219502Y-105644180D01*
X130222813Y-105633265D01*
X130269578Y-105680030D01*
X130385526Y-105564082D01*
X130469208Y-105818261D01*
X130741775Y-105949158D01*
X131034642Y-106024365D01*
X131336553Y-106040991D01*
X131635907Y-105998397D01*
X131921199Y-105898222D01*
X132070792Y-105818261D01*
X132154475Y-105564080D01*
X131270000Y-104679605D01*
X131255858Y-104693748D01*
X131076253Y-104514143D01*
X131090395Y-104500000D01*
X131449605Y-104500000D01*
X132334080Y-105384475D01*
X132552410Y-105312595D01*
X148608282Y-105312595D01*
X148652039Y-105631675D01*
X148757205Y-105936088D01*
X148850186Y-106110044D01*
X149114587Y-106205808D01*
X150070395Y-105250000D01*
X150429605Y-105250000D01*
X151385413Y-106205808D01*
X151649814Y-106110044D01*
X151790704Y-105820429D01*
X151872384Y-105508892D01*
X151884189Y-105312595D01*
X155108282Y-105312595D01*
X155152039Y-105631675D01*
X155257205Y-105936088D01*
X155350186Y-106110044D01*
X155614587Y-106205808D01*
X156570395Y-105250000D01*
X156929605Y-105250000D01*
X157885413Y-106205808D01*
X158149814Y-106110044D01*
X158290704Y-105820429D01*
X158372384Y-105508892D01*
X158391718Y-105187405D01*
X158347961Y-104868325D01*
X158242795Y-104563912D01*
X158149814Y-104389956D01*
X157885413Y-104294192D01*
X156929605Y-105250000D01*
X156570395Y-105250000D01*
X155614587Y-104294192D01*
X155350186Y-104389956D01*
X155209296Y-104679571D01*
X155127616Y-104991108D01*
X155108282Y-105312595D01*
X151884189Y-105312595D01*
X151891718Y-105187405D01*
X151847961Y-104868325D01*
X151742795Y-104563912D01*
X151649814Y-104389956D01*
X151385413Y-104294192D01*
X150429605Y-105250000D01*
X150070395Y-105250000D01*
X149114587Y-104294192D01*
X148850186Y-104389956D01*
X148709296Y-104679571D01*
X148627616Y-104991108D01*
X148608282Y-105312595D01*
X132552410Y-105312595D01*
X132588261Y-105300792D01*
X132719158Y-105028225D01*
X132794365Y-104735358D01*
X132810991Y-104433447D01*
X132768397Y-104134093D01*
X132761548Y-104114587D01*
X149294192Y-104114587D01*
X150250000Y-105070395D01*
X151205808Y-104114587D01*
X155794192Y-104114587D01*
X156750000Y-105070395D01*
X157705808Y-104114587D01*
X157610044Y-103850186D01*
X157320429Y-103709296D01*
X157008892Y-103627616D01*
X156687405Y-103608282D01*
X156368325Y-103652039D01*
X156063912Y-103757205D01*
X155889956Y-103850186D01*
X155794192Y-104114587D01*
X151205808Y-104114587D01*
X151110044Y-103850186D01*
X150820429Y-103709296D01*
X150508892Y-103627616D01*
X150187405Y-103608282D01*
X149868325Y-103652039D01*
X149563912Y-103757205D01*
X149389956Y-103850186D01*
X149294192Y-104114587D01*
X132761548Y-104114587D01*
X132668222Y-103848801D01*
X132588261Y-103699208D01*
X132334080Y-103615525D01*
X131449605Y-104500000D01*
X131090395Y-104500000D01*
X131076253Y-104485858D01*
X131255858Y-104306253D01*
X131270000Y-104320395D01*
X132154475Y-103435920D01*
X132070792Y-103181739D01*
X131798225Y-103050842D01*
X131505358Y-102975635D01*
X131203447Y-102959009D01*
X130904093Y-103001603D01*
X130618801Y-103101778D01*
X130469208Y-103181739D01*
X130385526Y-103435918D01*
X130269578Y-103319970D01*
X130222813Y-103366735D01*
X130219502Y-103355820D01*
X130160537Y-103245506D01*
X130081185Y-103148815D01*
X129984494Y-103069463D01*
X129874180Y-103010498D01*
X129754482Y-102974188D01*
X129630000Y-102961928D01*
X127830000Y-102961928D01*
X127705518Y-102974188D01*
X127585820Y-103010498D01*
X127475506Y-103069463D01*
X127378815Y-103148815D01*
X127299463Y-103245506D01*
X127240498Y-103355820D01*
X127204188Y-103475518D01*
X127191928Y-103600000D01*
X127191928Y-105400000D01*
X127204188Y-105524482D01*
X127240498Y-105644180D01*
X127299463Y-105754494D01*
X127378815Y-105851185D01*
X127475506Y-105930537D01*
X127585820Y-105989502D01*
X127705518Y-106025812D01*
X127830000Y-106038072D01*
X127854317Y-106038072D01*
X127857805Y-106073489D01*
X127908411Y-106240312D01*
X127990589Y-106394058D01*
X128101183Y-106528817D01*
X128134956Y-106556534D01*
X135043804Y-113465383D01*
X134941335Y-113445000D01*
X134658665Y-113445000D01*
X134625059Y-113451685D01*
X134514059Y-113360589D01*
X134360313Y-113278411D01*
X134193490Y-113227805D01*
X134063477Y-113215000D01*
X134063469Y-113215000D01*
X134020000Y-113210719D01*
X133976531Y-113215000D01*
X130474491Y-113215000D01*
X130285000Y-113025509D01*
X130285000Y-112443465D01*
X130289281Y-112399999D01*
X130285000Y-112356533D01*
X130285000Y-112356523D01*
X130272195Y-112226510D01*
X130221589Y-112059687D01*
X130139411Y-111905941D01*
X130028817Y-111771183D01*
X129995051Y-111743472D01*
X121856534Y-103604956D01*
X121828817Y-103571183D01*
X121694059Y-103460589D01*
X121540313Y-103378411D01*
X121373490Y-103327805D01*
X121243477Y-103315000D01*
X121243469Y-103315000D01*
X121200000Y-103310719D01*
X121156531Y-103315000D01*
X118159981Y-103315000D01*
X118104494Y-103269463D01*
X117994180Y-103210498D01*
X117874482Y-103174188D01*
X117750000Y-103161928D01*
X116850000Y-103161928D01*
X116725518Y-103174188D01*
X116605820Y-103210498D01*
X116495506Y-103269463D01*
X116398815Y-103348815D01*
X116319463Y-103445506D01*
X116260498Y-103555820D01*
X116224188Y-103675518D01*
X116211928Y-103800000D01*
X116211928Y-104265000D01*
X111389665Y-104265000D01*
X111369478Y-104248433D01*
X111405537Y-104204494D01*
X111464502Y-104094180D01*
X111500812Y-103974482D01*
X111513072Y-103850000D01*
X111510000Y-103698250D01*
X111351250Y-103539500D01*
X110527000Y-103539500D01*
X110527000Y-103559500D01*
X110273000Y-103559500D01*
X110273000Y-103539500D01*
X109448750Y-103539500D01*
X109290000Y-103698250D01*
X109286928Y-103850000D01*
X109299188Y-103974482D01*
X109335498Y-104094180D01*
X109394463Y-104204494D01*
X109449100Y-104271070D01*
X109431329Y-104292725D01*
X109352150Y-104440858D01*
X109303392Y-104601592D01*
X109286928Y-104768750D01*
X109286928Y-105206250D01*
X109303392Y-105373408D01*
X109352150Y-105534142D01*
X109431329Y-105682275D01*
X109515001Y-105784230D01*
X109515000Y-116320921D01*
X98795161Y-127040761D01*
X98756250Y-127036928D01*
X98243750Y-127036928D01*
X98228110Y-127038468D01*
X100095060Y-125171518D01*
X100128827Y-125143807D01*
X100181450Y-125079687D01*
X100239421Y-125009049D01*
X100270816Y-124950313D01*
X100321599Y-124855303D01*
X100372205Y-124688480D01*
X100385010Y-124558467D01*
X100385010Y-124558459D01*
X100389291Y-124514990D01*
X100385010Y-124471521D01*
X100385010Y-113453512D01*
X100389291Y-113410046D01*
X100385010Y-113366580D01*
X100385010Y-113366570D01*
X100372205Y-113236557D01*
X100321599Y-113069734D01*
X100239421Y-112915988D01*
X100208582Y-112878411D01*
X100156542Y-112815000D01*
X100156540Y-112814998D01*
X100128827Y-112781230D01*
X100095059Y-112753517D01*
X95146497Y-107804956D01*
X95118780Y-107771183D01*
X94984022Y-107660589D01*
X94830276Y-107578411D01*
X94663453Y-107527805D01*
X94533440Y-107515000D01*
X94533432Y-107515000D01*
X94489963Y-107510719D01*
X94446494Y-107515000D01*
X87266579Y-107515000D01*
X85565000Y-105813422D01*
X85565000Y-104694656D01*
X85626632Y-104653475D01*
X85833475Y-104446632D01*
X85955195Y-104264466D01*
X86024822Y-104381355D01*
X86219731Y-104597588D01*
X86453080Y-104771641D01*
X86715901Y-104896825D01*
X86863110Y-104941476D01*
X87093000Y-104820155D01*
X87093000Y-103627000D01*
X87347000Y-103627000D01*
X87347000Y-104820155D01*
X87576890Y-104941476D01*
X87724099Y-104896825D01*
X87986920Y-104771641D01*
X88220269Y-104597588D01*
X88415178Y-104381355D01*
X88564157Y-104131252D01*
X88661481Y-103856891D01*
X88540814Y-103627000D01*
X87347000Y-103627000D01*
X87093000Y-103627000D01*
X87073000Y-103627000D01*
X87073000Y-103373000D01*
X87093000Y-103373000D01*
X87093000Y-102179845D01*
X87347000Y-102179845D01*
X87347000Y-103373000D01*
X88540814Y-103373000D01*
X88661481Y-103143109D01*
X88601848Y-102975000D01*
X109286928Y-102975000D01*
X109290000Y-103126750D01*
X109448750Y-103285500D01*
X110273000Y-103285500D01*
X110273000Y-102498750D01*
X110527000Y-102498750D01*
X110527000Y-103285500D01*
X111351250Y-103285500D01*
X111510000Y-103126750D01*
X111513072Y-102975000D01*
X111500812Y-102850518D01*
X111500655Y-102850000D01*
X118211928Y-102850000D01*
X118215000Y-102964250D01*
X118373750Y-103123000D01*
X119173000Y-103123000D01*
X119173000Y-102373750D01*
X119427000Y-102373750D01*
X119427000Y-103123000D01*
X120226250Y-103123000D01*
X120385000Y-102964250D01*
X120388072Y-102850000D01*
X120375812Y-102725518D01*
X120339502Y-102605820D01*
X120280537Y-102495506D01*
X120201185Y-102398815D01*
X120104494Y-102319463D01*
X119994180Y-102260498D01*
X119874482Y-102224188D01*
X119750000Y-102211928D01*
X119585750Y-102215000D01*
X119427000Y-102373750D01*
X119173000Y-102373750D01*
X119014250Y-102215000D01*
X118850000Y-102211928D01*
X118725518Y-102224188D01*
X118605820Y-102260498D01*
X118495506Y-102319463D01*
X118398815Y-102398815D01*
X118319463Y-102495506D01*
X118260498Y-102605820D01*
X118224188Y-102725518D01*
X118211928Y-102850000D01*
X111500655Y-102850000D01*
X111464502Y-102730820D01*
X111405537Y-102620506D01*
X111326185Y-102523815D01*
X111229494Y-102444463D01*
X111119180Y-102385498D01*
X110999482Y-102349188D01*
X110875000Y-102336928D01*
X110685750Y-102340000D01*
X110527000Y-102498750D01*
X110273000Y-102498750D01*
X110114250Y-102340000D01*
X109925000Y-102336928D01*
X109800518Y-102349188D01*
X109680820Y-102385498D01*
X109570506Y-102444463D01*
X109473815Y-102523815D01*
X109394463Y-102620506D01*
X109335498Y-102730820D01*
X109299188Y-102850518D01*
X109286928Y-102975000D01*
X88601848Y-102975000D01*
X88564157Y-102868748D01*
X88415178Y-102618645D01*
X88220269Y-102402412D01*
X87986920Y-102228359D01*
X87724099Y-102103175D01*
X87576890Y-102058524D01*
X87347000Y-102179845D01*
X87093000Y-102179845D01*
X86863110Y-102058524D01*
X86715901Y-102103175D01*
X86453080Y-102228359D01*
X86219731Y-102402412D01*
X86024822Y-102618645D01*
X85955195Y-102735534D01*
X85833475Y-102553368D01*
X85626632Y-102346525D01*
X85383411Y-102184010D01*
X85113158Y-102072068D01*
X84826260Y-102015000D01*
X84533740Y-102015000D01*
X84246842Y-102072068D01*
X83976589Y-102184010D01*
X83733368Y-102346525D01*
X83526525Y-102553368D01*
X83410000Y-102727760D01*
X83293475Y-102553368D01*
X83086632Y-102346525D01*
X82843411Y-102184010D01*
X82573158Y-102072068D01*
X82286260Y-102015000D01*
X81993740Y-102015000D01*
X81706842Y-102072068D01*
X81436589Y-102184010D01*
X81193368Y-102346525D01*
X81061513Y-102478380D01*
X81039502Y-102405820D01*
X80980537Y-102295506D01*
X80901185Y-102198815D01*
X80804494Y-102119463D01*
X80694180Y-102060498D01*
X80574482Y-102024188D01*
X80450000Y-102011928D01*
X78750000Y-102011928D01*
X78625518Y-102024188D01*
X78505820Y-102060498D01*
X78395506Y-102119463D01*
X78298815Y-102198815D01*
X78219463Y-102295506D01*
X78160498Y-102405820D01*
X78124188Y-102525518D01*
X78111928Y-102650000D01*
X78111928Y-104350000D01*
X78124188Y-104474482D01*
X78160498Y-104594180D01*
X78219463Y-104704494D01*
X78298815Y-104801185D01*
X78395506Y-104880537D01*
X78505820Y-104939502D01*
X78625518Y-104975812D01*
X78750000Y-104988072D01*
X80450000Y-104988072D01*
X80574482Y-104975812D01*
X80694180Y-104939502D01*
X80804494Y-104880537D01*
X80901185Y-104801185D01*
X80980537Y-104704494D01*
X81039502Y-104594180D01*
X81061513Y-104521620D01*
X81193368Y-104653475D01*
X81255001Y-104694657D01*
X81255000Y-107796531D01*
X81250719Y-107840000D01*
X81255000Y-107883469D01*
X81255000Y-107883476D01*
X81267805Y-108013489D01*
X81318411Y-108180312D01*
X81400589Y-108334058D01*
X81511183Y-108468817D01*
X81544956Y-108496534D01*
X83343470Y-110295049D01*
X83371183Y-110328817D01*
X83404951Y-110356530D01*
X83404953Y-110356532D01*
X83476452Y-110415210D01*
X83505941Y-110439411D01*
X83659687Y-110521589D01*
X83826510Y-110572195D01*
X83956523Y-110585000D01*
X83956533Y-110585000D01*
X83999999Y-110589281D01*
X84043465Y-110585000D01*
X94433422Y-110585000D01*
X97915001Y-114066580D01*
X97915000Y-123578421D01*
X95383072Y-126110350D01*
X95383072Y-125780000D01*
X95370812Y-125655518D01*
X95352454Y-125595000D01*
X95370812Y-125534482D01*
X95383072Y-125410000D01*
X95383072Y-124510000D01*
X95370812Y-124385518D01*
X95352454Y-124325000D01*
X95370812Y-124264482D01*
X95383072Y-124140000D01*
X95380000Y-123975750D01*
X95221250Y-123817000D01*
X93872000Y-123817000D01*
X93872000Y-123837000D01*
X93618000Y-123837000D01*
X93618000Y-123817000D01*
X92268750Y-123817000D01*
X92110000Y-123975750D01*
X92108144Y-124075000D01*
X89926579Y-124075000D01*
X89091579Y-123240000D01*
X92106928Y-123240000D01*
X92110000Y-123404250D01*
X92268750Y-123563000D01*
X93618000Y-123563000D01*
X93618000Y-122763750D01*
X93872000Y-122763750D01*
X93872000Y-123563000D01*
X95221250Y-123563000D01*
X95380000Y-123404250D01*
X95383072Y-123240000D01*
X95370812Y-123115518D01*
X95334502Y-122995820D01*
X95275537Y-122885506D01*
X95196185Y-122788815D01*
X95099494Y-122709463D01*
X94989180Y-122650498D01*
X94869482Y-122614188D01*
X94745000Y-122601928D01*
X94030750Y-122605000D01*
X93872000Y-122763750D01*
X93618000Y-122763750D01*
X93459250Y-122605000D01*
X92745000Y-122601928D01*
X92620518Y-122614188D01*
X92500820Y-122650498D01*
X92390506Y-122709463D01*
X92293815Y-122788815D01*
X92214463Y-122885506D01*
X92155498Y-122995820D01*
X92119188Y-123115518D01*
X92106928Y-123240000D01*
X89091579Y-123240000D01*
X83096533Y-117244955D01*
X83068816Y-117211182D01*
X82934058Y-117100588D01*
X82780312Y-117018410D01*
X82613489Y-116967804D01*
X82483476Y-116954999D01*
X82483468Y-116954999D01*
X82439999Y-116950718D01*
X82396530Y-116954999D01*
X58685000Y-116954999D01*
X58685000Y-116843740D01*
X58627932Y-116556842D01*
X58515990Y-116286589D01*
X58353475Y-116043368D01*
X58146632Y-115836525D01*
X57903411Y-115674010D01*
X57633158Y-115562068D01*
X57346260Y-115505000D01*
X57053740Y-115505000D01*
X56766842Y-115562068D01*
X56496589Y-115674010D01*
X56253368Y-115836525D01*
X56046525Y-116043368D01*
X55884010Y-116286589D01*
X55772068Y-116556842D01*
X55715000Y-116843740D01*
X55715000Y-117136260D01*
X55772068Y-117423158D01*
X55884010Y-117693411D01*
X56046525Y-117936632D01*
X56253368Y-118143475D01*
X56427760Y-118260000D01*
X56253368Y-118376525D01*
X56046525Y-118583368D01*
X55884010Y-118826589D01*
X55772068Y-119096842D01*
X55715000Y-119383740D01*
X55715000Y-119676260D01*
X55772068Y-119963158D01*
X55884010Y-120233411D01*
X56046525Y-120476632D01*
X56253368Y-120683475D01*
X56427760Y-120800000D01*
X56253368Y-120916525D01*
X56046525Y-121123368D01*
X55884010Y-121366589D01*
X55772068Y-121636842D01*
X55715000Y-121923740D01*
X55715000Y-122216260D01*
X55772068Y-122503158D01*
X55884010Y-122773411D01*
X56046525Y-123016632D01*
X56253368Y-123223475D01*
X56427760Y-123340000D01*
X56253368Y-123456525D01*
X56046525Y-123663368D01*
X55884010Y-123906589D01*
X55772068Y-124176842D01*
X55715000Y-124463740D01*
X55715000Y-124756260D01*
X55772068Y-125043158D01*
X55884010Y-125313411D01*
X56046525Y-125556632D01*
X56253368Y-125763475D01*
X56427760Y-125880000D01*
X56253368Y-125996525D01*
X56046525Y-126203368D01*
X55884010Y-126446589D01*
X55772068Y-126716842D01*
X55715000Y-127003740D01*
X55715000Y-127296260D01*
X55772068Y-127583158D01*
X55884010Y-127853411D01*
X56046525Y-128096632D01*
X56253368Y-128303475D01*
X56427760Y-128420000D01*
X56253368Y-128536525D01*
X56046525Y-128743368D01*
X55884010Y-128986589D01*
X55772068Y-129256842D01*
X55715000Y-129543740D01*
X55715000Y-129836260D01*
X55772068Y-130123158D01*
X55884010Y-130393411D01*
X56046525Y-130636632D01*
X56253368Y-130843475D01*
X56427760Y-130960000D01*
X56253368Y-131076525D01*
X56046525Y-131283368D01*
X55884010Y-131526589D01*
X55772068Y-131796842D01*
X55715000Y-132083740D01*
X55715000Y-132376260D01*
X55772068Y-132663158D01*
X55884010Y-132933411D01*
X56046525Y-133176632D01*
X56253368Y-133383475D01*
X56427760Y-133500000D01*
X56253368Y-133616525D01*
X56046525Y-133823368D01*
X55884010Y-134066589D01*
X55772068Y-134336842D01*
X55715000Y-134623740D01*
X55715000Y-134916260D01*
X55772068Y-135203158D01*
X55884010Y-135473411D01*
X56046525Y-135716632D01*
X56253368Y-135923475D01*
X56427760Y-136040000D01*
X56253368Y-136156525D01*
X56046525Y-136363368D01*
X55884010Y-136606589D01*
X55772068Y-136876842D01*
X55715000Y-137163740D01*
X55715000Y-137456260D01*
X55772068Y-137743158D01*
X55884010Y-138013411D01*
X56046525Y-138256632D01*
X56253368Y-138463475D01*
X56427760Y-138580000D01*
X56253368Y-138696525D01*
X56046525Y-138903368D01*
X55884010Y-139146589D01*
X55772068Y-139416842D01*
X55715000Y-139703740D01*
X55715000Y-139996260D01*
X55772068Y-140283158D01*
X55884010Y-140553411D01*
X56046525Y-140796632D01*
X56253368Y-141003475D01*
X56427760Y-141120000D01*
X56253368Y-141236525D01*
X56046525Y-141443368D01*
X55884010Y-141686589D01*
X55772068Y-141956842D01*
X55715000Y-142243740D01*
X55715000Y-142536260D01*
X55772068Y-142823158D01*
X55884010Y-143093411D01*
X56046525Y-143336632D01*
X56253368Y-143543475D01*
X56427760Y-143660000D01*
X56253368Y-143776525D01*
X56046525Y-143983368D01*
X55884010Y-144226589D01*
X55772068Y-144496842D01*
X55715000Y-144783740D01*
X55715000Y-145076260D01*
X55772068Y-145363158D01*
X55884010Y-145633411D01*
X56046525Y-145876632D01*
X56253368Y-146083475D01*
X56426729Y-146199311D01*
X56351208Y-146441603D01*
X57200000Y-147290395D01*
X58048792Y-146441603D01*
X57973271Y-146199311D01*
X58146632Y-146083475D01*
X58353475Y-145876632D01*
X58515990Y-145633411D01*
X58627932Y-145363158D01*
X58685000Y-145076260D01*
X58685000Y-144783740D01*
X58670539Y-144711039D01*
X62296579Y-141085000D01*
X75280532Y-141085000D01*
X75293815Y-141101185D01*
X75390506Y-141180537D01*
X75500820Y-141239502D01*
X75620518Y-141275812D01*
X75745000Y-141288072D01*
X76665351Y-141288072D01*
X70718485Y-147234939D01*
X61523530Y-147234939D01*
X61480061Y-147230658D01*
X61436592Y-147234939D01*
X61436584Y-147234939D01*
X61306571Y-147247744D01*
X61139748Y-147298350D01*
X61025147Y-147359605D01*
X60986002Y-147380528D01*
X60885014Y-147463407D01*
X60885012Y-147463409D01*
X60851244Y-147491122D01*
X60823531Y-147524890D01*
X59223422Y-149125000D01*
X58684625Y-149125000D01*
X58675812Y-149035518D01*
X58639502Y-148915820D01*
X58580537Y-148805506D01*
X58501185Y-148708815D01*
X58404494Y-148629463D01*
X58294180Y-148570498D01*
X58174482Y-148534188D01*
X58050000Y-148521928D01*
X58041458Y-148521928D01*
X58048792Y-148498397D01*
X57200000Y-147649605D01*
X56351208Y-148498397D01*
X56358542Y-148521928D01*
X56350000Y-148521928D01*
X56225518Y-148534188D01*
X56105820Y-148570498D01*
X55995506Y-148629463D01*
X55898815Y-148708815D01*
X55819463Y-148805506D01*
X55760498Y-148915820D01*
X55724188Y-149035518D01*
X55711928Y-149160000D01*
X55711928Y-150860000D01*
X55724188Y-150984482D01*
X55760498Y-151104180D01*
X55819463Y-151214494D01*
X55898815Y-151311185D01*
X55995506Y-151390537D01*
X56105820Y-151449502D01*
X56225518Y-151485812D01*
X56350000Y-151498072D01*
X58050000Y-151498072D01*
X58174482Y-151485812D01*
X58294180Y-151449502D01*
X58404494Y-151390537D01*
X58501185Y-151311185D01*
X58580537Y-151214494D01*
X58639502Y-151104180D01*
X58675812Y-150984482D01*
X58684625Y-150895000D01*
X59546531Y-150895000D01*
X59590000Y-150899281D01*
X59633469Y-150895000D01*
X59633477Y-150895000D01*
X59763490Y-150882195D01*
X59930313Y-150831589D01*
X60084059Y-150749411D01*
X60218817Y-150638817D01*
X60246534Y-150605044D01*
X61846640Y-149004939D01*
X71041594Y-149004939D01*
X71085063Y-149009220D01*
X71128532Y-149004939D01*
X71128540Y-149004939D01*
X71258553Y-148992134D01*
X71425376Y-148941528D01*
X71579122Y-148859350D01*
X71713880Y-148748756D01*
X71741597Y-148714983D01*
X78442729Y-142013852D01*
X78441928Y-142200000D01*
X78454188Y-142324482D01*
X78490498Y-142444180D01*
X78549463Y-142554494D01*
X78628815Y-142651185D01*
X78725506Y-142730537D01*
X78835820Y-142789502D01*
X78955518Y-142825812D01*
X79080000Y-142838072D01*
X79244250Y-142835000D01*
X79403000Y-142676250D01*
X79403000Y-141327000D01*
X79383000Y-141327000D01*
X79383000Y-141073000D01*
X79403000Y-141073000D01*
X79403000Y-139723750D01*
X79244250Y-139565000D01*
X79080001Y-139561928D01*
X79080001Y-133690000D01*
X81106928Y-133690000D01*
X81119188Y-133814482D01*
X81155498Y-133934180D01*
X81214463Y-134044494D01*
X81293815Y-134141185D01*
X81390506Y-134220537D01*
X81500820Y-134279502D01*
X81620518Y-134315812D01*
X81745000Y-134328072D01*
X83959250Y-134325000D01*
X84118000Y-134166250D01*
X84118000Y-131317000D01*
X81268750Y-131317000D01*
X81110000Y-131475750D01*
X81106928Y-133690000D01*
X79080001Y-133690000D01*
X79080001Y-128690000D01*
X81106928Y-128690000D01*
X81110000Y-130904250D01*
X81268750Y-131063000D01*
X84118000Y-131063000D01*
X84118000Y-128213750D01*
X83959250Y-128055000D01*
X81745000Y-128051928D01*
X81620518Y-128064188D01*
X81500820Y-128100498D01*
X81390506Y-128159463D01*
X81293815Y-128238815D01*
X81214463Y-128335506D01*
X81155498Y-128445820D01*
X81119188Y-128565518D01*
X81106928Y-128690000D01*
X79080001Y-128690000D01*
X79080001Y-125463468D01*
X79084282Y-125419999D01*
X79080001Y-125376530D01*
X79080001Y-125376522D01*
X79067196Y-125246509D01*
X79016590Y-125079686D01*
X78934412Y-124925940D01*
X78823818Y-124791182D01*
X78790046Y-124763466D01*
X78391536Y-124364956D01*
X78363819Y-124331183D01*
X78353218Y-124322483D01*
X78370812Y-124264482D01*
X78383072Y-124140000D01*
X78380000Y-123975750D01*
X78221250Y-123817000D01*
X76872000Y-123817000D01*
X76872000Y-123837000D01*
X76618000Y-123837000D01*
X76618000Y-123817000D01*
X75268750Y-123817000D01*
X75110000Y-123975750D01*
X75106928Y-124140000D01*
X75119188Y-124264482D01*
X75137546Y-124325000D01*
X75119188Y-124385518D01*
X75106928Y-124510000D01*
X75106928Y-125410000D01*
X75119188Y-125534482D01*
X75137546Y-125595000D01*
X75119188Y-125655518D01*
X75106928Y-125780000D01*
X75106928Y-126680000D01*
X75119188Y-126804482D01*
X75137546Y-126865000D01*
X75119188Y-126925518D01*
X75106928Y-127050000D01*
X75106928Y-127950000D01*
X75119188Y-128074482D01*
X75137546Y-128135000D01*
X75119188Y-128195518D01*
X75106928Y-128320000D01*
X75106928Y-129220000D01*
X75119188Y-129344482D01*
X75137546Y-129405000D01*
X75119188Y-129465518D01*
X75106928Y-129590000D01*
X75106928Y-130490000D01*
X75119188Y-130614482D01*
X75137546Y-130675000D01*
X75119188Y-130735518D01*
X75106928Y-130860000D01*
X75106928Y-131695000D01*
X64198660Y-131695000D01*
X59058615Y-126554956D01*
X59030898Y-126521183D01*
X58896140Y-126410589D01*
X58742394Y-126328411D01*
X58575571Y-126277805D01*
X58445558Y-126265000D01*
X58445550Y-126265000D01*
X58402081Y-126260719D01*
X58392431Y-126261669D01*
X58353475Y-126203368D01*
X58146632Y-125996525D01*
X57972240Y-125880000D01*
X58146632Y-125763475D01*
X58353475Y-125556632D01*
X58394656Y-125495000D01*
X68746531Y-125495000D01*
X68790000Y-125499281D01*
X68833469Y-125495000D01*
X68833477Y-125495000D01*
X68963490Y-125482195D01*
X69130313Y-125431589D01*
X69284059Y-125349411D01*
X69418817Y-125238817D01*
X69446534Y-125205044D01*
X71866579Y-122785000D01*
X75298464Y-122785000D01*
X75293815Y-122788815D01*
X75214463Y-122885506D01*
X75155498Y-122995820D01*
X75119188Y-123115518D01*
X75106928Y-123240000D01*
X75110000Y-123404250D01*
X75268750Y-123563000D01*
X76618000Y-123563000D01*
X76618000Y-123543000D01*
X76872000Y-123543000D01*
X76872000Y-123563000D01*
X78221250Y-123563000D01*
X78380000Y-123404250D01*
X78383072Y-123240000D01*
X78370812Y-123115518D01*
X78334502Y-122995820D01*
X78275537Y-122885506D01*
X78196185Y-122788815D01*
X78191536Y-122785000D01*
X81833422Y-122785000D01*
X87015000Y-127966579D01*
X87015000Y-128114299D01*
X86989180Y-128100498D01*
X86869482Y-128064188D01*
X86745000Y-128051928D01*
X84530750Y-128055000D01*
X84372000Y-128213750D01*
X84372000Y-131063000D01*
X84392000Y-131063000D01*
X84392000Y-131317000D01*
X84372000Y-131317000D01*
X84372000Y-134166250D01*
X84530750Y-134325000D01*
X86745000Y-134328072D01*
X86869482Y-134315812D01*
X86989180Y-134279502D01*
X87099494Y-134220537D01*
X87196185Y-134141185D01*
X87275537Y-134044494D01*
X87334502Y-133934180D01*
X87370812Y-133814482D01*
X87383072Y-133690000D01*
X87382856Y-133534434D01*
X88293470Y-134445049D01*
X88321183Y-134478817D01*
X88354951Y-134506530D01*
X88354953Y-134506532D01*
X88400827Y-134544180D01*
X88455941Y-134589411D01*
X88609687Y-134671589D01*
X88776510Y-134722195D01*
X88906523Y-134735000D01*
X88906533Y-134735000D01*
X88949999Y-134739281D01*
X88993465Y-134735000D01*
X92106928Y-134735000D01*
X92106928Y-135570000D01*
X92119188Y-135694482D01*
X92137546Y-135755000D01*
X92119188Y-135815518D01*
X92106928Y-135940000D01*
X92106928Y-136805879D01*
X91999687Y-136838411D01*
X91845941Y-136920589D01*
X91711183Y-137031183D01*
X91683466Y-137064956D01*
X91504956Y-137243466D01*
X91471183Y-137271183D01*
X91360589Y-137405942D01*
X91278411Y-137559688D01*
X91227805Y-137726511D01*
X91215000Y-137856524D01*
X91215000Y-137856531D01*
X91210719Y-137900000D01*
X91215000Y-137943469D01*
X91215000Y-139561928D01*
X90510000Y-139561928D01*
X90385518Y-139574188D01*
X90325000Y-139592546D01*
X90264482Y-139574188D01*
X90140000Y-139561928D01*
X89240000Y-139561928D01*
X89115518Y-139574188D01*
X89055000Y-139592546D01*
X88994482Y-139574188D01*
X88870000Y-139561928D01*
X87970000Y-139561928D01*
X87845518Y-139574188D01*
X87785000Y-139592546D01*
X87724482Y-139574188D01*
X87600000Y-139561928D01*
X86700000Y-139561928D01*
X86575518Y-139574188D01*
X86515000Y-139592546D01*
X86454482Y-139574188D01*
X86330000Y-139561928D01*
X85430000Y-139561928D01*
X85305518Y-139574188D01*
X85245000Y-139592546D01*
X85184482Y-139574188D01*
X85060000Y-139561928D01*
X84160000Y-139561928D01*
X84035518Y-139574188D01*
X83975000Y-139592546D01*
X83914482Y-139574188D01*
X83790000Y-139561928D01*
X82890000Y-139561928D01*
X82765518Y-139574188D01*
X82705000Y-139592546D01*
X82644482Y-139574188D01*
X82520000Y-139561928D01*
X81620000Y-139561928D01*
X81495518Y-139574188D01*
X81435000Y-139592546D01*
X81374482Y-139574188D01*
X81250000Y-139561928D01*
X80350000Y-139561928D01*
X80225518Y-139574188D01*
X80165000Y-139592546D01*
X80104482Y-139574188D01*
X79980000Y-139561928D01*
X79815750Y-139565000D01*
X79657000Y-139723750D01*
X79657000Y-141073000D01*
X79677000Y-141073000D01*
X79677000Y-141327000D01*
X79657000Y-141327000D01*
X79657000Y-142676250D01*
X79815750Y-142835000D01*
X79980000Y-142838072D01*
X80104482Y-142825812D01*
X80165000Y-142807454D01*
X80225518Y-142825812D01*
X80350000Y-142838072D01*
X81250000Y-142838072D01*
X81374482Y-142825812D01*
X81435000Y-142807454D01*
X81495518Y-142825812D01*
X81620000Y-142838072D01*
X82520000Y-142838072D01*
X82644482Y-142825812D01*
X82705000Y-142807454D01*
X82765518Y-142825812D01*
X82890000Y-142838072D01*
X83790000Y-142838072D01*
X83914482Y-142825812D01*
X83975000Y-142807454D01*
X84035518Y-142825812D01*
X84160000Y-142838072D01*
X85060000Y-142838072D01*
X85184482Y-142825812D01*
X85245000Y-142807454D01*
X85305518Y-142825812D01*
X85430000Y-142838072D01*
X86330000Y-142838072D01*
X86454482Y-142825812D01*
X86515000Y-142807454D01*
X86575518Y-142825812D01*
X86700000Y-142838072D01*
X87600000Y-142838072D01*
X87724482Y-142825812D01*
X87785000Y-142807454D01*
X87845518Y-142825812D01*
X87970000Y-142838072D01*
X88870000Y-142838072D01*
X88994482Y-142825812D01*
X89055000Y-142807454D01*
X89115518Y-142825812D01*
X89240000Y-142838072D01*
X90140000Y-142838072D01*
X90264482Y-142825812D01*
X90325000Y-142807454D01*
X90385518Y-142825812D01*
X90510000Y-142838072D01*
X91215001Y-142838072D01*
X91215001Y-147556521D01*
X91210719Y-147600000D01*
X91227805Y-147773490D01*
X91278412Y-147940313D01*
X91360590Y-148094059D01*
X91443468Y-148195046D01*
X91443471Y-148195049D01*
X91471184Y-148228817D01*
X91504952Y-148256530D01*
X99143470Y-155895049D01*
X99171183Y-155928817D01*
X99204951Y-155956530D01*
X99204953Y-155956532D01*
X99276452Y-156015210D01*
X99305941Y-156039411D01*
X99459687Y-156121589D01*
X99626510Y-156172195D01*
X99756523Y-156185000D01*
X99756533Y-156185000D01*
X99799999Y-156189281D01*
X99843465Y-156185000D01*
X131656531Y-156185000D01*
X131700000Y-156189281D01*
X131743469Y-156185000D01*
X131743477Y-156185000D01*
X131873490Y-156172195D01*
X132040313Y-156121589D01*
X132194059Y-156039411D01*
X132328817Y-155928817D01*
X132356534Y-155895044D01*
X133060349Y-155191229D01*
X135065000Y-155191229D01*
X135065000Y-155808771D01*
X135185476Y-156414446D01*
X135421799Y-156984979D01*
X135764886Y-157498446D01*
X136201554Y-157935114D01*
X136715021Y-158278201D01*
X137285554Y-158514524D01*
X137891229Y-158635000D01*
X138508771Y-158635000D01*
X139114446Y-158514524D01*
X139684979Y-158278201D01*
X140198446Y-157935114D01*
X140635114Y-157498446D01*
X140978201Y-156984979D01*
X141214524Y-156414446D01*
X141335000Y-155808771D01*
X141335000Y-155191229D01*
X141214524Y-154585554D01*
X140978201Y-154015021D01*
X140635114Y-153501554D01*
X140198446Y-153064886D01*
X139684979Y-152721799D01*
X139114446Y-152485476D01*
X138508771Y-152365000D01*
X137891229Y-152365000D01*
X137285554Y-152485476D01*
X136715021Y-152721799D01*
X136201554Y-153064886D01*
X135764886Y-153501554D01*
X135421799Y-154015021D01*
X135185476Y-154585554D01*
X135065000Y-155191229D01*
X133060349Y-155191229D01*
X136166579Y-152085000D01*
X150456531Y-152085000D01*
X150500000Y-152089281D01*
X150543469Y-152085000D01*
X150543477Y-152085000D01*
X150673490Y-152072195D01*
X150840313Y-152021589D01*
X150994059Y-151939411D01*
X151128817Y-151828817D01*
X151156534Y-151795044D01*
X152535050Y-150416529D01*
X152568817Y-150388817D01*
X152625124Y-150320208D01*
X152679411Y-150254059D01*
X152761589Y-150100314D01*
X152812195Y-149933490D01*
X152812195Y-149933489D01*
X152825000Y-149803477D01*
X152825000Y-149803469D01*
X152829281Y-149760000D01*
X152825000Y-149716531D01*
X152825000Y-148973685D01*
X153015799Y-148782886D01*
X153167371Y-148556043D01*
X153210000Y-148453127D01*
X153252629Y-148556043D01*
X153404201Y-148782886D01*
X153597114Y-148975799D01*
X153823957Y-149127371D01*
X154076011Y-149231775D01*
X154343589Y-149285000D01*
X154616411Y-149285000D01*
X154883989Y-149231775D01*
X155136043Y-149127371D01*
X155362886Y-148975799D01*
X155481692Y-148856993D01*
X156242612Y-148856993D01*
X156308137Y-149095860D01*
X156555116Y-149211760D01*
X156819960Y-149277250D01*
X157092492Y-149289812D01*
X157362238Y-149248965D01*
X157618832Y-149156277D01*
X157731863Y-149095860D01*
X157797388Y-148856993D01*
X157020000Y-148079605D01*
X156242612Y-148856993D01*
X155481692Y-148856993D01*
X155555799Y-148782886D01*
X155707371Y-148556043D01*
X155748511Y-148456721D01*
X155763723Y-148498832D01*
X155824140Y-148611863D01*
X156063007Y-148677388D01*
X156840395Y-147900000D01*
X157199605Y-147900000D01*
X157976993Y-148677388D01*
X158215860Y-148611863D01*
X158331760Y-148364884D01*
X158397250Y-148100040D01*
X158409812Y-147827508D01*
X158368965Y-147557762D01*
X158276277Y-147301168D01*
X158215860Y-147188137D01*
X157976993Y-147122612D01*
X157199605Y-147900000D01*
X156840395Y-147900000D01*
X156063007Y-147122612D01*
X155824140Y-147188137D01*
X155749836Y-147346477D01*
X155707371Y-147243957D01*
X155555799Y-147017114D01*
X155481692Y-146943007D01*
X156242612Y-146943007D01*
X157020000Y-147720395D01*
X157797388Y-146943007D01*
X157731863Y-146704140D01*
X157484884Y-146588240D01*
X157220040Y-146522750D01*
X156947508Y-146510188D01*
X156677762Y-146551035D01*
X156421168Y-146643723D01*
X156308137Y-146704140D01*
X156242612Y-146943007D01*
X155481692Y-146943007D01*
X155362886Y-146824201D01*
X155136043Y-146672629D01*
X154883989Y-146568225D01*
X154616411Y-146515000D01*
X154343589Y-146515000D01*
X154076011Y-146568225D01*
X153823957Y-146672629D01*
X153597114Y-146824201D01*
X153404201Y-147017114D01*
X153252629Y-147243957D01*
X153210000Y-147346873D01*
X153167371Y-147243957D01*
X153015799Y-147017114D01*
X152822886Y-146824201D01*
X152596043Y-146672629D01*
X152343989Y-146568225D01*
X152076411Y-146515000D01*
X151803589Y-146515000D01*
X151536011Y-146568225D01*
X151283957Y-146672629D01*
X151057114Y-146824201D01*
X150864201Y-147017114D01*
X150786445Y-147133483D01*
X150775812Y-147025518D01*
X150739502Y-146905820D01*
X150680537Y-146795506D01*
X150601185Y-146698815D01*
X150504494Y-146619463D01*
X150394180Y-146560498D01*
X150276965Y-146524941D01*
X150272195Y-146476510D01*
X150221589Y-146309687D01*
X150139411Y-146155941D01*
X150028817Y-146021183D01*
X149995045Y-145993467D01*
X149906534Y-145904956D01*
X149878817Y-145871183D01*
X149744059Y-145760589D01*
X149675549Y-145723970D01*
X148656534Y-144704956D01*
X148628817Y-144671183D01*
X148494059Y-144560589D01*
X148340313Y-144478411D01*
X148173490Y-144427805D01*
X148043477Y-144415000D01*
X148043469Y-144415000D01*
X148000000Y-144410719D01*
X147956531Y-144415000D01*
X137416579Y-144415000D01*
X129756532Y-136754954D01*
X129728817Y-136721183D01*
X129594059Y-136610589D01*
X129440313Y-136528411D01*
X129313691Y-136490000D01*
X137691928Y-136490000D01*
X137691928Y-138190000D01*
X137704188Y-138314482D01*
X137740498Y-138434180D01*
X137799463Y-138544494D01*
X137878815Y-138641185D01*
X137975506Y-138720537D01*
X138085820Y-138779502D01*
X138205518Y-138815812D01*
X138330000Y-138828072D01*
X140030000Y-138828072D01*
X140154482Y-138815812D01*
X140274180Y-138779502D01*
X140384494Y-138720537D01*
X140481185Y-138641185D01*
X140560537Y-138544494D01*
X140619502Y-138434180D01*
X140655812Y-138314482D01*
X140668072Y-138190000D01*
X140668072Y-136490000D01*
X140655812Y-136365518D01*
X140619502Y-136245820D01*
X140560537Y-136135506D01*
X140481185Y-136038815D01*
X140384494Y-135959463D01*
X140274180Y-135900498D01*
X140201620Y-135878487D01*
X140333475Y-135746632D01*
X140495990Y-135503411D01*
X140607932Y-135233158D01*
X140665000Y-134946260D01*
X140665000Y-134653740D01*
X140607932Y-134366842D01*
X140495990Y-134096589D01*
X140333475Y-133853368D01*
X140126632Y-133646525D01*
X139952240Y-133530000D01*
X140126632Y-133413475D01*
X140333475Y-133206632D01*
X140495990Y-132963411D01*
X140607932Y-132693158D01*
X140665000Y-132406260D01*
X140665000Y-132113740D01*
X140607932Y-131826842D01*
X140495990Y-131556589D01*
X140333475Y-131313368D01*
X140126632Y-131106525D01*
X139952240Y-130990000D01*
X140126632Y-130873475D01*
X140333475Y-130666632D01*
X140495990Y-130423411D01*
X140607932Y-130153158D01*
X140665000Y-129866260D01*
X140665000Y-129573740D01*
X140607932Y-129286842D01*
X140495990Y-129016589D01*
X140333475Y-128773368D01*
X140126632Y-128566525D01*
X139883411Y-128404010D01*
X139613158Y-128292068D01*
X139326260Y-128235000D01*
X139033740Y-128235000D01*
X138746842Y-128292068D01*
X138476589Y-128404010D01*
X138233368Y-128566525D01*
X138026525Y-128773368D01*
X137864010Y-129016589D01*
X137752068Y-129286842D01*
X137695000Y-129573740D01*
X137695000Y-129866260D01*
X137752068Y-130153158D01*
X137864010Y-130423411D01*
X138026525Y-130666632D01*
X138233368Y-130873475D01*
X138407760Y-130990000D01*
X138233368Y-131106525D01*
X138026525Y-131313368D01*
X137864010Y-131556589D01*
X137752068Y-131826842D01*
X137695000Y-132113740D01*
X137695000Y-132406260D01*
X137752068Y-132693158D01*
X137864010Y-132963411D01*
X138026525Y-133206632D01*
X138233368Y-133413475D01*
X138407760Y-133530000D01*
X138233368Y-133646525D01*
X138026525Y-133853368D01*
X137864010Y-134096589D01*
X137752068Y-134366842D01*
X137695000Y-134653740D01*
X137695000Y-134946260D01*
X137752068Y-135233158D01*
X137864010Y-135503411D01*
X138026525Y-135746632D01*
X138158380Y-135878487D01*
X138085820Y-135900498D01*
X137975506Y-135959463D01*
X137878815Y-136038815D01*
X137799463Y-136135506D01*
X137740498Y-136245820D01*
X137704188Y-136365518D01*
X137691928Y-136490000D01*
X129313691Y-136490000D01*
X129273490Y-136477805D01*
X129238072Y-136474317D01*
X129238072Y-136350000D01*
X129225812Y-136225518D01*
X129189502Y-136105820D01*
X129130537Y-135995506D01*
X129051185Y-135898815D01*
X128954494Y-135819463D01*
X128844180Y-135760498D01*
X128724482Y-135724188D01*
X128600000Y-135711928D01*
X127985000Y-135711928D01*
X127985000Y-133384229D01*
X128068671Y-133282275D01*
X128147850Y-133134142D01*
X128196608Y-132973408D01*
X128213072Y-132806250D01*
X128213072Y-132368750D01*
X128196608Y-132201592D01*
X128147850Y-132040858D01*
X128071223Y-131897500D01*
X133144031Y-131897500D01*
X133187500Y-131901781D01*
X133230969Y-131897500D01*
X133230977Y-131897500D01*
X133360990Y-131884695D01*
X133527813Y-131834089D01*
X133681559Y-131751911D01*
X133816317Y-131641317D01*
X133844034Y-131607544D01*
X142790000Y-122661579D01*
X142790001Y-142265113D01*
X142786565Y-142300000D01*
X142800273Y-142439184D01*
X142840872Y-142573020D01*
X142906800Y-142696363D01*
X142995525Y-142804475D01*
X143103637Y-142893200D01*
X143226980Y-142959128D01*
X143360816Y-142999727D01*
X143465123Y-143010000D01*
X143500000Y-143013435D01*
X143534877Y-143010000D01*
X159790000Y-143010000D01*
X159790001Y-156806441D01*
X159548446Y-156564886D01*
X159034979Y-156221799D01*
X158464446Y-155985476D01*
X157858771Y-155865000D01*
X157241229Y-155865000D01*
X156635554Y-155985476D01*
X156065021Y-156221799D01*
X155551554Y-156564886D01*
X155114886Y-157001554D01*
X154771799Y-157515021D01*
X154535476Y-158085554D01*
X154415000Y-158691229D01*
X154415000Y-159308771D01*
X154535476Y-159914446D01*
X154771799Y-160484979D01*
X155114886Y-160998446D01*
X155406440Y-161290000D01*
X47143560Y-161290000D01*
X47435114Y-160998446D01*
X47778201Y-160484979D01*
X48014524Y-159914446D01*
X48135000Y-159308771D01*
X48135000Y-158691229D01*
X48014524Y-158085554D01*
X47778201Y-157515021D01*
X47435114Y-157001554D01*
X46998446Y-156564886D01*
X46484979Y-156221799D01*
X45914446Y-155985476D01*
X45308771Y-155865000D01*
X44691229Y-155865000D01*
X44085554Y-155985476D01*
X43515021Y-156221799D01*
X43001554Y-156564886D01*
X42710000Y-156856440D01*
X42710000Y-155241229D01*
X58990000Y-155241229D01*
X58990000Y-155858771D01*
X59110476Y-156464446D01*
X59346799Y-157034979D01*
X59689886Y-157548446D01*
X60126554Y-157985114D01*
X60640021Y-158328201D01*
X61210554Y-158564524D01*
X61816229Y-158685000D01*
X62433771Y-158685000D01*
X63039446Y-158564524D01*
X63609979Y-158328201D01*
X64123446Y-157985114D01*
X64560114Y-157548446D01*
X64903201Y-157034979D01*
X65139524Y-156464446D01*
X65260000Y-155858771D01*
X65260000Y-155241229D01*
X65139524Y-154635554D01*
X64903201Y-154065021D01*
X64560114Y-153551554D01*
X64123446Y-153114886D01*
X63609979Y-152771799D01*
X63039446Y-152535476D01*
X62433771Y-152415000D01*
X61816229Y-152415000D01*
X61210554Y-152535476D01*
X60640021Y-152771799D01*
X60126554Y-153114886D01*
X59689886Y-153551554D01*
X59346799Y-154065021D01*
X59110476Y-154635554D01*
X58990000Y-155241229D01*
X42710000Y-155241229D01*
X42710000Y-148849651D01*
X47009954Y-148849651D01*
X47196039Y-149190815D01*
X47613384Y-149406568D01*
X48064802Y-149536755D01*
X48532944Y-149576374D01*
X48999821Y-149523901D01*
X49447489Y-149381354D01*
X49803961Y-149190815D01*
X49990046Y-148849651D01*
X48500000Y-147359605D01*
X47009954Y-148849651D01*
X42710000Y-148849651D01*
X42710000Y-147212944D01*
X46103626Y-147212944D01*
X46156099Y-147679821D01*
X46298646Y-148127489D01*
X46489185Y-148483961D01*
X46830349Y-148670046D01*
X48320395Y-147180000D01*
X48679605Y-147180000D01*
X50169651Y-148670046D01*
X50510815Y-148483961D01*
X50726568Y-148066616D01*
X50856755Y-147615198D01*
X50863243Y-147538531D01*
X55709389Y-147538531D01*
X55751401Y-147828019D01*
X55849081Y-148103747D01*
X55922528Y-148241157D01*
X56171603Y-148318792D01*
X57020395Y-147470000D01*
X57379605Y-147470000D01*
X58228397Y-148318792D01*
X58477472Y-148241157D01*
X58603371Y-147977117D01*
X58675339Y-147693589D01*
X58690611Y-147401469D01*
X58648599Y-147111981D01*
X58550919Y-146836253D01*
X58477472Y-146698843D01*
X58228397Y-146621208D01*
X57379605Y-147470000D01*
X57020395Y-147470000D01*
X56171603Y-146621208D01*
X55922528Y-146698843D01*
X55796629Y-146962883D01*
X55724661Y-147246411D01*
X55709389Y-147538531D01*
X50863243Y-147538531D01*
X50896374Y-147147056D01*
X50843901Y-146680179D01*
X50701354Y-146232511D01*
X50510815Y-145876039D01*
X50169651Y-145689954D01*
X48679605Y-147180000D01*
X48320395Y-147180000D01*
X46830349Y-145689954D01*
X46489185Y-145876039D01*
X46273432Y-146293384D01*
X46143245Y-146744802D01*
X46103626Y-147212944D01*
X42710000Y-147212944D01*
X42710000Y-145510349D01*
X47009954Y-145510349D01*
X48500000Y-147000395D01*
X49990046Y-145510349D01*
X49803961Y-145169185D01*
X49386616Y-144953432D01*
X48935198Y-144823245D01*
X48467056Y-144783626D01*
X48000179Y-144836099D01*
X47552511Y-144978646D01*
X47196039Y-145169185D01*
X47009954Y-145510349D01*
X42710000Y-145510349D01*
X42710000Y-140349940D01*
X46111868Y-140349940D01*
X46111868Y-143850060D01*
X46124128Y-143974542D01*
X46160438Y-144094240D01*
X46219403Y-144204554D01*
X46298755Y-144301245D01*
X46395446Y-144380597D01*
X46505760Y-144439562D01*
X46625458Y-144475872D01*
X46749940Y-144488132D01*
X50250060Y-144488132D01*
X50374542Y-144475872D01*
X50494240Y-144439562D01*
X50604554Y-144380597D01*
X50701245Y-144301245D01*
X50780597Y-144204554D01*
X50839562Y-144094240D01*
X50875872Y-143974542D01*
X50888132Y-143850060D01*
X50888132Y-140349940D01*
X50875872Y-140225458D01*
X50839562Y-140105760D01*
X50780597Y-139995446D01*
X50701245Y-139898755D01*
X50604554Y-139819403D01*
X50494240Y-139760438D01*
X50374542Y-139724128D01*
X50250060Y-139711868D01*
X46749940Y-139711868D01*
X46625458Y-139724128D01*
X46505760Y-139760438D01*
X46395446Y-139819403D01*
X46298755Y-139898755D01*
X46219403Y-139995446D01*
X46160438Y-140105760D01*
X46124128Y-140225458D01*
X46111868Y-140349940D01*
X42710000Y-140349940D01*
X42710000Y-111201229D01*
X58990000Y-111201229D01*
X58990000Y-111818771D01*
X59110476Y-112424446D01*
X59346799Y-112994979D01*
X59689886Y-113508446D01*
X60126554Y-113945114D01*
X60640021Y-114288201D01*
X61210554Y-114524524D01*
X61816229Y-114645000D01*
X62433771Y-114645000D01*
X63039446Y-114524524D01*
X63609979Y-114288201D01*
X64123446Y-113945114D01*
X64560114Y-113508446D01*
X64903201Y-112994979D01*
X65139524Y-112424446D01*
X65260000Y-111818771D01*
X65260000Y-111201229D01*
X65139524Y-110595554D01*
X64903201Y-110025021D01*
X64560114Y-109511554D01*
X64123446Y-109074886D01*
X63609979Y-108731799D01*
X63039446Y-108495476D01*
X62433771Y-108375000D01*
X61816229Y-108375000D01*
X61210554Y-108495476D01*
X60640021Y-108731799D01*
X60126554Y-109074886D01*
X59689886Y-109511554D01*
X59346799Y-110025021D01*
X59110476Y-110595554D01*
X58990000Y-111201229D01*
X42710000Y-111201229D01*
X42710000Y-98643560D01*
X43001554Y-98935114D01*
X43515021Y-99278201D01*
X44085554Y-99514524D01*
X44691229Y-99635000D01*
X45308771Y-99635000D01*
X45914446Y-99514524D01*
X46484979Y-99278201D01*
X46998446Y-98935114D01*
X47029286Y-98904274D01*
X47029286Y-100030000D01*
X77170715Y-100030000D01*
X77170715Y-98171984D01*
X97365000Y-98171984D01*
X97365000Y-98888016D01*
X97504691Y-99590290D01*
X97778705Y-100251818D01*
X98176511Y-100847177D01*
X98682823Y-101353489D01*
X99278182Y-101751295D01*
X99939710Y-102025309D01*
X100641984Y-102165000D01*
X101358016Y-102165000D01*
X102060290Y-102025309D01*
X102721818Y-101751295D01*
X103317177Y-101353489D01*
X103823489Y-100847177D01*
X104221295Y-100251818D01*
X104495309Y-99590290D01*
X104635000Y-98888016D01*
X104635000Y-98171984D01*
X104495309Y-97469710D01*
X104221295Y-96808182D01*
X103823489Y-96212823D01*
X103317177Y-95706511D01*
X102721818Y-95308705D01*
X102060290Y-95034691D01*
X101358016Y-94895000D01*
X100641984Y-94895000D01*
X99939710Y-95034691D01*
X99278182Y-95308705D01*
X98682823Y-95706511D01*
X98176511Y-96212823D01*
X97778705Y-96808182D01*
X97504691Y-97469710D01*
X97365000Y-98171984D01*
X77170715Y-98171984D01*
X77170715Y-96210000D01*
X48135000Y-96210000D01*
X48135000Y-96191229D01*
X48014524Y-95585554D01*
X47778201Y-95015021D01*
X47435114Y-94501554D01*
X47143560Y-94210000D01*
X155543506Y-94210000D01*
X155515021Y-94221799D01*
G37*
X155515021Y-94221799D02*
X155001554Y-94564886D01*
X154564886Y-95001554D01*
X154221799Y-95515021D01*
X153985476Y-96085554D01*
X153865000Y-96691229D01*
X153865000Y-97308771D01*
X153985476Y-97914446D01*
X154221799Y-98484979D01*
X154564886Y-98998446D01*
X155001554Y-99435114D01*
X155515021Y-99778201D01*
X156085554Y-100014524D01*
X156691229Y-100135000D01*
X157308771Y-100135000D01*
X157914446Y-100014524D01*
X158484979Y-99778201D01*
X158998446Y-99435114D01*
X159435114Y-98998446D01*
X159778201Y-98484979D01*
X159790000Y-98456493D01*
X159790001Y-112790000D01*
X143534877Y-112790000D01*
X143500000Y-112786565D01*
X143465123Y-112790000D01*
X143360816Y-112800273D01*
X143226980Y-112840872D01*
X143103637Y-112906800D01*
X143085000Y-112922095D01*
X143085000Y-112266578D01*
X144716579Y-110635000D01*
X148874941Y-110635000D01*
X148980013Y-110792252D01*
X149207748Y-111019987D01*
X149365001Y-111125060D01*
X149365001Y-111207690D01*
X149377806Y-111337703D01*
X149428412Y-111504526D01*
X149510590Y-111658272D01*
X149621184Y-111793030D01*
X149755942Y-111903624D01*
X149909688Y-111985802D01*
X150076511Y-112036408D01*
X150250000Y-112053495D01*
X150423490Y-112036408D01*
X150590313Y-111985802D01*
X150744059Y-111903624D01*
X150878817Y-111793030D01*
X150989411Y-111658272D01*
X151071589Y-111504526D01*
X151122195Y-111337703D01*
X151135000Y-111207690D01*
X151135000Y-111125059D01*
X151292252Y-111019987D01*
X151519987Y-110792252D01*
X151625059Y-110635000D01*
X155374941Y-110635000D01*
X155480013Y-110792252D01*
X155707748Y-111019987D01*
X155975537Y-111198918D01*
X156273088Y-111322168D01*
X156588967Y-111385000D01*
X156911033Y-111385000D01*
X157226912Y-111322168D01*
X157524463Y-111198918D01*
X157792252Y-111019987D01*
X158019987Y-110792252D01*
X158198918Y-110524463D01*
X158322168Y-110226912D01*
X158385000Y-109911033D01*
X158385000Y-109588967D01*
X158322168Y-109273088D01*
X158198918Y-108975537D01*
X158019987Y-108707748D01*
X157792252Y-108480013D01*
X157524463Y-108301082D01*
X157226912Y-108177832D01*
X156911033Y-108115000D01*
X156588967Y-108115000D01*
X156273088Y-108177832D01*
X155975537Y-108301082D01*
X155707748Y-108480013D01*
X155480013Y-108707748D01*
X155374941Y-108865000D01*
X151625059Y-108865000D01*
X151519987Y-108707748D01*
X151292252Y-108480013D01*
X151024463Y-108301082D01*
X150726912Y-108177832D01*
X150411033Y-108115000D01*
X150088967Y-108115000D01*
X149773088Y-108177832D01*
X149475537Y-108301082D01*
X149207748Y-108480013D01*
X148980013Y-108707748D01*
X148874941Y-108865000D01*
X144393465Y-108865000D01*
X144349999Y-108860719D01*
X144306533Y-108865000D01*
X144306523Y-108865000D01*
X144176510Y-108877805D01*
X144009687Y-108928411D01*
X143855941Y-109010589D01*
X143855939Y-109010590D01*
X143855940Y-109010590D01*
X143754953Y-109093468D01*
X143754951Y-109093470D01*
X143721183Y-109121183D01*
X143693470Y-109154951D01*
X141604951Y-111243471D01*
X141571184Y-111271183D01*
X141543471Y-111304951D01*
X141543468Y-111304954D01*
X141460590Y-111405941D01*
X141378412Y-111559687D01*
X141335000Y-111702792D01*
X141335000Y-111191229D01*
X141214524Y-110585554D01*
X140978201Y-110015021D01*
X140635114Y-109501554D01*
X140198446Y-109064886D01*
X139684979Y-108721799D01*
X139114446Y-108485476D01*
X138508771Y-108365000D01*
X137891229Y-108365000D01*
X137285554Y-108485476D01*
X136715021Y-108721799D01*
X136201554Y-109064886D01*
X135764886Y-109501554D01*
X135421799Y-110015021D01*
X135185476Y-110585554D01*
X135099477Y-111017899D01*
X130466991Y-106385413D01*
X149294192Y-106385413D01*
X149389956Y-106649814D01*
X149679571Y-106790704D01*
X149991108Y-106872384D01*
X150312595Y-106891718D01*
X150631675Y-106847961D01*
X150936088Y-106742795D01*
X151110044Y-106649814D01*
X151205808Y-106385413D01*
X155794192Y-106385413D01*
X155889956Y-106649814D01*
X156179571Y-106790704D01*
X156491108Y-106872384D01*
X156812595Y-106891718D01*
X157131675Y-106847961D01*
X157436088Y-106742795D01*
X157610044Y-106649814D01*
X157705808Y-106385413D01*
X156750000Y-105429605D01*
X155794192Y-106385413D01*
X151205808Y-106385413D01*
X150250000Y-105429605D01*
X149294192Y-106385413D01*
X130466991Y-106385413D01*
X129999665Y-105918087D01*
X130081185Y-105851185D01*
X130160537Y-105754494D01*
X130219502Y-105644180D01*
X130222813Y-105633265D01*
X130269578Y-105680030D01*
X130385526Y-105564082D01*
X130469208Y-105818261D01*
X130741775Y-105949158D01*
X131034642Y-106024365D01*
X131336553Y-106040991D01*
X131635907Y-105998397D01*
X131921199Y-105898222D01*
X132070792Y-105818261D01*
X132154475Y-105564080D01*
X131270000Y-104679605D01*
X131255858Y-104693748D01*
X131076253Y-104514143D01*
X131090395Y-104500000D01*
X131449605Y-104500000D01*
X132334080Y-105384475D01*
X132552410Y-105312595D01*
X148608282Y-105312595D01*
X148652039Y-105631675D01*
X148757205Y-105936088D01*
X148850186Y-106110044D01*
X149114587Y-106205808D01*
X150070395Y-105250000D01*
X150429605Y-105250000D01*
X151385413Y-106205808D01*
X151649814Y-106110044D01*
X151790704Y-105820429D01*
X151872384Y-105508892D01*
X151884189Y-105312595D01*
X155108282Y-105312595D01*
X155152039Y-105631675D01*
X155257205Y-105936088D01*
X155350186Y-106110044D01*
X155614587Y-106205808D01*
X156570395Y-105250000D01*
X156929605Y-105250000D01*
X157885413Y-106205808D01*
X158149814Y-106110044D01*
X158290704Y-105820429D01*
X158372384Y-105508892D01*
X158391718Y-105187405D01*
X158347961Y-104868325D01*
X158242795Y-104563912D01*
X158149814Y-104389956D01*
X157885413Y-104294192D01*
X156929605Y-105250000D01*
X156570395Y-105250000D01*
X155614587Y-104294192D01*
X155350186Y-104389956D01*
X155209296Y-104679571D01*
X155127616Y-104991108D01*
X155108282Y-105312595D01*
X151884189Y-105312595D01*
X151891718Y-105187405D01*
X151847961Y-104868325D01*
X151742795Y-104563912D01*
X151649814Y-104389956D01*
X151385413Y-104294192D01*
X150429605Y-105250000D01*
X150070395Y-105250000D01*
X149114587Y-104294192D01*
X148850186Y-104389956D01*
X148709296Y-104679571D01*
X148627616Y-104991108D01*
X148608282Y-105312595D01*
X132552410Y-105312595D01*
X132588261Y-105300792D01*
X132719158Y-105028225D01*
X132794365Y-104735358D01*
X132810991Y-104433447D01*
X132768397Y-104134093D01*
X132761548Y-104114587D01*
X149294192Y-104114587D01*
X150250000Y-105070395D01*
X151205808Y-104114587D01*
X155794192Y-104114587D01*
X156750000Y-105070395D01*
X157705808Y-104114587D01*
X157610044Y-103850186D01*
X157320429Y-103709296D01*
X157008892Y-103627616D01*
X156687405Y-103608282D01*
X156368325Y-103652039D01*
X156063912Y-103757205D01*
X155889956Y-103850186D01*
X155794192Y-104114587D01*
X151205808Y-104114587D01*
X151110044Y-103850186D01*
X150820429Y-103709296D01*
X150508892Y-103627616D01*
X150187405Y-103608282D01*
X149868325Y-103652039D01*
X149563912Y-103757205D01*
X149389956Y-103850186D01*
X149294192Y-104114587D01*
X132761548Y-104114587D01*
X132668222Y-103848801D01*
X132588261Y-103699208D01*
X132334080Y-103615525D01*
X131449605Y-104500000D01*
X131090395Y-104500000D01*
X131076253Y-104485858D01*
X131255858Y-104306253D01*
X131270000Y-104320395D01*
X132154475Y-103435920D01*
X132070792Y-103181739D01*
X131798225Y-103050842D01*
X131505358Y-102975635D01*
X131203447Y-102959009D01*
X130904093Y-103001603D01*
X130618801Y-103101778D01*
X130469208Y-103181739D01*
X130385526Y-103435918D01*
X130269578Y-103319970D01*
X130222813Y-103366735D01*
X130219502Y-103355820D01*
X130160537Y-103245506D01*
X130081185Y-103148815D01*
X129984494Y-103069463D01*
X129874180Y-103010498D01*
X129754482Y-102974188D01*
X129630000Y-102961928D01*
X127830000Y-102961928D01*
X127705518Y-102974188D01*
X127585820Y-103010498D01*
X127475506Y-103069463D01*
X127378815Y-103148815D01*
X127299463Y-103245506D01*
X127240498Y-103355820D01*
X127204188Y-103475518D01*
X127191928Y-103600000D01*
X127191928Y-105400000D01*
X127204188Y-105524482D01*
X127240498Y-105644180D01*
X127299463Y-105754494D01*
X127378815Y-105851185D01*
X127475506Y-105930537D01*
X127585820Y-105989502D01*
X127705518Y-106025812D01*
X127830000Y-106038072D01*
X127854317Y-106038072D01*
X127857805Y-106073489D01*
X127908411Y-106240312D01*
X127990589Y-106394058D01*
X128101183Y-106528817D01*
X128134956Y-106556534D01*
X135043804Y-113465383D01*
X134941335Y-113445000D01*
X134658665Y-113445000D01*
X134625059Y-113451685D01*
X134514059Y-113360589D01*
X134360313Y-113278411D01*
X134193490Y-113227805D01*
X134063477Y-113215000D01*
X134063469Y-113215000D01*
X134020000Y-113210719D01*
X133976531Y-113215000D01*
X130474491Y-113215000D01*
X130285000Y-113025509D01*
X130285000Y-112443465D01*
X130289281Y-112399999D01*
X130285000Y-112356533D01*
X130285000Y-112356523D01*
X130272195Y-112226510D01*
X130221589Y-112059687D01*
X130139411Y-111905941D01*
X130028817Y-111771183D01*
X129995051Y-111743472D01*
X121856534Y-103604956D01*
X121828817Y-103571183D01*
X121694059Y-103460589D01*
X121540313Y-103378411D01*
X121373490Y-103327805D01*
X121243477Y-103315000D01*
X121243469Y-103315000D01*
X121200000Y-103310719D01*
X121156531Y-103315000D01*
X118159981Y-103315000D01*
X118104494Y-103269463D01*
X117994180Y-103210498D01*
X117874482Y-103174188D01*
X117750000Y-103161928D01*
X116850000Y-103161928D01*
X116725518Y-103174188D01*
X116605820Y-103210498D01*
X116495506Y-103269463D01*
X116398815Y-103348815D01*
X116319463Y-103445506D01*
X116260498Y-103555820D01*
X116224188Y-103675518D01*
X116211928Y-103800000D01*
X116211928Y-104265000D01*
X111389665Y-104265000D01*
X111369478Y-104248433D01*
X111405537Y-104204494D01*
X111464502Y-104094180D01*
X111500812Y-103974482D01*
X111513072Y-103850000D01*
X111510000Y-103698250D01*
X111351250Y-103539500D01*
X110527000Y-103539500D01*
X110527000Y-103559500D01*
X110273000Y-103559500D01*
X110273000Y-103539500D01*
X109448750Y-103539500D01*
X109290000Y-103698250D01*
X109286928Y-103850000D01*
X109299188Y-103974482D01*
X109335498Y-104094180D01*
X109394463Y-104204494D01*
X109449100Y-104271070D01*
X109431329Y-104292725D01*
X109352150Y-104440858D01*
X109303392Y-104601592D01*
X109286928Y-104768750D01*
X109286928Y-105206250D01*
X109303392Y-105373408D01*
X109352150Y-105534142D01*
X109431329Y-105682275D01*
X109515001Y-105784230D01*
X109515000Y-116320921D01*
X98795161Y-127040761D01*
X98756250Y-127036928D01*
X98243750Y-127036928D01*
X98228110Y-127038468D01*
X100095060Y-125171518D01*
X100128827Y-125143807D01*
X100181450Y-125079687D01*
X100239421Y-125009049D01*
X100270816Y-124950313D01*
X100321599Y-124855303D01*
X100372205Y-124688480D01*
X100385010Y-124558467D01*
X100385010Y-124558459D01*
X100389291Y-124514990D01*
X100385010Y-124471521D01*
X100385010Y-113453512D01*
X100389291Y-113410046D01*
X100385010Y-113366580D01*
X100385010Y-113366570D01*
X100372205Y-113236557D01*
X100321599Y-113069734D01*
X100239421Y-112915988D01*
X100208582Y-112878411D01*
X100156542Y-112815000D01*
X100156540Y-112814998D01*
X100128827Y-112781230D01*
X100095059Y-112753517D01*
X95146497Y-107804956D01*
X95118780Y-107771183D01*
X94984022Y-107660589D01*
X94830276Y-107578411D01*
X94663453Y-107527805D01*
X94533440Y-107515000D01*
X94533432Y-107515000D01*
X94489963Y-107510719D01*
X94446494Y-107515000D01*
X87266579Y-107515000D01*
X85565000Y-105813422D01*
X85565000Y-104694656D01*
X85626632Y-104653475D01*
X85833475Y-104446632D01*
X85955195Y-104264466D01*
X86024822Y-104381355D01*
X86219731Y-104597588D01*
X86453080Y-104771641D01*
X86715901Y-104896825D01*
X86863110Y-104941476D01*
X87093000Y-104820155D01*
X87093000Y-103627000D01*
X87347000Y-103627000D01*
X87347000Y-104820155D01*
X87576890Y-104941476D01*
X87724099Y-104896825D01*
X87986920Y-104771641D01*
X88220269Y-104597588D01*
X88415178Y-104381355D01*
X88564157Y-104131252D01*
X88661481Y-103856891D01*
X88540814Y-103627000D01*
X87347000Y-103627000D01*
X87093000Y-103627000D01*
X87073000Y-103627000D01*
X87073000Y-103373000D01*
X87093000Y-103373000D01*
X87093000Y-102179845D01*
X87347000Y-102179845D01*
X87347000Y-103373000D01*
X88540814Y-103373000D01*
X88661481Y-103143109D01*
X88601848Y-102975000D01*
X109286928Y-102975000D01*
X109290000Y-103126750D01*
X109448750Y-103285500D01*
X110273000Y-103285500D01*
X110273000Y-102498750D01*
X110527000Y-102498750D01*
X110527000Y-103285500D01*
X111351250Y-103285500D01*
X111510000Y-103126750D01*
X111513072Y-102975000D01*
X111500812Y-102850518D01*
X111500655Y-102850000D01*
X118211928Y-102850000D01*
X118215000Y-102964250D01*
X118373750Y-103123000D01*
X119173000Y-103123000D01*
X119173000Y-102373750D01*
X119427000Y-102373750D01*
X119427000Y-103123000D01*
X120226250Y-103123000D01*
X120385000Y-102964250D01*
X120388072Y-102850000D01*
X120375812Y-102725518D01*
X120339502Y-102605820D01*
X120280537Y-102495506D01*
X120201185Y-102398815D01*
X120104494Y-102319463D01*
X119994180Y-102260498D01*
X119874482Y-102224188D01*
X119750000Y-102211928D01*
X119585750Y-102215000D01*
X119427000Y-102373750D01*
X119173000Y-102373750D01*
X119014250Y-102215000D01*
X118850000Y-102211928D01*
X118725518Y-102224188D01*
X118605820Y-102260498D01*
X118495506Y-102319463D01*
X118398815Y-102398815D01*
X118319463Y-102495506D01*
X118260498Y-102605820D01*
X118224188Y-102725518D01*
X118211928Y-102850000D01*
X111500655Y-102850000D01*
X111464502Y-102730820D01*
X111405537Y-102620506D01*
X111326185Y-102523815D01*
X111229494Y-102444463D01*
X111119180Y-102385498D01*
X110999482Y-102349188D01*
X110875000Y-102336928D01*
X110685750Y-102340000D01*
X110527000Y-102498750D01*
X110273000Y-102498750D01*
X110114250Y-102340000D01*
X109925000Y-102336928D01*
X109800518Y-102349188D01*
X109680820Y-102385498D01*
X109570506Y-102444463D01*
X109473815Y-102523815D01*
X109394463Y-102620506D01*
X109335498Y-102730820D01*
X109299188Y-102850518D01*
X109286928Y-102975000D01*
X88601848Y-102975000D01*
X88564157Y-102868748D01*
X88415178Y-102618645D01*
X88220269Y-102402412D01*
X87986920Y-102228359D01*
X87724099Y-102103175D01*
X87576890Y-102058524D01*
X87347000Y-102179845D01*
X87093000Y-102179845D01*
X86863110Y-102058524D01*
X86715901Y-102103175D01*
X86453080Y-102228359D01*
X86219731Y-102402412D01*
X86024822Y-102618645D01*
X85955195Y-102735534D01*
X85833475Y-102553368D01*
X85626632Y-102346525D01*
X85383411Y-102184010D01*
X85113158Y-102072068D01*
X84826260Y-102015000D01*
X84533740Y-102015000D01*
X84246842Y-102072068D01*
X83976589Y-102184010D01*
X83733368Y-102346525D01*
X83526525Y-102553368D01*
X83410000Y-102727760D01*
X83293475Y-102553368D01*
X83086632Y-102346525D01*
X82843411Y-102184010D01*
X82573158Y-102072068D01*
X82286260Y-102015000D01*
X81993740Y-102015000D01*
X81706842Y-102072068D01*
X81436589Y-102184010D01*
X81193368Y-102346525D01*
X81061513Y-102478380D01*
X81039502Y-102405820D01*
X80980537Y-102295506D01*
X80901185Y-102198815D01*
X80804494Y-102119463D01*
X80694180Y-102060498D01*
X80574482Y-102024188D01*
X80450000Y-102011928D01*
X78750000Y-102011928D01*
X78625518Y-102024188D01*
X78505820Y-102060498D01*
X78395506Y-102119463D01*
X78298815Y-102198815D01*
X78219463Y-102295506D01*
X78160498Y-102405820D01*
X78124188Y-102525518D01*
X78111928Y-102650000D01*
X78111928Y-104350000D01*
X78124188Y-104474482D01*
X78160498Y-104594180D01*
X78219463Y-104704494D01*
X78298815Y-104801185D01*
X78395506Y-104880537D01*
X78505820Y-104939502D01*
X78625518Y-104975812D01*
X78750000Y-104988072D01*
X80450000Y-104988072D01*
X80574482Y-104975812D01*
X80694180Y-104939502D01*
X80804494Y-104880537D01*
X80901185Y-104801185D01*
X80980537Y-104704494D01*
X81039502Y-104594180D01*
X81061513Y-104521620D01*
X81193368Y-104653475D01*
X81255001Y-104694657D01*
X81255000Y-107796531D01*
X81250719Y-107840000D01*
X81255000Y-107883469D01*
X81255000Y-107883476D01*
X81267805Y-108013489D01*
X81318411Y-108180312D01*
X81400589Y-108334058D01*
X81511183Y-108468817D01*
X81544956Y-108496534D01*
X83343470Y-110295049D01*
X83371183Y-110328817D01*
X83404951Y-110356530D01*
X83404953Y-110356532D01*
X83476452Y-110415210D01*
X83505941Y-110439411D01*
X83659687Y-110521589D01*
X83826510Y-110572195D01*
X83956523Y-110585000D01*
X83956533Y-110585000D01*
X83999999Y-110589281D01*
X84043465Y-110585000D01*
X94433422Y-110585000D01*
X97915001Y-114066580D01*
X97915000Y-123578421D01*
X95383072Y-126110350D01*
X95383072Y-125780000D01*
X95370812Y-125655518D01*
X95352454Y-125595000D01*
X95370812Y-125534482D01*
X95383072Y-125410000D01*
X95383072Y-124510000D01*
X95370812Y-124385518D01*
X95352454Y-124325000D01*
X95370812Y-124264482D01*
X95383072Y-124140000D01*
X95380000Y-123975750D01*
X95221250Y-123817000D01*
X93872000Y-123817000D01*
X93872000Y-123837000D01*
X93618000Y-123837000D01*
X93618000Y-123817000D01*
X92268750Y-123817000D01*
X92110000Y-123975750D01*
X92108144Y-124075000D01*
X89926579Y-124075000D01*
X89091579Y-123240000D01*
X92106928Y-123240000D01*
X92110000Y-123404250D01*
X92268750Y-123563000D01*
X93618000Y-123563000D01*
X93618000Y-122763750D01*
X93872000Y-122763750D01*
X93872000Y-123563000D01*
X95221250Y-123563000D01*
X95380000Y-123404250D01*
X95383072Y-123240000D01*
X95370812Y-123115518D01*
X95334502Y-122995820D01*
X95275537Y-122885506D01*
X95196185Y-122788815D01*
X95099494Y-122709463D01*
X94989180Y-122650498D01*
X94869482Y-122614188D01*
X94745000Y-122601928D01*
X94030750Y-122605000D01*
X93872000Y-122763750D01*
X93618000Y-122763750D01*
X93459250Y-122605000D01*
X92745000Y-122601928D01*
X92620518Y-122614188D01*
X92500820Y-122650498D01*
X92390506Y-122709463D01*
X92293815Y-122788815D01*
X92214463Y-122885506D01*
X92155498Y-122995820D01*
X92119188Y-123115518D01*
X92106928Y-123240000D01*
X89091579Y-123240000D01*
X83096533Y-117244955D01*
X83068816Y-117211182D01*
X82934058Y-117100588D01*
X82780312Y-117018410D01*
X82613489Y-116967804D01*
X82483476Y-116954999D01*
X82483468Y-116954999D01*
X82439999Y-116950718D01*
X82396530Y-116954999D01*
X58685000Y-116954999D01*
X58685000Y-116843740D01*
X58627932Y-116556842D01*
X58515990Y-116286589D01*
X58353475Y-116043368D01*
X58146632Y-115836525D01*
X57903411Y-115674010D01*
X57633158Y-115562068D01*
X57346260Y-115505000D01*
X57053740Y-115505000D01*
X56766842Y-115562068D01*
X56496589Y-115674010D01*
X56253368Y-115836525D01*
X56046525Y-116043368D01*
X55884010Y-116286589D01*
X55772068Y-116556842D01*
X55715000Y-116843740D01*
X55715000Y-117136260D01*
X55772068Y-117423158D01*
X55884010Y-117693411D01*
X56046525Y-117936632D01*
X56253368Y-118143475D01*
X56427760Y-118260000D01*
X56253368Y-118376525D01*
X56046525Y-118583368D01*
X55884010Y-118826589D01*
X55772068Y-119096842D01*
X55715000Y-119383740D01*
X55715000Y-119676260D01*
X55772068Y-119963158D01*
X55884010Y-120233411D01*
X56046525Y-120476632D01*
X56253368Y-120683475D01*
X56427760Y-120800000D01*
X56253368Y-120916525D01*
X56046525Y-121123368D01*
X55884010Y-121366589D01*
X55772068Y-121636842D01*
X55715000Y-121923740D01*
X55715000Y-122216260D01*
X55772068Y-122503158D01*
X55884010Y-122773411D01*
X56046525Y-123016632D01*
X56253368Y-123223475D01*
X56427760Y-123340000D01*
X56253368Y-123456525D01*
X56046525Y-123663368D01*
X55884010Y-123906589D01*
X55772068Y-124176842D01*
X55715000Y-124463740D01*
X55715000Y-124756260D01*
X55772068Y-125043158D01*
X55884010Y-125313411D01*
X56046525Y-125556632D01*
X56253368Y-125763475D01*
X56427760Y-125880000D01*
X56253368Y-125996525D01*
X56046525Y-126203368D01*
X55884010Y-126446589D01*
X55772068Y-126716842D01*
X55715000Y-127003740D01*
X55715000Y-127296260D01*
X55772068Y-127583158D01*
X55884010Y-127853411D01*
X56046525Y-128096632D01*
X56253368Y-128303475D01*
X56427760Y-128420000D01*
X56253368Y-128536525D01*
X56046525Y-128743368D01*
X55884010Y-128986589D01*
X55772068Y-129256842D01*
X55715000Y-129543740D01*
X55715000Y-129836260D01*
X55772068Y-130123158D01*
X55884010Y-130393411D01*
X56046525Y-130636632D01*
X56253368Y-130843475D01*
X56427760Y-130960000D01*
X56253368Y-131076525D01*
X56046525Y-131283368D01*
X55884010Y-131526589D01*
X55772068Y-131796842D01*
X55715000Y-132083740D01*
X55715000Y-132376260D01*
X55772068Y-132663158D01*
X55884010Y-132933411D01*
X56046525Y-133176632D01*
X56253368Y-133383475D01*
X56427760Y-133500000D01*
X56253368Y-133616525D01*
X56046525Y-133823368D01*
X55884010Y-134066589D01*
X55772068Y-134336842D01*
X55715000Y-134623740D01*
X55715000Y-134916260D01*
X55772068Y-135203158D01*
X55884010Y-135473411D01*
X56046525Y-135716632D01*
X56253368Y-135923475D01*
X56427760Y-136040000D01*
X56253368Y-136156525D01*
X56046525Y-136363368D01*
X55884010Y-136606589D01*
X55772068Y-136876842D01*
X55715000Y-137163740D01*
X55715000Y-137456260D01*
X55772068Y-137743158D01*
X55884010Y-138013411D01*
X56046525Y-138256632D01*
X56253368Y-138463475D01*
X56427760Y-138580000D01*
X56253368Y-138696525D01*
X56046525Y-138903368D01*
X55884010Y-139146589D01*
X55772068Y-139416842D01*
X55715000Y-139703740D01*
X55715000Y-139996260D01*
X55772068Y-140283158D01*
X55884010Y-140553411D01*
X56046525Y-140796632D01*
X56253368Y-141003475D01*
X56427760Y-141120000D01*
X56253368Y-141236525D01*
X56046525Y-141443368D01*
X55884010Y-141686589D01*
X55772068Y-141956842D01*
X55715000Y-142243740D01*
X55715000Y-142536260D01*
X55772068Y-142823158D01*
X55884010Y-143093411D01*
X56046525Y-143336632D01*
X56253368Y-143543475D01*
X56427760Y-143660000D01*
X56253368Y-143776525D01*
X56046525Y-143983368D01*
X55884010Y-144226589D01*
X55772068Y-144496842D01*
X55715000Y-144783740D01*
X55715000Y-145076260D01*
X55772068Y-145363158D01*
X55884010Y-145633411D01*
X56046525Y-145876632D01*
X56253368Y-146083475D01*
X56426729Y-146199311D01*
X56351208Y-146441603D01*
X57200000Y-147290395D01*
X58048792Y-146441603D01*
X57973271Y-146199311D01*
X58146632Y-146083475D01*
X58353475Y-145876632D01*
X58515990Y-145633411D01*
X58627932Y-145363158D01*
X58685000Y-145076260D01*
X58685000Y-144783740D01*
X58670539Y-144711039D01*
X62296579Y-141085000D01*
X75280532Y-141085000D01*
X75293815Y-141101185D01*
X75390506Y-141180537D01*
X75500820Y-141239502D01*
X75620518Y-141275812D01*
X75745000Y-141288072D01*
X76665351Y-141288072D01*
X70718485Y-147234939D01*
X61523530Y-147234939D01*
X61480061Y-147230658D01*
X61436592Y-147234939D01*
X61436584Y-147234939D01*
X61306571Y-147247744D01*
X61139748Y-147298350D01*
X61025147Y-147359605D01*
X60986002Y-147380528D01*
X60885014Y-147463407D01*
X60885012Y-147463409D01*
X60851244Y-147491122D01*
X60823531Y-147524890D01*
X59223422Y-149125000D01*
X58684625Y-149125000D01*
X58675812Y-149035518D01*
X58639502Y-148915820D01*
X58580537Y-148805506D01*
X58501185Y-148708815D01*
X58404494Y-148629463D01*
X58294180Y-148570498D01*
X58174482Y-148534188D01*
X58050000Y-148521928D01*
X58041458Y-148521928D01*
X58048792Y-148498397D01*
X57200000Y-147649605D01*
X56351208Y-148498397D01*
X56358542Y-148521928D01*
X56350000Y-148521928D01*
X56225518Y-148534188D01*
X56105820Y-148570498D01*
X55995506Y-148629463D01*
X55898815Y-148708815D01*
X55819463Y-148805506D01*
X55760498Y-148915820D01*
X55724188Y-149035518D01*
X55711928Y-149160000D01*
X55711928Y-150860000D01*
X55724188Y-150984482D01*
X55760498Y-151104180D01*
X55819463Y-151214494D01*
X55898815Y-151311185D01*
X55995506Y-151390537D01*
X56105820Y-151449502D01*
X56225518Y-151485812D01*
X56350000Y-151498072D01*
X58050000Y-151498072D01*
X58174482Y-151485812D01*
X58294180Y-151449502D01*
X58404494Y-151390537D01*
X58501185Y-151311185D01*
X58580537Y-151214494D01*
X58639502Y-151104180D01*
X58675812Y-150984482D01*
X58684625Y-150895000D01*
X59546531Y-150895000D01*
X59590000Y-150899281D01*
X59633469Y-150895000D01*
X59633477Y-150895000D01*
X59763490Y-150882195D01*
X59930313Y-150831589D01*
X60084059Y-150749411D01*
X60218817Y-150638817D01*
X60246534Y-150605044D01*
X61846640Y-149004939D01*
X71041594Y-149004939D01*
X71085063Y-149009220D01*
X71128532Y-149004939D01*
X71128540Y-149004939D01*
X71258553Y-148992134D01*
X71425376Y-148941528D01*
X71579122Y-148859350D01*
X71713880Y-148748756D01*
X71741597Y-148714983D01*
X78442729Y-142013852D01*
X78441928Y-142200000D01*
X78454188Y-142324482D01*
X78490498Y-142444180D01*
X78549463Y-142554494D01*
X78628815Y-142651185D01*
X78725506Y-142730537D01*
X78835820Y-142789502D01*
X78955518Y-142825812D01*
X79080000Y-142838072D01*
X79244250Y-142835000D01*
X79403000Y-142676250D01*
X79403000Y-141327000D01*
X79383000Y-141327000D01*
X79383000Y-141073000D01*
X79403000Y-141073000D01*
X79403000Y-139723750D01*
X79244250Y-139565000D01*
X79080001Y-139561928D01*
X79080001Y-133690000D01*
X81106928Y-133690000D01*
X81119188Y-133814482D01*
X81155498Y-133934180D01*
X81214463Y-134044494D01*
X81293815Y-134141185D01*
X81390506Y-134220537D01*
X81500820Y-134279502D01*
X81620518Y-134315812D01*
X81745000Y-134328072D01*
X83959250Y-134325000D01*
X84118000Y-134166250D01*
X84118000Y-131317000D01*
X81268750Y-131317000D01*
X81110000Y-131475750D01*
X81106928Y-133690000D01*
X79080001Y-133690000D01*
X79080001Y-128690000D01*
X81106928Y-128690000D01*
X81110000Y-130904250D01*
X81268750Y-131063000D01*
X84118000Y-131063000D01*
X84118000Y-128213750D01*
X83959250Y-128055000D01*
X81745000Y-128051928D01*
X81620518Y-128064188D01*
X81500820Y-128100498D01*
X81390506Y-128159463D01*
X81293815Y-128238815D01*
X81214463Y-128335506D01*
X81155498Y-128445820D01*
X81119188Y-128565518D01*
X81106928Y-128690000D01*
X79080001Y-128690000D01*
X79080001Y-125463468D01*
X79084282Y-125419999D01*
X79080001Y-125376530D01*
X79080001Y-125376522D01*
X79067196Y-125246509D01*
X79016590Y-125079686D01*
X78934412Y-124925940D01*
X78823818Y-124791182D01*
X78790046Y-124763466D01*
X78391536Y-124364956D01*
X78363819Y-124331183D01*
X78353218Y-124322483D01*
X78370812Y-124264482D01*
X78383072Y-124140000D01*
X78380000Y-123975750D01*
X78221250Y-123817000D01*
X76872000Y-123817000D01*
X76872000Y-123837000D01*
X76618000Y-123837000D01*
X76618000Y-123817000D01*
X75268750Y-123817000D01*
X75110000Y-123975750D01*
X75106928Y-124140000D01*
X75119188Y-124264482D01*
X75137546Y-124325000D01*
X75119188Y-124385518D01*
X75106928Y-124510000D01*
X75106928Y-125410000D01*
X75119188Y-125534482D01*
X75137546Y-125595000D01*
X75119188Y-125655518D01*
X75106928Y-125780000D01*
X75106928Y-126680000D01*
X75119188Y-126804482D01*
X75137546Y-126865000D01*
X75119188Y-126925518D01*
X75106928Y-127050000D01*
X75106928Y-127950000D01*
X75119188Y-128074482D01*
X75137546Y-128135000D01*
X75119188Y-128195518D01*
X75106928Y-128320000D01*
X75106928Y-129220000D01*
X75119188Y-129344482D01*
X75137546Y-129405000D01*
X75119188Y-129465518D01*
X75106928Y-129590000D01*
X75106928Y-130490000D01*
X75119188Y-130614482D01*
X75137546Y-130675000D01*
X75119188Y-130735518D01*
X75106928Y-130860000D01*
X75106928Y-131695000D01*
X64198660Y-131695000D01*
X59058615Y-126554956D01*
X59030898Y-126521183D01*
X58896140Y-126410589D01*
X58742394Y-126328411D01*
X58575571Y-126277805D01*
X58445558Y-126265000D01*
X58445550Y-126265000D01*
X58402081Y-126260719D01*
X58392431Y-126261669D01*
X58353475Y-126203368D01*
X58146632Y-125996525D01*
X57972240Y-125880000D01*
X58146632Y-125763475D01*
X58353475Y-125556632D01*
X58394656Y-125495000D01*
X68746531Y-125495000D01*
X68790000Y-125499281D01*
X68833469Y-125495000D01*
X68833477Y-125495000D01*
X68963490Y-125482195D01*
X69130313Y-125431589D01*
X69284059Y-125349411D01*
X69418817Y-125238817D01*
X69446534Y-125205044D01*
X71866579Y-122785000D01*
X75298464Y-122785000D01*
X75293815Y-122788815D01*
X75214463Y-122885506D01*
X75155498Y-122995820D01*
X75119188Y-123115518D01*
X75106928Y-123240000D01*
X75110000Y-123404250D01*
X75268750Y-123563000D01*
X76618000Y-123563000D01*
X76618000Y-123543000D01*
X76872000Y-123543000D01*
X76872000Y-123563000D01*
X78221250Y-123563000D01*
X78380000Y-123404250D01*
X78383072Y-123240000D01*
X78370812Y-123115518D01*
X78334502Y-122995820D01*
X78275537Y-122885506D01*
X78196185Y-122788815D01*
X78191536Y-122785000D01*
X81833422Y-122785000D01*
X87015000Y-127966579D01*
X87015000Y-128114299D01*
X86989180Y-128100498D01*
X86869482Y-128064188D01*
X86745000Y-128051928D01*
X84530750Y-128055000D01*
X84372000Y-128213750D01*
X84372000Y-131063000D01*
X84392000Y-131063000D01*
X84392000Y-131317000D01*
X84372000Y-131317000D01*
X84372000Y-134166250D01*
X84530750Y-134325000D01*
X86745000Y-134328072D01*
X86869482Y-134315812D01*
X86989180Y-134279502D01*
X87099494Y-134220537D01*
X87196185Y-134141185D01*
X87275537Y-134044494D01*
X87334502Y-133934180D01*
X87370812Y-133814482D01*
X87383072Y-133690000D01*
X87382856Y-133534434D01*
X88293470Y-134445049D01*
X88321183Y-134478817D01*
X88354951Y-134506530D01*
X88354953Y-134506532D01*
X88400827Y-134544180D01*
X88455941Y-134589411D01*
X88609687Y-134671589D01*
X88776510Y-134722195D01*
X88906523Y-134735000D01*
X88906533Y-134735000D01*
X88949999Y-134739281D01*
X88993465Y-134735000D01*
X92106928Y-134735000D01*
X92106928Y-135570000D01*
X92119188Y-135694482D01*
X92137546Y-135755000D01*
X92119188Y-135815518D01*
X92106928Y-135940000D01*
X92106928Y-136805879D01*
X91999687Y-136838411D01*
X91845941Y-136920589D01*
X91711183Y-137031183D01*
X91683466Y-137064956D01*
X91504956Y-137243466D01*
X91471183Y-137271183D01*
X91360589Y-137405942D01*
X91278411Y-137559688D01*
X91227805Y-137726511D01*
X91215000Y-137856524D01*
X91215000Y-137856531D01*
X91210719Y-137900000D01*
X91215000Y-137943469D01*
X91215000Y-139561928D01*
X90510000Y-139561928D01*
X90385518Y-139574188D01*
X90325000Y-139592546D01*
X90264482Y-139574188D01*
X90140000Y-139561928D01*
X89240000Y-139561928D01*
X89115518Y-139574188D01*
X89055000Y-139592546D01*
X88994482Y-139574188D01*
X88870000Y-139561928D01*
X87970000Y-139561928D01*
X87845518Y-139574188D01*
X87785000Y-139592546D01*
X87724482Y-139574188D01*
X87600000Y-139561928D01*
X86700000Y-139561928D01*
X86575518Y-139574188D01*
X86515000Y-139592546D01*
X86454482Y-139574188D01*
X86330000Y-139561928D01*
X85430000Y-139561928D01*
X85305518Y-139574188D01*
X85245000Y-139592546D01*
X85184482Y-139574188D01*
X85060000Y-139561928D01*
X84160000Y-139561928D01*
X84035518Y-139574188D01*
X83975000Y-139592546D01*
X83914482Y-139574188D01*
X83790000Y-139561928D01*
X82890000Y-139561928D01*
X82765518Y-139574188D01*
X82705000Y-139592546D01*
X82644482Y-139574188D01*
X82520000Y-139561928D01*
X81620000Y-139561928D01*
X81495518Y-139574188D01*
X81435000Y-139592546D01*
X81374482Y-139574188D01*
X81250000Y-139561928D01*
X80350000Y-139561928D01*
X80225518Y-139574188D01*
X80165000Y-139592546D01*
X80104482Y-139574188D01*
X79980000Y-139561928D01*
X79815750Y-139565000D01*
X79657000Y-139723750D01*
X79657000Y-141073000D01*
X79677000Y-141073000D01*
X79677000Y-141327000D01*
X79657000Y-141327000D01*
X79657000Y-142676250D01*
X79815750Y-142835000D01*
X79980000Y-142838072D01*
X80104482Y-142825812D01*
X80165000Y-142807454D01*
X80225518Y-142825812D01*
X80350000Y-142838072D01*
X81250000Y-142838072D01*
X81374482Y-142825812D01*
X81435000Y-142807454D01*
X81495518Y-142825812D01*
X81620000Y-142838072D01*
X82520000Y-142838072D01*
X82644482Y-142825812D01*
X82705000Y-142807454D01*
X82765518Y-142825812D01*
X82890000Y-142838072D01*
X83790000Y-142838072D01*
X83914482Y-142825812D01*
X83975000Y-142807454D01*
X84035518Y-142825812D01*
X84160000Y-142838072D01*
X85060000Y-142838072D01*
X85184482Y-142825812D01*
X85245000Y-142807454D01*
X85305518Y-142825812D01*
X85430000Y-142838072D01*
X86330000Y-142838072D01*
X86454482Y-142825812D01*
X86515000Y-142807454D01*
X86575518Y-142825812D01*
X86700000Y-142838072D01*
X87600000Y-142838072D01*
X87724482Y-142825812D01*
X87785000Y-142807454D01*
X87845518Y-142825812D01*
X87970000Y-142838072D01*
X88870000Y-142838072D01*
X88994482Y-142825812D01*
X89055000Y-142807454D01*
X89115518Y-142825812D01*
X89240000Y-142838072D01*
X90140000Y-142838072D01*
X90264482Y-142825812D01*
X90325000Y-142807454D01*
X90385518Y-142825812D01*
X90510000Y-142838072D01*
X91215001Y-142838072D01*
X91215001Y-147556521D01*
X91210719Y-147600000D01*
X91227805Y-147773490D01*
X91278412Y-147940313D01*
X91360590Y-148094059D01*
X91443468Y-148195046D01*
X91443471Y-148195049D01*
X91471184Y-148228817D01*
X91504952Y-148256530D01*
X99143470Y-155895049D01*
X99171183Y-155928817D01*
X99204951Y-155956530D01*
X99204953Y-155956532D01*
X99276452Y-156015210D01*
X99305941Y-156039411D01*
X99459687Y-156121589D01*
X99626510Y-156172195D01*
X99756523Y-156185000D01*
X99756533Y-156185000D01*
X99799999Y-156189281D01*
X99843465Y-156185000D01*
X131656531Y-156185000D01*
X131700000Y-156189281D01*
X131743469Y-156185000D01*
X131743477Y-156185000D01*
X131873490Y-156172195D01*
X132040313Y-156121589D01*
X132194059Y-156039411D01*
X132328817Y-155928817D01*
X132356534Y-155895044D01*
X133060349Y-155191229D01*
X135065000Y-155191229D01*
X135065000Y-155808771D01*
X135185476Y-156414446D01*
X135421799Y-156984979D01*
X135764886Y-157498446D01*
X136201554Y-157935114D01*
X136715021Y-158278201D01*
X137285554Y-158514524D01*
X137891229Y-158635000D01*
X138508771Y-158635000D01*
X139114446Y-158514524D01*
X139684979Y-158278201D01*
X140198446Y-157935114D01*
X140635114Y-157498446D01*
X140978201Y-156984979D01*
X141214524Y-156414446D01*
X141335000Y-155808771D01*
X141335000Y-155191229D01*
X141214524Y-154585554D01*
X140978201Y-154015021D01*
X140635114Y-153501554D01*
X140198446Y-153064886D01*
X139684979Y-152721799D01*
X139114446Y-152485476D01*
X138508771Y-152365000D01*
X137891229Y-152365000D01*
X137285554Y-152485476D01*
X136715021Y-152721799D01*
X136201554Y-153064886D01*
X135764886Y-153501554D01*
X135421799Y-154015021D01*
X135185476Y-154585554D01*
X135065000Y-155191229D01*
X133060349Y-155191229D01*
X136166579Y-152085000D01*
X150456531Y-152085000D01*
X150500000Y-152089281D01*
X150543469Y-152085000D01*
X150543477Y-152085000D01*
X150673490Y-152072195D01*
X150840313Y-152021589D01*
X150994059Y-151939411D01*
X151128817Y-151828817D01*
X151156534Y-151795044D01*
X152535050Y-150416529D01*
X152568817Y-150388817D01*
X152625124Y-150320208D01*
X152679411Y-150254059D01*
X152761589Y-150100314D01*
X152812195Y-149933490D01*
X152812195Y-149933489D01*
X152825000Y-149803477D01*
X152825000Y-149803469D01*
X152829281Y-149760000D01*
X152825000Y-149716531D01*
X152825000Y-148973685D01*
X153015799Y-148782886D01*
X153167371Y-148556043D01*
X153210000Y-148453127D01*
X153252629Y-148556043D01*
X153404201Y-148782886D01*
X153597114Y-148975799D01*
X153823957Y-149127371D01*
X154076011Y-149231775D01*
X154343589Y-149285000D01*
X154616411Y-149285000D01*
X154883989Y-149231775D01*
X155136043Y-149127371D01*
X155362886Y-148975799D01*
X155481692Y-148856993D01*
X156242612Y-148856993D01*
X156308137Y-149095860D01*
X156555116Y-149211760D01*
X156819960Y-149277250D01*
X157092492Y-149289812D01*
X157362238Y-149248965D01*
X157618832Y-149156277D01*
X157731863Y-149095860D01*
X157797388Y-148856993D01*
X157020000Y-148079605D01*
X156242612Y-148856993D01*
X155481692Y-148856993D01*
X155555799Y-148782886D01*
X155707371Y-148556043D01*
X155748511Y-148456721D01*
X155763723Y-148498832D01*
X155824140Y-148611863D01*
X156063007Y-148677388D01*
X156840395Y-147900000D01*
X157199605Y-147900000D01*
X157976993Y-148677388D01*
X158215860Y-148611863D01*
X158331760Y-148364884D01*
X158397250Y-148100040D01*
X158409812Y-147827508D01*
X158368965Y-147557762D01*
X158276277Y-147301168D01*
X158215860Y-147188137D01*
X157976993Y-147122612D01*
X157199605Y-147900000D01*
X156840395Y-147900000D01*
X156063007Y-147122612D01*
X155824140Y-147188137D01*
X155749836Y-147346477D01*
X155707371Y-147243957D01*
X155555799Y-147017114D01*
X155481692Y-146943007D01*
X156242612Y-146943007D01*
X157020000Y-147720395D01*
X157797388Y-146943007D01*
X157731863Y-146704140D01*
X157484884Y-146588240D01*
X157220040Y-146522750D01*
X156947508Y-146510188D01*
X156677762Y-146551035D01*
X156421168Y-146643723D01*
X156308137Y-146704140D01*
X156242612Y-146943007D01*
X155481692Y-146943007D01*
X155362886Y-146824201D01*
X155136043Y-146672629D01*
X154883989Y-146568225D01*
X154616411Y-146515000D01*
X154343589Y-146515000D01*
X154076011Y-146568225D01*
X153823957Y-146672629D01*
X153597114Y-146824201D01*
X153404201Y-147017114D01*
X153252629Y-147243957D01*
X153210000Y-147346873D01*
X153167371Y-147243957D01*
X153015799Y-147017114D01*
X152822886Y-146824201D01*
X152596043Y-146672629D01*
X152343989Y-146568225D01*
X152076411Y-146515000D01*
X151803589Y-146515000D01*
X151536011Y-146568225D01*
X151283957Y-146672629D01*
X151057114Y-146824201D01*
X150864201Y-147017114D01*
X150786445Y-147133483D01*
X150775812Y-147025518D01*
X150739502Y-146905820D01*
X150680537Y-146795506D01*
X150601185Y-146698815D01*
X150504494Y-146619463D01*
X150394180Y-146560498D01*
X150276965Y-146524941D01*
X150272195Y-146476510D01*
X150221589Y-146309687D01*
X150139411Y-146155941D01*
X150028817Y-146021183D01*
X149995045Y-145993467D01*
X149906534Y-145904956D01*
X149878817Y-145871183D01*
X149744059Y-145760589D01*
X149675549Y-145723970D01*
X148656534Y-144704956D01*
X148628817Y-144671183D01*
X148494059Y-144560589D01*
X148340313Y-144478411D01*
X148173490Y-144427805D01*
X148043477Y-144415000D01*
X148043469Y-144415000D01*
X148000000Y-144410719D01*
X147956531Y-144415000D01*
X137416579Y-144415000D01*
X129756532Y-136754954D01*
X129728817Y-136721183D01*
X129594059Y-136610589D01*
X129440313Y-136528411D01*
X129313691Y-136490000D01*
X137691928Y-136490000D01*
X137691928Y-138190000D01*
X137704188Y-138314482D01*
X137740498Y-138434180D01*
X137799463Y-138544494D01*
X137878815Y-138641185D01*
X137975506Y-138720537D01*
X138085820Y-138779502D01*
X138205518Y-138815812D01*
X138330000Y-138828072D01*
X140030000Y-138828072D01*
X140154482Y-138815812D01*
X140274180Y-138779502D01*
X140384494Y-138720537D01*
X140481185Y-138641185D01*
X140560537Y-138544494D01*
X140619502Y-138434180D01*
X140655812Y-138314482D01*
X140668072Y-138190000D01*
X140668072Y-136490000D01*
X140655812Y-136365518D01*
X140619502Y-136245820D01*
X140560537Y-136135506D01*
X140481185Y-136038815D01*
X140384494Y-135959463D01*
X140274180Y-135900498D01*
X140201620Y-135878487D01*
X140333475Y-135746632D01*
X140495990Y-135503411D01*
X140607932Y-135233158D01*
X140665000Y-134946260D01*
X140665000Y-134653740D01*
X140607932Y-134366842D01*
X140495990Y-134096589D01*
X140333475Y-133853368D01*
X140126632Y-133646525D01*
X139952240Y-133530000D01*
X140126632Y-133413475D01*
X140333475Y-133206632D01*
X140495990Y-132963411D01*
X140607932Y-132693158D01*
X140665000Y-132406260D01*
X140665000Y-132113740D01*
X140607932Y-131826842D01*
X140495990Y-131556589D01*
X140333475Y-131313368D01*
X140126632Y-131106525D01*
X139952240Y-130990000D01*
X140126632Y-130873475D01*
X140333475Y-130666632D01*
X140495990Y-130423411D01*
X140607932Y-130153158D01*
X140665000Y-129866260D01*
X140665000Y-129573740D01*
X140607932Y-129286842D01*
X140495990Y-129016589D01*
X140333475Y-128773368D01*
X140126632Y-128566525D01*
X139883411Y-128404010D01*
X139613158Y-128292068D01*
X139326260Y-128235000D01*
X139033740Y-128235000D01*
X138746842Y-128292068D01*
X138476589Y-128404010D01*
X138233368Y-128566525D01*
X138026525Y-128773368D01*
X137864010Y-129016589D01*
X137752068Y-129286842D01*
X137695000Y-129573740D01*
X137695000Y-129866260D01*
X137752068Y-130153158D01*
X137864010Y-130423411D01*
X138026525Y-130666632D01*
X138233368Y-130873475D01*
X138407760Y-130990000D01*
X138233368Y-131106525D01*
X138026525Y-131313368D01*
X137864010Y-131556589D01*
X137752068Y-131826842D01*
X137695000Y-132113740D01*
X137695000Y-132406260D01*
X137752068Y-132693158D01*
X137864010Y-132963411D01*
X138026525Y-133206632D01*
X138233368Y-133413475D01*
X138407760Y-133530000D01*
X138233368Y-133646525D01*
X138026525Y-133853368D01*
X137864010Y-134096589D01*
X137752068Y-134366842D01*
X137695000Y-134653740D01*
X137695000Y-134946260D01*
X137752068Y-135233158D01*
X137864010Y-135503411D01*
X138026525Y-135746632D01*
X138158380Y-135878487D01*
X138085820Y-135900498D01*
X137975506Y-135959463D01*
X137878815Y-136038815D01*
X137799463Y-136135506D01*
X137740498Y-136245820D01*
X137704188Y-136365518D01*
X137691928Y-136490000D01*
X129313691Y-136490000D01*
X129273490Y-136477805D01*
X129238072Y-136474317D01*
X129238072Y-136350000D01*
X129225812Y-136225518D01*
X129189502Y-136105820D01*
X129130537Y-135995506D01*
X129051185Y-135898815D01*
X128954494Y-135819463D01*
X128844180Y-135760498D01*
X128724482Y-135724188D01*
X128600000Y-135711928D01*
X127985000Y-135711928D01*
X127985000Y-133384229D01*
X128068671Y-133282275D01*
X128147850Y-133134142D01*
X128196608Y-132973408D01*
X128213072Y-132806250D01*
X128213072Y-132368750D01*
X128196608Y-132201592D01*
X128147850Y-132040858D01*
X128071223Y-131897500D01*
X133144031Y-131897500D01*
X133187500Y-131901781D01*
X133230969Y-131897500D01*
X133230977Y-131897500D01*
X133360990Y-131884695D01*
X133527813Y-131834089D01*
X133681559Y-131751911D01*
X133816317Y-131641317D01*
X133844034Y-131607544D01*
X142790000Y-122661579D01*
X142790001Y-142265113D01*
X142786565Y-142300000D01*
X142800273Y-142439184D01*
X142840872Y-142573020D01*
X142906800Y-142696363D01*
X142995525Y-142804475D01*
X143103637Y-142893200D01*
X143226980Y-142959128D01*
X143360816Y-142999727D01*
X143465123Y-143010000D01*
X143500000Y-143013435D01*
X143534877Y-143010000D01*
X159790000Y-143010000D01*
X159790001Y-156806441D01*
X159548446Y-156564886D01*
X159034979Y-156221799D01*
X158464446Y-155985476D01*
X157858771Y-155865000D01*
X157241229Y-155865000D01*
X156635554Y-155985476D01*
X156065021Y-156221799D01*
X155551554Y-156564886D01*
X155114886Y-157001554D01*
X154771799Y-157515021D01*
X154535476Y-158085554D01*
X154415000Y-158691229D01*
X154415000Y-159308771D01*
X154535476Y-159914446D01*
X154771799Y-160484979D01*
X155114886Y-160998446D01*
X155406440Y-161290000D01*
X47143560Y-161290000D01*
X47435114Y-160998446D01*
X47778201Y-160484979D01*
X48014524Y-159914446D01*
X48135000Y-159308771D01*
X48135000Y-158691229D01*
X48014524Y-158085554D01*
X47778201Y-157515021D01*
X47435114Y-157001554D01*
X46998446Y-156564886D01*
X46484979Y-156221799D01*
X45914446Y-155985476D01*
X45308771Y-155865000D01*
X44691229Y-155865000D01*
X44085554Y-155985476D01*
X43515021Y-156221799D01*
X43001554Y-156564886D01*
X42710000Y-156856440D01*
X42710000Y-155241229D01*
X58990000Y-155241229D01*
X58990000Y-155858771D01*
X59110476Y-156464446D01*
X59346799Y-157034979D01*
X59689886Y-157548446D01*
X60126554Y-157985114D01*
X60640021Y-158328201D01*
X61210554Y-158564524D01*
X61816229Y-158685000D01*
X62433771Y-158685000D01*
X63039446Y-158564524D01*
X63609979Y-158328201D01*
X64123446Y-157985114D01*
X64560114Y-157548446D01*
X64903201Y-157034979D01*
X65139524Y-156464446D01*
X65260000Y-155858771D01*
X65260000Y-155241229D01*
X65139524Y-154635554D01*
X64903201Y-154065021D01*
X64560114Y-153551554D01*
X64123446Y-153114886D01*
X63609979Y-152771799D01*
X63039446Y-152535476D01*
X62433771Y-152415000D01*
X61816229Y-152415000D01*
X61210554Y-152535476D01*
X60640021Y-152771799D01*
X60126554Y-153114886D01*
X59689886Y-153551554D01*
X59346799Y-154065021D01*
X59110476Y-154635554D01*
X58990000Y-155241229D01*
X42710000Y-155241229D01*
X42710000Y-148849651D01*
X47009954Y-148849651D01*
X47196039Y-149190815D01*
X47613384Y-149406568D01*
X48064802Y-149536755D01*
X48532944Y-149576374D01*
X48999821Y-149523901D01*
X49447489Y-149381354D01*
X49803961Y-149190815D01*
X49990046Y-148849651D01*
X48500000Y-147359605D01*
X47009954Y-148849651D01*
X42710000Y-148849651D01*
X42710000Y-147212944D01*
X46103626Y-147212944D01*
X46156099Y-147679821D01*
X46298646Y-148127489D01*
X46489185Y-148483961D01*
X46830349Y-148670046D01*
X48320395Y-147180000D01*
X48679605Y-147180000D01*
X50169651Y-148670046D01*
X50510815Y-148483961D01*
X50726568Y-148066616D01*
X50856755Y-147615198D01*
X50863243Y-147538531D01*
X55709389Y-147538531D01*
X55751401Y-147828019D01*
X55849081Y-148103747D01*
X55922528Y-148241157D01*
X56171603Y-148318792D01*
X57020395Y-147470000D01*
X57379605Y-147470000D01*
X58228397Y-148318792D01*
X58477472Y-148241157D01*
X58603371Y-147977117D01*
X58675339Y-147693589D01*
X58690611Y-147401469D01*
X58648599Y-147111981D01*
X58550919Y-146836253D01*
X58477472Y-146698843D01*
X58228397Y-146621208D01*
X57379605Y-147470000D01*
X57020395Y-147470000D01*
X56171603Y-146621208D01*
X55922528Y-146698843D01*
X55796629Y-146962883D01*
X55724661Y-147246411D01*
X55709389Y-147538531D01*
X50863243Y-147538531D01*
X50896374Y-147147056D01*
X50843901Y-146680179D01*
X50701354Y-146232511D01*
X50510815Y-145876039D01*
X50169651Y-145689954D01*
X48679605Y-147180000D01*
X48320395Y-147180000D01*
X46830349Y-145689954D01*
X46489185Y-145876039D01*
X46273432Y-146293384D01*
X46143245Y-146744802D01*
X46103626Y-147212944D01*
X42710000Y-147212944D01*
X42710000Y-145510349D01*
X47009954Y-145510349D01*
X48500000Y-147000395D01*
X49990046Y-145510349D01*
X49803961Y-145169185D01*
X49386616Y-144953432D01*
X48935198Y-144823245D01*
X48467056Y-144783626D01*
X48000179Y-144836099D01*
X47552511Y-144978646D01*
X47196039Y-145169185D01*
X47009954Y-145510349D01*
X42710000Y-145510349D01*
X42710000Y-140349940D01*
X46111868Y-140349940D01*
X46111868Y-143850060D01*
X46124128Y-143974542D01*
X46160438Y-144094240D01*
X46219403Y-144204554D01*
X46298755Y-144301245D01*
X46395446Y-144380597D01*
X46505760Y-144439562D01*
X46625458Y-144475872D01*
X46749940Y-144488132D01*
X50250060Y-144488132D01*
X50374542Y-144475872D01*
X50494240Y-144439562D01*
X50604554Y-144380597D01*
X50701245Y-144301245D01*
X50780597Y-144204554D01*
X50839562Y-144094240D01*
X50875872Y-143974542D01*
X50888132Y-143850060D01*
X50888132Y-140349940D01*
X50875872Y-140225458D01*
X50839562Y-140105760D01*
X50780597Y-139995446D01*
X50701245Y-139898755D01*
X50604554Y-139819403D01*
X50494240Y-139760438D01*
X50374542Y-139724128D01*
X50250060Y-139711868D01*
X46749940Y-139711868D01*
X46625458Y-139724128D01*
X46505760Y-139760438D01*
X46395446Y-139819403D01*
X46298755Y-139898755D01*
X46219403Y-139995446D01*
X46160438Y-140105760D01*
X46124128Y-140225458D01*
X46111868Y-140349940D01*
X42710000Y-140349940D01*
X42710000Y-111201229D01*
X58990000Y-111201229D01*
X58990000Y-111818771D01*
X59110476Y-112424446D01*
X59346799Y-112994979D01*
X59689886Y-113508446D01*
X60126554Y-113945114D01*
X60640021Y-114288201D01*
X61210554Y-114524524D01*
X61816229Y-114645000D01*
X62433771Y-114645000D01*
X63039446Y-114524524D01*
X63609979Y-114288201D01*
X64123446Y-113945114D01*
X64560114Y-113508446D01*
X64903201Y-112994979D01*
X65139524Y-112424446D01*
X65260000Y-111818771D01*
X65260000Y-111201229D01*
X65139524Y-110595554D01*
X64903201Y-110025021D01*
X64560114Y-109511554D01*
X64123446Y-109074886D01*
X63609979Y-108731799D01*
X63039446Y-108495476D01*
X62433771Y-108375000D01*
X61816229Y-108375000D01*
X61210554Y-108495476D01*
X60640021Y-108731799D01*
X60126554Y-109074886D01*
X59689886Y-109511554D01*
X59346799Y-110025021D01*
X59110476Y-110595554D01*
X58990000Y-111201229D01*
X42710000Y-111201229D01*
X42710000Y-98643560D01*
X43001554Y-98935114D01*
X43515021Y-99278201D01*
X44085554Y-99514524D01*
X44691229Y-99635000D01*
X45308771Y-99635000D01*
X45914446Y-99514524D01*
X46484979Y-99278201D01*
X46998446Y-98935114D01*
X47029286Y-98904274D01*
X47029286Y-100030000D01*
X77170715Y-100030000D01*
X77170715Y-98171984D01*
X97365000Y-98171984D01*
X97365000Y-98888016D01*
X97504691Y-99590290D01*
X97778705Y-100251818D01*
X98176511Y-100847177D01*
X98682823Y-101353489D01*
X99278182Y-101751295D01*
X99939710Y-102025309D01*
X100641984Y-102165000D01*
X101358016Y-102165000D01*
X102060290Y-102025309D01*
X102721818Y-101751295D01*
X103317177Y-101353489D01*
X103823489Y-100847177D01*
X104221295Y-100251818D01*
X104495309Y-99590290D01*
X104635000Y-98888016D01*
X104635000Y-98171984D01*
X104495309Y-97469710D01*
X104221295Y-96808182D01*
X103823489Y-96212823D01*
X103317177Y-95706511D01*
X102721818Y-95308705D01*
X102060290Y-95034691D01*
X101358016Y-94895000D01*
X100641984Y-94895000D01*
X99939710Y-95034691D01*
X99278182Y-95308705D01*
X98682823Y-95706511D01*
X98176511Y-96212823D01*
X97778705Y-96808182D01*
X97504691Y-97469710D01*
X97365000Y-98171984D01*
X77170715Y-98171984D01*
X77170715Y-96210000D01*
X48135000Y-96210000D01*
X48135000Y-96191229D01*
X48014524Y-95585554D01*
X47778201Y-95015021D01*
X47435114Y-94501554D01*
X47143560Y-94210000D01*
X155543506Y-94210000D01*
X155515021Y-94221799D01*
G36*
X126003392Y-132973408D02*
G01*
X126052150Y-133134142D01*
X126131329Y-133282275D01*
X126215000Y-133384230D01*
X126215001Y-135711928D01*
X124800000Y-135711928D01*
X124675518Y-135724188D01*
X124555820Y-135760498D01*
X124445506Y-135819463D01*
X124348815Y-135898815D01*
X124269463Y-135995506D01*
X124210498Y-136105820D01*
X124174188Y-136225518D01*
X124161928Y-136350000D01*
X124161928Y-138350000D01*
X124174188Y-138474482D01*
X124210498Y-138594180D01*
X124269463Y-138704494D01*
X124348815Y-138801185D01*
X124445506Y-138880537D01*
X124555820Y-138939502D01*
X124675518Y-138975812D01*
X124800000Y-138988072D01*
X125815001Y-138988072D01*
X125815000Y-142027379D01*
X125705820Y-142060498D01*
X125595506Y-142119463D01*
X125550000Y-142156809D01*
X125504494Y-142119463D01*
X125394180Y-142060498D01*
X125274482Y-142024188D01*
X125150000Y-142011928D01*
X124685750Y-142015000D01*
X124527000Y-142173750D01*
X124527000Y-143523000D01*
X124547000Y-143523000D01*
X124547000Y-143777000D01*
X124527000Y-143777000D01*
X124527000Y-145126250D01*
X124685750Y-145285000D01*
X125150000Y-145288072D01*
X125274482Y-145275812D01*
X125394180Y-145239502D01*
X125504494Y-145180537D01*
X125550000Y-145143191D01*
X125595506Y-145180537D01*
X125705820Y-145239502D01*
X125825518Y-145275812D01*
X125950000Y-145288072D01*
X126252501Y-145288072D01*
X126252500Y-146111343D01*
X126201185Y-146048815D01*
X126104494Y-145969463D01*
X125994180Y-145910498D01*
X125874482Y-145874188D01*
X125750000Y-145861928D01*
X125548250Y-145865000D01*
X125389500Y-146023750D01*
X125389500Y-147073000D01*
X125409500Y-147073000D01*
X125409500Y-147327000D01*
X125389500Y-147327000D01*
X125389500Y-148376250D01*
X125548250Y-148535000D01*
X125750000Y-148538072D01*
X125874482Y-148525812D01*
X125994180Y-148489502D01*
X126104494Y-148430537D01*
X126201185Y-148351185D01*
X126264992Y-148273436D01*
X126270208Y-148279792D01*
X126403836Y-148389458D01*
X126556291Y-148470947D01*
X126721715Y-148521128D01*
X126893750Y-148538072D01*
X127381250Y-148538072D01*
X127553285Y-148521128D01*
X127718709Y-148470947D01*
X127871164Y-148389458D01*
X128004792Y-148279792D01*
X128114458Y-148146164D01*
X128115000Y-148145150D01*
X128115000Y-149170921D01*
X127223994Y-150061928D01*
X126893750Y-150061928D01*
X126721715Y-150078872D01*
X126556291Y-150129053D01*
X126403836Y-150210542D01*
X126270208Y-150320208D01*
X126264992Y-150326564D01*
X126201185Y-150248815D01*
X126104494Y-150169463D01*
X125994180Y-150110498D01*
X125874482Y-150074188D01*
X125750000Y-150061928D01*
X125548250Y-150065000D01*
X125389500Y-150223750D01*
X125389500Y-151273000D01*
X125409500Y-151273000D01*
X125409500Y-151527000D01*
X125389500Y-151527000D01*
X125389500Y-151547000D01*
X125135500Y-151547000D01*
X125135500Y-151527000D01*
X124298750Y-151527000D01*
X124140000Y-151685750D01*
X124136928Y-152100000D01*
X124149188Y-152224482D01*
X124185498Y-152344180D01*
X124244463Y-152454494D01*
X124323815Y-152551185D01*
X124420506Y-152630537D01*
X124530820Y-152689502D01*
X124614876Y-152715000D01*
X109866579Y-152715000D01*
X107851579Y-150700000D01*
X124136928Y-150700000D01*
X124140000Y-151114250D01*
X124298750Y-151273000D01*
X125135500Y-151273000D01*
X125135500Y-150223750D01*
X124976750Y-150065000D01*
X124775000Y-150061928D01*
X124650518Y-150074188D01*
X124530820Y-150110498D01*
X124420506Y-150169463D01*
X124323815Y-150248815D01*
X124244463Y-150345506D01*
X124185498Y-150455820D01*
X124149188Y-150575518D01*
X124136928Y-150700000D01*
X107851579Y-150700000D01*
X106309141Y-149157563D01*
X106390661Y-149090661D01*
X106582481Y-148856927D01*
X106725017Y-148590261D01*
X106812790Y-148300913D01*
X106835000Y-148075408D01*
X106835000Y-147900000D01*
X124136928Y-147900000D01*
X124149188Y-148024482D01*
X124185498Y-148144180D01*
X124244463Y-148254494D01*
X124323815Y-148351185D01*
X124420506Y-148430537D01*
X124530820Y-148489502D01*
X124650518Y-148525812D01*
X124775000Y-148538072D01*
X124976750Y-148535000D01*
X125135500Y-148376250D01*
X125135500Y-147327000D01*
X124298750Y-147327000D01*
X124140000Y-147485750D01*
X124136928Y-147900000D01*
X106835000Y-147900000D01*
X106835000Y-146500000D01*
X124136928Y-146500000D01*
X124140000Y-146914250D01*
X124298750Y-147073000D01*
X125135500Y-147073000D01*
X125135500Y-146023750D01*
X124976750Y-145865000D01*
X124775000Y-145861928D01*
X124650518Y-145874188D01*
X124530820Y-145910498D01*
X124420506Y-145969463D01*
X124323815Y-146048815D01*
X124244463Y-146145506D01*
X124185498Y-146255820D01*
X124149188Y-146375518D01*
X124136928Y-146500000D01*
X106835000Y-146500000D01*
X106835000Y-145724592D01*
X106812790Y-145499087D01*
X106725017Y-145209739D01*
X106582481Y-144943073D01*
X106390661Y-144709339D01*
X106318356Y-144650000D01*
X123011928Y-144650000D01*
X123024188Y-144774482D01*
X123060498Y-144894180D01*
X123119463Y-145004494D01*
X123198815Y-145101185D01*
X123295506Y-145180537D01*
X123405820Y-145239502D01*
X123525518Y-145275812D01*
X123650000Y-145288072D01*
X124114250Y-145285000D01*
X124273000Y-145126250D01*
X124273000Y-143777000D01*
X123173750Y-143777000D01*
X123015000Y-143935750D01*
X123011928Y-144650000D01*
X106318356Y-144650000D01*
X106156926Y-144517519D01*
X105890260Y-144374983D01*
X105600912Y-144287210D01*
X105300000Y-144257573D01*
X104999087Y-144287210D01*
X104709739Y-144374983D01*
X104443073Y-144517519D01*
X104209339Y-144709339D01*
X104017519Y-144943074D01*
X103874983Y-145209740D01*
X103787210Y-145499088D01*
X103765000Y-145724593D01*
X103765001Y-148075408D01*
X103787211Y-148300913D01*
X103874984Y-148590261D01*
X104017520Y-148856927D01*
X104209340Y-149090661D01*
X104415000Y-149259441D01*
X104415000Y-149356531D01*
X104410719Y-149400000D01*
X104415000Y-149443469D01*
X104415000Y-149443476D01*
X104424746Y-149542427D01*
X104427805Y-149573490D01*
X104428680Y-149576374D01*
X104478411Y-149740312D01*
X104560589Y-149894058D01*
X104671183Y-150028817D01*
X104704956Y-150056534D01*
X108843470Y-154195049D01*
X108871183Y-154228817D01*
X108904951Y-154256530D01*
X108904953Y-154256532D01*
X108976452Y-154315210D01*
X109005941Y-154339411D01*
X109147360Y-154415000D01*
X100166579Y-154415000D01*
X94851579Y-149100000D01*
X97961928Y-149100000D01*
X97974188Y-149224482D01*
X98010498Y-149344180D01*
X98069463Y-149454494D01*
X98148815Y-149551185D01*
X98245506Y-149630537D01*
X98355820Y-149689502D01*
X98475518Y-149725812D01*
X98600000Y-149738072D01*
X99214250Y-149735000D01*
X99373000Y-149576250D01*
X99373000Y-147027000D01*
X99627000Y-147027000D01*
X99627000Y-149576250D01*
X99785750Y-149735000D01*
X100400000Y-149738072D01*
X100524482Y-149725812D01*
X100644180Y-149689502D01*
X100754494Y-149630537D01*
X100851185Y-149551185D01*
X100930537Y-149454494D01*
X100989502Y-149344180D01*
X101025812Y-149224482D01*
X101038072Y-149100000D01*
X101035000Y-147185750D01*
X100876250Y-147027000D01*
X99627000Y-147027000D01*
X99373000Y-147027000D01*
X98123750Y-147027000D01*
X97965000Y-147185750D01*
X97961928Y-149100000D01*
X94851579Y-149100000D01*
X92985000Y-147233422D01*
X92985000Y-144700000D01*
X97961928Y-144700000D01*
X97965000Y-146614250D01*
X98123750Y-146773000D01*
X99373000Y-146773000D01*
X99373000Y-144223750D01*
X99627000Y-144223750D01*
X99627000Y-146773000D01*
X100876250Y-146773000D01*
X101035000Y-146614250D01*
X101038072Y-144700000D01*
X101025812Y-144575518D01*
X100989502Y-144455820D01*
X100930537Y-144345506D01*
X100851185Y-144248815D01*
X100754494Y-144169463D01*
X100644180Y-144110498D01*
X100524482Y-144074188D01*
X100400000Y-144061928D01*
X99785750Y-144065000D01*
X99627000Y-144223750D01*
X99373000Y-144223750D01*
X99214250Y-144065000D01*
X98600000Y-144061928D01*
X98475518Y-144074188D01*
X98355820Y-144110498D01*
X98245506Y-144169463D01*
X98148815Y-144248815D01*
X98069463Y-144345506D01*
X98010498Y-144455820D01*
X97974188Y-144575518D01*
X97961928Y-144700000D01*
X92985000Y-144700000D01*
X92985000Y-141288072D01*
X94745000Y-141288072D01*
X94869482Y-141275812D01*
X94989180Y-141239502D01*
X95099494Y-141180537D01*
X95196185Y-141101185D01*
X95209468Y-141085000D01*
X100247246Y-141085000D01*
X100117519Y-141243073D01*
X99974983Y-141509739D01*
X99887210Y-141799087D01*
X99857573Y-142100000D01*
X99887210Y-142400913D01*
X99974983Y-142690261D01*
X100117519Y-142956927D01*
X100309339Y-143190661D01*
X100543073Y-143382481D01*
X100809739Y-143525017D01*
X101099087Y-143612790D01*
X101324592Y-143635000D01*
X103675408Y-143635000D01*
X103900913Y-143612790D01*
X104190261Y-143525017D01*
X104456927Y-143382481D01*
X104690661Y-143190661D01*
X104882481Y-142956927D01*
X105025017Y-142690261D01*
X105037230Y-142650000D01*
X123011928Y-142650000D01*
X123015000Y-143364250D01*
X123173750Y-143523000D01*
X124273000Y-143523000D01*
X124273000Y-142173750D01*
X124114250Y-142015000D01*
X123650000Y-142011928D01*
X123525518Y-142024188D01*
X123405820Y-142060498D01*
X123295506Y-142119463D01*
X123198815Y-142198815D01*
X123119463Y-142295506D01*
X123060498Y-142405820D01*
X123024188Y-142525518D01*
X123011928Y-142650000D01*
X105037230Y-142650000D01*
X105112790Y-142400913D01*
X105142427Y-142100000D01*
X105112790Y-141799087D01*
X105025017Y-141509739D01*
X104882481Y-141243073D01*
X104752754Y-141085000D01*
X117394031Y-141085000D01*
X117437500Y-141089281D01*
X117480969Y-141085000D01*
X117480977Y-141085000D01*
X117610990Y-141072195D01*
X117777813Y-141021589D01*
X117931559Y-140939411D01*
X118066317Y-140828817D01*
X118094034Y-140795044D01*
X125995527Y-132893552D01*
X126003392Y-132973408D01*
G37*
X126003392Y-132973408D02*
X126052150Y-133134142D01*
X126131329Y-133282275D01*
X126215000Y-133384230D01*
X126215001Y-135711928D01*
X124800000Y-135711928D01*
X124675518Y-135724188D01*
X124555820Y-135760498D01*
X124445506Y-135819463D01*
X124348815Y-135898815D01*
X124269463Y-135995506D01*
X124210498Y-136105820D01*
X124174188Y-136225518D01*
X124161928Y-136350000D01*
X124161928Y-138350000D01*
X124174188Y-138474482D01*
X124210498Y-138594180D01*
X124269463Y-138704494D01*
X124348815Y-138801185D01*
X124445506Y-138880537D01*
X124555820Y-138939502D01*
X124675518Y-138975812D01*
X124800000Y-138988072D01*
X125815001Y-138988072D01*
X125815000Y-142027379D01*
X125705820Y-142060498D01*
X125595506Y-142119463D01*
X125550000Y-142156809D01*
X125504494Y-142119463D01*
X125394180Y-142060498D01*
X125274482Y-142024188D01*
X125150000Y-142011928D01*
X124685750Y-142015000D01*
X124527000Y-142173750D01*
X124527000Y-143523000D01*
X124547000Y-143523000D01*
X124547000Y-143777000D01*
X124527000Y-143777000D01*
X124527000Y-145126250D01*
X124685750Y-145285000D01*
X125150000Y-145288072D01*
X125274482Y-145275812D01*
X125394180Y-145239502D01*
X125504494Y-145180537D01*
X125550000Y-145143191D01*
X125595506Y-145180537D01*
X125705820Y-145239502D01*
X125825518Y-145275812D01*
X125950000Y-145288072D01*
X126252501Y-145288072D01*
X126252500Y-146111343D01*
X126201185Y-146048815D01*
X126104494Y-145969463D01*
X125994180Y-145910498D01*
X125874482Y-145874188D01*
X125750000Y-145861928D01*
X125548250Y-145865000D01*
X125389500Y-146023750D01*
X125389500Y-147073000D01*
X125409500Y-147073000D01*
X125409500Y-147327000D01*
X125389500Y-147327000D01*
X125389500Y-148376250D01*
X125548250Y-148535000D01*
X125750000Y-148538072D01*
X125874482Y-148525812D01*
X125994180Y-148489502D01*
X126104494Y-148430537D01*
X126201185Y-148351185D01*
X126264992Y-148273436D01*
X126270208Y-148279792D01*
X126403836Y-148389458D01*
X126556291Y-148470947D01*
X126721715Y-148521128D01*
X126893750Y-148538072D01*
X127381250Y-148538072D01*
X127553285Y-148521128D01*
X127718709Y-148470947D01*
X127871164Y-148389458D01*
X128004792Y-148279792D01*
X128114458Y-148146164D01*
X128115000Y-148145150D01*
X128115000Y-149170921D01*
X127223994Y-150061928D01*
X126893750Y-150061928D01*
X126721715Y-150078872D01*
X126556291Y-150129053D01*
X126403836Y-150210542D01*
X126270208Y-150320208D01*
X126264992Y-150326564D01*
X126201185Y-150248815D01*
X126104494Y-150169463D01*
X125994180Y-150110498D01*
X125874482Y-150074188D01*
X125750000Y-150061928D01*
X125548250Y-150065000D01*
X125389500Y-150223750D01*
X125389500Y-151273000D01*
X125409500Y-151273000D01*
X125409500Y-151527000D01*
X125389500Y-151527000D01*
X125389500Y-151547000D01*
X125135500Y-151547000D01*
X125135500Y-151527000D01*
X124298750Y-151527000D01*
X124140000Y-151685750D01*
X124136928Y-152100000D01*
X124149188Y-152224482D01*
X124185498Y-152344180D01*
X124244463Y-152454494D01*
X124323815Y-152551185D01*
X124420506Y-152630537D01*
X124530820Y-152689502D01*
X124614876Y-152715000D01*
X109866579Y-152715000D01*
X107851579Y-150700000D01*
X124136928Y-150700000D01*
X124140000Y-151114250D01*
X124298750Y-151273000D01*
X125135500Y-151273000D01*
X125135500Y-150223750D01*
X124976750Y-150065000D01*
X124775000Y-150061928D01*
X124650518Y-150074188D01*
X124530820Y-150110498D01*
X124420506Y-150169463D01*
X124323815Y-150248815D01*
X124244463Y-150345506D01*
X124185498Y-150455820D01*
X124149188Y-150575518D01*
X124136928Y-150700000D01*
X107851579Y-150700000D01*
X106309141Y-149157563D01*
X106390661Y-149090661D01*
X106582481Y-148856927D01*
X106725017Y-148590261D01*
X106812790Y-148300913D01*
X106835000Y-148075408D01*
X106835000Y-147900000D01*
X124136928Y-147900000D01*
X124149188Y-148024482D01*
X124185498Y-148144180D01*
X124244463Y-148254494D01*
X124323815Y-148351185D01*
X124420506Y-148430537D01*
X124530820Y-148489502D01*
X124650518Y-148525812D01*
X124775000Y-148538072D01*
X124976750Y-148535000D01*
X125135500Y-148376250D01*
X125135500Y-147327000D01*
X124298750Y-147327000D01*
X124140000Y-147485750D01*
X124136928Y-147900000D01*
X106835000Y-147900000D01*
X106835000Y-146500000D01*
X124136928Y-146500000D01*
X124140000Y-146914250D01*
X124298750Y-147073000D01*
X125135500Y-147073000D01*
X125135500Y-146023750D01*
X124976750Y-145865000D01*
X124775000Y-145861928D01*
X124650518Y-145874188D01*
X124530820Y-145910498D01*
X124420506Y-145969463D01*
X124323815Y-146048815D01*
X124244463Y-146145506D01*
X124185498Y-146255820D01*
X124149188Y-146375518D01*
X124136928Y-146500000D01*
X106835000Y-146500000D01*
X106835000Y-145724592D01*
X106812790Y-145499087D01*
X106725017Y-145209739D01*
X106582481Y-144943073D01*
X106390661Y-144709339D01*
X106318356Y-144650000D01*
X123011928Y-144650000D01*
X123024188Y-144774482D01*
X123060498Y-144894180D01*
X123119463Y-145004494D01*
X123198815Y-145101185D01*
X123295506Y-145180537D01*
X123405820Y-145239502D01*
X123525518Y-145275812D01*
X123650000Y-145288072D01*
X124114250Y-145285000D01*
X124273000Y-145126250D01*
X124273000Y-143777000D01*
X123173750Y-143777000D01*
X123015000Y-143935750D01*
X123011928Y-144650000D01*
X106318356Y-144650000D01*
X106156926Y-144517519D01*
X105890260Y-144374983D01*
X105600912Y-144287210D01*
X105300000Y-144257573D01*
X104999087Y-144287210D01*
X104709739Y-144374983D01*
X104443073Y-144517519D01*
X104209339Y-144709339D01*
X104017519Y-144943074D01*
X103874983Y-145209740D01*
X103787210Y-145499088D01*
X103765000Y-145724593D01*
X103765001Y-148075408D01*
X103787211Y-148300913D01*
X103874984Y-148590261D01*
X104017520Y-148856927D01*
X104209340Y-149090661D01*
X104415000Y-149259441D01*
X104415000Y-149356531D01*
X104410719Y-149400000D01*
X104415000Y-149443469D01*
X104415000Y-149443476D01*
X104424746Y-149542427D01*
X104427805Y-149573490D01*
X104428680Y-149576374D01*
X104478411Y-149740312D01*
X104560589Y-149894058D01*
X104671183Y-150028817D01*
X104704956Y-150056534D01*
X108843470Y-154195049D01*
X108871183Y-154228817D01*
X108904951Y-154256530D01*
X108904953Y-154256532D01*
X108976452Y-154315210D01*
X109005941Y-154339411D01*
X109147360Y-154415000D01*
X100166579Y-154415000D01*
X94851579Y-149100000D01*
X97961928Y-149100000D01*
X97974188Y-149224482D01*
X98010498Y-149344180D01*
X98069463Y-149454494D01*
X98148815Y-149551185D01*
X98245506Y-149630537D01*
X98355820Y-149689502D01*
X98475518Y-149725812D01*
X98600000Y-149738072D01*
X99214250Y-149735000D01*
X99373000Y-149576250D01*
X99373000Y-147027000D01*
X99627000Y-147027000D01*
X99627000Y-149576250D01*
X99785750Y-149735000D01*
X100400000Y-149738072D01*
X100524482Y-149725812D01*
X100644180Y-149689502D01*
X100754494Y-149630537D01*
X100851185Y-149551185D01*
X100930537Y-149454494D01*
X100989502Y-149344180D01*
X101025812Y-149224482D01*
X101038072Y-149100000D01*
X101035000Y-147185750D01*
X100876250Y-147027000D01*
X99627000Y-147027000D01*
X99373000Y-147027000D01*
X98123750Y-147027000D01*
X97965000Y-147185750D01*
X97961928Y-149100000D01*
X94851579Y-149100000D01*
X92985000Y-147233422D01*
X92985000Y-144700000D01*
X97961928Y-144700000D01*
X97965000Y-146614250D01*
X98123750Y-146773000D01*
X99373000Y-146773000D01*
X99373000Y-144223750D01*
X99627000Y-144223750D01*
X99627000Y-146773000D01*
X100876250Y-146773000D01*
X101035000Y-146614250D01*
X101038072Y-144700000D01*
X101025812Y-144575518D01*
X100989502Y-144455820D01*
X100930537Y-144345506D01*
X100851185Y-144248815D01*
X100754494Y-144169463D01*
X100644180Y-144110498D01*
X100524482Y-144074188D01*
X100400000Y-144061928D01*
X99785750Y-144065000D01*
X99627000Y-144223750D01*
X99373000Y-144223750D01*
X99214250Y-144065000D01*
X98600000Y-144061928D01*
X98475518Y-144074188D01*
X98355820Y-144110498D01*
X98245506Y-144169463D01*
X98148815Y-144248815D01*
X98069463Y-144345506D01*
X98010498Y-144455820D01*
X97974188Y-144575518D01*
X97961928Y-144700000D01*
X92985000Y-144700000D01*
X92985000Y-141288072D01*
X94745000Y-141288072D01*
X94869482Y-141275812D01*
X94989180Y-141239502D01*
X95099494Y-141180537D01*
X95196185Y-141101185D01*
X95209468Y-141085000D01*
X100247246Y-141085000D01*
X100117519Y-141243073D01*
X99974983Y-141509739D01*
X99887210Y-141799087D01*
X99857573Y-142100000D01*
X99887210Y-142400913D01*
X99974983Y-142690261D01*
X100117519Y-142956927D01*
X100309339Y-143190661D01*
X100543073Y-143382481D01*
X100809739Y-143525017D01*
X101099087Y-143612790D01*
X101324592Y-143635000D01*
X103675408Y-143635000D01*
X103900913Y-143612790D01*
X104190261Y-143525017D01*
X104456927Y-143382481D01*
X104690661Y-143190661D01*
X104882481Y-142956927D01*
X105025017Y-142690261D01*
X105037230Y-142650000D01*
X123011928Y-142650000D01*
X123015000Y-143364250D01*
X123173750Y-143523000D01*
X124273000Y-143523000D01*
X124273000Y-142173750D01*
X124114250Y-142015000D01*
X123650000Y-142011928D01*
X123525518Y-142024188D01*
X123405820Y-142060498D01*
X123295506Y-142119463D01*
X123198815Y-142198815D01*
X123119463Y-142295506D01*
X123060498Y-142405820D01*
X123024188Y-142525518D01*
X123011928Y-142650000D01*
X105037230Y-142650000D01*
X105112790Y-142400913D01*
X105142427Y-142100000D01*
X105112790Y-141799087D01*
X105025017Y-141509739D01*
X104882481Y-141243073D01*
X104752754Y-141085000D01*
X117394031Y-141085000D01*
X117437500Y-141089281D01*
X117480969Y-141085000D01*
X117480977Y-141085000D01*
X117610990Y-141072195D01*
X117777813Y-141021589D01*
X117931559Y-140939411D01*
X118066317Y-140828817D01*
X118094034Y-140795044D01*
X125995527Y-132893552D01*
X126003392Y-132973408D01*
%TD*%
M02*
