%TF.GenerationSoftware,KiCad,Pcbnew,5.1.5+dfsg1-2build2*%
%TF.CreationDate,2021-01-19T23:04:30+01:00*%
%TF.ProjectId,iotCronotempLcd,696f7443-726f-46e6-9f74-656d704c6364,rev?*%
%TF.SameCoordinates,Original*%
%TF.FileFunction,Soldermask,Top*%
%TF.FilePolarity,Negative*%
%FSLAX46Y46*%
G04 Gerber Fmt 4.6, Leading zero omitted, Abs format (unit mm)*
G04 Created by KiCad (PCBNEW 5.1.5+dfsg1-2build2) date 2021-01-19 23:04:30*
%MOMM*%
%LPD*%
G04 APERTURE LIST*
%ADD10C,0.100000*%
%ADD11C,0.150000*%
%ADD12C,0.300000*%
%ADD13C,0.400000*%
%ADD14C,1.700000*%
%ADD15R,1.700000X1.700000*%
%ADD16C,3.000000*%
%ADD17C,2.700000*%
%ADD18R,1.500000X2.000000*%
%ADD19R,3.800000X2.000000*%
%ADD20C,2.600000*%
%ADD21R,2.600000X2.600000*%
%ADD22C,1.500000*%
%ADD23R,1.500000X1.500000*%
%ADD24O,1.700000X1.700000*%
%ADD25O,1.600000X1.600000*%
%ADD26R,1.600000X1.600000*%
%ADD27C,1.800000*%
%ADD28R,1.800000X1.800000*%
%ADD29C,1.501140*%
%ADD30R,1.501140X1.501140*%
%ADD31R,0.900000X0.800000*%
%ADD32C,2.000000*%
%ADD33R,2.000000X0.900000*%
%ADD34R,0.900000X2.000000*%
%ADD35R,5.000000X5.000000*%
%ADD36C,3.500120*%
%ADD37R,3.500120X3.500120*%
%ADD38R,1.800000X4.400000*%
%ADD39O,1.800000X4.000000*%
%ADD40O,4.000000X1.800000*%
G04 APERTURE END LIST*
D10*
D11*
X177002200Y-166007200D02*
X177002200Y-198007200D01*
X285002200Y-198007200D01*
X285002200Y-166007200D01*
X177002200Y-166007200D01*
D10*
D11*
X10000000Y-10000000D02*
X10000000Y-200007200D01*
X287002200Y-200007200D01*
X287002200Y-10000000D01*
X10000000Y-10000000D01*
D10*
D11*
X12000000Y-12000000D02*
X12000000Y-198007200D01*
X285002200Y-198007200D01*
X285002200Y-12000000D01*
X12000000Y-12000000D01*
D10*
D11*
X60000000Y-12000000D02*
X60000000Y-10000000D01*
D10*
D11*
X110000000Y-12000000D02*
X110000000Y-10000000D01*
D10*
D11*
X160000000Y-12000000D02*
X160000000Y-10000000D01*
D10*
D11*
X210000000Y-12000000D02*
X210000000Y-10000000D01*
D10*
D11*
X260000000Y-12000000D02*
X260000000Y-10000000D01*
D10*
D11*
X36065476Y-11588095D02*
X35322619Y-11588095D01*
X35694047Y-11588095D02*
X35694047Y-10288095D01*
X35570238Y-10473809D01*
X35446428Y-10597619D01*
X35322619Y-10659523D01*
D10*
D11*
X85322619Y-10411904D02*
X85384523Y-10350000D01*
X85508333Y-10288095D01*
X85817857Y-10288095D01*
X85941666Y-10350000D01*
X86003571Y-10411904D01*
X86065476Y-10535714D01*
X86065476Y-10659523D01*
X86003571Y-10845238D01*
X85260714Y-11588095D01*
X86065476Y-11588095D01*
D10*
D11*
X135260714Y-10288095D02*
X136065476Y-10288095D01*
X135632142Y-10783333D01*
X135817857Y-10783333D01*
X135941666Y-10845238D01*
X136003571Y-10907142D01*
X136065476Y-11030952D01*
X136065476Y-11340476D01*
X136003571Y-11464285D01*
X135941666Y-11526190D01*
X135817857Y-11588095D01*
X135446428Y-11588095D01*
X135322619Y-11526190D01*
X135260714Y-11464285D01*
D10*
D11*
X185941666Y-10721428D02*
X185941666Y-11588095D01*
X185632142Y-10226190D02*
X185322619Y-11154761D01*
X186127380Y-11154761D01*
D10*
D11*
X236003571Y-10288095D02*
X235384523Y-10288095D01*
X235322619Y-10907142D01*
X235384523Y-10845238D01*
X235508333Y-10783333D01*
X235817857Y-10783333D01*
X235941666Y-10845238D01*
X236003571Y-10907142D01*
X236065476Y-11030952D01*
X236065476Y-11340476D01*
X236003571Y-11464285D01*
X235941666Y-11526190D01*
X235817857Y-11588095D01*
X235508333Y-11588095D01*
X235384523Y-11526190D01*
X235322619Y-11464285D01*
D10*
D11*
X285941666Y-10288095D02*
X285694047Y-10288095D01*
X285570238Y-10350000D01*
X285508333Y-10411904D01*
X285384523Y-10597619D01*
X285322619Y-10845238D01*
X285322619Y-11340476D01*
X285384523Y-11464285D01*
X285446428Y-11526190D01*
X285570238Y-11588095D01*
X285817857Y-11588095D01*
X285941666Y-11526190D01*
X286003571Y-11464285D01*
X286065476Y-11340476D01*
X286065476Y-11030952D01*
X286003571Y-10907142D01*
X285941666Y-10845238D01*
X285817857Y-10783333D01*
X285570238Y-10783333D01*
X285446428Y-10845238D01*
X285384523Y-10907142D01*
X285322619Y-11030952D01*
D10*
D11*
X60000000Y-198007200D02*
X60000000Y-200007200D01*
D10*
D11*
X110000000Y-198007200D02*
X110000000Y-200007200D01*
D10*
D11*
X160000000Y-198007200D02*
X160000000Y-200007200D01*
D10*
D11*
X210000000Y-198007200D02*
X210000000Y-200007200D01*
D10*
D11*
X260000000Y-198007200D02*
X260000000Y-200007200D01*
D10*
D11*
X36065476Y-199595295D02*
X35322619Y-199595295D01*
X35694047Y-199595295D02*
X35694047Y-198295295D01*
X35570238Y-198481009D01*
X35446428Y-198604819D01*
X35322619Y-198666723D01*
D10*
D11*
X85322619Y-198419104D02*
X85384523Y-198357200D01*
X85508333Y-198295295D01*
X85817857Y-198295295D01*
X85941666Y-198357200D01*
X86003571Y-198419104D01*
X86065476Y-198542914D01*
X86065476Y-198666723D01*
X86003571Y-198852438D01*
X85260714Y-199595295D01*
X86065476Y-199595295D01*
D10*
D11*
X135260714Y-198295295D02*
X136065476Y-198295295D01*
X135632142Y-198790533D01*
X135817857Y-198790533D01*
X135941666Y-198852438D01*
X136003571Y-198914342D01*
X136065476Y-199038152D01*
X136065476Y-199347676D01*
X136003571Y-199471485D01*
X135941666Y-199533390D01*
X135817857Y-199595295D01*
X135446428Y-199595295D01*
X135322619Y-199533390D01*
X135260714Y-199471485D01*
D10*
D11*
X185941666Y-198728628D02*
X185941666Y-199595295D01*
X185632142Y-198233390D02*
X185322619Y-199161961D01*
X186127380Y-199161961D01*
D10*
D11*
X236003571Y-198295295D02*
X235384523Y-198295295D01*
X235322619Y-198914342D01*
X235384523Y-198852438D01*
X235508333Y-198790533D01*
X235817857Y-198790533D01*
X235941666Y-198852438D01*
X236003571Y-198914342D01*
X236065476Y-199038152D01*
X236065476Y-199347676D01*
X236003571Y-199471485D01*
X235941666Y-199533390D01*
X235817857Y-199595295D01*
X235508333Y-199595295D01*
X235384523Y-199533390D01*
X235322619Y-199471485D01*
D10*
D11*
X285941666Y-198295295D02*
X285694047Y-198295295D01*
X285570238Y-198357200D01*
X285508333Y-198419104D01*
X285384523Y-198604819D01*
X285322619Y-198852438D01*
X285322619Y-199347676D01*
X285384523Y-199471485D01*
X285446428Y-199533390D01*
X285570238Y-199595295D01*
X285817857Y-199595295D01*
X285941666Y-199533390D01*
X286003571Y-199471485D01*
X286065476Y-199347676D01*
X286065476Y-199038152D01*
X286003571Y-198914342D01*
X285941666Y-198852438D01*
X285817857Y-198790533D01*
X285570238Y-198790533D01*
X285446428Y-198852438D01*
X285384523Y-198914342D01*
X285322619Y-199038152D01*
D10*
D11*
X10000000Y-60000000D02*
X12000000Y-60000000D01*
D10*
D11*
X10000000Y-110000000D02*
X12000000Y-110000000D01*
D10*
D11*
X10000000Y-160000000D02*
X12000000Y-160000000D01*
D10*
D11*
X10690476Y-35216666D02*
X11309523Y-35216666D01*
X10566666Y-35588095D02*
X11000000Y-34288095D01*
X11433333Y-35588095D01*
D10*
D11*
X11092857Y-84907142D02*
X11278571Y-84969047D01*
X11340476Y-85030952D01*
X11402380Y-85154761D01*
X11402380Y-85340476D01*
X11340476Y-85464285D01*
X11278571Y-85526190D01*
X11154761Y-85588095D01*
X10659523Y-85588095D01*
X10659523Y-84288095D01*
X11092857Y-84288095D01*
X11216666Y-84350000D01*
X11278571Y-84411904D01*
X11340476Y-84535714D01*
X11340476Y-84659523D01*
X11278571Y-84783333D01*
X11216666Y-84845238D01*
X11092857Y-84907142D01*
X10659523Y-84907142D01*
D10*
D11*
X11402380Y-135464285D02*
X11340476Y-135526190D01*
X11154761Y-135588095D01*
X11030952Y-135588095D01*
X10845238Y-135526190D01*
X10721428Y-135402380D01*
X10659523Y-135278571D01*
X10597619Y-135030952D01*
X10597619Y-134845238D01*
X10659523Y-134597619D01*
X10721428Y-134473809D01*
X10845238Y-134350000D01*
X11030952Y-134288095D01*
X11154761Y-134288095D01*
X11340476Y-134350000D01*
X11402380Y-134411904D01*
D10*
D11*
X10659523Y-185588095D02*
X10659523Y-184288095D01*
X10969047Y-184288095D01*
X11154761Y-184350000D01*
X11278571Y-184473809D01*
X11340476Y-184597619D01*
X11402380Y-184845238D01*
X11402380Y-185030952D01*
X11340476Y-185278571D01*
X11278571Y-185402380D01*
X11154761Y-185526190D01*
X10969047Y-185588095D01*
X10659523Y-185588095D01*
D10*
D11*
X287002200Y-60000000D02*
X285002200Y-60000000D01*
D10*
D11*
X287002200Y-110000000D02*
X285002200Y-110000000D01*
D10*
D11*
X287002200Y-160000000D02*
X285002200Y-160000000D01*
D10*
D11*
X285692676Y-35216666D02*
X286311723Y-35216666D01*
X285568866Y-35588095D02*
X286002200Y-34288095D01*
X286435533Y-35588095D01*
D10*
D11*
X286095057Y-84907142D02*
X286280771Y-84969047D01*
X286342676Y-85030952D01*
X286404580Y-85154761D01*
X286404580Y-85340476D01*
X286342676Y-85464285D01*
X286280771Y-85526190D01*
X286156961Y-85588095D01*
X285661723Y-85588095D01*
X285661723Y-84288095D01*
X286095057Y-84288095D01*
X286218866Y-84350000D01*
X286280771Y-84411904D01*
X286342676Y-84535714D01*
X286342676Y-84659523D01*
X286280771Y-84783333D01*
X286218866Y-84845238D01*
X286095057Y-84907142D01*
X285661723Y-84907142D01*
D10*
D11*
X286404580Y-135464285D02*
X286342676Y-135526190D01*
X286156961Y-135588095D01*
X286033152Y-135588095D01*
X285847438Y-135526190D01*
X285723628Y-135402380D01*
X285661723Y-135278571D01*
X285599819Y-135030952D01*
X285599819Y-134845238D01*
X285661723Y-134597619D01*
X285723628Y-134473809D01*
X285847438Y-134350000D01*
X286033152Y-134288095D01*
X286156961Y-134288095D01*
X286342676Y-134350000D01*
X286404580Y-134411904D01*
D10*
D11*
X285661723Y-185588095D02*
X285661723Y-184288095D01*
X285971247Y-184288095D01*
X286156961Y-184350000D01*
X286280771Y-184473809D01*
X286342676Y-184597619D01*
X286404580Y-184845238D01*
X286404580Y-185030952D01*
X286342676Y-185278571D01*
X286280771Y-185402380D01*
X286156961Y-185526190D01*
X285971247Y-185588095D01*
X285661723Y-185588095D01*
D10*
D11*
X200434342Y-193785771D02*
X200434342Y-192285771D01*
X200791485Y-192285771D01*
X201005771Y-192357200D01*
X201148628Y-192500057D01*
X201220057Y-192642914D01*
X201291485Y-192928628D01*
X201291485Y-193142914D01*
X201220057Y-193428628D01*
X201148628Y-193571485D01*
X201005771Y-193714342D01*
X200791485Y-193785771D01*
X200434342Y-193785771D01*
X202577200Y-193785771D02*
X202577200Y-193000057D01*
X202505771Y-192857200D01*
X202362914Y-192785771D01*
X202077200Y-192785771D01*
X201934342Y-192857200D01*
X202577200Y-193714342D02*
X202434342Y-193785771D01*
X202077200Y-193785771D01*
X201934342Y-193714342D01*
X201862914Y-193571485D01*
X201862914Y-193428628D01*
X201934342Y-193285771D01*
X202077200Y-193214342D01*
X202434342Y-193214342D01*
X202577200Y-193142914D01*
X203077200Y-192785771D02*
X203648628Y-192785771D01*
X203291485Y-192285771D02*
X203291485Y-193571485D01*
X203362914Y-193714342D01*
X203505771Y-193785771D01*
X203648628Y-193785771D01*
X204720057Y-193714342D02*
X204577200Y-193785771D01*
X204291485Y-193785771D01*
X204148628Y-193714342D01*
X204077200Y-193571485D01*
X204077200Y-193000057D01*
X204148628Y-192857200D01*
X204291485Y-192785771D01*
X204577200Y-192785771D01*
X204720057Y-192857200D01*
X204791485Y-193000057D01*
X204791485Y-193142914D01*
X204077200Y-193285771D01*
X205434342Y-193642914D02*
X205505771Y-193714342D01*
X205434342Y-193785771D01*
X205362914Y-193714342D01*
X205434342Y-193642914D01*
X205434342Y-193785771D01*
X205434342Y-192857200D02*
X205505771Y-192928628D01*
X205434342Y-193000057D01*
X205362914Y-192928628D01*
X205434342Y-192857200D01*
X205434342Y-193000057D01*
D10*
D11*
X177002200Y-194507200D02*
X285002200Y-194507200D01*
D10*
D11*
X178434342Y-196585771D02*
X178434342Y-195085771D01*
X179291485Y-196585771D02*
X178648628Y-195728628D01*
X179291485Y-195085771D02*
X178434342Y-195942914D01*
X179934342Y-196585771D02*
X179934342Y-195585771D01*
X179934342Y-195085771D02*
X179862914Y-195157200D01*
X179934342Y-195228628D01*
X180005771Y-195157200D01*
X179934342Y-195085771D01*
X179934342Y-195228628D01*
X181505771Y-196442914D02*
X181434342Y-196514342D01*
X181220057Y-196585771D01*
X181077200Y-196585771D01*
X180862914Y-196514342D01*
X180720057Y-196371485D01*
X180648628Y-196228628D01*
X180577200Y-195942914D01*
X180577200Y-195728628D01*
X180648628Y-195442914D01*
X180720057Y-195300057D01*
X180862914Y-195157200D01*
X181077200Y-195085771D01*
X181220057Y-195085771D01*
X181434342Y-195157200D01*
X181505771Y-195228628D01*
X182791485Y-196585771D02*
X182791485Y-195800057D01*
X182720057Y-195657200D01*
X182577200Y-195585771D01*
X182291485Y-195585771D01*
X182148628Y-195657200D01*
X182791485Y-196514342D02*
X182648628Y-196585771D01*
X182291485Y-196585771D01*
X182148628Y-196514342D01*
X182077200Y-196371485D01*
X182077200Y-196228628D01*
X182148628Y-196085771D01*
X182291485Y-196014342D01*
X182648628Y-196014342D01*
X182791485Y-195942914D01*
X184148628Y-196585771D02*
X184148628Y-195085771D01*
X184148628Y-196514342D02*
X184005771Y-196585771D01*
X183720057Y-196585771D01*
X183577200Y-196514342D01*
X183505771Y-196442914D01*
X183434342Y-196300057D01*
X183434342Y-195871485D01*
X183505771Y-195728628D01*
X183577200Y-195657200D01*
X183720057Y-195585771D01*
X184005771Y-195585771D01*
X184148628Y-195657200D01*
X186005771Y-195800057D02*
X186505771Y-195800057D01*
X186720057Y-196585771D02*
X186005771Y-196585771D01*
X186005771Y-195085771D01*
X186720057Y-195085771D01*
X187362914Y-196442914D02*
X187434342Y-196514342D01*
X187362914Y-196585771D01*
X187291485Y-196514342D01*
X187362914Y-196442914D01*
X187362914Y-196585771D01*
X188077200Y-196585771D02*
X188077200Y-195085771D01*
X188434342Y-195085771D01*
X188648628Y-195157200D01*
X188791485Y-195300057D01*
X188862914Y-195442914D01*
X188934342Y-195728628D01*
X188934342Y-195942914D01*
X188862914Y-196228628D01*
X188791485Y-196371485D01*
X188648628Y-196514342D01*
X188434342Y-196585771D01*
X188077200Y-196585771D01*
X189577200Y-196442914D02*
X189648628Y-196514342D01*
X189577200Y-196585771D01*
X189505771Y-196514342D01*
X189577200Y-196442914D01*
X189577200Y-196585771D01*
X190220057Y-196157200D02*
X190934342Y-196157200D01*
X190077200Y-196585771D02*
X190577200Y-195085771D01*
X191077200Y-196585771D01*
X191577200Y-196442914D02*
X191648628Y-196514342D01*
X191577200Y-196585771D01*
X191505771Y-196514342D01*
X191577200Y-196442914D01*
X191577200Y-196585771D01*
X194577200Y-196585771D02*
X194577200Y-195085771D01*
X194720057Y-196014342D02*
X195148628Y-196585771D01*
X195148628Y-195585771D02*
X194577200Y-196157200D01*
X195791485Y-196585771D02*
X195791485Y-195585771D01*
X195791485Y-195085771D02*
X195720057Y-195157200D01*
X195791485Y-195228628D01*
X195862914Y-195157200D01*
X195791485Y-195085771D01*
X195791485Y-195228628D01*
X197148628Y-196514342D02*
X197005771Y-196585771D01*
X196720057Y-196585771D01*
X196577200Y-196514342D01*
X196505771Y-196442914D01*
X196434342Y-196300057D01*
X196434342Y-195871485D01*
X196505771Y-195728628D01*
X196577200Y-195657200D01*
X196720057Y-195585771D01*
X197005771Y-195585771D01*
X197148628Y-195657200D01*
X198434342Y-196585771D02*
X198434342Y-195800057D01*
X198362914Y-195657200D01*
X198220057Y-195585771D01*
X197934342Y-195585771D01*
X197791485Y-195657200D01*
X198434342Y-196514342D02*
X198291485Y-196585771D01*
X197934342Y-196585771D01*
X197791485Y-196514342D01*
X197720057Y-196371485D01*
X197720057Y-196228628D01*
X197791485Y-196085771D01*
X197934342Y-196014342D01*
X198291485Y-196014342D01*
X198434342Y-195942914D01*
X199791485Y-196585771D02*
X199791485Y-195085771D01*
X199791485Y-196514342D02*
X199648628Y-196585771D01*
X199362914Y-196585771D01*
X199220057Y-196514342D01*
X199148628Y-196442914D01*
X199077200Y-196300057D01*
X199077200Y-195871485D01*
X199148628Y-195728628D01*
X199220057Y-195657200D01*
X199362914Y-195585771D01*
X199648628Y-195585771D01*
X199791485Y-195657200D01*
X202362914Y-195085771D02*
X201648628Y-195085771D01*
X201577200Y-195800057D01*
X201648628Y-195728628D01*
X201791485Y-195657200D01*
X202148628Y-195657200D01*
X202291485Y-195728628D01*
X202362914Y-195800057D01*
X202434342Y-195942914D01*
X202434342Y-196300057D01*
X202362914Y-196442914D01*
X202291485Y-196514342D01*
X202148628Y-196585771D01*
X201791485Y-196585771D01*
X201648628Y-196514342D01*
X201577200Y-196442914D01*
X203077200Y-196442914D02*
X203148628Y-196514342D01*
X203077200Y-196585771D01*
X203005771Y-196514342D01*
X203077200Y-196442914D01*
X203077200Y-196585771D01*
X204577200Y-196585771D02*
X203720057Y-196585771D01*
X204148628Y-196585771D02*
X204148628Y-195085771D01*
X204005771Y-195300057D01*
X203862914Y-195442914D01*
X203720057Y-195514342D01*
X205220057Y-196442914D02*
X205291485Y-196514342D01*
X205220057Y-196585771D01*
X205148628Y-196514342D01*
X205220057Y-196442914D01*
X205220057Y-196585771D01*
X206648628Y-195085771D02*
X205934342Y-195085771D01*
X205862914Y-195800057D01*
X205934342Y-195728628D01*
X206077200Y-195657200D01*
X206434342Y-195657200D01*
X206577200Y-195728628D01*
X206648628Y-195800057D01*
X206720057Y-195942914D01*
X206720057Y-196300057D01*
X206648628Y-196442914D01*
X206577200Y-196514342D01*
X206434342Y-196585771D01*
X206077200Y-196585771D01*
X205934342Y-196514342D01*
X205862914Y-196442914D01*
X207362914Y-196014342D02*
X208505771Y-196014342D01*
X207934342Y-196585771D02*
X207934342Y-195442914D01*
X209862914Y-196585771D02*
X209862914Y-195085771D01*
X209862914Y-196514342D02*
X209720057Y-196585771D01*
X209434342Y-196585771D01*
X209291485Y-196514342D01*
X209220057Y-196442914D01*
X209148628Y-196300057D01*
X209148628Y-195871485D01*
X209220057Y-195728628D01*
X209291485Y-195657200D01*
X209434342Y-195585771D01*
X209720057Y-195585771D01*
X209862914Y-195657200D01*
X210362914Y-195585771D02*
X210934342Y-195585771D01*
X210577200Y-196585771D02*
X210577200Y-195300057D01*
X210648628Y-195157200D01*
X210791485Y-195085771D01*
X210934342Y-195085771D01*
X211362914Y-196514342D02*
X211505771Y-196585771D01*
X211791485Y-196585771D01*
X211934342Y-196514342D01*
X212005771Y-196371485D01*
X212005771Y-196300057D01*
X211934342Y-196157200D01*
X211791485Y-196085771D01*
X211577200Y-196085771D01*
X211434342Y-196014342D01*
X211362914Y-195871485D01*
X211362914Y-195800057D01*
X211434342Y-195657200D01*
X211577200Y-195585771D01*
X211791485Y-195585771D01*
X211934342Y-195657200D01*
X213291485Y-195585771D02*
X213291485Y-196800057D01*
X213220057Y-196942914D01*
X213148628Y-197014342D01*
X213005771Y-197085771D01*
X212791485Y-197085771D01*
X212648628Y-197014342D01*
X213291485Y-196514342D02*
X213148628Y-196585771D01*
X212862914Y-196585771D01*
X212720057Y-196514342D01*
X212648628Y-196442914D01*
X212577200Y-196300057D01*
X212577200Y-195871485D01*
X212648628Y-195728628D01*
X212720057Y-195657200D01*
X212862914Y-195585771D01*
X213148628Y-195585771D01*
X213291485Y-195657200D01*
X214791485Y-196585771D02*
X213934342Y-196585771D01*
X214362914Y-196585771D02*
X214362914Y-195085771D01*
X214220057Y-195300057D01*
X214077200Y-195442914D01*
X213934342Y-195514342D01*
X215434342Y-196014342D02*
X216577200Y-196014342D01*
X217220057Y-195228628D02*
X217291485Y-195157200D01*
X217434342Y-195085771D01*
X217791485Y-195085771D01*
X217934342Y-195157200D01*
X218005771Y-195228628D01*
X218077200Y-195371485D01*
X218077200Y-195514342D01*
X218005771Y-195728628D01*
X217148628Y-196585771D01*
X218077200Y-196585771D01*
X218720057Y-196585771D02*
X218720057Y-195085771D01*
X218720057Y-195657200D02*
X218862914Y-195585771D01*
X219148628Y-195585771D01*
X219291485Y-195657200D01*
X219362914Y-195728628D01*
X219434342Y-195871485D01*
X219434342Y-196300057D01*
X219362914Y-196442914D01*
X219291485Y-196514342D01*
X219148628Y-196585771D01*
X218862914Y-196585771D01*
X218720057Y-196514342D01*
X220720057Y-195585771D02*
X220720057Y-196585771D01*
X220077200Y-195585771D02*
X220077200Y-196371485D01*
X220148628Y-196514342D01*
X220291485Y-196585771D01*
X220505771Y-196585771D01*
X220648628Y-196514342D01*
X220720057Y-196442914D01*
X221434342Y-196585771D02*
X221434342Y-195585771D01*
X221434342Y-195085771D02*
X221362914Y-195157200D01*
X221434342Y-195228628D01*
X221505771Y-195157200D01*
X221434342Y-195085771D01*
X221434342Y-195228628D01*
X222362914Y-196585771D02*
X222220057Y-196514342D01*
X222148628Y-196371485D01*
X222148628Y-195085771D01*
X223577200Y-196585771D02*
X223577200Y-195085771D01*
X223577200Y-196514342D02*
X223434342Y-196585771D01*
X223148628Y-196585771D01*
X223005771Y-196514342D01*
X222934342Y-196442914D01*
X222862914Y-196300057D01*
X222862914Y-195871485D01*
X222934342Y-195728628D01*
X223005771Y-195657200D01*
X223148628Y-195585771D01*
X223434342Y-195585771D01*
X223577200Y-195657200D01*
X224220057Y-195228628D02*
X224291485Y-195157200D01*
X224434342Y-195085771D01*
X224791485Y-195085771D01*
X224934342Y-195157200D01*
X225005771Y-195228628D01*
X225077200Y-195371485D01*
X225077200Y-195514342D01*
X225005771Y-195728628D01*
X224148628Y-196585771D01*
X225077200Y-196585771D01*
D10*
D11*
X177002200Y-191507200D02*
X285002200Y-191507200D01*
D10*
D12*
X264411485Y-193785771D02*
X263911485Y-193071485D01*
X263554342Y-193785771D02*
X263554342Y-192285771D01*
X264125771Y-192285771D01*
X264268628Y-192357200D01*
X264340057Y-192428628D01*
X264411485Y-192571485D01*
X264411485Y-192785771D01*
X264340057Y-192928628D01*
X264268628Y-193000057D01*
X264125771Y-193071485D01*
X263554342Y-193071485D01*
X265625771Y-193714342D02*
X265482914Y-193785771D01*
X265197200Y-193785771D01*
X265054342Y-193714342D01*
X264982914Y-193571485D01*
X264982914Y-193000057D01*
X265054342Y-192857200D01*
X265197200Y-192785771D01*
X265482914Y-192785771D01*
X265625771Y-192857200D01*
X265697200Y-193000057D01*
X265697200Y-193142914D01*
X264982914Y-193285771D01*
X266197200Y-192785771D02*
X266554342Y-193785771D01*
X266911485Y-192785771D01*
X267482914Y-193642914D02*
X267554342Y-193714342D01*
X267482914Y-193785771D01*
X267411485Y-193714342D01*
X267482914Y-193642914D01*
X267482914Y-193785771D01*
X267482914Y-192857200D02*
X267554342Y-192928628D01*
X267482914Y-193000057D01*
X267411485Y-192928628D01*
X267482914Y-192857200D01*
X267482914Y-193000057D01*
D10*
D11*
X178362914Y-193714342D02*
X178577200Y-193785771D01*
X178934342Y-193785771D01*
X179077200Y-193714342D01*
X179148628Y-193642914D01*
X179220057Y-193500057D01*
X179220057Y-193357200D01*
X179148628Y-193214342D01*
X179077200Y-193142914D01*
X178934342Y-193071485D01*
X178648628Y-193000057D01*
X178505771Y-192928628D01*
X178434342Y-192857200D01*
X178362914Y-192714342D01*
X178362914Y-192571485D01*
X178434342Y-192428628D01*
X178505771Y-192357200D01*
X178648628Y-192285771D01*
X179005771Y-192285771D01*
X179220057Y-192357200D01*
X179862914Y-193785771D02*
X179862914Y-192785771D01*
X179862914Y-192285771D02*
X179791485Y-192357200D01*
X179862914Y-192428628D01*
X179934342Y-192357200D01*
X179862914Y-192285771D01*
X179862914Y-192428628D01*
X180434342Y-192785771D02*
X181220057Y-192785771D01*
X180434342Y-193785771D01*
X181220057Y-193785771D01*
X182362914Y-193714342D02*
X182220057Y-193785771D01*
X181934342Y-193785771D01*
X181791485Y-193714342D01*
X181720057Y-193571485D01*
X181720057Y-193000057D01*
X181791485Y-192857200D01*
X181934342Y-192785771D01*
X182220057Y-192785771D01*
X182362914Y-192857200D01*
X182434342Y-193000057D01*
X182434342Y-193142914D01*
X181720057Y-193285771D01*
X183077200Y-193642914D02*
X183148628Y-193714342D01*
X183077200Y-193785771D01*
X183005771Y-193714342D01*
X183077200Y-193642914D01*
X183077200Y-193785771D01*
X183077200Y-192857200D02*
X183148628Y-192928628D01*
X183077200Y-193000057D01*
X183005771Y-192928628D01*
X183077200Y-192857200D01*
X183077200Y-193000057D01*
X184862914Y-193357200D02*
X185577200Y-193357200D01*
X184720057Y-193785771D02*
X185220057Y-192285771D01*
X185720057Y-193785771D01*
X186862914Y-192785771D02*
X186862914Y-193785771D01*
X186505771Y-192214342D02*
X186148628Y-193285771D01*
X187077200Y-193285771D01*
D10*
D11*
X263434342Y-196585771D02*
X263434342Y-195085771D01*
X264791485Y-196585771D02*
X264791485Y-195085771D01*
X264791485Y-196514342D02*
X264648628Y-196585771D01*
X264362914Y-196585771D01*
X264220057Y-196514342D01*
X264148628Y-196442914D01*
X264077200Y-196300057D01*
X264077200Y-195871485D01*
X264148628Y-195728628D01*
X264220057Y-195657200D01*
X264362914Y-195585771D01*
X264648628Y-195585771D01*
X264791485Y-195657200D01*
X265505771Y-196442914D02*
X265577200Y-196514342D01*
X265505771Y-196585771D01*
X265434342Y-196514342D01*
X265505771Y-196442914D01*
X265505771Y-196585771D01*
X265505771Y-195657200D02*
X265577200Y-195728628D01*
X265505771Y-195800057D01*
X265434342Y-195728628D01*
X265505771Y-195657200D01*
X265505771Y-195800057D01*
X268148628Y-196585771D02*
X267291485Y-196585771D01*
X267720057Y-196585771D02*
X267720057Y-195085771D01*
X267577200Y-195300057D01*
X267434342Y-195442914D01*
X267291485Y-195514342D01*
X269862914Y-195014342D02*
X268577200Y-196942914D01*
X271148628Y-196585771D02*
X270291485Y-196585771D01*
X270720057Y-196585771D02*
X270720057Y-195085771D01*
X270577200Y-195300057D01*
X270434342Y-195442914D01*
X270291485Y-195514342D01*
D10*
D11*
X177002200Y-187507200D02*
X285002200Y-187507200D01*
D10*
D13*
X178714580Y-188211961D02*
X179857438Y-188211961D01*
X179036009Y-190211961D02*
X179286009Y-188211961D01*
X180274104Y-190211961D02*
X180440771Y-188878628D01*
X180524104Y-188211961D02*
X180416961Y-188307200D01*
X180500295Y-188402438D01*
X180607438Y-188307200D01*
X180524104Y-188211961D01*
X180500295Y-188402438D01*
X181107438Y-188878628D02*
X181869342Y-188878628D01*
X181476485Y-188211961D02*
X181262200Y-189926247D01*
X181333628Y-190116723D01*
X181512200Y-190211961D01*
X181702676Y-190211961D01*
X182655057Y-190211961D02*
X182476485Y-190116723D01*
X182405057Y-189926247D01*
X182619342Y-188211961D01*
X184190771Y-190116723D02*
X183988390Y-190211961D01*
X183607438Y-190211961D01*
X183428866Y-190116723D01*
X183357438Y-189926247D01*
X183452676Y-189164342D01*
X183571723Y-188973866D01*
X183774104Y-188878628D01*
X184155057Y-188878628D01*
X184333628Y-188973866D01*
X184405057Y-189164342D01*
X184381247Y-189354819D01*
X183405057Y-189545295D01*
X185155057Y-190021485D02*
X185238390Y-190116723D01*
X185131247Y-190211961D01*
X185047914Y-190116723D01*
X185155057Y-190021485D01*
X185131247Y-190211961D01*
X185286009Y-188973866D02*
X185369342Y-189069104D01*
X185262200Y-189164342D01*
X185178866Y-189069104D01*
X185286009Y-188973866D01*
X185262200Y-189164342D01*
D10*
D11*
X178934342Y-185600057D02*
X178434342Y-185600057D01*
X178434342Y-186385771D02*
X178434342Y-184885771D01*
X179148628Y-184885771D01*
X179720057Y-186385771D02*
X179720057Y-185385771D01*
X179720057Y-184885771D02*
X179648628Y-184957200D01*
X179720057Y-185028628D01*
X179791485Y-184957200D01*
X179720057Y-184885771D01*
X179720057Y-185028628D01*
X180648628Y-186385771D02*
X180505771Y-186314342D01*
X180434342Y-186171485D01*
X180434342Y-184885771D01*
X181791485Y-186314342D02*
X181648628Y-186385771D01*
X181362914Y-186385771D01*
X181220057Y-186314342D01*
X181148628Y-186171485D01*
X181148628Y-185600057D01*
X181220057Y-185457200D01*
X181362914Y-185385771D01*
X181648628Y-185385771D01*
X181791485Y-185457200D01*
X181862914Y-185600057D01*
X181862914Y-185742914D01*
X181148628Y-185885771D01*
X182505771Y-186242914D02*
X182577200Y-186314342D01*
X182505771Y-186385771D01*
X182434342Y-186314342D01*
X182505771Y-186242914D01*
X182505771Y-186385771D01*
X182505771Y-185457200D02*
X182577200Y-185528628D01*
X182505771Y-185600057D01*
X182434342Y-185528628D01*
X182505771Y-185457200D01*
X182505771Y-185600057D01*
X184362914Y-186385771D02*
X184362914Y-185385771D01*
X184362914Y-184885771D02*
X184291485Y-184957200D01*
X184362914Y-185028628D01*
X184434342Y-184957200D01*
X184362914Y-184885771D01*
X184362914Y-185028628D01*
X185291485Y-186385771D02*
X185148628Y-186314342D01*
X185077200Y-186242914D01*
X185005771Y-186100057D01*
X185005771Y-185671485D01*
X185077200Y-185528628D01*
X185148628Y-185457200D01*
X185291485Y-185385771D01*
X185505771Y-185385771D01*
X185648628Y-185457200D01*
X185720057Y-185528628D01*
X185791485Y-185671485D01*
X185791485Y-186100057D01*
X185720057Y-186242914D01*
X185648628Y-186314342D01*
X185505771Y-186385771D01*
X185291485Y-186385771D01*
X186220057Y-185385771D02*
X186791485Y-185385771D01*
X186434342Y-184885771D02*
X186434342Y-186171485D01*
X186505771Y-186314342D01*
X186648628Y-186385771D01*
X186791485Y-186385771D01*
X188148628Y-186242914D02*
X188077200Y-186314342D01*
X187862914Y-186385771D01*
X187720057Y-186385771D01*
X187505771Y-186314342D01*
X187362914Y-186171485D01*
X187291485Y-186028628D01*
X187220057Y-185742914D01*
X187220057Y-185528628D01*
X187291485Y-185242914D01*
X187362914Y-185100057D01*
X187505771Y-184957200D01*
X187720057Y-184885771D01*
X187862914Y-184885771D01*
X188077200Y-184957200D01*
X188148628Y-185028628D01*
X188791485Y-186385771D02*
X188791485Y-185385771D01*
X188791485Y-185671485D02*
X188862914Y-185528628D01*
X188934342Y-185457200D01*
X189077200Y-185385771D01*
X189220057Y-185385771D01*
X189934342Y-186385771D02*
X189791485Y-186314342D01*
X189720057Y-186242914D01*
X189648628Y-186100057D01*
X189648628Y-185671485D01*
X189720057Y-185528628D01*
X189791485Y-185457200D01*
X189934342Y-185385771D01*
X190148628Y-185385771D01*
X190291485Y-185457200D01*
X190362914Y-185528628D01*
X190434342Y-185671485D01*
X190434342Y-186100057D01*
X190362914Y-186242914D01*
X190291485Y-186314342D01*
X190148628Y-186385771D01*
X189934342Y-186385771D01*
X191077200Y-185385771D02*
X191077200Y-186385771D01*
X191077200Y-185528628D02*
X191148628Y-185457200D01*
X191291485Y-185385771D01*
X191505771Y-185385771D01*
X191648628Y-185457200D01*
X191720057Y-185600057D01*
X191720057Y-186385771D01*
X192648628Y-186385771D02*
X192505771Y-186314342D01*
X192434342Y-186242914D01*
X192362914Y-186100057D01*
X192362914Y-185671485D01*
X192434342Y-185528628D01*
X192505771Y-185457200D01*
X192648628Y-185385771D01*
X192862914Y-185385771D01*
X193005771Y-185457200D01*
X193077200Y-185528628D01*
X193148628Y-185671485D01*
X193148628Y-186100057D01*
X193077200Y-186242914D01*
X193005771Y-186314342D01*
X192862914Y-186385771D01*
X192648628Y-186385771D01*
X193577200Y-185385771D02*
X194148628Y-185385771D01*
X193791485Y-184885771D02*
X193791485Y-186171485D01*
X193862914Y-186314342D01*
X194005771Y-186385771D01*
X194148628Y-186385771D01*
X195220057Y-186314342D02*
X195077200Y-186385771D01*
X194791485Y-186385771D01*
X194648628Y-186314342D01*
X194577200Y-186171485D01*
X194577200Y-185600057D01*
X194648628Y-185457200D01*
X194791485Y-185385771D01*
X195077200Y-185385771D01*
X195220057Y-185457200D01*
X195291485Y-185600057D01*
X195291485Y-185742914D01*
X194577200Y-185885771D01*
X195934342Y-186385771D02*
X195934342Y-185385771D01*
X195934342Y-185528628D02*
X196005771Y-185457200D01*
X196148628Y-185385771D01*
X196362914Y-185385771D01*
X196505771Y-185457200D01*
X196577200Y-185600057D01*
X196577200Y-186385771D01*
X196577200Y-185600057D02*
X196648628Y-185457200D01*
X196791485Y-185385771D01*
X197005771Y-185385771D01*
X197148628Y-185457200D01*
X197220057Y-185600057D01*
X197220057Y-186385771D01*
X197934342Y-185385771D02*
X197934342Y-186885771D01*
X197934342Y-185457200D02*
X198077200Y-185385771D01*
X198362914Y-185385771D01*
X198505771Y-185457200D01*
X198577200Y-185528628D01*
X198648628Y-185671485D01*
X198648628Y-186100057D01*
X198577200Y-186242914D01*
X198505771Y-186314342D01*
X198362914Y-186385771D01*
X198077200Y-186385771D01*
X197934342Y-186314342D01*
X200005771Y-186385771D02*
X199291485Y-186385771D01*
X199291485Y-184885771D01*
X201148628Y-186314342D02*
X201005771Y-186385771D01*
X200720057Y-186385771D01*
X200577200Y-186314342D01*
X200505771Y-186242914D01*
X200434342Y-186100057D01*
X200434342Y-185671485D01*
X200505771Y-185528628D01*
X200577200Y-185457200D01*
X200720057Y-185385771D01*
X201005771Y-185385771D01*
X201148628Y-185457200D01*
X202434342Y-186385771D02*
X202434342Y-184885771D01*
X202434342Y-186314342D02*
X202291485Y-186385771D01*
X202005771Y-186385771D01*
X201862914Y-186314342D01*
X201791485Y-186242914D01*
X201720057Y-186100057D01*
X201720057Y-185671485D01*
X201791485Y-185528628D01*
X201862914Y-185457200D01*
X202005771Y-185385771D01*
X202291485Y-185385771D01*
X202434342Y-185457200D01*
X203148628Y-186242914D02*
X203220057Y-186314342D01*
X203148628Y-186385771D01*
X203077200Y-186314342D01*
X203148628Y-186242914D01*
X203148628Y-186385771D01*
X203862914Y-186385771D02*
X203862914Y-184885771D01*
X204005771Y-185814342D02*
X204434342Y-186385771D01*
X204434342Y-185385771D02*
X203862914Y-185957200D01*
X205077200Y-186385771D02*
X205077200Y-185385771D01*
X205077200Y-184885771D02*
X205005771Y-184957200D01*
X205077200Y-185028628D01*
X205148628Y-184957200D01*
X205077200Y-184885771D01*
X205077200Y-185028628D01*
X206434342Y-186314342D02*
X206291485Y-186385771D01*
X206005771Y-186385771D01*
X205862914Y-186314342D01*
X205791485Y-186242914D01*
X205720057Y-186100057D01*
X205720057Y-185671485D01*
X205791485Y-185528628D01*
X205862914Y-185457200D01*
X206005771Y-185385771D01*
X206291485Y-185385771D01*
X206434342Y-185457200D01*
X207720057Y-186385771D02*
X207720057Y-185600057D01*
X207648628Y-185457200D01*
X207505771Y-185385771D01*
X207220057Y-185385771D01*
X207077200Y-185457200D01*
X207720057Y-186314342D02*
X207577200Y-186385771D01*
X207220057Y-186385771D01*
X207077200Y-186314342D01*
X207005771Y-186171485D01*
X207005771Y-186028628D01*
X207077200Y-185885771D01*
X207220057Y-185814342D01*
X207577200Y-185814342D01*
X207720057Y-185742914D01*
X209077200Y-186385771D02*
X209077200Y-184885771D01*
X209077200Y-186314342D02*
X208934342Y-186385771D01*
X208648628Y-186385771D01*
X208505771Y-186314342D01*
X208434342Y-186242914D01*
X208362914Y-186100057D01*
X208362914Y-185671485D01*
X208434342Y-185528628D01*
X208505771Y-185457200D01*
X208648628Y-185385771D01*
X208934342Y-185385771D01*
X209077200Y-185457200D01*
X209434342Y-186528628D02*
X210577200Y-186528628D01*
X210934342Y-185385771D02*
X210934342Y-186885771D01*
X210934342Y-185457200D02*
X211077200Y-185385771D01*
X211362914Y-185385771D01*
X211505771Y-185457200D01*
X211577200Y-185528628D01*
X211648628Y-185671485D01*
X211648628Y-186100057D01*
X211577200Y-186242914D01*
X211505771Y-186314342D01*
X211362914Y-186385771D01*
X211077200Y-186385771D01*
X210934342Y-186314342D01*
X212934342Y-186314342D02*
X212791485Y-186385771D01*
X212505771Y-186385771D01*
X212362914Y-186314342D01*
X212291485Y-186242914D01*
X212220057Y-186100057D01*
X212220057Y-185671485D01*
X212291485Y-185528628D01*
X212362914Y-185457200D01*
X212505771Y-185385771D01*
X212791485Y-185385771D01*
X212934342Y-185457200D01*
X213577200Y-186385771D02*
X213577200Y-184885771D01*
X213577200Y-185457200D02*
X213720057Y-185385771D01*
X214005771Y-185385771D01*
X214148628Y-185457200D01*
X214220057Y-185528628D01*
X214291485Y-185671485D01*
X214291485Y-186100057D01*
X214220057Y-186242914D01*
X214148628Y-186314342D01*
X214005771Y-186385771D01*
X213720057Y-186385771D01*
X213577200Y-186314342D01*
D10*
D11*
X177002200Y-181507200D02*
X285002200Y-181507200D01*
D10*
D11*
X178362914Y-183614342D02*
X178577200Y-183685771D01*
X178934342Y-183685771D01*
X179077200Y-183614342D01*
X179148628Y-183542914D01*
X179220057Y-183400057D01*
X179220057Y-183257200D01*
X179148628Y-183114342D01*
X179077200Y-183042914D01*
X178934342Y-182971485D01*
X178648628Y-182900057D01*
X178505771Y-182828628D01*
X178434342Y-182757200D01*
X178362914Y-182614342D01*
X178362914Y-182471485D01*
X178434342Y-182328628D01*
X178505771Y-182257200D01*
X178648628Y-182185771D01*
X179005771Y-182185771D01*
X179220057Y-182257200D01*
X179862914Y-183685771D02*
X179862914Y-182185771D01*
X180505771Y-183685771D02*
X180505771Y-182900057D01*
X180434342Y-182757200D01*
X180291485Y-182685771D01*
X180077200Y-182685771D01*
X179934342Y-182757200D01*
X179862914Y-182828628D01*
X181791485Y-183614342D02*
X181648628Y-183685771D01*
X181362914Y-183685771D01*
X181220057Y-183614342D01*
X181148628Y-183471485D01*
X181148628Y-182900057D01*
X181220057Y-182757200D01*
X181362914Y-182685771D01*
X181648628Y-182685771D01*
X181791485Y-182757200D01*
X181862914Y-182900057D01*
X181862914Y-183042914D01*
X181148628Y-183185771D01*
X183077200Y-183614342D02*
X182934342Y-183685771D01*
X182648628Y-183685771D01*
X182505771Y-183614342D01*
X182434342Y-183471485D01*
X182434342Y-182900057D01*
X182505771Y-182757200D01*
X182648628Y-182685771D01*
X182934342Y-182685771D01*
X183077200Y-182757200D01*
X183148628Y-182900057D01*
X183148628Y-183042914D01*
X182434342Y-183185771D01*
X183577200Y-182685771D02*
X184148628Y-182685771D01*
X183791485Y-182185771D02*
X183791485Y-183471485D01*
X183862914Y-183614342D01*
X184005771Y-183685771D01*
X184148628Y-183685771D01*
X184648628Y-183542914D02*
X184720057Y-183614342D01*
X184648628Y-183685771D01*
X184577200Y-183614342D01*
X184648628Y-183542914D01*
X184648628Y-183685771D01*
X184648628Y-182757200D02*
X184720057Y-182828628D01*
X184648628Y-182900057D01*
X184577200Y-182828628D01*
X184648628Y-182757200D01*
X184648628Y-182900057D01*
D10*
D11*
X197002200Y-191507200D02*
X197002200Y-194507200D01*
D10*
D11*
X261002200Y-191507200D02*
X261002200Y-198007200D01*
D14*
%TO.C,U4*%
X139180000Y-129720000D03*
X139180000Y-132260000D03*
D15*
X139180000Y-137340000D03*
D14*
X139180000Y-134800000D03*
X57200000Y-116990000D03*
X57200000Y-119530000D03*
D15*
X57200000Y-150010000D03*
D16*
X138200000Y-155500000D03*
X138200000Y-111500000D03*
D17*
X62120000Y-155500000D03*
X62120000Y-111500000D03*
D14*
X57200000Y-147470000D03*
X57200000Y-144930000D03*
X57200000Y-142390000D03*
X57200000Y-139850000D03*
X57200000Y-137310000D03*
X57200000Y-134770000D03*
X57200000Y-132230000D03*
X57200000Y-129690000D03*
X57200000Y-127150000D03*
X57200000Y-124610000D03*
X57200000Y-122070000D03*
%TD*%
D10*
%TO.C,R3*%
G36*
X127377691Y-130576053D02*
G01*
X127398926Y-130579203D01*
X127419750Y-130584419D01*
X127439962Y-130591651D01*
X127459368Y-130600830D01*
X127477781Y-130611866D01*
X127495024Y-130624654D01*
X127510930Y-130639070D01*
X127525346Y-130654976D01*
X127538134Y-130672219D01*
X127549170Y-130690632D01*
X127558349Y-130710038D01*
X127565581Y-130730250D01*
X127570797Y-130751074D01*
X127573947Y-130772309D01*
X127575000Y-130793750D01*
X127575000Y-131231250D01*
X127573947Y-131252691D01*
X127570797Y-131273926D01*
X127565581Y-131294750D01*
X127558349Y-131314962D01*
X127549170Y-131334368D01*
X127538134Y-131352781D01*
X127525346Y-131370024D01*
X127510930Y-131385930D01*
X127495024Y-131400346D01*
X127477781Y-131413134D01*
X127459368Y-131424170D01*
X127439962Y-131433349D01*
X127419750Y-131440581D01*
X127398926Y-131445797D01*
X127377691Y-131448947D01*
X127356250Y-131450000D01*
X126843750Y-131450000D01*
X126822309Y-131448947D01*
X126801074Y-131445797D01*
X126780250Y-131440581D01*
X126760038Y-131433349D01*
X126740632Y-131424170D01*
X126722219Y-131413134D01*
X126704976Y-131400346D01*
X126689070Y-131385930D01*
X126674654Y-131370024D01*
X126661866Y-131352781D01*
X126650830Y-131334368D01*
X126641651Y-131314962D01*
X126634419Y-131294750D01*
X126629203Y-131273926D01*
X126626053Y-131252691D01*
X126625000Y-131231250D01*
X126625000Y-130793750D01*
X126626053Y-130772309D01*
X126629203Y-130751074D01*
X126634419Y-130730250D01*
X126641651Y-130710038D01*
X126650830Y-130690632D01*
X126661866Y-130672219D01*
X126674654Y-130654976D01*
X126689070Y-130639070D01*
X126704976Y-130624654D01*
X126722219Y-130611866D01*
X126740632Y-130600830D01*
X126760038Y-130591651D01*
X126780250Y-130584419D01*
X126801074Y-130579203D01*
X126822309Y-130576053D01*
X126843750Y-130575000D01*
X127356250Y-130575000D01*
X127377691Y-130576053D01*
G37*
G36*
X127377691Y-132151053D02*
G01*
X127398926Y-132154203D01*
X127419750Y-132159419D01*
X127439962Y-132166651D01*
X127459368Y-132175830D01*
X127477781Y-132186866D01*
X127495024Y-132199654D01*
X127510930Y-132214070D01*
X127525346Y-132229976D01*
X127538134Y-132247219D01*
X127549170Y-132265632D01*
X127558349Y-132285038D01*
X127565581Y-132305250D01*
X127570797Y-132326074D01*
X127573947Y-132347309D01*
X127575000Y-132368750D01*
X127575000Y-132806250D01*
X127573947Y-132827691D01*
X127570797Y-132848926D01*
X127565581Y-132869750D01*
X127558349Y-132889962D01*
X127549170Y-132909368D01*
X127538134Y-132927781D01*
X127525346Y-132945024D01*
X127510930Y-132960930D01*
X127495024Y-132975346D01*
X127477781Y-132988134D01*
X127459368Y-132999170D01*
X127439962Y-133008349D01*
X127419750Y-133015581D01*
X127398926Y-133020797D01*
X127377691Y-133023947D01*
X127356250Y-133025000D01*
X126843750Y-133025000D01*
X126822309Y-133023947D01*
X126801074Y-133020797D01*
X126780250Y-133015581D01*
X126760038Y-133008349D01*
X126740632Y-132999170D01*
X126722219Y-132988134D01*
X126704976Y-132975346D01*
X126689070Y-132960930D01*
X126674654Y-132945024D01*
X126661866Y-132927781D01*
X126650830Y-132909368D01*
X126641651Y-132889962D01*
X126634419Y-132869750D01*
X126629203Y-132848926D01*
X126626053Y-132827691D01*
X126625000Y-132806250D01*
X126625000Y-132368750D01*
X126626053Y-132347309D01*
X126629203Y-132326074D01*
X126634419Y-132305250D01*
X126641651Y-132285038D01*
X126650830Y-132265632D01*
X126661866Y-132247219D01*
X126674654Y-132229976D01*
X126689070Y-132214070D01*
X126704976Y-132199654D01*
X126722219Y-132186866D01*
X126740632Y-132175830D01*
X126760038Y-132166651D01*
X126780250Y-132159419D01*
X126801074Y-132154203D01*
X126822309Y-132151053D01*
X126843750Y-132150000D01*
X127356250Y-132150000D01*
X127377691Y-132151053D01*
G37*
%TD*%
D18*
%TO.C,U1*%
X124400000Y-143650000D03*
X129000000Y-143650000D03*
X126700000Y-143650000D03*
D19*
X126700000Y-137350000D03*
%TD*%
D20*
%TO.C,P1*%
X107500000Y-130600000D03*
D21*
X102500000Y-130600000D03*
%TD*%
D10*
%TO.C,R4*%
G36*
X114677691Y-133576053D02*
G01*
X114698926Y-133579203D01*
X114719750Y-133584419D01*
X114739962Y-133591651D01*
X114759368Y-133600830D01*
X114777781Y-133611866D01*
X114795024Y-133624654D01*
X114810930Y-133639070D01*
X114825346Y-133654976D01*
X114838134Y-133672219D01*
X114849170Y-133690632D01*
X114858349Y-133710038D01*
X114865581Y-133730250D01*
X114870797Y-133751074D01*
X114873947Y-133772309D01*
X114875000Y-133793750D01*
X114875000Y-134231250D01*
X114873947Y-134252691D01*
X114870797Y-134273926D01*
X114865581Y-134294750D01*
X114858349Y-134314962D01*
X114849170Y-134334368D01*
X114838134Y-134352781D01*
X114825346Y-134370024D01*
X114810930Y-134385930D01*
X114795024Y-134400346D01*
X114777781Y-134413134D01*
X114759368Y-134424170D01*
X114739962Y-134433349D01*
X114719750Y-134440581D01*
X114698926Y-134445797D01*
X114677691Y-134448947D01*
X114656250Y-134450000D01*
X114143750Y-134450000D01*
X114122309Y-134448947D01*
X114101074Y-134445797D01*
X114080250Y-134440581D01*
X114060038Y-134433349D01*
X114040632Y-134424170D01*
X114022219Y-134413134D01*
X114004976Y-134400346D01*
X113989070Y-134385930D01*
X113974654Y-134370024D01*
X113961866Y-134352781D01*
X113950830Y-134334368D01*
X113941651Y-134314962D01*
X113934419Y-134294750D01*
X113929203Y-134273926D01*
X113926053Y-134252691D01*
X113925000Y-134231250D01*
X113925000Y-133793750D01*
X113926053Y-133772309D01*
X113929203Y-133751074D01*
X113934419Y-133730250D01*
X113941651Y-133710038D01*
X113950830Y-133690632D01*
X113961866Y-133672219D01*
X113974654Y-133654976D01*
X113989070Y-133639070D01*
X114004976Y-133624654D01*
X114022219Y-133611866D01*
X114040632Y-133600830D01*
X114060038Y-133591651D01*
X114080250Y-133584419D01*
X114101074Y-133579203D01*
X114122309Y-133576053D01*
X114143750Y-133575000D01*
X114656250Y-133575000D01*
X114677691Y-133576053D01*
G37*
G36*
X114677691Y-135151053D02*
G01*
X114698926Y-135154203D01*
X114719750Y-135159419D01*
X114739962Y-135166651D01*
X114759368Y-135175830D01*
X114777781Y-135186866D01*
X114795024Y-135199654D01*
X114810930Y-135214070D01*
X114825346Y-135229976D01*
X114838134Y-135247219D01*
X114849170Y-135265632D01*
X114858349Y-135285038D01*
X114865581Y-135305250D01*
X114870797Y-135326074D01*
X114873947Y-135347309D01*
X114875000Y-135368750D01*
X114875000Y-135806250D01*
X114873947Y-135827691D01*
X114870797Y-135848926D01*
X114865581Y-135869750D01*
X114858349Y-135889962D01*
X114849170Y-135909368D01*
X114838134Y-135927781D01*
X114825346Y-135945024D01*
X114810930Y-135960930D01*
X114795024Y-135975346D01*
X114777781Y-135988134D01*
X114759368Y-135999170D01*
X114739962Y-136008349D01*
X114719750Y-136015581D01*
X114698926Y-136020797D01*
X114677691Y-136023947D01*
X114656250Y-136025000D01*
X114143750Y-136025000D01*
X114122309Y-136023947D01*
X114101074Y-136020797D01*
X114080250Y-136015581D01*
X114060038Y-136008349D01*
X114040632Y-135999170D01*
X114022219Y-135988134D01*
X114004976Y-135975346D01*
X113989070Y-135960930D01*
X113974654Y-135945024D01*
X113961866Y-135927781D01*
X113950830Y-135909368D01*
X113941651Y-135889962D01*
X113934419Y-135869750D01*
X113929203Y-135848926D01*
X113926053Y-135827691D01*
X113925000Y-135806250D01*
X113925000Y-135368750D01*
X113926053Y-135347309D01*
X113929203Y-135326074D01*
X113934419Y-135305250D01*
X113941651Y-135285038D01*
X113950830Y-135265632D01*
X113961866Y-135247219D01*
X113974654Y-135229976D01*
X113989070Y-135214070D01*
X114004976Y-135199654D01*
X114022219Y-135186866D01*
X114040632Y-135175830D01*
X114060038Y-135166651D01*
X114080250Y-135159419D01*
X114101074Y-135154203D01*
X114122309Y-135151053D01*
X114143750Y-135150000D01*
X114656250Y-135150000D01*
X114677691Y-135151053D01*
G37*
%TD*%
D22*
%TO.C,U3*%
X157020000Y-147900000D03*
X154480000Y-147900000D03*
X151940000Y-147900000D03*
D23*
X149400000Y-147900000D03*
%TD*%
D24*
%TO.C,P2*%
X87220000Y-103500000D03*
X84680000Y-103500000D03*
X82140000Y-103500000D03*
D15*
X79600000Y-103500000D03*
%TD*%
D25*
%TO.C,D1*%
X134800000Y-114880000D03*
D26*
X134800000Y-122500000D03*
%TD*%
D27*
%TO.C,D2*%
X131270000Y-104500000D03*
D28*
X128730000Y-104500000D03*
%TD*%
D29*
%TO.C,K1*%
X121780000Y-114100000D03*
X129400000Y-114100000D03*
X121780000Y-121720000D03*
X121780000Y-126800000D03*
D30*
X129400000Y-126800000D03*
%TD*%
D31*
%TO.C,Q1*%
X117300000Y-104200000D03*
X119300000Y-103250000D03*
X119300000Y-105150000D03*
%TD*%
D10*
%TO.C,R1*%
G36*
X98777691Y-129251053D02*
G01*
X98798926Y-129254203D01*
X98819750Y-129259419D01*
X98839962Y-129266651D01*
X98859368Y-129275830D01*
X98877781Y-129286866D01*
X98895024Y-129299654D01*
X98910930Y-129314070D01*
X98925346Y-129329976D01*
X98938134Y-129347219D01*
X98949170Y-129365632D01*
X98958349Y-129385038D01*
X98965581Y-129405250D01*
X98970797Y-129426074D01*
X98973947Y-129447309D01*
X98975000Y-129468750D01*
X98975000Y-129906250D01*
X98973947Y-129927691D01*
X98970797Y-129948926D01*
X98965581Y-129969750D01*
X98958349Y-129989962D01*
X98949170Y-130009368D01*
X98938134Y-130027781D01*
X98925346Y-130045024D01*
X98910930Y-130060930D01*
X98895024Y-130075346D01*
X98877781Y-130088134D01*
X98859368Y-130099170D01*
X98839962Y-130108349D01*
X98819750Y-130115581D01*
X98798926Y-130120797D01*
X98777691Y-130123947D01*
X98756250Y-130125000D01*
X98243750Y-130125000D01*
X98222309Y-130123947D01*
X98201074Y-130120797D01*
X98180250Y-130115581D01*
X98160038Y-130108349D01*
X98140632Y-130099170D01*
X98122219Y-130088134D01*
X98104976Y-130075346D01*
X98089070Y-130060930D01*
X98074654Y-130045024D01*
X98061866Y-130027781D01*
X98050830Y-130009368D01*
X98041651Y-129989962D01*
X98034419Y-129969750D01*
X98029203Y-129948926D01*
X98026053Y-129927691D01*
X98025000Y-129906250D01*
X98025000Y-129468750D01*
X98026053Y-129447309D01*
X98029203Y-129426074D01*
X98034419Y-129405250D01*
X98041651Y-129385038D01*
X98050830Y-129365632D01*
X98061866Y-129347219D01*
X98074654Y-129329976D01*
X98089070Y-129314070D01*
X98104976Y-129299654D01*
X98122219Y-129286866D01*
X98140632Y-129275830D01*
X98160038Y-129266651D01*
X98180250Y-129259419D01*
X98201074Y-129254203D01*
X98222309Y-129251053D01*
X98243750Y-129250000D01*
X98756250Y-129250000D01*
X98777691Y-129251053D01*
G37*
G36*
X98777691Y-127676053D02*
G01*
X98798926Y-127679203D01*
X98819750Y-127684419D01*
X98839962Y-127691651D01*
X98859368Y-127700830D01*
X98877781Y-127711866D01*
X98895024Y-127724654D01*
X98910930Y-127739070D01*
X98925346Y-127754976D01*
X98938134Y-127772219D01*
X98949170Y-127790632D01*
X98958349Y-127810038D01*
X98965581Y-127830250D01*
X98970797Y-127851074D01*
X98973947Y-127872309D01*
X98975000Y-127893750D01*
X98975000Y-128331250D01*
X98973947Y-128352691D01*
X98970797Y-128373926D01*
X98965581Y-128394750D01*
X98958349Y-128414962D01*
X98949170Y-128434368D01*
X98938134Y-128452781D01*
X98925346Y-128470024D01*
X98910930Y-128485930D01*
X98895024Y-128500346D01*
X98877781Y-128513134D01*
X98859368Y-128524170D01*
X98839962Y-128533349D01*
X98819750Y-128540581D01*
X98798926Y-128545797D01*
X98777691Y-128548947D01*
X98756250Y-128550000D01*
X98243750Y-128550000D01*
X98222309Y-128548947D01*
X98201074Y-128545797D01*
X98180250Y-128540581D01*
X98160038Y-128533349D01*
X98140632Y-128524170D01*
X98122219Y-128513134D01*
X98104976Y-128500346D01*
X98089070Y-128485930D01*
X98074654Y-128470024D01*
X98061866Y-128452781D01*
X98050830Y-128434368D01*
X98041651Y-128414962D01*
X98034419Y-128394750D01*
X98029203Y-128373926D01*
X98026053Y-128352691D01*
X98025000Y-128331250D01*
X98025000Y-127893750D01*
X98026053Y-127872309D01*
X98029203Y-127851074D01*
X98034419Y-127830250D01*
X98041651Y-127810038D01*
X98050830Y-127790632D01*
X98061866Y-127772219D01*
X98074654Y-127754976D01*
X98089070Y-127739070D01*
X98104976Y-127724654D01*
X98122219Y-127711866D01*
X98140632Y-127700830D01*
X98160038Y-127691651D01*
X98180250Y-127684419D01*
X98201074Y-127679203D01*
X98222309Y-127676053D01*
X98243750Y-127675000D01*
X98756250Y-127675000D01*
X98777691Y-127676053D01*
G37*
%TD*%
%TO.C,R2*%
G36*
X110677691Y-102976053D02*
G01*
X110698926Y-102979203D01*
X110719750Y-102984419D01*
X110739962Y-102991651D01*
X110759368Y-103000830D01*
X110777781Y-103011866D01*
X110795024Y-103024654D01*
X110810930Y-103039070D01*
X110825346Y-103054976D01*
X110838134Y-103072219D01*
X110849170Y-103090632D01*
X110858349Y-103110038D01*
X110865581Y-103130250D01*
X110870797Y-103151074D01*
X110873947Y-103172309D01*
X110875000Y-103193750D01*
X110875000Y-103631250D01*
X110873947Y-103652691D01*
X110870797Y-103673926D01*
X110865581Y-103694750D01*
X110858349Y-103714962D01*
X110849170Y-103734368D01*
X110838134Y-103752781D01*
X110825346Y-103770024D01*
X110810930Y-103785930D01*
X110795024Y-103800346D01*
X110777781Y-103813134D01*
X110759368Y-103824170D01*
X110739962Y-103833349D01*
X110719750Y-103840581D01*
X110698926Y-103845797D01*
X110677691Y-103848947D01*
X110656250Y-103850000D01*
X110143750Y-103850000D01*
X110122309Y-103848947D01*
X110101074Y-103845797D01*
X110080250Y-103840581D01*
X110060038Y-103833349D01*
X110040632Y-103824170D01*
X110022219Y-103813134D01*
X110004976Y-103800346D01*
X109989070Y-103785930D01*
X109974654Y-103770024D01*
X109961866Y-103752781D01*
X109950830Y-103734368D01*
X109941651Y-103714962D01*
X109934419Y-103694750D01*
X109929203Y-103673926D01*
X109926053Y-103652691D01*
X109925000Y-103631250D01*
X109925000Y-103193750D01*
X109926053Y-103172309D01*
X109929203Y-103151074D01*
X109934419Y-103130250D01*
X109941651Y-103110038D01*
X109950830Y-103090632D01*
X109961866Y-103072219D01*
X109974654Y-103054976D01*
X109989070Y-103039070D01*
X110004976Y-103024654D01*
X110022219Y-103011866D01*
X110040632Y-103000830D01*
X110060038Y-102991651D01*
X110080250Y-102984419D01*
X110101074Y-102979203D01*
X110122309Y-102976053D01*
X110143750Y-102975000D01*
X110656250Y-102975000D01*
X110677691Y-102976053D01*
G37*
G36*
X110677691Y-104551053D02*
G01*
X110698926Y-104554203D01*
X110719750Y-104559419D01*
X110739962Y-104566651D01*
X110759368Y-104575830D01*
X110777781Y-104586866D01*
X110795024Y-104599654D01*
X110810930Y-104614070D01*
X110825346Y-104629976D01*
X110838134Y-104647219D01*
X110849170Y-104665632D01*
X110858349Y-104685038D01*
X110865581Y-104705250D01*
X110870797Y-104726074D01*
X110873947Y-104747309D01*
X110875000Y-104768750D01*
X110875000Y-105206250D01*
X110873947Y-105227691D01*
X110870797Y-105248926D01*
X110865581Y-105269750D01*
X110858349Y-105289962D01*
X110849170Y-105309368D01*
X110838134Y-105327781D01*
X110825346Y-105345024D01*
X110810930Y-105360930D01*
X110795024Y-105375346D01*
X110777781Y-105388134D01*
X110759368Y-105399170D01*
X110739962Y-105408349D01*
X110719750Y-105415581D01*
X110698926Y-105420797D01*
X110677691Y-105423947D01*
X110656250Y-105425000D01*
X110143750Y-105425000D01*
X110122309Y-105423947D01*
X110101074Y-105420797D01*
X110080250Y-105415581D01*
X110060038Y-105408349D01*
X110040632Y-105399170D01*
X110022219Y-105388134D01*
X110004976Y-105375346D01*
X109989070Y-105360930D01*
X109974654Y-105345024D01*
X109961866Y-105327781D01*
X109950830Y-105309368D01*
X109941651Y-105289962D01*
X109934419Y-105269750D01*
X109929203Y-105248926D01*
X109926053Y-105227691D01*
X109925000Y-105206250D01*
X109925000Y-104768750D01*
X109926053Y-104747309D01*
X109929203Y-104726074D01*
X109934419Y-104705250D01*
X109941651Y-104685038D01*
X109950830Y-104665632D01*
X109961866Y-104647219D01*
X109974654Y-104629976D01*
X109989070Y-104614070D01*
X110004976Y-104599654D01*
X110022219Y-104586866D01*
X110040632Y-104575830D01*
X110060038Y-104566651D01*
X110080250Y-104559419D01*
X110101074Y-104554203D01*
X110122309Y-104551053D01*
X110143750Y-104550000D01*
X110656250Y-104550000D01*
X110677691Y-104551053D01*
G37*
%TD*%
D32*
%TO.C,SW1*%
X150250000Y-105250000D03*
X150250000Y-109750000D03*
X156750000Y-105250000D03*
X156750000Y-109750000D03*
%TD*%
D33*
%TO.C,U2*%
X93745000Y-123690000D03*
X93745000Y-124960000D03*
X93745000Y-126230000D03*
X93745000Y-127500000D03*
X93745000Y-128770000D03*
X93745000Y-130040000D03*
X93745000Y-131310000D03*
X93745000Y-132580000D03*
X93745000Y-133850000D03*
X93745000Y-135120000D03*
X93745000Y-136390000D03*
X93745000Y-137660000D03*
X93745000Y-138930000D03*
X93745000Y-140200000D03*
D34*
X90960000Y-141200000D03*
X89690000Y-141200000D03*
X88420000Y-141200000D03*
X87150000Y-141200000D03*
X85880000Y-141200000D03*
X84610000Y-141200000D03*
X83340000Y-141200000D03*
X82070000Y-141200000D03*
X80800000Y-141200000D03*
X79530000Y-141200000D03*
D33*
X76745000Y-140200000D03*
X76745000Y-138930000D03*
X76745000Y-137660000D03*
X76745000Y-136390000D03*
X76745000Y-135120000D03*
X76745000Y-133850000D03*
X76745000Y-132580000D03*
X76745000Y-131310000D03*
X76745000Y-130040000D03*
X76745000Y-128770000D03*
X76745000Y-127500000D03*
X76745000Y-126230000D03*
X76745000Y-124960000D03*
X76745000Y-123690000D03*
D35*
X84245000Y-131190000D03*
%TD*%
D36*
%TO.C,BT1*%
X48500000Y-147180000D03*
D37*
X48500000Y-142100000D03*
%TD*%
D10*
%TO.C,C1*%
G36*
X125530142Y-150701174D02*
G01*
X125553803Y-150704684D01*
X125577007Y-150710496D01*
X125599529Y-150718554D01*
X125621153Y-150728782D01*
X125641670Y-150741079D01*
X125660883Y-150755329D01*
X125678607Y-150771393D01*
X125694671Y-150789117D01*
X125708921Y-150808330D01*
X125721218Y-150828847D01*
X125731446Y-150850471D01*
X125739504Y-150872993D01*
X125745316Y-150896197D01*
X125748826Y-150919858D01*
X125750000Y-150943750D01*
X125750000Y-151856250D01*
X125748826Y-151880142D01*
X125745316Y-151903803D01*
X125739504Y-151927007D01*
X125731446Y-151949529D01*
X125721218Y-151971153D01*
X125708921Y-151991670D01*
X125694671Y-152010883D01*
X125678607Y-152028607D01*
X125660883Y-152044671D01*
X125641670Y-152058921D01*
X125621153Y-152071218D01*
X125599529Y-152081446D01*
X125577007Y-152089504D01*
X125553803Y-152095316D01*
X125530142Y-152098826D01*
X125506250Y-152100000D01*
X125018750Y-152100000D01*
X124994858Y-152098826D01*
X124971197Y-152095316D01*
X124947993Y-152089504D01*
X124925471Y-152081446D01*
X124903847Y-152071218D01*
X124883330Y-152058921D01*
X124864117Y-152044671D01*
X124846393Y-152028607D01*
X124830329Y-152010883D01*
X124816079Y-151991670D01*
X124803782Y-151971153D01*
X124793554Y-151949529D01*
X124785496Y-151927007D01*
X124779684Y-151903803D01*
X124776174Y-151880142D01*
X124775000Y-151856250D01*
X124775000Y-150943750D01*
X124776174Y-150919858D01*
X124779684Y-150896197D01*
X124785496Y-150872993D01*
X124793554Y-150850471D01*
X124803782Y-150828847D01*
X124816079Y-150808330D01*
X124830329Y-150789117D01*
X124846393Y-150771393D01*
X124864117Y-150755329D01*
X124883330Y-150741079D01*
X124903847Y-150728782D01*
X124925471Y-150718554D01*
X124947993Y-150710496D01*
X124971197Y-150704684D01*
X124994858Y-150701174D01*
X125018750Y-150700000D01*
X125506250Y-150700000D01*
X125530142Y-150701174D01*
G37*
G36*
X127405142Y-150701174D02*
G01*
X127428803Y-150704684D01*
X127452007Y-150710496D01*
X127474529Y-150718554D01*
X127496153Y-150728782D01*
X127516670Y-150741079D01*
X127535883Y-150755329D01*
X127553607Y-150771393D01*
X127569671Y-150789117D01*
X127583921Y-150808330D01*
X127596218Y-150828847D01*
X127606446Y-150850471D01*
X127614504Y-150872993D01*
X127620316Y-150896197D01*
X127623826Y-150919858D01*
X127625000Y-150943750D01*
X127625000Y-151856250D01*
X127623826Y-151880142D01*
X127620316Y-151903803D01*
X127614504Y-151927007D01*
X127606446Y-151949529D01*
X127596218Y-151971153D01*
X127583921Y-151991670D01*
X127569671Y-152010883D01*
X127553607Y-152028607D01*
X127535883Y-152044671D01*
X127516670Y-152058921D01*
X127496153Y-152071218D01*
X127474529Y-152081446D01*
X127452007Y-152089504D01*
X127428803Y-152095316D01*
X127405142Y-152098826D01*
X127381250Y-152100000D01*
X126893750Y-152100000D01*
X126869858Y-152098826D01*
X126846197Y-152095316D01*
X126822993Y-152089504D01*
X126800471Y-152081446D01*
X126778847Y-152071218D01*
X126758330Y-152058921D01*
X126739117Y-152044671D01*
X126721393Y-152028607D01*
X126705329Y-152010883D01*
X126691079Y-151991670D01*
X126678782Y-151971153D01*
X126668554Y-151949529D01*
X126660496Y-151927007D01*
X126654684Y-151903803D01*
X126651174Y-151880142D01*
X126650000Y-151856250D01*
X126650000Y-150943750D01*
X126651174Y-150919858D01*
X126654684Y-150896197D01*
X126660496Y-150872993D01*
X126668554Y-150850471D01*
X126678782Y-150828847D01*
X126691079Y-150808330D01*
X126705329Y-150789117D01*
X126721393Y-150771393D01*
X126739117Y-150755329D01*
X126758330Y-150741079D01*
X126778847Y-150728782D01*
X126800471Y-150718554D01*
X126822993Y-150710496D01*
X126846197Y-150704684D01*
X126869858Y-150701174D01*
X126893750Y-150700000D01*
X127381250Y-150700000D01*
X127405142Y-150701174D01*
G37*
%TD*%
%TO.C,C2*%
G36*
X125530142Y-146501174D02*
G01*
X125553803Y-146504684D01*
X125577007Y-146510496D01*
X125599529Y-146518554D01*
X125621153Y-146528782D01*
X125641670Y-146541079D01*
X125660883Y-146555329D01*
X125678607Y-146571393D01*
X125694671Y-146589117D01*
X125708921Y-146608330D01*
X125721218Y-146628847D01*
X125731446Y-146650471D01*
X125739504Y-146672993D01*
X125745316Y-146696197D01*
X125748826Y-146719858D01*
X125750000Y-146743750D01*
X125750000Y-147656250D01*
X125748826Y-147680142D01*
X125745316Y-147703803D01*
X125739504Y-147727007D01*
X125731446Y-147749529D01*
X125721218Y-147771153D01*
X125708921Y-147791670D01*
X125694671Y-147810883D01*
X125678607Y-147828607D01*
X125660883Y-147844671D01*
X125641670Y-147858921D01*
X125621153Y-147871218D01*
X125599529Y-147881446D01*
X125577007Y-147889504D01*
X125553803Y-147895316D01*
X125530142Y-147898826D01*
X125506250Y-147900000D01*
X125018750Y-147900000D01*
X124994858Y-147898826D01*
X124971197Y-147895316D01*
X124947993Y-147889504D01*
X124925471Y-147881446D01*
X124903847Y-147871218D01*
X124883330Y-147858921D01*
X124864117Y-147844671D01*
X124846393Y-147828607D01*
X124830329Y-147810883D01*
X124816079Y-147791670D01*
X124803782Y-147771153D01*
X124793554Y-147749529D01*
X124785496Y-147727007D01*
X124779684Y-147703803D01*
X124776174Y-147680142D01*
X124775000Y-147656250D01*
X124775000Y-146743750D01*
X124776174Y-146719858D01*
X124779684Y-146696197D01*
X124785496Y-146672993D01*
X124793554Y-146650471D01*
X124803782Y-146628847D01*
X124816079Y-146608330D01*
X124830329Y-146589117D01*
X124846393Y-146571393D01*
X124864117Y-146555329D01*
X124883330Y-146541079D01*
X124903847Y-146528782D01*
X124925471Y-146518554D01*
X124947993Y-146510496D01*
X124971197Y-146504684D01*
X124994858Y-146501174D01*
X125018750Y-146500000D01*
X125506250Y-146500000D01*
X125530142Y-146501174D01*
G37*
G36*
X127405142Y-146501174D02*
G01*
X127428803Y-146504684D01*
X127452007Y-146510496D01*
X127474529Y-146518554D01*
X127496153Y-146528782D01*
X127516670Y-146541079D01*
X127535883Y-146555329D01*
X127553607Y-146571393D01*
X127569671Y-146589117D01*
X127583921Y-146608330D01*
X127596218Y-146628847D01*
X127606446Y-146650471D01*
X127614504Y-146672993D01*
X127620316Y-146696197D01*
X127623826Y-146719858D01*
X127625000Y-146743750D01*
X127625000Y-147656250D01*
X127623826Y-147680142D01*
X127620316Y-147703803D01*
X127614504Y-147727007D01*
X127606446Y-147749529D01*
X127596218Y-147771153D01*
X127583921Y-147791670D01*
X127569671Y-147810883D01*
X127553607Y-147828607D01*
X127535883Y-147844671D01*
X127516670Y-147858921D01*
X127496153Y-147871218D01*
X127474529Y-147881446D01*
X127452007Y-147889504D01*
X127428803Y-147895316D01*
X127405142Y-147898826D01*
X127381250Y-147900000D01*
X126893750Y-147900000D01*
X126869858Y-147898826D01*
X126846197Y-147895316D01*
X126822993Y-147889504D01*
X126800471Y-147881446D01*
X126778847Y-147871218D01*
X126758330Y-147858921D01*
X126739117Y-147844671D01*
X126721393Y-147828607D01*
X126705329Y-147810883D01*
X126691079Y-147791670D01*
X126678782Y-147771153D01*
X126668554Y-147749529D01*
X126660496Y-147727007D01*
X126654684Y-147703803D01*
X126651174Y-147680142D01*
X126650000Y-147656250D01*
X126650000Y-146743750D01*
X126651174Y-146719858D01*
X126654684Y-146696197D01*
X126660496Y-146672993D01*
X126668554Y-146650471D01*
X126678782Y-146628847D01*
X126691079Y-146608330D01*
X126705329Y-146589117D01*
X126721393Y-146571393D01*
X126739117Y-146555329D01*
X126758330Y-146541079D01*
X126778847Y-146528782D01*
X126800471Y-146518554D01*
X126822993Y-146510496D01*
X126846197Y-146504684D01*
X126869858Y-146501174D01*
X126893750Y-146500000D01*
X127381250Y-146500000D01*
X127405142Y-146501174D01*
G37*
%TD*%
D38*
%TO.C,J1*%
X99500000Y-146900000D03*
D39*
X105300000Y-146900000D03*
D40*
X102500000Y-142100000D03*
%TD*%
M02*
