M48
; DRILL file {KiCad 5.1.5+dfsg1-2build2} date mar 19 ene 2021 23:04:26
; FORMAT={-:-/ absolute / metric / decimal}
; #@! TF.CreationDate,2021-01-19T23:04:26+01:00
; #@! TF.GenerationSoftware,Kicad,Pcbnew,5.1.5+dfsg1-2build2
; #@! TF.FileFunction,Plated,1,2,PTH
FMAT,2
METRIC
T1C0.762
T2C0.800
T3C0.800
T4C0.900
T5C1.000
T6C1.100
T7C1.300
T8C1.501
T9C4.000
T10C5.000
%
G90
G05
T1
X62.12Y-111.5
X62.12Y-155.5
X138.2Y-111.5
X138.2Y-155.5
T2
X149.4Y-147.9
X151.94Y-147.9
X154.48Y-147.9
X157.02Y-147.9
X134.8Y-114.88
X134.8Y-122.5
T3
X121.78Y-114.1
X121.78Y-121.72
X121.78Y-126.8
X129.4Y-114.1
X129.4Y-126.8
T4
X128.73Y-104.5
X131.27Y-104.5
T5
X79.6Y-103.5
X82.14Y-103.5
X84.68Y-103.5
X87.22Y-103.5
X57.2Y-116.99
X57.2Y-119.53
X57.2Y-122.07
X57.2Y-124.61
X57.2Y-127.15
X57.2Y-129.69
X57.2Y-132.23
X57.2Y-134.77
X57.2Y-137.31
X57.2Y-139.85
X57.2Y-142.39
X57.2Y-144.93
X57.2Y-147.47
X57.2Y-150.01
X139.18Y-129.72
X139.18Y-132.26
X139.18Y-134.8
X139.18Y-137.34
T6
X150.25Y-105.25
X150.25Y-109.75
X156.75Y-105.25
X156.75Y-109.75
T7
X102.5Y-130.6
X107.5Y-130.6
T8
X48.5Y-142.1
X48.5Y-147.18
T9
X45.0Y-96.5
X45.0Y-159.0
X62.125Y-111.51
X62.125Y-155.55
X138.2Y-111.5
X138.2Y-155.5
X157.0Y-97.0
X157.55Y-159.0
T10
X101.0Y-98.53
T2
G00X99.5Y-148.2
M15
G01X99.5Y-145.6
M16
G05
G00X103.6Y-142.1
M15
G01X101.4Y-142.1
M16
G05
G00X105.3Y-148.0
M15
G01X105.3Y-145.8
M16
G05
T0
M30
