G04 #@! TF.GenerationSoftware,KiCad,Pcbnew,6.0.1-79c1e3a40b~116~ubuntu20.04.1*
G04 #@! TF.CreationDate,2022-01-19T17:49:25+01:00*
G04 #@! TF.ProjectId,usb,7573622e-6b69-4636-9164-5f7063625858,rev?*
G04 #@! TF.SameCoordinates,Original*
G04 #@! TF.FileFunction,Legend,Bot*
G04 #@! TF.FilePolarity,Positive*
%FSLAX46Y46*%
G04 Gerber Fmt 4.6, Leading zero omitted, Abs format (unit mm)*
G04 Created by KiCad (PCBNEW 6.0.1-79c1e3a40b~116~ubuntu20.04.1) date 2022-01-19 17:49:25*
%MOMM*%
%LPD*%
G01*
G04 APERTURE LIST*
%ADD10C,0.300000*%
%ADD11R,1.500000X1.050000*%
%ADD12O,1.500000X1.050000*%
%ADD13C,1.100000*%
%ADD14O,3.500000X1.900000*%
G04 APERTURE END LIST*
D10*
X136415714Y-73921071D02*
X136415714Y-72421071D01*
X135487142Y-73921071D02*
X135630000Y-73849642D01*
X135701428Y-73778214D01*
X135772857Y-73635357D01*
X135772857Y-73206785D01*
X135701428Y-73063928D01*
X135630000Y-72992500D01*
X135487142Y-72921071D01*
X135272857Y-72921071D01*
X135130000Y-72992500D01*
X135058571Y-73063928D01*
X134987142Y-73206785D01*
X134987142Y-73635357D01*
X135058571Y-73778214D01*
X135130000Y-73849642D01*
X135272857Y-73921071D01*
X135487142Y-73921071D01*
X134558571Y-72921071D02*
X133987142Y-72921071D01*
X134344285Y-72421071D02*
X134344285Y-73706785D01*
X134272857Y-73849642D01*
X134130000Y-73921071D01*
X133987142Y-73921071D01*
X133701428Y-72421071D02*
X132844285Y-72421071D01*
X133272857Y-73921071D02*
X133272857Y-72421071D01*
X131772857Y-73849642D02*
X131915714Y-73921071D01*
X132201428Y-73921071D01*
X132344285Y-73849642D01*
X132415714Y-73706785D01*
X132415714Y-73135357D01*
X132344285Y-72992500D01*
X132201428Y-72921071D01*
X131915714Y-72921071D01*
X131772857Y-72992500D01*
X131701428Y-73135357D01*
X131701428Y-73278214D01*
X132415714Y-73421071D01*
X131058571Y-73921071D02*
X131058571Y-72921071D01*
X131058571Y-73206785D02*
X130987142Y-73063928D01*
X130915714Y-72992500D01*
X130772857Y-72921071D01*
X130630000Y-72921071D01*
X130130000Y-73921071D02*
X130130000Y-72921071D01*
X130130000Y-73063928D02*
X130058571Y-72992500D01*
X129915714Y-72921071D01*
X129701428Y-72921071D01*
X129558571Y-72992500D01*
X129487142Y-73135357D01*
X129487142Y-73921071D01*
X129487142Y-73135357D02*
X129415714Y-72992500D01*
X129272857Y-72921071D01*
X129058571Y-72921071D01*
X128915714Y-72992500D01*
X128844285Y-73135357D01*
X128844285Y-73921071D01*
X127915714Y-73921071D02*
X128058571Y-73849642D01*
X128130000Y-73778214D01*
X128201428Y-73635357D01*
X128201428Y-73206785D01*
X128130000Y-73063928D01*
X128058571Y-72992500D01*
X127915714Y-72921071D01*
X127701428Y-72921071D01*
X127558571Y-72992500D01*
X127487142Y-73063928D01*
X127415714Y-73206785D01*
X127415714Y-73635357D01*
X127487142Y-73778214D01*
X127558571Y-73849642D01*
X127701428Y-73921071D01*
X127915714Y-73921071D01*
X126772857Y-73921071D02*
X126772857Y-72921071D01*
X126772857Y-73063928D02*
X126701428Y-72992500D01*
X126558571Y-72921071D01*
X126344285Y-72921071D01*
X126201428Y-72992500D01*
X126130000Y-73135357D01*
X126130000Y-73921071D01*
X126130000Y-73135357D02*
X126058571Y-72992500D01*
X125915714Y-72921071D01*
X125701428Y-72921071D01*
X125558571Y-72992500D01*
X125487142Y-73135357D01*
X125487142Y-73921071D01*
X124201428Y-73849642D02*
X124344285Y-73921071D01*
X124630000Y-73921071D01*
X124772857Y-73849642D01*
X124844285Y-73706785D01*
X124844285Y-73135357D01*
X124772857Y-72992500D01*
X124630000Y-72921071D01*
X124344285Y-72921071D01*
X124201428Y-72992500D01*
X124130000Y-73135357D01*
X124130000Y-73278214D01*
X124844285Y-73421071D01*
X123701428Y-72921071D02*
X123130000Y-72921071D01*
X123487142Y-72421071D02*
X123487142Y-73706785D01*
X123415714Y-73849642D01*
X123272857Y-73921071D01*
X123130000Y-73921071D01*
X122630000Y-73921071D02*
X122630000Y-72921071D01*
X122630000Y-73206785D02*
X122558571Y-73063928D01*
X122487142Y-72992500D01*
X122344285Y-72921071D01*
X122201428Y-72921071D01*
X121487142Y-73921071D02*
X121630000Y-73849642D01*
X121701428Y-73778214D01*
X121772857Y-73635357D01*
X121772857Y-73206785D01*
X121701428Y-73063928D01*
X121630000Y-72992500D01*
X121487142Y-72921071D01*
X121272857Y-72921071D01*
X121130000Y-72992500D01*
X121058571Y-73063928D01*
X120987142Y-73206785D01*
X120987142Y-73635357D01*
X121058571Y-73778214D01*
X121130000Y-73849642D01*
X121272857Y-73921071D01*
X121487142Y-73921071D01*
X118415714Y-73921071D02*
X119272857Y-73921071D01*
X118844285Y-73921071D02*
X118844285Y-72421071D01*
X118987142Y-72635357D01*
X119130000Y-72778214D01*
X119272857Y-72849642D01*
X117772857Y-73778214D02*
X117701428Y-73849642D01*
X117772857Y-73921071D01*
X117844285Y-73849642D01*
X117772857Y-73778214D01*
X117772857Y-73921071D01*
X116772857Y-72421071D02*
X116630000Y-72421071D01*
X116487142Y-72492500D01*
X116415714Y-72563928D01*
X116344285Y-72706785D01*
X116272857Y-72992500D01*
X116272857Y-73349642D01*
X116344285Y-73635357D01*
X116415714Y-73778214D01*
X116487142Y-73849642D01*
X116630000Y-73921071D01*
X116772857Y-73921071D01*
X116915714Y-73849642D01*
X116987142Y-73778214D01*
X117058571Y-73635357D01*
X117130000Y-73349642D01*
X117130000Y-72992500D01*
X117058571Y-72706785D01*
X116987142Y-72563928D01*
X116915714Y-72492500D01*
X116772857Y-72421071D01*
X131558571Y-75550357D02*
X131058571Y-75550357D01*
X130844285Y-76336071D02*
X131558571Y-76336071D01*
X131558571Y-74836071D01*
X130844285Y-74836071D01*
X129772857Y-74836071D02*
X129772857Y-75907500D01*
X129844285Y-76121785D01*
X129987142Y-76264642D01*
X130201428Y-76336071D01*
X130344285Y-76336071D01*
X129058571Y-76336071D02*
X129058571Y-74836071D01*
X128487142Y-74836071D01*
X128344285Y-74907500D01*
X128272857Y-74978928D01*
X128201428Y-75121785D01*
X128201428Y-75336071D01*
X128272857Y-75478928D01*
X128344285Y-75550357D01*
X128487142Y-75621785D01*
X129058571Y-75621785D01*
X126415714Y-76336071D02*
X126415714Y-75336071D01*
X126415714Y-75621785D02*
X126344285Y-75478928D01*
X126272857Y-75407500D01*
X126130000Y-75336071D01*
X125987142Y-75336071D01*
X124915714Y-76264642D02*
X125058571Y-76336071D01*
X125344285Y-76336071D01*
X125487142Y-76264642D01*
X125558571Y-76121785D01*
X125558571Y-75550357D01*
X125487142Y-75407500D01*
X125344285Y-75336071D01*
X125058571Y-75336071D01*
X124915714Y-75407500D01*
X124844285Y-75550357D01*
X124844285Y-75693214D01*
X125558571Y-75836071D01*
X124344285Y-75336071D02*
X123987142Y-76336071D01*
X123630000Y-75336071D01*
X121130000Y-76336071D02*
X121987142Y-76336071D01*
X121558571Y-76336071D02*
X121558571Y-74836071D01*
X121701428Y-75050357D01*
X121844285Y-75193214D01*
X121987142Y-75264642D01*
%LPC*%
D11*
X131470000Y-84110000D03*
D12*
X131470000Y-82840000D03*
X131470000Y-81570000D03*
D13*
X144050000Y-76698500D03*
X144050000Y-81298500D03*
D14*
X144050000Y-84698500D03*
X144050000Y-73298500D03*
M02*
