G04 #@! TF.GenerationSoftware,KiCad,Pcbnew,6.0.1-79c1e3a40b~116~ubuntu20.04.1*
G04 #@! TF.CreationDate,2022-01-19T17:49:25+01:00*
G04 #@! TF.ProjectId,usb,7573622e-6b69-4636-9164-5f7063625858,rev?*
G04 #@! TF.SameCoordinates,Original*
G04 #@! TF.FileFunction,Profile,NP*
%FSLAX46Y46*%
G04 Gerber Fmt 4.6, Leading zero omitted, Abs format (unit mm)*
G04 Created by KiCad (PCBNEW 6.0.1-79c1e3a40b~116~ubuntu20.04.1) date 2022-01-19 17:49:25*
%MOMM*%
%LPD*%
G01*
G04 APERTURE LIST*
G04 #@! TA.AperFunction,Profile*
%ADD10C,0.400000*%
G04 #@! TD*
G04 APERTURE END LIST*
D10*
X141500000Y-69250000D02*
X141500000Y-72250000D01*
X99000000Y-72250000D02*
X102000000Y-69250000D01*
X139500000Y-85750000D02*
X139500000Y-88750000D01*
X139500000Y-85750000D02*
X141500000Y-85750000D01*
X125500000Y-69250000D02*
X125500000Y-70300000D01*
X125500000Y-87700000D02*
X121500000Y-87700000D01*
X99000000Y-85750000D02*
X102000000Y-88750000D01*
X145000000Y-69250000D02*
X148000000Y-72250000D01*
X125500000Y-88750000D02*
X125500000Y-87700000D01*
X102000000Y-69250000D02*
X121500000Y-69250000D01*
X125500000Y-69250000D02*
X139500000Y-69250000D01*
X141500000Y-69250000D02*
X145000000Y-69250000D01*
X139500000Y-72250000D02*
X141500000Y-72250000D01*
X121500000Y-88750000D02*
X121500000Y-87700000D01*
X102000000Y-88750000D02*
X121500000Y-88750000D01*
X141500000Y-85750000D02*
X141500000Y-88750000D01*
X148000000Y-72250000D02*
X148000000Y-85750000D01*
X145000000Y-88750000D02*
X148000000Y-85750000D01*
X125500000Y-88750000D02*
X139500000Y-88750000D01*
X99000000Y-72250000D02*
X99000000Y-85750000D01*
X141500000Y-88750000D02*
X145000000Y-88750000D01*
X121500000Y-69250000D02*
X121500000Y-70300000D01*
X139500000Y-69250000D02*
X139500000Y-72250000D01*
X121500000Y-70300000D02*
X125500000Y-70300000D01*
M02*
