%FSLAX45Y45*%
G04 Gerber Fmt 4.5, Leading zero omitted, Abs format (unit mm)*
G04 Created by KiCad (PCBNEW 6.0.1-79c1e3a40b~116~ubuntu20.04.1) date 2022-01-20 10:05:28*
%MOMM*%
%LPD*%
G01*
G04 APERTURE LIST*
%TA.AperFunction,Profile*%
%ADD10C,0.400000*%
%TD*%
%ADD11C,0.200000*%
%ADD12C,0.110000*%
G04 APERTURE END LIST*
D10*
X14150000Y-6925000D02*
X14150000Y-7225000D01*
X9900000Y-7225000D02*
X10200000Y-6925000D01*
X13950000Y-8575000D02*
X13950000Y-8875000D01*
X13950000Y-8575000D02*
X14150000Y-8575000D01*
X12550000Y-6925000D02*
X12550000Y-7030000D01*
X12550000Y-8770000D02*
X12150000Y-8770000D01*
X9900000Y-8575000D02*
X10200000Y-8875000D01*
X14500000Y-6925000D02*
X14800000Y-7225000D01*
X12550000Y-8875000D02*
X12550000Y-8770000D01*
X10200000Y-6925000D02*
X12150000Y-6925000D01*
X12550000Y-6925000D02*
X13950000Y-6925000D01*
X14150000Y-6925000D02*
X14500000Y-6925000D01*
X13950000Y-7225000D02*
X14150000Y-7225000D01*
X12150000Y-8875000D02*
X12150000Y-8770000D01*
X10200000Y-8875000D02*
X12150000Y-8875000D01*
X14150000Y-8575000D02*
X14150000Y-8875000D01*
X14800000Y-7225000D02*
X14800000Y-8575000D01*
X14500000Y-8875000D02*
X14800000Y-8575000D01*
X12550000Y-8875000D02*
X13950000Y-8875000D01*
X9900000Y-7225000D02*
X9900000Y-8575000D01*
X14150000Y-8875000D02*
X14500000Y-8875000D01*
X12150000Y-6925000D02*
X12150000Y-7030000D01*
X13950000Y-6925000D02*
X13950000Y-7225000D01*
X12150000Y-7030000D02*
X12550000Y-7030000D01*
D11*
D12*
X14350000Y-7614850D02*
X14460000Y-7724850D01*
X14460000Y-7614850D02*
X14350000Y-7724850D01*
X14350000Y-8074850D02*
X14460000Y-8184850D01*
X14460000Y-8074850D02*
X14350000Y-8184850D01*
D11*
X10137619Y-9205476D02*
X10137619Y-9005476D01*
X10185238Y-9005476D01*
X10213810Y-9015000D01*
X10232857Y-9034048D01*
X10242381Y-9053095D01*
X10251905Y-9091190D01*
X10251905Y-9119762D01*
X10242381Y-9157857D01*
X10232857Y-9176905D01*
X10213810Y-9195952D01*
X10185238Y-9205476D01*
X10137619Y-9205476D01*
X10337619Y-9205476D02*
X10337619Y-9072143D01*
X10337619Y-9110238D02*
X10347143Y-9091190D01*
X10356667Y-9081667D01*
X10375714Y-9072143D01*
X10394762Y-9072143D01*
X10461429Y-9205476D02*
X10461429Y-9072143D01*
X10461429Y-9005476D02*
X10451905Y-9015000D01*
X10461429Y-9024524D01*
X10470952Y-9015000D01*
X10461429Y-9005476D01*
X10461429Y-9024524D01*
X10585238Y-9205476D02*
X10566190Y-9195952D01*
X10556667Y-9176905D01*
X10556667Y-9005476D01*
X10690000Y-9205476D02*
X10670952Y-9195952D01*
X10661429Y-9176905D01*
X10661429Y-9005476D01*
X10918571Y-9205476D02*
X10918571Y-9005476D01*
X10985238Y-9148333D01*
X11051905Y-9005476D01*
X11051905Y-9205476D01*
X11232857Y-9205476D02*
X11232857Y-9100714D01*
X11223333Y-9081667D01*
X11204286Y-9072143D01*
X11166190Y-9072143D01*
X11147143Y-9081667D01*
X11232857Y-9195952D02*
X11213809Y-9205476D01*
X11166190Y-9205476D01*
X11147143Y-9195952D01*
X11137619Y-9176905D01*
X11137619Y-9157857D01*
X11147143Y-9138810D01*
X11166190Y-9129286D01*
X11213809Y-9129286D01*
X11232857Y-9119762D01*
X11328095Y-9072143D02*
X11328095Y-9272143D01*
X11328095Y-9081667D02*
X11347143Y-9072143D01*
X11385238Y-9072143D01*
X11404286Y-9081667D01*
X11413809Y-9091190D01*
X11423333Y-9110238D01*
X11423333Y-9167381D01*
X11413809Y-9186429D01*
X11404286Y-9195952D01*
X11385238Y-9205476D01*
X11347143Y-9205476D01*
X11328095Y-9195952D01*
X11509048Y-9186429D02*
X11518571Y-9195952D01*
X11509048Y-9205476D01*
X11499524Y-9195952D01*
X11509048Y-9186429D01*
X11509048Y-9205476D01*
X11509048Y-9081667D02*
X11518571Y-9091190D01*
X11509048Y-9100714D01*
X11499524Y-9091190D01*
X11509048Y-9081667D01*
X11509048Y-9100714D01*
D12*
X9770000Y-9480000D02*
X9880000Y-9590000D01*
X9880000Y-9480000D02*
X9770000Y-9590000D01*
D11*
X10242381Y-9625476D02*
X10128095Y-9625476D01*
X10185238Y-9625476D02*
X10185238Y-9425476D01*
X10166190Y-9454048D01*
X10147143Y-9473095D01*
X10128095Y-9482619D01*
X10328095Y-9606429D02*
X10337619Y-9615952D01*
X10328095Y-9625476D01*
X10318571Y-9615952D01*
X10328095Y-9606429D01*
X10328095Y-9625476D01*
X10528095Y-9625476D02*
X10413810Y-9625476D01*
X10470952Y-9625476D02*
X10470952Y-9425476D01*
X10451905Y-9454048D01*
X10432857Y-9473095D01*
X10413810Y-9482619D01*
X10651905Y-9425476D02*
X10670952Y-9425476D01*
X10690000Y-9435000D01*
X10699524Y-9444524D01*
X10709048Y-9463571D01*
X10718571Y-9501667D01*
X10718571Y-9549286D01*
X10709048Y-9587381D01*
X10699524Y-9606429D01*
X10690000Y-9615952D01*
X10670952Y-9625476D01*
X10651905Y-9625476D01*
X10632857Y-9615952D01*
X10623333Y-9606429D01*
X10613810Y-9587381D01*
X10604286Y-9549286D01*
X10604286Y-9501667D01*
X10613810Y-9463571D01*
X10623333Y-9444524D01*
X10632857Y-9435000D01*
X10651905Y-9425476D01*
X10842381Y-9425476D02*
X10861429Y-9425476D01*
X10880476Y-9435000D01*
X10890000Y-9444524D01*
X10899524Y-9463571D01*
X10909048Y-9501667D01*
X10909048Y-9549286D01*
X10899524Y-9587381D01*
X10890000Y-9606429D01*
X10880476Y-9615952D01*
X10861429Y-9625476D01*
X10842381Y-9625476D01*
X10823333Y-9615952D01*
X10813810Y-9606429D01*
X10804286Y-9587381D01*
X10794762Y-9549286D01*
X10794762Y-9501667D01*
X10804286Y-9463571D01*
X10813810Y-9444524D01*
X10823333Y-9435000D01*
X10842381Y-9425476D01*
X10994762Y-9625476D02*
X10994762Y-9492143D01*
X10994762Y-9511190D02*
X11004286Y-9501667D01*
X11023333Y-9492143D01*
X11051905Y-9492143D01*
X11070952Y-9501667D01*
X11080476Y-9520714D01*
X11080476Y-9625476D01*
X11080476Y-9520714D02*
X11090000Y-9501667D01*
X11109048Y-9492143D01*
X11137619Y-9492143D01*
X11156667Y-9501667D01*
X11166190Y-9520714D01*
X11166190Y-9625476D01*
X11261428Y-9625476D02*
X11261428Y-9492143D01*
X11261428Y-9511190D02*
X11270952Y-9501667D01*
X11290000Y-9492143D01*
X11318571Y-9492143D01*
X11337619Y-9501667D01*
X11347143Y-9520714D01*
X11347143Y-9625476D01*
X11347143Y-9520714D02*
X11356667Y-9501667D01*
X11375714Y-9492143D01*
X11404286Y-9492143D01*
X11423333Y-9501667D01*
X11432857Y-9520714D01*
X11432857Y-9625476D01*
X11823333Y-9415952D02*
X11651905Y-9673095D01*
X12080476Y-9425476D02*
X12099524Y-9425476D01*
X12118571Y-9435000D01*
X12128095Y-9444524D01*
X12137619Y-9463571D01*
X12147143Y-9501667D01*
X12147143Y-9549286D01*
X12137619Y-9587381D01*
X12128095Y-9606429D01*
X12118571Y-9615952D01*
X12099524Y-9625476D01*
X12080476Y-9625476D01*
X12061428Y-9615952D01*
X12051905Y-9606429D01*
X12042381Y-9587381D01*
X12032857Y-9549286D01*
X12032857Y-9501667D01*
X12042381Y-9463571D01*
X12051905Y-9444524D01*
X12061428Y-9435000D01*
X12080476Y-9425476D01*
X12232857Y-9606429D02*
X12242381Y-9615952D01*
X12232857Y-9625476D01*
X12223333Y-9615952D01*
X12232857Y-9606429D01*
X12232857Y-9625476D01*
X12366190Y-9425476D02*
X12385238Y-9425476D01*
X12404286Y-9435000D01*
X12413809Y-9444524D01*
X12423333Y-9463571D01*
X12432857Y-9501667D01*
X12432857Y-9549286D01*
X12423333Y-9587381D01*
X12413809Y-9606429D01*
X12404286Y-9615952D01*
X12385238Y-9625476D01*
X12366190Y-9625476D01*
X12347143Y-9615952D01*
X12337619Y-9606429D01*
X12328095Y-9587381D01*
X12318571Y-9549286D01*
X12318571Y-9501667D01*
X12328095Y-9463571D01*
X12337619Y-9444524D01*
X12347143Y-9435000D01*
X12366190Y-9425476D01*
X12604286Y-9492143D02*
X12604286Y-9625476D01*
X12556667Y-9415952D02*
X12509048Y-9558810D01*
X12632857Y-9558810D01*
X12690000Y-9425476D02*
X12813809Y-9425476D01*
X12747143Y-9501667D01*
X12775714Y-9501667D01*
X12794762Y-9511190D01*
X12804286Y-9520714D01*
X12813809Y-9539762D01*
X12813809Y-9587381D01*
X12804286Y-9606429D01*
X12794762Y-9615952D01*
X12775714Y-9625476D01*
X12718571Y-9625476D01*
X12699524Y-9615952D01*
X12690000Y-9606429D01*
X12880476Y-9425476D02*
X13004286Y-9425476D01*
X12937619Y-9501667D01*
X12966190Y-9501667D01*
X12985238Y-9511190D01*
X12994762Y-9520714D01*
X13004286Y-9539762D01*
X13004286Y-9587381D01*
X12994762Y-9606429D01*
X12985238Y-9615952D01*
X12966190Y-9625476D01*
X12909048Y-9625476D01*
X12890000Y-9615952D01*
X12880476Y-9606429D01*
X13080476Y-9425476D02*
X13080476Y-9463571D01*
X13156667Y-9425476D02*
X13156667Y-9463571D01*
X13451905Y-9701667D02*
X13442381Y-9692143D01*
X13423333Y-9663571D01*
X13413809Y-9644524D01*
X13404286Y-9615952D01*
X13394762Y-9568333D01*
X13394762Y-9530238D01*
X13404286Y-9482619D01*
X13413809Y-9454048D01*
X13423333Y-9435000D01*
X13442381Y-9406429D01*
X13451905Y-9396905D01*
X13518571Y-9444524D02*
X13528095Y-9435000D01*
X13547143Y-9425476D01*
X13594762Y-9425476D01*
X13613809Y-9435000D01*
X13623333Y-9444524D01*
X13632857Y-9463571D01*
X13632857Y-9482619D01*
X13623333Y-9511190D01*
X13509048Y-9625476D01*
X13632857Y-9625476D01*
X13870952Y-9625476D02*
X13870952Y-9425476D01*
X13956667Y-9625476D02*
X13956667Y-9520714D01*
X13947143Y-9501667D01*
X13928095Y-9492143D01*
X13899524Y-9492143D01*
X13880476Y-9501667D01*
X13870952Y-9511190D01*
X14080476Y-9625476D02*
X14061428Y-9615952D01*
X14051905Y-9606429D01*
X14042381Y-9587381D01*
X14042381Y-9530238D01*
X14051905Y-9511190D01*
X14061428Y-9501667D01*
X14080476Y-9492143D01*
X14109048Y-9492143D01*
X14128095Y-9501667D01*
X14137619Y-9511190D01*
X14147143Y-9530238D01*
X14147143Y-9587381D01*
X14137619Y-9606429D01*
X14128095Y-9615952D01*
X14109048Y-9625476D01*
X14080476Y-9625476D01*
X14261428Y-9625476D02*
X14242381Y-9615952D01*
X14232857Y-9596905D01*
X14232857Y-9425476D01*
X14413809Y-9615952D02*
X14394762Y-9625476D01*
X14356667Y-9625476D01*
X14337619Y-9615952D01*
X14328095Y-9596905D01*
X14328095Y-9520714D01*
X14337619Y-9501667D01*
X14356667Y-9492143D01*
X14394762Y-9492143D01*
X14413809Y-9501667D01*
X14423333Y-9520714D01*
X14423333Y-9539762D01*
X14328095Y-9558810D01*
X14499524Y-9615952D02*
X14518571Y-9625476D01*
X14556667Y-9625476D01*
X14575714Y-9615952D01*
X14585238Y-9596905D01*
X14585238Y-9587381D01*
X14575714Y-9568333D01*
X14556667Y-9558810D01*
X14528095Y-9558810D01*
X14509048Y-9549286D01*
X14499524Y-9530238D01*
X14499524Y-9520714D01*
X14509048Y-9501667D01*
X14528095Y-9492143D01*
X14556667Y-9492143D01*
X14575714Y-9501667D01*
X14651905Y-9701667D02*
X14661428Y-9692143D01*
X14680476Y-9663571D01*
X14690000Y-9644524D01*
X14699524Y-9615952D01*
X14709048Y-9568333D01*
X14709048Y-9530238D01*
X14699524Y-9482619D01*
X14690000Y-9454048D01*
X14680476Y-9435000D01*
X14661428Y-9406429D01*
X14651905Y-9396905D01*
X15013809Y-9701667D02*
X15004286Y-9692143D01*
X14985238Y-9663571D01*
X14975714Y-9644524D01*
X14966190Y-9615952D01*
X14956667Y-9568333D01*
X14956667Y-9530238D01*
X14966190Y-9482619D01*
X14975714Y-9454048D01*
X14985238Y-9435000D01*
X15004286Y-9406429D01*
X15013809Y-9396905D01*
X15090000Y-9492143D02*
X15090000Y-9625476D01*
X15090000Y-9511190D02*
X15099524Y-9501667D01*
X15118571Y-9492143D01*
X15147143Y-9492143D01*
X15166190Y-9501667D01*
X15175714Y-9520714D01*
X15175714Y-9625476D01*
X15299524Y-9625476D02*
X15280476Y-9615952D01*
X15270952Y-9606429D01*
X15261428Y-9587381D01*
X15261428Y-9530238D01*
X15270952Y-9511190D01*
X15280476Y-9501667D01*
X15299524Y-9492143D01*
X15328095Y-9492143D01*
X15347143Y-9501667D01*
X15356667Y-9511190D01*
X15366190Y-9530238D01*
X15366190Y-9587381D01*
X15356667Y-9606429D01*
X15347143Y-9615952D01*
X15328095Y-9625476D01*
X15299524Y-9625476D01*
X15423333Y-9492143D02*
X15499524Y-9492143D01*
X15451905Y-9425476D02*
X15451905Y-9596905D01*
X15461428Y-9615952D01*
X15480476Y-9625476D01*
X15499524Y-9625476D01*
X15718571Y-9492143D02*
X15718571Y-9692143D01*
X15718571Y-9501667D02*
X15737619Y-9492143D01*
X15775714Y-9492143D01*
X15794762Y-9501667D01*
X15804286Y-9511190D01*
X15813809Y-9530238D01*
X15813809Y-9587381D01*
X15804286Y-9606429D01*
X15794762Y-9615952D01*
X15775714Y-9625476D01*
X15737619Y-9625476D01*
X15718571Y-9615952D01*
X15928095Y-9625476D02*
X15909048Y-9615952D01*
X15899524Y-9596905D01*
X15899524Y-9425476D01*
X16090000Y-9625476D02*
X16090000Y-9520714D01*
X16080476Y-9501667D01*
X16061428Y-9492143D01*
X16023333Y-9492143D01*
X16004286Y-9501667D01*
X16090000Y-9615952D02*
X16070952Y-9625476D01*
X16023333Y-9625476D01*
X16004286Y-9615952D01*
X15994762Y-9596905D01*
X15994762Y-9577857D01*
X16004286Y-9558810D01*
X16023333Y-9549286D01*
X16070952Y-9549286D01*
X16090000Y-9539762D01*
X16156667Y-9492143D02*
X16232857Y-9492143D01*
X16185238Y-9425476D02*
X16185238Y-9596905D01*
X16194762Y-9615952D01*
X16213809Y-9625476D01*
X16232857Y-9625476D01*
X16375714Y-9615952D02*
X16356667Y-9625476D01*
X16318571Y-9625476D01*
X16299524Y-9615952D01*
X16290000Y-9596905D01*
X16290000Y-9520714D01*
X16299524Y-9501667D01*
X16318571Y-9492143D01*
X16356667Y-9492143D01*
X16375714Y-9501667D01*
X16385238Y-9520714D01*
X16385238Y-9539762D01*
X16290000Y-9558810D01*
X16556667Y-9625476D02*
X16556667Y-9425476D01*
X16556667Y-9615952D02*
X16537619Y-9625476D01*
X16499524Y-9625476D01*
X16480476Y-9615952D01*
X16470952Y-9606429D01*
X16461428Y-9587381D01*
X16461428Y-9530238D01*
X16470952Y-9511190D01*
X16480476Y-9501667D01*
X16499524Y-9492143D01*
X16537619Y-9492143D01*
X16556667Y-9501667D01*
X16632857Y-9701667D02*
X16642381Y-9692143D01*
X16661428Y-9663571D01*
X16670952Y-9644524D01*
X16680476Y-9615952D01*
X16690000Y-9568333D01*
X16690000Y-9530238D01*
X16680476Y-9482619D01*
X16670952Y-9454048D01*
X16661428Y-9435000D01*
X16642381Y-9406429D01*
X16632857Y-9396905D01*
M02*
