G04 #@! TF.GenerationSoftware,KiCad,Pcbnew,6.0.1-79c1e3a40b~116~ubuntu20.04.1*
G04 #@! TF.CreationDate,2022-01-19T17:49:24+01:00*
G04 #@! TF.ProjectId,usb,7573622e-6b69-4636-9164-5f7063625858,rev?*
G04 #@! TF.SameCoordinates,Original*
G04 #@! TF.FileFunction,Copper,L1,Top*
G04 #@! TF.FilePolarity,Positive*
%FSLAX46Y46*%
G04 Gerber Fmt 4.6, Leading zero omitted, Abs format (unit mm)*
G04 Created by KiCad (PCBNEW 6.0.1-79c1e3a40b~116~ubuntu20.04.1) date 2022-01-19 17:49:24*
%MOMM*%
%LPD*%
G01*
G04 APERTURE LIST*
G04 Aperture macros list*
%AMRoundRect*
0 Rectangle with rounded corners*
0 $1 Rounding radius*
0 $2 $3 $4 $5 $6 $7 $8 $9 X,Y pos of 4 corners*
0 Add a 4 corners polygon primitive as box body*
4,1,4,$2,$3,$4,$5,$6,$7,$8,$9,$2,$3,0*
0 Add four circle primitives for the rounded corners*
1,1,$1+$1,$2,$3*
1,1,$1+$1,$4,$5*
1,1,$1+$1,$6,$7*
1,1,$1+$1,$8,$9*
0 Add four rect primitives between the rounded corners*
20,1,$1+$1,$2,$3,$4,$5,0*
20,1,$1+$1,$4,$5,$6,$7,0*
20,1,$1+$1,$6,$7,$8,$9,0*
20,1,$1+$1,$8,$9,$2,$3,0*%
G04 Aperture macros list end*
G04 #@! TA.AperFunction,SMDPad,CuDef*
%ADD10R,1.000000X2.500000*%
G04 #@! TD*
G04 #@! TA.AperFunction,SMDPad,CuDef*
%ADD11R,1.800000X1.000000*%
G04 #@! TD*
G04 #@! TA.AperFunction,SMDPad,CuDef*
%ADD12RoundRect,0.200000X0.200000X0.275000X-0.200000X0.275000X-0.200000X-0.275000X0.200000X-0.275000X0*%
G04 #@! TD*
G04 #@! TA.AperFunction,ComponentPad*
%ADD13R,1.500000X1.050000*%
G04 #@! TD*
G04 #@! TA.AperFunction,ComponentPad*
%ADD14O,1.500000X1.050000*%
G04 #@! TD*
G04 #@! TA.AperFunction,SMDPad,CuDef*
%ADD15RoundRect,0.218750X0.218750X0.256250X-0.218750X0.256250X-0.218750X-0.256250X0.218750X-0.256250X0*%
G04 #@! TD*
G04 #@! TA.AperFunction,SMDPad,CuDef*
%ADD16RoundRect,0.225000X0.250000X-0.225000X0.250000X0.225000X-0.250000X0.225000X-0.250000X-0.225000X0*%
G04 #@! TD*
G04 #@! TA.AperFunction,SMDPad,CuDef*
%ADD17R,1.500000X2.000000*%
G04 #@! TD*
G04 #@! TA.AperFunction,SMDPad,CuDef*
%ADD18R,3.800000X2.000000*%
G04 #@! TD*
G04 #@! TA.AperFunction,SMDPad,CuDef*
%ADD19R,2.500000X1.100000*%
G04 #@! TD*
G04 #@! TA.AperFunction,ComponentPad*
%ADD20O,3.500000X1.900000*%
G04 #@! TD*
G04 #@! TA.AperFunction,SMDPad,CuDef*
%ADD21R,1.100000X1.800000*%
G04 #@! TD*
G04 #@! TA.AperFunction,ViaPad*
%ADD22C,0.800000*%
G04 #@! TD*
G04 #@! TA.AperFunction,Conductor*
%ADD23C,0.250000*%
G04 #@! TD*
G04 APERTURE END LIST*
D10*
X119980000Y-71200000D03*
X117980000Y-71200000D03*
X115980000Y-71200000D03*
X113980000Y-71200000D03*
X111980000Y-71200000D03*
X109980000Y-71200000D03*
X107980000Y-71200000D03*
X105980000Y-71200000D03*
D11*
X104480000Y-73800000D03*
X104480000Y-75800000D03*
X104480000Y-77800000D03*
X104480000Y-79800000D03*
X104480000Y-81800000D03*
X104480000Y-83800000D03*
D10*
X105980000Y-86400000D03*
X107980000Y-86400000D03*
X109980000Y-86400000D03*
X111980000Y-86400000D03*
X113980000Y-86400000D03*
X115980000Y-86400000D03*
X117980000Y-86400000D03*
X119980000Y-86400000D03*
D12*
X102295000Y-85344000D03*
X100645000Y-85344000D03*
D13*
X131470000Y-84110000D03*
D14*
X131470000Y-82840000D03*
X131470000Y-81570000D03*
D15*
X102257500Y-79017000D03*
X100682500Y-79017000D03*
D16*
X137950000Y-73135000D03*
X137950000Y-71585000D03*
D12*
X102295000Y-75833500D03*
X100645000Y-75833500D03*
D17*
X135030000Y-71540000D03*
D18*
X132730000Y-77840000D03*
D17*
X132730000Y-71540000D03*
X130430000Y-71540000D03*
D19*
X141300000Y-75498500D03*
X141300000Y-77998500D03*
X141300000Y-79998500D03*
X141300000Y-82498500D03*
D20*
X144050000Y-84698500D03*
X144050000Y-73298500D03*
D12*
X102295000Y-72690000D03*
X100645000Y-72690000D03*
D16*
X138120000Y-76775000D03*
X138120000Y-75225000D03*
D21*
X138250000Y-86910000D03*
X138250000Y-80710000D03*
X134550000Y-80710000D03*
X134550000Y-86910000D03*
D12*
X102295000Y-82200500D03*
X100645000Y-82200500D03*
D22*
X140360000Y-84240000D03*
X106620000Y-84010000D03*
X134950000Y-75220000D03*
X132700000Y-86910000D03*
X129900000Y-82840000D03*
X111980000Y-73300000D03*
D23*
X131754511Y-70215489D02*
X130430000Y-71540000D01*
X141920000Y-75440000D02*
X140255000Y-75440000D01*
X137150480Y-72335480D02*
X137150480Y-70910480D01*
X137950000Y-73135000D02*
X140313500Y-75498500D01*
X136455489Y-70215489D02*
X131754511Y-70215489D01*
X137150480Y-70910480D02*
X136455489Y-70215489D01*
X140313500Y-75498500D02*
X141300000Y-75498500D01*
X140255000Y-75440000D02*
X141300000Y-75440000D01*
X137950000Y-73135000D02*
X137150480Y-72335480D01*
X134550000Y-79826000D02*
X134550000Y-80710000D01*
X105980000Y-84650000D02*
X106620000Y-84010000D01*
X137402382Y-78289520D02*
X136086480Y-78289520D01*
X103019520Y-79779020D02*
X103019520Y-84388542D01*
X138919520Y-77227618D02*
X138597618Y-77549520D01*
X140938020Y-74573020D02*
X143231991Y-74573020D01*
X136086480Y-78289520D02*
X134550000Y-79826000D01*
X144974521Y-76315550D02*
X144974521Y-81685479D01*
X138120000Y-75225000D02*
X134955000Y-75225000D01*
X134550000Y-81860000D02*
X132300000Y-84110000D01*
X144974521Y-81685479D02*
X144190000Y-82470000D01*
X134955000Y-75225000D02*
X134950000Y-75220000D01*
X102257500Y-79017000D02*
X103019520Y-79779020D01*
X138120000Y-75225000D02*
X138919520Y-76024520D01*
X144190000Y-82470000D02*
X143910000Y-82470000D01*
X143881500Y-82498500D02*
X141300000Y-82498500D01*
X134550000Y-86910000D02*
X132700000Y-86910000D01*
X137950000Y-71585000D02*
X140938020Y-74573020D01*
X135030000Y-71540000D02*
X138120000Y-74630000D01*
X138120000Y-74630000D02*
X138120000Y-75225000D01*
X143910000Y-82470000D02*
X143881500Y-82498500D01*
X138597618Y-77549520D02*
X138142382Y-77549520D01*
X105980000Y-86400000D02*
X105980000Y-84650000D01*
X134550000Y-80710000D02*
X134550000Y-81860000D01*
X103019520Y-84388542D02*
X105030978Y-86400000D01*
X138142382Y-77549520D02*
X137402382Y-78289520D01*
X132300000Y-84110000D02*
X131470000Y-84110000D01*
X143231991Y-74573020D02*
X144974521Y-76315550D01*
X138919520Y-76024520D02*
X138919520Y-77227618D01*
X105030978Y-86400000D02*
X105980000Y-86400000D01*
X137055000Y-77840000D02*
X132730000Y-77840000D01*
X102135000Y-71200000D02*
X105980000Y-71200000D01*
X105980000Y-70042000D02*
X106396511Y-69625489D01*
X100645000Y-72690000D02*
X99920480Y-73414520D01*
X105980000Y-71200000D02*
X105980000Y-70042000D01*
X99920480Y-79825980D02*
X102295000Y-82200500D01*
X102295000Y-83694000D02*
X100645000Y-85344000D01*
X106396511Y-69625489D02*
X120705489Y-69625489D01*
X120705489Y-69625489D02*
X120970000Y-69890000D01*
X132730000Y-77840000D02*
X132730000Y-71540000D01*
X120970000Y-70960000D02*
X123733859Y-73723859D01*
X138120000Y-76775000D02*
X137055000Y-77840000D01*
X132730000Y-77840000D02*
X132730000Y-80310000D01*
X102295000Y-82200500D02*
X102295000Y-83694000D01*
X132730000Y-80310000D02*
X131470000Y-81570000D01*
X123733859Y-73723859D02*
X130546141Y-73723859D01*
X100645000Y-72690000D02*
X102135000Y-71200000D01*
X120970000Y-69890000D02*
X120970000Y-70960000D01*
X130546141Y-73723859D02*
X132730000Y-71540000D01*
X99920480Y-73414520D02*
X99920480Y-79825980D01*
X100645000Y-75833500D02*
X100645000Y-78979500D01*
X100645000Y-78979500D02*
X100682500Y-79017000D01*
X135636000Y-81868022D02*
X135636000Y-79502000D01*
X136398000Y-78740000D02*
X137689040Y-78740000D01*
X138430000Y-77999040D02*
X141299460Y-77999040D01*
X117980000Y-86400000D02*
X117980000Y-85650000D01*
X123819511Y-84959511D02*
X132544511Y-84959511D01*
X132544511Y-84959511D02*
X135636000Y-81868022D01*
X137689040Y-78740000D02*
X138430000Y-77999040D01*
X117980000Y-85650000D02*
X119048000Y-84582000D01*
X123442000Y-84582000D02*
X123819511Y-84959511D01*
X135636000Y-79502000D02*
X136398000Y-78740000D01*
X119048000Y-84582000D02*
X123442000Y-84582000D01*
X141299460Y-77999040D02*
X141300000Y-77998500D01*
X136251489Y-79648511D02*
X136710480Y-79189520D01*
X119980000Y-86400000D02*
X131786000Y-86400000D01*
X136710480Y-79189520D02*
X140491020Y-79189520D01*
X140491020Y-79189520D02*
X141300000Y-79998500D01*
X131786000Y-86400000D02*
X136251489Y-81934511D01*
X136251489Y-81934511D02*
X136251489Y-79648511D01*
X111155489Y-77312511D02*
X115980000Y-72488000D01*
X115980000Y-72488000D02*
X115980000Y-71200000D01*
X110653489Y-87974511D02*
X111155489Y-87472511D01*
X119980000Y-71950000D02*
X119155489Y-72774511D01*
X119980000Y-71200000D02*
X119980000Y-71950000D01*
X111155489Y-87472511D02*
X111155489Y-77312511D01*
X102295000Y-85344000D02*
X104925511Y-87974511D01*
X104925511Y-87974511D02*
X110653489Y-87974511D01*
X116266511Y-72774511D02*
X115980000Y-72488000D01*
X119155489Y-72774511D02*
X116266511Y-72774511D01*
X99920480Y-85950480D02*
X102394031Y-88424031D01*
X111980000Y-86834000D02*
X111980000Y-86400000D01*
X111980000Y-87283718D02*
X111980000Y-86400000D01*
X138250000Y-86910000D02*
X137025489Y-88134511D01*
X120804511Y-87974511D02*
X113120511Y-87974511D01*
X137025489Y-88134511D02*
X128012511Y-88134511D01*
X126746000Y-86868000D02*
X121911022Y-86868000D01*
X100645000Y-82200500D02*
X99920480Y-82925020D01*
X128012511Y-88134511D02*
X126746000Y-86868000D01*
X138250000Y-86910000D02*
X138250000Y-80710000D01*
X121911022Y-86868000D02*
X120804511Y-87974511D01*
X99920480Y-82925020D02*
X99920480Y-85950480D01*
X110839687Y-88424031D02*
X111980000Y-87283718D01*
X102394031Y-88424031D02*
X110839687Y-88424031D01*
X113120511Y-87974511D02*
X111980000Y-86834000D01*
X107442000Y-74930000D02*
X107980000Y-74392000D01*
X103198500Y-74930000D02*
X107442000Y-74930000D01*
X107980000Y-74392000D02*
X107980000Y-71200000D01*
X102295000Y-75833500D02*
X103198500Y-74930000D01*
X131470000Y-82840000D02*
X129900000Y-82840000D01*
X111980000Y-71200000D02*
X111980000Y-73300000D01*
X109980000Y-81278000D02*
X109980000Y-86400000D01*
X102295000Y-72690000D02*
X101495480Y-73489520D01*
X101495480Y-73489520D02*
X101495480Y-76250763D01*
X101495480Y-76250763D02*
X102206717Y-76962000D01*
X105664000Y-76962000D02*
X109980000Y-81278000D01*
X102206717Y-76962000D02*
X105664000Y-76962000D01*
G04 #@! TA.AperFunction,Conductor*
G36*
X144805511Y-69778002D02*
G01*
X144826485Y-69794905D01*
X147455095Y-72423516D01*
X147489121Y-72485828D01*
X147492000Y-72512611D01*
X147492000Y-85487389D01*
X147471998Y-85555510D01*
X147455095Y-85576484D01*
X144826485Y-88205095D01*
X144764173Y-88239121D01*
X144737390Y-88242000D01*
X142134000Y-88242000D01*
X142065879Y-88221998D01*
X142019386Y-88168342D01*
X142008000Y-88116000D01*
X142008000Y-85823797D01*
X142028002Y-85755676D01*
X142081658Y-85709183D01*
X142151932Y-85699079D01*
X142221050Y-85732703D01*
X142253320Y-85763540D01*
X142293377Y-85801819D01*
X142328990Y-85835852D01*
X142527117Y-85971005D01*
X142744656Y-86071984D01*
X142975768Y-86136076D01*
X143079479Y-86147160D01*
X143168222Y-86156644D01*
X143168230Y-86156644D01*
X143171557Y-86157000D01*
X144910803Y-86157000D01*
X144913376Y-86156788D01*
X144913387Y-86156788D01*
X145083876Y-86142771D01*
X145083882Y-86142770D01*
X145089027Y-86142347D01*
X145275578Y-86095489D01*
X145316625Y-86085179D01*
X145316629Y-86085178D01*
X145321636Y-86083920D01*
X145326366Y-86081864D01*
X145326373Y-86081861D01*
X145536841Y-85990347D01*
X145536844Y-85990345D01*
X145541578Y-85988287D01*
X145545912Y-85985483D01*
X145545916Y-85985481D01*
X145738604Y-85860825D01*
X145738607Y-85860823D01*
X145742947Y-85858015D01*
X145764101Y-85838767D01*
X145916513Y-85700082D01*
X145916514Y-85700080D01*
X145920335Y-85696604D01*
X145923534Y-85692553D01*
X145923538Y-85692549D01*
X146065774Y-85512446D01*
X146068979Y-85508388D01*
X146184887Y-85298422D01*
X146264945Y-85072345D01*
X146269344Y-85047649D01*
X146306098Y-84841316D01*
X146306099Y-84841310D01*
X146307004Y-84836227D01*
X146309155Y-84660147D01*
X146309871Y-84601581D01*
X146309871Y-84601579D01*
X146309934Y-84596411D01*
X146273657Y-84359337D01*
X146199146Y-84131371D01*
X146128667Y-83995982D01*
X146090792Y-83923225D01*
X146090791Y-83923224D01*
X146088403Y-83918636D01*
X146074286Y-83899833D01*
X145947507Y-83730980D01*
X145947505Y-83730977D01*
X145944402Y-83726845D01*
X145787076Y-83576501D01*
X145774747Y-83564719D01*
X145774746Y-83564718D01*
X145771010Y-83561148D01*
X145764197Y-83556500D01*
X145577162Y-83428914D01*
X145577163Y-83428914D01*
X145572883Y-83425995D01*
X145440930Y-83364744D01*
X145360030Y-83327191D01*
X145360028Y-83327190D01*
X145355344Y-83325016D01*
X145124232Y-83260924D01*
X145007689Y-83248469D01*
X144931778Y-83240356D01*
X144931770Y-83240356D01*
X144928443Y-83240000D01*
X143189197Y-83240000D01*
X143187822Y-83240113D01*
X143119110Y-83222967D01*
X143070453Y-83171266D01*
X143058066Y-83103416D01*
X143057447Y-83103383D01*
X143057587Y-83100796D01*
X143057559Y-83100642D01*
X143057632Y-83099974D01*
X143058000Y-83093172D01*
X143058000Y-82770615D01*
X143053525Y-82755376D01*
X143052135Y-82754171D01*
X143044452Y-82752500D01*
X141572115Y-82752500D01*
X141556876Y-82756975D01*
X141555671Y-82758365D01*
X141554000Y-82766048D01*
X141554000Y-83538384D01*
X141558475Y-83553623D01*
X141559865Y-83554828D01*
X141567548Y-83556499D01*
X142033244Y-83556499D01*
X142101365Y-83576501D01*
X142147858Y-83630157D01*
X142157962Y-83700431D01*
X142132126Y-83760591D01*
X142031021Y-83888612D01*
X141915113Y-84098578D01*
X141889978Y-84169557D01*
X141838607Y-84314625D01*
X141835055Y-84324655D01*
X141834148Y-84329748D01*
X141834147Y-84329751D01*
X141794222Y-84553891D01*
X141792996Y-84560773D01*
X141792933Y-84565937D01*
X141790148Y-84793915D01*
X141790066Y-84800589D01*
X141826343Y-85037663D01*
X141852855Y-85118776D01*
X141855006Y-85189740D01*
X141818450Y-85250601D01*
X141754793Y-85282038D01*
X141696992Y-85278639D01*
X141690715Y-85276762D01*
X141673264Y-85270099D01*
X141663743Y-85265629D01*
X141650052Y-85259201D01*
X141620870Y-85254657D01*
X141604151Y-85250874D01*
X141584464Y-85244986D01*
X141584461Y-85244985D01*
X141575859Y-85242413D01*
X141566884Y-85242358D01*
X141566883Y-85242358D01*
X141560190Y-85242317D01*
X141541444Y-85242203D01*
X141540672Y-85242170D01*
X141539577Y-85242000D01*
X141508702Y-85242000D01*
X141507932Y-85241998D01*
X141434284Y-85241548D01*
X141434283Y-85241548D01*
X141430348Y-85241524D01*
X141429004Y-85241908D01*
X141427659Y-85242000D01*
X139508702Y-85242000D01*
X139507932Y-85241998D01*
X139507078Y-85241993D01*
X139430348Y-85241524D01*
X139421719Y-85243990D01*
X139421714Y-85243991D01*
X139401952Y-85249639D01*
X139385191Y-85253217D01*
X139364848Y-85256130D01*
X139364838Y-85256133D01*
X139355955Y-85257405D01*
X139332605Y-85268021D01*
X139315093Y-85274464D01*
X139307054Y-85276762D01*
X139290435Y-85281512D01*
X139265452Y-85297274D01*
X139250386Y-85305404D01*
X139223490Y-85317633D01*
X139204061Y-85334374D01*
X139189053Y-85345479D01*
X139167369Y-85359160D01*
X139149781Y-85379075D01*
X139147819Y-85381296D01*
X139135627Y-85393340D01*
X139113253Y-85412619D01*
X139108371Y-85420151D01*
X139104448Y-85424648D01*
X139044594Y-85462831D01*
X138973598Y-85462594D01*
X138914000Y-85424010D01*
X138884723Y-85359331D01*
X138883500Y-85341817D01*
X138883500Y-83093169D01*
X139542001Y-83093169D01*
X139542371Y-83099990D01*
X139547895Y-83150852D01*
X139551521Y-83166104D01*
X139596676Y-83286554D01*
X139605214Y-83302149D01*
X139681715Y-83404224D01*
X139694276Y-83416785D01*
X139796351Y-83493286D01*
X139811946Y-83501824D01*
X139932394Y-83546978D01*
X139947649Y-83550605D01*
X139998514Y-83556131D01*
X140005328Y-83556500D01*
X141027885Y-83556500D01*
X141043124Y-83552025D01*
X141044329Y-83550635D01*
X141046000Y-83542952D01*
X141046000Y-82770615D01*
X141041525Y-82755376D01*
X141040135Y-82754171D01*
X141032452Y-82752500D01*
X139560116Y-82752500D01*
X139544877Y-82756975D01*
X139543672Y-82758365D01*
X139542001Y-82766048D01*
X139542001Y-83093169D01*
X138883500Y-83093169D01*
X138883500Y-82226385D01*
X139542000Y-82226385D01*
X139546475Y-82241624D01*
X139547865Y-82242829D01*
X139555548Y-82244500D01*
X141027885Y-82244500D01*
X141043124Y-82240025D01*
X141044329Y-82238635D01*
X141046000Y-82230952D01*
X141046000Y-81458616D01*
X141041525Y-81443377D01*
X141040135Y-81442172D01*
X141032452Y-81440501D01*
X140005331Y-81440501D01*
X139998510Y-81440871D01*
X139947648Y-81446395D01*
X139932396Y-81450021D01*
X139811946Y-81495176D01*
X139796351Y-81503714D01*
X139694276Y-81580215D01*
X139681715Y-81592776D01*
X139605214Y-81694851D01*
X139596676Y-81710446D01*
X139551522Y-81830894D01*
X139547895Y-81846149D01*
X139542369Y-81897014D01*
X139542000Y-81903828D01*
X139542000Y-82226385D01*
X138883500Y-82226385D01*
X138883500Y-82209126D01*
X138903502Y-82141005D01*
X138957158Y-82094512D01*
X138965270Y-82091144D01*
X139038297Y-82063767D01*
X139046705Y-82060615D01*
X139163261Y-81973261D01*
X139250615Y-81856705D01*
X139301745Y-81720316D01*
X139308500Y-81658134D01*
X139308500Y-80714321D01*
X139328502Y-80646200D01*
X139382158Y-80599707D01*
X139452432Y-80589603D01*
X139517012Y-80619097D01*
X139552482Y-80670092D01*
X139591117Y-80773149D01*
X139599385Y-80795205D01*
X139686739Y-80911761D01*
X139803295Y-80999115D01*
X139939684Y-81050245D01*
X140001866Y-81057000D01*
X142598134Y-81057000D01*
X142660316Y-81050245D01*
X142796705Y-80999115D01*
X142804876Y-80992991D01*
X142806019Y-80992564D01*
X142811760Y-80989421D01*
X142812214Y-80990250D01*
X142871379Y-80968142D01*
X142940762Y-80983193D01*
X142990994Y-81033365D01*
X143005752Y-81106986D01*
X142987677Y-81278963D01*
X142986404Y-81291075D01*
X142993518Y-81369237D01*
X142994922Y-81384666D01*
X142981177Y-81454319D01*
X142931956Y-81505484D01*
X142862887Y-81521915D01*
X142808932Y-81506606D01*
X142788058Y-81495177D01*
X142667606Y-81450022D01*
X142652351Y-81446395D01*
X142601486Y-81440869D01*
X142594672Y-81440500D01*
X141572115Y-81440500D01*
X141556876Y-81444975D01*
X141555671Y-81446365D01*
X141554000Y-81454048D01*
X141554000Y-82226385D01*
X141558475Y-82241624D01*
X141559865Y-82242829D01*
X141567548Y-82244500D01*
X143039884Y-82244500D01*
X143055123Y-82240025D01*
X143056328Y-82238635D01*
X143057999Y-82230952D01*
X143057999Y-82111834D01*
X143078001Y-82043713D01*
X143131657Y-81997220D01*
X143201931Y-81987116D01*
X143266511Y-82016610D01*
X143282197Y-82032884D01*
X143290071Y-82042677D01*
X143294788Y-82046635D01*
X143294790Y-82046637D01*
X143372383Y-82111745D01*
X143449089Y-82176109D01*
X143454481Y-82179073D01*
X143454485Y-82179076D01*
X143622340Y-82271355D01*
X143630995Y-82276113D01*
X143828861Y-82338879D01*
X143834978Y-82339565D01*
X143834982Y-82339566D01*
X143911371Y-82348134D01*
X143990413Y-82357000D01*
X144102237Y-82357000D01*
X144105293Y-82356700D01*
X144105300Y-82356700D01*
X144250466Y-82342466D01*
X144250469Y-82342465D01*
X144256592Y-82341865D01*
X144421501Y-82292077D01*
X144449407Y-82283652D01*
X144449410Y-82283651D01*
X144455315Y-82281868D01*
X144462635Y-82277976D01*
X144633153Y-82187309D01*
X144633155Y-82187308D01*
X144638599Y-82184413D01*
X144748829Y-82094512D01*
X144794689Y-82057110D01*
X144794692Y-82057107D01*
X144799464Y-82053215D01*
X144812156Y-82037874D01*
X144927855Y-81898018D01*
X144931783Y-81893270D01*
X144934714Y-81887850D01*
X145027584Y-81716090D01*
X145027586Y-81716085D01*
X145030514Y-81710670D01*
X145091898Y-81512371D01*
X145092808Y-81503714D01*
X145112952Y-81312054D01*
X145112952Y-81312052D01*
X145113596Y-81305925D01*
X145102344Y-81182285D01*
X145095341Y-81105336D01*
X145095340Y-81105333D01*
X145094782Y-81099197D01*
X145090495Y-81084629D01*
X145037912Y-80905969D01*
X145036173Y-80900060D01*
X144940001Y-80716100D01*
X144934285Y-80708990D01*
X144893943Y-80658816D01*
X144809929Y-80554323D01*
X144800851Y-80546705D01*
X144655629Y-80424850D01*
X144650911Y-80420891D01*
X144645519Y-80417927D01*
X144645515Y-80417924D01*
X144474402Y-80323854D01*
X144469005Y-80320887D01*
X144271139Y-80258121D01*
X144265022Y-80257435D01*
X144265018Y-80257434D01*
X144188402Y-80248841D01*
X144109587Y-80240000D01*
X143997763Y-80240000D01*
X143994707Y-80240300D01*
X143994700Y-80240300D01*
X143849534Y-80254534D01*
X143849531Y-80254535D01*
X143843408Y-80255135D01*
X143711454Y-80294974D01*
X143650593Y-80313348D01*
X143650590Y-80313349D01*
X143644685Y-80315132D01*
X143639240Y-80318027D01*
X143639238Y-80318028D01*
X143466847Y-80409691D01*
X143466845Y-80409692D01*
X143461401Y-80412587D01*
X143417804Y-80448144D01*
X143305311Y-80539890D01*
X143305308Y-80539893D01*
X143300536Y-80543785D01*
X143296608Y-80548533D01*
X143281585Y-80566693D01*
X143222751Y-80606432D01*
X143151773Y-80608054D01*
X143091185Y-80571044D01*
X143060225Y-80507154D01*
X143058500Y-80486378D01*
X143058500Y-79400366D01*
X143051745Y-79338184D01*
X143000615Y-79201795D01*
X142913261Y-79085239D01*
X142912026Y-79084313D01*
X142879792Y-79025283D01*
X142884857Y-78954468D01*
X142911414Y-78913145D01*
X142913261Y-78911761D01*
X143000615Y-78795205D01*
X143051745Y-78658816D01*
X143058500Y-78596634D01*
X143058500Y-77512458D01*
X143078502Y-77444337D01*
X143132158Y-77397844D01*
X143202432Y-77387740D01*
X143267012Y-77417234D01*
X143282695Y-77433504D01*
X143286208Y-77437874D01*
X143286215Y-77437881D01*
X143290071Y-77442677D01*
X143294788Y-77446635D01*
X143294790Y-77446637D01*
X143393154Y-77529174D01*
X143449089Y-77576109D01*
X143454481Y-77579073D01*
X143454485Y-77579076D01*
X143520744Y-77615502D01*
X143630995Y-77676113D01*
X143828861Y-77738879D01*
X143834978Y-77739565D01*
X143834982Y-77739566D01*
X143911598Y-77748159D01*
X143990413Y-77757000D01*
X144102237Y-77757000D01*
X144105293Y-77756700D01*
X144105300Y-77756700D01*
X144250466Y-77742466D01*
X144250469Y-77742465D01*
X144256592Y-77741865D01*
X144388546Y-77702026D01*
X144449407Y-77683652D01*
X144449410Y-77683651D01*
X144455315Y-77681868D01*
X144462635Y-77677976D01*
X144633153Y-77587309D01*
X144633155Y-77587308D01*
X144638599Y-77584413D01*
X144743082Y-77499199D01*
X144794689Y-77457110D01*
X144794692Y-77457107D01*
X144799464Y-77453215D01*
X144806877Y-77444255D01*
X144897272Y-77334986D01*
X144931783Y-77293270D01*
X144934714Y-77287850D01*
X145027584Y-77116090D01*
X145027586Y-77116085D01*
X145030514Y-77110670D01*
X145091898Y-76912371D01*
X145102615Y-76810405D01*
X145112952Y-76712054D01*
X145112952Y-76712052D01*
X145113596Y-76705925D01*
X145099859Y-76554982D01*
X145095341Y-76505336D01*
X145095340Y-76505333D01*
X145094782Y-76499197D01*
X145091684Y-76488669D01*
X145037912Y-76305969D01*
X145036173Y-76300060D01*
X144940001Y-76116100D01*
X144809929Y-75954323D01*
X144797371Y-75943785D01*
X144655629Y-75824850D01*
X144650911Y-75820891D01*
X144645519Y-75817927D01*
X144645515Y-75817924D01*
X144474402Y-75723854D01*
X144469005Y-75720887D01*
X144271139Y-75658121D01*
X144265022Y-75657435D01*
X144265018Y-75657434D01*
X144179232Y-75647812D01*
X144109587Y-75640000D01*
X143997763Y-75640000D01*
X143994707Y-75640300D01*
X143994700Y-75640300D01*
X143849534Y-75654534D01*
X143849531Y-75654535D01*
X143843408Y-75655135D01*
X143729584Y-75689500D01*
X143650593Y-75713348D01*
X143650590Y-75713349D01*
X143644685Y-75715132D01*
X143639240Y-75718027D01*
X143639238Y-75718028D01*
X143466847Y-75809691D01*
X143466845Y-75809692D01*
X143461401Y-75812587D01*
X143401529Y-75861417D01*
X143305311Y-75939890D01*
X143305308Y-75939893D01*
X143300536Y-75943785D01*
X143296608Y-75948533D01*
X143281585Y-75966693D01*
X143222751Y-76006432D01*
X143151773Y-76008054D01*
X143091185Y-75971044D01*
X143060225Y-75907154D01*
X143058500Y-75886378D01*
X143058500Y-74900366D01*
X143058091Y-74896600D01*
X143058106Y-74896514D01*
X143057947Y-74893572D01*
X143058641Y-74893534D01*
X143070624Y-74826718D01*
X143118948Y-74774705D01*
X143183355Y-74757000D01*
X144910803Y-74757000D01*
X144913376Y-74756788D01*
X144913387Y-74756788D01*
X145083876Y-74742771D01*
X145083882Y-74742770D01*
X145089027Y-74742347D01*
X145277282Y-74695061D01*
X145316625Y-74685179D01*
X145316629Y-74685178D01*
X145321636Y-74683920D01*
X145326366Y-74681864D01*
X145326373Y-74681861D01*
X145536841Y-74590347D01*
X145536844Y-74590345D01*
X145541578Y-74588287D01*
X145545912Y-74585483D01*
X145545916Y-74585481D01*
X145738604Y-74460825D01*
X145738607Y-74460823D01*
X145742947Y-74458015D01*
X145760704Y-74441858D01*
X145916513Y-74300082D01*
X145916514Y-74300080D01*
X145920335Y-74296604D01*
X145923534Y-74292553D01*
X145923538Y-74292549D01*
X146057947Y-74122357D01*
X146068979Y-74108388D01*
X146184887Y-73898422D01*
X146236765Y-73751924D01*
X146263219Y-73677220D01*
X146263220Y-73677216D01*
X146264945Y-73672345D01*
X146266297Y-73664754D01*
X146306098Y-73441316D01*
X146306099Y-73441310D01*
X146307004Y-73436227D01*
X146309256Y-73251891D01*
X146309871Y-73201581D01*
X146309871Y-73201579D01*
X146309934Y-73196411D01*
X146273657Y-72959337D01*
X146199146Y-72731371D01*
X146113952Y-72567715D01*
X146090792Y-72523225D01*
X146090791Y-72523224D01*
X146088403Y-72518636D01*
X146083880Y-72512611D01*
X145947507Y-72330980D01*
X145947505Y-72330977D01*
X145944402Y-72326845D01*
X145771010Y-72161148D01*
X145712597Y-72121301D01*
X145577162Y-72028914D01*
X145577163Y-72028914D01*
X145572883Y-72025995D01*
X145422397Y-71956141D01*
X145360030Y-71927191D01*
X145360028Y-71927190D01*
X145355344Y-71925016D01*
X145172840Y-71874404D01*
X145129205Y-71862303D01*
X145129204Y-71862303D01*
X145124232Y-71860924D01*
X145020521Y-71849840D01*
X144931778Y-71840356D01*
X144931770Y-71840356D01*
X144928443Y-71840000D01*
X143189197Y-71840000D01*
X143186624Y-71840212D01*
X143186613Y-71840212D01*
X143016124Y-71854229D01*
X143016118Y-71854230D01*
X143010973Y-71854653D01*
X142932341Y-71874404D01*
X142783375Y-71911821D01*
X142783371Y-71911822D01*
X142778364Y-71913080D01*
X142773634Y-71915136D01*
X142773627Y-71915139D01*
X142563159Y-72006653D01*
X142563156Y-72006655D01*
X142558422Y-72008713D01*
X142554088Y-72011517D01*
X142554084Y-72011519D01*
X142361396Y-72136175D01*
X142361393Y-72136177D01*
X142357053Y-72138985D01*
X142353230Y-72142464D01*
X142353227Y-72142466D01*
X142218800Y-72264786D01*
X142154954Y-72295838D01*
X142084455Y-72287443D01*
X142029687Y-72242267D01*
X142008000Y-72171593D01*
X142008000Y-69884000D01*
X142028002Y-69815879D01*
X142081658Y-69769386D01*
X142134000Y-69758000D01*
X144737390Y-69758000D01*
X144805511Y-69778002D01*
G37*
G04 #@! TD.AperFunction*
G04 #@! TA.AperFunction,Conductor*
G36*
X137133621Y-79843022D02*
G01*
X137180114Y-79896678D01*
X137191500Y-79949020D01*
X137191500Y-81658134D01*
X137198255Y-81720316D01*
X137249385Y-81856705D01*
X137336739Y-81973261D01*
X137453295Y-82060615D01*
X137461703Y-82063767D01*
X137534730Y-82091144D01*
X137591494Y-82133786D01*
X137616194Y-82200348D01*
X137616500Y-82209126D01*
X137616500Y-85410874D01*
X137596498Y-85478995D01*
X137542842Y-85525488D01*
X137534730Y-85528856D01*
X137506127Y-85539579D01*
X137453295Y-85559385D01*
X137336739Y-85646739D01*
X137249385Y-85763295D01*
X137198255Y-85899684D01*
X137191500Y-85961866D01*
X137191500Y-87020405D01*
X137171498Y-87088526D01*
X137154595Y-87109500D01*
X136799989Y-87464106D01*
X136737677Y-87498132D01*
X136710894Y-87501011D01*
X135734000Y-87501011D01*
X135665879Y-87481009D01*
X135619386Y-87427353D01*
X135608000Y-87375011D01*
X135608000Y-87182115D01*
X135603525Y-87166876D01*
X135602135Y-87165671D01*
X135594452Y-87164000D01*
X133510116Y-87164000D01*
X133494877Y-87168475D01*
X133493672Y-87169865D01*
X133492001Y-87177548D01*
X133492001Y-87375011D01*
X133471999Y-87443132D01*
X133418343Y-87489625D01*
X133366001Y-87501011D01*
X128327106Y-87501011D01*
X128258985Y-87481009D01*
X128238010Y-87464106D01*
X128022500Y-87248595D01*
X127988475Y-87186283D01*
X127993540Y-87115467D01*
X128036087Y-87058632D01*
X128102608Y-87033821D01*
X128111596Y-87033500D01*
X131707233Y-87033500D01*
X131718416Y-87034027D01*
X131725909Y-87035702D01*
X131733835Y-87035453D01*
X131733836Y-87035453D01*
X131793986Y-87033562D01*
X131797945Y-87033500D01*
X131825856Y-87033500D01*
X131829791Y-87033003D01*
X131829856Y-87032995D01*
X131841693Y-87032062D01*
X131873951Y-87031048D01*
X131877970Y-87030922D01*
X131885889Y-87030673D01*
X131905343Y-87025021D01*
X131924700Y-87021013D01*
X131936930Y-87019468D01*
X131936931Y-87019468D01*
X131944797Y-87018474D01*
X131952168Y-87015555D01*
X131952170Y-87015555D01*
X131985912Y-87002196D01*
X131997142Y-86998351D01*
X132031983Y-86988229D01*
X132031984Y-86988229D01*
X132039593Y-86986018D01*
X132046412Y-86981985D01*
X132046417Y-86981983D01*
X132057028Y-86975707D01*
X132074776Y-86967012D01*
X132093617Y-86959552D01*
X132129387Y-86933564D01*
X132139307Y-86927048D01*
X132170535Y-86908580D01*
X132170538Y-86908578D01*
X132177362Y-86904542D01*
X132191683Y-86890221D01*
X132206717Y-86877380D01*
X132216694Y-86870131D01*
X132223107Y-86865472D01*
X132251298Y-86831395D01*
X132259288Y-86822616D01*
X133284338Y-85797566D01*
X133346650Y-85763540D01*
X133417465Y-85768605D01*
X133474301Y-85811152D01*
X133499112Y-85877672D01*
X133498696Y-85900268D01*
X133492369Y-85958512D01*
X133492000Y-85965328D01*
X133492000Y-86637885D01*
X133496475Y-86653124D01*
X133497865Y-86654329D01*
X133505548Y-86656000D01*
X134277885Y-86656000D01*
X134293124Y-86651525D01*
X134294329Y-86650135D01*
X134296000Y-86642452D01*
X134296000Y-86637885D01*
X134804000Y-86637885D01*
X134808475Y-86653124D01*
X134809865Y-86654329D01*
X134817548Y-86656000D01*
X135589884Y-86656000D01*
X135605123Y-86651525D01*
X135606328Y-86650135D01*
X135607999Y-86642452D01*
X135607999Y-85965331D01*
X135607629Y-85958510D01*
X135602105Y-85907648D01*
X135598479Y-85892396D01*
X135553324Y-85771946D01*
X135544786Y-85756351D01*
X135468285Y-85654276D01*
X135455724Y-85641715D01*
X135353649Y-85565214D01*
X135338054Y-85556676D01*
X135217606Y-85511522D01*
X135202351Y-85507895D01*
X135151486Y-85502369D01*
X135144672Y-85502000D01*
X134822115Y-85502000D01*
X134806876Y-85506475D01*
X134805671Y-85507865D01*
X134804000Y-85515548D01*
X134804000Y-86637885D01*
X134296000Y-86637885D01*
X134296000Y-85520116D01*
X134291525Y-85504877D01*
X134290135Y-85503672D01*
X134282452Y-85502001D01*
X133955331Y-85502001D01*
X133948512Y-85502370D01*
X133890267Y-85508697D01*
X133820385Y-85496168D01*
X133768370Y-85447847D01*
X133750736Y-85379075D01*
X133773083Y-85311687D01*
X133787566Y-85294339D01*
X136643742Y-82438163D01*
X136652028Y-82430623D01*
X136658507Y-82426511D01*
X136705133Y-82376859D01*
X136707887Y-82374018D01*
X136727624Y-82354281D01*
X136730104Y-82351084D01*
X136737809Y-82342062D01*
X136737994Y-82341865D01*
X136768075Y-82309832D01*
X136771894Y-82302886D01*
X136771896Y-82302883D01*
X136777837Y-82292077D01*
X136788688Y-82275558D01*
X136796247Y-82265812D01*
X136801103Y-82259552D01*
X136804248Y-82252283D01*
X136804251Y-82252279D01*
X136818663Y-82218974D01*
X136823880Y-82208324D01*
X136845184Y-82169571D01*
X136850222Y-82149948D01*
X136856626Y-82131245D01*
X136861522Y-82119931D01*
X136861522Y-82119930D01*
X136864670Y-82112656D01*
X136865909Y-82104833D01*
X136865912Y-82104823D01*
X136871588Y-82068987D01*
X136873994Y-82057367D01*
X136883017Y-82022222D01*
X136883017Y-82022221D01*
X136884989Y-82014541D01*
X136884989Y-81994287D01*
X136886540Y-81974576D01*
X136886649Y-81973891D01*
X136889709Y-81954568D01*
X136885548Y-81910549D01*
X136884989Y-81898692D01*
X136884989Y-79963105D01*
X136904991Y-79894984D01*
X136921894Y-79874010D01*
X136935979Y-79859925D01*
X136998291Y-79825899D01*
X137025074Y-79823020D01*
X137065500Y-79823020D01*
X137133621Y-79843022D01*
G37*
G04 #@! TD.AperFunction*
G04 #@! TA.AperFunction,Conductor*
G36*
X106100495Y-78294399D02*
G01*
X107717010Y-79910915D01*
X109309595Y-81503500D01*
X109343621Y-81565812D01*
X109346500Y-81592595D01*
X109346500Y-84569618D01*
X109326498Y-84637739D01*
X109272842Y-84684232D01*
X109264731Y-84687599D01*
X109241707Y-84696231D01*
X109241704Y-84696232D01*
X109233295Y-84699385D01*
X109116739Y-84786739D01*
X109080824Y-84834660D01*
X109023967Y-84877173D01*
X108953149Y-84882199D01*
X108890855Y-84848139D01*
X108879183Y-84834670D01*
X108843261Y-84786739D01*
X108726705Y-84699385D01*
X108590316Y-84648255D01*
X108528134Y-84641500D01*
X107431866Y-84641500D01*
X107369684Y-84648255D01*
X107233295Y-84699385D01*
X107116739Y-84786739D01*
X107111358Y-84793919D01*
X107080514Y-84835074D01*
X107023655Y-84877589D01*
X106952836Y-84882615D01*
X106890543Y-84848555D01*
X106878862Y-84835075D01*
X106848283Y-84794274D01*
X106835724Y-84781715D01*
X106733649Y-84705214D01*
X106718054Y-84696676D01*
X106597606Y-84651522D01*
X106582351Y-84647895D01*
X106531486Y-84642369D01*
X106524672Y-84642000D01*
X106252115Y-84642000D01*
X106236876Y-84646475D01*
X106235671Y-84647865D01*
X106234000Y-84655548D01*
X106234000Y-86528000D01*
X106213998Y-86596121D01*
X106160342Y-86642614D01*
X106108000Y-86654000D01*
X104990116Y-86654000D01*
X104974877Y-86658475D01*
X104973672Y-86659865D01*
X104972001Y-86667548D01*
X104972001Y-86820906D01*
X104951999Y-86889027D01*
X104898343Y-86935520D01*
X104828069Y-86945624D01*
X104763489Y-86916130D01*
X104756906Y-86910001D01*
X103240405Y-85393500D01*
X103206379Y-85331188D01*
X103203500Y-85304405D01*
X103203499Y-85015249D01*
X103203499Y-85012366D01*
X103196753Y-84938938D01*
X103188871Y-84913787D01*
X103187588Y-84842803D01*
X103224885Y-84782393D01*
X103288922Y-84751737D01*
X103353336Y-84758128D01*
X103469684Y-84801745D01*
X103531866Y-84808500D01*
X104883658Y-84808500D01*
X104951779Y-84828502D01*
X104998272Y-84882158D01*
X105008376Y-84952432D01*
X105001640Y-84978730D01*
X104981522Y-85032395D01*
X104977895Y-85047649D01*
X104972369Y-85098514D01*
X104972000Y-85105328D01*
X104972000Y-86127885D01*
X104976475Y-86143124D01*
X104977865Y-86144329D01*
X104985548Y-86146000D01*
X105707885Y-86146000D01*
X105723124Y-86141525D01*
X105724329Y-86140135D01*
X105726000Y-86132452D01*
X105726000Y-84728268D01*
X105746002Y-84660147D01*
X105751174Y-84652703D01*
X105797195Y-84591297D01*
X105830615Y-84546705D01*
X105881745Y-84410316D01*
X105888500Y-84348134D01*
X105888500Y-83251866D01*
X105881745Y-83189684D01*
X105830615Y-83053295D01*
X105743261Y-82936739D01*
X105695340Y-82900824D01*
X105652827Y-82843967D01*
X105647801Y-82773149D01*
X105681861Y-82710855D01*
X105695330Y-82699183D01*
X105743261Y-82663261D01*
X105830615Y-82546705D01*
X105881745Y-82410316D01*
X105888500Y-82348134D01*
X105888500Y-81251866D01*
X105881745Y-81189684D01*
X105830615Y-81053295D01*
X105743261Y-80936739D01*
X105695340Y-80900824D01*
X105652827Y-80843967D01*
X105647801Y-80773149D01*
X105681861Y-80710855D01*
X105695330Y-80699183D01*
X105743261Y-80663261D01*
X105830615Y-80546705D01*
X105881745Y-80410316D01*
X105888500Y-80348134D01*
X105888500Y-79251866D01*
X105881745Y-79189684D01*
X105830615Y-79053295D01*
X105743261Y-78936739D01*
X105695340Y-78900824D01*
X105652827Y-78843967D01*
X105647801Y-78773149D01*
X105681861Y-78710855D01*
X105695330Y-78699183D01*
X105743261Y-78663261D01*
X105830615Y-78546705D01*
X105881745Y-78410316D01*
X105886137Y-78369886D01*
X105913379Y-78304324D01*
X105971742Y-78263898D01*
X106042696Y-78261443D01*
X106100495Y-78294399D01*
G37*
G04 #@! TD.AperFunction*
G04 #@! TA.AperFunction,Conductor*
G36*
X121197012Y-72083370D02*
G01*
X121203594Y-72089498D01*
X122217892Y-73103797D01*
X123230207Y-74116112D01*
X123237747Y-74124398D01*
X123241859Y-74130877D01*
X123247636Y-74136302D01*
X123291510Y-74177502D01*
X123294352Y-74180257D01*
X123314089Y-74199994D01*
X123317286Y-74202474D01*
X123326306Y-74210177D01*
X123358538Y-74240445D01*
X123365484Y-74244264D01*
X123365487Y-74244266D01*
X123376293Y-74250207D01*
X123392812Y-74261058D01*
X123408818Y-74273473D01*
X123416087Y-74276618D01*
X123416091Y-74276621D01*
X123449396Y-74291033D01*
X123460046Y-74296250D01*
X123498799Y-74317554D01*
X123506474Y-74319525D01*
X123506475Y-74319525D01*
X123518421Y-74322592D01*
X123537125Y-74328996D01*
X123547758Y-74333597D01*
X123555714Y-74337040D01*
X123563537Y-74338279D01*
X123563547Y-74338282D01*
X123599383Y-74343958D01*
X123611003Y-74346364D01*
X123641887Y-74354293D01*
X123653829Y-74357359D01*
X123674083Y-74357359D01*
X123693793Y-74358910D01*
X123713802Y-74362079D01*
X123721694Y-74361333D01*
X123742767Y-74359341D01*
X123757821Y-74357918D01*
X123769678Y-74357359D01*
X130467374Y-74357359D01*
X130478557Y-74357886D01*
X130486050Y-74359561D01*
X130493976Y-74359312D01*
X130493977Y-74359312D01*
X130554127Y-74357421D01*
X130558086Y-74357359D01*
X130585997Y-74357359D01*
X130589932Y-74356862D01*
X130589997Y-74356854D01*
X130601834Y-74355921D01*
X130634092Y-74354907D01*
X130638111Y-74354781D01*
X130646030Y-74354532D01*
X130665484Y-74348880D01*
X130684841Y-74344872D01*
X130697071Y-74343327D01*
X130697072Y-74343327D01*
X130704938Y-74342333D01*
X130712309Y-74339414D01*
X130712311Y-74339414D01*
X130746053Y-74326055D01*
X130757283Y-74322210D01*
X130792124Y-74312088D01*
X130792125Y-74312088D01*
X130799734Y-74309877D01*
X130806553Y-74305844D01*
X130806558Y-74305842D01*
X130817169Y-74299566D01*
X130834917Y-74290871D01*
X130853758Y-74283411D01*
X130889528Y-74257423D01*
X130899448Y-74250907D01*
X130930676Y-74232439D01*
X130930679Y-74232437D01*
X130937503Y-74228401D01*
X130951824Y-74214080D01*
X130966858Y-74201239D01*
X130976835Y-74193990D01*
X130983248Y-74189331D01*
X131011439Y-74155254D01*
X131019419Y-74146485D01*
X131881407Y-73284498D01*
X131943717Y-73250474D01*
X132014533Y-73255539D01*
X132071368Y-73298086D01*
X132096179Y-73364606D01*
X132096500Y-73373595D01*
X132096500Y-76205500D01*
X132076498Y-76273621D01*
X132022842Y-76320114D01*
X131970500Y-76331500D01*
X130781866Y-76331500D01*
X130719684Y-76338255D01*
X130583295Y-76389385D01*
X130466739Y-76476739D01*
X130379385Y-76593295D01*
X130328255Y-76729684D01*
X130321500Y-76791866D01*
X130321500Y-78888134D01*
X130328255Y-78950316D01*
X130379385Y-79086705D01*
X130466739Y-79203261D01*
X130583295Y-79290615D01*
X130719684Y-79341745D01*
X130781866Y-79348500D01*
X131970500Y-79348500D01*
X132038621Y-79368502D01*
X132085114Y-79422158D01*
X132096500Y-79474500D01*
X132096500Y-79995405D01*
X132076498Y-80063526D01*
X132059595Y-80084501D01*
X131644499Y-80499596D01*
X131582187Y-80533621D01*
X131555404Y-80536500D01*
X131193996Y-80536500D01*
X131043287Y-80551277D01*
X130849258Y-80609858D01*
X130670302Y-80705010D01*
X130665528Y-80708904D01*
X130665526Y-80708905D01*
X130643776Y-80726644D01*
X130513237Y-80833110D01*
X130509310Y-80837857D01*
X130509308Y-80837859D01*
X130387973Y-80984528D01*
X130387971Y-80984531D01*
X130384044Y-80989278D01*
X130287644Y-81167565D01*
X130272341Y-81217000D01*
X130247511Y-81297215D01*
X130227710Y-81361180D01*
X130227066Y-81367305D01*
X130227066Y-81367306D01*
X130207168Y-81556622D01*
X130206524Y-81562750D01*
X130212217Y-81625304D01*
X130218737Y-81696940D01*
X130224894Y-81764596D01*
X130226633Y-81770505D01*
X130226635Y-81770515D01*
X130232925Y-81791886D01*
X130232971Y-81862882D01*
X130194625Y-81922633D01*
X130130063Y-81952167D01*
X130085856Y-81950708D01*
X130001946Y-81932873D01*
X130001947Y-81932873D01*
X129995487Y-81931500D01*
X129804513Y-81931500D01*
X129798061Y-81932872D01*
X129798056Y-81932872D01*
X129714147Y-81950708D01*
X129617712Y-81971206D01*
X129611682Y-81973891D01*
X129611681Y-81973891D01*
X129449278Y-82046197D01*
X129449276Y-82046198D01*
X129443248Y-82048882D01*
X129437907Y-82052762D01*
X129437906Y-82052763D01*
X129415576Y-82068987D01*
X129288747Y-82161134D01*
X129284326Y-82166044D01*
X129284325Y-82166045D01*
X129170846Y-82292077D01*
X129160960Y-82303056D01*
X129065473Y-82468444D01*
X129006458Y-82650072D01*
X129005768Y-82656633D01*
X129005768Y-82656635D01*
X128993522Y-82773149D01*
X128986496Y-82840000D01*
X128987186Y-82846565D01*
X128996664Y-82936739D01*
X129006458Y-83029928D01*
X129065473Y-83211556D01*
X129160960Y-83376944D01*
X129288747Y-83518866D01*
X129443248Y-83631118D01*
X129449276Y-83633802D01*
X129449278Y-83633803D01*
X129598928Y-83700431D01*
X129617712Y-83708794D01*
X129702635Y-83726845D01*
X129798056Y-83747128D01*
X129798061Y-83747128D01*
X129804513Y-83748500D01*
X129995487Y-83748500D01*
X130001939Y-83747128D01*
X130001944Y-83747128D01*
X130048206Y-83737294D01*
X130060377Y-83734707D01*
X130131168Y-83740109D01*
X130187800Y-83782926D01*
X130207470Y-83822456D01*
X130216475Y-83853124D01*
X130217865Y-83854329D01*
X130225548Y-83856000D01*
X131023758Y-83856000D01*
X131037803Y-83856785D01*
X131186817Y-83873500D01*
X131598000Y-83873500D01*
X131666121Y-83893502D01*
X131712614Y-83947158D01*
X131724000Y-83999500D01*
X131724000Y-84200011D01*
X131703998Y-84268132D01*
X131650342Y-84314625D01*
X131598000Y-84326011D01*
X124134106Y-84326011D01*
X124065985Y-84306009D01*
X124045011Y-84289106D01*
X123945652Y-84189747D01*
X123938112Y-84181461D01*
X123934000Y-84174982D01*
X123884348Y-84128356D01*
X123881507Y-84125602D01*
X123861770Y-84105865D01*
X123858573Y-84103385D01*
X123849551Y-84095680D01*
X123847809Y-84094044D01*
X123817321Y-84065414D01*
X123810375Y-84061595D01*
X123810372Y-84061593D01*
X123799566Y-84055652D01*
X123783047Y-84044801D01*
X123780568Y-84042878D01*
X123767041Y-84032386D01*
X123759772Y-84029241D01*
X123759768Y-84029238D01*
X123726463Y-84014826D01*
X123715813Y-84009609D01*
X123677060Y-83988305D01*
X123657437Y-83983267D01*
X123638734Y-83976863D01*
X123627420Y-83971967D01*
X123627419Y-83971967D01*
X123620145Y-83968819D01*
X123612322Y-83967580D01*
X123612312Y-83967577D01*
X123576476Y-83961901D01*
X123564856Y-83959495D01*
X123529711Y-83950472D01*
X123529710Y-83950472D01*
X123522030Y-83948500D01*
X123501776Y-83948500D01*
X123482065Y-83946949D01*
X123469886Y-83945020D01*
X123462057Y-83943780D01*
X123432786Y-83946547D01*
X123418039Y-83947941D01*
X123406181Y-83948500D01*
X119126767Y-83948500D01*
X119115584Y-83947973D01*
X119108091Y-83946298D01*
X119100165Y-83946547D01*
X119100164Y-83946547D01*
X119040014Y-83948438D01*
X119036055Y-83948500D01*
X119008144Y-83948500D01*
X119004210Y-83948997D01*
X119004209Y-83948997D01*
X119004144Y-83949005D01*
X118992307Y-83949938D01*
X118960049Y-83950952D01*
X118956030Y-83951078D01*
X118948111Y-83951327D01*
X118928657Y-83956979D01*
X118909300Y-83960987D01*
X118897070Y-83962532D01*
X118897069Y-83962532D01*
X118889203Y-83963526D01*
X118881832Y-83966445D01*
X118881830Y-83966445D01*
X118848088Y-83979804D01*
X118836858Y-83983649D01*
X118802017Y-83993771D01*
X118802016Y-83993771D01*
X118794407Y-83995982D01*
X118787588Y-84000015D01*
X118787583Y-84000017D01*
X118776972Y-84006293D01*
X118759224Y-84014988D01*
X118740383Y-84022448D01*
X118733967Y-84027110D01*
X118733966Y-84027110D01*
X118704613Y-84048436D01*
X118694693Y-84054952D01*
X118663465Y-84073420D01*
X118663462Y-84073422D01*
X118656638Y-84077458D01*
X118642317Y-84091779D01*
X118627284Y-84104619D01*
X118610893Y-84116528D01*
X118602412Y-84126780D01*
X118582702Y-84150605D01*
X118574712Y-84159384D01*
X118129501Y-84604595D01*
X118067189Y-84638621D01*
X118040406Y-84641500D01*
X117431866Y-84641500D01*
X117369684Y-84648255D01*
X117233295Y-84699385D01*
X117116739Y-84786739D01*
X117080824Y-84834660D01*
X117023967Y-84877173D01*
X116953149Y-84882199D01*
X116890855Y-84848139D01*
X116879183Y-84834670D01*
X116843261Y-84786739D01*
X116726705Y-84699385D01*
X116590316Y-84648255D01*
X116528134Y-84641500D01*
X115431866Y-84641500D01*
X115369684Y-84648255D01*
X115233295Y-84699385D01*
X115116739Y-84786739D01*
X115080824Y-84834660D01*
X115023967Y-84877173D01*
X114953149Y-84882199D01*
X114890855Y-84848139D01*
X114879183Y-84834670D01*
X114843261Y-84786739D01*
X114726705Y-84699385D01*
X114590316Y-84648255D01*
X114528134Y-84641500D01*
X113431866Y-84641500D01*
X113369684Y-84648255D01*
X113233295Y-84699385D01*
X113116739Y-84786739D01*
X113080824Y-84834660D01*
X113023967Y-84877173D01*
X112953149Y-84882199D01*
X112890855Y-84848139D01*
X112879183Y-84834670D01*
X112843261Y-84786739D01*
X112726705Y-84699385D01*
X112590316Y-84648255D01*
X112528134Y-84641500D01*
X111914989Y-84641500D01*
X111846868Y-84621498D01*
X111800375Y-84567842D01*
X111788989Y-84515500D01*
X111788989Y-77627105D01*
X111808991Y-77558984D01*
X111825894Y-77538010D01*
X115949571Y-73414333D01*
X116011883Y-73380307D01*
X116073821Y-73382432D01*
X116081094Y-73384545D01*
X116088366Y-73387692D01*
X116096190Y-73388931D01*
X116096196Y-73388933D01*
X116132035Y-73394610D01*
X116143655Y-73397016D01*
X116178800Y-73406039D01*
X116186481Y-73408011D01*
X116206735Y-73408011D01*
X116226445Y-73409562D01*
X116246454Y-73412731D01*
X116254346Y-73411985D01*
X116273091Y-73410213D01*
X116290473Y-73408570D01*
X116302330Y-73408011D01*
X119076722Y-73408011D01*
X119087905Y-73408538D01*
X119095398Y-73410213D01*
X119103324Y-73409964D01*
X119103325Y-73409964D01*
X119163475Y-73408073D01*
X119167434Y-73408011D01*
X119195345Y-73408011D01*
X119199280Y-73407514D01*
X119199345Y-73407506D01*
X119211182Y-73406573D01*
X119243440Y-73405559D01*
X119247459Y-73405433D01*
X119255378Y-73405184D01*
X119274832Y-73399532D01*
X119294189Y-73395524D01*
X119306419Y-73393979D01*
X119306420Y-73393979D01*
X119314286Y-73392985D01*
X119321657Y-73390066D01*
X119321659Y-73390066D01*
X119355401Y-73376707D01*
X119366631Y-73372862D01*
X119401472Y-73362740D01*
X119401473Y-73362740D01*
X119409082Y-73360529D01*
X119415901Y-73356496D01*
X119415906Y-73356494D01*
X119426517Y-73350218D01*
X119444265Y-73341523D01*
X119463106Y-73334063D01*
X119498876Y-73308075D01*
X119508796Y-73301559D01*
X119540024Y-73283091D01*
X119540027Y-73283089D01*
X119546851Y-73279053D01*
X119561172Y-73264732D01*
X119576206Y-73251891D01*
X119592596Y-73239983D01*
X119620787Y-73205906D01*
X119628777Y-73197127D01*
X119830499Y-72995405D01*
X119892811Y-72961379D01*
X119919594Y-72958500D01*
X120528134Y-72958500D01*
X120590316Y-72951745D01*
X120726705Y-72900615D01*
X120843261Y-72813261D01*
X120930615Y-72696705D01*
X120981745Y-72560316D01*
X120988500Y-72498134D01*
X120988500Y-72178594D01*
X121008502Y-72110473D01*
X121062158Y-72063980D01*
X121132432Y-72053876D01*
X121197012Y-72083370D01*
G37*
G04 #@! TD.AperFunction*
G04 #@! TA.AperFunction,Conductor*
G36*
X103024412Y-83995793D02*
G01*
X103064991Y-84054050D01*
X103071500Y-84094022D01*
X103071500Y-84348134D01*
X103071869Y-84351531D01*
X103071870Y-84351542D01*
X103072069Y-84353379D01*
X103071992Y-84353807D01*
X103072053Y-84354928D01*
X103071789Y-84354942D01*
X103059535Y-84423260D01*
X103011209Y-84475271D01*
X102942436Y-84492899D01*
X102881537Y-84474752D01*
X102788699Y-84418528D01*
X102742289Y-84403984D01*
X102683269Y-84364528D01*
X102654949Y-84299425D01*
X102666321Y-84229345D01*
X102698361Y-84188321D01*
X102702018Y-84186000D01*
X102748659Y-84136332D01*
X102751413Y-84133491D01*
X102771134Y-84113770D01*
X102773612Y-84110575D01*
X102781318Y-84101553D01*
X102806158Y-84075101D01*
X102811586Y-84069321D01*
X102819981Y-84054050D01*
X102821346Y-84051568D01*
X102832199Y-84035045D01*
X102843281Y-84020758D01*
X102844611Y-84019043D01*
X102846822Y-84020758D01*
X102888929Y-83981436D01*
X102958778Y-83968724D01*
X103024412Y-83995793D01*
G37*
G04 #@! TD.AperFunction*
G04 #@! TA.AperFunction,Conductor*
G36*
X133473602Y-80449051D02*
G01*
X133505547Y-80456000D01*
X134678000Y-80456000D01*
X134746121Y-80476002D01*
X134792614Y-80529658D01*
X134804000Y-80582000D01*
X134804000Y-80838000D01*
X134783998Y-80906121D01*
X134730342Y-80952614D01*
X134678000Y-80964000D01*
X133510116Y-80964000D01*
X133494877Y-80968475D01*
X133493672Y-80969865D01*
X133492001Y-80977548D01*
X133492001Y-81654669D01*
X133492371Y-81661490D01*
X133497895Y-81712352D01*
X133501521Y-81727604D01*
X133546676Y-81848054D01*
X133555214Y-81863649D01*
X133631715Y-81965724D01*
X133644276Y-81978285D01*
X133746351Y-82054786D01*
X133761946Y-82063324D01*
X133882394Y-82108478D01*
X133897649Y-82112105D01*
X133948514Y-82117631D01*
X133955328Y-82118000D01*
X134185928Y-82118000D01*
X134254049Y-82138002D01*
X134300542Y-82191658D01*
X134310646Y-82261932D01*
X134281152Y-82326512D01*
X134275023Y-82333095D01*
X132943094Y-83665023D01*
X132880782Y-83699049D01*
X132809966Y-83693984D01*
X132753131Y-83651437D01*
X132728320Y-83584917D01*
X132727999Y-83575928D01*
X132727999Y-83540331D01*
X132727629Y-83533510D01*
X132722105Y-83482648D01*
X132718479Y-83467396D01*
X132673323Y-83346944D01*
X132664886Y-83331534D01*
X132649716Y-83262177D01*
X132655040Y-83233764D01*
X132670976Y-83182285D01*
X132712290Y-83048820D01*
X132714966Y-83023365D01*
X132732832Y-82853378D01*
X132732832Y-82853377D01*
X132733476Y-82847250D01*
X132715106Y-82645404D01*
X132657881Y-82450971D01*
X132651186Y-82438163D01*
X132602333Y-82344717D01*
X132563981Y-82271355D01*
X132564016Y-82271337D01*
X132544111Y-82205559D01*
X132559271Y-82144591D01*
X132600150Y-82068987D01*
X132652356Y-81972435D01*
X132690783Y-81848297D01*
X132710468Y-81784707D01*
X132710469Y-81784704D01*
X132712290Y-81778820D01*
X132717662Y-81727715D01*
X132732832Y-81583378D01*
X132732832Y-81583377D01*
X132733476Y-81577250D01*
X132715106Y-81375404D01*
X132701072Y-81327721D01*
X132701027Y-81256727D01*
X132732851Y-81203054D01*
X133122253Y-80813652D01*
X133130539Y-80806112D01*
X133137018Y-80802000D01*
X133183644Y-80752348D01*
X133186398Y-80749507D01*
X133206135Y-80729770D01*
X133208615Y-80726573D01*
X133216320Y-80717551D01*
X133229299Y-80703730D01*
X133246586Y-80685321D01*
X133250405Y-80678375D01*
X133250407Y-80678372D01*
X133256348Y-80667566D01*
X133267199Y-80651047D01*
X133267559Y-80650583D01*
X133279614Y-80635041D01*
X133282759Y-80627772D01*
X133282762Y-80627768D01*
X133297174Y-80594463D01*
X133302391Y-80583813D01*
X133323695Y-80545060D01*
X133325666Y-80537384D01*
X133328584Y-80530013D01*
X133330720Y-80530859D01*
X133361087Y-80479836D01*
X133424618Y-80448144D01*
X133473602Y-80449051D01*
G37*
G04 #@! TD.AperFunction*
G04 #@! TA.AperFunction,Conductor*
G36*
X101487012Y-77138654D02*
G01*
X101493589Y-77144776D01*
X101601547Y-77252735D01*
X101703070Y-77354258D01*
X101710604Y-77362537D01*
X101714717Y-77369018D01*
X101764368Y-77415643D01*
X101767210Y-77418398D01*
X101786947Y-77438135D01*
X101790144Y-77440615D01*
X101799164Y-77448318D01*
X101831396Y-77478586D01*
X101838342Y-77482405D01*
X101838345Y-77482407D01*
X101849151Y-77488348D01*
X101865670Y-77499199D01*
X101881676Y-77511614D01*
X101888945Y-77514759D01*
X101888949Y-77514762D01*
X101922254Y-77529174D01*
X101932904Y-77534391D01*
X101971657Y-77555695D01*
X101979332Y-77557666D01*
X101979333Y-77557666D01*
X101991279Y-77560733D01*
X102009984Y-77567137D01*
X102028572Y-77575181D01*
X102036395Y-77576420D01*
X102036405Y-77576423D01*
X102072241Y-77582099D01*
X102083861Y-77584505D01*
X102119006Y-77593528D01*
X102126687Y-77595500D01*
X102146941Y-77595500D01*
X102166651Y-77597051D01*
X102186660Y-77600220D01*
X102194552Y-77599474D01*
X102230678Y-77596059D01*
X102242536Y-77595500D01*
X102945500Y-77595500D01*
X103013621Y-77615502D01*
X103060114Y-77669158D01*
X103071500Y-77721500D01*
X103071500Y-78048231D01*
X103051498Y-78116352D01*
X102997842Y-78162845D01*
X102927568Y-78172949D01*
X102879384Y-78155491D01*
X102791709Y-78101447D01*
X102778532Y-78095303D01*
X102631157Y-78046421D01*
X102617790Y-78043555D01*
X102528300Y-78034386D01*
X102514376Y-78038475D01*
X102513171Y-78039865D01*
X102511500Y-78047548D01*
X102511500Y-79981885D01*
X102515975Y-79997124D01*
X102517365Y-79998329D01*
X102524321Y-79999842D01*
X102527782Y-79999663D01*
X102619021Y-79990196D01*
X102632417Y-79987303D01*
X102779687Y-79938170D01*
X102792866Y-79931996D01*
X102879197Y-79878573D01*
X102947649Y-79859735D01*
X103015419Y-79880896D01*
X103060990Y-79935337D01*
X103071500Y-79985717D01*
X103071500Y-80348134D01*
X103078255Y-80410316D01*
X103129385Y-80546705D01*
X103216739Y-80663261D01*
X103264660Y-80699176D01*
X103307173Y-80756033D01*
X103312199Y-80826851D01*
X103278139Y-80889145D01*
X103264670Y-80900817D01*
X103216739Y-80936739D01*
X103129385Y-81053295D01*
X103078255Y-81189684D01*
X103077402Y-81197537D01*
X103077401Y-81197541D01*
X103073042Y-81237671D01*
X103045800Y-81303234D01*
X102987437Y-81343660D01*
X102916483Y-81346116D01*
X102882508Y-81331840D01*
X102795197Y-81278963D01*
X102795195Y-81278962D01*
X102788699Y-81275028D01*
X102781452Y-81272757D01*
X102781450Y-81272756D01*
X102714789Y-81251866D01*
X102625062Y-81223747D01*
X102551635Y-81217000D01*
X102533526Y-81217000D01*
X102259595Y-81217001D01*
X102191476Y-81196999D01*
X102170501Y-81180096D01*
X101142161Y-80151756D01*
X101108135Y-80089444D01*
X101113200Y-80018629D01*
X101155747Y-79961793D01*
X101191376Y-79943139D01*
X101204904Y-79938625D01*
X101211849Y-79936308D01*
X101356055Y-79847071D01*
X101381241Y-79821841D01*
X101443523Y-79787762D01*
X101514343Y-79792765D01*
X101559432Y-79821686D01*
X101580080Y-79842298D01*
X101591491Y-79851310D01*
X101723291Y-79932553D01*
X101736468Y-79938697D01*
X101883843Y-79987579D01*
X101897210Y-79990445D01*
X101986700Y-79999614D01*
X102000624Y-79995525D01*
X102001829Y-79994135D01*
X102003500Y-79986452D01*
X102003500Y-78052115D01*
X101999025Y-78036876D01*
X101997635Y-78035671D01*
X101990679Y-78034158D01*
X101987218Y-78034337D01*
X101895979Y-78043804D01*
X101882583Y-78046697D01*
X101735313Y-78095830D01*
X101722134Y-78102004D01*
X101590486Y-78183470D01*
X101579085Y-78192506D01*
X101559467Y-78212158D01*
X101497184Y-78246237D01*
X101426364Y-78241234D01*
X101381277Y-78212314D01*
X101360234Y-78191308D01*
X101355053Y-78186136D01*
X101338384Y-78175861D01*
X101290890Y-78123088D01*
X101278500Y-78068601D01*
X101278500Y-77233878D01*
X101298502Y-77165757D01*
X101352158Y-77119264D01*
X101422432Y-77109160D01*
X101487012Y-77138654D01*
G37*
G04 #@! TD.AperFunction*
G04 #@! TA.AperFunction,Conductor*
G36*
X139311512Y-75392871D02*
G01*
X139318095Y-75399000D01*
X139504595Y-75585500D01*
X139538621Y-75647812D01*
X139541500Y-75674595D01*
X139541500Y-76096634D01*
X139548255Y-76158816D01*
X139599385Y-76295205D01*
X139686739Y-76411761D01*
X139803295Y-76499115D01*
X139939684Y-76550245D01*
X140001866Y-76557000D01*
X142598134Y-76557000D01*
X142660316Y-76550245D01*
X142796705Y-76499115D01*
X142803892Y-76493729D01*
X142808595Y-76491154D01*
X142877952Y-76475984D01*
X142944501Y-76500719D01*
X142987112Y-76557507D01*
X142994416Y-76614843D01*
X142986404Y-76691075D01*
X143004577Y-76890756D01*
X142990832Y-76960407D01*
X142941611Y-77011572D01*
X142872542Y-77028003D01*
X142812489Y-77006248D01*
X142811760Y-77007579D01*
X142803892Y-77003271D01*
X142796705Y-76997885D01*
X142660316Y-76946755D01*
X142598134Y-76940000D01*
X140001866Y-76940000D01*
X139939684Y-76946755D01*
X139803295Y-76997885D01*
X139686739Y-77085239D01*
X139599385Y-77201795D01*
X139596233Y-77210204D01*
X139596232Y-77210205D01*
X139568654Y-77283769D01*
X139526013Y-77340534D01*
X139459451Y-77365234D01*
X139450672Y-77365540D01*
X139196119Y-77365540D01*
X139127998Y-77345538D01*
X139081505Y-77291882D01*
X139071401Y-77221608D01*
X139076524Y-77199879D01*
X139093149Y-77149757D01*
X139093924Y-77142199D01*
X139099024Y-77092419D01*
X139103500Y-77048732D01*
X139103500Y-76501268D01*
X139092887Y-76398981D01*
X139072627Y-76338255D01*
X139041073Y-76243676D01*
X139041072Y-76243674D01*
X139038756Y-76236732D01*
X138967486Y-76121560D01*
X138952606Y-76097515D01*
X138948752Y-76091287D01*
X138943570Y-76086114D01*
X138939023Y-76080377D01*
X138940830Y-76078945D01*
X138912098Y-76026425D01*
X138917108Y-75955605D01*
X138940499Y-75919147D01*
X138939448Y-75918317D01*
X138952998Y-75901160D01*
X139035004Y-75768120D01*
X139041151Y-75754939D01*
X139090491Y-75606186D01*
X139093358Y-75592810D01*
X139102672Y-75501903D01*
X139103000Y-75495487D01*
X139103000Y-75488095D01*
X139123002Y-75419974D01*
X139176658Y-75373481D01*
X139246932Y-75363377D01*
X139311512Y-75392871D01*
G37*
G04 #@! TD.AperFunction*
G04 #@! TA.AperFunction,Conductor*
G36*
X135226121Y-71306002D02*
G01*
X135272614Y-71359658D01*
X135284000Y-71412000D01*
X135284000Y-73029884D01*
X135288475Y-73045123D01*
X135289865Y-73046328D01*
X135297548Y-73047999D01*
X135824669Y-73047999D01*
X135831490Y-73047629D01*
X135882352Y-73042105D01*
X135897604Y-73038479D01*
X136018054Y-72993324D01*
X136033649Y-72984786D01*
X136135724Y-72908285D01*
X136148285Y-72895724D01*
X136224786Y-72793649D01*
X136233324Y-72778054D01*
X136278478Y-72657606D01*
X136282105Y-72642351D01*
X136287631Y-72591486D01*
X136288000Y-72584672D01*
X136288000Y-72537335D01*
X136308002Y-72469214D01*
X136361658Y-72422721D01*
X136431932Y-72412617D01*
X136496512Y-72442111D01*
X136529422Y-72495301D01*
X136532006Y-72494278D01*
X136548284Y-72535392D01*
X136552129Y-72546622D01*
X136557157Y-72563928D01*
X136564462Y-72589073D01*
X136568495Y-72595892D01*
X136568497Y-72595897D01*
X136574773Y-72606508D01*
X136583468Y-72624256D01*
X136590928Y-72643097D01*
X136595590Y-72649513D01*
X136595590Y-72649514D01*
X136616916Y-72678867D01*
X136623432Y-72688787D01*
X136640984Y-72718465D01*
X136645938Y-72726842D01*
X136660259Y-72741163D01*
X136673099Y-72756196D01*
X136685008Y-72772587D01*
X136691113Y-72777638D01*
X136691118Y-72777643D01*
X136719078Y-72800774D01*
X136727856Y-72808761D01*
X136843751Y-72924655D01*
X136929595Y-73010499D01*
X136963620Y-73072811D01*
X136966500Y-73099595D01*
X136966500Y-73408732D01*
X136966837Y-73411978D01*
X136966837Y-73411982D01*
X136966915Y-73412731D01*
X136977113Y-73511019D01*
X136979295Y-73517559D01*
X137017660Y-73632551D01*
X137031244Y-73673268D01*
X137121248Y-73818713D01*
X137242298Y-73939552D01*
X137387899Y-74029302D01*
X137550243Y-74083149D01*
X137557082Y-74083850D01*
X137558156Y-74084080D01*
X137620570Y-74117918D01*
X137654782Y-74180128D01*
X137649929Y-74250959D01*
X137607553Y-74307921D01*
X137571616Y-74326804D01*
X137563897Y-74329379D01*
X137550714Y-74335555D01*
X137417827Y-74417788D01*
X137406426Y-74426824D01*
X137296014Y-74537429D01*
X137287002Y-74548840D01*
X137204996Y-74681880D01*
X137198849Y-74695061D01*
X137149509Y-74843814D01*
X137146642Y-74857190D01*
X137137328Y-74948097D01*
X137137071Y-74953126D01*
X137141475Y-74968124D01*
X137142865Y-74969329D01*
X137150548Y-74971000D01*
X138248000Y-74971000D01*
X138316121Y-74991002D01*
X138362614Y-75044658D01*
X138374000Y-75097000D01*
X138374000Y-75353000D01*
X138353998Y-75421121D01*
X138300342Y-75467614D01*
X138248000Y-75479000D01*
X137155115Y-75479000D01*
X137139876Y-75483475D01*
X137138671Y-75484865D01*
X137137000Y-75492548D01*
X137137000Y-75495438D01*
X137137337Y-75501953D01*
X137146894Y-75594057D01*
X137149788Y-75607456D01*
X137199381Y-75756107D01*
X137205555Y-75769286D01*
X137287788Y-75902173D01*
X137301371Y-75919311D01*
X137299441Y-75920841D01*
X137327903Y-75972880D01*
X137322887Y-76043699D01*
X137299201Y-76080617D01*
X137300157Y-76081372D01*
X137295619Y-76087118D01*
X137290448Y-76092298D01*
X137286608Y-76098528D01*
X137286607Y-76098529D01*
X137205255Y-76230507D01*
X137200698Y-76237899D01*
X137146851Y-76400243D01*
X137146151Y-76407080D01*
X137146150Y-76407082D01*
X137145109Y-76417242D01*
X137136500Y-76501268D01*
X137136500Y-76810405D01*
X137116498Y-76878526D01*
X137099595Y-76899500D01*
X136829500Y-77169595D01*
X136767188Y-77203621D01*
X136740405Y-77206500D01*
X135264500Y-77206500D01*
X135196379Y-77186498D01*
X135149886Y-77132842D01*
X135138500Y-77080500D01*
X135138500Y-76791866D01*
X135131745Y-76729684D01*
X135080615Y-76593295D01*
X134993261Y-76476739D01*
X134876705Y-76389385D01*
X134740316Y-76338255D01*
X134678134Y-76331500D01*
X133489500Y-76331500D01*
X133421379Y-76311498D01*
X133374886Y-76257842D01*
X133363500Y-76205500D01*
X133363500Y-73174500D01*
X133383502Y-73106379D01*
X133437158Y-73059886D01*
X133489500Y-73048500D01*
X133528134Y-73048500D01*
X133590316Y-73041745D01*
X133726705Y-72990615D01*
X133804852Y-72932047D01*
X133871358Y-72907199D01*
X133940741Y-72922252D01*
X133955982Y-72932047D01*
X134026352Y-72984786D01*
X134041946Y-72993324D01*
X134162394Y-73038478D01*
X134177649Y-73042105D01*
X134228514Y-73047631D01*
X134235328Y-73048000D01*
X134757885Y-73048000D01*
X134773124Y-73043525D01*
X134774329Y-73042135D01*
X134776000Y-73034452D01*
X134776000Y-71412000D01*
X134796002Y-71343879D01*
X134849658Y-71297386D01*
X134902000Y-71286000D01*
X135158000Y-71286000D01*
X135226121Y-71306002D01*
G37*
G04 #@! TD.AperFunction*
G04 #@! TA.AperFunction,Conductor*
G36*
X138934121Y-69778002D02*
G01*
X138980614Y-69831658D01*
X138992000Y-69884000D01*
X138992000Y-70811052D01*
X138971998Y-70879173D01*
X138918342Y-70925666D01*
X138848068Y-70935770D01*
X138783488Y-70906276D01*
X138776983Y-70900225D01*
X138662576Y-70786018D01*
X138651160Y-70777002D01*
X138518120Y-70694996D01*
X138504939Y-70688849D01*
X138356186Y-70639509D01*
X138342810Y-70636642D01*
X138251903Y-70627328D01*
X138245486Y-70627000D01*
X138222115Y-70627000D01*
X138206876Y-70631475D01*
X138205671Y-70632865D01*
X138204000Y-70640548D01*
X138204000Y-71713000D01*
X138183998Y-71781121D01*
X138130342Y-71827614D01*
X138078000Y-71839000D01*
X137909980Y-71839000D01*
X137841859Y-71818998D01*
X137795366Y-71765342D01*
X137783980Y-71713000D01*
X137783980Y-70989248D01*
X137784507Y-70978065D01*
X137786182Y-70970572D01*
X137784042Y-70902481D01*
X137783980Y-70898524D01*
X137783980Y-70870624D01*
X137783476Y-70866633D01*
X137782543Y-70854791D01*
X137781863Y-70833132D01*
X137781154Y-70810591D01*
X137778942Y-70802977D01*
X137778941Y-70802972D01*
X137775503Y-70791139D01*
X137771492Y-70771775D01*
X137769947Y-70759544D01*
X137768954Y-70751683D01*
X137766037Y-70744316D01*
X137766036Y-70744311D01*
X137752678Y-70710572D01*
X137748834Y-70699345D01*
X137739931Y-70668704D01*
X137736498Y-70656887D01*
X137729532Y-70645109D01*
X137726187Y-70639452D01*
X137717492Y-70621704D01*
X137710032Y-70602863D01*
X137684044Y-70567093D01*
X137677528Y-70557173D01*
X137659060Y-70525945D01*
X137659058Y-70525942D01*
X137655022Y-70519118D01*
X137640701Y-70504797D01*
X137627860Y-70489763D01*
X137620612Y-70479787D01*
X137615952Y-70473373D01*
X137581887Y-70445192D01*
X137573106Y-70437202D01*
X137109000Y-69973095D01*
X137074975Y-69910783D01*
X137080040Y-69839967D01*
X137122587Y-69783132D01*
X137189107Y-69758321D01*
X137198096Y-69758000D01*
X138866000Y-69758000D01*
X138934121Y-69778002D01*
G37*
G04 #@! TD.AperFunction*
M02*
