%FSLAX45Y45*%
G04 Gerber Fmt 4.5, Leading zero omitted, Abs format (unit mm)*
G04 Created by KiCad (PCBNEW 6.0.1-79c1e3a40b~116~ubuntu20.04.1) date 2022-01-17 20:41:08*
%MOMM*%
%LPD*%
G01*
G04 APERTURE LIST*
%TA.AperFunction,Profile*%
%ADD10C,0.400000*%
%TD*%
%ADD11C,0.200000*%
%ADD12C,0.110000*%
G04 APERTURE END LIST*
D10*
X14200000Y-7000000D02*
X14200000Y-7300000D01*
X14000000Y-8500000D02*
X14000000Y-8800000D01*
X14000000Y-8500000D02*
X14200000Y-8500000D01*
X10000000Y-7000000D02*
X14000000Y-7000000D01*
X14200000Y-7000000D02*
X14600000Y-7000000D01*
X14000000Y-7300000D02*
X14200000Y-7300000D01*
X14200000Y-8500000D02*
X14200000Y-8800000D01*
X14600000Y-7000000D02*
X14800000Y-7200000D01*
X14800000Y-7200000D02*
X14800000Y-8600000D01*
X10000000Y-7000000D02*
X10000000Y-8800000D01*
X10000000Y-8800000D02*
X14000000Y-8800000D01*
X14200000Y-8800000D02*
X14600000Y-8800000D01*
X14000000Y-7000000D02*
X14000000Y-7300000D01*
X14600000Y-8800000D02*
X14800000Y-8600000D01*
D11*
D12*
X14470000Y-7592000D02*
X14580000Y-7702000D01*
X14580000Y-7592000D02*
X14470000Y-7702000D01*
X14470000Y-8052000D02*
X14580000Y-8162000D01*
X14580000Y-8052000D02*
X14470000Y-8162000D01*
D11*
X10237619Y-9130476D02*
X10237619Y-8930476D01*
X10285238Y-8930476D01*
X10313810Y-8940000D01*
X10332857Y-8959048D01*
X10342381Y-8978095D01*
X10351905Y-9016190D01*
X10351905Y-9044762D01*
X10342381Y-9082857D01*
X10332857Y-9101905D01*
X10313810Y-9120952D01*
X10285238Y-9130476D01*
X10237619Y-9130476D01*
X10437619Y-9130476D02*
X10437619Y-8997143D01*
X10437619Y-9035238D02*
X10447143Y-9016190D01*
X10456667Y-9006667D01*
X10475714Y-8997143D01*
X10494762Y-8997143D01*
X10561429Y-9130476D02*
X10561429Y-8997143D01*
X10561429Y-8930476D02*
X10551905Y-8940000D01*
X10561429Y-8949524D01*
X10570952Y-8940000D01*
X10561429Y-8930476D01*
X10561429Y-8949524D01*
X10685238Y-9130476D02*
X10666190Y-9120952D01*
X10656667Y-9101905D01*
X10656667Y-8930476D01*
X10790000Y-9130476D02*
X10770952Y-9120952D01*
X10761429Y-9101905D01*
X10761429Y-8930476D01*
X11018571Y-9130476D02*
X11018571Y-8930476D01*
X11085238Y-9073333D01*
X11151905Y-8930476D01*
X11151905Y-9130476D01*
X11332857Y-9130476D02*
X11332857Y-9025714D01*
X11323333Y-9006667D01*
X11304286Y-8997143D01*
X11266190Y-8997143D01*
X11247143Y-9006667D01*
X11332857Y-9120952D02*
X11313809Y-9130476D01*
X11266190Y-9130476D01*
X11247143Y-9120952D01*
X11237619Y-9101905D01*
X11237619Y-9082857D01*
X11247143Y-9063810D01*
X11266190Y-9054286D01*
X11313809Y-9054286D01*
X11332857Y-9044762D01*
X11428095Y-8997143D02*
X11428095Y-9197143D01*
X11428095Y-9006667D02*
X11447143Y-8997143D01*
X11485238Y-8997143D01*
X11504286Y-9006667D01*
X11513809Y-9016190D01*
X11523333Y-9035238D01*
X11523333Y-9092381D01*
X11513809Y-9111429D01*
X11504286Y-9120952D01*
X11485238Y-9130476D01*
X11447143Y-9130476D01*
X11428095Y-9120952D01*
X11609048Y-9111429D02*
X11618571Y-9120952D01*
X11609048Y-9130476D01*
X11599524Y-9120952D01*
X11609048Y-9111429D01*
X11609048Y-9130476D01*
X11609048Y-9006667D02*
X11618571Y-9016190D01*
X11609048Y-9025714D01*
X11599524Y-9016190D01*
X11609048Y-9006667D01*
X11609048Y-9025714D01*
D12*
X9870000Y-9405000D02*
X9980000Y-9515000D01*
X9980000Y-9405000D02*
X9870000Y-9515000D01*
D11*
X10342381Y-9550476D02*
X10228095Y-9550476D01*
X10285238Y-9550476D02*
X10285238Y-9350476D01*
X10266190Y-9379048D01*
X10247143Y-9398095D01*
X10228095Y-9407619D01*
X10428095Y-9531429D02*
X10437619Y-9540952D01*
X10428095Y-9550476D01*
X10418571Y-9540952D01*
X10428095Y-9531429D01*
X10428095Y-9550476D01*
X10628095Y-9550476D02*
X10513810Y-9550476D01*
X10570952Y-9550476D02*
X10570952Y-9350476D01*
X10551905Y-9379048D01*
X10532857Y-9398095D01*
X10513810Y-9407619D01*
X10751905Y-9350476D02*
X10770952Y-9350476D01*
X10790000Y-9360000D01*
X10799524Y-9369524D01*
X10809048Y-9388571D01*
X10818571Y-9426667D01*
X10818571Y-9474286D01*
X10809048Y-9512381D01*
X10799524Y-9531429D01*
X10790000Y-9540952D01*
X10770952Y-9550476D01*
X10751905Y-9550476D01*
X10732857Y-9540952D01*
X10723333Y-9531429D01*
X10713810Y-9512381D01*
X10704286Y-9474286D01*
X10704286Y-9426667D01*
X10713810Y-9388571D01*
X10723333Y-9369524D01*
X10732857Y-9360000D01*
X10751905Y-9350476D01*
X10942381Y-9350476D02*
X10961429Y-9350476D01*
X10980476Y-9360000D01*
X10990000Y-9369524D01*
X10999524Y-9388571D01*
X11009048Y-9426667D01*
X11009048Y-9474286D01*
X10999524Y-9512381D01*
X10990000Y-9531429D01*
X10980476Y-9540952D01*
X10961429Y-9550476D01*
X10942381Y-9550476D01*
X10923333Y-9540952D01*
X10913810Y-9531429D01*
X10904286Y-9512381D01*
X10894762Y-9474286D01*
X10894762Y-9426667D01*
X10904286Y-9388571D01*
X10913810Y-9369524D01*
X10923333Y-9360000D01*
X10942381Y-9350476D01*
X11094762Y-9550476D02*
X11094762Y-9417143D01*
X11094762Y-9436190D02*
X11104286Y-9426667D01*
X11123333Y-9417143D01*
X11151905Y-9417143D01*
X11170952Y-9426667D01*
X11180476Y-9445714D01*
X11180476Y-9550476D01*
X11180476Y-9445714D02*
X11190000Y-9426667D01*
X11209048Y-9417143D01*
X11237619Y-9417143D01*
X11256667Y-9426667D01*
X11266190Y-9445714D01*
X11266190Y-9550476D01*
X11361428Y-9550476D02*
X11361428Y-9417143D01*
X11361428Y-9436190D02*
X11370952Y-9426667D01*
X11390000Y-9417143D01*
X11418571Y-9417143D01*
X11437619Y-9426667D01*
X11447143Y-9445714D01*
X11447143Y-9550476D01*
X11447143Y-9445714D02*
X11456667Y-9426667D01*
X11475714Y-9417143D01*
X11504286Y-9417143D01*
X11523333Y-9426667D01*
X11532857Y-9445714D01*
X11532857Y-9550476D01*
X11923333Y-9340952D02*
X11751905Y-9598095D01*
X12180476Y-9350476D02*
X12199524Y-9350476D01*
X12218571Y-9360000D01*
X12228095Y-9369524D01*
X12237619Y-9388571D01*
X12247143Y-9426667D01*
X12247143Y-9474286D01*
X12237619Y-9512381D01*
X12228095Y-9531429D01*
X12218571Y-9540952D01*
X12199524Y-9550476D01*
X12180476Y-9550476D01*
X12161428Y-9540952D01*
X12151905Y-9531429D01*
X12142381Y-9512381D01*
X12132857Y-9474286D01*
X12132857Y-9426667D01*
X12142381Y-9388571D01*
X12151905Y-9369524D01*
X12161428Y-9360000D01*
X12180476Y-9350476D01*
X12332857Y-9531429D02*
X12342381Y-9540952D01*
X12332857Y-9550476D01*
X12323333Y-9540952D01*
X12332857Y-9531429D01*
X12332857Y-9550476D01*
X12466190Y-9350476D02*
X12485238Y-9350476D01*
X12504286Y-9360000D01*
X12513809Y-9369524D01*
X12523333Y-9388571D01*
X12532857Y-9426667D01*
X12532857Y-9474286D01*
X12523333Y-9512381D01*
X12513809Y-9531429D01*
X12504286Y-9540952D01*
X12485238Y-9550476D01*
X12466190Y-9550476D01*
X12447143Y-9540952D01*
X12437619Y-9531429D01*
X12428095Y-9512381D01*
X12418571Y-9474286D01*
X12418571Y-9426667D01*
X12428095Y-9388571D01*
X12437619Y-9369524D01*
X12447143Y-9360000D01*
X12466190Y-9350476D01*
X12704286Y-9417143D02*
X12704286Y-9550476D01*
X12656667Y-9340952D02*
X12609048Y-9483810D01*
X12732857Y-9483810D01*
X12790000Y-9350476D02*
X12913809Y-9350476D01*
X12847143Y-9426667D01*
X12875714Y-9426667D01*
X12894762Y-9436190D01*
X12904286Y-9445714D01*
X12913809Y-9464762D01*
X12913809Y-9512381D01*
X12904286Y-9531429D01*
X12894762Y-9540952D01*
X12875714Y-9550476D01*
X12818571Y-9550476D01*
X12799524Y-9540952D01*
X12790000Y-9531429D01*
X12980476Y-9350476D02*
X13104286Y-9350476D01*
X13037619Y-9426667D01*
X13066190Y-9426667D01*
X13085238Y-9436190D01*
X13094762Y-9445714D01*
X13104286Y-9464762D01*
X13104286Y-9512381D01*
X13094762Y-9531429D01*
X13085238Y-9540952D01*
X13066190Y-9550476D01*
X13009048Y-9550476D01*
X12990000Y-9540952D01*
X12980476Y-9531429D01*
X13180476Y-9350476D02*
X13180476Y-9388571D01*
X13256667Y-9350476D02*
X13256667Y-9388571D01*
X13551905Y-9626667D02*
X13542381Y-9617143D01*
X13523333Y-9588571D01*
X13513809Y-9569524D01*
X13504286Y-9540952D01*
X13494762Y-9493333D01*
X13494762Y-9455238D01*
X13504286Y-9407619D01*
X13513809Y-9379048D01*
X13523333Y-9360000D01*
X13542381Y-9331429D01*
X13551905Y-9321905D01*
X13618571Y-9369524D02*
X13628095Y-9360000D01*
X13647143Y-9350476D01*
X13694762Y-9350476D01*
X13713809Y-9360000D01*
X13723333Y-9369524D01*
X13732857Y-9388571D01*
X13732857Y-9407619D01*
X13723333Y-9436190D01*
X13609048Y-9550476D01*
X13732857Y-9550476D01*
X13970952Y-9550476D02*
X13970952Y-9350476D01*
X14056667Y-9550476D02*
X14056667Y-9445714D01*
X14047143Y-9426667D01*
X14028095Y-9417143D01*
X13999524Y-9417143D01*
X13980476Y-9426667D01*
X13970952Y-9436190D01*
X14180476Y-9550476D02*
X14161428Y-9540952D01*
X14151905Y-9531429D01*
X14142381Y-9512381D01*
X14142381Y-9455238D01*
X14151905Y-9436190D01*
X14161428Y-9426667D01*
X14180476Y-9417143D01*
X14209048Y-9417143D01*
X14228095Y-9426667D01*
X14237619Y-9436190D01*
X14247143Y-9455238D01*
X14247143Y-9512381D01*
X14237619Y-9531429D01*
X14228095Y-9540952D01*
X14209048Y-9550476D01*
X14180476Y-9550476D01*
X14361428Y-9550476D02*
X14342381Y-9540952D01*
X14332857Y-9521905D01*
X14332857Y-9350476D01*
X14513809Y-9540952D02*
X14494762Y-9550476D01*
X14456667Y-9550476D01*
X14437619Y-9540952D01*
X14428095Y-9521905D01*
X14428095Y-9445714D01*
X14437619Y-9426667D01*
X14456667Y-9417143D01*
X14494762Y-9417143D01*
X14513809Y-9426667D01*
X14523333Y-9445714D01*
X14523333Y-9464762D01*
X14428095Y-9483810D01*
X14599524Y-9540952D02*
X14618571Y-9550476D01*
X14656667Y-9550476D01*
X14675714Y-9540952D01*
X14685238Y-9521905D01*
X14685238Y-9512381D01*
X14675714Y-9493333D01*
X14656667Y-9483810D01*
X14628095Y-9483810D01*
X14609048Y-9474286D01*
X14599524Y-9455238D01*
X14599524Y-9445714D01*
X14609048Y-9426667D01*
X14628095Y-9417143D01*
X14656667Y-9417143D01*
X14675714Y-9426667D01*
X14751905Y-9626667D02*
X14761428Y-9617143D01*
X14780476Y-9588571D01*
X14790000Y-9569524D01*
X14799524Y-9540952D01*
X14809048Y-9493333D01*
X14809048Y-9455238D01*
X14799524Y-9407619D01*
X14790000Y-9379048D01*
X14780476Y-9360000D01*
X14761428Y-9331429D01*
X14751905Y-9321905D01*
X15113809Y-9626667D02*
X15104286Y-9617143D01*
X15085238Y-9588571D01*
X15075714Y-9569524D01*
X15066190Y-9540952D01*
X15056667Y-9493333D01*
X15056667Y-9455238D01*
X15066190Y-9407619D01*
X15075714Y-9379048D01*
X15085238Y-9360000D01*
X15104286Y-9331429D01*
X15113809Y-9321905D01*
X15190000Y-9417143D02*
X15190000Y-9550476D01*
X15190000Y-9436190D02*
X15199524Y-9426667D01*
X15218571Y-9417143D01*
X15247143Y-9417143D01*
X15266190Y-9426667D01*
X15275714Y-9445714D01*
X15275714Y-9550476D01*
X15399524Y-9550476D02*
X15380476Y-9540952D01*
X15370952Y-9531429D01*
X15361428Y-9512381D01*
X15361428Y-9455238D01*
X15370952Y-9436190D01*
X15380476Y-9426667D01*
X15399524Y-9417143D01*
X15428095Y-9417143D01*
X15447143Y-9426667D01*
X15456667Y-9436190D01*
X15466190Y-9455238D01*
X15466190Y-9512381D01*
X15456667Y-9531429D01*
X15447143Y-9540952D01*
X15428095Y-9550476D01*
X15399524Y-9550476D01*
X15523333Y-9417143D02*
X15599524Y-9417143D01*
X15551905Y-9350476D02*
X15551905Y-9521905D01*
X15561428Y-9540952D01*
X15580476Y-9550476D01*
X15599524Y-9550476D01*
X15818571Y-9417143D02*
X15818571Y-9617143D01*
X15818571Y-9426667D02*
X15837619Y-9417143D01*
X15875714Y-9417143D01*
X15894762Y-9426667D01*
X15904286Y-9436190D01*
X15913809Y-9455238D01*
X15913809Y-9512381D01*
X15904286Y-9531429D01*
X15894762Y-9540952D01*
X15875714Y-9550476D01*
X15837619Y-9550476D01*
X15818571Y-9540952D01*
X16028095Y-9550476D02*
X16009048Y-9540952D01*
X15999524Y-9521905D01*
X15999524Y-9350476D01*
X16190000Y-9550476D02*
X16190000Y-9445714D01*
X16180476Y-9426667D01*
X16161428Y-9417143D01*
X16123333Y-9417143D01*
X16104286Y-9426667D01*
X16190000Y-9540952D02*
X16170952Y-9550476D01*
X16123333Y-9550476D01*
X16104286Y-9540952D01*
X16094762Y-9521905D01*
X16094762Y-9502857D01*
X16104286Y-9483810D01*
X16123333Y-9474286D01*
X16170952Y-9474286D01*
X16190000Y-9464762D01*
X16256667Y-9417143D02*
X16332857Y-9417143D01*
X16285238Y-9350476D02*
X16285238Y-9521905D01*
X16294762Y-9540952D01*
X16313809Y-9550476D01*
X16332857Y-9550476D01*
X16475714Y-9540952D02*
X16456667Y-9550476D01*
X16418571Y-9550476D01*
X16399524Y-9540952D01*
X16390000Y-9521905D01*
X16390000Y-9445714D01*
X16399524Y-9426667D01*
X16418571Y-9417143D01*
X16456667Y-9417143D01*
X16475714Y-9426667D01*
X16485238Y-9445714D01*
X16485238Y-9464762D01*
X16390000Y-9483810D01*
X16656667Y-9550476D02*
X16656667Y-9350476D01*
X16656667Y-9540952D02*
X16637619Y-9550476D01*
X16599524Y-9550476D01*
X16580476Y-9540952D01*
X16570952Y-9531429D01*
X16561428Y-9512381D01*
X16561428Y-9455238D01*
X16570952Y-9436190D01*
X16580476Y-9426667D01*
X16599524Y-9417143D01*
X16637619Y-9417143D01*
X16656667Y-9426667D01*
X16732857Y-9626667D02*
X16742381Y-9617143D01*
X16761428Y-9588571D01*
X16770952Y-9569524D01*
X16780476Y-9540952D01*
X16790000Y-9493333D01*
X16790000Y-9455238D01*
X16780476Y-9407619D01*
X16770952Y-9379048D01*
X16761428Y-9360000D01*
X16742381Y-9331429D01*
X16732857Y-9321905D01*
M02*
