%FSLAX45Y45*%
G04 Gerber Fmt 4.5, Leading zero omitted, Abs format (unit mm)*
G04 Created by KiCad (PCBNEW 6.0.1-79c1e3a40b~116~ubuntu20.04.1) date 2022-01-17 20:41:08*
%MOMM*%
%LPD*%
G01*
G04 APERTURE LIST*
%TA.AperFunction,Profile*%
%ADD10C,0.400000*%
%TD*%
%ADD11C,0.200000*%
%ADD12C,0.040000*%
%ADD13C,0.075000*%
%ADD14C,0.090000*%
G04 APERTURE END LIST*
D10*
X14200000Y-7000000D02*
X14200000Y-7300000D01*
X14000000Y-8500000D02*
X14000000Y-8800000D01*
X14000000Y-8500000D02*
X14200000Y-8500000D01*
X10000000Y-7000000D02*
X14000000Y-7000000D01*
X14200000Y-7000000D02*
X14600000Y-7000000D01*
X14000000Y-7300000D02*
X14200000Y-7300000D01*
X14200000Y-8500000D02*
X14200000Y-8800000D01*
X14600000Y-7000000D02*
X14800000Y-7200000D01*
X14800000Y-7200000D02*
X14800000Y-8600000D01*
X10000000Y-7000000D02*
X10000000Y-8800000D01*
X10000000Y-8800000D02*
X14000000Y-8800000D01*
X14200000Y-8800000D02*
X14600000Y-8800000D01*
X14000000Y-7000000D02*
X14000000Y-7300000D01*
X14600000Y-8800000D02*
X14800000Y-8600000D01*
D11*
D12*
X10125000Y-8403000D02*
X10165000Y-8443000D01*
X10165000Y-8403000D02*
X10125000Y-8443000D01*
X10339000Y-7491000D02*
X10379000Y-7531000D01*
X10379000Y-7491000D02*
X10339000Y-7531000D01*
X10407000Y-7741000D02*
X10447000Y-7781000D01*
X10447000Y-7741000D02*
X10407000Y-7781000D01*
X11530000Y-7607000D02*
X11570000Y-7647000D01*
X11570000Y-7607000D02*
X11530000Y-7647000D01*
X11557000Y-7392000D02*
X11597000Y-7432000D01*
X11597000Y-7392000D02*
X11557000Y-7432000D01*
X11757000Y-7384000D02*
X11797000Y-7424000D01*
X11797000Y-7384000D02*
X11757000Y-7424000D01*
X11957000Y-8424000D02*
X11997000Y-8464000D01*
X11997000Y-8424000D02*
X11957000Y-8464000D01*
X12113000Y-7832000D02*
X12153000Y-7872000D01*
X12153000Y-7832000D02*
X12113000Y-7872000D01*
X12557000Y-7461000D02*
X12597000Y-7501000D01*
X12597000Y-7461000D02*
X12557000Y-7501000D01*
X12788000Y-7566000D02*
X12828000Y-7606000D01*
X12828000Y-7566000D02*
X12788000Y-7606000D01*
X13301000Y-8288000D02*
X13341000Y-8328000D01*
X13341000Y-8288000D02*
X13301000Y-8328000D01*
X13604000Y-8607000D02*
X13644000Y-8647000D01*
X13644000Y-8607000D02*
X13604000Y-8647000D01*
X13998000Y-7757000D02*
X14038000Y-7797000D01*
X14038000Y-7757000D02*
X13998000Y-7797000D01*
X13999000Y-7957000D02*
X14039000Y-7997000D01*
X14039000Y-7957000D02*
X13999000Y-7997000D01*
D13*
X10442500Y-8040000D02*
G75*
G03*
X10442500Y-8040000I-37500J0D01*
G01*
X10442500Y-8167000D02*
G75*
G03*
X10442500Y-8167000I-37500J0D01*
G01*
X10442500Y-8294000D02*
G75*
G03*
X10442500Y-8294000I-37500J0D01*
G01*
D14*
X14525000Y-7262000D02*
X14525000Y-7352000D01*
X14480000Y-7307000D02*
X14570000Y-7307000D01*
D11*
X14445000Y-7342000D02*
X14605000Y-7342000D01*
X14445000Y-7272000D02*
X14605000Y-7272000D01*
X14605000Y-7342000D02*
G75*
G03*
X14605000Y-7272000I0J35000D01*
G01*
X14445000Y-7272000D02*
G75*
G03*
X14445000Y-7342000I0J-35000D01*
G01*
D14*
X14525000Y-8402000D02*
X14525000Y-8492000D01*
X14480000Y-8447000D02*
X14570000Y-8447000D01*
D11*
X14445000Y-8482000D02*
X14605000Y-8482000D01*
X14445000Y-8412000D02*
X14605000Y-8412000D01*
X14605000Y-8482000D02*
G75*
G03*
X14605000Y-8412000I0J35000D01*
G01*
X14445000Y-8412000D02*
G75*
G03*
X14445000Y-8482000I0J-35000D01*
G01*
X10237619Y-9130476D02*
X10237619Y-8930476D01*
X10285238Y-8930476D01*
X10313810Y-8940000D01*
X10332857Y-8959048D01*
X10342381Y-8978095D01*
X10351905Y-9016190D01*
X10351905Y-9044762D01*
X10342381Y-9082857D01*
X10332857Y-9101905D01*
X10313810Y-9120952D01*
X10285238Y-9130476D01*
X10237619Y-9130476D01*
X10437619Y-9130476D02*
X10437619Y-8997143D01*
X10437619Y-9035238D02*
X10447143Y-9016190D01*
X10456667Y-9006667D01*
X10475714Y-8997143D01*
X10494762Y-8997143D01*
X10561429Y-9130476D02*
X10561429Y-8997143D01*
X10561429Y-8930476D02*
X10551905Y-8940000D01*
X10561429Y-8949524D01*
X10570952Y-8940000D01*
X10561429Y-8930476D01*
X10561429Y-8949524D01*
X10685238Y-9130476D02*
X10666190Y-9120952D01*
X10656667Y-9101905D01*
X10656667Y-8930476D01*
X10790000Y-9130476D02*
X10770952Y-9120952D01*
X10761429Y-9101905D01*
X10761429Y-8930476D01*
X11018571Y-9130476D02*
X11018571Y-8930476D01*
X11085238Y-9073333D01*
X11151905Y-8930476D01*
X11151905Y-9130476D01*
X11332857Y-9130476D02*
X11332857Y-9025714D01*
X11323333Y-9006667D01*
X11304286Y-8997143D01*
X11266190Y-8997143D01*
X11247143Y-9006667D01*
X11332857Y-9120952D02*
X11313809Y-9130476D01*
X11266190Y-9130476D01*
X11247143Y-9120952D01*
X11237619Y-9101905D01*
X11237619Y-9082857D01*
X11247143Y-9063810D01*
X11266190Y-9054286D01*
X11313809Y-9054286D01*
X11332857Y-9044762D01*
X11428095Y-8997143D02*
X11428095Y-9197143D01*
X11428095Y-9006667D02*
X11447143Y-8997143D01*
X11485238Y-8997143D01*
X11504286Y-9006667D01*
X11513809Y-9016190D01*
X11523333Y-9035238D01*
X11523333Y-9092381D01*
X11513809Y-9111429D01*
X11504286Y-9120952D01*
X11485238Y-9130476D01*
X11447143Y-9130476D01*
X11428095Y-9120952D01*
X11609048Y-9111429D02*
X11618571Y-9120952D01*
X11609048Y-9130476D01*
X11599524Y-9120952D01*
X11609048Y-9111429D01*
X11609048Y-9130476D01*
X11609048Y-9006667D02*
X11618571Y-9016190D01*
X11609048Y-9025714D01*
X11599524Y-9016190D01*
X11609048Y-9006667D01*
X11609048Y-9025714D01*
D12*
X9940000Y-9440000D02*
X9980000Y-9480000D01*
X9980000Y-9440000D02*
X9940000Y-9480000D01*
D11*
X10275714Y-9350476D02*
X10294762Y-9350476D01*
X10313810Y-9360000D01*
X10323333Y-9369524D01*
X10332857Y-9388571D01*
X10342381Y-9426667D01*
X10342381Y-9474286D01*
X10332857Y-9512381D01*
X10323333Y-9531429D01*
X10313810Y-9540952D01*
X10294762Y-9550476D01*
X10275714Y-9550476D01*
X10256667Y-9540952D01*
X10247143Y-9531429D01*
X10237619Y-9512381D01*
X10228095Y-9474286D01*
X10228095Y-9426667D01*
X10237619Y-9388571D01*
X10247143Y-9369524D01*
X10256667Y-9360000D01*
X10275714Y-9350476D01*
X10428095Y-9531429D02*
X10437619Y-9540952D01*
X10428095Y-9550476D01*
X10418571Y-9540952D01*
X10428095Y-9531429D01*
X10428095Y-9550476D01*
X10609048Y-9417143D02*
X10609048Y-9550476D01*
X10561429Y-9340952D02*
X10513810Y-9483810D01*
X10637619Y-9483810D01*
X10751905Y-9350476D02*
X10770952Y-9350476D01*
X10790000Y-9360000D01*
X10799524Y-9369524D01*
X10809048Y-9388571D01*
X10818571Y-9426667D01*
X10818571Y-9474286D01*
X10809048Y-9512381D01*
X10799524Y-9531429D01*
X10790000Y-9540952D01*
X10770952Y-9550476D01*
X10751905Y-9550476D01*
X10732857Y-9540952D01*
X10723333Y-9531429D01*
X10713810Y-9512381D01*
X10704286Y-9474286D01*
X10704286Y-9426667D01*
X10713810Y-9388571D01*
X10723333Y-9369524D01*
X10732857Y-9360000D01*
X10751905Y-9350476D01*
X10942381Y-9350476D02*
X10961429Y-9350476D01*
X10980476Y-9360000D01*
X10990000Y-9369524D01*
X10999524Y-9388571D01*
X11009048Y-9426667D01*
X11009048Y-9474286D01*
X10999524Y-9512381D01*
X10990000Y-9531429D01*
X10980476Y-9540952D01*
X10961429Y-9550476D01*
X10942381Y-9550476D01*
X10923333Y-9540952D01*
X10913810Y-9531429D01*
X10904286Y-9512381D01*
X10894762Y-9474286D01*
X10894762Y-9426667D01*
X10904286Y-9388571D01*
X10913810Y-9369524D01*
X10923333Y-9360000D01*
X10942381Y-9350476D01*
X11094762Y-9550476D02*
X11094762Y-9417143D01*
X11094762Y-9436190D02*
X11104286Y-9426667D01*
X11123333Y-9417143D01*
X11151905Y-9417143D01*
X11170952Y-9426667D01*
X11180476Y-9445714D01*
X11180476Y-9550476D01*
X11180476Y-9445714D02*
X11190000Y-9426667D01*
X11209048Y-9417143D01*
X11237619Y-9417143D01*
X11256667Y-9426667D01*
X11266190Y-9445714D01*
X11266190Y-9550476D01*
X11361428Y-9550476D02*
X11361428Y-9417143D01*
X11361428Y-9436190D02*
X11370952Y-9426667D01*
X11390000Y-9417143D01*
X11418571Y-9417143D01*
X11437619Y-9426667D01*
X11447143Y-9445714D01*
X11447143Y-9550476D01*
X11447143Y-9445714D02*
X11456667Y-9426667D01*
X11475714Y-9417143D01*
X11504286Y-9417143D01*
X11523333Y-9426667D01*
X11532857Y-9445714D01*
X11532857Y-9550476D01*
X11923333Y-9340952D02*
X11751905Y-9598095D01*
X12180476Y-9350476D02*
X12199524Y-9350476D01*
X12218571Y-9360000D01*
X12228095Y-9369524D01*
X12237619Y-9388571D01*
X12247143Y-9426667D01*
X12247143Y-9474286D01*
X12237619Y-9512381D01*
X12228095Y-9531429D01*
X12218571Y-9540952D01*
X12199524Y-9550476D01*
X12180476Y-9550476D01*
X12161428Y-9540952D01*
X12151905Y-9531429D01*
X12142381Y-9512381D01*
X12132857Y-9474286D01*
X12132857Y-9426667D01*
X12142381Y-9388571D01*
X12151905Y-9369524D01*
X12161428Y-9360000D01*
X12180476Y-9350476D01*
X12332857Y-9531429D02*
X12342381Y-9540952D01*
X12332857Y-9550476D01*
X12323333Y-9540952D01*
X12332857Y-9531429D01*
X12332857Y-9550476D01*
X12466190Y-9350476D02*
X12485238Y-9350476D01*
X12504286Y-9360000D01*
X12513809Y-9369524D01*
X12523333Y-9388571D01*
X12532857Y-9426667D01*
X12532857Y-9474286D01*
X12523333Y-9512381D01*
X12513809Y-9531429D01*
X12504286Y-9540952D01*
X12485238Y-9550476D01*
X12466190Y-9550476D01*
X12447143Y-9540952D01*
X12437619Y-9531429D01*
X12428095Y-9512381D01*
X12418571Y-9474286D01*
X12418571Y-9426667D01*
X12428095Y-9388571D01*
X12437619Y-9369524D01*
X12447143Y-9360000D01*
X12466190Y-9350476D01*
X12723333Y-9550476D02*
X12609048Y-9550476D01*
X12666190Y-9550476D02*
X12666190Y-9350476D01*
X12647143Y-9379048D01*
X12628095Y-9398095D01*
X12609048Y-9407619D01*
X12904286Y-9350476D02*
X12809048Y-9350476D01*
X12799524Y-9445714D01*
X12809048Y-9436190D01*
X12828095Y-9426667D01*
X12875714Y-9426667D01*
X12894762Y-9436190D01*
X12904286Y-9445714D01*
X12913809Y-9464762D01*
X12913809Y-9512381D01*
X12904286Y-9531429D01*
X12894762Y-9540952D01*
X12875714Y-9550476D01*
X12828095Y-9550476D01*
X12809048Y-9540952D01*
X12799524Y-9531429D01*
X12980476Y-9350476D02*
X13113809Y-9350476D01*
X13028095Y-9550476D01*
X13180476Y-9350476D02*
X13180476Y-9388571D01*
X13256667Y-9350476D02*
X13256667Y-9388571D01*
X13551905Y-9626667D02*
X13542381Y-9617143D01*
X13523333Y-9588571D01*
X13513809Y-9569524D01*
X13504286Y-9540952D01*
X13494762Y-9493333D01*
X13494762Y-9455238D01*
X13504286Y-9407619D01*
X13513809Y-9379048D01*
X13523333Y-9360000D01*
X13542381Y-9331429D01*
X13551905Y-9321905D01*
X13732857Y-9550476D02*
X13618571Y-9550476D01*
X13675714Y-9550476D02*
X13675714Y-9350476D01*
X13656667Y-9379048D01*
X13637619Y-9398095D01*
X13618571Y-9407619D01*
X13904286Y-9417143D02*
X13904286Y-9550476D01*
X13856667Y-9340952D02*
X13809048Y-9483810D01*
X13932857Y-9483810D01*
X14161428Y-9550476D02*
X14161428Y-9350476D01*
X14247143Y-9550476D02*
X14247143Y-9445714D01*
X14237619Y-9426667D01*
X14218571Y-9417143D01*
X14190000Y-9417143D01*
X14170952Y-9426667D01*
X14161428Y-9436190D01*
X14370952Y-9550476D02*
X14351905Y-9540952D01*
X14342381Y-9531429D01*
X14332857Y-9512381D01*
X14332857Y-9455238D01*
X14342381Y-9436190D01*
X14351905Y-9426667D01*
X14370952Y-9417143D01*
X14399524Y-9417143D01*
X14418571Y-9426667D01*
X14428095Y-9436190D01*
X14437619Y-9455238D01*
X14437619Y-9512381D01*
X14428095Y-9531429D01*
X14418571Y-9540952D01*
X14399524Y-9550476D01*
X14370952Y-9550476D01*
X14551905Y-9550476D02*
X14532857Y-9540952D01*
X14523333Y-9521905D01*
X14523333Y-9350476D01*
X14704286Y-9540952D02*
X14685238Y-9550476D01*
X14647143Y-9550476D01*
X14628095Y-9540952D01*
X14618571Y-9521905D01*
X14618571Y-9445714D01*
X14628095Y-9426667D01*
X14647143Y-9417143D01*
X14685238Y-9417143D01*
X14704286Y-9426667D01*
X14713809Y-9445714D01*
X14713809Y-9464762D01*
X14618571Y-9483810D01*
X14790000Y-9540952D02*
X14809048Y-9550476D01*
X14847143Y-9550476D01*
X14866190Y-9540952D01*
X14875714Y-9521905D01*
X14875714Y-9512381D01*
X14866190Y-9493333D01*
X14847143Y-9483810D01*
X14818571Y-9483810D01*
X14799524Y-9474286D01*
X14790000Y-9455238D01*
X14790000Y-9445714D01*
X14799524Y-9426667D01*
X14818571Y-9417143D01*
X14847143Y-9417143D01*
X14866190Y-9426667D01*
X14942381Y-9626667D02*
X14951905Y-9617143D01*
X14970952Y-9588571D01*
X14980476Y-9569524D01*
X14990000Y-9540952D01*
X14999524Y-9493333D01*
X14999524Y-9455238D01*
X14990000Y-9407619D01*
X14980476Y-9379048D01*
X14970952Y-9360000D01*
X14951905Y-9331429D01*
X14942381Y-9321905D01*
D13*
X9980000Y-9724000D02*
G75*
G03*
X9980000Y-9724000I-37500J0D01*
G01*
D11*
X10275714Y-9614476D02*
X10294762Y-9614476D01*
X10313810Y-9624000D01*
X10323333Y-9633524D01*
X10332857Y-9652571D01*
X10342381Y-9690667D01*
X10342381Y-9738286D01*
X10332857Y-9776381D01*
X10323333Y-9795429D01*
X10313810Y-9804952D01*
X10294762Y-9814476D01*
X10275714Y-9814476D01*
X10256667Y-9804952D01*
X10247143Y-9795429D01*
X10237619Y-9776381D01*
X10228095Y-9738286D01*
X10228095Y-9690667D01*
X10237619Y-9652571D01*
X10247143Y-9633524D01*
X10256667Y-9624000D01*
X10275714Y-9614476D01*
X10428095Y-9795429D02*
X10437619Y-9804952D01*
X10428095Y-9814476D01*
X10418571Y-9804952D01*
X10428095Y-9795429D01*
X10428095Y-9814476D01*
X10504286Y-9614476D02*
X10637619Y-9614476D01*
X10551905Y-9814476D01*
X10809048Y-9614476D02*
X10713810Y-9614476D01*
X10704286Y-9709714D01*
X10713810Y-9700190D01*
X10732857Y-9690667D01*
X10780476Y-9690667D01*
X10799524Y-9700190D01*
X10809048Y-9709714D01*
X10818571Y-9728762D01*
X10818571Y-9776381D01*
X10809048Y-9795429D01*
X10799524Y-9804952D01*
X10780476Y-9814476D01*
X10732857Y-9814476D01*
X10713810Y-9804952D01*
X10704286Y-9795429D01*
X10942381Y-9614476D02*
X10961429Y-9614476D01*
X10980476Y-9624000D01*
X10990000Y-9633524D01*
X10999524Y-9652571D01*
X11009048Y-9690667D01*
X11009048Y-9738286D01*
X10999524Y-9776381D01*
X10990000Y-9795429D01*
X10980476Y-9804952D01*
X10961429Y-9814476D01*
X10942381Y-9814476D01*
X10923333Y-9804952D01*
X10913810Y-9795429D01*
X10904286Y-9776381D01*
X10894762Y-9738286D01*
X10894762Y-9690667D01*
X10904286Y-9652571D01*
X10913810Y-9633524D01*
X10923333Y-9624000D01*
X10942381Y-9614476D01*
X11094762Y-9814476D02*
X11094762Y-9681143D01*
X11094762Y-9700190D02*
X11104286Y-9690667D01*
X11123333Y-9681143D01*
X11151905Y-9681143D01*
X11170952Y-9690667D01*
X11180476Y-9709714D01*
X11180476Y-9814476D01*
X11180476Y-9709714D02*
X11190000Y-9690667D01*
X11209048Y-9681143D01*
X11237619Y-9681143D01*
X11256667Y-9690667D01*
X11266190Y-9709714D01*
X11266190Y-9814476D01*
X11361428Y-9814476D02*
X11361428Y-9681143D01*
X11361428Y-9700190D02*
X11370952Y-9690667D01*
X11390000Y-9681143D01*
X11418571Y-9681143D01*
X11437619Y-9690667D01*
X11447143Y-9709714D01*
X11447143Y-9814476D01*
X11447143Y-9709714D02*
X11456667Y-9690667D01*
X11475714Y-9681143D01*
X11504286Y-9681143D01*
X11523333Y-9690667D01*
X11532857Y-9709714D01*
X11532857Y-9814476D01*
X11923333Y-9604952D02*
X11751905Y-9862095D01*
X12180476Y-9614476D02*
X12199524Y-9614476D01*
X12218571Y-9624000D01*
X12228095Y-9633524D01*
X12237619Y-9652571D01*
X12247143Y-9690667D01*
X12247143Y-9738286D01*
X12237619Y-9776381D01*
X12228095Y-9795429D01*
X12218571Y-9804952D01*
X12199524Y-9814476D01*
X12180476Y-9814476D01*
X12161428Y-9804952D01*
X12151905Y-9795429D01*
X12142381Y-9776381D01*
X12132857Y-9738286D01*
X12132857Y-9690667D01*
X12142381Y-9652571D01*
X12151905Y-9633524D01*
X12161428Y-9624000D01*
X12180476Y-9614476D01*
X12332857Y-9795429D02*
X12342381Y-9804952D01*
X12332857Y-9814476D01*
X12323333Y-9804952D01*
X12332857Y-9795429D01*
X12332857Y-9814476D01*
X12466190Y-9614476D02*
X12485238Y-9614476D01*
X12504286Y-9624000D01*
X12513809Y-9633524D01*
X12523333Y-9652571D01*
X12532857Y-9690667D01*
X12532857Y-9738286D01*
X12523333Y-9776381D01*
X12513809Y-9795429D01*
X12504286Y-9804952D01*
X12485238Y-9814476D01*
X12466190Y-9814476D01*
X12447143Y-9804952D01*
X12437619Y-9795429D01*
X12428095Y-9776381D01*
X12418571Y-9738286D01*
X12418571Y-9690667D01*
X12428095Y-9652571D01*
X12437619Y-9633524D01*
X12447143Y-9624000D01*
X12466190Y-9614476D01*
X12609048Y-9633524D02*
X12618571Y-9624000D01*
X12637619Y-9614476D01*
X12685238Y-9614476D01*
X12704286Y-9624000D01*
X12713809Y-9633524D01*
X12723333Y-9652571D01*
X12723333Y-9671619D01*
X12713809Y-9700190D01*
X12599524Y-9814476D01*
X12723333Y-9814476D01*
X12818571Y-9814476D02*
X12856667Y-9814476D01*
X12875714Y-9804952D01*
X12885238Y-9795429D01*
X12904286Y-9766857D01*
X12913809Y-9728762D01*
X12913809Y-9652571D01*
X12904286Y-9633524D01*
X12894762Y-9624000D01*
X12875714Y-9614476D01*
X12837619Y-9614476D01*
X12818571Y-9624000D01*
X12809048Y-9633524D01*
X12799524Y-9652571D01*
X12799524Y-9700190D01*
X12809048Y-9719238D01*
X12818571Y-9728762D01*
X12837619Y-9738286D01*
X12875714Y-9738286D01*
X12894762Y-9728762D01*
X12904286Y-9719238D01*
X12913809Y-9700190D01*
X13094762Y-9614476D02*
X12999524Y-9614476D01*
X12990000Y-9709714D01*
X12999524Y-9700190D01*
X13018571Y-9690667D01*
X13066190Y-9690667D01*
X13085238Y-9700190D01*
X13094762Y-9709714D01*
X13104286Y-9728762D01*
X13104286Y-9776381D01*
X13094762Y-9795429D01*
X13085238Y-9804952D01*
X13066190Y-9814476D01*
X13018571Y-9814476D01*
X12999524Y-9804952D01*
X12990000Y-9795429D01*
X13180476Y-9614476D02*
X13180476Y-9652571D01*
X13256667Y-9614476D02*
X13256667Y-9652571D01*
X13551905Y-9890667D02*
X13542381Y-9881143D01*
X13523333Y-9852571D01*
X13513809Y-9833524D01*
X13504286Y-9804952D01*
X13494762Y-9757333D01*
X13494762Y-9719238D01*
X13504286Y-9671619D01*
X13513809Y-9643048D01*
X13523333Y-9624000D01*
X13542381Y-9595429D01*
X13551905Y-9585905D01*
X13609048Y-9614476D02*
X13732857Y-9614476D01*
X13666190Y-9690667D01*
X13694762Y-9690667D01*
X13713809Y-9700190D01*
X13723333Y-9709714D01*
X13732857Y-9728762D01*
X13732857Y-9776381D01*
X13723333Y-9795429D01*
X13713809Y-9804952D01*
X13694762Y-9814476D01*
X13637619Y-9814476D01*
X13618571Y-9804952D01*
X13609048Y-9795429D01*
X13970952Y-9814476D02*
X13970952Y-9614476D01*
X14056667Y-9814476D02*
X14056667Y-9709714D01*
X14047143Y-9690667D01*
X14028095Y-9681143D01*
X13999524Y-9681143D01*
X13980476Y-9690667D01*
X13970952Y-9700190D01*
X14180476Y-9814476D02*
X14161428Y-9804952D01*
X14151905Y-9795429D01*
X14142381Y-9776381D01*
X14142381Y-9719238D01*
X14151905Y-9700190D01*
X14161428Y-9690667D01*
X14180476Y-9681143D01*
X14209048Y-9681143D01*
X14228095Y-9690667D01*
X14237619Y-9700190D01*
X14247143Y-9719238D01*
X14247143Y-9776381D01*
X14237619Y-9795429D01*
X14228095Y-9804952D01*
X14209048Y-9814476D01*
X14180476Y-9814476D01*
X14361428Y-9814476D02*
X14342381Y-9804952D01*
X14332857Y-9785905D01*
X14332857Y-9614476D01*
X14513809Y-9804952D02*
X14494762Y-9814476D01*
X14456667Y-9814476D01*
X14437619Y-9804952D01*
X14428095Y-9785905D01*
X14428095Y-9709714D01*
X14437619Y-9690667D01*
X14456667Y-9681143D01*
X14494762Y-9681143D01*
X14513809Y-9690667D01*
X14523333Y-9709714D01*
X14523333Y-9728762D01*
X14428095Y-9747810D01*
X14599524Y-9804952D02*
X14618571Y-9814476D01*
X14656667Y-9814476D01*
X14675714Y-9804952D01*
X14685238Y-9785905D01*
X14685238Y-9776381D01*
X14675714Y-9757333D01*
X14656667Y-9747810D01*
X14628095Y-9747810D01*
X14609048Y-9738286D01*
X14599524Y-9719238D01*
X14599524Y-9709714D01*
X14609048Y-9690667D01*
X14628095Y-9681143D01*
X14656667Y-9681143D01*
X14675714Y-9690667D01*
X14751905Y-9890667D02*
X14761428Y-9881143D01*
X14780476Y-9852571D01*
X14790000Y-9833524D01*
X14799524Y-9804952D01*
X14809048Y-9757333D01*
X14809048Y-9719238D01*
X14799524Y-9671619D01*
X14790000Y-9643048D01*
X14780476Y-9624000D01*
X14761428Y-9595429D01*
X14751905Y-9585905D01*
D14*
X9935000Y-9943000D02*
X9935000Y-10033000D01*
X9890000Y-9988000D02*
X9980000Y-9988000D01*
D11*
X10275714Y-9878476D02*
X10294762Y-9878476D01*
X10313810Y-9888000D01*
X10323333Y-9897524D01*
X10332857Y-9916571D01*
X10342381Y-9954667D01*
X10342381Y-10002286D01*
X10332857Y-10040381D01*
X10323333Y-10059429D01*
X10313810Y-10068952D01*
X10294762Y-10078476D01*
X10275714Y-10078476D01*
X10256667Y-10068952D01*
X10247143Y-10059429D01*
X10237619Y-10040381D01*
X10228095Y-10002286D01*
X10228095Y-9954667D01*
X10237619Y-9916571D01*
X10247143Y-9897524D01*
X10256667Y-9888000D01*
X10275714Y-9878476D01*
X10428095Y-10059429D02*
X10437619Y-10068952D01*
X10428095Y-10078476D01*
X10418571Y-10068952D01*
X10428095Y-10059429D01*
X10428095Y-10078476D01*
X10532857Y-10078476D02*
X10570952Y-10078476D01*
X10590000Y-10068952D01*
X10599524Y-10059429D01*
X10618571Y-10030857D01*
X10628095Y-9992762D01*
X10628095Y-9916571D01*
X10618571Y-9897524D01*
X10609048Y-9888000D01*
X10590000Y-9878476D01*
X10551905Y-9878476D01*
X10532857Y-9888000D01*
X10523333Y-9897524D01*
X10513810Y-9916571D01*
X10513810Y-9964190D01*
X10523333Y-9983238D01*
X10532857Y-9992762D01*
X10551905Y-10002286D01*
X10590000Y-10002286D01*
X10609048Y-9992762D01*
X10618571Y-9983238D01*
X10628095Y-9964190D01*
X10751905Y-9878476D02*
X10770952Y-9878476D01*
X10790000Y-9888000D01*
X10799524Y-9897524D01*
X10809048Y-9916571D01*
X10818571Y-9954667D01*
X10818571Y-10002286D01*
X10809048Y-10040381D01*
X10799524Y-10059429D01*
X10790000Y-10068952D01*
X10770952Y-10078476D01*
X10751905Y-10078476D01*
X10732857Y-10068952D01*
X10723333Y-10059429D01*
X10713810Y-10040381D01*
X10704286Y-10002286D01*
X10704286Y-9954667D01*
X10713810Y-9916571D01*
X10723333Y-9897524D01*
X10732857Y-9888000D01*
X10751905Y-9878476D01*
X10942381Y-9878476D02*
X10961429Y-9878476D01*
X10980476Y-9888000D01*
X10990000Y-9897524D01*
X10999524Y-9916571D01*
X11009048Y-9954667D01*
X11009048Y-10002286D01*
X10999524Y-10040381D01*
X10990000Y-10059429D01*
X10980476Y-10068952D01*
X10961429Y-10078476D01*
X10942381Y-10078476D01*
X10923333Y-10068952D01*
X10913810Y-10059429D01*
X10904286Y-10040381D01*
X10894762Y-10002286D01*
X10894762Y-9954667D01*
X10904286Y-9916571D01*
X10913810Y-9897524D01*
X10923333Y-9888000D01*
X10942381Y-9878476D01*
X11094762Y-10078476D02*
X11094762Y-9945143D01*
X11094762Y-9964190D02*
X11104286Y-9954667D01*
X11123333Y-9945143D01*
X11151905Y-9945143D01*
X11170952Y-9954667D01*
X11180476Y-9973714D01*
X11180476Y-10078476D01*
X11180476Y-9973714D02*
X11190000Y-9954667D01*
X11209048Y-9945143D01*
X11237619Y-9945143D01*
X11256667Y-9954667D01*
X11266190Y-9973714D01*
X11266190Y-10078476D01*
X11361428Y-10078476D02*
X11361428Y-9945143D01*
X11361428Y-9964190D02*
X11370952Y-9954667D01*
X11390000Y-9945143D01*
X11418571Y-9945143D01*
X11437619Y-9954667D01*
X11447143Y-9973714D01*
X11447143Y-10078476D01*
X11447143Y-9973714D02*
X11456667Y-9954667D01*
X11475714Y-9945143D01*
X11504286Y-9945143D01*
X11523333Y-9954667D01*
X11532857Y-9973714D01*
X11532857Y-10078476D01*
X11923333Y-9868952D02*
X11751905Y-10126095D01*
X12180476Y-9878476D02*
X12199524Y-9878476D01*
X12218571Y-9888000D01*
X12228095Y-9897524D01*
X12237619Y-9916571D01*
X12247143Y-9954667D01*
X12247143Y-10002286D01*
X12237619Y-10040381D01*
X12228095Y-10059429D01*
X12218571Y-10068952D01*
X12199524Y-10078476D01*
X12180476Y-10078476D01*
X12161428Y-10068952D01*
X12151905Y-10059429D01*
X12142381Y-10040381D01*
X12132857Y-10002286D01*
X12132857Y-9954667D01*
X12142381Y-9916571D01*
X12151905Y-9897524D01*
X12161428Y-9888000D01*
X12180476Y-9878476D01*
X12332857Y-10059429D02*
X12342381Y-10068952D01*
X12332857Y-10078476D01*
X12323333Y-10068952D01*
X12332857Y-10059429D01*
X12332857Y-10078476D01*
X12466190Y-9878476D02*
X12485238Y-9878476D01*
X12504286Y-9888000D01*
X12513809Y-9897524D01*
X12523333Y-9916571D01*
X12532857Y-9954667D01*
X12532857Y-10002286D01*
X12523333Y-10040381D01*
X12513809Y-10059429D01*
X12504286Y-10068952D01*
X12485238Y-10078476D01*
X12466190Y-10078476D01*
X12447143Y-10068952D01*
X12437619Y-10059429D01*
X12428095Y-10040381D01*
X12418571Y-10002286D01*
X12418571Y-9954667D01*
X12428095Y-9916571D01*
X12437619Y-9897524D01*
X12447143Y-9888000D01*
X12466190Y-9878476D01*
X12599524Y-9878476D02*
X12723333Y-9878476D01*
X12656667Y-9954667D01*
X12685238Y-9954667D01*
X12704286Y-9964190D01*
X12713809Y-9973714D01*
X12723333Y-9992762D01*
X12723333Y-10040381D01*
X12713809Y-10059429D01*
X12704286Y-10068952D01*
X12685238Y-10078476D01*
X12628095Y-10078476D01*
X12609048Y-10068952D01*
X12599524Y-10059429D01*
X12904286Y-9878476D02*
X12809048Y-9878476D01*
X12799524Y-9973714D01*
X12809048Y-9964190D01*
X12828095Y-9954667D01*
X12875714Y-9954667D01*
X12894762Y-9964190D01*
X12904286Y-9973714D01*
X12913809Y-9992762D01*
X12913809Y-10040381D01*
X12904286Y-10059429D01*
X12894762Y-10068952D01*
X12875714Y-10078476D01*
X12828095Y-10078476D01*
X12809048Y-10068952D01*
X12799524Y-10059429D01*
X13085238Y-9945143D02*
X13085238Y-10078476D01*
X13037619Y-9868952D02*
X12990000Y-10011810D01*
X13113809Y-10011810D01*
X13180476Y-9878476D02*
X13180476Y-9916571D01*
X13256667Y-9878476D02*
X13256667Y-9916571D01*
X13551905Y-10154667D02*
X13542381Y-10145143D01*
X13523333Y-10116571D01*
X13513809Y-10097524D01*
X13504286Y-10068952D01*
X13494762Y-10021333D01*
X13494762Y-9983238D01*
X13504286Y-9935619D01*
X13513809Y-9907048D01*
X13523333Y-9888000D01*
X13542381Y-9859429D01*
X13551905Y-9849905D01*
X13666190Y-9878476D02*
X13685238Y-9878476D01*
X13704286Y-9888000D01*
X13713809Y-9897524D01*
X13723333Y-9916571D01*
X13732857Y-9954667D01*
X13732857Y-10002286D01*
X13723333Y-10040381D01*
X13713809Y-10059429D01*
X13704286Y-10068952D01*
X13685238Y-10078476D01*
X13666190Y-10078476D01*
X13647143Y-10068952D01*
X13637619Y-10059429D01*
X13628095Y-10040381D01*
X13618571Y-10002286D01*
X13618571Y-9954667D01*
X13628095Y-9916571D01*
X13637619Y-9897524D01*
X13647143Y-9888000D01*
X13666190Y-9878476D01*
X13970952Y-10078476D02*
X13970952Y-9878476D01*
X14056667Y-10078476D02*
X14056667Y-9973714D01*
X14047143Y-9954667D01*
X14028095Y-9945143D01*
X13999524Y-9945143D01*
X13980476Y-9954667D01*
X13970952Y-9964190D01*
X14180476Y-10078476D02*
X14161428Y-10068952D01*
X14151905Y-10059429D01*
X14142381Y-10040381D01*
X14142381Y-9983238D01*
X14151905Y-9964190D01*
X14161428Y-9954667D01*
X14180476Y-9945143D01*
X14209048Y-9945143D01*
X14228095Y-9954667D01*
X14237619Y-9964190D01*
X14247143Y-9983238D01*
X14247143Y-10040381D01*
X14237619Y-10059429D01*
X14228095Y-10068952D01*
X14209048Y-10078476D01*
X14180476Y-10078476D01*
X14361428Y-10078476D02*
X14342381Y-10068952D01*
X14332857Y-10049905D01*
X14332857Y-9878476D01*
X14513809Y-10068952D02*
X14494762Y-10078476D01*
X14456667Y-10078476D01*
X14437619Y-10068952D01*
X14428095Y-10049905D01*
X14428095Y-9973714D01*
X14437619Y-9954667D01*
X14456667Y-9945143D01*
X14494762Y-9945143D01*
X14513809Y-9954667D01*
X14523333Y-9973714D01*
X14523333Y-9992762D01*
X14428095Y-10011810D01*
X14599524Y-10068952D02*
X14618571Y-10078476D01*
X14656667Y-10078476D01*
X14675714Y-10068952D01*
X14685238Y-10049905D01*
X14685238Y-10040381D01*
X14675714Y-10021333D01*
X14656667Y-10011810D01*
X14628095Y-10011810D01*
X14609048Y-10002286D01*
X14599524Y-9983238D01*
X14599524Y-9973714D01*
X14609048Y-9954667D01*
X14628095Y-9945143D01*
X14656667Y-9945143D01*
X14675714Y-9954667D01*
X14923333Y-10002286D02*
X15075714Y-10002286D01*
X14999524Y-10078476D02*
X14999524Y-9926095D01*
X15313809Y-9897524D02*
X15323333Y-9888000D01*
X15342381Y-9878476D01*
X15390000Y-9878476D01*
X15409048Y-9888000D01*
X15418571Y-9897524D01*
X15428095Y-9916571D01*
X15428095Y-9935619D01*
X15418571Y-9964190D01*
X15304286Y-10078476D01*
X15428095Y-10078476D01*
X15656667Y-10068952D02*
X15675714Y-10078476D01*
X15713809Y-10078476D01*
X15732857Y-10068952D01*
X15742381Y-10049905D01*
X15742381Y-10040381D01*
X15732857Y-10021333D01*
X15713809Y-10011810D01*
X15685238Y-10011810D01*
X15666190Y-10002286D01*
X15656667Y-9983238D01*
X15656667Y-9973714D01*
X15666190Y-9954667D01*
X15685238Y-9945143D01*
X15713809Y-9945143D01*
X15732857Y-9954667D01*
X15856667Y-10078476D02*
X15837619Y-10068952D01*
X15828095Y-10049905D01*
X15828095Y-9878476D01*
X15961428Y-10078476D02*
X15942381Y-10068952D01*
X15932857Y-10059429D01*
X15923333Y-10040381D01*
X15923333Y-9983238D01*
X15932857Y-9964190D01*
X15942381Y-9954667D01*
X15961428Y-9945143D01*
X15990000Y-9945143D01*
X16009048Y-9954667D01*
X16018571Y-9964190D01*
X16028095Y-9983238D01*
X16028095Y-10040381D01*
X16018571Y-10059429D01*
X16009048Y-10068952D01*
X15990000Y-10078476D01*
X15961428Y-10078476D01*
X16085238Y-9945143D02*
X16161428Y-9945143D01*
X16113809Y-9878476D02*
X16113809Y-10049905D01*
X16123333Y-10068952D01*
X16142381Y-10078476D01*
X16161428Y-10078476D01*
X16218571Y-10068952D02*
X16237619Y-10078476D01*
X16275714Y-10078476D01*
X16294762Y-10068952D01*
X16304286Y-10049905D01*
X16304286Y-10040381D01*
X16294762Y-10021333D01*
X16275714Y-10011810D01*
X16247143Y-10011810D01*
X16228095Y-10002286D01*
X16218571Y-9983238D01*
X16218571Y-9973714D01*
X16228095Y-9954667D01*
X16247143Y-9945143D01*
X16275714Y-9945143D01*
X16294762Y-9954667D01*
X16370952Y-10154667D02*
X16380476Y-10145143D01*
X16399524Y-10116571D01*
X16409048Y-10097524D01*
X16418571Y-10068952D01*
X16428095Y-10021333D01*
X16428095Y-9983238D01*
X16418571Y-9935619D01*
X16409048Y-9907048D01*
X16399524Y-9888000D01*
X16380476Y-9859429D01*
X16370952Y-9849905D01*
M02*
