G04 #@! TF.GenerationSoftware,KiCad,Pcbnew,5.1.5+dfsg1-2build2*
G04 #@! TF.CreationDate,2021-03-10T23:59:30+01:00*
G04 #@! TF.ProjectId,iotOnOff,696f744f-6e4f-4666-962e-6b696361645f,rev?*
G04 #@! TF.SameCoordinates,Original*
G04 #@! TF.FileFunction,Legend,Top*
G04 #@! TF.FilePolarity,Positive*
%FSLAX46Y46*%
G04 Gerber Fmt 4.6, Leading zero omitted, Abs format (unit mm)*
G04 Created by KiCad (PCBNEW 5.1.5+dfsg1-2build2) date 2021-03-10 23:59:30*
%MOMM*%
%LPD*%
G04 APERTURE LIST*
%ADD10C,0.150000*%
%ADD11C,0.120000*%
G04 APERTURE END LIST*
D10*
X106602380Y-107205952D02*
X105935714Y-107205952D01*
X105602380Y-107205952D02*
X105650000Y-107253571D01*
X105697619Y-107205952D01*
X105650000Y-107158333D01*
X105602380Y-107205952D01*
X105697619Y-107205952D01*
X106602380Y-106586904D02*
X106554761Y-106682142D01*
X106507142Y-106729761D01*
X106411904Y-106777380D01*
X106126190Y-106777380D01*
X106030952Y-106729761D01*
X105983333Y-106682142D01*
X105935714Y-106586904D01*
X105935714Y-106444047D01*
X105983333Y-106348809D01*
X106030952Y-106301190D01*
X106126190Y-106253571D01*
X106411904Y-106253571D01*
X106507142Y-106301190D01*
X106554761Y-106348809D01*
X106602380Y-106444047D01*
X106602380Y-106586904D01*
X105935714Y-105967857D02*
X105935714Y-105586904D01*
X105602380Y-105825000D02*
X106459523Y-105825000D01*
X106554761Y-105777380D01*
X106602380Y-105682142D01*
X106602380Y-105586904D01*
X105602380Y-105063095D02*
X105602380Y-104872619D01*
X105650000Y-104777380D01*
X105745238Y-104682142D01*
X105935714Y-104634523D01*
X106269047Y-104634523D01*
X106459523Y-104682142D01*
X106554761Y-104777380D01*
X106602380Y-104872619D01*
X106602380Y-105063095D01*
X106554761Y-105158333D01*
X106459523Y-105253571D01*
X106269047Y-105301190D01*
X105935714Y-105301190D01*
X105745238Y-105253571D01*
X105650000Y-105158333D01*
X105602380Y-105063095D01*
X105935714Y-104205952D02*
X106602380Y-104205952D01*
X106030952Y-104205952D02*
X105983333Y-104158333D01*
X105935714Y-104063095D01*
X105935714Y-103920238D01*
X105983333Y-103825000D01*
X106078571Y-103777380D01*
X106602380Y-103777380D01*
X105602380Y-103110714D02*
X105602380Y-102920238D01*
X105650000Y-102825000D01*
X105745238Y-102729761D01*
X105935714Y-102682142D01*
X106269047Y-102682142D01*
X106459523Y-102729761D01*
X106554761Y-102825000D01*
X106602380Y-102920238D01*
X106602380Y-103110714D01*
X106554761Y-103205952D01*
X106459523Y-103301190D01*
X106269047Y-103348809D01*
X105935714Y-103348809D01*
X105745238Y-103301190D01*
X105650000Y-103205952D01*
X105602380Y-103110714D01*
X105935714Y-102396428D02*
X105935714Y-102015476D01*
X106602380Y-102253571D02*
X105745238Y-102253571D01*
X105650000Y-102205952D01*
X105602380Y-102110714D01*
X105602380Y-102015476D01*
X105935714Y-101825000D02*
X105935714Y-101444047D01*
X106602380Y-101682142D02*
X105745238Y-101682142D01*
X105650000Y-101634523D01*
X105602380Y-101539285D01*
X105602380Y-101444047D01*
X106602380Y-99825000D02*
X106602380Y-100396428D01*
X106602380Y-100110714D02*
X105602380Y-100110714D01*
X105745238Y-100205952D01*
X105840476Y-100301190D01*
X105888095Y-100396428D01*
X106507142Y-99396428D02*
X106554761Y-99348809D01*
X106602380Y-99396428D01*
X106554761Y-99444047D01*
X106507142Y-99396428D01*
X106602380Y-99396428D01*
X105602380Y-98729761D02*
X105602380Y-98634523D01*
X105650000Y-98539285D01*
X105697619Y-98491666D01*
X105792857Y-98444047D01*
X105983333Y-98396428D01*
X106221428Y-98396428D01*
X106411904Y-98444047D01*
X106507142Y-98491666D01*
X106554761Y-98539285D01*
X106602380Y-98634523D01*
X106602380Y-98729761D01*
X106554761Y-98825000D01*
X106507142Y-98872619D01*
X106411904Y-98920238D01*
X106221428Y-98967857D01*
X105983333Y-98967857D01*
X105792857Y-98920238D01*
X105697619Y-98872619D01*
X105650000Y-98825000D01*
X105602380Y-98729761D01*
D11*
X105129756Y-91516682D02*
G75*
G02X105275000Y-92200000I-1534756J-683318D01*
G01*
X102911958Y-90664574D02*
G75*
G02X104279000Y-90665000I683042J-1535426D01*
G01*
X102059574Y-92883042D02*
G75*
G02X102060000Y-91516000I1535426J683042D01*
G01*
X104278042Y-93735426D02*
G75*
G02X102911000Y-93735000I-683042J1535426D01*
G01*
X105275253Y-92171195D02*
G75*
G02X105130000Y-92884000I-1680253J-28805D01*
G01*
X105275000Y-87120000D02*
G75*
G03X105275000Y-87120000I-1680000J0D01*
G01*
X107695000Y-94800000D02*
X107695000Y-84520000D01*
X106195000Y-94800000D02*
X106195000Y-84520000D01*
X101294000Y-94800000D02*
X101294000Y-84520000D01*
X98334000Y-94800000D02*
X98334000Y-84520000D01*
X108255000Y-94800000D02*
X108255000Y-84520000D01*
X98334000Y-94800000D02*
X108255000Y-94800000D01*
X98334000Y-84520000D02*
X108255000Y-84520000D01*
X102526000Y-85845000D02*
X102572000Y-85892000D01*
X104834000Y-88154000D02*
X104869000Y-88189000D01*
X102320000Y-86050000D02*
X102356000Y-86085000D01*
X104618000Y-88347000D02*
X104664000Y-88394000D01*
X107755000Y-95040000D02*
X108495000Y-95040000D01*
X108495000Y-95040000D02*
X108495000Y-94540000D01*
X130700000Y-74425000D02*
X110500000Y-74425000D01*
X110500000Y-74425000D02*
X110500000Y-108625000D01*
X110500000Y-108625000D02*
X130700000Y-108625000D01*
X130700000Y-108625000D02*
X130700000Y-74425000D01*
X124100000Y-74035000D02*
X122090000Y-74035000D01*
X171720000Y-101100000D02*
X172330000Y-101100000D01*
X171720000Y-101100000D02*
X171720000Y-108720000D01*
X171720000Y-84480000D02*
X171720000Y-85100000D01*
X169600000Y-84480000D02*
X171720000Y-84480000D01*
X155480000Y-84480000D02*
X157600000Y-84480000D01*
X155480000Y-85100000D02*
X155480000Y-84480000D01*
X155480000Y-108720000D02*
X155480000Y-101100000D01*
X171720000Y-108720000D02*
X155480000Y-108720000D01*
X144010000Y-99705000D02*
X144010000Y-102795000D01*
X149070000Y-101250000D02*
G75*
G03X149070000Y-101250000I-2500000J0D01*
G01*
X149560000Y-101249538D02*
G75*
G02X144010000Y-102794830I-2990000J-462D01*
G01*
X149560000Y-101250462D02*
G75*
G03X144010000Y-99705170I-2990000J462D01*
G01*
X173690000Y-98293422D02*
X173690000Y-98810578D01*
X175110000Y-98293422D02*
X175110000Y-98810578D01*
X145544000Y-72080000D02*
X145544000Y-73010000D01*
X145544000Y-75240000D02*
X145544000Y-74310000D01*
X145544000Y-75240000D02*
X147704000Y-75240000D01*
X145544000Y-72080000D02*
X147004000Y-72080000D01*
X181934756Y-92116682D02*
G75*
G02X182080000Y-92800000I-1534756J-683318D01*
G01*
X179716958Y-91264574D02*
G75*
G02X181084000Y-91265000I683042J-1535426D01*
G01*
X178864574Y-93483042D02*
G75*
G02X178865000Y-92116000I1535426J683042D01*
G01*
X181083042Y-94335426D02*
G75*
G02X179716000Y-94335000I-683042J1535426D01*
G01*
X182080253Y-92771195D02*
G75*
G02X181935000Y-93484000I-1680253J-28805D01*
G01*
X182080000Y-87720000D02*
G75*
G03X182080000Y-87720000I-1680000J0D01*
G01*
X184500000Y-95400000D02*
X184500000Y-85120000D01*
X183000000Y-95400000D02*
X183000000Y-85120000D01*
X178099000Y-95400000D02*
X178099000Y-85120000D01*
X175139000Y-95400000D02*
X175139000Y-85120000D01*
X185060000Y-95400000D02*
X185060000Y-85120000D01*
X175139000Y-95400000D02*
X185060000Y-95400000D01*
X175139000Y-85120000D02*
X185060000Y-85120000D01*
X179331000Y-86445000D02*
X179377000Y-86492000D01*
X181639000Y-88754000D02*
X181674000Y-88789000D01*
X179125000Y-86650000D02*
X179161000Y-86685000D01*
X181423000Y-88947000D02*
X181469000Y-88994000D01*
X184560000Y-95640000D02*
X185300000Y-95640000D01*
X185300000Y-95640000D02*
X185300000Y-95140000D01*
X158388000Y-80554000D02*
X158388000Y-74544000D01*
X165208000Y-78304000D02*
X165208000Y-74544000D01*
X158388000Y-74544000D02*
X159648000Y-74544000D01*
X165208000Y-74544000D02*
X163948000Y-74544000D01*
X135400000Y-104500000D02*
X139900000Y-104500000D01*
X134150000Y-100500000D02*
X134150000Y-102000000D01*
X139900000Y-98000000D02*
X135400000Y-98000000D01*
X141150000Y-102000000D02*
X141150000Y-100500000D01*
X169667422Y-80466000D02*
X170184578Y-80466000D01*
X169667422Y-79046000D02*
X170184578Y-79046000D01*
X149912000Y-73918578D02*
X149912000Y-73401422D01*
X151332000Y-73918578D02*
X151332000Y-73401422D01*
X175772578Y-82498000D02*
X175255422Y-82498000D01*
X175772578Y-81078000D02*
X175255422Y-81078000D01*
X137241422Y-108910000D02*
X137758578Y-108910000D01*
X137241422Y-107490000D02*
X137758578Y-107490000D01*
X138850000Y-86450000D02*
X138850000Y-82450000D01*
X142450000Y-86450000D02*
X138850000Y-86450000D01*
X142450000Y-82450000D02*
X142450000Y-86450000D01*
X138850000Y-82450000D02*
X142450000Y-82450000D01*
X138850000Y-86450000D02*
X142450000Y-82450000D01*
X138850000Y-84450000D02*
X134650000Y-84450000D01*
X146650000Y-84450000D02*
X142450000Y-84450000D01*
X140650000Y-81050000D02*
X137050000Y-81050000D01*
X140650000Y-87850000D02*
X137050000Y-87850000D01*
X137050000Y-87850000D02*
X137050000Y-81050000D01*
X140650000Y-89350000D02*
X143150000Y-93950000D01*
X140650000Y-87850000D02*
X140650000Y-89350000D01*
X146650000Y-84450000D02*
X146650000Y-81950000D01*
X140650000Y-81050000D02*
X140650000Y-80250000D01*
X134650000Y-81950000D02*
X134650000Y-84450000D01*
X144900000Y-92550000D02*
X142400000Y-92550000D01*
X136500000Y-92550000D02*
X138950000Y-92550000D01*
X132900000Y-96800000D02*
X132900000Y-77000000D01*
X148500000Y-96800000D02*
X132900000Y-96800000D01*
X148500000Y-77000000D02*
X148500000Y-96800000D01*
X148500000Y-77000000D02*
X141900000Y-77000000D01*
X139500000Y-77000000D02*
X132900000Y-77000000D01*
X179892000Y-109280000D02*
X178562000Y-109280000D01*
X179892000Y-107950000D02*
X179892000Y-109280000D01*
X179892000Y-106680000D02*
X177232000Y-106680000D01*
X177232000Y-106680000D02*
X177232000Y-99000000D01*
X179892000Y-106680000D02*
X179892000Y-99000000D01*
X179892000Y-99000000D02*
X177232000Y-99000000D01*
X138750000Y-75100000D02*
X140450000Y-75100000D01*
X140450000Y-75100000D02*
X140450000Y-72550000D01*
X138750000Y-75100000D02*
X138750000Y-72550000D01*
X151590000Y-79641422D02*
X151590000Y-80158578D01*
X153010000Y-79641422D02*
X153010000Y-80158578D01*
X135838000Y-73664578D02*
X135838000Y-73147422D01*
X134418000Y-73664578D02*
X134418000Y-73147422D01*
D10*
X104666666Y-82652380D02*
X104666666Y-83366666D01*
X104619047Y-83509523D01*
X104523809Y-83604761D01*
X104380952Y-83652380D01*
X104285714Y-83652380D01*
X105666666Y-83652380D02*
X105095238Y-83652380D01*
X105380952Y-83652380D02*
X105380952Y-82652380D01*
X105285714Y-82795238D01*
X105190476Y-82890476D01*
X105095238Y-82938095D01*
X122435714Y-73337380D02*
X122435714Y-72337380D01*
X122816666Y-72337380D01*
X122911904Y-72385000D01*
X122959523Y-72432619D01*
X123007142Y-72527857D01*
X123007142Y-72670714D01*
X122959523Y-72765952D01*
X122911904Y-72813571D01*
X122816666Y-72861190D01*
X122435714Y-72861190D01*
X123388095Y-73289761D02*
X123530952Y-73337380D01*
X123769047Y-73337380D01*
X123864285Y-73289761D01*
X123911904Y-73242142D01*
X123959523Y-73146904D01*
X123959523Y-73051666D01*
X123911904Y-72956428D01*
X123864285Y-72908809D01*
X123769047Y-72861190D01*
X123578571Y-72813571D01*
X123483333Y-72765952D01*
X123435714Y-72718333D01*
X123388095Y-72623095D01*
X123388095Y-72527857D01*
X123435714Y-72432619D01*
X123483333Y-72385000D01*
X123578571Y-72337380D01*
X123816666Y-72337380D01*
X123959523Y-72385000D01*
X124911904Y-73337380D02*
X124340476Y-73337380D01*
X124626190Y-73337380D02*
X124626190Y-72337380D01*
X124530952Y-72480238D01*
X124435714Y-72575476D01*
X124340476Y-72623095D01*
X173398095Y-101312380D02*
X173398095Y-102121904D01*
X173445714Y-102217142D01*
X173493333Y-102264761D01*
X173588571Y-102312380D01*
X173779047Y-102312380D01*
X173874285Y-102264761D01*
X173921904Y-102217142D01*
X173969523Y-102121904D01*
X173969523Y-101312380D01*
X174350476Y-101312380D02*
X174969523Y-101312380D01*
X174636190Y-101693333D01*
X174779047Y-101693333D01*
X174874285Y-101740952D01*
X174921904Y-101788571D01*
X174969523Y-101883809D01*
X174969523Y-102121904D01*
X174921904Y-102217142D01*
X174874285Y-102264761D01*
X174779047Y-102312380D01*
X174493333Y-102312380D01*
X174398095Y-102264761D01*
X174350476Y-102217142D01*
X145831904Y-97742380D02*
X145831904Y-96742380D01*
X146070000Y-96742380D01*
X146212857Y-96790000D01*
X146308095Y-96885238D01*
X146355714Y-96980476D01*
X146403333Y-97170952D01*
X146403333Y-97313809D01*
X146355714Y-97504285D01*
X146308095Y-97599523D01*
X146212857Y-97694761D01*
X146070000Y-97742380D01*
X145831904Y-97742380D01*
X146784285Y-96837619D02*
X146831904Y-96790000D01*
X146927142Y-96742380D01*
X147165238Y-96742380D01*
X147260476Y-96790000D01*
X147308095Y-96837619D01*
X147355714Y-96932857D01*
X147355714Y-97028095D01*
X147308095Y-97170952D01*
X146736666Y-97742380D01*
X147355714Y-97742380D01*
X176502380Y-98718666D02*
X176026190Y-99052000D01*
X176502380Y-99290095D02*
X175502380Y-99290095D01*
X175502380Y-98909142D01*
X175550000Y-98813904D01*
X175597619Y-98766285D01*
X175692857Y-98718666D01*
X175835714Y-98718666D01*
X175930952Y-98766285D01*
X175978571Y-98813904D01*
X176026190Y-98909142D01*
X176026190Y-99290095D01*
X175502380Y-97813904D02*
X175502380Y-98290095D01*
X175978571Y-98337714D01*
X175930952Y-98290095D01*
X175883333Y-98194857D01*
X175883333Y-97956761D01*
X175930952Y-97861523D01*
X175978571Y-97813904D01*
X176073809Y-97766285D01*
X176311904Y-97766285D01*
X176407142Y-97813904D01*
X176454761Y-97861523D01*
X176502380Y-97956761D01*
X176502380Y-98194857D01*
X176454761Y-98290095D01*
X176407142Y-98337714D01*
X146208761Y-76707619D02*
X146113523Y-76660000D01*
X146018285Y-76564761D01*
X145875428Y-76421904D01*
X145780190Y-76374285D01*
X145684952Y-76374285D01*
X145732571Y-76612380D02*
X145637333Y-76564761D01*
X145542095Y-76469523D01*
X145494476Y-76279047D01*
X145494476Y-75945714D01*
X145542095Y-75755238D01*
X145637333Y-75660000D01*
X145732571Y-75612380D01*
X145923047Y-75612380D01*
X146018285Y-75660000D01*
X146113523Y-75755238D01*
X146161142Y-75945714D01*
X146161142Y-76279047D01*
X146113523Y-76469523D01*
X146018285Y-76564761D01*
X145923047Y-76612380D01*
X145732571Y-76612380D01*
X147113523Y-76612380D02*
X146542095Y-76612380D01*
X146827809Y-76612380D02*
X146827809Y-75612380D01*
X146732571Y-75755238D01*
X146637333Y-75850476D01*
X146542095Y-75898095D01*
X173592380Y-90593333D02*
X174306666Y-90593333D01*
X174449523Y-90640952D01*
X174544761Y-90736190D01*
X174592380Y-90879047D01*
X174592380Y-90974285D01*
X173687619Y-90164761D02*
X173640000Y-90117142D01*
X173592380Y-90021904D01*
X173592380Y-89783809D01*
X173640000Y-89688571D01*
X173687619Y-89640952D01*
X173782857Y-89593333D01*
X173878095Y-89593333D01*
X174020952Y-89640952D01*
X174592380Y-90212380D01*
X174592380Y-89593333D01*
X156750380Y-77215904D02*
X157559904Y-77215904D01*
X157655142Y-77168285D01*
X157702761Y-77120666D01*
X157750380Y-77025428D01*
X157750380Y-76834952D01*
X157702761Y-76739714D01*
X157655142Y-76692095D01*
X157559904Y-76644476D01*
X156750380Y-76644476D01*
X157750380Y-75644476D02*
X157750380Y-76215904D01*
X157750380Y-75930190D02*
X156750380Y-75930190D01*
X156893238Y-76025428D01*
X156988476Y-76120666D01*
X157036095Y-76215904D01*
X136316666Y-97404761D02*
X136459523Y-97452380D01*
X136697619Y-97452380D01*
X136792857Y-97404761D01*
X136840476Y-97357142D01*
X136888095Y-97261904D01*
X136888095Y-97166666D01*
X136840476Y-97071428D01*
X136792857Y-97023809D01*
X136697619Y-96976190D01*
X136507142Y-96928571D01*
X136411904Y-96880952D01*
X136364285Y-96833333D01*
X136316666Y-96738095D01*
X136316666Y-96642857D01*
X136364285Y-96547619D01*
X136411904Y-96500000D01*
X136507142Y-96452380D01*
X136745238Y-96452380D01*
X136888095Y-96500000D01*
X137221428Y-96452380D02*
X137459523Y-97452380D01*
X137650000Y-96738095D01*
X137840476Y-97452380D01*
X138078571Y-96452380D01*
X138983333Y-97452380D02*
X138411904Y-97452380D01*
X138697619Y-97452380D02*
X138697619Y-96452380D01*
X138602380Y-96595238D01*
X138507142Y-96690476D01*
X138411904Y-96738095D01*
X169759333Y-78558380D02*
X169426000Y-78082190D01*
X169187904Y-78558380D02*
X169187904Y-77558380D01*
X169568857Y-77558380D01*
X169664095Y-77606000D01*
X169711714Y-77653619D01*
X169759333Y-77748857D01*
X169759333Y-77891714D01*
X169711714Y-77986952D01*
X169664095Y-78034571D01*
X169568857Y-78082190D01*
X169187904Y-78082190D01*
X170616476Y-77891714D02*
X170616476Y-78558380D01*
X170378380Y-77510761D02*
X170140285Y-78225047D01*
X170759333Y-78225047D01*
X149424380Y-73826666D02*
X148948190Y-74160000D01*
X149424380Y-74398095D02*
X148424380Y-74398095D01*
X148424380Y-74017142D01*
X148472000Y-73921904D01*
X148519619Y-73874285D01*
X148614857Y-73826666D01*
X148757714Y-73826666D01*
X148852952Y-73874285D01*
X148900571Y-73921904D01*
X148948190Y-74017142D01*
X148948190Y-74398095D01*
X148424380Y-73493333D02*
X148424380Y-72874285D01*
X148805333Y-73207619D01*
X148805333Y-73064761D01*
X148852952Y-72969523D01*
X148900571Y-72921904D01*
X148995809Y-72874285D01*
X149233904Y-72874285D01*
X149329142Y-72921904D01*
X149376761Y-72969523D01*
X149424380Y-73064761D01*
X149424380Y-73350476D01*
X149376761Y-73445714D01*
X149329142Y-73493333D01*
X175347333Y-83890380D02*
X175014000Y-83414190D01*
X174775904Y-83890380D02*
X174775904Y-82890380D01*
X175156857Y-82890380D01*
X175252095Y-82938000D01*
X175299714Y-82985619D01*
X175347333Y-83080857D01*
X175347333Y-83223714D01*
X175299714Y-83318952D01*
X175252095Y-83366571D01*
X175156857Y-83414190D01*
X174775904Y-83414190D01*
X175728285Y-82985619D02*
X175775904Y-82938000D01*
X175871142Y-82890380D01*
X176109238Y-82890380D01*
X176204476Y-82938000D01*
X176252095Y-82985619D01*
X176299714Y-83080857D01*
X176299714Y-83176095D01*
X176252095Y-83318952D01*
X175680666Y-83890380D01*
X176299714Y-83890380D01*
X137333333Y-107002380D02*
X137000000Y-106526190D01*
X136761904Y-107002380D02*
X136761904Y-106002380D01*
X137142857Y-106002380D01*
X137238095Y-106050000D01*
X137285714Y-106097619D01*
X137333333Y-106192857D01*
X137333333Y-106335714D01*
X137285714Y-106430952D01*
X137238095Y-106478571D01*
X137142857Y-106526190D01*
X136761904Y-106526190D01*
X138285714Y-107002380D02*
X137714285Y-107002380D01*
X138000000Y-107002380D02*
X138000000Y-106002380D01*
X137904761Y-106145238D01*
X137809523Y-106240476D01*
X137714285Y-106288095D01*
X131952380Y-87238095D02*
X130952380Y-87238095D01*
X131952380Y-86666666D02*
X131380952Y-87095238D01*
X130952380Y-86666666D02*
X131523809Y-87238095D01*
X131952380Y-85714285D02*
X131952380Y-86285714D01*
X131952380Y-86000000D02*
X130952380Y-86000000D01*
X131095238Y-86095238D01*
X131190476Y-86190476D01*
X131238095Y-86285714D01*
X178228666Y-109732380D02*
X178228666Y-110446666D01*
X178181047Y-110589523D01*
X178085809Y-110684761D01*
X177942952Y-110732380D01*
X177847714Y-110732380D01*
X178609619Y-109732380D02*
X179228666Y-109732380D01*
X178895333Y-110113333D01*
X179038190Y-110113333D01*
X179133428Y-110160952D01*
X179181047Y-110208571D01*
X179228666Y-110303809D01*
X179228666Y-110541904D01*
X179181047Y-110637142D01*
X179133428Y-110684761D01*
X179038190Y-110732380D01*
X178752476Y-110732380D01*
X178657238Y-110684761D01*
X178609619Y-110637142D01*
X138202380Y-74338095D02*
X137202380Y-74338095D01*
X137202380Y-74100000D01*
X137250000Y-73957142D01*
X137345238Y-73861904D01*
X137440476Y-73814285D01*
X137630952Y-73766666D01*
X137773809Y-73766666D01*
X137964285Y-73814285D01*
X138059523Y-73861904D01*
X138154761Y-73957142D01*
X138202380Y-74100000D01*
X138202380Y-74338095D01*
X138202380Y-72814285D02*
X138202380Y-73385714D01*
X138202380Y-73100000D02*
X137202380Y-73100000D01*
X137345238Y-73195238D01*
X137440476Y-73290476D01*
X137488095Y-73385714D01*
X154307142Y-80066666D02*
X154354761Y-80114285D01*
X154402380Y-80257142D01*
X154402380Y-80352380D01*
X154354761Y-80495238D01*
X154259523Y-80590476D01*
X154164285Y-80638095D01*
X153973809Y-80685714D01*
X153830952Y-80685714D01*
X153640476Y-80638095D01*
X153545238Y-80590476D01*
X153450000Y-80495238D01*
X153402380Y-80352380D01*
X153402380Y-80257142D01*
X153450000Y-80114285D01*
X153497619Y-80066666D01*
X153497619Y-79685714D02*
X153450000Y-79638095D01*
X153402380Y-79542857D01*
X153402380Y-79304761D01*
X153450000Y-79209523D01*
X153497619Y-79161904D01*
X153592857Y-79114285D01*
X153688095Y-79114285D01*
X153830952Y-79161904D01*
X154402380Y-79733333D01*
X154402380Y-79114285D01*
X133835142Y-73572666D02*
X133882761Y-73620285D01*
X133930380Y-73763142D01*
X133930380Y-73858380D01*
X133882761Y-74001238D01*
X133787523Y-74096476D01*
X133692285Y-74144095D01*
X133501809Y-74191714D01*
X133358952Y-74191714D01*
X133168476Y-74144095D01*
X133073238Y-74096476D01*
X132978000Y-74001238D01*
X132930380Y-73858380D01*
X132930380Y-73763142D01*
X132978000Y-73620285D01*
X133025619Y-73572666D01*
X133930380Y-72620285D02*
X133930380Y-73191714D01*
X133930380Y-72906000D02*
X132930380Y-72906000D01*
X133073238Y-73001238D01*
X133168476Y-73096476D01*
X133216095Y-73191714D01*
M02*
