G04 #@! TF.GenerationSoftware,KiCad,Pcbnew,5.1.5+dfsg1-2build2*
G04 #@! TF.CreationDate,2021-03-10T23:59:30+01:00*
G04 #@! TF.ProjectId,iotOnOff,696f744f-6e4f-4666-962e-6b696361645f,rev?*
G04 #@! TF.SameCoordinates,Original*
G04 #@! TF.FileFunction,Soldermask,Top*
G04 #@! TF.FilePolarity,Negative*
%FSLAX46Y46*%
G04 Gerber Fmt 4.6, Leading zero omitted, Abs format (unit mm)*
G04 Created by KiCad (PCBNEW 5.1.5+dfsg1-2build2) date 2021-03-10 23:59:30*
%MOMM*%
%LPD*%
G04 APERTURE LIST*
%ADD10C,0.100000*%
G04 APERTURE END LIST*
D10*
G36*
X138809468Y-107453565D02*
G01*
X138848138Y-107465296D01*
X138883777Y-107484346D01*
X138915017Y-107509983D01*
X138940654Y-107541223D01*
X138959704Y-107576862D01*
X138971435Y-107615532D01*
X138976000Y-107661888D01*
X138976000Y-108738112D01*
X138971435Y-108784468D01*
X138959704Y-108823138D01*
X138940654Y-108858777D01*
X138915017Y-108890017D01*
X138883777Y-108915654D01*
X138848138Y-108934704D01*
X138809468Y-108946435D01*
X138763112Y-108951000D01*
X138111888Y-108951000D01*
X138065532Y-108946435D01*
X138026862Y-108934704D01*
X137991223Y-108915654D01*
X137959983Y-108890017D01*
X137934346Y-108858777D01*
X137915296Y-108823138D01*
X137903565Y-108784468D01*
X137899000Y-108738112D01*
X137899000Y-107661888D01*
X137903565Y-107615532D01*
X137915296Y-107576862D01*
X137934346Y-107541223D01*
X137959983Y-107509983D01*
X137991223Y-107484346D01*
X138026862Y-107465296D01*
X138065532Y-107453565D01*
X138111888Y-107449000D01*
X138763112Y-107449000D01*
X138809468Y-107453565D01*
G37*
G36*
X136934468Y-107453565D02*
G01*
X136973138Y-107465296D01*
X137008777Y-107484346D01*
X137040017Y-107509983D01*
X137065654Y-107541223D01*
X137084704Y-107576862D01*
X137096435Y-107615532D01*
X137101000Y-107661888D01*
X137101000Y-108738112D01*
X137096435Y-108784468D01*
X137084704Y-108823138D01*
X137065654Y-108858777D01*
X137040017Y-108890017D01*
X137008777Y-108915654D01*
X136973138Y-108934704D01*
X136934468Y-108946435D01*
X136888112Y-108951000D01*
X136236888Y-108951000D01*
X136190532Y-108946435D01*
X136151862Y-108934704D01*
X136116223Y-108915654D01*
X136084983Y-108890017D01*
X136059346Y-108858777D01*
X136040296Y-108823138D01*
X136028565Y-108784468D01*
X136024000Y-108738112D01*
X136024000Y-107661888D01*
X136028565Y-107615532D01*
X136040296Y-107576862D01*
X136059346Y-107541223D01*
X136084983Y-107509983D01*
X136116223Y-107484346D01*
X136151862Y-107465296D01*
X136190532Y-107453565D01*
X136236888Y-107449000D01*
X136888112Y-107449000D01*
X136934468Y-107453565D01*
G37*
G36*
X179463000Y-108851000D02*
G01*
X177661000Y-108851000D01*
X177661000Y-107049000D01*
X179463000Y-107049000D01*
X179463000Y-108851000D01*
G37*
G36*
X128650318Y-105070153D02*
G01*
X128836298Y-105147189D01*
X128868887Y-105160688D01*
X129065593Y-105292122D01*
X129232878Y-105459407D01*
X129364312Y-105656113D01*
X129364313Y-105656115D01*
X129454847Y-105874682D01*
X129501000Y-106106710D01*
X129501000Y-106343290D01*
X129454847Y-106575318D01*
X129364313Y-106793885D01*
X129364312Y-106793887D01*
X129232878Y-106990593D01*
X129065593Y-107157878D01*
X128868887Y-107289312D01*
X128868886Y-107289313D01*
X128868885Y-107289313D01*
X128650318Y-107379847D01*
X128418290Y-107426000D01*
X128181710Y-107426000D01*
X127949682Y-107379847D01*
X127731115Y-107289313D01*
X127731114Y-107289313D01*
X127731113Y-107289312D01*
X127534407Y-107157878D01*
X127367122Y-106990593D01*
X127235688Y-106793887D01*
X127235687Y-106793885D01*
X127145153Y-106575318D01*
X127099000Y-106343290D01*
X127099000Y-106106710D01*
X127145153Y-105874682D01*
X127235687Y-105656115D01*
X127235688Y-105656113D01*
X127367122Y-105459407D01*
X127534407Y-105292122D01*
X127731113Y-105160688D01*
X127763702Y-105147189D01*
X127949682Y-105070153D01*
X128181710Y-105024000D01*
X128418290Y-105024000D01*
X128650318Y-105070153D01*
G37*
G36*
X113250318Y-105070153D02*
G01*
X113436298Y-105147189D01*
X113468887Y-105160688D01*
X113665593Y-105292122D01*
X113832878Y-105459407D01*
X113964312Y-105656113D01*
X113964313Y-105656115D01*
X114054847Y-105874682D01*
X114101000Y-106106710D01*
X114101000Y-106343290D01*
X114054847Y-106575318D01*
X113964313Y-106793885D01*
X113964312Y-106793887D01*
X113832878Y-106990593D01*
X113665593Y-107157878D01*
X113468887Y-107289312D01*
X113468886Y-107289313D01*
X113468885Y-107289313D01*
X113250318Y-107379847D01*
X113018290Y-107426000D01*
X112781710Y-107426000D01*
X112549682Y-107379847D01*
X112331115Y-107289313D01*
X112331114Y-107289313D01*
X112331113Y-107289312D01*
X112134407Y-107157878D01*
X111967122Y-106990593D01*
X111835688Y-106793887D01*
X111835687Y-106793885D01*
X111745153Y-106575318D01*
X111699000Y-106343290D01*
X111699000Y-106106710D01*
X111745153Y-105874682D01*
X111835687Y-105656115D01*
X111835688Y-105656113D01*
X111967122Y-105459407D01*
X112134407Y-105292122D01*
X112331113Y-105160688D01*
X112363702Y-105147189D01*
X112549682Y-105070153D01*
X112781710Y-105024000D01*
X113018290Y-105024000D01*
X113250318Y-105070153D01*
G37*
G36*
X178675512Y-104513927D02*
G01*
X178824812Y-104543624D01*
X178988784Y-104611544D01*
X179136354Y-104710147D01*
X179261853Y-104835646D01*
X179360456Y-104983216D01*
X179428376Y-105147188D01*
X179463000Y-105321259D01*
X179463000Y-105498741D01*
X179428376Y-105672812D01*
X179360456Y-105836784D01*
X179261853Y-105984354D01*
X179136354Y-106109853D01*
X178988784Y-106208456D01*
X178824812Y-106276376D01*
X178675512Y-106306073D01*
X178650742Y-106311000D01*
X178473258Y-106311000D01*
X178448488Y-106306073D01*
X178299188Y-106276376D01*
X178135216Y-106208456D01*
X177987646Y-106109853D01*
X177862147Y-105984354D01*
X177763544Y-105836784D01*
X177695624Y-105672812D01*
X177661000Y-105498741D01*
X177661000Y-105321259D01*
X177695624Y-105147188D01*
X177763544Y-104983216D01*
X177862147Y-104835646D01*
X177987646Y-104710147D01*
X178135216Y-104611544D01*
X178299188Y-104543624D01*
X178448488Y-104513927D01*
X178473258Y-104509000D01*
X178650742Y-104509000D01*
X178675512Y-104513927D01*
G37*
G36*
X141206564Y-102489389D02*
G01*
X141397833Y-102568615D01*
X141397835Y-102568616D01*
X141569973Y-102683635D01*
X141716365Y-102830027D01*
X141802370Y-102958742D01*
X141831385Y-103002167D01*
X141910611Y-103193436D01*
X141951000Y-103396484D01*
X141951000Y-103603516D01*
X141910611Y-103806564D01*
X141831385Y-103997833D01*
X141831384Y-103997835D01*
X141716365Y-104169973D01*
X141569973Y-104316365D01*
X141397835Y-104431384D01*
X141397834Y-104431385D01*
X141397833Y-104431385D01*
X141206564Y-104510611D01*
X141003516Y-104551000D01*
X140796484Y-104551000D01*
X140593436Y-104510611D01*
X140402167Y-104431385D01*
X140402166Y-104431385D01*
X140402165Y-104431384D01*
X140230027Y-104316365D01*
X140083635Y-104169973D01*
X139968616Y-103997835D01*
X139968615Y-103997833D01*
X139889389Y-103806564D01*
X139849000Y-103603516D01*
X139849000Y-103396484D01*
X139889389Y-103193436D01*
X139968615Y-103002167D01*
X139997631Y-102958742D01*
X140083635Y-102830027D01*
X140230027Y-102683635D01*
X140402165Y-102568616D01*
X140402167Y-102568615D01*
X140593436Y-102489389D01*
X140796484Y-102449000D01*
X141003516Y-102449000D01*
X141206564Y-102489389D01*
G37*
G36*
X134706564Y-102489389D02*
G01*
X134897833Y-102568615D01*
X134897835Y-102568616D01*
X135069973Y-102683635D01*
X135216365Y-102830027D01*
X135302370Y-102958742D01*
X135331385Y-103002167D01*
X135410611Y-103193436D01*
X135451000Y-103396484D01*
X135451000Y-103603516D01*
X135410611Y-103806564D01*
X135331385Y-103997833D01*
X135331384Y-103997835D01*
X135216365Y-104169973D01*
X135069973Y-104316365D01*
X134897835Y-104431384D01*
X134897834Y-104431385D01*
X134897833Y-104431385D01*
X134706564Y-104510611D01*
X134503516Y-104551000D01*
X134296484Y-104551000D01*
X134093436Y-104510611D01*
X133902167Y-104431385D01*
X133902166Y-104431385D01*
X133902165Y-104431384D01*
X133730027Y-104316365D01*
X133583635Y-104169973D01*
X133468616Y-103997835D01*
X133468615Y-103997833D01*
X133389389Y-103806564D01*
X133349000Y-103603516D01*
X133349000Y-103396484D01*
X133389389Y-103193436D01*
X133468615Y-103002167D01*
X133497631Y-102958742D01*
X133583635Y-102830027D01*
X133730027Y-102683635D01*
X133902165Y-102568616D01*
X133902167Y-102568615D01*
X134093436Y-102489389D01*
X134296484Y-102449000D01*
X134503516Y-102449000D01*
X134706564Y-102489389D01*
G37*
G36*
X178675512Y-101973927D02*
G01*
X178824812Y-102003624D01*
X178988784Y-102071544D01*
X179136354Y-102170147D01*
X179261853Y-102295646D01*
X179360456Y-102443216D01*
X179428376Y-102607188D01*
X179463000Y-102781259D01*
X179463000Y-102958741D01*
X179428376Y-103132812D01*
X179360456Y-103296784D01*
X179261853Y-103444354D01*
X179136354Y-103569853D01*
X178988784Y-103668456D01*
X178824812Y-103736376D01*
X178675512Y-103766073D01*
X178650742Y-103771000D01*
X178473258Y-103771000D01*
X178448488Y-103766073D01*
X178299188Y-103736376D01*
X178135216Y-103668456D01*
X177987646Y-103569853D01*
X177862147Y-103444354D01*
X177763544Y-103296784D01*
X177695624Y-103132812D01*
X177661000Y-102958741D01*
X177661000Y-102781259D01*
X177695624Y-102607188D01*
X177763544Y-102443216D01*
X177862147Y-102295646D01*
X177987646Y-102170147D01*
X178135216Y-102071544D01*
X178299188Y-102003624D01*
X178448488Y-101973927D01*
X178473258Y-101969000D01*
X178650742Y-101969000D01*
X178675512Y-101973927D01*
G37*
G36*
X148117395Y-100335546D02*
G01*
X148290466Y-100407234D01*
X148290467Y-100407235D01*
X148446227Y-100511310D01*
X148578690Y-100643773D01*
X148578691Y-100643775D01*
X148682766Y-100799534D01*
X148754454Y-100972605D01*
X148791000Y-101156333D01*
X148791000Y-101343667D01*
X148754454Y-101527395D01*
X148682766Y-101700466D01*
X148682765Y-101700467D01*
X148578690Y-101856227D01*
X148446227Y-101988690D01*
X148423875Y-102003625D01*
X148290466Y-102092766D01*
X148117395Y-102164454D01*
X147933667Y-102201000D01*
X147746333Y-102201000D01*
X147562605Y-102164454D01*
X147389534Y-102092766D01*
X147256125Y-102003625D01*
X147233773Y-101988690D01*
X147101310Y-101856227D01*
X146997235Y-101700467D01*
X146997234Y-101700466D01*
X146925546Y-101527395D01*
X146889000Y-101343667D01*
X146889000Y-101156333D01*
X146925546Y-100972605D01*
X146997234Y-100799534D01*
X147101309Y-100643775D01*
X147101310Y-100643773D01*
X147233773Y-100511310D01*
X147389533Y-100407235D01*
X147389534Y-100407234D01*
X147562605Y-100335546D01*
X147746333Y-100299000D01*
X147933667Y-100299000D01*
X148117395Y-100335546D01*
G37*
G36*
X146251000Y-102201000D02*
G01*
X144349000Y-102201000D01*
X144349000Y-100299000D01*
X146251000Y-100299000D01*
X146251000Y-102201000D01*
G37*
G36*
X178675512Y-99433927D02*
G01*
X178824812Y-99463624D01*
X178988784Y-99531544D01*
X179136354Y-99630147D01*
X179261853Y-99755646D01*
X179360456Y-99903216D01*
X179428376Y-100067188D01*
X179463000Y-100241259D01*
X179463000Y-100418741D01*
X179428376Y-100592812D01*
X179360456Y-100756784D01*
X179261853Y-100904354D01*
X179136354Y-101029853D01*
X178988784Y-101128456D01*
X178824812Y-101196376D01*
X178675512Y-101226073D01*
X178650742Y-101231000D01*
X178473258Y-101231000D01*
X178448488Y-101226073D01*
X178299188Y-101196376D01*
X178135216Y-101128456D01*
X177987646Y-101029853D01*
X177862147Y-100904354D01*
X177763544Y-100756784D01*
X177695624Y-100592812D01*
X177661000Y-100418741D01*
X177661000Y-100241259D01*
X177695624Y-100067188D01*
X177763544Y-99903216D01*
X177862147Y-99755646D01*
X177987646Y-99630147D01*
X178135216Y-99531544D01*
X178299188Y-99463624D01*
X178448488Y-99433927D01*
X178473258Y-99429000D01*
X178650742Y-99429000D01*
X178675512Y-99433927D01*
G37*
G36*
X172501000Y-100651000D02*
G01*
X169899000Y-100651000D01*
X169899000Y-99549000D01*
X172501000Y-99549000D01*
X172501000Y-100651000D01*
G37*
G36*
X157301000Y-100651000D02*
G01*
X154699000Y-100651000D01*
X154699000Y-99549000D01*
X157301000Y-99549000D01*
X157301000Y-100651000D01*
G37*
G36*
X134706564Y-97989389D02*
G01*
X134878910Y-98060777D01*
X134897835Y-98068616D01*
X135069973Y-98183635D01*
X135216365Y-98330027D01*
X135331385Y-98502167D01*
X135410611Y-98693436D01*
X135451000Y-98896484D01*
X135451000Y-99103516D01*
X135410611Y-99306564D01*
X135359896Y-99429000D01*
X135331384Y-99497835D01*
X135216365Y-99669973D01*
X135069973Y-99816365D01*
X134897835Y-99931384D01*
X134897834Y-99931385D01*
X134897833Y-99931385D01*
X134706564Y-100010611D01*
X134503516Y-100051000D01*
X134296484Y-100051000D01*
X134093436Y-100010611D01*
X133902167Y-99931385D01*
X133902166Y-99931385D01*
X133902165Y-99931384D01*
X133730027Y-99816365D01*
X133583635Y-99669973D01*
X133468616Y-99497835D01*
X133440104Y-99429000D01*
X133389389Y-99306564D01*
X133349000Y-99103516D01*
X133349000Y-98896484D01*
X133389389Y-98693436D01*
X133468615Y-98502167D01*
X133583635Y-98330027D01*
X133730027Y-98183635D01*
X133902165Y-98068616D01*
X133921090Y-98060777D01*
X134093436Y-97989389D01*
X134296484Y-97949000D01*
X134503516Y-97949000D01*
X134706564Y-97989389D01*
G37*
G36*
X141206564Y-97989389D02*
G01*
X141378910Y-98060777D01*
X141397835Y-98068616D01*
X141569973Y-98183635D01*
X141716365Y-98330027D01*
X141831385Y-98502167D01*
X141910611Y-98693436D01*
X141951000Y-98896484D01*
X141951000Y-99103516D01*
X141910611Y-99306564D01*
X141859896Y-99429000D01*
X141831384Y-99497835D01*
X141716365Y-99669973D01*
X141569973Y-99816365D01*
X141397835Y-99931384D01*
X141397834Y-99931385D01*
X141397833Y-99931385D01*
X141206564Y-100010611D01*
X141003516Y-100051000D01*
X140796484Y-100051000D01*
X140593436Y-100010611D01*
X140402167Y-99931385D01*
X140402166Y-99931385D01*
X140402165Y-99931384D01*
X140230027Y-99816365D01*
X140083635Y-99669973D01*
X139968616Y-99497835D01*
X139940104Y-99429000D01*
X139889389Y-99306564D01*
X139849000Y-99103516D01*
X139849000Y-98896484D01*
X139889389Y-98693436D01*
X139968615Y-98502167D01*
X140083635Y-98330027D01*
X140230027Y-98183635D01*
X140402165Y-98068616D01*
X140421090Y-98060777D01*
X140593436Y-97989389D01*
X140796484Y-97949000D01*
X141003516Y-97949000D01*
X141206564Y-97989389D01*
G37*
G36*
X174984468Y-98955565D02*
G01*
X175023138Y-98967296D01*
X175058777Y-98986346D01*
X175090017Y-99011983D01*
X175115654Y-99043223D01*
X175134704Y-99078862D01*
X175146435Y-99117532D01*
X175151000Y-99163888D01*
X175151000Y-99815112D01*
X175146435Y-99861468D01*
X175134704Y-99900138D01*
X175115654Y-99935777D01*
X175090017Y-99967017D01*
X175058777Y-99992654D01*
X175023138Y-100011704D01*
X174984468Y-100023435D01*
X174938112Y-100028000D01*
X173861888Y-100028000D01*
X173815532Y-100023435D01*
X173776862Y-100011704D01*
X173741223Y-99992654D01*
X173709983Y-99967017D01*
X173684346Y-99935777D01*
X173665296Y-99900138D01*
X173653565Y-99861468D01*
X173649000Y-99815112D01*
X173649000Y-99163888D01*
X173653565Y-99117532D01*
X173665296Y-99078862D01*
X173684346Y-99043223D01*
X173709983Y-99011983D01*
X173741223Y-98986346D01*
X173776862Y-98967296D01*
X173815532Y-98955565D01*
X173861888Y-98951000D01*
X174938112Y-98951000D01*
X174984468Y-98955565D01*
G37*
G36*
X157301000Y-98651000D02*
G01*
X154699000Y-98651000D01*
X154699000Y-97549000D01*
X157301000Y-97549000D01*
X157301000Y-98651000D01*
G37*
G36*
X172501000Y-98651000D02*
G01*
X169899000Y-98651000D01*
X169899000Y-97549000D01*
X172501000Y-97549000D01*
X172501000Y-98651000D01*
G37*
G36*
X174984468Y-97080565D02*
G01*
X175023138Y-97092296D01*
X175058777Y-97111346D01*
X175090017Y-97136983D01*
X175115654Y-97168223D01*
X175134704Y-97203862D01*
X175146435Y-97242532D01*
X175151000Y-97288888D01*
X175151000Y-97940112D01*
X175146435Y-97986468D01*
X175134704Y-98025138D01*
X175115654Y-98060777D01*
X175090017Y-98092017D01*
X175058777Y-98117654D01*
X175023138Y-98136704D01*
X174984468Y-98148435D01*
X174938112Y-98153000D01*
X173861888Y-98153000D01*
X173815532Y-98148435D01*
X173776862Y-98136704D01*
X173741223Y-98117654D01*
X173709983Y-98092017D01*
X173684346Y-98060777D01*
X173665296Y-98025138D01*
X173653565Y-97986468D01*
X173649000Y-97940112D01*
X173649000Y-97288888D01*
X173653565Y-97242532D01*
X173665296Y-97203862D01*
X173684346Y-97168223D01*
X173709983Y-97136983D01*
X173741223Y-97111346D01*
X173776862Y-97092296D01*
X173815532Y-97080565D01*
X173861888Y-97076000D01*
X174938112Y-97076000D01*
X174984468Y-97080565D01*
G37*
G36*
X172501000Y-96651000D02*
G01*
X169899000Y-96651000D01*
X169899000Y-95549000D01*
X172501000Y-95549000D01*
X172501000Y-96651000D01*
G37*
G36*
X157301000Y-96651000D02*
G01*
X154699000Y-96651000D01*
X154699000Y-95549000D01*
X157301000Y-95549000D01*
X157301000Y-96651000D01*
G37*
G36*
X157301000Y-94651000D02*
G01*
X154699000Y-94651000D01*
X154699000Y-93549000D01*
X157301000Y-93549000D01*
X157301000Y-94651000D01*
G37*
G36*
X172501000Y-94651000D02*
G01*
X169899000Y-94651000D01*
X169899000Y-93549000D01*
X172501000Y-93549000D01*
X172501000Y-94651000D01*
G37*
G36*
X146901043Y-91058604D02*
G01*
X147152410Y-91108604D01*
X147434674Y-91225521D01*
X147688705Y-91395259D01*
X147904741Y-91611295D01*
X148074479Y-91865326D01*
X148191396Y-92147590D01*
X148191396Y-92147591D01*
X148241055Y-92397240D01*
X148251000Y-92447240D01*
X148251000Y-92752760D01*
X148191396Y-93052410D01*
X148074479Y-93334674D01*
X147904741Y-93588705D01*
X147688705Y-93804741D01*
X147434674Y-93974479D01*
X147152410Y-94091396D01*
X147104127Y-94101000D01*
X146852761Y-94151000D01*
X146547239Y-94151000D01*
X146295873Y-94101000D01*
X146247590Y-94091396D01*
X145965326Y-93974479D01*
X145711295Y-93804741D01*
X145495259Y-93588705D01*
X145325521Y-93334674D01*
X145208604Y-93052410D01*
X145149000Y-92752760D01*
X145149000Y-92447240D01*
X145158946Y-92397240D01*
X145208604Y-92147591D01*
X145208604Y-92147590D01*
X145325521Y-91865326D01*
X145495259Y-91611295D01*
X145711295Y-91395259D01*
X145965326Y-91225521D01*
X146247590Y-91108604D01*
X146498957Y-91058604D01*
X146547239Y-91049000D01*
X146852761Y-91049000D01*
X146901043Y-91058604D01*
G37*
G36*
X181751000Y-94151000D02*
G01*
X179049000Y-94151000D01*
X179049000Y-91449000D01*
X181751000Y-91449000D01*
X181751000Y-94151000D01*
G37*
G36*
X134952585Y-91028802D02*
G01*
X135102410Y-91058604D01*
X135384674Y-91175521D01*
X135638705Y-91345259D01*
X135854741Y-91561295D01*
X136024479Y-91815326D01*
X136141396Y-92097590D01*
X136151342Y-92147591D01*
X136201000Y-92397239D01*
X136201000Y-92702761D01*
X136191054Y-92752761D01*
X136141396Y-93002410D01*
X136024479Y-93284674D01*
X135854741Y-93538705D01*
X135638705Y-93754741D01*
X135384674Y-93924479D01*
X135102410Y-94041396D01*
X134952585Y-94071198D01*
X134802761Y-94101000D01*
X134497239Y-94101000D01*
X134347415Y-94071198D01*
X134197590Y-94041396D01*
X133915326Y-93924479D01*
X133661295Y-93754741D01*
X133445259Y-93538705D01*
X133275521Y-93284674D01*
X133158604Y-93002410D01*
X133108946Y-92752761D01*
X133099000Y-92702761D01*
X133099000Y-92397239D01*
X133148658Y-92147591D01*
X133158604Y-92097590D01*
X133275521Y-91815326D01*
X133445259Y-91561295D01*
X133661295Y-91345259D01*
X133915326Y-91175521D01*
X134197590Y-91058604D01*
X134347415Y-91028802D01*
X134497239Y-90999000D01*
X134802761Y-90999000D01*
X134952585Y-91028802D01*
G37*
G36*
X104946000Y-93551000D02*
G01*
X102244000Y-93551000D01*
X102244000Y-90849000D01*
X104946000Y-90849000D01*
X104946000Y-93551000D01*
G37*
G36*
X157301000Y-92651000D02*
G01*
X154699000Y-92651000D01*
X154699000Y-91549000D01*
X157301000Y-91549000D01*
X157301000Y-92651000D01*
G37*
G36*
X172501000Y-92651000D02*
G01*
X169899000Y-92651000D01*
X169899000Y-91549000D01*
X172501000Y-91549000D01*
X172501000Y-92651000D01*
G37*
G36*
X172501000Y-90651000D02*
G01*
X169899000Y-90651000D01*
X169899000Y-89549000D01*
X172501000Y-89549000D01*
X172501000Y-90651000D01*
G37*
G36*
X157301000Y-90651000D02*
G01*
X154699000Y-90651000D01*
X154699000Y-89549000D01*
X157301000Y-89549000D01*
X157301000Y-90651000D01*
G37*
G36*
X180794072Y-86420918D02*
G01*
X180936862Y-86480063D01*
X181039939Y-86522759D01*
X181151328Y-86597187D01*
X181261211Y-86670609D01*
X181449391Y-86858789D01*
X181597242Y-87080063D01*
X181699082Y-87325928D01*
X181751000Y-87586937D01*
X181751000Y-87853063D01*
X181699082Y-88114072D01*
X181597241Y-88359939D01*
X181449390Y-88581212D01*
X181261212Y-88769390D01*
X181039939Y-88917241D01*
X181039938Y-88917242D01*
X181039937Y-88917242D01*
X180794072Y-89019082D01*
X180533063Y-89071000D01*
X180266937Y-89071000D01*
X180005928Y-89019082D01*
X179760063Y-88917242D01*
X179760062Y-88917242D01*
X179760061Y-88917241D01*
X179538788Y-88769390D01*
X179350610Y-88581212D01*
X179202759Y-88359939D01*
X179100918Y-88114072D01*
X179049000Y-87853063D01*
X179049000Y-87586937D01*
X179100918Y-87325928D01*
X179202758Y-87080063D01*
X179350609Y-86858789D01*
X179538789Y-86670609D01*
X179648672Y-86597187D01*
X179760061Y-86522759D01*
X179863139Y-86480063D01*
X180005928Y-86420918D01*
X180266937Y-86369000D01*
X180533063Y-86369000D01*
X180794072Y-86420918D01*
G37*
G36*
X157301000Y-88651000D02*
G01*
X154699000Y-88651000D01*
X154699000Y-87549000D01*
X157301000Y-87549000D01*
X157301000Y-88651000D01*
G37*
G36*
X172501000Y-88651000D02*
G01*
X169899000Y-88651000D01*
X169899000Y-87549000D01*
X172501000Y-87549000D01*
X172501000Y-88651000D01*
G37*
G36*
X103989072Y-85820918D02*
G01*
X104234939Y-85922759D01*
X104456212Y-86070610D01*
X104644390Y-86258788D01*
X104752723Y-86420918D01*
X104792242Y-86480063D01*
X104894082Y-86725928D01*
X104946000Y-86986937D01*
X104946000Y-87253063D01*
X104894082Y-87514072D01*
X104863901Y-87586937D01*
X104792241Y-87759939D01*
X104644390Y-87981212D01*
X104456212Y-88169390D01*
X104234939Y-88317241D01*
X104234938Y-88317242D01*
X104234937Y-88317242D01*
X103989072Y-88419082D01*
X103728063Y-88471000D01*
X103461937Y-88471000D01*
X103200928Y-88419082D01*
X102955063Y-88317242D01*
X102955062Y-88317242D01*
X102955061Y-88317241D01*
X102733788Y-88169390D01*
X102545610Y-87981212D01*
X102397759Y-87759939D01*
X102326100Y-87586937D01*
X102295918Y-87514072D01*
X102244000Y-87253063D01*
X102244000Y-86986937D01*
X102295918Y-86725928D01*
X102397758Y-86480063D01*
X102437278Y-86420918D01*
X102545610Y-86258788D01*
X102733788Y-86070610D01*
X102955061Y-85922759D01*
X103200928Y-85820918D01*
X103461937Y-85769000D01*
X103728063Y-85769000D01*
X103989072Y-85820918D01*
G37*
G36*
X157301000Y-86651000D02*
G01*
X154699000Y-86651000D01*
X154699000Y-85549000D01*
X157301000Y-85549000D01*
X157301000Y-86651000D01*
G37*
G36*
X172501000Y-86651000D02*
G01*
X169899000Y-86651000D01*
X169899000Y-85549000D01*
X172501000Y-85549000D01*
X172501000Y-86651000D01*
G37*
G36*
X169151000Y-85551000D02*
G01*
X168049000Y-85551000D01*
X168049000Y-83649000D01*
X169151000Y-83649000D01*
X169151000Y-85551000D01*
G37*
G36*
X163151000Y-85551000D02*
G01*
X162049000Y-85551000D01*
X162049000Y-83649000D01*
X163151000Y-83649000D01*
X163151000Y-85551000D01*
G37*
G36*
X167151000Y-85551000D02*
G01*
X166049000Y-85551000D01*
X166049000Y-83649000D01*
X167151000Y-83649000D01*
X167151000Y-85551000D01*
G37*
G36*
X159151000Y-85551000D02*
G01*
X158049000Y-85551000D01*
X158049000Y-83649000D01*
X159151000Y-83649000D01*
X159151000Y-85551000D01*
G37*
G36*
X161151000Y-85551000D02*
G01*
X160049000Y-85551000D01*
X160049000Y-83649000D01*
X161151000Y-83649000D01*
X161151000Y-85551000D01*
G37*
G36*
X165151000Y-85551000D02*
G01*
X164049000Y-85551000D01*
X164049000Y-83649000D01*
X165151000Y-83649000D01*
X165151000Y-85551000D01*
G37*
G36*
X176823468Y-81041565D02*
G01*
X176862138Y-81053296D01*
X176897777Y-81072346D01*
X176929017Y-81097983D01*
X176954654Y-81129223D01*
X176973704Y-81164862D01*
X176985435Y-81203532D01*
X176990000Y-81249888D01*
X176990000Y-82326112D01*
X176985435Y-82372468D01*
X176973704Y-82411138D01*
X176954654Y-82446777D01*
X176929017Y-82478017D01*
X176897777Y-82503654D01*
X176862138Y-82522704D01*
X176823468Y-82534435D01*
X176777112Y-82539000D01*
X176125888Y-82539000D01*
X176079532Y-82534435D01*
X176040862Y-82522704D01*
X176005223Y-82503654D01*
X175973983Y-82478017D01*
X175948346Y-82446777D01*
X175929296Y-82411138D01*
X175917565Y-82372468D01*
X175913000Y-82326112D01*
X175913000Y-81249888D01*
X175917565Y-81203532D01*
X175929296Y-81164862D01*
X175948346Y-81129223D01*
X175973983Y-81097983D01*
X176005223Y-81072346D01*
X176040862Y-81053296D01*
X176079532Y-81041565D01*
X176125888Y-81037000D01*
X176777112Y-81037000D01*
X176823468Y-81041565D01*
G37*
G36*
X174948468Y-81041565D02*
G01*
X174987138Y-81053296D01*
X175022777Y-81072346D01*
X175054017Y-81097983D01*
X175079654Y-81129223D01*
X175098704Y-81164862D01*
X175110435Y-81203532D01*
X175115000Y-81249888D01*
X175115000Y-82326112D01*
X175110435Y-82372468D01*
X175098704Y-82411138D01*
X175079654Y-82446777D01*
X175054017Y-82478017D01*
X175022777Y-82503654D01*
X174987138Y-82522704D01*
X174948468Y-82534435D01*
X174902112Y-82539000D01*
X174250888Y-82539000D01*
X174204532Y-82534435D01*
X174165862Y-82522704D01*
X174130223Y-82503654D01*
X174098983Y-82478017D01*
X174073346Y-82446777D01*
X174054296Y-82411138D01*
X174042565Y-82372468D01*
X174038000Y-82326112D01*
X174038000Y-81249888D01*
X174042565Y-81203532D01*
X174054296Y-81164862D01*
X174073346Y-81129223D01*
X174098983Y-81097983D01*
X174130223Y-81072346D01*
X174165862Y-81053296D01*
X174204532Y-81041565D01*
X174250888Y-81037000D01*
X174902112Y-81037000D01*
X174948468Y-81041565D01*
G37*
G36*
X135029487Y-79098996D02*
G01*
X135266253Y-79197068D01*
X135266255Y-79197069D01*
X135471887Y-79334468D01*
X135479339Y-79339447D01*
X135660553Y-79520661D01*
X135802932Y-79733747D01*
X135901004Y-79970513D01*
X135951000Y-80221861D01*
X135951000Y-80478139D01*
X135901004Y-80729487D01*
X135802932Y-80966253D01*
X135802931Y-80966255D01*
X135660553Y-81179339D01*
X135479339Y-81360553D01*
X135266255Y-81502931D01*
X135266254Y-81502932D01*
X135266253Y-81502932D01*
X135029487Y-81601004D01*
X134778139Y-81651000D01*
X134521861Y-81651000D01*
X134270513Y-81601004D01*
X134033747Y-81502932D01*
X134033746Y-81502932D01*
X134033745Y-81502931D01*
X133820661Y-81360553D01*
X133639447Y-81179339D01*
X133497069Y-80966255D01*
X133497068Y-80966253D01*
X133398996Y-80729487D01*
X133349000Y-80478139D01*
X133349000Y-80221861D01*
X133398996Y-79970513D01*
X133497068Y-79733747D01*
X133639447Y-79520661D01*
X133820661Y-79339447D01*
X133828113Y-79334468D01*
X134033745Y-79197069D01*
X134033747Y-79197068D01*
X134270513Y-79098996D01*
X134521861Y-79049000D01*
X134778139Y-79049000D01*
X135029487Y-79098996D01*
G37*
G36*
X147029487Y-79098996D02*
G01*
X147266253Y-79197068D01*
X147266255Y-79197069D01*
X147471887Y-79334468D01*
X147479339Y-79339447D01*
X147660553Y-79520661D01*
X147802932Y-79733747D01*
X147901004Y-79970513D01*
X147951000Y-80221861D01*
X147951000Y-80478139D01*
X147901004Y-80729487D01*
X147802932Y-80966253D01*
X147802931Y-80966255D01*
X147660553Y-81179339D01*
X147479339Y-81360553D01*
X147266255Y-81502931D01*
X147266254Y-81502932D01*
X147266253Y-81502932D01*
X147029487Y-81601004D01*
X146778139Y-81651000D01*
X146521861Y-81651000D01*
X146270513Y-81601004D01*
X146033747Y-81502932D01*
X146033746Y-81502932D01*
X146033745Y-81502931D01*
X145820661Y-81360553D01*
X145639447Y-81179339D01*
X145497069Y-80966255D01*
X145497068Y-80966253D01*
X145398996Y-80729487D01*
X145349000Y-80478139D01*
X145349000Y-80221861D01*
X145398996Y-79970513D01*
X145497068Y-79733747D01*
X145639447Y-79520661D01*
X145820661Y-79339447D01*
X145828113Y-79334468D01*
X146033745Y-79197069D01*
X146033747Y-79197068D01*
X146270513Y-79098996D01*
X146521861Y-79049000D01*
X146778139Y-79049000D01*
X147029487Y-79098996D01*
G37*
G36*
X152884468Y-80303565D02*
G01*
X152923138Y-80315296D01*
X152958777Y-80334346D01*
X152990017Y-80359983D01*
X153015654Y-80391223D01*
X153034704Y-80426862D01*
X153046435Y-80465532D01*
X153051000Y-80511888D01*
X153051000Y-81163112D01*
X153046435Y-81209468D01*
X153034704Y-81248138D01*
X153015654Y-81283777D01*
X152990017Y-81315017D01*
X152958777Y-81340654D01*
X152923138Y-81359704D01*
X152884468Y-81371435D01*
X152838112Y-81376000D01*
X151761888Y-81376000D01*
X151715532Y-81371435D01*
X151676862Y-81359704D01*
X151641223Y-81340654D01*
X151609983Y-81315017D01*
X151584346Y-81283777D01*
X151565296Y-81248138D01*
X151553565Y-81209468D01*
X151549000Y-81163112D01*
X151549000Y-80511888D01*
X151553565Y-80465532D01*
X151565296Y-80426862D01*
X151584346Y-80391223D01*
X151609983Y-80359983D01*
X151641223Y-80334346D01*
X151676862Y-80315296D01*
X151715532Y-80303565D01*
X151761888Y-80299000D01*
X152838112Y-80299000D01*
X152884468Y-80303565D01*
G37*
G36*
X164899000Y-80655000D02*
G01*
X163297000Y-80655000D01*
X163297000Y-78553000D01*
X164899000Y-78553000D01*
X164899000Y-80655000D01*
G37*
G36*
X160299000Y-80655000D02*
G01*
X158697000Y-80655000D01*
X158697000Y-78553000D01*
X160299000Y-78553000D01*
X160299000Y-80655000D01*
G37*
G36*
X162599000Y-80655000D02*
G01*
X160997000Y-80655000D01*
X160997000Y-78553000D01*
X162599000Y-78553000D01*
X162599000Y-80655000D01*
G37*
G36*
X171235468Y-79009565D02*
G01*
X171274138Y-79021296D01*
X171309777Y-79040346D01*
X171341017Y-79065983D01*
X171366654Y-79097223D01*
X171385704Y-79132862D01*
X171397435Y-79171532D01*
X171402000Y-79217888D01*
X171402000Y-80294112D01*
X171397435Y-80340468D01*
X171385704Y-80379138D01*
X171366654Y-80414777D01*
X171341017Y-80446017D01*
X171309777Y-80471654D01*
X171274138Y-80490704D01*
X171235468Y-80502435D01*
X171189112Y-80507000D01*
X170537888Y-80507000D01*
X170491532Y-80502435D01*
X170452862Y-80490704D01*
X170417223Y-80471654D01*
X170385983Y-80446017D01*
X170360346Y-80414777D01*
X170341296Y-80379138D01*
X170329565Y-80340468D01*
X170325000Y-80294112D01*
X170325000Y-79217888D01*
X170329565Y-79171532D01*
X170341296Y-79132862D01*
X170360346Y-79097223D01*
X170385983Y-79065983D01*
X170417223Y-79040346D01*
X170452862Y-79021296D01*
X170491532Y-79009565D01*
X170537888Y-79005000D01*
X171189112Y-79005000D01*
X171235468Y-79009565D01*
G37*
G36*
X169360468Y-79009565D02*
G01*
X169399138Y-79021296D01*
X169434777Y-79040346D01*
X169466017Y-79065983D01*
X169491654Y-79097223D01*
X169510704Y-79132862D01*
X169522435Y-79171532D01*
X169527000Y-79217888D01*
X169527000Y-80294112D01*
X169522435Y-80340468D01*
X169510704Y-80379138D01*
X169491654Y-80414777D01*
X169466017Y-80446017D01*
X169434777Y-80471654D01*
X169399138Y-80490704D01*
X169360468Y-80502435D01*
X169314112Y-80507000D01*
X168662888Y-80507000D01*
X168616532Y-80502435D01*
X168577862Y-80490704D01*
X168542223Y-80471654D01*
X168510983Y-80446017D01*
X168485346Y-80414777D01*
X168466296Y-80379138D01*
X168454565Y-80340468D01*
X168450000Y-80294112D01*
X168450000Y-79217888D01*
X168454565Y-79171532D01*
X168466296Y-79132862D01*
X168485346Y-79097223D01*
X168510983Y-79065983D01*
X168542223Y-79040346D01*
X168577862Y-79021296D01*
X168616532Y-79009565D01*
X168662888Y-79005000D01*
X169314112Y-79005000D01*
X169360468Y-79009565D01*
G37*
G36*
X141002585Y-76878802D02*
G01*
X141152410Y-76908604D01*
X141434674Y-77025521D01*
X141688705Y-77195259D01*
X141904741Y-77411295D01*
X142074479Y-77665326D01*
X142191396Y-77947590D01*
X142251000Y-78247240D01*
X142251000Y-78552760D01*
X142191396Y-78852410D01*
X142074479Y-79134674D01*
X141904741Y-79388705D01*
X141688705Y-79604741D01*
X141434674Y-79774479D01*
X141152410Y-79891396D01*
X141002585Y-79921198D01*
X140852761Y-79951000D01*
X140547239Y-79951000D01*
X140397415Y-79921198D01*
X140247590Y-79891396D01*
X139965326Y-79774479D01*
X139711295Y-79604741D01*
X139495259Y-79388705D01*
X139325521Y-79134674D01*
X139208604Y-78852410D01*
X139149000Y-78552760D01*
X139149000Y-78247240D01*
X139208604Y-77947590D01*
X139325521Y-77665326D01*
X139495259Y-77411295D01*
X139711295Y-77195259D01*
X139965326Y-77025521D01*
X140247590Y-76908604D01*
X140397415Y-76878802D01*
X140547239Y-76849000D01*
X140852761Y-76849000D01*
X141002585Y-76878802D01*
G37*
G36*
X152884468Y-78428565D02*
G01*
X152923138Y-78440296D01*
X152958777Y-78459346D01*
X152990017Y-78484983D01*
X153015654Y-78516223D01*
X153034704Y-78551862D01*
X153046435Y-78590532D01*
X153051000Y-78636888D01*
X153051000Y-79288112D01*
X153046435Y-79334468D01*
X153034704Y-79373138D01*
X153015654Y-79408777D01*
X152990017Y-79440017D01*
X152958777Y-79465654D01*
X152923138Y-79484704D01*
X152884468Y-79496435D01*
X152838112Y-79501000D01*
X151761888Y-79501000D01*
X151715532Y-79496435D01*
X151676862Y-79484704D01*
X151641223Y-79465654D01*
X151609983Y-79440017D01*
X151584346Y-79408777D01*
X151565296Y-79373138D01*
X151553565Y-79334468D01*
X151549000Y-79288112D01*
X151549000Y-78636888D01*
X151553565Y-78590532D01*
X151565296Y-78551862D01*
X151584346Y-78516223D01*
X151609983Y-78484983D01*
X151641223Y-78459346D01*
X151676862Y-78440296D01*
X151715532Y-78428565D01*
X151761888Y-78424000D01*
X152838112Y-78424000D01*
X152884468Y-78428565D01*
G37*
G36*
X124151000Y-78026000D02*
G01*
X122049000Y-78026000D01*
X122049000Y-75624000D01*
X124151000Y-75624000D01*
X124151000Y-78026000D01*
G37*
G36*
X118450318Y-75670153D02*
G01*
X118668885Y-75760687D01*
X118668887Y-75760688D01*
X118865593Y-75892122D01*
X119032878Y-76059407D01*
X119164312Y-76256113D01*
X119164313Y-76256115D01*
X119254847Y-76474682D01*
X119301000Y-76706710D01*
X119301000Y-76943290D01*
X119254847Y-77175318D01*
X119164313Y-77393885D01*
X119164312Y-77393887D01*
X119032878Y-77590593D01*
X118865593Y-77757878D01*
X118668887Y-77889312D01*
X118668886Y-77889313D01*
X118668885Y-77889313D01*
X118450318Y-77979847D01*
X118218290Y-78026000D01*
X117981710Y-78026000D01*
X117749682Y-77979847D01*
X117531115Y-77889313D01*
X117531114Y-77889313D01*
X117531113Y-77889312D01*
X117334407Y-77757878D01*
X117167122Y-77590593D01*
X117035688Y-77393887D01*
X117035687Y-77393885D01*
X116945153Y-77175318D01*
X116899000Y-76943290D01*
X116899000Y-76706710D01*
X116945153Y-76474682D01*
X117035687Y-76256115D01*
X117035688Y-76256113D01*
X117167122Y-76059407D01*
X117334407Y-75892122D01*
X117531113Y-75760688D01*
X117531115Y-75760687D01*
X117749682Y-75670153D01*
X117981710Y-75624000D01*
X118218290Y-75624000D01*
X118450318Y-75670153D01*
G37*
G36*
X151206468Y-74063565D02*
G01*
X151245138Y-74075296D01*
X151280777Y-74094346D01*
X151312017Y-74119983D01*
X151337654Y-74151223D01*
X151356704Y-74186862D01*
X151368435Y-74225532D01*
X151373000Y-74271888D01*
X151373000Y-74923112D01*
X151368435Y-74969468D01*
X151356704Y-75008138D01*
X151337654Y-75043777D01*
X151312017Y-75075017D01*
X151280777Y-75100654D01*
X151245138Y-75119704D01*
X151206468Y-75131435D01*
X151160112Y-75136000D01*
X150083888Y-75136000D01*
X150037532Y-75131435D01*
X149998862Y-75119704D01*
X149963223Y-75100654D01*
X149931983Y-75075017D01*
X149906346Y-75043777D01*
X149887296Y-75008138D01*
X149875565Y-74969468D01*
X149871000Y-74923112D01*
X149871000Y-74271888D01*
X149875565Y-74225532D01*
X149887296Y-74186862D01*
X149906346Y-74151223D01*
X149931983Y-74119983D01*
X149963223Y-74094346D01*
X149998862Y-74075296D01*
X150037532Y-74063565D01*
X150083888Y-74059000D01*
X151160112Y-74059000D01*
X151206468Y-74063565D01*
G37*
G36*
X147805000Y-75061000D02*
G01*
X146803000Y-75061000D01*
X146803000Y-74159000D01*
X147805000Y-74159000D01*
X147805000Y-75061000D01*
G37*
G36*
X139901000Y-75001000D02*
G01*
X139299000Y-75001000D01*
X139299000Y-74399000D01*
X139901000Y-74399000D01*
X139901000Y-75001000D01*
G37*
G36*
X135712468Y-73809565D02*
G01*
X135751138Y-73821296D01*
X135786777Y-73840346D01*
X135818017Y-73865983D01*
X135843654Y-73897223D01*
X135862704Y-73932862D01*
X135874435Y-73971532D01*
X135879000Y-74017888D01*
X135879000Y-74669112D01*
X135874435Y-74715468D01*
X135862704Y-74754138D01*
X135843654Y-74789777D01*
X135818017Y-74821017D01*
X135786777Y-74846654D01*
X135751138Y-74865704D01*
X135712468Y-74877435D01*
X135666112Y-74882000D01*
X134589888Y-74882000D01*
X134543532Y-74877435D01*
X134504862Y-74865704D01*
X134469223Y-74846654D01*
X134437983Y-74821017D01*
X134412346Y-74789777D01*
X134393296Y-74754138D01*
X134381565Y-74715468D01*
X134377000Y-74669112D01*
X134377000Y-74017888D01*
X134381565Y-73971532D01*
X134393296Y-73932862D01*
X134412346Y-73897223D01*
X134437983Y-73865983D01*
X134469223Y-73840346D01*
X134504862Y-73821296D01*
X134543532Y-73809565D01*
X134589888Y-73805000D01*
X135666112Y-73805000D01*
X135712468Y-73809565D01*
G37*
G36*
X163749000Y-74355000D02*
G01*
X159847000Y-74355000D01*
X159847000Y-72253000D01*
X163749000Y-72253000D01*
X163749000Y-74355000D01*
G37*
G36*
X145805000Y-74111000D02*
G01*
X144803000Y-74111000D01*
X144803000Y-73209000D01*
X145805000Y-73209000D01*
X145805000Y-74111000D01*
G37*
G36*
X151206468Y-72188565D02*
G01*
X151245138Y-72200296D01*
X151280777Y-72219346D01*
X151312017Y-72244983D01*
X151337654Y-72276223D01*
X151356704Y-72311862D01*
X151368435Y-72350532D01*
X151373000Y-72396888D01*
X151373000Y-73048112D01*
X151368435Y-73094468D01*
X151356704Y-73133138D01*
X151337654Y-73168777D01*
X151312017Y-73200017D01*
X151280777Y-73225654D01*
X151245138Y-73244704D01*
X151206468Y-73256435D01*
X151160112Y-73261000D01*
X150083888Y-73261000D01*
X150037532Y-73256435D01*
X149998862Y-73244704D01*
X149963223Y-73225654D01*
X149931983Y-73200017D01*
X149906346Y-73168777D01*
X149887296Y-73133138D01*
X149875565Y-73094468D01*
X149871000Y-73048112D01*
X149871000Y-72396888D01*
X149875565Y-72350532D01*
X149887296Y-72311862D01*
X149906346Y-72276223D01*
X149931983Y-72244983D01*
X149963223Y-72219346D01*
X149998862Y-72200296D01*
X150037532Y-72188565D01*
X150083888Y-72184000D01*
X151160112Y-72184000D01*
X151206468Y-72188565D01*
G37*
G36*
X147805000Y-73161000D02*
G01*
X146803000Y-73161000D01*
X146803000Y-72259000D01*
X147805000Y-72259000D01*
X147805000Y-73161000D01*
G37*
G36*
X135712468Y-71934565D02*
G01*
X135751138Y-71946296D01*
X135786777Y-71965346D01*
X135818017Y-71990983D01*
X135843654Y-72022223D01*
X135862704Y-72057862D01*
X135874435Y-72096532D01*
X135879000Y-72142888D01*
X135879000Y-72794112D01*
X135874435Y-72840468D01*
X135862704Y-72879138D01*
X135843654Y-72914777D01*
X135818017Y-72946017D01*
X135786777Y-72971654D01*
X135751138Y-72990704D01*
X135712468Y-73002435D01*
X135666112Y-73007000D01*
X134589888Y-73007000D01*
X134543532Y-73002435D01*
X134504862Y-72990704D01*
X134469223Y-72971654D01*
X134437983Y-72946017D01*
X134412346Y-72914777D01*
X134393296Y-72879138D01*
X134381565Y-72840468D01*
X134377000Y-72794112D01*
X134377000Y-72142888D01*
X134381565Y-72096532D01*
X134393296Y-72057862D01*
X134412346Y-72022223D01*
X134437983Y-71990983D01*
X134469223Y-71965346D01*
X134504862Y-71946296D01*
X134543532Y-71934565D01*
X134589888Y-71930000D01*
X135666112Y-71930000D01*
X135712468Y-71934565D01*
G37*
G36*
X139901000Y-72801000D02*
G01*
X139299000Y-72801000D01*
X139299000Y-72199000D01*
X139901000Y-72199000D01*
X139901000Y-72801000D01*
G37*
M02*
