G04 #@! TF.GenerationSoftware,KiCad,Pcbnew,5.1.5+dfsg1-2build2*
G04 #@! TF.CreationDate,2021-03-10T23:59:30+01:00*
G04 #@! TF.ProjectId,iotOnOff,696f744f-6e4f-4666-962e-6b696361645f,rev?*
G04 #@! TF.SameCoordinates,Original*
G04 #@! TF.FileFunction,Profile,NP*
%FSLAX46Y46*%
G04 Gerber Fmt 4.6, Leading zero omitted, Abs format (unit mm)*
G04 Created by KiCad (PCBNEW 5.1.5+dfsg1-2build2) date 2021-03-10 23:59:30*
%MOMM*%
%LPD*%
G04 APERTURE LIST*
%ADD10C,0.100000*%
G04 APERTURE END LIST*
D10*
X180000000Y-74100000D02*
X184000000Y-74100000D01*
X180000000Y-70100000D02*
X180000000Y-74100000D01*
X100000000Y-110100000D02*
X100000000Y-100100000D01*
X98000000Y-83100000D02*
X103000000Y-83100000D01*
X103000000Y-83100000D02*
X103000000Y-80100000D01*
X103000000Y-100100000D02*
X103000000Y-97100000D01*
X98000000Y-97100000D02*
X98000000Y-83100000D01*
X100000000Y-80100000D02*
X100000000Y-70100000D01*
X100000000Y-100100000D02*
X103000000Y-100100000D01*
X103000000Y-80100000D02*
X100000000Y-80100000D01*
X103000000Y-97100000D02*
X98000000Y-97100000D01*
X184000000Y-100100000D02*
X184000000Y-110100000D01*
X181000000Y-100100000D02*
X184000000Y-100100000D01*
X181000000Y-97100000D02*
X181000000Y-100100000D01*
X186000000Y-97100000D02*
X181000000Y-97100000D01*
X186000000Y-83100000D02*
X186000000Y-97100000D01*
X181000000Y-83100000D02*
X186000000Y-83100000D01*
X181000000Y-80100000D02*
X181000000Y-83100000D01*
X184000000Y-80100000D02*
X181000000Y-80100000D01*
X184000000Y-74100000D02*
X184000000Y-80100000D01*
X184000000Y-110100000D02*
X100000000Y-110100000D01*
X100000000Y-70100000D02*
X180000000Y-70100000D01*
M02*
