G04 #@! TF.GenerationSoftware,KiCad,Pcbnew,5.1.5+dfsg1-2build2*
G04 #@! TF.CreationDate,2021-03-10T23:59:30+01:00*
G04 #@! TF.ProjectId,iotOnOff,696f744f-6e4f-4666-962e-6b696361645f,rev?*
G04 #@! TF.SameCoordinates,Original*
G04 #@! TF.FileFunction,Paste,Top*
G04 #@! TF.FilePolarity,Positive*
%FSLAX46Y46*%
G04 Gerber Fmt 4.6, Leading zero omitted, Abs format (unit mm)*
G04 Created by KiCad (PCBNEW 5.1.5+dfsg1-2build2) date 2021-03-10 23:59:30*
%MOMM*%
%LPD*%
G04 APERTURE LIST*
%ADD10R,2.500000X1.000000*%
%ADD11R,1.000000X1.800000*%
%ADD12C,0.100000*%
%ADD13R,0.900000X0.800000*%
%ADD14R,1.500000X2.000000*%
%ADD15R,3.800000X2.000000*%
%ADD16R,0.500000X0.500000*%
G04 APERTURE END LIST*
D10*
X156000000Y-100100000D03*
X156000000Y-98100000D03*
X156000000Y-96100000D03*
X156000000Y-94100000D03*
X156000000Y-92100000D03*
X156000000Y-90100000D03*
X156000000Y-88100000D03*
X156000000Y-86100000D03*
D11*
X158600000Y-84600000D03*
X160600000Y-84600000D03*
X162600000Y-84600000D03*
X164600000Y-84600000D03*
X166600000Y-84600000D03*
X168600000Y-84600000D03*
D10*
X171200000Y-86100000D03*
X171200000Y-88100000D03*
X171200000Y-90100000D03*
X171200000Y-92100000D03*
X171200000Y-94100000D03*
X171200000Y-96100000D03*
X171200000Y-98100000D03*
X171200000Y-100100000D03*
D12*
G36*
X174880142Y-99003174D02*
G01*
X174903803Y-99006684D01*
X174927007Y-99012496D01*
X174949529Y-99020554D01*
X174971153Y-99030782D01*
X174991670Y-99043079D01*
X175010883Y-99057329D01*
X175028607Y-99073393D01*
X175044671Y-99091117D01*
X175058921Y-99110330D01*
X175071218Y-99130847D01*
X175081446Y-99152471D01*
X175089504Y-99174993D01*
X175095316Y-99198197D01*
X175098826Y-99221858D01*
X175100000Y-99245750D01*
X175100000Y-99733250D01*
X175098826Y-99757142D01*
X175095316Y-99780803D01*
X175089504Y-99804007D01*
X175081446Y-99826529D01*
X175071218Y-99848153D01*
X175058921Y-99868670D01*
X175044671Y-99887883D01*
X175028607Y-99905607D01*
X175010883Y-99921671D01*
X174991670Y-99935921D01*
X174971153Y-99948218D01*
X174949529Y-99958446D01*
X174927007Y-99966504D01*
X174903803Y-99972316D01*
X174880142Y-99975826D01*
X174856250Y-99977000D01*
X173943750Y-99977000D01*
X173919858Y-99975826D01*
X173896197Y-99972316D01*
X173872993Y-99966504D01*
X173850471Y-99958446D01*
X173828847Y-99948218D01*
X173808330Y-99935921D01*
X173789117Y-99921671D01*
X173771393Y-99905607D01*
X173755329Y-99887883D01*
X173741079Y-99868670D01*
X173728782Y-99848153D01*
X173718554Y-99826529D01*
X173710496Y-99804007D01*
X173704684Y-99780803D01*
X173701174Y-99757142D01*
X173700000Y-99733250D01*
X173700000Y-99245750D01*
X173701174Y-99221858D01*
X173704684Y-99198197D01*
X173710496Y-99174993D01*
X173718554Y-99152471D01*
X173728782Y-99130847D01*
X173741079Y-99110330D01*
X173755329Y-99091117D01*
X173771393Y-99073393D01*
X173789117Y-99057329D01*
X173808330Y-99043079D01*
X173828847Y-99030782D01*
X173850471Y-99020554D01*
X173872993Y-99012496D01*
X173896197Y-99006684D01*
X173919858Y-99003174D01*
X173943750Y-99002000D01*
X174856250Y-99002000D01*
X174880142Y-99003174D01*
G37*
G36*
X174880142Y-97128174D02*
G01*
X174903803Y-97131684D01*
X174927007Y-97137496D01*
X174949529Y-97145554D01*
X174971153Y-97155782D01*
X174991670Y-97168079D01*
X175010883Y-97182329D01*
X175028607Y-97198393D01*
X175044671Y-97216117D01*
X175058921Y-97235330D01*
X175071218Y-97255847D01*
X175081446Y-97277471D01*
X175089504Y-97299993D01*
X175095316Y-97323197D01*
X175098826Y-97346858D01*
X175100000Y-97370750D01*
X175100000Y-97858250D01*
X175098826Y-97882142D01*
X175095316Y-97905803D01*
X175089504Y-97929007D01*
X175081446Y-97951529D01*
X175071218Y-97973153D01*
X175058921Y-97993670D01*
X175044671Y-98012883D01*
X175028607Y-98030607D01*
X175010883Y-98046671D01*
X174991670Y-98060921D01*
X174971153Y-98073218D01*
X174949529Y-98083446D01*
X174927007Y-98091504D01*
X174903803Y-98097316D01*
X174880142Y-98100826D01*
X174856250Y-98102000D01*
X173943750Y-98102000D01*
X173919858Y-98100826D01*
X173896197Y-98097316D01*
X173872993Y-98091504D01*
X173850471Y-98083446D01*
X173828847Y-98073218D01*
X173808330Y-98060921D01*
X173789117Y-98046671D01*
X173771393Y-98030607D01*
X173755329Y-98012883D01*
X173741079Y-97993670D01*
X173728782Y-97973153D01*
X173718554Y-97951529D01*
X173710496Y-97929007D01*
X173704684Y-97905803D01*
X173701174Y-97882142D01*
X173700000Y-97858250D01*
X173700000Y-97370750D01*
X173701174Y-97346858D01*
X173704684Y-97323197D01*
X173710496Y-97299993D01*
X173718554Y-97277471D01*
X173728782Y-97255847D01*
X173741079Y-97235330D01*
X173755329Y-97216117D01*
X173771393Y-97198393D01*
X173789117Y-97182329D01*
X173808330Y-97168079D01*
X173828847Y-97155782D01*
X173850471Y-97145554D01*
X173872993Y-97137496D01*
X173896197Y-97131684D01*
X173919858Y-97128174D01*
X173943750Y-97127000D01*
X174856250Y-97127000D01*
X174880142Y-97128174D01*
G37*
D13*
X147304000Y-74610000D03*
X147304000Y-72710000D03*
X145304000Y-73660000D03*
D14*
X159498000Y-79604000D03*
X164098000Y-79604000D03*
X161798000Y-79604000D03*
D15*
X161798000Y-73304000D03*
D12*
G36*
X171131142Y-79057174D02*
G01*
X171154803Y-79060684D01*
X171178007Y-79066496D01*
X171200529Y-79074554D01*
X171222153Y-79084782D01*
X171242670Y-79097079D01*
X171261883Y-79111329D01*
X171279607Y-79127393D01*
X171295671Y-79145117D01*
X171309921Y-79164330D01*
X171322218Y-79184847D01*
X171332446Y-79206471D01*
X171340504Y-79228993D01*
X171346316Y-79252197D01*
X171349826Y-79275858D01*
X171351000Y-79299750D01*
X171351000Y-80212250D01*
X171349826Y-80236142D01*
X171346316Y-80259803D01*
X171340504Y-80283007D01*
X171332446Y-80305529D01*
X171322218Y-80327153D01*
X171309921Y-80347670D01*
X171295671Y-80366883D01*
X171279607Y-80384607D01*
X171261883Y-80400671D01*
X171242670Y-80414921D01*
X171222153Y-80427218D01*
X171200529Y-80437446D01*
X171178007Y-80445504D01*
X171154803Y-80451316D01*
X171131142Y-80454826D01*
X171107250Y-80456000D01*
X170619750Y-80456000D01*
X170595858Y-80454826D01*
X170572197Y-80451316D01*
X170548993Y-80445504D01*
X170526471Y-80437446D01*
X170504847Y-80427218D01*
X170484330Y-80414921D01*
X170465117Y-80400671D01*
X170447393Y-80384607D01*
X170431329Y-80366883D01*
X170417079Y-80347670D01*
X170404782Y-80327153D01*
X170394554Y-80305529D01*
X170386496Y-80283007D01*
X170380684Y-80259803D01*
X170377174Y-80236142D01*
X170376000Y-80212250D01*
X170376000Y-79299750D01*
X170377174Y-79275858D01*
X170380684Y-79252197D01*
X170386496Y-79228993D01*
X170394554Y-79206471D01*
X170404782Y-79184847D01*
X170417079Y-79164330D01*
X170431329Y-79145117D01*
X170447393Y-79127393D01*
X170465117Y-79111329D01*
X170484330Y-79097079D01*
X170504847Y-79084782D01*
X170526471Y-79074554D01*
X170548993Y-79066496D01*
X170572197Y-79060684D01*
X170595858Y-79057174D01*
X170619750Y-79056000D01*
X171107250Y-79056000D01*
X171131142Y-79057174D01*
G37*
G36*
X169256142Y-79057174D02*
G01*
X169279803Y-79060684D01*
X169303007Y-79066496D01*
X169325529Y-79074554D01*
X169347153Y-79084782D01*
X169367670Y-79097079D01*
X169386883Y-79111329D01*
X169404607Y-79127393D01*
X169420671Y-79145117D01*
X169434921Y-79164330D01*
X169447218Y-79184847D01*
X169457446Y-79206471D01*
X169465504Y-79228993D01*
X169471316Y-79252197D01*
X169474826Y-79275858D01*
X169476000Y-79299750D01*
X169476000Y-80212250D01*
X169474826Y-80236142D01*
X169471316Y-80259803D01*
X169465504Y-80283007D01*
X169457446Y-80305529D01*
X169447218Y-80327153D01*
X169434921Y-80347670D01*
X169420671Y-80366883D01*
X169404607Y-80384607D01*
X169386883Y-80400671D01*
X169367670Y-80414921D01*
X169347153Y-80427218D01*
X169325529Y-80437446D01*
X169303007Y-80445504D01*
X169279803Y-80451316D01*
X169256142Y-80454826D01*
X169232250Y-80456000D01*
X168744750Y-80456000D01*
X168720858Y-80454826D01*
X168697197Y-80451316D01*
X168673993Y-80445504D01*
X168651471Y-80437446D01*
X168629847Y-80427218D01*
X168609330Y-80414921D01*
X168590117Y-80400671D01*
X168572393Y-80384607D01*
X168556329Y-80366883D01*
X168542079Y-80347670D01*
X168529782Y-80327153D01*
X168519554Y-80305529D01*
X168511496Y-80283007D01*
X168505684Y-80259803D01*
X168502174Y-80236142D01*
X168501000Y-80212250D01*
X168501000Y-79299750D01*
X168502174Y-79275858D01*
X168505684Y-79252197D01*
X168511496Y-79228993D01*
X168519554Y-79206471D01*
X168529782Y-79184847D01*
X168542079Y-79164330D01*
X168556329Y-79145117D01*
X168572393Y-79127393D01*
X168590117Y-79111329D01*
X168609330Y-79097079D01*
X168629847Y-79084782D01*
X168651471Y-79074554D01*
X168673993Y-79066496D01*
X168697197Y-79060684D01*
X168720858Y-79057174D01*
X168744750Y-79056000D01*
X169232250Y-79056000D01*
X169256142Y-79057174D01*
G37*
G36*
X151102142Y-74111174D02*
G01*
X151125803Y-74114684D01*
X151149007Y-74120496D01*
X151171529Y-74128554D01*
X151193153Y-74138782D01*
X151213670Y-74151079D01*
X151232883Y-74165329D01*
X151250607Y-74181393D01*
X151266671Y-74199117D01*
X151280921Y-74218330D01*
X151293218Y-74238847D01*
X151303446Y-74260471D01*
X151311504Y-74282993D01*
X151317316Y-74306197D01*
X151320826Y-74329858D01*
X151322000Y-74353750D01*
X151322000Y-74841250D01*
X151320826Y-74865142D01*
X151317316Y-74888803D01*
X151311504Y-74912007D01*
X151303446Y-74934529D01*
X151293218Y-74956153D01*
X151280921Y-74976670D01*
X151266671Y-74995883D01*
X151250607Y-75013607D01*
X151232883Y-75029671D01*
X151213670Y-75043921D01*
X151193153Y-75056218D01*
X151171529Y-75066446D01*
X151149007Y-75074504D01*
X151125803Y-75080316D01*
X151102142Y-75083826D01*
X151078250Y-75085000D01*
X150165750Y-75085000D01*
X150141858Y-75083826D01*
X150118197Y-75080316D01*
X150094993Y-75074504D01*
X150072471Y-75066446D01*
X150050847Y-75056218D01*
X150030330Y-75043921D01*
X150011117Y-75029671D01*
X149993393Y-75013607D01*
X149977329Y-74995883D01*
X149963079Y-74976670D01*
X149950782Y-74956153D01*
X149940554Y-74934529D01*
X149932496Y-74912007D01*
X149926684Y-74888803D01*
X149923174Y-74865142D01*
X149922000Y-74841250D01*
X149922000Y-74353750D01*
X149923174Y-74329858D01*
X149926684Y-74306197D01*
X149932496Y-74282993D01*
X149940554Y-74260471D01*
X149950782Y-74238847D01*
X149963079Y-74218330D01*
X149977329Y-74199117D01*
X149993393Y-74181393D01*
X150011117Y-74165329D01*
X150030330Y-74151079D01*
X150050847Y-74138782D01*
X150072471Y-74128554D01*
X150094993Y-74120496D01*
X150118197Y-74114684D01*
X150141858Y-74111174D01*
X150165750Y-74110000D01*
X151078250Y-74110000D01*
X151102142Y-74111174D01*
G37*
G36*
X151102142Y-72236174D02*
G01*
X151125803Y-72239684D01*
X151149007Y-72245496D01*
X151171529Y-72253554D01*
X151193153Y-72263782D01*
X151213670Y-72276079D01*
X151232883Y-72290329D01*
X151250607Y-72306393D01*
X151266671Y-72324117D01*
X151280921Y-72343330D01*
X151293218Y-72363847D01*
X151303446Y-72385471D01*
X151311504Y-72407993D01*
X151317316Y-72431197D01*
X151320826Y-72454858D01*
X151322000Y-72478750D01*
X151322000Y-72966250D01*
X151320826Y-72990142D01*
X151317316Y-73013803D01*
X151311504Y-73037007D01*
X151303446Y-73059529D01*
X151293218Y-73081153D01*
X151280921Y-73101670D01*
X151266671Y-73120883D01*
X151250607Y-73138607D01*
X151232883Y-73154671D01*
X151213670Y-73168921D01*
X151193153Y-73181218D01*
X151171529Y-73191446D01*
X151149007Y-73199504D01*
X151125803Y-73205316D01*
X151102142Y-73208826D01*
X151078250Y-73210000D01*
X150165750Y-73210000D01*
X150141858Y-73208826D01*
X150118197Y-73205316D01*
X150094993Y-73199504D01*
X150072471Y-73191446D01*
X150050847Y-73181218D01*
X150030330Y-73168921D01*
X150011117Y-73154671D01*
X149993393Y-73138607D01*
X149977329Y-73120883D01*
X149963079Y-73101670D01*
X149950782Y-73081153D01*
X149940554Y-73059529D01*
X149932496Y-73037007D01*
X149926684Y-73013803D01*
X149923174Y-72990142D01*
X149922000Y-72966250D01*
X149922000Y-72478750D01*
X149923174Y-72454858D01*
X149926684Y-72431197D01*
X149932496Y-72407993D01*
X149940554Y-72385471D01*
X149950782Y-72363847D01*
X149963079Y-72343330D01*
X149977329Y-72324117D01*
X149993393Y-72306393D01*
X150011117Y-72290329D01*
X150030330Y-72276079D01*
X150050847Y-72263782D01*
X150072471Y-72253554D01*
X150094993Y-72245496D01*
X150118197Y-72239684D01*
X150141858Y-72236174D01*
X150165750Y-72235000D01*
X151078250Y-72235000D01*
X151102142Y-72236174D01*
G37*
G36*
X176719142Y-81089174D02*
G01*
X176742803Y-81092684D01*
X176766007Y-81098496D01*
X176788529Y-81106554D01*
X176810153Y-81116782D01*
X176830670Y-81129079D01*
X176849883Y-81143329D01*
X176867607Y-81159393D01*
X176883671Y-81177117D01*
X176897921Y-81196330D01*
X176910218Y-81216847D01*
X176920446Y-81238471D01*
X176928504Y-81260993D01*
X176934316Y-81284197D01*
X176937826Y-81307858D01*
X176939000Y-81331750D01*
X176939000Y-82244250D01*
X176937826Y-82268142D01*
X176934316Y-82291803D01*
X176928504Y-82315007D01*
X176920446Y-82337529D01*
X176910218Y-82359153D01*
X176897921Y-82379670D01*
X176883671Y-82398883D01*
X176867607Y-82416607D01*
X176849883Y-82432671D01*
X176830670Y-82446921D01*
X176810153Y-82459218D01*
X176788529Y-82469446D01*
X176766007Y-82477504D01*
X176742803Y-82483316D01*
X176719142Y-82486826D01*
X176695250Y-82488000D01*
X176207750Y-82488000D01*
X176183858Y-82486826D01*
X176160197Y-82483316D01*
X176136993Y-82477504D01*
X176114471Y-82469446D01*
X176092847Y-82459218D01*
X176072330Y-82446921D01*
X176053117Y-82432671D01*
X176035393Y-82416607D01*
X176019329Y-82398883D01*
X176005079Y-82379670D01*
X175992782Y-82359153D01*
X175982554Y-82337529D01*
X175974496Y-82315007D01*
X175968684Y-82291803D01*
X175965174Y-82268142D01*
X175964000Y-82244250D01*
X175964000Y-81331750D01*
X175965174Y-81307858D01*
X175968684Y-81284197D01*
X175974496Y-81260993D01*
X175982554Y-81238471D01*
X175992782Y-81216847D01*
X176005079Y-81196330D01*
X176019329Y-81177117D01*
X176035393Y-81159393D01*
X176053117Y-81143329D01*
X176072330Y-81129079D01*
X176092847Y-81116782D01*
X176114471Y-81106554D01*
X176136993Y-81098496D01*
X176160197Y-81092684D01*
X176183858Y-81089174D01*
X176207750Y-81088000D01*
X176695250Y-81088000D01*
X176719142Y-81089174D01*
G37*
G36*
X174844142Y-81089174D02*
G01*
X174867803Y-81092684D01*
X174891007Y-81098496D01*
X174913529Y-81106554D01*
X174935153Y-81116782D01*
X174955670Y-81129079D01*
X174974883Y-81143329D01*
X174992607Y-81159393D01*
X175008671Y-81177117D01*
X175022921Y-81196330D01*
X175035218Y-81216847D01*
X175045446Y-81238471D01*
X175053504Y-81260993D01*
X175059316Y-81284197D01*
X175062826Y-81307858D01*
X175064000Y-81331750D01*
X175064000Y-82244250D01*
X175062826Y-82268142D01*
X175059316Y-82291803D01*
X175053504Y-82315007D01*
X175045446Y-82337529D01*
X175035218Y-82359153D01*
X175022921Y-82379670D01*
X175008671Y-82398883D01*
X174992607Y-82416607D01*
X174974883Y-82432671D01*
X174955670Y-82446921D01*
X174935153Y-82459218D01*
X174913529Y-82469446D01*
X174891007Y-82477504D01*
X174867803Y-82483316D01*
X174844142Y-82486826D01*
X174820250Y-82488000D01*
X174332750Y-82488000D01*
X174308858Y-82486826D01*
X174285197Y-82483316D01*
X174261993Y-82477504D01*
X174239471Y-82469446D01*
X174217847Y-82459218D01*
X174197330Y-82446921D01*
X174178117Y-82432671D01*
X174160393Y-82416607D01*
X174144329Y-82398883D01*
X174130079Y-82379670D01*
X174117782Y-82359153D01*
X174107554Y-82337529D01*
X174099496Y-82315007D01*
X174093684Y-82291803D01*
X174090174Y-82268142D01*
X174089000Y-82244250D01*
X174089000Y-81331750D01*
X174090174Y-81307858D01*
X174093684Y-81284197D01*
X174099496Y-81260993D01*
X174107554Y-81238471D01*
X174117782Y-81216847D01*
X174130079Y-81196330D01*
X174144329Y-81177117D01*
X174160393Y-81159393D01*
X174178117Y-81143329D01*
X174197330Y-81129079D01*
X174217847Y-81116782D01*
X174239471Y-81106554D01*
X174261993Y-81098496D01*
X174285197Y-81092684D01*
X174308858Y-81089174D01*
X174332750Y-81088000D01*
X174820250Y-81088000D01*
X174844142Y-81089174D01*
G37*
G36*
X138705142Y-107501174D02*
G01*
X138728803Y-107504684D01*
X138752007Y-107510496D01*
X138774529Y-107518554D01*
X138796153Y-107528782D01*
X138816670Y-107541079D01*
X138835883Y-107555329D01*
X138853607Y-107571393D01*
X138869671Y-107589117D01*
X138883921Y-107608330D01*
X138896218Y-107628847D01*
X138906446Y-107650471D01*
X138914504Y-107672993D01*
X138920316Y-107696197D01*
X138923826Y-107719858D01*
X138925000Y-107743750D01*
X138925000Y-108656250D01*
X138923826Y-108680142D01*
X138920316Y-108703803D01*
X138914504Y-108727007D01*
X138906446Y-108749529D01*
X138896218Y-108771153D01*
X138883921Y-108791670D01*
X138869671Y-108810883D01*
X138853607Y-108828607D01*
X138835883Y-108844671D01*
X138816670Y-108858921D01*
X138796153Y-108871218D01*
X138774529Y-108881446D01*
X138752007Y-108889504D01*
X138728803Y-108895316D01*
X138705142Y-108898826D01*
X138681250Y-108900000D01*
X138193750Y-108900000D01*
X138169858Y-108898826D01*
X138146197Y-108895316D01*
X138122993Y-108889504D01*
X138100471Y-108881446D01*
X138078847Y-108871218D01*
X138058330Y-108858921D01*
X138039117Y-108844671D01*
X138021393Y-108828607D01*
X138005329Y-108810883D01*
X137991079Y-108791670D01*
X137978782Y-108771153D01*
X137968554Y-108749529D01*
X137960496Y-108727007D01*
X137954684Y-108703803D01*
X137951174Y-108680142D01*
X137950000Y-108656250D01*
X137950000Y-107743750D01*
X137951174Y-107719858D01*
X137954684Y-107696197D01*
X137960496Y-107672993D01*
X137968554Y-107650471D01*
X137978782Y-107628847D01*
X137991079Y-107608330D01*
X138005329Y-107589117D01*
X138021393Y-107571393D01*
X138039117Y-107555329D01*
X138058330Y-107541079D01*
X138078847Y-107528782D01*
X138100471Y-107518554D01*
X138122993Y-107510496D01*
X138146197Y-107504684D01*
X138169858Y-107501174D01*
X138193750Y-107500000D01*
X138681250Y-107500000D01*
X138705142Y-107501174D01*
G37*
G36*
X136830142Y-107501174D02*
G01*
X136853803Y-107504684D01*
X136877007Y-107510496D01*
X136899529Y-107518554D01*
X136921153Y-107528782D01*
X136941670Y-107541079D01*
X136960883Y-107555329D01*
X136978607Y-107571393D01*
X136994671Y-107589117D01*
X137008921Y-107608330D01*
X137021218Y-107628847D01*
X137031446Y-107650471D01*
X137039504Y-107672993D01*
X137045316Y-107696197D01*
X137048826Y-107719858D01*
X137050000Y-107743750D01*
X137050000Y-108656250D01*
X137048826Y-108680142D01*
X137045316Y-108703803D01*
X137039504Y-108727007D01*
X137031446Y-108749529D01*
X137021218Y-108771153D01*
X137008921Y-108791670D01*
X136994671Y-108810883D01*
X136978607Y-108828607D01*
X136960883Y-108844671D01*
X136941670Y-108858921D01*
X136921153Y-108871218D01*
X136899529Y-108881446D01*
X136877007Y-108889504D01*
X136853803Y-108895316D01*
X136830142Y-108898826D01*
X136806250Y-108900000D01*
X136318750Y-108900000D01*
X136294858Y-108898826D01*
X136271197Y-108895316D01*
X136247993Y-108889504D01*
X136225471Y-108881446D01*
X136203847Y-108871218D01*
X136183330Y-108858921D01*
X136164117Y-108844671D01*
X136146393Y-108828607D01*
X136130329Y-108810883D01*
X136116079Y-108791670D01*
X136103782Y-108771153D01*
X136093554Y-108749529D01*
X136085496Y-108727007D01*
X136079684Y-108703803D01*
X136076174Y-108680142D01*
X136075000Y-108656250D01*
X136075000Y-107743750D01*
X136076174Y-107719858D01*
X136079684Y-107696197D01*
X136085496Y-107672993D01*
X136093554Y-107650471D01*
X136103782Y-107628847D01*
X136116079Y-107608330D01*
X136130329Y-107589117D01*
X136146393Y-107571393D01*
X136164117Y-107555329D01*
X136183330Y-107541079D01*
X136203847Y-107528782D01*
X136225471Y-107518554D01*
X136247993Y-107510496D01*
X136271197Y-107504684D01*
X136294858Y-107501174D01*
X136318750Y-107500000D01*
X136806250Y-107500000D01*
X136830142Y-107501174D01*
G37*
D16*
X139600000Y-74700000D03*
X139600000Y-72500000D03*
D12*
G36*
X152780142Y-80351174D02*
G01*
X152803803Y-80354684D01*
X152827007Y-80360496D01*
X152849529Y-80368554D01*
X152871153Y-80378782D01*
X152891670Y-80391079D01*
X152910883Y-80405329D01*
X152928607Y-80421393D01*
X152944671Y-80439117D01*
X152958921Y-80458330D01*
X152971218Y-80478847D01*
X152981446Y-80500471D01*
X152989504Y-80522993D01*
X152995316Y-80546197D01*
X152998826Y-80569858D01*
X153000000Y-80593750D01*
X153000000Y-81081250D01*
X152998826Y-81105142D01*
X152995316Y-81128803D01*
X152989504Y-81152007D01*
X152981446Y-81174529D01*
X152971218Y-81196153D01*
X152958921Y-81216670D01*
X152944671Y-81235883D01*
X152928607Y-81253607D01*
X152910883Y-81269671D01*
X152891670Y-81283921D01*
X152871153Y-81296218D01*
X152849529Y-81306446D01*
X152827007Y-81314504D01*
X152803803Y-81320316D01*
X152780142Y-81323826D01*
X152756250Y-81325000D01*
X151843750Y-81325000D01*
X151819858Y-81323826D01*
X151796197Y-81320316D01*
X151772993Y-81314504D01*
X151750471Y-81306446D01*
X151728847Y-81296218D01*
X151708330Y-81283921D01*
X151689117Y-81269671D01*
X151671393Y-81253607D01*
X151655329Y-81235883D01*
X151641079Y-81216670D01*
X151628782Y-81196153D01*
X151618554Y-81174529D01*
X151610496Y-81152007D01*
X151604684Y-81128803D01*
X151601174Y-81105142D01*
X151600000Y-81081250D01*
X151600000Y-80593750D01*
X151601174Y-80569858D01*
X151604684Y-80546197D01*
X151610496Y-80522993D01*
X151618554Y-80500471D01*
X151628782Y-80478847D01*
X151641079Y-80458330D01*
X151655329Y-80439117D01*
X151671393Y-80421393D01*
X151689117Y-80405329D01*
X151708330Y-80391079D01*
X151728847Y-80378782D01*
X151750471Y-80368554D01*
X151772993Y-80360496D01*
X151796197Y-80354684D01*
X151819858Y-80351174D01*
X151843750Y-80350000D01*
X152756250Y-80350000D01*
X152780142Y-80351174D01*
G37*
G36*
X152780142Y-78476174D02*
G01*
X152803803Y-78479684D01*
X152827007Y-78485496D01*
X152849529Y-78493554D01*
X152871153Y-78503782D01*
X152891670Y-78516079D01*
X152910883Y-78530329D01*
X152928607Y-78546393D01*
X152944671Y-78564117D01*
X152958921Y-78583330D01*
X152971218Y-78603847D01*
X152981446Y-78625471D01*
X152989504Y-78647993D01*
X152995316Y-78671197D01*
X152998826Y-78694858D01*
X153000000Y-78718750D01*
X153000000Y-79206250D01*
X152998826Y-79230142D01*
X152995316Y-79253803D01*
X152989504Y-79277007D01*
X152981446Y-79299529D01*
X152971218Y-79321153D01*
X152958921Y-79341670D01*
X152944671Y-79360883D01*
X152928607Y-79378607D01*
X152910883Y-79394671D01*
X152891670Y-79408921D01*
X152871153Y-79421218D01*
X152849529Y-79431446D01*
X152827007Y-79439504D01*
X152803803Y-79445316D01*
X152780142Y-79448826D01*
X152756250Y-79450000D01*
X151843750Y-79450000D01*
X151819858Y-79448826D01*
X151796197Y-79445316D01*
X151772993Y-79439504D01*
X151750471Y-79431446D01*
X151728847Y-79421218D01*
X151708330Y-79408921D01*
X151689117Y-79394671D01*
X151671393Y-79378607D01*
X151655329Y-79360883D01*
X151641079Y-79341670D01*
X151628782Y-79321153D01*
X151618554Y-79299529D01*
X151610496Y-79277007D01*
X151604684Y-79253803D01*
X151601174Y-79230142D01*
X151600000Y-79206250D01*
X151600000Y-78718750D01*
X151601174Y-78694858D01*
X151604684Y-78671197D01*
X151610496Y-78647993D01*
X151618554Y-78625471D01*
X151628782Y-78603847D01*
X151641079Y-78583330D01*
X151655329Y-78564117D01*
X151671393Y-78546393D01*
X151689117Y-78530329D01*
X151708330Y-78516079D01*
X151728847Y-78503782D01*
X151750471Y-78493554D01*
X151772993Y-78485496D01*
X151796197Y-78479684D01*
X151819858Y-78476174D01*
X151843750Y-78475000D01*
X152756250Y-78475000D01*
X152780142Y-78476174D01*
G37*
G36*
X135608142Y-71982174D02*
G01*
X135631803Y-71985684D01*
X135655007Y-71991496D01*
X135677529Y-71999554D01*
X135699153Y-72009782D01*
X135719670Y-72022079D01*
X135738883Y-72036329D01*
X135756607Y-72052393D01*
X135772671Y-72070117D01*
X135786921Y-72089330D01*
X135799218Y-72109847D01*
X135809446Y-72131471D01*
X135817504Y-72153993D01*
X135823316Y-72177197D01*
X135826826Y-72200858D01*
X135828000Y-72224750D01*
X135828000Y-72712250D01*
X135826826Y-72736142D01*
X135823316Y-72759803D01*
X135817504Y-72783007D01*
X135809446Y-72805529D01*
X135799218Y-72827153D01*
X135786921Y-72847670D01*
X135772671Y-72866883D01*
X135756607Y-72884607D01*
X135738883Y-72900671D01*
X135719670Y-72914921D01*
X135699153Y-72927218D01*
X135677529Y-72937446D01*
X135655007Y-72945504D01*
X135631803Y-72951316D01*
X135608142Y-72954826D01*
X135584250Y-72956000D01*
X134671750Y-72956000D01*
X134647858Y-72954826D01*
X134624197Y-72951316D01*
X134600993Y-72945504D01*
X134578471Y-72937446D01*
X134556847Y-72927218D01*
X134536330Y-72914921D01*
X134517117Y-72900671D01*
X134499393Y-72884607D01*
X134483329Y-72866883D01*
X134469079Y-72847670D01*
X134456782Y-72827153D01*
X134446554Y-72805529D01*
X134438496Y-72783007D01*
X134432684Y-72759803D01*
X134429174Y-72736142D01*
X134428000Y-72712250D01*
X134428000Y-72224750D01*
X134429174Y-72200858D01*
X134432684Y-72177197D01*
X134438496Y-72153993D01*
X134446554Y-72131471D01*
X134456782Y-72109847D01*
X134469079Y-72089330D01*
X134483329Y-72070117D01*
X134499393Y-72052393D01*
X134517117Y-72036329D01*
X134536330Y-72022079D01*
X134556847Y-72009782D01*
X134578471Y-71999554D01*
X134600993Y-71991496D01*
X134624197Y-71985684D01*
X134647858Y-71982174D01*
X134671750Y-71981000D01*
X135584250Y-71981000D01*
X135608142Y-71982174D01*
G37*
G36*
X135608142Y-73857174D02*
G01*
X135631803Y-73860684D01*
X135655007Y-73866496D01*
X135677529Y-73874554D01*
X135699153Y-73884782D01*
X135719670Y-73897079D01*
X135738883Y-73911329D01*
X135756607Y-73927393D01*
X135772671Y-73945117D01*
X135786921Y-73964330D01*
X135799218Y-73984847D01*
X135809446Y-74006471D01*
X135817504Y-74028993D01*
X135823316Y-74052197D01*
X135826826Y-74075858D01*
X135828000Y-74099750D01*
X135828000Y-74587250D01*
X135826826Y-74611142D01*
X135823316Y-74634803D01*
X135817504Y-74658007D01*
X135809446Y-74680529D01*
X135799218Y-74702153D01*
X135786921Y-74722670D01*
X135772671Y-74741883D01*
X135756607Y-74759607D01*
X135738883Y-74775671D01*
X135719670Y-74789921D01*
X135699153Y-74802218D01*
X135677529Y-74812446D01*
X135655007Y-74820504D01*
X135631803Y-74826316D01*
X135608142Y-74829826D01*
X135584250Y-74831000D01*
X134671750Y-74831000D01*
X134647858Y-74829826D01*
X134624197Y-74826316D01*
X134600993Y-74820504D01*
X134578471Y-74812446D01*
X134556847Y-74802218D01*
X134536330Y-74789921D01*
X134517117Y-74775671D01*
X134499393Y-74759607D01*
X134483329Y-74741883D01*
X134469079Y-74722670D01*
X134456782Y-74702153D01*
X134446554Y-74680529D01*
X134438496Y-74658007D01*
X134432684Y-74634803D01*
X134429174Y-74611142D01*
X134428000Y-74587250D01*
X134428000Y-74099750D01*
X134429174Y-74075858D01*
X134432684Y-74052197D01*
X134438496Y-74028993D01*
X134446554Y-74006471D01*
X134456782Y-73984847D01*
X134469079Y-73964330D01*
X134483329Y-73945117D01*
X134499393Y-73927393D01*
X134517117Y-73911329D01*
X134536330Y-73897079D01*
X134556847Y-73884782D01*
X134578471Y-73874554D01*
X134600993Y-73866496D01*
X134624197Y-73860684D01*
X134647858Y-73857174D01*
X134671750Y-73856000D01*
X135584250Y-73856000D01*
X135608142Y-73857174D01*
G37*
M02*
