G04 #@! TF.GenerationSoftware,KiCad,Pcbnew,5.1.5+dfsg1-2build2*
G04 #@! TF.CreationDate,2021-03-10T23:59:30+01:00*
G04 #@! TF.ProjectId,iotOnOff,696f744f-6e4f-4666-962e-6b696361645f,rev?*
G04 #@! TF.SameCoordinates,Original*
G04 #@! TF.FileFunction,Copper,L2,Bot*
G04 #@! TF.FilePolarity,Positive*
%FSLAX46Y46*%
G04 Gerber Fmt 4.6, Leading zero omitted, Abs format (unit mm)*
G04 Created by KiCad (PCBNEW 5.1.5+dfsg1-2build2) date 2021-03-10 23:59:30*
%MOMM*%
%LPD*%
G04 APERTURE LIST*
%ADD10R,2.600000X2.600000*%
%ADD11C,2.600000*%
%ADD12C,2.300000*%
%ADD13R,2.000000X2.300000*%
%ADD14C,1.800000*%
%ADD15R,1.800000X1.800000*%
%ADD16C,2.000000*%
%ADD17C,3.000000*%
%ADD18C,2.500000*%
%ADD19O,1.700000X1.700000*%
%ADD20R,1.700000X1.700000*%
%ADD21C,0.800000*%
%ADD22C,3.500000*%
%ADD23C,0.254000*%
G04 APERTURE END LIST*
D10*
X103595000Y-92200000D03*
D11*
X103595000Y-87120000D03*
D12*
X128300000Y-106225000D03*
D13*
X123100000Y-76825000D03*
D12*
X118100000Y-76825000D03*
X112900000Y-106225000D03*
D14*
X147840000Y-101250000D03*
D15*
X145300000Y-101250000D03*
D10*
X180400000Y-92800000D03*
D11*
X180400000Y-87720000D03*
D16*
X134400000Y-103500000D03*
X134400000Y-99000000D03*
X140900000Y-103500000D03*
X140900000Y-99000000D03*
D17*
X140700000Y-78400000D03*
D18*
X146650000Y-80350000D03*
D17*
X146700000Y-92600000D03*
X134650000Y-92550000D03*
D18*
X134650000Y-80350000D03*
D19*
X178562000Y-100330000D03*
X178562000Y-102870000D03*
X178562000Y-105410000D03*
D20*
X178562000Y-107950000D03*
D21*
X172667000Y-106225000D02*
X178562000Y-100330000D01*
X128300000Y-106225000D02*
X172667000Y-106225000D01*
X134400000Y-103500000D02*
X140900000Y-103500000D01*
X143050000Y-103500000D02*
X145300000Y-101250000D01*
X140900000Y-103500000D02*
X143050000Y-103500000D01*
D22*
X113890000Y-76825000D02*
X118100000Y-76825000D01*
X103595000Y-87120000D02*
X113890000Y-76825000D01*
X118100000Y-75198655D02*
X118100000Y-76825000D01*
X121098645Y-72200010D02*
X118100000Y-75198655D01*
X176200010Y-72200010D02*
X121098645Y-72200010D01*
X177899990Y-73899990D02*
X176200010Y-72200010D01*
X177899990Y-85219990D02*
X177899990Y-73899990D01*
X180400000Y-87720000D02*
X177899990Y-85219990D01*
X123100000Y-81000000D02*
X134650000Y-92550000D01*
X123100000Y-76825000D02*
X123100000Y-81000000D01*
X103945000Y-92550000D02*
X103595000Y-92200000D01*
X134650000Y-92550000D02*
X103945000Y-92550000D01*
X175600000Y-92800000D02*
X172466000Y-89666000D01*
X180400000Y-92800000D02*
X175600000Y-92800000D01*
X172466000Y-89666000D02*
X172466000Y-79248000D01*
X142199999Y-76900001D02*
X140700000Y-78400000D01*
X170118001Y-76900001D02*
X142199999Y-76900001D01*
X172466000Y-79248000D02*
X170118001Y-76900001D01*
D21*
X134400000Y-99000000D02*
X140900000Y-99000000D01*
D23*
G36*
X121674502Y-73939786D02*
G01*
X119461137Y-75810606D01*
X119342349Y-75762256D01*
X118381166Y-76723439D01*
X118061090Y-76993980D01*
X117906253Y-76839143D01*
X117920395Y-76825000D01*
X116857651Y-75762256D01*
X116577910Y-75876118D01*
X116422039Y-76191296D01*
X116330651Y-76530826D01*
X116307259Y-76881661D01*
X116352760Y-77230319D01*
X116465406Y-77563400D01*
X116577910Y-77773882D01*
X116857649Y-77887743D01*
X116742338Y-78003054D01*
X116799558Y-78060274D01*
X105456724Y-87647670D01*
X105511250Y-87449443D01*
X105538701Y-87069271D01*
X105491457Y-86691049D01*
X105371333Y-86329310D01*
X105239312Y-86082317D01*
X104944224Y-85950381D01*
X103774605Y-87120000D01*
X103788748Y-87134143D01*
X103609143Y-87313748D01*
X103595000Y-87299605D01*
X102425381Y-88469224D01*
X102557317Y-88764312D01*
X102574644Y-88773000D01*
X98685000Y-88773000D01*
X98685000Y-87170729D01*
X101651299Y-87170729D01*
X101698543Y-87548951D01*
X101818667Y-87910690D01*
X101950688Y-88157683D01*
X102245776Y-88289619D01*
X103415395Y-87120000D01*
X102245776Y-85950381D01*
X101950688Y-86082317D01*
X101779841Y-86423045D01*
X101678750Y-86790557D01*
X101651299Y-87170729D01*
X98685000Y-87170729D01*
X98685000Y-85770776D01*
X102425381Y-85770776D01*
X103595000Y-86940395D01*
X104764619Y-85770776D01*
X104632683Y-85475688D01*
X104291955Y-85304841D01*
X103924443Y-85203750D01*
X103544271Y-85176299D01*
X103166049Y-85223543D01*
X102804310Y-85343667D01*
X102557317Y-85475688D01*
X102425381Y-85770776D01*
X98685000Y-85770776D01*
X98685000Y-83785000D01*
X102966353Y-83785000D01*
X103000000Y-83788314D01*
X103033647Y-83785000D01*
X103134283Y-83775088D01*
X103263406Y-83735919D01*
X103382407Y-83672312D01*
X103486711Y-83586711D01*
X103572312Y-83482407D01*
X103635919Y-83363406D01*
X103675088Y-83234283D01*
X103688314Y-83100000D01*
X103685000Y-83066353D01*
X103685000Y-80133646D01*
X103688314Y-80100000D01*
X103675088Y-79965717D01*
X103635919Y-79836594D01*
X103572312Y-79717593D01*
X103486711Y-79613289D01*
X103382407Y-79527688D01*
X103263406Y-79464081D01*
X103134283Y-79424912D01*
X103033647Y-79415000D01*
X103000000Y-79411686D01*
X102966353Y-79415000D01*
X100685000Y-79415000D01*
X100685000Y-75582651D01*
X117037256Y-75582651D01*
X118100000Y-76645395D01*
X119162744Y-75582651D01*
X119048882Y-75302910D01*
X118733704Y-75147039D01*
X118394174Y-75055651D01*
X118043339Y-75032259D01*
X117694681Y-75077760D01*
X117361600Y-75190406D01*
X117151118Y-75302910D01*
X117037256Y-75582651D01*
X100685000Y-75582651D01*
X100685000Y-70785000D01*
X121755394Y-70785000D01*
X121674502Y-73939786D01*
G37*
X121674502Y-73939786D02*
X119461137Y-75810606D01*
X119342349Y-75762256D01*
X118381166Y-76723439D01*
X118061090Y-76993980D01*
X117906253Y-76839143D01*
X117920395Y-76825000D01*
X116857651Y-75762256D01*
X116577910Y-75876118D01*
X116422039Y-76191296D01*
X116330651Y-76530826D01*
X116307259Y-76881661D01*
X116352760Y-77230319D01*
X116465406Y-77563400D01*
X116577910Y-77773882D01*
X116857649Y-77887743D01*
X116742338Y-78003054D01*
X116799558Y-78060274D01*
X105456724Y-87647670D01*
X105511250Y-87449443D01*
X105538701Y-87069271D01*
X105491457Y-86691049D01*
X105371333Y-86329310D01*
X105239312Y-86082317D01*
X104944224Y-85950381D01*
X103774605Y-87120000D01*
X103788748Y-87134143D01*
X103609143Y-87313748D01*
X103595000Y-87299605D01*
X102425381Y-88469224D01*
X102557317Y-88764312D01*
X102574644Y-88773000D01*
X98685000Y-88773000D01*
X98685000Y-87170729D01*
X101651299Y-87170729D01*
X101698543Y-87548951D01*
X101818667Y-87910690D01*
X101950688Y-88157683D01*
X102245776Y-88289619D01*
X103415395Y-87120000D01*
X102245776Y-85950381D01*
X101950688Y-86082317D01*
X101779841Y-86423045D01*
X101678750Y-86790557D01*
X101651299Y-87170729D01*
X98685000Y-87170729D01*
X98685000Y-85770776D01*
X102425381Y-85770776D01*
X103595000Y-86940395D01*
X104764619Y-85770776D01*
X104632683Y-85475688D01*
X104291955Y-85304841D01*
X103924443Y-85203750D01*
X103544271Y-85176299D01*
X103166049Y-85223543D01*
X102804310Y-85343667D01*
X102557317Y-85475688D01*
X102425381Y-85770776D01*
X98685000Y-85770776D01*
X98685000Y-83785000D01*
X102966353Y-83785000D01*
X103000000Y-83788314D01*
X103033647Y-83785000D01*
X103134283Y-83775088D01*
X103263406Y-83735919D01*
X103382407Y-83672312D01*
X103486711Y-83586711D01*
X103572312Y-83482407D01*
X103635919Y-83363406D01*
X103675088Y-83234283D01*
X103688314Y-83100000D01*
X103685000Y-83066353D01*
X103685000Y-80133646D01*
X103688314Y-80100000D01*
X103675088Y-79965717D01*
X103635919Y-79836594D01*
X103572312Y-79717593D01*
X103486711Y-79613289D01*
X103382407Y-79527688D01*
X103263406Y-79464081D01*
X103134283Y-79424912D01*
X103033647Y-79415000D01*
X103000000Y-79411686D01*
X102966353Y-79415000D01*
X100685000Y-79415000D01*
X100685000Y-75582651D01*
X117037256Y-75582651D01*
X118100000Y-76645395D01*
X119162744Y-75582651D01*
X119048882Y-75302910D01*
X118733704Y-75147039D01*
X118394174Y-75055651D01*
X118043339Y-75032259D01*
X117694681Y-75077760D01*
X117361600Y-75190406D01*
X117151118Y-75302910D01*
X117037256Y-75582651D01*
X100685000Y-75582651D01*
X100685000Y-70785000D01*
X121755394Y-70785000D01*
X121674502Y-73939786D01*
G36*
X135006099Y-90436361D02*
G01*
X134607176Y-90405098D01*
X134189549Y-90454666D01*
X133789617Y-90584757D01*
X133493962Y-90742786D01*
X133337952Y-91058347D01*
X134650000Y-92370395D01*
X134664143Y-92356253D01*
X134843748Y-92535858D01*
X134829605Y-92550000D01*
X134843748Y-92564143D01*
X134664143Y-92743748D01*
X134650000Y-92729605D01*
X133337952Y-94041653D01*
X133355646Y-94077443D01*
X98685000Y-94171148D01*
X98685000Y-93500000D01*
X101656928Y-93500000D01*
X101669188Y-93624482D01*
X101705498Y-93744180D01*
X101764463Y-93854494D01*
X101843815Y-93951185D01*
X101940506Y-94030537D01*
X102050820Y-94089502D01*
X102170518Y-94125812D01*
X102295000Y-94138072D01*
X103309250Y-94135000D01*
X103468000Y-93976250D01*
X103468000Y-92327000D01*
X103722000Y-92327000D01*
X103722000Y-93976250D01*
X103880750Y-94135000D01*
X104895000Y-94138072D01*
X105019482Y-94125812D01*
X105139180Y-94089502D01*
X105249494Y-94030537D01*
X105346185Y-93951185D01*
X105425537Y-93854494D01*
X105484502Y-93744180D01*
X105520812Y-93624482D01*
X105533072Y-93500000D01*
X105530325Y-92592824D01*
X132505098Y-92592824D01*
X132554666Y-93010451D01*
X132684757Y-93410383D01*
X132842786Y-93706038D01*
X133158347Y-93862048D01*
X134470395Y-92550000D01*
X133158347Y-91237952D01*
X132842786Y-91393962D01*
X132651980Y-91768745D01*
X132537956Y-92173551D01*
X132505098Y-92592824D01*
X105530325Y-92592824D01*
X105530000Y-92485750D01*
X105371250Y-92327000D01*
X103722000Y-92327000D01*
X103468000Y-92327000D01*
X101818750Y-92327000D01*
X101660000Y-92485750D01*
X101656928Y-93500000D01*
X98685000Y-93500000D01*
X98685000Y-90927000D01*
X101657010Y-90927000D01*
X101660000Y-91914250D01*
X101818750Y-92073000D01*
X103468000Y-92073000D01*
X103468000Y-92053000D01*
X103722000Y-92053000D01*
X103722000Y-92073000D01*
X105371250Y-92073000D01*
X105530000Y-91914250D01*
X105532990Y-90927000D01*
X105998426Y-90927000D01*
X109996826Y-91026960D01*
X110021656Y-91025140D01*
X110045653Y-91018511D01*
X110067896Y-91007327D01*
X110079758Y-90998831D01*
X121479758Y-81798831D01*
X121497507Y-81781372D01*
X121511198Y-81761351D01*
X123298186Y-78522436D01*
X123385750Y-78610000D01*
X124100000Y-78613072D01*
X124224482Y-78600812D01*
X124344180Y-78564502D01*
X124454494Y-78505537D01*
X124551185Y-78426185D01*
X124630537Y-78329494D01*
X124689502Y-78219180D01*
X124725812Y-78099482D01*
X124738072Y-77975000D01*
X124735000Y-77110750D01*
X124576250Y-76952000D01*
X124164633Y-76952000D01*
X124304771Y-76698000D01*
X124576250Y-76698000D01*
X124735000Y-76539250D01*
X124735840Y-76302976D01*
X135006099Y-90436361D01*
G37*
X135006099Y-90436361D02*
X134607176Y-90405098D01*
X134189549Y-90454666D01*
X133789617Y-90584757D01*
X133493962Y-90742786D01*
X133337952Y-91058347D01*
X134650000Y-92370395D01*
X134664143Y-92356253D01*
X134843748Y-92535858D01*
X134829605Y-92550000D01*
X134843748Y-92564143D01*
X134664143Y-92743748D01*
X134650000Y-92729605D01*
X133337952Y-94041653D01*
X133355646Y-94077443D01*
X98685000Y-94171148D01*
X98685000Y-93500000D01*
X101656928Y-93500000D01*
X101669188Y-93624482D01*
X101705498Y-93744180D01*
X101764463Y-93854494D01*
X101843815Y-93951185D01*
X101940506Y-94030537D01*
X102050820Y-94089502D01*
X102170518Y-94125812D01*
X102295000Y-94138072D01*
X103309250Y-94135000D01*
X103468000Y-93976250D01*
X103468000Y-92327000D01*
X103722000Y-92327000D01*
X103722000Y-93976250D01*
X103880750Y-94135000D01*
X104895000Y-94138072D01*
X105019482Y-94125812D01*
X105139180Y-94089502D01*
X105249494Y-94030537D01*
X105346185Y-93951185D01*
X105425537Y-93854494D01*
X105484502Y-93744180D01*
X105520812Y-93624482D01*
X105533072Y-93500000D01*
X105530325Y-92592824D01*
X132505098Y-92592824D01*
X132554666Y-93010451D01*
X132684757Y-93410383D01*
X132842786Y-93706038D01*
X133158347Y-93862048D01*
X134470395Y-92550000D01*
X133158347Y-91237952D01*
X132842786Y-91393962D01*
X132651980Y-91768745D01*
X132537956Y-92173551D01*
X132505098Y-92592824D01*
X105530325Y-92592824D01*
X105530000Y-92485750D01*
X105371250Y-92327000D01*
X103722000Y-92327000D01*
X103468000Y-92327000D01*
X101818750Y-92327000D01*
X101660000Y-92485750D01*
X101656928Y-93500000D01*
X98685000Y-93500000D01*
X98685000Y-90927000D01*
X101657010Y-90927000D01*
X101660000Y-91914250D01*
X101818750Y-92073000D01*
X103468000Y-92073000D01*
X103468000Y-92053000D01*
X103722000Y-92053000D01*
X103722000Y-92073000D01*
X105371250Y-92073000D01*
X105530000Y-91914250D01*
X105532990Y-90927000D01*
X105998426Y-90927000D01*
X109996826Y-91026960D01*
X110021656Y-91025140D01*
X110045653Y-91018511D01*
X110067896Y-91007327D01*
X110079758Y-90998831D01*
X121479758Y-81798831D01*
X121497507Y-81781372D01*
X121511198Y-81761351D01*
X123298186Y-78522436D01*
X123385750Y-78610000D01*
X124100000Y-78613072D01*
X124224482Y-78600812D01*
X124344180Y-78564502D01*
X124454494Y-78505537D01*
X124551185Y-78426185D01*
X124630537Y-78329494D01*
X124689502Y-78219180D01*
X124725812Y-78099482D01*
X124738072Y-77975000D01*
X124735000Y-77110750D01*
X124576250Y-76952000D01*
X124164633Y-76952000D01*
X124304771Y-76698000D01*
X124576250Y-76698000D01*
X124735000Y-76539250D01*
X124735840Y-76302976D01*
X135006099Y-90436361D01*
M02*
